<svg xmlns="http://www.w3.org/2000/svg" xmlns:xlink="http://www.w3.org/1999/xlink" width="77" height="77" viewBox="0 0 77 77">
  <defs>
    <clipPath id="clip-path">
      <rect id="Rectángulo_46504" data-name="Rectángulo 46504" width="44.03" height="50.374" fill="#7f4fc7"/>
    </clipPath>
  </defs>
  <g id="Grupo_155229" data-name="Grupo 155229" transform="translate(-572.961 -3235)">
    <circle id="Elipse_5821" data-name="Elipse 5821" cx="38.5" cy="38.5" r="38.5" transform="translate(572.961 3235)" fill="#fff"/>
    <g id="Grupo_154977" data-name="Grupo 154977" transform="translate(589.203 3250.484)">
      <g id="Grupo_154976" data-name="Grupo 154976" clip-path="url(#clip-path)">
        <path id="Trazado_197006" data-name="Trazado 197006" d="M1.652,50.373A2.329,2.329,0,0,1,0,47.849q.032-14.9.013-29.8a5.054,5.054,0,0,1,3.445-5.073c.291-.1.594-.165.949-.262V12.2c0-1.754,0-3.508,0-5.263a2.366,2.366,0,0,1,2.5-2.5c.621,0,1.241,0,1.926,0,0-.647,0-1.263,0-1.88A2.37,2.37,0,0,1,11.38.006Q21.906,0,32.43,0a1.3,1.3,0,0,1,1,.415c1.928,1.944,3.876,3.867,5.791,5.825a1.517,1.517,0,0,1,.386.943c.039,1.671.018,3.344.018,5.016v.546a5.284,5.284,0,0,1,2.55,1.157,5.121,5.121,0,0,1,1.843,4.07q.007,6.664,0,13.328a1.944,1.944,0,0,1-.007.245.737.737,0,0,1-.78.717.7.7,0,0,1-.683-.757c-.008-1.082-.005-2.164-.005-3.246q0-4.205,0-8.41v-.614H1.488v.535q0,14.09,0,28.181c0,.809.137.946.936.946h39.2c.774,0,.919-.143.92-.915q0-6.271,0-12.541a4.894,4.894,0,0,1,.014-.54.72.72,0,0,1,1.421-.08,2.792,2.792,0,0,1,.038.586c0,4.147-.018,8.3.014,12.443a2.326,2.326,0,0,1-1.652,2.525ZM33.689,17.7V12.093c-1.259,0-2.487.009-3.714,0a2.375,2.375,0,0,1-2.436-2.421c-.011-.541,0-1.082,0-1.623V5.912H7.075c-.913,0-1.192.284-1.192,1.213q0,5.041,0,10.082c0,.159.014.318.022.5Zm4.427.021V7.666c-1.226,0-2.421.007-3.614,0a2.394,2.394,0,0,1-2.538-2.522c0-.279,0-.557,0-.836V1.481h-20.5a2.334,2.334,0,0,0-.343.008.833.833,0,0,0-.793.8c-.037.7-.01,1.4-.01,2.145h.621q8.531,0,17.061-.007a1.3,1.3,0,0,1,1,.411q2.891,2.914,5.806,5.806a1.292,1.292,0,0,1,.4,1c-.015,1.836-.007,3.671-.007,5.507V17.7c.164.008.276.019.388.02.833,0,1.667,0,2.531,0M4.394,14.283a3.334,3.334,0,0,0-2.826,3.4H4.394ZM42.49,17.7A3.457,3.457,0,0,0,39.648,14.3V17.7Zm-9.04-15c0,.866-.025,1.774.01,2.679a.772.772,0,0,0,.752.778c.919.041,1.841.013,2.707.013L33.45,2.7m-1,7.91L29.012,7.169v.36c0,.735-.016,1.471.01,2.2a.843.843,0,0,0,.829.869c.893.029,1.787.008,2.6.008" transform="translate(-0.001 0.001)" fill="#7f4fc7"/>
        <path id="Trazado_197007" data-name="Trazado 197007" d="M57.115,81.9v.579c0,3.786.008,7.572-.01,11.358,0,.475.132.6.6.6,4.9-.017,9.8-.01,14.7-.01h.535c.013-.213.032-.387.032-.561,0-3.8-.008-7.6.013-11.407,0-.473-.153-.571-.587-.565-1.753.021-3.507.01-5.261.007-.2,0-.447.042-.574-.059a1.357,1.357,0,0,1-.515-.683.611.611,0,0,1,.548-.7,2.26,2.26,0,0,1,.489-.033q2.753,0,5.507,0A1.63,1.63,0,0,1,74.452,82.3q0,5.851,0,11.7a1.648,1.648,0,0,1-1.894,1.9H57.512a1.63,1.63,0,0,1-1.872-1.862q0-5.875,0-11.751A1.626,1.626,0,0,1,57.5,80.425q2.729,0,5.458,0a2.784,2.784,0,0,1,.49.027.718.718,0,0,1,.011,1.413,2.68,2.68,0,0,1-.538.033q-2.582,0-5.163,0h-.647" transform="translate(-34.362 -49.67)" fill="#7f4fc7"/>
        <path id="Trazado_197008" data-name="Trazado 197008" d="M70.649,89.518H65.785a3.259,3.259,0,0,1-.441-.013.724.724,0,0,1-.1-1.417,1.986,1.986,0,0,1,.534-.043q4.864,0,9.727,0a3.126,3.126,0,0,1,.393.008.738.738,0,0,1,.691.755.7.7,0,0,1-.731.7c-.589.019-1.179.008-1.768.008H70.649" transform="translate(-39.965 -54.374)" fill="#7f4fc7"/>
        <path id="Trazado_197009" data-name="Trazado 197009" d="M70.7,96.638c-1.654,0-3.308.006-4.962-.007a1.054,1.054,0,0,1-.681-.177.916.916,0,0,1-.25-.719c.05-.215.329-.4.539-.548.088-.064.254-.024.385-.024h9.924c.065,0,.131,0,.2,0a.736.736,0,1,1,.008,1.468c-.966.015-1.932.005-2.9.006H70.7" transform="translate(-40.021 -58.765)" fill="#7f4fc7"/>
        <path id="Trazado_197010" data-name="Trazado 197010" d="M70.6,103.735H65.837c-.147,0-.3,0-.441-.009a.679.679,0,0,1-.687-.691.7.7,0,0,1,.673-.756,3.254,3.254,0,0,1,.441-.018h9.626c.788,0,1.149.244,1.137.76-.011.5-.352.715-1.122.715H70.6" transform="translate(-39.963 -63.155)" fill="#7f4fc7"/>
        <path id="Trazado_197011" data-name="Trazado 197011" d="M70.629,110.843c-1.687,0-3.374,0-5.06,0-.551,0-.858-.267-.865-.719s.307-.748.839-.752c1.13-.009,2.26,0,3.39,0,2.227,0,4.455-.01,6.682.012a1.153,1.153,0,0,1,.779.286.805.805,0,0,1,.091.748.968.968,0,0,1-.7.409c-1,.046-2,.02-3,.02H70.629" transform="translate(-39.961 -67.544)" fill="#7f4fc7"/>
        <path id="Trazado_197012" data-name="Trazado 197012" d="M33.141,38.517h9.587c.148,0,.3,0,.443,0,.528.02.861.315.849.748-.011.416-.331.7-.833.724-.114.007-.229,0-.344,0q-9.71,0-19.421,0a2.643,2.643,0,0,1-.633-.05.72.72,0,0,1,.077-1.4,3.473,3.473,0,0,1,.54-.022h9.735" transform="translate(-13.752 -23.787)" fill="#7f4fc7"/>
        <path id="Trazado_197013" data-name="Trazado 197013" d="M31.586,31.4H39.7a2.348,2.348,0,0,1,.49.017.731.731,0,0,1,.032,1.432,1.907,1.907,0,0,1-.489.025H23.306a1.989,1.989,0,0,1-.441-.018.732.732,0,0,1,.016-1.443,2.2,2.2,0,0,1,.442-.014h8.263" transform="translate(-13.751 -19.388)" fill="#7f4fc7"/>
      </g>
    </g>
  </g>
</svg>
