<svg xmlns="http://www.w3.org/2000/svg" xmlns:xlink="http://www.w3.org/1999/xlink" width="235" height="260" viewBox="0 0 235 260">
  <defs>
    <clipPath id="clip-path">
      <rect id="Rectángulo_46505" data-name="Rectángulo 46505" width="42.622" height="42.623" fill="#7f4fc7"/>
    </clipPath>
  </defs>
  <g id="Grupo_155231" data-name="Grupo 155231" transform="translate(-685.961 -3067)">
    <g id="Grupo_154967" data-name="Grupo 154967" transform="translate(685.961 3066.566)">
      <rect id="Rectángulo_46097" data-name="Rectángulo 46097" width="235" height="260" rx="10" transform="translate(0 0.434)" fill="#c5e5fe"/>
      <path id="Rectángulo_46502" data-name="Rectángulo 46502" d="M0,0H235a0,0,0,0,1,0,0V92a10,10,0,0,1-10,10H10A10,10,0,0,1,0,92V0A0,0,0,0,1,0,0Z" transform="translate(0 158.434)" fill="#ddedf8"/>
    </g>
    <path id="Trazado_197257" data-name="Trazado 197257" d="M16.5,4.852H12.84V15H11.348V4.852H7.7V3.625h8.8Zm.3,5.844a4.993,4.993,0,0,1,.488-2.234A3.643,3.643,0,0,1,18.648,6.93a3.7,3.7,0,0,1,1.988-.539,3.565,3.565,0,0,1,2.793,1.2,4.6,4.6,0,0,1,1.066,3.18v.1a5.036,5.036,0,0,1-.473,2.215,3.589,3.589,0,0,1-1.352,1.527,3.743,3.743,0,0,1-2.02.547,3.556,3.556,0,0,1-2.785-1.2A4.575,4.575,0,0,1,16.8,10.8Zm1.453.172a3.616,3.616,0,0,0,.652,2.258,2.211,2.211,0,0,0,3.5-.012,3.955,3.955,0,0,0,.648-2.418,3.61,3.61,0,0,0-.66-2.254,2.1,2.1,0,0,0-1.754-.863,2.075,2.075,0,0,0-1.727.852A3.925,3.925,0,0,0,18.254,10.867Zm7.7-.164a4.952,4.952,0,0,1,.922-3.129,3.137,3.137,0,0,1,4.766-.168V3H33.09V15H31.762l-.07-.906a2.943,2.943,0,0,1-2.414,1.063,2.887,2.887,0,0,1-2.395-1.2,5.008,5.008,0,0,1-.926-3.141Zm1.445.164A3.749,3.749,0,0,0,28,13.117a1.92,1.92,0,0,0,1.641.813A2.108,2.108,0,0,0,31.645,12.7V8.813a2.125,2.125,0,0,0-1.992-1.2A1.929,1.929,0,0,0,28,8.438,4.128,4.128,0,0,0,27.4,10.867Zm7.547-.172a4.993,4.993,0,0,1,.488-2.234A3.643,3.643,0,0,1,36.8,6.93a3.7,3.7,0,0,1,1.988-.539,3.565,3.565,0,0,1,2.793,1.2,4.6,4.6,0,0,1,1.066,3.18v.1a5.036,5.036,0,0,1-.473,2.215,3.589,3.589,0,0,1-1.352,1.527,3.743,3.743,0,0,1-2.02.547,3.556,3.556,0,0,1-2.785-1.2A4.575,4.575,0,0,1,34.949,10.8Zm1.453.172a3.616,3.616,0,0,0,.652,2.258,2.211,2.211,0,0,0,3.5-.012A3.955,3.955,0,0,0,41.2,10.7a3.61,3.61,0,0,0-.66-2.254,2.1,2.1,0,0,0-1.754-.863,2.075,2.075,0,0,0-1.727.852A3.925,3.925,0,0,0,36.4,10.867ZM49.988,15H48.543V3h1.445Zm1.93-4.3a4.993,4.993,0,0,1,.488-2.234A3.643,3.643,0,0,1,53.766,6.93a3.7,3.7,0,0,1,1.988-.539,3.565,3.565,0,0,1,2.793,1.2,4.6,4.6,0,0,1,1.066,3.18v.1a5.036,5.036,0,0,1-.473,2.215,3.589,3.589,0,0,1-1.352,1.527,3.743,3.743,0,0,1-2.02.547,3.556,3.556,0,0,1-2.785-1.2A4.575,4.575,0,0,1,51.918,10.8Zm1.453.172a3.616,3.616,0,0,0,.652,2.258,2.211,2.211,0,0,0,3.5-.012,3.955,3.955,0,0,0,.648-2.418,3.61,3.61,0,0,0-.66-2.254,2.1,2.1,0,0,0-1.754-.863,2.075,2.075,0,0,0-1.727.852A3.925,3.925,0,0,0,53.371,10.867Zm16.1-3.023a4.331,4.331,0,0,0-.711-.055A1.9,1.9,0,0,0,66.832,9v6H65.387V6.547h1.406l.023.977a2.251,2.251,0,0,1,2.016-1.133,1.477,1.477,0,0,1,.641.109Zm4.688,7.313a3.693,3.693,0,0,1-2.8-1.129,4.19,4.19,0,0,1-1.078-3.02v-.266a5.073,5.073,0,0,1,.48-2.246,3.748,3.748,0,0,1,1.344-1.547,3.378,3.378,0,0,1,1.871-.559,3.166,3.166,0,0,1,2.563,1.086,4.7,4.7,0,0,1,.914,3.109v.6H71.73a3,3,0,0,0,.73,2.02,2.3,2.3,0,0,0,1.777.77,2.517,2.517,0,0,0,1.3-.312,3.259,3.259,0,0,0,.93-.828l.883.688A3.55,3.55,0,0,1,74.16,15.156Zm-.18-7.578a1.928,1.928,0,0,0-1.469.637A3.1,3.1,0,0,0,71.777,10h4.234V9.891a2.753,2.753,0,0,0-.594-1.707A1.815,1.815,0,0,0,73.98,7.578ZM80.7,15H79.254V3H80.7Zm7.531,0a3.036,3.036,0,0,1-.2-.891,3.225,3.225,0,0,1-2.406,1.047,2.984,2.984,0,0,1-2.051-.707,2.288,2.288,0,0,1-.8-1.793,2.39,2.39,0,0,1,1-2.051,4.733,4.733,0,0,1,2.824-.73H88V9.211A1.623,1.623,0,0,0,87.551,8a1.821,1.821,0,0,0-1.336-.449,2.108,2.108,0,0,0-1.3.391,1.151,1.151,0,0,0-.523.945H82.941a2,2,0,0,1,.449-1.223,3.066,3.066,0,0,1,1.219-.934A4.1,4.1,0,0,1,86.3,6.391a3.342,3.342,0,0,1,2.289.73,2.635,2.635,0,0,1,.859,2.012v3.891a4.757,4.757,0,0,0,.3,1.852V15Zm-2.4-1.1a2.54,2.54,0,0,0,1.289-.352A2.127,2.127,0,0,0,88,12.633V10.9H86.871q-2.656,0-2.656,1.555a1.316,1.316,0,0,0,.453,1.063A1.742,1.742,0,0,0,85.832,13.9Zm9.273.078a2.082,2.082,0,0,0,1.352-.469,1.649,1.649,0,0,0,.641-1.172h1.367a2.621,2.621,0,0,1-.5,1.383,3.293,3.293,0,0,1-1.23,1.047,3.55,3.55,0,0,1-1.629.391A3.482,3.482,0,0,1,92.359,14a4.59,4.59,0,0,1-1.02-3.152v-.242a5.089,5.089,0,0,1,.453-2.2,3.451,3.451,0,0,1,1.3-1.492,3.7,3.7,0,0,1,2-.531,3.39,3.39,0,0,1,2.363.852,3.043,3.043,0,0,1,1,2.211H97.1a1.992,1.992,0,0,0-.621-1.348A1.932,1.932,0,0,0,95.1,7.578a2.023,2.023,0,0,0-1.707.793,3.724,3.724,0,0,0-.605,2.293v.273a3.65,3.65,0,0,0,.6,2.25A2.033,2.033,0,0,0,95.105,13.977ZM101.66,15h-1.445V6.547h1.445ZM100.1,4.3a.863.863,0,0,1,.215-.594.807.807,0,0,1,.637-.242.819.819,0,0,1,.641.242.854.854,0,0,1,.219.594.826.826,0,0,1-.219.586.834.834,0,0,1-.641.234.821.821,0,0,1-.637-.234A.834.834,0,0,1,100.1,4.3ZM103.59,10.7a4.993,4.993,0,0,1,.488-2.234,3.643,3.643,0,0,1,1.359-1.531,3.7,3.7,0,0,1,1.988-.539,3.565,3.565,0,0,1,2.793,1.2,4.6,4.6,0,0,1,1.066,3.18v.1a5.036,5.036,0,0,1-.473,2.215,3.589,3.589,0,0,1-1.352,1.527,3.743,3.743,0,0,1-2.02.547,3.556,3.556,0,0,1-2.785-1.2A4.575,4.575,0,0,1,103.59,10.8Zm1.453.172a3.616,3.616,0,0,0,.652,2.258,2.211,2.211,0,0,0,3.5-.012,3.955,3.955,0,0,0,.648-2.418,3.61,3.61,0,0,0-.66-2.254,2.1,2.1,0,0,0-1.754-.863,2.075,2.075,0,0,0-1.727.852A3.925,3.925,0,0,0,105.043,10.867Zm9.422-4.32.047,1.063a3.08,3.08,0,0,1,2.531-1.219q2.68,0,2.7,3.023V15H118.3V9.406a1.946,1.946,0,0,0-.418-1.352,1.675,1.675,0,0,0-1.277-.437,2.086,2.086,0,0,0-1.234.375,2.546,2.546,0,0,0-.828.984V15H113.1V6.547ZM127.145,15a3.036,3.036,0,0,1-.2-.891,3.225,3.225,0,0,1-2.406,1.047,2.984,2.984,0,0,1-2.051-.707,2.288,2.288,0,0,1-.8-1.793,2.39,2.39,0,0,1,1-2.051,4.733,4.733,0,0,1,2.824-.73h1.406V9.211A1.623,1.623,0,0,0,126.465,8a1.821,1.821,0,0,0-1.336-.449,2.108,2.108,0,0,0-1.3.391,1.151,1.151,0,0,0-.523.945h-1.453a2,2,0,0,1,.449-1.223,3.066,3.066,0,0,1,1.219-.934,4.1,4.1,0,0,1,1.691-.344,3.342,3.342,0,0,1,2.289.73,2.635,2.635,0,0,1,.859,2.012v3.891a4.757,4.757,0,0,0,.3,1.852V15Zm-2.4-1.1a2.54,2.54,0,0,0,1.289-.352,2.127,2.127,0,0,0,.883-.914V10.9h-1.133q-2.656,0-2.656,1.555a1.316,1.316,0,0,0,.453,1.063A1.742,1.742,0,0,0,124.746,13.9Zm5.531-3.2a4.952,4.952,0,0,1,.922-3.129,3.137,3.137,0,0,1,4.766-.168V3h1.445V15h-1.328l-.07-.906a2.943,2.943,0,0,1-2.414,1.063,2.887,2.887,0,0,1-2.395-1.2,5.008,5.008,0,0,1-.926-3.141Zm1.445.164a3.749,3.749,0,0,0,.594,2.25,1.919,1.919,0,0,0,1.641.813,2.108,2.108,0,0,0,2.008-1.234V8.813a2.125,2.125,0,0,0-1.992-1.2,1.929,1.929,0,0,0-1.656.82A4.128,4.128,0,0,0,131.723,10.867Zm7.547-.172a4.993,4.993,0,0,1,.488-2.234,3.642,3.642,0,0,1,1.359-1.531,3.7,3.7,0,0,1,1.988-.539,3.565,3.565,0,0,1,2.793,1.2,4.6,4.6,0,0,1,1.066,3.18v.1a5.036,5.036,0,0,1-.473,2.215,3.589,3.589,0,0,1-1.352,1.527,3.743,3.743,0,0,1-2.02.547,3.556,3.556,0,0,1-2.785-1.2A4.575,4.575,0,0,1,139.27,10.8Zm1.453.172a3.616,3.616,0,0,0,.652,2.258,2.211,2.211,0,0,0,3.5-.012,3.954,3.954,0,0,0,.648-2.418,3.61,3.61,0,0,0-.66-2.254,2.1,2.1,0,0,0-1.754-.863,2.075,2.075,0,0,0-1.727.852A3.925,3.925,0,0,0,140.723,10.867ZM16.551,37.977a2.082,2.082,0,0,0,1.352-.469,1.649,1.649,0,0,0,.641-1.172H19.91a2.621,2.621,0,0,1-.5,1.383,3.293,3.293,0,0,1-1.23,1.047,3.55,3.55,0,0,1-1.629.391A3.482,3.482,0,0,1,13.8,38a4.59,4.59,0,0,1-1.02-3.152v-.242a5.089,5.089,0,0,1,.453-2.2,3.451,3.451,0,0,1,1.3-1.492,3.7,3.7,0,0,1,2-.531,3.39,3.39,0,0,1,2.363.852,3.043,3.043,0,0,1,1,2.211H18.543a1.992,1.992,0,0,0-.621-1.348,1.932,1.932,0,0,0-1.379-.527,2.023,2.023,0,0,0-1.707.793,3.724,3.724,0,0,0-.605,2.293v.273a3.65,3.65,0,0,0,.6,2.25A2.033,2.033,0,0,0,16.551,37.977Zm4.6-3.281a4.993,4.993,0,0,1,.488-2.234A3.643,3.643,0,0,1,23,30.93a3.7,3.7,0,0,1,1.988-.539,3.565,3.565,0,0,1,2.793,1.2,4.6,4.6,0,0,1,1.066,3.18v.1a5.036,5.036,0,0,1-.473,2.215,3.589,3.589,0,0,1-1.352,1.527,3.743,3.743,0,0,1-2.02.547,3.556,3.556,0,0,1-2.785-1.2A4.575,4.575,0,0,1,21.152,34.8Zm1.453.172a3.616,3.616,0,0,0,.652,2.258,2.211,2.211,0,0,0,3.5-.012A3.955,3.955,0,0,0,27.4,34.7a3.61,3.61,0,0,0-.66-2.254,2.1,2.1,0,0,0-1.754-.863,2.075,2.075,0,0,0-1.727.852A3.925,3.925,0,0,0,22.605,34.867Zm9.422-4.32.047,1.063a3.08,3.08,0,0,1,2.531-1.219q2.68,0,2.7,3.023V39H35.863V33.406a1.946,1.946,0,0,0-.418-1.352,1.675,1.675,0,0,0-1.277-.437,2.086,2.086,0,0,0-1.234.375,2.546,2.546,0,0,0-.828.984V39H30.66V30.547ZM45.02,39H43.574V27H45.02Zm7.531,0a3.036,3.036,0,0,1-.2-.891,3.225,3.225,0,0,1-2.406,1.047,2.984,2.984,0,0,1-2.051-.707,2.287,2.287,0,0,1-.8-1.793,2.39,2.39,0,0,1,1-2.051,4.733,4.733,0,0,1,2.824-.73h1.406v-.664A1.623,1.623,0,0,0,51.871,32a1.821,1.821,0,0,0-1.336-.449,2.107,2.107,0,0,0-1.3.391,1.151,1.151,0,0,0-.523.945H47.262a2,2,0,0,1,.449-1.223,3.066,3.066,0,0,1,1.219-.934,4.1,4.1,0,0,1,1.691-.344,3.342,3.342,0,0,1,2.289.73,2.635,2.635,0,0,1,.859,2.012v3.891a4.757,4.757,0,0,0,.3,1.852V39Zm-2.4-1.1a2.54,2.54,0,0,0,1.289-.352,2.127,2.127,0,0,0,.883-.914V34.9H51.191q-2.656,0-2.656,1.555a1.316,1.316,0,0,0,.453,1.063A1.742,1.742,0,0,0,50.152,37.9ZM60.707,39V31.664H59.371V30.547h1.336V29.68a2.878,2.878,0,0,1,.727-2.1,2.745,2.745,0,0,1,2.055-.742,3.816,3.816,0,0,1,.992.132L64.4,28.133a4.151,4.151,0,0,0-.781-.07,1.41,1.41,0,0,0-1.086.411,1.669,1.669,0,0,0-.383,1.18v.893h1.8v1.117h-1.8V39ZM70.77,39a3.036,3.036,0,0,1-.2-.891,3.225,3.225,0,0,1-2.406,1.047,2.984,2.984,0,0,1-2.051-.707,2.288,2.288,0,0,1-.8-1.793,2.39,2.39,0,0,1,1-2.051,4.733,4.733,0,0,1,2.824-.73h1.406v-.664A1.623,1.623,0,0,0,70.09,32a1.821,1.821,0,0,0-1.336-.449,2.108,2.108,0,0,0-1.3.391,1.151,1.151,0,0,0-.523.945H65.48a2,2,0,0,1,.449-1.223,3.066,3.066,0,0,1,1.219-.934,4.1,4.1,0,0,1,1.691-.344,3.342,3.342,0,0,1,2.289.73,2.635,2.635,0,0,1,.859,2.012v3.891a4.757,4.757,0,0,0,.3,1.852V39Zm-2.4-1.1a2.54,2.54,0,0,0,1.289-.352,2.127,2.127,0,0,0,.883-.914V34.9H69.41q-2.656,0-2.656,1.555a1.316,1.316,0,0,0,.453,1.063A1.742,1.742,0,0,0,68.371,37.9ZM81.41,34.867a5.026,5.026,0,0,1-.891,3.113,2.846,2.846,0,0,1-2.391,1.176,2.947,2.947,0,0,1-2.477-1.133l-.07.977H74.254V27H75.7v4.477a2.93,2.93,0,0,1,2.414-1.086,2.863,2.863,0,0,1,2.418,1.164,5.177,5.177,0,0,1,.879,3.188ZM79.965,34.7a3.906,3.906,0,0,0-.57-2.281,1.888,1.888,0,0,0-1.641-.8A2.122,2.122,0,0,0,75.7,32.945V36.6a2.181,2.181,0,0,0,2.07,1.328,1.878,1.878,0,0,0,1.617-.8A4.153,4.153,0,0,0,79.965,34.7Zm7.352-2.859a4.331,4.331,0,0,0-.711-.055A1.9,1.9,0,0,0,84.676,33v6H83.23V30.547h1.406l.023.977a2.251,2.251,0,0,1,2.016-1.133,1.477,1.477,0,0,1,.641.109ZM90.215,39H88.77V30.547h1.445ZM88.652,28.3a.863.863,0,0,1,.215-.594.807.807,0,0,1,.637-.242.819.819,0,0,1,.641.242.854.854,0,0,1,.219.594.826.826,0,0,1-.219.586.834.834,0,0,1-.641.234.821.821,0,0,1-.637-.234A.834.834,0,0,1,88.652,28.3Zm7.266,9.672a2.082,2.082,0,0,0,1.352-.469,1.649,1.649,0,0,0,.641-1.172h1.367a2.621,2.621,0,0,1-.5,1.383,3.293,3.293,0,0,1-1.23,1.047,3.55,3.55,0,0,1-1.629.391A3.482,3.482,0,0,1,93.172,38a4.59,4.59,0,0,1-1.02-3.152v-.242a5.089,5.089,0,0,1,.453-2.2,3.451,3.451,0,0,1,1.3-1.492,3.7,3.7,0,0,1,2-.531,3.39,3.39,0,0,1,2.363.852,3.043,3.043,0,0,1,1,2.211H97.91a1.992,1.992,0,0,0-.621-1.348,1.932,1.932,0,0,0-1.379-.527,2.023,2.023,0,0,0-1.707.793,3.724,3.724,0,0,0-.605,2.293v.273a3.65,3.65,0,0,0,.6,2.25A2.033,2.033,0,0,0,95.918,37.977ZM106.121,39a3.036,3.036,0,0,1-.2-.891,3.225,3.225,0,0,1-2.406,1.047,2.984,2.984,0,0,1-2.051-.707,2.288,2.288,0,0,1-.8-1.793,2.39,2.39,0,0,1,1-2.051,4.733,4.733,0,0,1,2.824-.73h1.406v-.664A1.623,1.623,0,0,0,105.441,32a1.821,1.821,0,0,0-1.336-.449,2.108,2.108,0,0,0-1.3.391,1.151,1.151,0,0,0-.523.945h-1.453a2,2,0,0,1,.449-1.223,3.066,3.066,0,0,1,1.219-.934,4.1,4.1,0,0,1,1.691-.344,3.342,3.342,0,0,1,2.289.73,2.635,2.635,0,0,1,.859,2.012v3.891a4.757,4.757,0,0,0,.3,1.852V39Zm-2.4-1.1a2.54,2.54,0,0,0,1.289-.352,2.127,2.127,0,0,0,.883-.914V34.9h-1.133q-2.656,0-2.656,1.555a1.316,1.316,0,0,0,.453,1.063A1.742,1.742,0,0,0,103.723,37.9Zm9.273.078a2.082,2.082,0,0,0,1.352-.469,1.649,1.649,0,0,0,.641-1.172h1.367a2.621,2.621,0,0,1-.5,1.383,3.293,3.293,0,0,1-1.23,1.047,3.55,3.55,0,0,1-1.629.391A3.482,3.482,0,0,1,110.25,38a4.59,4.59,0,0,1-1.02-3.152v-.242a5.089,5.089,0,0,1,.453-2.2,3.451,3.451,0,0,1,1.3-1.492,3.7,3.7,0,0,1,2-.531,3.39,3.39,0,0,1,2.363.852,3.043,3.043,0,0,1,1,2.211h-1.367a1.992,1.992,0,0,0-.621-1.348,1.932,1.932,0,0,0-1.379-.527,2.023,2.023,0,0,0-1.707.793,3.724,3.724,0,0,0-.605,2.293v.273a3.65,3.65,0,0,0,.6,2.25A2.033,2.033,0,0,0,113,37.977ZM119.551,39h-1.445V30.547h1.445Zm-1.562-10.7a.863.863,0,0,1,.215-.594.807.807,0,0,1,.637-.242.819.819,0,0,1,.641.242.854.854,0,0,1,.219.594.826.826,0,0,1-.219.586.834.834,0,0,1-.641.234.821.821,0,0,1-.637-.234A.834.834,0,0,1,117.988,28.3ZM121.48,34.7a4.993,4.993,0,0,1,.488-2.234,3.643,3.643,0,0,1,1.359-1.531,3.7,3.7,0,0,1,1.988-.539,3.565,3.565,0,0,1,2.793,1.2,4.6,4.6,0,0,1,1.066,3.18v.1a5.036,5.036,0,0,1-.473,2.215,3.589,3.589,0,0,1-1.352,1.527,3.743,3.743,0,0,1-2.02.547,3.556,3.556,0,0,1-2.785-1.2A4.575,4.575,0,0,1,121.48,34.8Zm1.453.172a3.616,3.616,0,0,0,.652,2.258,2.211,2.211,0,0,0,3.5-.012,3.955,3.955,0,0,0,.648-2.418,3.61,3.61,0,0,0-.66-2.254,2.1,2.1,0,0,0-1.754-.863,2.075,2.075,0,0,0-1.727.852A3.925,3.925,0,0,0,122.934,34.867Zm3.039-7.852h1.75l-2.094,2.3-1.164,0Zm6.383,3.531.047,1.063a3.08,3.08,0,0,1,2.531-1.219q2.68,0,2.7,3.023V39h-1.445V33.406a1.946,1.946,0,0,0-.418-1.352,1.675,1.675,0,0,0-1.277-.437,2.086,2.086,0,0,0-1.234.375,2.546,2.546,0,0,0-.828.984V39h-1.445V30.547Zm7.492,7.7a.905.905,0,0,1,.223-.625.848.848,0,0,1,.668-.25.874.874,0,0,1,.676.25.887.887,0,0,1,.23.625.839.839,0,0,1-.23.6.89.89,0,0,1-.676.242.8.8,0,0,1-.891-.844Z" transform="translate(725.961 3131)" fill="#12263f"/>
    <g id="Grupo_154972" data-name="Grupo 154972" transform="translate(1 -117)">
      <path id="Trazado_197256" data-name="Trazado 197256" d="M5.949,10.992V15H3.605V3.625H8.043a5.134,5.134,0,0,1,2.254.469,3.454,3.454,0,0,1,1.5,1.332,3.714,3.714,0,0,1,.523,1.965,3.266,3.266,0,0,1-1.145,2.637A4.767,4.767,0,0,1,8,10.992Zm0-1.9H8.043a2.059,2.059,0,0,0,1.418-.437,1.591,1.591,0,0,0,.488-1.25,1.876,1.876,0,0,0-.492-1.352A1.839,1.839,0,0,0,8.1,5.523H5.949Zm10.32,1.9V15H13.926V3.625h4.438a5.134,5.134,0,0,1,2.254.469,3.454,3.454,0,0,1,1.5,1.332,3.714,3.714,0,0,1,.523,1.965,3.266,3.266,0,0,1-1.145,2.637,4.767,4.767,0,0,1-3.168.965Zm0-1.9h2.094a2.059,2.059,0,0,0,1.418-.437,1.591,1.591,0,0,0,.488-1.25,1.876,1.876,0,0,0-.492-1.352,1.839,1.839,0,0,0-1.359-.531H16.27Zm11.914,1.281a11.99,11.99,0,0,1,.477-3.406,8.989,8.989,0,0,1,1.406-2.863,5.251,5.251,0,0,1,2.016-1.73l.438,1.219A5.438,5.438,0,0,0,30.738,6.2a12.082,12.082,0,0,0-.641,4.125v.242a12.313,12.313,0,0,0,.633,4.141,5.544,5.544,0,0,0,1.789,2.648l-.437,1.2a5.253,5.253,0,0,1-1.98-1.684,8.838,8.838,0,0,1-1.4-2.785,11.918,11.918,0,0,1-.516-3.3Zm13.125.477a5.07,5.07,0,0,1-.887,3.129,2.843,2.843,0,0,1-2.395,1.176,2.633,2.633,0,0,1-2.07-.891V18.25H33.7V6.547h2.094l.078.828a2.654,2.654,0,0,1,2.141-.984,2.862,2.862,0,0,1,2.43,1.156,5.207,5.207,0,0,1,.867,3.188Zm-2.258-.172a3.345,3.345,0,0,0-.418-1.826,1.36,1.36,0,0,0-1.215-.643,1.478,1.478,0,0,0-1.461.815V12.5a1.5,1.5,0,0,0,1.477.839Q39.051,13.336,39.051,10.679Zm8.406-2.015a6.134,6.134,0,0,0-.812-.062,1.654,1.654,0,0,0-1.68.867V15H42.707V6.547H44.84L44.9,7.555a2.092,2.092,0,0,1,1.883-1.164,2.366,2.366,0,0,1,.7.1ZM47.91,10.7a5.013,5.013,0,0,1,.484-2.242A3.546,3.546,0,0,1,49.789,6.93,4.069,4.069,0,0,1,51.9,6.391,3.849,3.849,0,0,1,54.7,7.438,4.2,4.2,0,0,1,55.9,10.281l.016.578a4.418,4.418,0,0,1-1.086,3.121,4.209,4.209,0,0,1-5.832,0A4.5,4.5,0,0,1,47.91,10.8Zm2.258.16a3.16,3.16,0,0,0,.453,1.843,1.628,1.628,0,0,0,2.578.008,3.457,3.457,0,0,0,.461-2.015A3.128,3.128,0,0,0,53.2,8.86a1.5,1.5,0,0,0-1.3-.649,1.474,1.474,0,0,0-1.281.646A3.516,3.516,0,0,0,50.168,10.856Zm6.789-.145a5.094,5.094,0,0,1,.887-3.148A2.877,2.877,0,0,1,60.27,6.391a2.589,2.589,0,0,1,2.039.922V3h2.266V15H62.535l-.109-.9a2.657,2.657,0,0,1-2.172,1.055,2.869,2.869,0,0,1-2.395-1.176A5.258,5.258,0,0,1,56.957,10.711Zm2.258.161a3.355,3.355,0,0,0,.414,1.829,1.348,1.348,0,0,0,1.2.636,1.51,1.51,0,0,0,1.477-.887V9.1a1.489,1.489,0,0,0-1.461-.887Q59.215,8.211,59.215,10.872Zm12.172,3.269a2.831,2.831,0,0,1-2.312,1.016A2.67,2.67,0,0,1,67,14.375a3.335,3.335,0,0,1-.73-2.289V6.547h2.258v5.467q0,1.322,1.2,1.322a1.63,1.63,0,0,0,1.578-.8V6.547h2.266V15H71.449Zm7.406-.8a1.481,1.481,0,0,0,1.016-.344,1.2,1.2,0,0,0,.406-.914h2.117a2.9,2.9,0,0,1-.469,1.574A3.093,3.093,0,0,1,80.6,14.762a3.949,3.949,0,0,1-1.77.395A3.67,3.67,0,0,1,75.973,14a4.56,4.56,0,0,1-1.047-3.184v-.148a4.508,4.508,0,0,1,1.039-3.117,3.627,3.627,0,0,1,2.852-1.164,3.555,3.555,0,0,1,2.543.9,3.2,3.2,0,0,1,.973,2.4H80.215a1.551,1.551,0,0,0-.406-1.072,1.51,1.51,0,0,0-2.223.163,3.333,3.333,0,0,0-.4,1.866v.235a3.375,3.375,0,0,0,.4,1.878A1.377,1.377,0,0,0,78.793,13.336Zm7.531-8.867V6.547H87.77V8.2H86.324v4.219a1.007,1.007,0,0,0,.18.672.9.9,0,0,0,.688.2,3.6,3.6,0,0,0,.664-.055v1.711a4.648,4.648,0,0,1-1.367.2,2.156,2.156,0,0,1-2.422-2.4V8.2H82.832V6.547h1.234V4.469ZM91.41,15H89.145V6.547H91.41Zm-2.4-10.641a1.112,1.112,0,0,1,.34-.836,1.465,1.465,0,0,1,1.848,0,1.105,1.105,0,0,1,.344.836A1.108,1.108,0,0,1,91.2,5.2a1.448,1.448,0,0,1-1.836,0A1.108,1.108,0,0,1,89.012,4.359ZM92.918,10.7A5.013,5.013,0,0,1,93.4,8.453,3.546,3.546,0,0,1,94.8,6.93a4.069,4.069,0,0,1,2.113-.539A3.849,3.849,0,0,1,99.7,7.438a4.2,4.2,0,0,1,1.207,2.844l.016.578A4.418,4.418,0,0,1,99.84,13.98a4.209,4.209,0,0,1-5.832,0,4.5,4.5,0,0,1-1.09-3.187Zm2.258.16a3.16,3.16,0,0,0,.453,1.843,1.628,1.628,0,0,0,2.578.008,3.457,3.457,0,0,0,.461-2.015,3.128,3.128,0,0,0-.461-1.831,1.5,1.5,0,0,0-1.3-.649,1.474,1.474,0,0,0-1.281.646A3.516,3.516,0,0,0,95.176,10.856Zm9.219-4.309.07.977a2.951,2.951,0,0,1,2.43-1.133,2.453,2.453,0,0,1,2,.789,3.682,3.682,0,0,1,.672,2.359V15h-2.258V9.581A1.47,1.47,0,0,0,107,8.536a1.4,1.4,0,0,0-1.039-.325,1.553,1.553,0,0,0-1.43.814V15H102.27V6.547Zm-73.281,28.3a5.07,5.07,0,0,1-.887,3.129,2.843,2.843,0,0,1-2.395,1.176,2.633,2.633,0,0,1-2.07-.891V42.25H23.5v-11.7H25.6l.078.828a2.654,2.654,0,0,1,2.141-.984,2.862,2.862,0,0,1,2.43,1.156,5.207,5.207,0,0,1,.867,3.188Zm-2.258-.172a3.345,3.345,0,0,0-.418-1.826,1.36,1.36,0,0,0-1.215-.643,1.478,1.478,0,0,0-1.461.815V36.5a1.5,1.5,0,0,0,1.477.839Q28.855,37.336,28.855,34.679ZM34.895,39H32.629V27h2.266Zm6.758,0a2.507,2.507,0,0,1-.227-.758,2.732,2.732,0,0,1-2.133.914,3,3,0,0,1-2.059-.719,2.312,2.312,0,0,1-.816-1.812,2.389,2.389,0,0,1,1-2.062,4.915,4.915,0,0,1,2.879-.727h1.039v-.484a1.393,1.393,0,0,0-.3-.937,1.183,1.183,0,0,0-.949-.352,1.345,1.345,0,0,0-.895.273.929.929,0,0,0-.324.75H36.605a2.268,2.268,0,0,1,.453-1.359,3,3,0,0,1,1.281-.98,4.669,4.669,0,0,1,1.859-.355,3.689,3.689,0,0,1,2.48.785,2.747,2.747,0,0,1,.918,2.207v3.664a4.041,4.041,0,0,0,.336,1.82V39Zm-1.867-1.57a1.945,1.945,0,0,0,.922-.223,1.462,1.462,0,0,0,.625-.6V35.156h-.844q-1.7,0-1.8,1.172l-.008.133a.9.9,0,0,0,.3.7A1.153,1.153,0,0,0,39.785,37.43Zm7.625-6.883.07.977a2.951,2.951,0,0,1,2.43-1.133,2.453,2.453,0,0,1,2,.789,3.682,3.682,0,0,1,.672,2.359V39H50.324V33.581a1.47,1.47,0,0,0-.312-1.045,1.4,1.4,0,0,0-1.039-.325,1.553,1.553,0,0,0-1.43.814V39H45.285V30.547Zm8.961,0,.07.977a2.951,2.951,0,0,1,2.43-1.133,2.453,2.453,0,0,1,2,.789,3.682,3.682,0,0,1,.672,2.359V39H59.285V33.581a1.47,1.47,0,0,0-.312-1.045,1.4,1.4,0,0,0-1.039-.325,1.553,1.553,0,0,0-1.43.814V39H54.246V30.547ZM65.637,39H63.371V30.547h2.266Zm-2.4-10.641a1.112,1.112,0,0,1,.34-.836,1.465,1.465,0,0,1,1.848,0,1.193,1.193,0,0,1,0,1.68,1.448,1.448,0,0,1-1.836,0A1.108,1.108,0,0,1,63.238,28.359Zm6.336,2.188.07.977a2.951,2.951,0,0,1,2.43-1.133,2.453,2.453,0,0,1,2,.789,3.682,3.682,0,0,1,.672,2.359V39H72.488V33.581a1.47,1.47,0,0,0-.312-1.045,1.4,1.4,0,0,0-1.039-.325,1.553,1.553,0,0,0-1.43.814V39H67.449V30.547Zm6.555,4.164a4.954,4.954,0,0,1,.926-3.133,3,3,0,0,1,2.5-1.187,2.631,2.631,0,0,1,2.164.953l.094-.8h2.047v8.172a3.613,3.613,0,0,1-.5,1.93,3.236,3.236,0,0,1-1.418,1.25,4.985,4.985,0,0,1-2.141.43,4.635,4.635,0,0,1-1.812-.371A3.217,3.217,0,0,1,76.645,41l1-1.375a2.645,2.645,0,0,0,2.047.945,1.936,1.936,0,0,0,1.4-.48,1.8,1.8,0,0,0,.5-1.363v-.453a2.612,2.612,0,0,1-2.055.883,2.992,2.992,0,0,1-2.465-1.191,4.953,4.953,0,0,1-.941-3.16Zm2.258.161a3.1,3.1,0,0,0,.461,1.809,1.465,1.465,0,0,0,1.266.655,1.567,1.567,0,0,0,1.477-.777V32.988a1.563,1.563,0,0,0-1.461-.777,1.474,1.474,0,0,0-1.277.667A3.5,3.5,0,0,0,78.387,34.872Zm11.094-.317a11.377,11.377,0,0,1-.508,3.4,9.225,9.225,0,0,1-1.461,2.883,5.263,5.263,0,0,1-2.039,1.719l-.437-1.2a5.494,5.494,0,0,0,1.75-2.578,11.939,11.939,0,0,0,.664-4.008v-.414a12.209,12.209,0,0,0-.637-4.117,5.727,5.727,0,0,0-1.777-2.672l.438-1.2a5.265,5.265,0,0,1,2,1.672,9.106,9.106,0,0,1,1.461,2.82A11.3,11.3,0,0,1,89.48,34.2Z" transform="translate(701.961 3369)" fill="#12263f"/>
      <circle id="Elipse_5822" data-name="Elipse 5822" cx="38.5" cy="38.5" r="38.5" transform="translate(826.961 3352)" fill="#fff"/>
    </g>
    <g id="Grupo_154979" data-name="Grupo 154979" transform="translate(845.257 3252.188)">
      <g id="Grupo_154978" data-name="Grupo 154978" clip-path="url(#clip-path)">
        <path id="Trazado_197014" data-name="Trazado 197014" d="M.717,7.148c-.611-.236-.709-.374-.71-.991,0-.814,0-1.628,0-2.442,0-.612.254-.87.859-.87q14.049,0,28.1,0c.612,0,.866.254.87.86.005.814,0,1.628,0,2.442,0,.63-.095.764-.689.991v10.7c.5-.334.957-.623,1.392-.944a.573.573,0,0,0,.163-.382q.376-4.622.736-9.245Q31.7,4,31.967.724A.7.7,0,0,1,32.71.008q1.731-.017,3.462,0c.49,0,.738.27.768.784q.317,5.294.633,10.589c.014.235.041.469.069.788.324-.213.6-.39.873-.575a.784.784,0,0,1,.866-.141.809.809,0,0,1,.4.822q-.006,7.991-.009,15.982a.978.978,0,0,0,.333.811c.406.365.785.763,1.164,1.158a.712.712,0,0,1,.005,1.127c-.13.141-.265.279-.408.408-.184.166-.306.306-.174.6a.484.484,0,0,0,.534.327c1.341,0,1.394.057,1.394,1.4,0,.681.006,1.362,0,2.042-.007.55-.27.8-.825.816a4.871,4.871,0,0,1-.532,0,.488.488,0,0,0-.574.332c-.137.3.021.429.188.6.908.9.908,1.018.013,1.914-.481.482-.96.966-1.445,1.443a.739.739,0,0,1-1.222.011,4.617,4.617,0,0,1-.375-.378.447.447,0,0,0-.6-.154c-.288.117-.311.289-.31.544,0,1.31-.07,1.377-1.372,1.377H1.116c-.935,0-1.11-.175-1.11-1.111q0-10.3-.006-20.6a1.062,1.062,0,0,1,.516-1.044.524.524,0,0,0,.193-.391c.01-4.1.008-8.2.008-12.329M13.5,41.18v-.513q0-2.819,0-5.637c0-.7.236-.931.933-.931q5.459,0,10.918,0c.7,0,.931.236.932.932q0,2.841,0,5.682v.458h3.891c-.528-.508-.979-.93-1.418-1.364-.934-.926-.933-1.023-.014-1.943.168-.169.317-.294.184-.6a.489.489,0,0,0-.575-.331,4.876,4.876,0,0,1-.621,0A.7.7,0,0,1,27,36.21q-.021-1.4,0-2.8a.694.694,0,0,1,.724-.732c.28-.014.562,0,.843-.007.208-.008.493-.462.421-.655a1.777,1.777,0,0,0-1.154-.763H1.449V41.18ZM1.463,21.992H38.32V13.444c-.17.109-.294.187-.416.268q-5.517,3.675-11.033,7.352a.819.819,0,0,1-.9.164.846.846,0,0,1-.4-.871c.005-2.13,0-4.261,0-6.391V13.43c-.2.122-.332.2-.463.288q-5.5,3.663-11,7.328c-.291.194-.579.374-.94.177a.857.857,0,0,1-.387-.876q.008-3.2,0-6.391V13.43c-.166.1-.267.156-.362.219C9,15.936,5.578,18.242,2.124,20.494a1.249,1.249,0,0,0-.686,1.43.566.566,0,0,0,.025.068M5.69,16.433l-.017-.093H5.287c-.816,0-1.019-.207-1.019-1.023q0-3.307,0-6.613c0-.637.25-.886.886-.887q1.953-.005,3.905,0c.637,0,.887.25.888.885,0,1.479,0,2.959,0,4.438,0,.124.013.248.024.432.644-.428,1.243-.8,1.812-1.221a.767.767,0,0,0,.281-.523c.026-1.035.011-2.071.014-3.106,0-.665.244-.9.912-.906q1.908,0,3.816,0c.723,0,.951.23.952.956q0,3.307,0,6.613c0,.725-.229.952-.955.954-.853,0-1.706,0-2.566,0v2.885c.088-.045.141-.065.187-.1,1.747-1.164,3.5-2.322,5.233-3.5a.7.7,0,0,0,.222-.508c.015-2.145.008-4.29.011-6.435,0-.609.256-.863.864-.865q2-.006,3.994,0a.723.723,0,0,1,.821.818c.008.621,0,1.243,0,1.864v1.151c1-.508,1.42-.248,1.42.8q0,3.151,0,6.3v.462a.944.944,0,0,0,.724-1.061c-.027-3.506-.014-7.012-.014-10.519V7.142H2.175V18.775L5.69,16.433M34.1,41.176h1.421c0-.244,0-.463,0-.681,0-.56.137-.721.655-.907a9.213,9.213,0,0,0,1.1-.468.747.747,0,0,1,1,.162c.167.186.311.393.455.579l1.109-1.083c-.176-.158-.346-.3-.5-.455a.765.765,0,0,1-.183-1.1,10.428,10.428,0,0,0,.45-1.105.771.771,0,0,1,.821-.6c.247.006.495,0,.752,0V34.1c-.248,0-.468,0-.687,0-.548-.006-.715-.143-.9-.664a7.669,7.669,0,0,0-.448-1.058.756.756,0,0,1,.152-1.035c.188-.165.4-.3.551-.415l-1.1-1.147c-.141.172-.269.356-.424.512-.4.4-.6.416-1.1.173a9.814,9.814,0,0,0-1.019-.428c-.53-.187-.666-.35-.673-.894,0-.232,0-.463,0-.693H34.1c0,.238,0,.444,0,.65,0,.586-.132.744-.675.937a7.862,7.862,0,0,0-1.057.451.753.753,0,0,1-1.032-.167,6.667,6.667,0,0,1-.409-.578l-1.179,1.1c.187.155.367.284.523.438.425.42.44.613.19,1.138a11.522,11.522,0,0,0-.448,1.106.762.762,0,0,1-.793.576c-.26,0-.52,0-.779,0v1.421c.238,0,.456,0,.674,0,.581,0,.731.13.928.687a8.182,8.182,0,0,0,.453,1.056.764.764,0,0,1-.146,1c-.186.18-.364.368-.508.513l1,1.066c.155-.176.292-.35.447-.505.415-.416.609-.431,1.139-.176a9.049,9.049,0,0,0,1.064.433.772.772,0,0,1,.607.814c-.005.248,0,.5,0,.764m-5.7-36.882H1.462v1.37H28.394ZM1.443,26.995H35.782c.148,0,.3-.007.444,0a.7.7,0,0,1,.708.705c.016.265-.019.535.015.8a.538.538,0,0,0,.222.356c.36.2,1.149-.271,1.178-.735.038-.6.009-1.2.009-1.813H1.443Zm19.839,8.559H18.5v5.627h2.787ZM5.718,9.257v5.662c.722,0,1.415.015,2.107-.006a.735.735,0,0,0,.7-.775q0-1.219,0-2.438V9.257Zm26.475,6.464a.763.763,0,0,0,.189-.041q1.846-1.226,3.686-2.461a.392.392,0,0,0,.165-.277c-.027-.749-.075-1.5-.117-2.252H32.59c-.133,1.688-.264,3.345-.4,5.03M16.306,14.9V9.237H13.52c0,.725,0,1.4,0,2.076.633.29.692.384.692,1.113V14.9Zm5.029-.379c.549-.365,1.049-.7,1.546-1.029.417-.28.989-.479,1.2-.871a3.526,3.526,0,0,0,.072-1.481c0-.251,0-.5,0-.754V9.26H21.335Zm3.5,21.017H22.759v5.642h2.074ZM14.9,23.474H6.434v1.368H14.9Zm18.466,0H24.9v1.369h8.466ZM14.953,41.165h2.076V35.539H14.953Zm-.069-12.72H6.434v1.383h8.45ZM36.027,9.217c-.073-1.2-.144-2.353-.214-3.507H32.989c-.092,1.175-.183,2.329-.275,3.507ZM16.371,24.832h7.052V23.465H16.371Zm-.008,4.974h7.046V28.438H16.363ZM35.726,4.251c-.058-.965-.112-1.885-.166-2.8h-2.23c-.074.946-.145,1.863-.217,2.8ZM24.886,29.834c1.257,0,2.492,0,3.728,0a.307.307,0,0,0,.194-.08c.427-.415.848-.835,1.32-1.3H24.886Zm9.943-4.995h3.5V23.476h-3.5ZM4.953,28.444H1.461v1.371H4.953ZM1.458,24.83h3.5V23.463h-3.5Zm30.091,3.6c.256.177.275.733.76.5.208-.1.478-.144.327-.5Zm1.088,12.754c.159-.422-.212-.523-.406-.5a2.361,2.361,0,0,0-.75.38l.066.122Z" transform="translate(0 0.001)" fill="#7f4fc7"/>
        <path id="Trazado_197015" data-name="Trazado 197015" d="M102.381,98.5c-.389-.414-1.084-.286-1.221-.952-1.278.329-1.793,1.527-1.275,3.1l-1.168.674a3.554,3.554,0,0,1,2.575-5.307l-.132-.408,1.243-.623c.257.525.517,1.016.733,1.526a.719.719,0,0,1-.032.507c-.205.471-.447.927-.722,1.485" transform="translate(-66.959 -64.755)" fill="#7f4fc7"/>
        <path id="Trazado_197016" data-name="Trazado 197016" d="M108.233,104.5l1.2-.7a3.436,3.436,0,0,1,.106,3.348,3.529,3.529,0,0,1-2.656,1.949c-.025.04-.041.055-.038.063.038.11.079.22.131.364l-1.247.627c-.257-.525-.512-1-.724-1.5a.714.714,0,0,1,.011-.507c.209-.484.457-.951.718-1.481.418.324,1.011.32,1.294.894,1.154-.178,1.772-1.573,1.2-3.06" transform="translate(-71.557 -70.765)" fill="#7f4fc7"/>
      </g>
    </g>
  </g>
</svg>
