<svg xmlns="http://www.w3.org/2000/svg" xmlns:xlink="http://www.w3.org/1999/xlink" width="235" height="260" viewBox="0 0 235 260">
  <defs>
    <clipPath id="clip-path">
      <rect id="Rectángulo_46506" data-name="Rectángulo 46506" width="58.497" height="44.811" fill="#7f4fc7"/>
    </clipPath>
  </defs>
  <g id="Grupo_155232" data-name="Grupo 155232" transform="translate(-931.961 -3067)">
    <g id="Grupo_154968" data-name="Grupo 154968" transform="translate(931.961 3066.566)">
      <rect id="Rectángulo_46097" data-name="Rectángulo 46097" width="235" height="260" rx="10" transform="translate(0 0.434)" fill="#c5e5fe"/>
      <path id="Rectángulo_46502" data-name="Rectángulo 46502" d="M0,0H235a0,0,0,0,1,0,0V92a10,10,0,0,1-10,10H10A10,10,0,0,1,0,92V0A0,0,0,0,1,0,0Z" transform="translate(0 158.434)" fill="#ddedf8"/>
    </g>
    <path id="Trazado_197258" data-name="Trazado 197258" d="M18.359,13.508a3.465,3.465,0,0,1-1.613,1.238,6.517,6.517,0,0,1-2.41.41,4.674,4.674,0,0,1-2.469-.652A4.346,4.346,0,0,1,10.2,12.648a6.408,6.408,0,0,1-.605-2.789V8.867a5.982,5.982,0,0,1,1.2-3.984,4.179,4.179,0,0,1,3.371-1.414,4.316,4.316,0,0,1,2.867.91,3.965,3.965,0,0,1,1.328,2.582h-1.5A2.48,2.48,0,0,0,14.172,4.7a2.655,2.655,0,0,0-2.285,1.06A5.173,5.173,0,0,0,11.1,8.824v.93a4.848,4.848,0,0,0,.875,3.046,2.836,2.836,0,0,0,2.367,1.13,5.228,5.228,0,0,0,1.477-.187,2.283,2.283,0,0,0,1.047-.631V10.563H14.234V9.336h4.125Zm5.781,1.648a3.693,3.693,0,0,1-2.8-1.129,4.19,4.19,0,0,1-1.078-3.02v-.266a5.073,5.073,0,0,1,.48-2.246A3.748,3.748,0,0,1,22.09,6.949a3.378,3.378,0,0,1,1.871-.559,3.166,3.166,0,0,1,2.563,1.086,4.7,4.7,0,0,1,.914,3.109v.6H21.711a3,3,0,0,0,.73,2.02,2.3,2.3,0,0,0,1.777.77,2.517,2.517,0,0,0,1.3-.312,3.259,3.259,0,0,0,.93-.828l.883.688A3.55,3.55,0,0,1,24.141,15.156Zm-.18-7.578a1.928,1.928,0,0,0-1.469.637A3.1,3.1,0,0,0,21.758,10h4.234V9.891A2.753,2.753,0,0,0,25.4,8.184,1.815,1.815,0,0,0,23.961,7.578Zm10.07,5.18a1.064,1.064,0,0,0-.441-.91,4.249,4.249,0,0,0-1.539-.559,7.277,7.277,0,0,1-1.742-.562,2.479,2.479,0,0,1-.953-.781,1.869,1.869,0,0,1-.309-1.078,2.193,2.193,0,0,1,.879-1.758,3.432,3.432,0,0,1,2.246-.719,3.532,3.532,0,0,1,2.332.742,2.357,2.357,0,0,1,.895,1.9H33.945a1.3,1.3,0,0,0-.5-1.023,1.888,1.888,0,0,0-1.27-.43,1.976,1.976,0,0,0-1.234.344,1.082,1.082,0,0,0-.445.9.877.877,0,0,0,.414.789,5.1,5.1,0,0,0,1.5.508,7.8,7.8,0,0,1,1.754.578,2.558,2.558,0,0,1,1,.809,1.988,1.988,0,0,1,.324,1.152,2.163,2.163,0,0,1-.906,1.816,3.8,3.8,0,0,1-2.352.684,4.257,4.257,0,0,1-1.8-.359,2.922,2.922,0,0,1-1.223-1,2.42,2.42,0,0,1-.441-1.395H30.2a1.5,1.5,0,0,0,.582,1.152,2.258,2.258,0,0,0,1.434.426,2.331,2.331,0,0,0,1.316-.332A1.02,1.02,0,0,0,34.031,12.758ZM39.32,4.5V6.547H40.9V7.664H39.32v5.249a1.173,1.173,0,0,0,.211.763.888.888,0,0,0,.719.254,3.5,3.5,0,0,0,.688-.094V15a4.215,4.215,0,0,1-1.109.155,1.8,1.8,0,0,1-1.461-.586,2.517,2.517,0,0,1-.492-1.664V7.664H36.336V6.547h1.539V4.5ZM44.156,15H42.711V6.547h1.445ZM42.594,4.3a.863.863,0,0,1,.215-.594.807.807,0,0,1,.637-.242.819.819,0,0,1,.641.242A.854.854,0,0,1,44.3,4.3a.826.826,0,0,1-.219.586.834.834,0,0,1-.641.234.821.821,0,0,1-.637-.234A.834.834,0,0,1,42.594,4.3ZM46.086,10.7a4.993,4.993,0,0,1,.488-2.234A3.643,3.643,0,0,1,47.934,6.93a3.7,3.7,0,0,1,1.988-.539,3.565,3.565,0,0,1,2.793,1.2,4.6,4.6,0,0,1,1.066,3.18v.1a5.036,5.036,0,0,1-.473,2.215,3.589,3.589,0,0,1-1.352,1.527,3.743,3.743,0,0,1-2.02.547,3.556,3.556,0,0,1-2.785-1.2A4.575,4.575,0,0,1,46.086,10.8Zm1.453.172a3.616,3.616,0,0,0,.652,2.258,2.211,2.211,0,0,0,3.5-.012,3.955,3.955,0,0,0,.648-2.418,3.61,3.61,0,0,0-.66-2.254,2.1,2.1,0,0,0-1.754-.863A2.075,2.075,0,0,0,48.2,8.43,3.925,3.925,0,0,0,47.539,10.867Zm3.039-7.852h1.75l-2.094,2.3-1.164,0Zm6.383,3.531.047,1.063a3.08,3.08,0,0,1,2.531-1.219q2.68,0,2.7,3.023V15H60.8V9.406a1.946,1.946,0,0,0-.418-1.352A1.675,1.675,0,0,0,59.1,7.617a2.086,2.086,0,0,0-1.234.375,2.546,2.546,0,0,0-.828.984V15H55.594V6.547ZM68.031,10.7a4.952,4.952,0,0,1,.922-3.129,3.137,3.137,0,0,1,4.766-.168V3h1.445V15H73.836l-.07-.906a2.943,2.943,0,0,1-2.414,1.063,2.887,2.887,0,0,1-2.395-1.2,5.008,5.008,0,0,1-.926-3.141Zm1.445.164a3.749,3.749,0,0,0,.594,2.25,1.92,1.92,0,0,0,1.641.813A2.108,2.108,0,0,0,73.719,12.7V8.813a2.125,2.125,0,0,0-1.992-1.2,1.929,1.929,0,0,0-1.656.82A4.128,4.128,0,0,0,69.477,10.867Zm11.438,4.289a3.693,3.693,0,0,1-2.8-1.129,4.19,4.19,0,0,1-1.078-3.02v-.266A5.073,5.073,0,0,1,77.52,8.5a3.748,3.748,0,0,1,1.344-1.547,3.378,3.378,0,0,1,1.871-.559A3.166,3.166,0,0,1,83.3,7.477a4.7,4.7,0,0,1,.914,3.109v.6H78.484a3,3,0,0,0,.73,2.02,2.3,2.3,0,0,0,1.777.77,2.517,2.517,0,0,0,1.3-.312,3.259,3.259,0,0,0,.93-.828l.883.688A3.55,3.55,0,0,1,80.914,15.156Zm-.18-7.578a1.928,1.928,0,0,0-1.469.637A3.1,3.1,0,0,0,78.531,10h4.234V9.891a2.753,2.753,0,0,0-.594-1.707A1.815,1.815,0,0,0,80.734,7.578ZM87.453,15H86.008V3h1.445ZM97.813,7.844a4.331,4.331,0,0,0-.711-.055A1.9,1.9,0,0,0,95.172,9v6H93.727V6.547h1.406l.023.977a2.251,2.251,0,0,1,2.016-1.133,1.477,1.477,0,0,1,.641.109Zm4.688,7.313a3.693,3.693,0,0,1-2.8-1.129,4.19,4.19,0,0,1-1.078-3.02v-.266a5.073,5.073,0,0,1,.48-2.246,3.748,3.748,0,0,1,1.344-1.547,3.378,3.378,0,0,1,1.871-.559,3.166,3.166,0,0,1,2.563,1.086,4.7,4.7,0,0,1,.914,3.109v.6H100.07a3,3,0,0,0,.73,2.02,2.3,2.3,0,0,0,1.777.77,2.517,2.517,0,0,0,1.3-.312,3.259,3.259,0,0,0,.93-.828l.883.688A3.55,3.55,0,0,1,102.5,15.156Zm-.18-7.578a1.928,1.928,0,0,0-1.469.637A3.1,3.1,0,0,0,100.117,10h4.234V9.891a2.753,2.753,0,0,0-.594-1.707A1.815,1.815,0,0,0,102.32,7.578Zm8.539,6.4a2.082,2.082,0,0,0,1.352-.469,1.649,1.649,0,0,0,.641-1.172h1.367a2.621,2.621,0,0,1-.5,1.383,3.293,3.293,0,0,1-1.23,1.047,3.55,3.55,0,0,1-1.629.391A3.482,3.482,0,0,1,108.113,14a4.59,4.59,0,0,1-1.02-3.152v-.242a5.089,5.089,0,0,1,.453-2.2,3.451,3.451,0,0,1,1.3-1.492,3.7,3.7,0,0,1,2-.531,3.39,3.39,0,0,1,2.363.852,3.043,3.043,0,0,1,1,2.211h-1.367a1.992,1.992,0,0,0-.621-1.348,1.932,1.932,0,0,0-1.379-.527,2.023,2.023,0,0,0-1.707.793,3.724,3.724,0,0,0-.605,2.293v.273a3.65,3.65,0,0,0,.6,2.25A2.033,2.033,0,0,0,110.859,13.977Zm10.2.188a3.07,3.07,0,0,1-2.477.992,2.628,2.628,0,0,1-2.059-.785,3.4,3.4,0,0,1-.715-2.324v-5.5h1.445v5.461q0,1.922,1.563,1.922a2.163,2.163,0,0,0,2.2-1.234V6.547h1.445V15h-1.375Zm7.688-6.32a4.331,4.331,0,0,0-.711-.055A1.9,1.9,0,0,0,126.109,9v6h-1.445V6.547h1.406l.023.977a2.251,2.251,0,0,1,2.016-1.133,1.477,1.477,0,0,1,.641.109ZM135,12.758a1.064,1.064,0,0,0-.441-.91,4.249,4.249,0,0,0-1.539-.559,7.277,7.277,0,0,1-1.742-.562,2.479,2.479,0,0,1-.953-.781,1.869,1.869,0,0,1-.309-1.078,2.193,2.193,0,0,1,.879-1.758,3.432,3.432,0,0,1,2.246-.719,3.532,3.532,0,0,1,2.332.742,2.357,2.357,0,0,1,.895,1.9h-1.453a1.3,1.3,0,0,0-.5-1.023,1.888,1.888,0,0,0-1.27-.43,1.976,1.976,0,0,0-1.234.344,1.082,1.082,0,0,0-.445.9.877.877,0,0,0,.414.789,5.1,5.1,0,0,0,1.5.508,7.8,7.8,0,0,1,1.754.578,2.558,2.558,0,0,1,1,.809,1.988,1.988,0,0,1,.324,1.152,2.163,2.163,0,0,1-.906,1.816,3.8,3.8,0,0,1-2.352.684,4.257,4.257,0,0,1-1.8-.359,2.922,2.922,0,0,1-1.223-1,2.42,2.42,0,0,1-.441-1.395h1.445a1.5,1.5,0,0,0,.582,1.152,2.258,2.258,0,0,0,1.434.426,2.331,2.331,0,0,0,1.316-.332A1.02,1.02,0,0,0,135,12.758Zm2.945-2.062a4.993,4.993,0,0,1,.488-2.234,3.642,3.642,0,0,1,1.359-1.531,3.7,3.7,0,0,1,1.988-.539,3.565,3.565,0,0,1,2.793,1.2,4.6,4.6,0,0,1,1.066,3.18v.1a5.036,5.036,0,0,1-.473,2.215,3.589,3.589,0,0,1-1.352,1.527,3.743,3.743,0,0,1-2.02.547,3.556,3.556,0,0,1-2.785-1.2,4.575,4.575,0,0,1-1.066-3.164Zm1.453.172a3.616,3.616,0,0,0,.652,2.258,2.211,2.211,0,0,0,3.5-.012A3.954,3.954,0,0,0,144.2,10.7a3.61,3.61,0,0,0-.66-2.254,2.1,2.1,0,0,0-1.754-.863,2.075,2.075,0,0,0-1.727.852A3.925,3.925,0,0,0,139.4,10.867ZM48.777,31.57a3.073,3.073,0,0,1,2.5-1.18q2.68,0,2.7,3.023V39H52.535V33.406a1.946,1.946,0,0,0-.418-1.352,1.675,1.675,0,0,0-1.277-.437,2.086,2.086,0,0,0-1.234.375,2.546,2.546,0,0,0-.828.984V39H47.332V27h1.445Zm12.586,6.594a3.07,3.07,0,0,1-2.477.992,2.628,2.628,0,0,1-2.059-.785,3.4,3.4,0,0,1-.715-2.324v-5.5h1.445v5.461q0,1.922,1.563,1.922a2.163,2.163,0,0,0,2.2-1.234V30.547H62.77V39H61.395Zm4.961-7.617.039.938a3.122,3.122,0,0,1,2.508-1.094,2.417,2.417,0,0,1,2.414,1.359,3.2,3.2,0,0,1,1.1-.984,3.242,3.242,0,0,1,1.6-.375q2.781,0,2.828,2.945V39H75.363V33.422a1.941,1.941,0,0,0-.414-1.355,1.823,1.823,0,0,0-1.391-.449,1.916,1.916,0,0,0-1.336.48,1.949,1.949,0,0,0-.617,1.293V39H70.152V33.461a1.613,1.613,0,0,0-1.8-1.844A1.934,1.934,0,0,0,66.4,32.828V39H64.957V30.547ZM84.207,39a3.036,3.036,0,0,1-.2-.891A3.225,3.225,0,0,1,81.6,39.156a2.984,2.984,0,0,1-2.051-.707,2.288,2.288,0,0,1-.8-1.793,2.39,2.39,0,0,1,1-2.051,4.733,4.733,0,0,1,2.824-.73H83.98v-.664A1.623,1.623,0,0,0,83.527,32a1.821,1.821,0,0,0-1.336-.449,2.108,2.108,0,0,0-1.3.391,1.151,1.151,0,0,0-.523.945H78.918a2,2,0,0,1,.449-1.223,3.066,3.066,0,0,1,1.219-.934,4.1,4.1,0,0,1,1.691-.344,3.342,3.342,0,0,1,2.289.73,2.635,2.635,0,0,1,.859,2.012v3.891a4.757,4.757,0,0,0,.3,1.852V39Zm-2.4-1.1a2.54,2.54,0,0,0,1.289-.352,2.127,2.127,0,0,0,.883-.914V34.9H82.848q-2.656,0-2.656,1.555a1.316,1.316,0,0,0,.453,1.063A1.742,1.742,0,0,0,81.809,37.9Zm7.25-7.352.047,1.063a3.08,3.08,0,0,1,2.531-1.219q2.68,0,2.7,3.023V39H92.895V33.406a1.946,1.946,0,0,0-.418-1.352,1.675,1.675,0,0,0-1.277-.437,2.086,2.086,0,0,0-1.234.375,2.546,2.546,0,0,0-.828.984V39H87.691V30.547ZM96.137,34.7a4.993,4.993,0,0,1,.488-2.234,3.643,3.643,0,0,1,1.359-1.531,3.7,3.7,0,0,1,1.988-.539,3.565,3.565,0,0,1,2.793,1.2,4.6,4.6,0,0,1,1.066,3.18v.1a5.036,5.036,0,0,1-.473,2.215,3.589,3.589,0,0,1-1.352,1.527,3.743,3.743,0,0,1-2.02.547,3.556,3.556,0,0,1-2.785-1.2A4.575,4.575,0,0,1,96.137,34.8Zm1.453.172a3.616,3.616,0,0,0,.652,2.258,2.211,2.211,0,0,0,3.5-.012,3.955,3.955,0,0,0,.648-2.418,3.61,3.61,0,0,0-.66-2.254,2.1,2.1,0,0,0-1.754-.863,2.075,2.075,0,0,0-1.727.852A3.925,3.925,0,0,0,97.59,34.867Zm8.086,3.375a.905.905,0,0,1,.223-.625.848.848,0,0,1,.668-.25.874.874,0,0,1,.676.25.887.887,0,0,1,.23.625.839.839,0,0,1-.23.6.89.89,0,0,1-.676.242.8.8,0,0,1-.891-.844Z" transform="translate(971.961 3131)" fill="#12263f"/>
    <g id="Grupo_154973" data-name="Grupo 154973" transform="translate(-1 -117)">
      <path id="Trazado_197260" data-name="Trazado 197260" d="M26.566,15H24.223V10.125h-4.57V15H17.309V3.625h2.344V8.234h4.57V3.625h2.344Zm6.258-4.164H30.957V15H28.613V3.625H32.84a4.778,4.778,0,0,1,3.109.9,3.1,3.1,0,0,1,1.094,2.539A3.5,3.5,0,0,1,36.539,9a3.437,3.437,0,0,1-1.527,1.238l2.461,4.648V15H34.957Zm-1.867-1.9h1.891a1.936,1.936,0,0,0,1.367-.449A1.606,1.606,0,0,0,34.7,7.25a1.719,1.719,0,0,0-.457-1.266,1.9,1.9,0,0,0-1.4-.461H30.957Zm11.8,1.438a11.99,11.99,0,0,1,.477-3.406,8.989,8.989,0,0,1,1.406-2.863,5.251,5.251,0,0,1,2.016-1.73L47.1,3.594A5.438,5.438,0,0,0,45.316,6.2a12.082,12.082,0,0,0-.641,4.125v.242a12.313,12.313,0,0,0,.633,4.141A5.544,5.544,0,0,0,47.1,17.359l-.437,1.2a5.253,5.253,0,0,1-1.98-1.684,8.838,8.838,0,0,1-1.4-2.785,11.918,11.918,0,0,1-.516-3.3ZM50.48,7.469a2.818,2.818,0,0,1,2.258-1.078q2.75,0,2.789,3.2V15H53.27V9.636a1.577,1.577,0,0,0-.312-1.077,1.338,1.338,0,0,0-1.039-.348,1.536,1.536,0,0,0-1.437.767V15H48.223V3H50.48Zm11.813,6.672a2.831,2.831,0,0,1-2.312,1.016,2.67,2.67,0,0,1-2.074-.781,3.335,3.335,0,0,1-.73-2.289V6.547h2.258v5.467q0,1.322,1.2,1.322a1.63,1.63,0,0,0,1.578-.8V6.547H64.48V15H62.355ZM68.3,6.547l.07.945a2.971,2.971,0,0,1,2.43-1.1A2.255,2.255,0,0,1,73.043,7.68a2.9,2.9,0,0,1,2.539-1.289,2.521,2.521,0,0,1,2.047.8A3.681,3.681,0,0,1,78.3,9.6V15H76.035V9.6a1.616,1.616,0,0,0-.281-1.053,1.245,1.245,0,0,0-.992-.333,1.409,1.409,0,0,0-1.406.971L73.363,15H71.105V9.6a1.6,1.6,0,0,0-.289-1.065,1.257,1.257,0,0,0-.984-.329,1.463,1.463,0,0,0-1.391.8V15H66.184V6.547ZM84.934,15a2.507,2.507,0,0,1-.227-.758,2.732,2.732,0,0,1-2.133.914,3,3,0,0,1-2.059-.719,2.312,2.312,0,0,1-.816-1.812,2.389,2.389,0,0,1,1-2.062,4.915,4.915,0,0,1,2.879-.727h1.039V9.352a1.393,1.393,0,0,0-.3-.937,1.183,1.183,0,0,0-.949-.352,1.345,1.345,0,0,0-.895.273.929.929,0,0,0-.324.75H79.887a2.268,2.268,0,0,1,.453-1.359,3,3,0,0,1,1.281-.98,4.669,4.669,0,0,1,1.859-.355,3.689,3.689,0,0,1,2.48.785,2.747,2.747,0,0,1,.918,2.207v3.664a4.041,4.041,0,0,0,.336,1.82V15Zm-1.867-1.57a1.945,1.945,0,0,0,.922-.223,1.462,1.462,0,0,0,.625-.6V11.156H83.77q-1.7,0-1.8,1.172l-.008.133a.9.9,0,0,0,.3.7A1.153,1.153,0,0,0,83.066,13.43Zm7.625-6.883.07.977a2.951,2.951,0,0,1,2.43-1.133,2.453,2.453,0,0,1,2,.789,3.682,3.682,0,0,1,.672,2.359V15H93.605V9.581a1.47,1.47,0,0,0-.312-1.045,1.4,1.4,0,0,0-1.039-.325,1.553,1.553,0,0,0-1.43.814V15H88.566V6.547Zm-67.2,26.117a6.134,6.134,0,0,0-.812-.062,1.654,1.654,0,0,0-1.68.867V39H18.738V30.547h2.133l.063,1.008a2.092,2.092,0,0,1,1.883-1.164,2.366,2.366,0,0,1,.7.1Zm4.828,6.492a4.15,4.15,0,0,1-3.027-1.141,4.054,4.054,0,0,1-1.168-3.039v-.219a5.106,5.106,0,0,1,.492-2.277,3.612,3.612,0,0,1,1.395-1.547,3.914,3.914,0,0,1,2.059-.543,3.508,3.508,0,0,1,2.73,1.094,4.444,4.444,0,0,1,1,3.1v.922H26.41a2.1,2.1,0,0,0,.66,1.328,2,2,0,0,0,1.395.5,2.437,2.437,0,0,0,2.039-.945l1.109,1.242a3.389,3.389,0,0,1-1.375,1.121A4.511,4.511,0,0,1,28.316,39.156Zm-.258-6.945a1.411,1.411,0,0,0-1.09.455,2.357,2.357,0,0,0-.535,1.3h3.141v-.181a1.681,1.681,0,0,0-.406-1.165A1.456,1.456,0,0,0,28.059,32.211Zm9.594,4.453a.727.727,0,0,0-.41-.652,4.659,4.659,0,0,0-1.316-.426q-3.016-.633-3.016-2.562a2.323,2.323,0,0,1,.934-1.879,3.766,3.766,0,0,1,2.441-.754,4.053,4.053,0,0,1,2.574.758,2.388,2.388,0,0,1,.965,1.969H37.566a1.092,1.092,0,0,0-.312-.8A1.322,1.322,0,0,0,36.277,32a1.351,1.351,0,0,0-.883.258.814.814,0,0,0-.312.656.7.7,0,0,0,.355.605,3.657,3.657,0,0,0,1.2.4,9.8,9.8,0,0,1,1.422.379,2.336,2.336,0,0,1,1.789,2.273,2.205,2.205,0,0,1-.992,1.871,4.28,4.28,0,0,1-2.562.715,4.47,4.47,0,0,1-1.887-.379,3.166,3.166,0,0,1-1.293-1.039,2.414,2.414,0,0,1-.469-1.426h2.141a1.179,1.179,0,0,0,.445.922,1.766,1.766,0,0,0,1.109.32,1.635,1.635,0,0,0,.98-.246A.766.766,0,0,0,37.652,36.664Zm3.3-1.969a5.013,5.013,0,0,1,.484-2.242,3.546,3.546,0,0,1,1.395-1.523,4.069,4.069,0,0,1,2.113-.539,3.849,3.849,0,0,1,2.793,1.047,4.2,4.2,0,0,1,1.207,2.844l.016.578a4.418,4.418,0,0,1-1.086,3.121,4.209,4.209,0,0,1-5.832,0,4.5,4.5,0,0,1-1.09-3.187Zm2.258.16A3.16,3.16,0,0,0,43.66,36.7a1.628,1.628,0,0,0,2.578.008,3.457,3.457,0,0,0,.461-2.015,3.128,3.128,0,0,0-.461-1.831,1.5,1.5,0,0,0-1.3-.649,1.474,1.474,0,0,0-1.281.646A3.516,3.516,0,0,0,43.207,34.856ZM55.1,32.664a6.134,6.134,0,0,0-.812-.062,1.654,1.654,0,0,0-1.68.867V39H50.348V30.547H52.48l.063,1.008a2.092,2.092,0,0,1,1.883-1.164,2.366,2.366,0,0,1,.7.1Zm6.148,5.477a2.831,2.831,0,0,1-2.312,1.016,2.67,2.67,0,0,1-2.074-.781,3.335,3.335,0,0,1-.73-2.289V30.547h2.258v5.467q0,1.322,1.2,1.322a1.63,1.63,0,0,0,1.578-.8V30.547h2.266V39H61.309Zm7.406-.8a1.481,1.481,0,0,0,1.016-.344,1.2,1.2,0,0,0,.406-.914h2.117a2.9,2.9,0,0,1-.469,1.574,3.093,3.093,0,0,1-1.262,1.109,3.949,3.949,0,0,1-1.77.395A3.67,3.67,0,0,1,65.832,38a4.56,4.56,0,0,1-1.047-3.184v-.148a4.508,4.508,0,0,1,1.039-3.117,3.627,3.627,0,0,1,2.852-1.164,3.555,3.555,0,0,1,2.543.9,3.2,3.2,0,0,1,.973,2.4H70.074a1.551,1.551,0,0,0-.406-1.072,1.51,1.51,0,0,0-2.223.163,3.333,3.333,0,0,0-.4,1.866v.235a3.375,3.375,0,0,0,.4,1.878A1.377,1.377,0,0,0,68.652,37.336Zm8.719,1.82a4.15,4.15,0,0,1-3.027-1.141,4.054,4.054,0,0,1-1.168-3.039v-.219a5.106,5.106,0,0,1,.492-2.277,3.612,3.612,0,0,1,1.395-1.547,3.914,3.914,0,0,1,2.059-.543,3.508,3.508,0,0,1,2.73,1.094,4.444,4.444,0,0,1,1,3.1v.922H75.465a2.1,2.1,0,0,0,.66,1.328,2,2,0,0,0,1.395.5,2.437,2.437,0,0,0,2.039-.945l1.109,1.242a3.389,3.389,0,0,1-1.375,1.121A4.511,4.511,0,0,1,77.371,39.156Zm-.258-6.945a1.411,1.411,0,0,0-1.09.455,2.357,2.357,0,0,0-.535,1.3h3.141v-.181a1.681,1.681,0,0,0-.406-1.165A1.456,1.456,0,0,0,77.113,32.211Zm9.594,4.453a.727.727,0,0,0-.41-.652,4.659,4.659,0,0,0-1.316-.426q-3.016-.633-3.016-2.562a2.323,2.323,0,0,1,.934-1.879,3.766,3.766,0,0,1,2.441-.754,4.053,4.053,0,0,1,2.574.758,2.388,2.388,0,0,1,.965,1.969H86.621a1.092,1.092,0,0,0-.312-.8A1.322,1.322,0,0,0,85.332,32a1.351,1.351,0,0,0-.883.258.814.814,0,0,0-.312.656.7.7,0,0,0,.355.605,3.657,3.657,0,0,0,1.2.4,9.8,9.8,0,0,1,1.422.379A2.336,2.336,0,0,1,88.9,36.57a2.2,2.2,0,0,1-.992,1.871,4.28,4.28,0,0,1-2.562.715,4.47,4.47,0,0,1-1.887-.379,3.166,3.166,0,0,1-1.293-1.039,2.414,2.414,0,0,1-.469-1.426H83.84a1.179,1.179,0,0,0,.445.922,1.766,1.766,0,0,0,1.109.32,1.635,1.635,0,0,0,.98-.246A.766.766,0,0,0,86.707,36.664Zm7.539-2.109a11.377,11.377,0,0,1-.508,3.4,9.225,9.225,0,0,1-1.461,2.883,5.263,5.263,0,0,1-2.039,1.719l-.437-1.2a5.494,5.494,0,0,0,1.75-2.578,11.939,11.939,0,0,0,.664-4.008v-.414a12.209,12.209,0,0,0-.637-4.117A5.727,5.727,0,0,0,89.8,27.57l.438-1.2a5.265,5.265,0,0,1,2,1.672,9.106,9.106,0,0,1,1.461,2.82,11.3,11.3,0,0,1,.543,3.336Z" transform="translate(949.961 3369)" fill="#12263f"/>
      <circle id="Elipse_5823" data-name="Elipse 5823" cx="38.5" cy="38.5" r="38.5" transform="translate(1074.961 3352)" fill="#fff"/>
    </g>
    <g id="Grupo_154981" data-name="Grupo 154981" transform="translate(1082.986 3250)">
      <g id="Grupo_154980" data-name="Grupo 154980" clip-path="url(#clip-path)">
        <path id="Trazado_197017" data-name="Trazado 197017" d="M0,69.724c.082-.268.154-.539.246-.8a5.132,5.132,0,0,1,4.028-3.7c.9-.175,1.793-.346,2.674-.576a1.7,1.7,0,0,0,.746-.511,8.567,8.567,0,0,0,.611-.893,1.365,1.365,0,0,1,2.039-.364c1.293.938,2.57,1.9,3.843,2.864A.913.913,0,1,1,13.1,67.2c-1.151-.842-2.288-1.7-3.427-2.552-.636.589-.64.62-.166,1.305.411.594.831,1.183,1.232,1.784a.915.915,0,1,1-1.49,1.041c-.478-.663-.947-1.334-1.4-2.017a.549.549,0,0,0-.694-.285c-.81.2-1.634.351-2.453.516A3.489,3.489,0,0,0,1.833,70.36c-.013.323.018.649-.01.97-.043.5.192.685.667.682,1.218-.009,2.436,0,3.654,0,.733,0,1.147.319,1.163.885.017.584-.419.938-1.17.941-1.123,0-2.247-.03-3.368.009A2.557,2.557,0,0,1,0,72.124v-2.4" transform="translate(0 -35.425)" fill="#7f4fc7"/>
        <path id="Trazado_197018" data-name="Trazado 197018" d="M39.972,73.06l5.5-4.728c.289-.248.573-.5.866-.744a1.618,1.618,0,0,1,2.55.369,3.848,3.848,0,0,1,.4.62,2.9,2.9,0,0,0,2.586,1.781c1.109.133,2.2.435,3.294.669a7.227,7.227,0,0,1,5.7,6.159,19.04,19.04,0,0,1,.1,3.018,2.837,2.837,0,0,1-2.781,2.6c-.152.009-.3.006-.457.006q-17.756,0-35.512,0a3.416,3.416,0,0,1-2.236-.7A2.37,2.37,0,0,1,19,80.427a10.541,10.541,0,0,1,.548-5,7.16,7.16,0,0,1,5.667-4.507c1.348-.231,2.685-.528,4.017-.84a1.468,1.468,0,0,0,.743-.516c.385-.493.7-1.041,1.05-1.561a1.618,1.618,0,0,1,2.622-.376q2.843,2.428,5.671,4.874c.2.173.4.344.654.558m2.815,7.894c.2.01.328.023.459.023h14.56a2.836,2.836,0,0,0,.285-.007,1.052,1.052,0,0,0,1.061-1.159c.005-.533.012-1.066,0-1.6a5.591,5.591,0,0,0-4.5-5.442c-1.358-.282-2.723-.534-4.073-.85a.682.682,0,0,0-.839.329q-2.364,3.292-4.762,6.557a.937.937,0,0,1-1.619.131c-.3-.3-.551-.659-.823-.99l-.286.169q.269,1.418.539,2.836m-5.241-3.035c-.341.367-.59.652-.857.918-.713.714-1.215.674-1.809-.141q-2.369-3.252-4.73-6.51a.577.577,0,0,0-.7-.284c-1.39.317-2.787.6-4.185.876a5.1,5.1,0,0,0-4.129,3.733,12.313,12.313,0,0,0-.34,2.98c-.054,1.166.3,1.486,1.469,1.486q7.137,0,14.274,0c.1,0,.209.033.282-.007.141-.079.343-.18.373-.306.177-.738.318-1.486.455-2.234a1.883,1.883,0,0,0-.1-.511m1.038-3.636-6.066-5.222L31.381,70.78l4.5,6.186,2.7-2.682m8.837-5.219L41.4,74.247l2.681,2.691,4.478-6.159L47.42,69.064m-6.5,11.888c-.129-.633-.245-1.2-.366-1.8a8.5,8.5,0,0,0-.894.01c-.12.013-.306.115-.329.209-.125.509-.209,1.029-.313,1.58Zm-.961-5.408c-.338.509-1.062.685-.882,1.445.089.376.4.373.683.33.375-.057.908.253,1.08-.326.221-.746-.515-.947-.882-1.449" transform="translate(-10.721 -37.999)" fill="#7f4fc7"/>
        <path id="Trazado_197019" data-name="Trazado 197019" d="M63.428,7.18a62.047,62.047,0,0,1-.937,7.663,19.441,19.441,0,0,0-.162,3.407,14.192,14.192,0,0,1-1.5,6.325,12.413,12.413,0,0,1-4.243,4.914A9.3,9.3,0,0,1,44.69,28.336,12.9,12.9,0,0,1,40.452,19.2a65.389,65.389,0,0,0-.912-6.532,38.339,38.339,0,0,1-.5-5.5A5.616,5.616,0,0,1,43.428,1.6,16.356,16.356,0,0,0,46.421.639,10.5,10.5,0,0,1,52.212.2c2.122.328,4.226.781,6.349,1.1a16.79,16.79,0,0,0,2.9.106c.92-.023,1.289.146,1.425,1.075.229,1.558.369,3.13.546,4.7m-15.7,3.383c-.7.046-1.879.111-3.053.215a.735.735,0,0,0-.515.324A14.429,14.429,0,0,0,42.2,18.5a12.109,12.109,0,0,0,3.777,8.535,7.528,7.528,0,0,0,10.488.252,11.764,11.764,0,0,0,4.023-8.472,9.4,9.4,0,0,0-.969-5.573,1.6,1.6,0,0,0-.818-.783,29.717,29.717,0,0,0-10.968-1.9M61,12.114c.071-.111.121-.155.127-.2a31.964,31.964,0,0,0,.146-8.194c-.037-.3-.163-.391-.476-.41-1.042-.063-2.089-.122-3.12-.281-2.216-.341-4.414-.8-6.635-1.1a7.4,7.4,0,0,0-4.959.889,2.815,2.815,0,0,1-1.258.4,3.8,3.8,0,0,0-3.839,3.251,20.4,20.4,0,0,0,.036,3.911,22.791,22.791,0,0,0,.35,2.271c.531-1.083.989-2.02,1.448-2.956A1.1,1.1,0,0,1,43.8,9.02c1.082-.074,2.159-.219,3.242-.254A29.719,29.719,0,0,1,59.6,10.857c.6.249,1.206.486,1.4,1.257" transform="translate(-22.103 0)" fill="#7f4fc7"/>
        <path id="Trazado_197020" data-name="Trazado 197020" d="M101.227,23.2c.11-1.921.215-3.741.322-5.607-1.079-.163-2.1-.335-3.132-.468-1.376-.177-2.755-.331-4.134-.481a.94.94,0,0,1-.952-.932.886.886,0,0,1,1.035-.885c1.438.131,2.871.323,4.306.486,1.245.142,2.49.29,3.738.412a.933.933,0,0,1,.962,1.03,72.368,72.368,0,0,1-.87,10.4c-.142.838-.026,1.718-.159,2.558-.511,3.226-2.111,5.656-5.32,6.725a6.377,6.377,0,0,1-5.993-1.068.9.9,0,0,1-.277-1.3A.845.845,0,0,1,92,33.848c2.908,2.342,7.186.8,8.344-3.462a8.555,8.555,0,0,0-.265-5.326,1.381,1.381,0,0,0-.6-.681,13.58,13.58,0,0,0-5.155-1.334c-.774-.071-1.2-.658-.917-1.277a.951.951,0,0,1,1.083-.546A15.438,15.438,0,0,1,100.813,23c.1.054.2.1.414.2" transform="translate(-51.284 -8.391)" fill="#7f4fc7"/>
        <path id="Trazado_197021" data-name="Trazado 197021" d="M16.847,23.891c.149-.7.65-.848,1.243-.9a23.552,23.552,0,0,1,5.97.327.9.9,0,0,1,.762,1.038.943.943,0,0,1-1.1.76c-1.116-.115-2.231-.328-3.347-.332-2.42-.009-1.8-.438-2.453,1.819a8.69,8.69,0,0,0,.2,5.877A5.507,5.507,0,0,0,23.2,36.094a5.188,5.188,0,0,0,2.771-.938,1.256,1.256,0,0,1,.879-.247,1.228,1.228,0,0,1,.682.664c.17.414-.092.753-.44,1.016a6.662,6.662,0,0,1-7.893.086A8.033,8.033,0,0,1,15.758,30.2c-.067-1.709-.469-3.346-.694-5.018a10.575,10.575,0,0,1-.057-4.25,3.709,3.709,0,0,1,3.3-3.086,1.123,1.123,0,0,0,.423-.146,6.863,6.863,0,0,1,4.143-.759c.685.057,1.064.436,1.038.974-.028.567-.461.89-1.185.84a5.078,5.078,0,0,0-3.487.783.984.984,0,0,1-.487.119,1.794,1.794,0,0,0-1.895,1.492,21.07,21.07,0,0,0-.26,2.684l.246.056" transform="translate(-8.382 -9.571)" fill="#7f4fc7"/>
        <path id="Trazado_197022" data-name="Trazado 197022" d="M106.084,64.627q-1.7,1.266-3.384,2.526a.95.95,0,0,1-1.111.154.877.877,0,0,1-.137-1.485q2.008-1.555,4.075-3.032a1.32,1.32,0,0,1,1.8.3.735.735,0,0,1,.134.184,2.646,2.646,0,0,0,2.486,1.633,12.717,12.717,0,0,1,1.564.317,5.339,5.339,0,0,1,4.225,5.14c.01.38.006.761,0,1.142a2.205,2.205,0,0,1-2.178,2.311c-1.388.046-2.779.024-4.168.009a.91.91,0,1,1,.012-1.816c1.237-.013,2.474,0,3.712-.006.726,0,.807-.072.79-.774a7.458,7.458,0,0,0-.121-1.585A3.291,3.291,0,0,0,111.108,67c-.856-.177-1.709-.372-2.571-.513a.732.732,0,0,0-.587.224c-.486.633-.921,1.305-1.381,1.958-.426.6-.92.751-1.394.429s-.528-.848-.119-1.449c.385-.566.743-1.157,1.18-1.68.417-.5.4-.892-.151-1.337" transform="translate(-57.24 -35.416)" fill="#7f4fc7"/>
      </g>
    </g>
  </g>
</svg>
