<svg xmlns="http://www.w3.org/2000/svg" xmlns:xlink="http://www.w3.org/1999/xlink" width="235" height="260" viewBox="0 0 235 260">
  <defs>
    <clipPath id="clip-path">
      <rect id="Rectángulo_46507" data-name="Rectángulo 46507" width="47" height="47" transform="translate(-0.377 -0.377)" fill="#7f4fc7"/>
    </clipPath>
  </defs>
  <g id="Grupo_155233" data-name="Grupo 155233" transform="translate(-1179.961 -3067)">
    <g id="Grupo_154969" data-name="Grupo 154969" transform="translate(1179.961 3066.566)">
      <rect id="Rectángulo_46097" data-name="Rectángulo 46097" width="235" height="260" rx="10" transform="translate(0 0.434)" fill="#c5e5fe"/>
      <path id="Rectángulo_46502" data-name="Rectángulo 46502" d="M0,0H235a0,0,0,0,1,0,0V92a10,10,0,0,1-10,10H10A10,10,0,0,1,0,92V0A0,0,0,0,1,0,0Z" transform="translate(0 158.434)" fill="#ddedf8"/>
    </g>
    <path id="Trazado_197259" data-name="Trazado 197259" d="M17.3,13.508a3.465,3.465,0,0,1-1.613,1.238,6.517,6.517,0,0,1-2.41.41,4.674,4.674,0,0,1-2.469-.652,4.346,4.346,0,0,1-1.668-1.855,6.408,6.408,0,0,1-.605-2.789V8.867a5.982,5.982,0,0,1,1.2-3.984,4.179,4.179,0,0,1,3.371-1.414,4.316,4.316,0,0,1,2.867.91A3.965,3.965,0,0,1,17.3,6.961H15.8A2.48,2.48,0,0,0,13.113,4.7a2.655,2.655,0,0,0-2.285,1.06,5.173,5.173,0,0,0-.785,3.069v.93a4.848,4.848,0,0,0,.875,3.046,2.836,2.836,0,0,0,2.367,1.13,5.228,5.228,0,0,0,1.477-.187,2.283,2.283,0,0,0,1.047-.631V10.563H13.176V9.336H17.3Zm5.781,1.648a3.693,3.693,0,0,1-2.8-1.129,4.19,4.19,0,0,1-1.078-3.02v-.266a5.073,5.073,0,0,1,.48-2.246,3.748,3.748,0,0,1,1.344-1.547A3.378,3.378,0,0,1,22.9,6.391a3.166,3.166,0,0,1,2.563,1.086,4.7,4.7,0,0,1,.914,3.109v.6H20.652a3,3,0,0,0,.73,2.02,2.3,2.3,0,0,0,1.777.77,2.517,2.517,0,0,0,1.3-.312,3.259,3.259,0,0,0,.93-.828l.883.688A3.55,3.55,0,0,1,23.082,15.156ZM22.9,7.578a1.928,1.928,0,0,0-1.469.637A3.1,3.1,0,0,0,20.7,10h4.234V9.891a2.753,2.753,0,0,0-.594-1.707A1.815,1.815,0,0,0,22.9,7.578Zm10.07,5.18a1.064,1.064,0,0,0-.441-.91,4.249,4.249,0,0,0-1.539-.559,7.277,7.277,0,0,1-1.742-.562,2.479,2.479,0,0,1-.953-.781,1.869,1.869,0,0,1-.309-1.078,2.193,2.193,0,0,1,.879-1.758,3.432,3.432,0,0,1,2.246-.719,3.532,3.532,0,0,1,2.332.742,2.357,2.357,0,0,1,.895,1.9H32.887a1.3,1.3,0,0,0-.5-1.023,1.888,1.888,0,0,0-1.27-.43,1.976,1.976,0,0,0-1.234.344,1.082,1.082,0,0,0-.445.9.877.877,0,0,0,.414.789,5.1,5.1,0,0,0,1.5.508A7.8,7.8,0,0,1,33.1,10.7a2.558,2.558,0,0,1,1,.809,1.988,1.988,0,0,1,.324,1.152,2.163,2.163,0,0,1-.906,1.816,3.8,3.8,0,0,1-2.352.684,4.257,4.257,0,0,1-1.8-.359,2.922,2.922,0,0,1-1.223-1A2.42,2.42,0,0,1,27.7,12.4h1.445a1.5,1.5,0,0,0,.582,1.152,2.258,2.258,0,0,0,1.434.426,2.331,2.331,0,0,0,1.316-.332A1.02,1.02,0,0,0,32.973,12.758ZM38.262,4.5V6.547H39.84V7.664H38.262v5.249a1.173,1.173,0,0,0,.211.763.888.888,0,0,0,.719.254,3.5,3.5,0,0,0,.688-.094V15a4.215,4.215,0,0,1-1.109.155,1.8,1.8,0,0,1-1.461-.586,2.517,2.517,0,0,1-.492-1.664V7.664H35.277V6.547h1.539V4.5ZM43.1,15H41.652V6.547H43.1ZM41.535,4.3a.863.863,0,0,1,.215-.594.807.807,0,0,1,.637-.242.819.819,0,0,1,.641.242.854.854,0,0,1,.219.594.826.826,0,0,1-.219.586.834.834,0,0,1-.641.234.821.821,0,0,1-.637-.234A.834.834,0,0,1,41.535,4.3ZM45.027,10.7a4.993,4.993,0,0,1,.488-2.234A3.643,3.643,0,0,1,46.875,6.93a3.7,3.7,0,0,1,1.988-.539,3.565,3.565,0,0,1,2.793,1.2,4.6,4.6,0,0,1,1.066,3.18v.1a5.036,5.036,0,0,1-.473,2.215A3.589,3.589,0,0,1,50.9,14.609a3.743,3.743,0,0,1-2.02.547,3.556,3.556,0,0,1-2.785-1.2A4.575,4.575,0,0,1,45.027,10.8Zm1.453.172a3.616,3.616,0,0,0,.652,2.258,2.211,2.211,0,0,0,3.5-.012,3.955,3.955,0,0,0,.648-2.418,3.61,3.61,0,0,0-.66-2.254,2.1,2.1,0,0,0-1.754-.863,2.075,2.075,0,0,0-1.727.852A3.925,3.925,0,0,0,46.48,10.867ZM49.52,3.016h1.75l-2.094,2.3-1.164,0ZM55.9,6.547l.047,1.063A3.08,3.08,0,0,1,58.48,6.391q2.68,0,2.7,3.023V15H59.738V9.406a1.946,1.946,0,0,0-.418-1.352,1.675,1.675,0,0,0-1.277-.437,2.086,2.086,0,0,0-1.234.375,2.546,2.546,0,0,0-.828.984V15H54.535V6.547ZM66.973,10.7a4.952,4.952,0,0,1,.922-3.129,3.137,3.137,0,0,1,4.766-.168V3h1.445V15H72.777l-.07-.906a2.943,2.943,0,0,1-2.414,1.063,2.887,2.887,0,0,1-2.395-1.2,5.008,5.008,0,0,1-.926-3.141Zm1.445.164a3.749,3.749,0,0,0,.594,2.25,1.92,1.92,0,0,0,1.641.813A2.108,2.108,0,0,0,72.66,12.7V8.813a2.125,2.125,0,0,0-1.992-1.2,1.929,1.929,0,0,0-1.656.82A4.128,4.128,0,0,0,68.418,10.867Zm11.438,4.289a3.693,3.693,0,0,1-2.8-1.129,4.19,4.19,0,0,1-1.078-3.02v-.266a5.073,5.073,0,0,1,.48-2.246A3.748,3.748,0,0,1,77.8,6.949a3.378,3.378,0,0,1,1.871-.559,3.166,3.166,0,0,1,2.563,1.086,4.7,4.7,0,0,1,.914,3.109v.6H77.426a3,3,0,0,0,.73,2.02,2.3,2.3,0,0,0,1.777.77,2.517,2.517,0,0,0,1.3-.312,3.259,3.259,0,0,0,.93-.828l.883.688A3.55,3.55,0,0,1,79.855,15.156Zm-.18-7.578a1.928,1.928,0,0,0-1.469.637A3.1,3.1,0,0,0,77.473,10h4.234V9.891a2.753,2.753,0,0,0-.594-1.707A1.815,1.815,0,0,0,79.676,7.578Zm12.5,6.4a2.082,2.082,0,0,0,1.352-.469,1.649,1.649,0,0,0,.641-1.172h1.367a2.621,2.621,0,0,1-.5,1.383,3.293,3.293,0,0,1-1.23,1.047,3.55,3.55,0,0,1-1.629.391A3.482,3.482,0,0,1,89.43,14a4.59,4.59,0,0,1-1.02-3.152v-.242a5.089,5.089,0,0,1,.453-2.2,3.451,3.451,0,0,1,1.3-1.492,3.7,3.7,0,0,1,2-.531,3.39,3.39,0,0,1,2.363.852,3.043,3.043,0,0,1,1,2.211H94.168a1.992,1.992,0,0,0-.621-1.348,1.932,1.932,0,0,0-1.379-.527,2.023,2.023,0,0,0-1.707.793,3.724,3.724,0,0,0-.605,2.293v.273a3.65,3.65,0,0,0,.6,2.25A2.033,2.033,0,0,0,92.176,13.977Zm4.6-3.281a4.993,4.993,0,0,1,.488-2.234A3.643,3.643,0,0,1,98.625,6.93a3.7,3.7,0,0,1,1.988-.539,3.565,3.565,0,0,1,2.793,1.2,4.6,4.6,0,0,1,1.066,3.18v.1A5.036,5.036,0,0,1,104,13.082a3.589,3.589,0,0,1-1.352,1.527,3.743,3.743,0,0,1-2.02.547,3.556,3.556,0,0,1-2.785-1.2A4.575,4.575,0,0,1,96.777,10.8Zm1.453.172a3.616,3.616,0,0,0,.652,2.258,2.211,2.211,0,0,0,3.5-.012,3.955,3.955,0,0,0,.648-2.418,3.61,3.61,0,0,0-.66-2.254,2.1,2.1,0,0,0-1.754-.863,2.075,2.075,0,0,0-1.727.852A3.925,3.925,0,0,0,98.23,10.867Zm12.977,1.891a1.064,1.064,0,0,0-.441-.91,4.249,4.249,0,0,0-1.539-.559,7.277,7.277,0,0,1-1.742-.562,2.479,2.479,0,0,1-.953-.781,1.869,1.869,0,0,1-.309-1.078,2.193,2.193,0,0,1,.879-1.758,3.432,3.432,0,0,1,2.246-.719,3.532,3.532,0,0,1,2.332.742,2.357,2.357,0,0,1,.895,1.9h-1.453a1.3,1.3,0,0,0-.5-1.023,1.888,1.888,0,0,0-1.27-.43,1.976,1.976,0,0,0-1.234.344,1.082,1.082,0,0,0-.445.9.877.877,0,0,0,.414.789,5.1,5.1,0,0,0,1.5.508,7.8,7.8,0,0,1,1.754.578,2.558,2.558,0,0,1,1,.809,1.988,1.988,0,0,1,.324,1.152,2.163,2.163,0,0,1-.906,1.816,3.8,3.8,0,0,1-2.352.684,4.257,4.257,0,0,1-1.8-.359,2.922,2.922,0,0,1-1.223-1,2.42,2.42,0,0,1-.441-1.395h1.445a1.5,1.5,0,0,0,.582,1.152,2.258,2.258,0,0,0,1.434.426,2.331,2.331,0,0,0,1.316-.332A1.02,1.02,0,0,0,111.207,12.758ZM116.5,4.5V6.547h1.578V7.664H116.5v5.249a1.173,1.173,0,0,0,.211.763.888.888,0,0,0,.719.254,3.5,3.5,0,0,0,.688-.094V15a4.215,4.215,0,0,1-1.109.155,1.8,1.8,0,0,1-1.461-.586,2.517,2.517,0,0,1-.492-1.664V7.664h-1.539V6.547h1.539V4.5Zm2.727,6.2a4.993,4.993,0,0,1,.488-2.234A3.643,3.643,0,0,1,121.07,6.93a3.7,3.7,0,0,1,1.988-.539,3.565,3.565,0,0,1,2.793,1.2,4.6,4.6,0,0,1,1.066,3.18v.1a5.036,5.036,0,0,1-.473,2.215,3.589,3.589,0,0,1-1.352,1.527,3.743,3.743,0,0,1-2.02.547,3.556,3.556,0,0,1-2.785-1.2,4.575,4.575,0,0,1-1.066-3.164Zm1.453.172a3.616,3.616,0,0,0,.652,2.258,2.211,2.211,0,0,0,3.5-.012,3.955,3.955,0,0,0,.648-2.418,3.61,3.61,0,0,0-.66-2.254,2.1,2.1,0,0,0-1.754-.863,2.075,2.075,0,0,0-1.727.852A3.925,3.925,0,0,0,120.676,10.867Zm12.977,1.891a1.064,1.064,0,0,0-.441-.91,4.249,4.249,0,0,0-1.539-.559,7.277,7.277,0,0,1-1.742-.562,2.479,2.479,0,0,1-.953-.781,1.869,1.869,0,0,1-.309-1.078,2.193,2.193,0,0,1,.879-1.758,3.432,3.432,0,0,1,2.246-.719,3.532,3.532,0,0,1,2.332.742,2.357,2.357,0,0,1,.895,1.9h-1.453a1.3,1.3,0,0,0-.5-1.023,1.888,1.888,0,0,0-1.27-.43,1.976,1.976,0,0,0-1.234.344,1.082,1.082,0,0,0-.445.9.877.877,0,0,0,.414.789,5.1,5.1,0,0,0,1.5.508,7.8,7.8,0,0,1,1.754.578,2.558,2.558,0,0,1,1,.809,1.988,1.988,0,0,1,.324,1.152,2.163,2.163,0,0,1-.906,1.816,3.8,3.8,0,0,1-2.352.684,4.257,4.257,0,0,1-1.8-.359,2.922,2.922,0,0,1-1.223-1,2.42,2.42,0,0,1-.441-1.395h1.445a1.5,1.5,0,0,0,.582,1.152,2.258,2.258,0,0,0,1.434.426,2.331,2.331,0,0,0,1.316-.332A1.02,1.02,0,0,0,133.652,12.758Zm10.055.125,1.969-6.336h1.547l-3.4,9.758q-.789,2.109-2.508,2.109l-.273-.023-.539-.1V17.117l.391.031a1.923,1.923,0,0,0,1.145-.3,2.148,2.148,0,0,0,.676-1.086l.32-.859L140.02,6.547H141.6ZM47.02,34.867a5.026,5.026,0,0,1-.891,3.113,2.846,2.846,0,0,1-2.391,1.176,2.947,2.947,0,0,1-2.477-1.133l-.07.977H39.863V27h1.445v4.477a2.93,2.93,0,0,1,2.414-1.086,2.863,2.863,0,0,1,2.418,1.164,5.177,5.177,0,0,1,.879,3.188ZM45.574,34.7A3.906,3.906,0,0,0,45,32.422a1.888,1.888,0,0,0-1.641-.8,2.122,2.122,0,0,0-2.055,1.328V36.6a2.181,2.181,0,0,0,2.07,1.328,1.878,1.878,0,0,0,1.617-.8A4.153,4.153,0,0,0,45.574,34.7Zm6.773,4.453a3.693,3.693,0,0,1-2.8-1.129,4.19,4.19,0,0,1-1.078-3.02v-.266a5.073,5.073,0,0,1,.48-2.246A3.748,3.748,0,0,1,50.3,30.949a3.378,3.378,0,0,1,1.871-.559,3.166,3.166,0,0,1,2.563,1.086,4.7,4.7,0,0,1,.914,3.109v.6H49.918a3,3,0,0,0,.73,2.02,2.3,2.3,0,0,0,1.777.77,2.517,2.517,0,0,0,1.3-.312,3.258,3.258,0,0,0,.93-.828l.883.688A3.55,3.55,0,0,1,52.348,39.156Zm-.18-7.578a1.928,1.928,0,0,0-1.469.637A3.1,3.1,0,0,0,49.965,34H54.2v-.109a2.753,2.753,0,0,0-.594-1.707A1.815,1.815,0,0,0,52.168,31.578Zm6.516-1.031.047,1.063a3.08,3.08,0,0,1,2.531-1.219q2.68,0,2.7,3.023V39H62.52V33.406a1.946,1.946,0,0,0-.418-1.352,1.675,1.675,0,0,0-1.277-.437,2.086,2.086,0,0,0-1.234.375,2.546,2.546,0,0,0-.828.984V39H57.316V30.547Zm10.969,8.609a3.693,3.693,0,0,1-2.8-1.129,4.19,4.19,0,0,1-1.078-3.02v-.266a5.073,5.073,0,0,1,.48-2.246A3.748,3.748,0,0,1,67.6,30.949a3.378,3.378,0,0,1,1.871-.559,3.166,3.166,0,0,1,2.563,1.086,4.7,4.7,0,0,1,.914,3.109v.6H67.223a3,3,0,0,0,.73,2.02,2.3,2.3,0,0,0,1.777.77,2.517,2.517,0,0,0,1.3-.312,3.259,3.259,0,0,0,.93-.828l.883.688A3.55,3.55,0,0,1,69.652,39.156Zm-.18-7.578A1.928,1.928,0,0,0,68,32.215,3.1,3.1,0,0,0,67.27,34H71.5v-.109a2.753,2.753,0,0,0-.594-1.707A1.815,1.815,0,0,0,69.473,31.578ZM75.105,39V31.664H73.77V30.547h1.336v-.719a2.937,2.937,0,0,1,.809-2.2,3.136,3.136,0,0,1,2.285-.789,6.881,6.881,0,0,1,2.211.477l-.242,1.219a5.008,5.008,0,0,0-1.859-.391,1.819,1.819,0,0,0-1.34.418,1.723,1.723,0,0,0-.41,1.254v.734h1.727v1.117H76.559V39Zm6.023,0H79.676V30.547h1.453Zm5.742-1.023a2.082,2.082,0,0,0,1.352-.469,1.649,1.649,0,0,0,.641-1.172H90.23a2.621,2.621,0,0,1-.5,1.383,3.293,3.293,0,0,1-1.23,1.047,3.55,3.55,0,0,1-1.629.391A3.482,3.482,0,0,1,84.125,38a4.59,4.59,0,0,1-1.02-3.152v-.242a5.089,5.089,0,0,1,.453-2.2,3.451,3.451,0,0,1,1.3-1.492,3.7,3.7,0,0,1,2-.531,3.39,3.39,0,0,1,2.363.852,3.043,3.043,0,0,1,1,2.211H88.863a1.992,1.992,0,0,0-.621-1.348,1.932,1.932,0,0,0-1.379-.527,2.023,2.023,0,0,0-1.707.793,3.724,3.724,0,0,0-.605,2.293v.273a3.65,3.65,0,0,0,.6,2.25A2.033,2.033,0,0,0,86.871,37.977ZM93.426,39H91.98V30.547h1.445ZM91.863,28.3a.863.863,0,0,1,.215-.594.807.807,0,0,1,.637-.242.819.819,0,0,1,.641.242.854.854,0,0,1,.219.594.826.826,0,0,1-.219.586.834.834,0,0,1-.641.234.821.821,0,0,1-.637-.234A.834.834,0,0,1,91.863,28.3ZM95.355,34.7a4.993,4.993,0,0,1,.488-2.234A3.643,3.643,0,0,1,97.2,30.93a3.7,3.7,0,0,1,1.988-.539,3.565,3.565,0,0,1,2.793,1.2,4.6,4.6,0,0,1,1.066,3.18v.1a5.036,5.036,0,0,1-.473,2.215,3.589,3.589,0,0,1-1.352,1.527,3.743,3.743,0,0,1-2.02.547,3.556,3.556,0,0,1-2.785-1.2A4.575,4.575,0,0,1,95.355,34.8Zm1.453.172a3.616,3.616,0,0,0,.652,2.258,2.211,2.211,0,0,0,3.5-.012,3.955,3.955,0,0,0,.648-2.418,3.61,3.61,0,0,0-.66-2.254,2.1,2.1,0,0,0-1.754-.863,2.075,2.075,0,0,0-1.727.852A3.925,3.925,0,0,0,96.809,34.867Zm12.977,1.891a1.064,1.064,0,0,0-.441-.91,4.249,4.249,0,0,0-1.539-.559,7.277,7.277,0,0,1-1.742-.562,2.479,2.479,0,0,1-.953-.781,1.869,1.869,0,0,1-.309-1.078,2.193,2.193,0,0,1,.879-1.758,3.432,3.432,0,0,1,2.246-.719,3.532,3.532,0,0,1,2.332.742,2.357,2.357,0,0,1,.895,1.9H109.7a1.3,1.3,0,0,0-.5-1.023,1.888,1.888,0,0,0-1.27-.43,1.976,1.976,0,0,0-1.234.344,1.082,1.082,0,0,0-.445.9.877.877,0,0,0,.414.789,5.1,5.1,0,0,0,1.5.508,7.8,7.8,0,0,1,1.754.578,2.558,2.558,0,0,1,1,.809,1.988,1.988,0,0,1,.324,1.152,2.163,2.163,0,0,1-.906,1.816,3.8,3.8,0,0,1-2.352.684,4.257,4.257,0,0,1-1.8-.359,2.922,2.922,0,0,1-1.223-1,2.42,2.42,0,0,1-.441-1.395h1.445a1.5,1.5,0,0,0,.582,1.152,2.258,2.258,0,0,0,1.434.426,2.331,2.331,0,0,0,1.316-.332A1.02,1.02,0,0,0,109.785,36.758Zm3.359,1.484a.905.905,0,0,1,.223-.625.848.848,0,0,1,.668-.25.874.874,0,0,1,.676.25.887.887,0,0,1,.23.625.839.839,0,0,1-.23.6.89.89,0,0,1-.676.242.8.8,0,0,1-.891-.844Z" transform="translate(1219.961 3131)" fill="#12263f"/>
    <g id="Grupo_154974" data-name="Grupo 154974" transform="translate(-5 -117)">
      <path id="Trazado_197261" data-name="Trazado 197261" d="M24.117,11.211A4.025,4.025,0,0,1,22.762,14.1a4.76,4.76,0,0,1-3.223,1.055A4.28,4.28,0,0,1,16.1,13.684a6.038,6.038,0,0,1-1.254-4.043v-.7a6.819,6.819,0,0,1,.578-2.891,4.332,4.332,0,0,1,1.652-1.918,4.629,4.629,0,0,1,2.5-.668,4.637,4.637,0,0,1,3.172,1.055,4.326,4.326,0,0,1,1.391,2.961H21.789a2.376,2.376,0,0,0-.613-1.6,2.271,2.271,0,0,0-1.605-.5,1.991,1.991,0,0,0-1.754.84,4.707,4.707,0,0,0-.6,2.605V9.7a5.038,5.038,0,0,0,.559,2.7,1.954,1.954,0,0,0,1.762.852,2.314,2.314,0,0,0,1.621-.5,2.241,2.241,0,0,0,.613-1.535ZM35,9.57a6.867,6.867,0,0,1-.594,2.945,4.472,4.472,0,0,1-1.7,1.953,5.021,5.021,0,0,1-5.059.008,4.515,4.515,0,0,1-1.719-1.941,6.67,6.67,0,0,1-.617-2.9V9.07a6.831,6.831,0,0,1,.605-2.957,4.508,4.508,0,0,1,1.711-1.961,5.014,5.014,0,0,1,5.055,0,4.508,4.508,0,0,1,1.711,1.961A6.811,6.811,0,0,1,35,9.063Zm-2.375-.516a4.787,4.787,0,0,0-.641-2.719,2.263,2.263,0,0,0-3.648-.012,4.732,4.732,0,0,0-.648,2.691V9.57a4.847,4.847,0,0,0,.641,2.7,2.243,2.243,0,0,0,3.656.035,4.819,4.819,0,0,0,.641-2.7Zm8.016,1.32a11.99,11.99,0,0,1,.477-3.406,8.989,8.989,0,0,1,1.406-2.863,5.251,5.251,0,0,1,2.016-1.73l.438,1.219A5.438,5.438,0,0,0,43.2,6.2a12.082,12.082,0,0,0-.641,4.125v.242a12.313,12.313,0,0,0,.633,4.141,5.544,5.544,0,0,0,1.789,2.648l-.437,1.2a5.253,5.253,0,0,1-1.98-1.684,8.838,8.838,0,0,1-1.4-2.785,11.918,11.918,0,0,1-.516-3.3Zm9.031,2.961a1.481,1.481,0,0,0,1.016-.344,1.2,1.2,0,0,0,.406-.914h2.117a2.9,2.9,0,0,1-.469,1.574,3.093,3.093,0,0,1-1.262,1.109,3.949,3.949,0,0,1-1.77.395A3.67,3.67,0,0,1,46.852,14,4.56,4.56,0,0,1,45.8,10.82v-.148a4.508,4.508,0,0,1,1.039-3.117A3.627,3.627,0,0,1,49.7,6.391a3.555,3.555,0,0,1,2.543.9,3.2,3.2,0,0,1,.973,2.4H51.094a1.551,1.551,0,0,0-.406-1.072,1.51,1.51,0,0,0-2.223.163,3.333,3.333,0,0,0-.4,1.866v.235a3.375,3.375,0,0,0,.4,1.878A1.377,1.377,0,0,0,49.672,13.336ZM54.148,10.7a5.013,5.013,0,0,1,.484-2.242A3.546,3.546,0,0,1,56.027,6.93a4.069,4.069,0,0,1,2.113-.539,3.849,3.849,0,0,1,2.793,1.047,4.2,4.2,0,0,1,1.207,2.844l.016.578A4.418,4.418,0,0,1,61.07,13.98a4.209,4.209,0,0,1-5.832,0,4.5,4.5,0,0,1-1.09-3.187Zm2.258.16a3.16,3.16,0,0,0,.453,1.843,1.628,1.628,0,0,0,2.578.008,3.457,3.457,0,0,0,.461-2.015,3.128,3.128,0,0,0-.461-1.831,1.5,1.5,0,0,0-1.3-.649,1.474,1.474,0,0,0-1.281.646A3.516,3.516,0,0,0,56.406,10.856Zm11.719,1.808a.727.727,0,0,0-.41-.652,4.659,4.659,0,0,0-1.316-.426q-3.016-.633-3.016-2.562a2.323,2.323,0,0,1,.934-1.879,3.766,3.766,0,0,1,2.441-.754,4.053,4.053,0,0,1,2.574.758A2.388,2.388,0,0,1,70.3,9.117H68.039a1.092,1.092,0,0,0-.312-.8A1.322,1.322,0,0,0,66.75,8a1.351,1.351,0,0,0-.883.258.814.814,0,0,0-.312.656.7.7,0,0,0,.355.605,3.657,3.657,0,0,0,1.2.4,9.8,9.8,0,0,1,1.422.379A2.336,2.336,0,0,1,70.32,12.57a2.2,2.2,0,0,1-.992,1.871,4.28,4.28,0,0,1-2.562.715,4.47,4.47,0,0,1-1.887-.379,3.166,3.166,0,0,1-1.293-1.039,2.414,2.414,0,0,1-.469-1.426h2.141a1.179,1.179,0,0,0,.445.922,1.766,1.766,0,0,0,1.109.32,1.635,1.635,0,0,0,.98-.246A.766.766,0,0,0,68.125,12.664Zm6.352-8.2V6.547h1.445V8.2H74.477v4.219a1.007,1.007,0,0,0,.18.672.9.9,0,0,0,.688.2,3.6,3.6,0,0,0,.664-.055v1.711a4.648,4.648,0,0,1-1.367.2,2.156,2.156,0,0,1-2.422-2.4V8.2H70.984V6.547h1.234V4.469ZM81.07,15.156a4.15,4.15,0,0,1-3.027-1.141,4.054,4.054,0,0,1-1.168-3.039v-.219a5.106,5.106,0,0,1,.492-2.277,3.612,3.612,0,0,1,1.395-1.547,3.914,3.914,0,0,1,2.059-.543,3.508,3.508,0,0,1,2.73,1.094,4.444,4.444,0,0,1,1,3.1v.922H79.164a2.1,2.1,0,0,0,.66,1.328,2,2,0,0,0,1.395.5,2.437,2.437,0,0,0,2.039-.945l1.109,1.242a3.389,3.389,0,0,1-1.375,1.121A4.511,4.511,0,0,1,81.07,15.156Zm-.258-6.945a1.411,1.411,0,0,0-1.09.455,2.357,2.357,0,0,0-.535,1.3h3.141V9.788a1.681,1.681,0,0,0-.406-1.165A1.456,1.456,0,0,0,80.813,8.211Zm9.594,4.453a.727.727,0,0,0-.41-.652,4.659,4.659,0,0,0-1.316-.426q-3.016-.633-3.016-2.562A2.323,2.323,0,0,1,86.6,7.145a3.766,3.766,0,0,1,2.441-.754,4.053,4.053,0,0,1,2.574.758,2.388,2.388,0,0,1,.965,1.969H90.32a1.092,1.092,0,0,0-.312-.8A1.322,1.322,0,0,0,89.031,8a1.351,1.351,0,0,0-.883.258.814.814,0,0,0-.312.656.7.7,0,0,0,.355.605,3.657,3.657,0,0,0,1.2.4,9.8,9.8,0,0,1,1.422.379A2.336,2.336,0,0,1,92.6,12.57a2.2,2.2,0,0,1-.992,1.871,4.28,4.28,0,0,1-2.562.715,4.47,4.47,0,0,1-1.887-.379,3.166,3.166,0,0,1-1.293-1.039,2.414,2.414,0,0,1-.469-1.426h2.141a1.179,1.179,0,0,0,.445.922,1.766,1.766,0,0,0,1.109.32,1.635,1.635,0,0,0,.98-.246A.766.766,0,0,0,90.406,12.664Zm7.539-2.109a11.377,11.377,0,0,1-.508,3.4,9.225,9.225,0,0,1-1.461,2.883,5.263,5.263,0,0,1-2.039,1.719l-.437-1.2a5.494,5.494,0,0,0,1.75-2.578,11.939,11.939,0,0,0,.664-4.008v-.414a12.209,12.209,0,0,0-.637-4.117A5.727,5.727,0,0,0,93.5,3.57l.438-1.2a5.265,5.265,0,0,1,2,1.672A9.106,9.106,0,0,1,97.4,6.867a11.3,11.3,0,0,1,.543,3.336Z" transform="translate(1201.961 3381)" fill="#12263f"/>
      <circle id="Elipse_5824" data-name="Elipse 5824" cx="38.5" cy="38.5" r="38.5" transform="translate(1326.961 3352)" fill="#fff"/>
    </g>
    <g id="Grupo_154983" data-name="Grupo 154983" transform="translate(1336.338 3250.377)">
      <g id="Grupo_154982" data-name="Grupo 154982" clip-path="url(#clip-path)">
        <path id="Trazado_197023" data-name="Trazado 197023" d="M49.754,15.626a1.239,1.239,0,0,1-1.23.641c-2.544-.021-5.088-.005-7.632-.015a.694.694,0,0,0-.633.309,7.286,7.286,0,0,1-4.472,2.982,3.3,3.3,0,0,1-1.03.073,1.285,1.285,0,0,0-1.165.49q-4.2,4.234-8.423,8.438c-.659.659-1.1.658-1.762,0L6.734,11.877c-.746-.746-.743-1.087.012-1.842q4.7-4.694,9.391-9.385c.232-.231.491-.434.738-.65h.542c.239.2.493.388.715.607.836.824,1.655,1.665,2.5,2.481a.589.589,0,0,0,.489.137c1.166-.4,2.335-.789,3.478-1.248a7.55,7.55,0,0,1,6.213.158C32.08,2.72,33.323,3.361,34.564,4c.894.462,1.758.984,2.654,1.441a3.981,3.981,0,0,0,1.895.429c.163-.924.375-1.117,1.194-1.123.271,0,.542,0,.813,0h1.46c0-.207,0-.341,0-.475.01-.94.279-1.208,1.212-1.209,1.58,0,3.161.017,4.74-.01a1.185,1.185,0,0,1,1.221.649ZM22.311,4.741a1.917,1.917,0,0,0,.132.171c1.021,1.023,2.039,2.048,3.069,3.061a1.189,1.189,0,0,0,.463.252c1.53.493,3.064.974,4.6,1.462.529.168,1.065.323,1.584.521a.872.872,0,0,1,.519,1.111.9.9,0,0,1-1.039.593,3.651,3.651,0,0,1-.432-.127q-3.8-1.2-7.607-2.4a1.747,1.747,0,0,0-2.118.746,1.684,1.684,0,0,0,.327,2.177A3.631,3.631,0,0,0,23,13c2.211.778,4.439,1.505,6.649,2.284a2.284,2.284,0,0,1,.885.633,5.188,5.188,0,0,0,5.241,1.766,5.431,5.431,0,0,0,3.3-2.572.732.732,0,0,0,.087-.386c.005-2.212,0-4.425.009-6.638,0-.282-.076-.394-.374-.415a7.616,7.616,0,0,1-3.077-.947c-1.908-1.019-3.818-2.038-5.76-2.989a5.378,5.378,0,0,0-4.174-.265c-1.153.385-2.286.834-3.471,1.271m-10.525,2.9a5.8,5.8,0,0,1,.006,6.632l9.172,9.176a5.869,5.869,0,0,1,6.64,0L29.66,21.4a5.806,5.806,0,0,1-1.026-3.75c.054-.788.061-.787-.7-1.044l-2.218-.752c-.072.2-.122.335-.175.474A5.144,5.144,0,1,1,19.424,9.54a1.046,1.046,0,0,0,.529-.407A3.73,3.73,0,0,1,22.005,7.6c.124-.038.249-.074.451-.134-.58-.571-1.124-1.087-1.641-1.629a.414.414,0,0,0-.637-.08,5.288,5.288,0,0,1-4.106.746,19.753,19.753,0,0,1-2.327-.828l-1.96,1.973m36.132,6.807V4.9H44.412v9.53c.1.01.167.025.239.025,1.08,0,2.159,0,3.267,0M19.44,11.469a3.3,3.3,0,0,0-1.953,3.879,3.338,3.338,0,0,0,3.5,2.513,3.186,3.186,0,0,0,2.92-2.647c-2.017-.58-4.016-1.229-4.471-3.745M41,14.421h1.551V6.581H41ZM22.363,24.768l1.9,1.9,1.925-1.924a3.689,3.689,0,0,0-3.826.023m-11.922-11.8a3.723,3.723,0,0,0-.008-3.978L8.445,10.97l2,1.994M17.1,2.223Q16.2,3.136,15.3,4.044c-.051.051-.094.11-.14.165a3.588,3.588,0,0,0,3.956.021L17.1,2.223M30.9,20.06l.96-.972-1.52-.813.56,1.785" transform="translate(-3.508)" fill="#7f4fc7"/>
        <path id="Trazado_197024" data-name="Trazado 197024" d="M0,68.768a1.338,1.338,0,0,1,1.3-.611c2.5.02,5,0,7.493.015a.82.82,0,0,0,.746-.362,6.9,6.9,0,0,1,4.5-2.926,7.044,7.044,0,0,1,6.374,2.237,1.743,1.743,0,0,0,.648.442c1.943.677,3.884,1.361,5.845,1.982a4.625,4.625,0,0,1,3.264,2.76c1.392-.385,2.761-.777,4.137-1.14a33.052,33.052,0,0,1,3.583-.867,3.507,3.507,0,0,1,2.863,5.986A5.689,5.689,0,0,1,38.883,77.5c-4.691,1.732-9.4,3.409-14.114,5.088-.561.2-1.157.3-1.736.453H21.5a16.75,16.75,0,0,1-5.288-2.076c-1.069-.545-2.106-1.154-3.156-1.735a5.14,5.14,0,0,0-2.42-.686c-.143.95-.372,1.144-1.309,1.144H7.2c-.01.186-.023.319-.025.452-.014.961-.278,1.224-1.244,1.224-1.593,0-3.186-.01-4.779.006A1.1,1.1,0,0,1,0,80.691Zm10.591,7.964a8.87,8.87,0,0,1,4.569,1.606c.4.24.806.47,1.222.679,1.169.585,2.326,1.2,3.522,1.724a6.16,6.16,0,0,0,4.818-.046c4.492-1.67,9.016-3.254,13.528-4.869a2.816,2.816,0,0,0,1.46-1.083A1.7,1.7,0,0,0,38.524,72.1a3.211,3.211,0,0,0-1.2.105c-2.221.594-4.432,1.222-6.65,1.826a.684.684,0,0,0-.54.506,3.451,3.451,0,0,1-3.972,2.355A29.466,29.466,0,0,1,23.186,76c-1.792-.562-3.586-1.119-5.366-1.717a1.2,1.2,0,0,1-.7-.6,1.031,1.031,0,0,1,.194-.888,1.052,1.052,0,0,1,.879-.234c1.332.369,2.643.807,3.961,1.224,1.346.426,2.689.864,4.039,1.28a1.755,1.755,0,0,0,2.079-.753,1.693,1.693,0,0,0-.346-2.211,3.871,3.871,0,0,0-1.24-.7c-2.2-.773-4.409-1.5-6.607-2.269a2.025,2.025,0,0,1-.82-.574,5.108,5.108,0,0,0-8.44.565,1.312,1.312,0,0,0-.217.7c-.016,2.137-.01,4.275-.01,6.412ZM5.367,79.539V73.648c0-1.1.006-2.2-.009-3.293,0-.127-.122-.36-.191-.362-1.108-.023-2.216-.016-3.332-.016v9.562ZM8.75,70.01H7.218v7.844H8.75Z" transform="translate(0 -36.793)" fill="#7f4fc7"/>
        <path id="Trazado_197025" data-name="Trazado 197025" d="M72.69,26.73a.88.88,0,0,1-.886.886.892.892,0,1,1,.01-1.784.882.882,0,0,1,.876.9" transform="translate(-40.253 -14.668)" fill="#7f4fc7"/>
        <path id="Trazado_197026" data-name="Trazado 197026" d="M32.845,80.241a.909.909,0,0,1,.9.886.93.93,0,0,1-.929.912.905.905,0,0,1-.866-.918.88.88,0,0,1,.894-.88" transform="translate(-18.141 -45.56)" fill="#7f4fc7"/>
      </g>
    </g>
  </g>
</svg>
