<svg xmlns="http://www.w3.org/2000/svg" xmlns:xlink="http://www.w3.org/1999/xlink" width="133" height="144" viewBox="0 0 133 144">
  <defs>
    <clipPath id="clip-path">
      <rect id="Rectángulo_46424" data-name="Rectángulo 46424" width="88.225" height="139.837" fill="#2194e5"/>
    </clipPath>
    <clipPath id="clip-path-2">
      <rect id="Rectángulo_46423" data-name="Rectángulo 46423" width="31.316" height="27.814" fill="#fff"/>
    </clipPath>
  </defs>
  <g id="Grupo_154835" data-name="Grupo 154835" transform="translate(12248 6386)">
    <g id="Grupo_154541" data-name="Grupo 154541" transform="translate(-12476.033 -7173.568)">
      <g id="Grupo_152595" data-name="Grupo 152595" transform="translate(266.118 879.984) rotate(180)">
        <rect id="Rectángulo_45221" data-name="Rectángulo 45221" width="7.254" height="7.254" transform="translate(30.83 30.831)" fill="#7f4fc7"/>
        <rect id="Rectángulo_45222" data-name="Rectángulo 45222" width="7.254" height="7.254" transform="translate(15.415 30.831)" fill="#7f4fc7"/>
        <rect id="Rectángulo_45223" data-name="Rectángulo 45223" width="7.254" height="7.254" transform="translate(0 30.831)" fill="#7f4fc7"/>
        <rect id="Rectángulo_45232" data-name="Rectángulo 45232" width="7.254" height="7.254" transform="translate(30.83 15.415)" fill="#7f4fc7"/>
        <rect id="Rectángulo_45233" data-name="Rectángulo 45233" width="7.254" height="7.254" transform="translate(15.415 15.415)" fill="#7f4fc7"/>
        <rect id="Rectángulo_45234" data-name="Rectángulo 45234" width="7.254" height="7.254" transform="translate(0 15.415)" fill="#7f4fc7"/>
        <rect id="Rectángulo_45243" data-name="Rectángulo 45243" width="7.254" height="7.254" transform="translate(30.83)" fill="#7f4fc7"/>
        <rect id="Rectángulo_45244" data-name="Rectángulo 45244" width="7.254" height="7.254" transform="translate(15.415)" fill="#7f4fc7"/>
        <rect id="Rectángulo_45245" data-name="Rectángulo 45245" width="7.254" height="7.254" transform="translate(0)" fill="#7f4fc7"/>
      </g>
      <g id="Grupo_154832" data-name="Grupo 154832" transform="translate(251.033 787.568)">
        <g id="Grupo_154831" data-name="Grupo 154831" clip-path="url(#clip-path)">
          <path id="Trazado_196760" data-name="Trazado 196760" d="M77.695,0a27.848,27.848,0,0,1,2.7.863,12.015,12.015,0,0,1,7.74,10.5c.065.678.074,1.363.074,2.045q.007,56.512.02,113.026c0,5.517-2.107,9.733-7.151,12.153a13.23,13.23,0,0,1-4.722,1.14c-2.627.188-5.277.077-7.915.056-1.471-.011-2.348-.845-2.313-2.1a2.041,2.041,0,0,1,2.3-1.978c2.412-.024,4.823.007,7.236-.011a8.164,8.164,0,0,0,8.431-8.04c.019-.363.018-.728.018-1.092q0-56.649.01-113.3a9.066,9.066,0,0,0-1.765-6.017,8.387,8.387,0,0,0-6.93-3.16q-24.371.029-48.741.009-6.9,0-13.79,0c-5.372.009-8.765,3.382-8.785,8.786C4.084,19.39,4.1,25.9,4.1,32.4A8.109,8.109,0,0,1,4,34.033a1.819,1.819,0,0,1-1.954,1.549A1.822,1.822,0,0,1,.1,34.017a8.427,8.427,0,0,1-.094-1.63Q0,22.968,0,13.55c0-7.312,3.209-11.473,10.3-13.388.079-.022.142-.106.212-.161Z" fill="#2194e5"/>
          <path id="Trazado_196761" data-name="Trazado 196761" d="M0,85.867q0-20.68,0-41.361a13.622,13.622,0,0,1,.039-1.5,1.9,1.9,0,0,1,1.965-1.869,1.928,1.928,0,0,1,2.057,1.917A15.381,15.381,0,0,1,4.1,44.69q0,40.884-.005,81.768a9.356,9.356,0,0,0,1.251,5.36,8.263,8.263,0,0,0,7.371,3.885q22.255-.018,44.509-.005c.41,0,.82-.016,1.229.006a2.042,2.042,0,1,1,.066,4.082c-.226.017-.455.007-.682.007q-22.6,0-45.192-.006A12.2,12.2,0,0,1,.31,130.07a18.081,18.081,0,0,1-.3-3.8q-.03-20.2-.012-40.406" fill="#2194e5"/>
          <path id="Trazado_196762" data-name="Trazado 196762" d="M27.949,69.071c.378-1.237.571-2.125.919-2.948.673-1.588,1.416-3.149,2.168-4.7a1.616,1.616,0,0,0-.337-2.088c-2.012-1.978-4-3.98-5.989-5.981a1.366,1.366,0,0,0-2.228.038c-2.111,2.137-4.264,4.231-6.359,6.382a4.4,4.4,0,0,0-.828,5.51A73.479,73.479,0,0,0,30.673,86.316c1.591,1.5,1.856,2.674.839,3.683s-2.057.791-3.636-.7A76.844,76.844,0,0,1,11.612,67.069,8.489,8.489,0,0,1,13.3,56.8q3.161-3.21,6.376-6.366a5.261,5.261,0,0,1,7.874-.015q3.073,3.006,6.081,6.081a5.373,5.373,0,0,1,1.138,6.619c-.69,1.532-1.387,3.063-2.132,4.569A1.77,1.77,0,0,0,33.01,70q5.534,5.471,11,11a1.784,1.784,0,0,0,2.326.355c1.552-.756,3.123-1.472,4.7-2.179a5.279,5.279,0,0,1,6.384,1.11q3.172,3.1,6.272,6.276a5.2,5.2,0,0,1,.048,7.578c-2.244,2.324-4.523,4.617-6.859,6.847a8.2,8.2,0,0,1-9.717,1.463c-3.528-1.871-6.94-3.962-10.366-6.019a2.075,2.075,0,0,1-.889-3.1c.7-.984,1.833-1.059,3.142-.281,3.084,1.834,6.153,3.7,9.291,5.438,2.493,1.382,4.227,1.044,6.266-.982q2.9-2.886,5.791-5.791c1.093-1.1,1.107-1.548.061-2.605-1.888-1.909-3.813-3.781-5.681-5.709A1.755,1.755,0,0,0,52.47,83c-1.548.764-3.124,1.47-4.7,2.182a5.312,5.312,0,0,1-6.4-1.06c-3.883-3.839-7.784-7.663-11.549-11.615a14.374,14.374,0,0,1-1.872-3.441" fill="#2194e5"/>
          <path id="Trazado_196763" data-name="Trazado 196763" d="M67.183,69.089a1.981,1.981,0,0,1-1.627,2.133A1.958,1.958,0,0,1,63.2,69.839a54.746,54.746,0,0,0-2.116-5.158A27.294,27.294,0,0,0,45.076,51.1c-.3-.1-.611-.181-.9-.3a2.04,2.04,0,0,1-1.34-2.609,1.9,1.9,0,0,1,2.529-1.23,48.979,48.979,0,0,1,7.237,3.1A31.06,31.06,0,0,1,66.933,68.1c.11.345.178.7.25.993" fill="#2194e5"/>
          <path id="Trazado_196764" data-name="Trazado 196764" d="M65.609,48.42a8.4,8.4,0,0,1,1.724,1.088A44.944,44.944,0,0,1,77.441,67.361,2.044,2.044,0,0,1,76.135,70.1a2.006,2.006,0,0,1-2.54-1.459,44.436,44.436,0,0,0-9.273-16.494A2.925,2.925,0,0,1,64,49.795c.146-.539,1-.885,1.613-1.375" fill="#2194e5"/>
          <path id="Trazado_196765" data-name="Trazado 196765" d="M42.908,57.98a8.3,8.3,0,0,1,.878.2A18.047,18.047,0,0,1,55.82,70.209a2.052,2.052,0,1,1-3.861,1.283,14.215,14.215,0,0,0-9.45-9.437,2.057,2.057,0,0,1,.4-4.075" fill="#2194e5"/>
          <path id="Trazado_196766" data-name="Trazado 196766" d="M45.887,36.385c.211.048.479.1.739.171a45.012,45.012,0,0,1,12.512,5.866c.836.558,1.4,1.381.983,2.3a3.721,3.721,0,0,1-1.712,1.487,1.746,1.746,0,0,1-1.384-.311A44.629,44.629,0,0,0,45.37,40.42a1.934,1.934,0,0,1-1.507-2.272,2.033,2.033,0,0,1,2.024-1.763" fill="#2194e5"/>
          <path id="Trazado_196767" data-name="Trazado 196767" d="M40.96,8.192c2.089,0,4.178-.012,6.267,0,1.576.012,2.48.809,2.44,2.106-.038,1.232-.919,1.976-2.432,1.98q-6.4.02-12.806,0c-1.575,0-2.477-.81-2.439-2.108.035-1.232.915-1.967,2.431-1.978,2.179-.016,4.359,0,6.539,0" fill="#2194e5"/>
          <path id="Trazado_196768" data-name="Trazado 196768" d="M56.5,10.27A2.014,2.014,0,1,1,54.445,8.2,2.033,2.033,0,0,1,56.5,10.27" fill="#2194e5"/>
        </g>
      </g>
    </g>
    <g id="Grupo_154834" data-name="Grupo 154834">
      <path id="Trazado_196769" data-name="Trazado 196769" d="M22,0A22,22,0,1,1,0,22,22,22,0,0,1,22,0Z" transform="translate(-12159 -6286)" fill="#2194e5"/>
      <g id="Grupo_154833" data-name="Grupo 154833" transform="translate(-12153 -6278)">
        <g id="Grupo_154828" data-name="Grupo 154828" transform="translate(0 0)" clip-path="url(#clip-path-2)">
          <path id="Trazado_196758" data-name="Trazado 196758" d="M8.772,15.177c4.481-4.489,8.914-8.91,13.321-13.356A5.262,5.262,0,0,1,27.17.126a5.205,5.205,0,0,1,2.745,8.648c-1.172,1.278-2.439,2.469-3.665,3.7Q19.573,19.148,12.9,25.823c-2.655,2.652-5.664,2.652-8.312.009-.94-.938-1.881-1.872-2.815-2.816a5.2,5.2,0,0,1-.6-7.18,5.288,5.288,0,0,1,7.17-.927c.111.072.224.14.428.268M5.224,17.129a6.99,6.99,0,0,0-1.491,1.259,1.527,1.527,0,0,0,.3,1.963c.994,1.025,2.013,2.027,3.024,3.034,1.274,1.269,2.066,1.265,3.356-.025q8.227-8.221,16.449-16.446a5.46,5.46,0,0,0,.679-.757,1.678,1.678,0,0,0-.238-2.226,1.709,1.709,0,0,0-2.239-.1,6.73,6.73,0,0,0-.666.63Q17.474,11.38,10.548,18.3c-1.486,1.484-2.132,1.468-3.651.016a14.916,14.916,0,0,0-1.673-1.192" transform="translate(0 0)" fill="#fff"/>
        </g>
      </g>
    </g>
  </g>
</svg>
