<svg xmlns="http://www.w3.org/2000/svg" xmlns:xlink="http://www.w3.org/1999/xlink" width="392" height="91" viewBox="0 0 392 91">
  <defs>
    <clipPath id="clip-path">
      <rect id="Rect치ngulo_46452" data-name="Rect치ngulo 46452" width="43.174" height="43.324" fill="#fff"/>
    </clipPath>
  </defs>
  <g id="Grupo_155235" data-name="Grupo 155235" transform="translate(-608 -2350)">
    <rect id="Rect치ngulo_46657" data-name="Rect치ngulo 46657" width="360" height="91" rx="14" transform="translate(640 2350)" fill="#ede7f7"/>
    <path id="Trazado_197252" data-name="Trazado 197252" d="M9.688,11.391a4.185,4.185,0,0,1-1.332,2.785,4.365,4.365,0,0,1-2.98.98,4.008,4.008,0,0,1-3.23-1.445A5.815,5.815,0,0,1,.93,9.844V8.75A6.481,6.481,0,0,1,1.5,5.961,4.231,4.231,0,0,1,3.1,4.113a4.47,4.47,0,0,1,2.406-.645A4.11,4.11,0,0,1,8.414,4.48a4.235,4.235,0,0,1,1.273,2.8H8.18a3.268,3.268,0,0,0-.848-1.975A2.565,2.565,0,0,0,5.508,4.7,2.684,2.684,0,0,0,3.254,5.759a4.882,4.882,0,0,0-.816,3.026v1.1a5.018,5.018,0,0,0,.773,2.948A2.5,2.5,0,0,0,5.375,13.93a2.887,2.887,0,0,0,1.918-.566,3.143,3.143,0,0,0,.887-1.973Zm1.438-.7a4.993,4.993,0,0,1,.488-2.234A3.643,3.643,0,0,1,12.973,6.93a3.7,3.7,0,0,1,1.988-.539,3.565,3.565,0,0,1,2.793,1.2,4.6,4.6,0,0,1,1.066,3.18v.1a5.036,5.036,0,0,1-.473,2.215A3.589,3.589,0,0,1,17,14.609a3.743,3.743,0,0,1-2.02.547,3.556,3.556,0,0,1-2.785-1.2A4.575,4.575,0,0,1,11.125,10.8Zm1.453.172a3.616,3.616,0,0,0,.652,2.258,2.211,2.211,0,0,0,3.5-.012,3.955,3.955,0,0,0,.648-2.418,3.61,3.61,0,0,0-.66-2.254,2.1,2.1,0,0,0-1.754-.863,2.075,2.075,0,0,0-1.727.852A3.925,3.925,0,0,0,12.578,10.867ZM22,6.547l.047,1.063a3.08,3.08,0,0,1,2.531-1.219q2.68,0,2.7,3.023V15H25.836V9.406a1.946,1.946,0,0,0-.418-1.352,1.675,1.675,0,0,0-1.277-.437,2.086,2.086,0,0,0-1.234.375,2.546,2.546,0,0,0-.828.984V15H20.633V6.547ZM29.945,15V7.664H28.609V6.547h1.336V5.828a2.937,2.937,0,0,1,.809-2.2,3.136,3.136,0,0,1,2.285-.789,6.881,6.881,0,0,1,2.211.477l-.242,1.219a5.008,5.008,0,0,0-1.859-.391,1.819,1.819,0,0,0-1.34.418,1.723,1.723,0,0,0-.41,1.254v.734h1.727V7.664H31.4V15Zm6.023,0H34.516V6.547h1.453Zm2-4.3a4.952,4.952,0,0,1,.922-3.129,3.137,3.137,0,0,1,4.766-.168V3H45.1V15H43.773l-.07-.906a2.943,2.943,0,0,1-2.414,1.063,2.887,2.887,0,0,1-2.395-1.2,5.008,5.008,0,0,1-.926-3.141Zm1.445.164a3.749,3.749,0,0,0,.594,2.25,1.92,1.92,0,0,0,1.641.813A2.108,2.108,0,0,0,43.656,12.7V8.813a2.125,2.125,0,0,0-1.992-1.2,1.929,1.929,0,0,0-1.656.82A4.128,4.128,0,0,0,39.414,10.867Zm11.438,4.289a3.693,3.693,0,0,1-2.8-1.129,4.19,4.19,0,0,1-1.078-3.02v-.266a5.073,5.073,0,0,1,.48-2.246A3.748,3.748,0,0,1,48.8,6.949a3.378,3.378,0,0,1,1.871-.559,3.166,3.166,0,0,1,2.563,1.086,4.7,4.7,0,0,1,.914,3.109v.6H48.422a3,3,0,0,0,.73,2.02,2.3,2.3,0,0,0,1.777.77,2.517,2.517,0,0,0,1.3-.312,3.259,3.259,0,0,0,.93-.828l.883.688A3.55,3.55,0,0,1,50.852,15.156Zm-.18-7.578a1.928,1.928,0,0,0-1.469.637A3.1,3.1,0,0,0,48.469,10H52.7V9.891a2.753,2.753,0,0,0-.594-1.707A1.815,1.815,0,0,0,50.672,7.578Zm6.516-1.031.047,1.063a3.08,3.08,0,0,1,2.531-1.219q2.68,0,2.7,3.023V15H61.023V9.406a1.946,1.946,0,0,0-.418-1.352,1.675,1.675,0,0,0-1.277-.437,2.086,2.086,0,0,0-1.234.375,2.546,2.546,0,0,0-.828.984V15H55.82V6.547Zm10.852,7.43a2.082,2.082,0,0,0,1.352-.469,1.649,1.649,0,0,0,.641-1.172H71.4a2.621,2.621,0,0,1-.5,1.383,3.293,3.293,0,0,1-1.23,1.047,3.55,3.55,0,0,1-1.629.391A3.482,3.482,0,0,1,65.293,14a4.59,4.59,0,0,1-1.02-3.152v-.242a5.089,5.089,0,0,1,.453-2.2,3.451,3.451,0,0,1,1.3-1.492,3.7,3.7,0,0,1,2-.531,3.39,3.39,0,0,1,2.363.852,3.043,3.043,0,0,1,1,2.211H70.031a1.992,1.992,0,0,0-.621-1.348,1.932,1.932,0,0,0-1.379-.527,2.023,2.023,0,0,0-1.707.793,3.724,3.724,0,0,0-.605,2.293v.273a3.65,3.65,0,0,0,.6,2.25A2.033,2.033,0,0,0,68.039,13.977ZM74.594,15H73.148V6.547h1.445ZM73.031,4.3a.863.863,0,0,1,.215-.594.807.807,0,0,1,.637-.242.819.819,0,0,1,.641.242.854.854,0,0,1,.219.594.826.826,0,0,1-.219.586.834.834,0,0,1-.641.234.821.821,0,0,1-.637-.234A.834.834,0,0,1,73.031,4.3ZM82.125,15a3.036,3.036,0,0,1-.2-.891,3.225,3.225,0,0,1-2.406,1.047,2.984,2.984,0,0,1-2.051-.707,2.288,2.288,0,0,1-.8-1.793,2.39,2.39,0,0,1,1-2.051,4.733,4.733,0,0,1,2.824-.73H81.9V9.211A1.623,1.623,0,0,0,81.445,8a1.821,1.821,0,0,0-1.336-.449,2.108,2.108,0,0,0-1.3.391,1.151,1.151,0,0,0-.523.945H76.836a2,2,0,0,1,.449-1.223A3.066,3.066,0,0,1,78.5,6.734,4.1,4.1,0,0,1,80.2,6.391a3.342,3.342,0,0,1,2.289.73,2.635,2.635,0,0,1,.859,2.012v3.891a4.757,4.757,0,0,0,.3,1.852V15Zm-2.4-1.1a2.54,2.54,0,0,0,1.289-.352,2.127,2.127,0,0,0,.883-.914V10.9H80.766q-2.656,0-2.656,1.555a1.316,1.316,0,0,0,.453,1.063A1.742,1.742,0,0,0,79.727,13.9ZM87.18,15H85.734V3H87.18Zm3.883,0H89.617V6.547h1.445ZM89.5,4.3a.863.863,0,0,1,.215-.594.807.807,0,0,1,.637-.242.819.819,0,0,1,.641.242.854.854,0,0,1,.219.594.826.826,0,0,1-.219.586.834.834,0,0,1-.641.234.821.821,0,0,1-.637-.234A.834.834,0,0,1,89.5,4.3Zm3.523,6.4a4.952,4.952,0,0,1,.922-3.129,3.137,3.137,0,0,1,4.766-.168V3h1.445V15H98.828l-.07-.906a2.943,2.943,0,0,1-2.414,1.063,2.887,2.887,0,0,1-2.395-1.2,5.008,5.008,0,0,1-.926-3.141Zm1.445.164a3.749,3.749,0,0,0,.594,2.25,1.92,1.92,0,0,0,1.641.813A2.108,2.108,0,0,0,98.711,12.7V8.813a2.125,2.125,0,0,0-1.992-1.2,1.929,1.929,0,0,0-1.656.82A4.128,4.128,0,0,0,94.469,10.867ZM107.617,15a3.036,3.036,0,0,1-.2-.891,3.225,3.225,0,0,1-2.406,1.047,2.984,2.984,0,0,1-2.051-.707,2.288,2.288,0,0,1-.8-1.793,2.39,2.39,0,0,1,1-2.051,4.733,4.733,0,0,1,2.824-.73h1.406V9.211A1.623,1.623,0,0,0,106.938,8a1.821,1.821,0,0,0-1.336-.449,2.108,2.108,0,0,0-1.3.391,1.151,1.151,0,0,0-.523.945h-1.453a2,2,0,0,1,.449-1.223A3.066,3.066,0,0,1,104,6.734a4.1,4.1,0,0,1,1.691-.344,3.342,3.342,0,0,1,2.289.73,2.635,2.635,0,0,1,.859,2.012v3.891a4.757,4.757,0,0,0,.3,1.852V15Zm-2.4-1.1a2.54,2.54,0,0,0,1.289-.352,2.127,2.127,0,0,0,.883-.914V10.9h-1.133q-2.656,0-2.656,1.555a1.316,1.316,0,0,0,.453,1.063A1.742,1.742,0,0,0,105.219,13.9Zm5.531-3.2a4.952,4.952,0,0,1,.922-3.129,3.137,3.137,0,0,1,4.766-.168V3h1.445V15h-1.328l-.07-.906a2.943,2.943,0,0,1-2.414,1.063,2.887,2.887,0,0,1-2.395-1.2,5.008,5.008,0,0,1-.926-3.141Zm1.445.164a3.749,3.749,0,0,0,.594,2.25,1.92,1.92,0,0,0,1.641.813,2.108,2.108,0,0,0,2.008-1.234V8.813a2.125,2.125,0,0,0-1.992-1.2,1.929,1.929,0,0,0-1.656.82A4.128,4.128,0,0,0,112.2,10.867Zm11.539-.164a4.952,4.952,0,0,1,.922-3.129,3.137,3.137,0,0,1,4.766-.168V3h1.445V15h-1.328l-.07-.906a2.943,2.943,0,0,1-2.414,1.063,2.887,2.887,0,0,1-2.395-1.2,5.008,5.008,0,0,1-.926-3.141Zm1.445.164a3.749,3.749,0,0,0,.594,2.25,1.92,1.92,0,0,0,1.641.813,2.108,2.108,0,0,0,2.008-1.234V8.813a2.125,2.125,0,0,0-1.992-1.2,1.929,1.929,0,0,0-1.656.82A4.128,4.128,0,0,0,125.18,10.867Zm11.438,4.289a3.693,3.693,0,0,1-2.8-1.129,4.19,4.19,0,0,1-1.078-3.02v-.266a5.073,5.073,0,0,1,.48-2.246,3.748,3.748,0,0,1,1.344-1.547,3.378,3.378,0,0,1,1.871-.559A3.166,3.166,0,0,1,139,7.477a4.7,4.7,0,0,1,.914,3.109v.6h-5.727a3,3,0,0,0,.73,2.02,2.3,2.3,0,0,0,1.777.77,2.517,2.517,0,0,0,1.3-.312,3.258,3.258,0,0,0,.93-.828l.883.688A3.55,3.55,0,0,1,136.617,15.156Zm-.18-7.578a1.928,1.928,0,0,0-1.469.637A3.1,3.1,0,0,0,134.234,10h4.234V9.891a2.753,2.753,0,0,0-.594-1.707A1.815,1.815,0,0,0,136.438,7.578ZM147.117,15h-1.445V3h1.445Zm7.531,0a3.036,3.036,0,0,1-.2-.891,3.225,3.225,0,0,1-2.406,1.047,2.984,2.984,0,0,1-2.051-.707,2.287,2.287,0,0,1-.8-1.793,2.39,2.39,0,0,1,1-2.051,4.733,4.733,0,0,1,2.824-.73h1.406V9.211A1.623,1.623,0,0,0,153.969,8a1.821,1.821,0,0,0-1.336-.449,2.107,2.107,0,0,0-1.3.391,1.151,1.151,0,0,0-.523.945h-1.453a2,2,0,0,1,.449-1.223,3.066,3.066,0,0,1,1.219-.934,4.1,4.1,0,0,1,1.691-.344,3.342,3.342,0,0,1,2.289.73,2.635,2.635,0,0,1,.859,2.012v3.891a4.757,4.757,0,0,0,.3,1.852V15Zm-2.4-1.1a2.54,2.54,0,0,0,1.289-.352,2.127,2.127,0,0,0,.883-.914V10.9h-1.133q-2.656,0-2.656,1.555a1.316,1.316,0,0,0,.453,1.063A1.742,1.742,0,0,0,152.25,13.9ZM2.664,39H1.219V30.547H2.664ZM1.1,28.3a.863.863,0,0,1,.215-.594.807.807,0,0,1,.637-.242.819.819,0,0,1,.641.242.854.854,0,0,1,.219.594.826.826,0,0,1-.219.586.834.834,0,0,1-.641.234.821.821,0,0,1-.637-.234A.834.834,0,0,1,1.1,28.3Zm5.242,2.242.047,1.063a3.08,3.08,0,0,1,2.531-1.219q2.68,0,2.7,3.023V39H10.18V33.406a1.946,1.946,0,0,0-.418-1.352,1.675,1.675,0,0,0-1.277-.437,2.086,2.086,0,0,0-1.234.375,2.546,2.546,0,0,0-.828.984V39H4.977V30.547ZM14.516,39V31.664H13.18V30.547h1.336V29.68a2.878,2.878,0,0,1,.727-2.1,2.745,2.745,0,0,1,2.055-.742,3.816,3.816,0,0,1,.992.132l-.078,1.165a4.151,4.151,0,0,0-.781-.07,1.41,1.41,0,0,0-1.086.411,1.669,1.669,0,0,0-.383,1.18v.893h1.8v1.117h-1.8V39Zm4.461-4.3a4.993,4.993,0,0,1,.488-2.234,3.643,3.643,0,0,1,1.359-1.531,3.7,3.7,0,0,1,1.988-.539,3.565,3.565,0,0,1,2.793,1.2,4.6,4.6,0,0,1,1.066,3.18v.1a5.036,5.036,0,0,1-.473,2.215,3.589,3.589,0,0,1-1.352,1.527,3.743,3.743,0,0,1-2.02.547,3.556,3.556,0,0,1-2.785-1.2A4.575,4.575,0,0,1,18.977,34.8Zm1.453.172a3.616,3.616,0,0,0,.652,2.258,2.211,2.211,0,0,0,3.5-.012,3.955,3.955,0,0,0,.648-2.418,3.61,3.61,0,0,0-.66-2.254,2.1,2.1,0,0,0-1.754-.863,2.075,2.075,0,0,0-1.727.852A3.925,3.925,0,0,0,20.43,34.867ZM32.57,31.844a4.331,4.331,0,0,0-.711-.055A1.9,1.9,0,0,0,29.93,33v6H28.484V30.547h1.406l.023.977a2.251,2.251,0,0,1,2.016-1.133,1.477,1.477,0,0,1,.641.109Zm2.688-1.3.039.938A3.122,3.122,0,0,1,37.8,30.391a2.417,2.417,0,0,1,2.414,1.359,3.2,3.2,0,0,1,1.1-.984,3.242,3.242,0,0,1,1.6-.375q2.781,0,2.828,2.945V39H44.3V33.422a1.941,1.941,0,0,0-.414-1.355,1.823,1.823,0,0,0-1.391-.449,1.916,1.916,0,0,0-1.336.48,1.949,1.949,0,0,0-.617,1.293V39H39.086V33.461a1.613,1.613,0,0,0-1.8-1.844,1.934,1.934,0,0,0-1.945,1.211V39H33.891V30.547ZM53.141,39a3.036,3.036,0,0,1-.2-.891,3.225,3.225,0,0,1-2.406,1.047,2.984,2.984,0,0,1-2.051-.707,2.287,2.287,0,0,1-.8-1.793,2.39,2.39,0,0,1,1-2.051,4.733,4.733,0,0,1,2.824-.73h1.406v-.664A1.623,1.623,0,0,0,52.461,32a1.821,1.821,0,0,0-1.336-.449,2.107,2.107,0,0,0-1.3.391,1.151,1.151,0,0,0-.523.945H47.852a2,2,0,0,1,.449-1.223,3.066,3.066,0,0,1,1.219-.934,4.1,4.1,0,0,1,1.691-.344,3.342,3.342,0,0,1,2.289.73,2.635,2.635,0,0,1,.859,2.012v3.891a4.757,4.757,0,0,0,.3,1.852V39Zm-2.4-1.1a2.54,2.54,0,0,0,1.289-.352,2.127,2.127,0,0,0,.883-.914V34.9H51.781q-2.656,0-2.656,1.555a1.316,1.316,0,0,0,.453,1.063A1.742,1.742,0,0,0,50.742,37.9Zm9.273.078a2.082,2.082,0,0,0,1.352-.469,1.649,1.649,0,0,0,.641-1.172h1.367a2.621,2.621,0,0,1-.5,1.383,3.293,3.293,0,0,1-1.23,1.047,3.55,3.55,0,0,1-1.629.391A3.482,3.482,0,0,1,57.27,38a4.59,4.59,0,0,1-1.02-3.152v-.242a5.089,5.089,0,0,1,.453-2.2A3.451,3.451,0,0,1,58,30.922a3.7,3.7,0,0,1,2-.531,3.39,3.39,0,0,1,2.363.852,3.043,3.043,0,0,1,1,2.211H62.008a1.992,1.992,0,0,0-.621-1.348,1.932,1.932,0,0,0-1.379-.527,2.023,2.023,0,0,0-1.707.793,3.724,3.724,0,0,0-.605,2.293v.273a3.65,3.65,0,0,0,.6,2.25A2.033,2.033,0,0,0,60.016,37.977ZM66.57,39H65.125V30.547H66.57ZM65.008,28.3a.863.863,0,0,1,.215-.594.807.807,0,0,1,.637-.242.819.819,0,0,1,.641.242.854.854,0,0,1,.219.594.826.826,0,0,1-.219.586.834.834,0,0,1-.641.234.821.821,0,0,1-.637-.234A.834.834,0,0,1,65.008,28.3ZM68.5,34.7a4.993,4.993,0,0,1,.488-2.234,3.643,3.643,0,0,1,1.359-1.531,3.7,3.7,0,0,1,1.988-.539,3.565,3.565,0,0,1,2.793,1.2,4.6,4.6,0,0,1,1.066,3.18v.1a5.036,5.036,0,0,1-.473,2.215,3.589,3.589,0,0,1-1.352,1.527,3.743,3.743,0,0,1-2.02.547,3.556,3.556,0,0,1-2.785-1.2A4.575,4.575,0,0,1,68.5,34.8Zm1.453.172a3.616,3.616,0,0,0,.652,2.258,2.211,2.211,0,0,0,3.5-.012A3.955,3.955,0,0,0,74.75,34.7a3.61,3.61,0,0,0-.66-2.254,2.1,2.1,0,0,0-1.754-.863,2.075,2.075,0,0,0-1.727.852A3.925,3.925,0,0,0,69.953,34.867Zm3.039-7.852h1.75l-2.094,2.3-1.164,0Zm6.383,3.531.047,1.063a3.08,3.08,0,0,1,2.531-1.219q2.68,0,2.7,3.023V39H83.211V33.406a1.946,1.946,0,0,0-.418-1.352,1.675,1.675,0,0,0-1.277-.437,2.086,2.086,0,0,0-1.234.375,2.546,2.546,0,0,0-.828.984V39H78.008V30.547Zm7.492,7.7a.905.905,0,0,1,.223-.625.848.848,0,0,1,.668-.25.874.874,0,0,1,.676.25.887.887,0,0,1,.23.625.839.839,0,0,1-.23.6.89.89,0,0,1-.676.242.8.8,0,0,1-.891-.844Z" transform="translate(705 2374)" fill="#12263f"/>
    <g id="Grupo_154891" data-name="Grupo 154891" transform="translate(607.812 2357.471)">
      <circle id="Elipse_5798" data-name="Elipse 5798" cx="38.5" cy="38.5" r="38.5" transform="translate(0.188 76.529) rotate(-90)" fill="#2194e5"/>
      <g id="Grupo_154886" data-name="Grupo 154886" transform="translate(17.273 16.635)">
        <g id="Grupo_154885" data-name="Grupo 154885" transform="translate(0 0)" clip-path="url(#clip-path)">
          <path id="Trazado_196836" data-name="Trazado 196836" d="M40.712,43.324H.942A1.633,1.633,0,0,1,0,41.619Q.024,21.572.011,1.525C.011.48.487.007,1.537.007Q12.26.006,22.983,0a1.874,1.874,0,0,1,1.425.6q4,4.02,8.016,8.015a1.87,1.87,0,0,1,.6,1.425c-.014,4.173-.008,8.346-.008,12.519v.476l.258-.139A5.452,5.452,0,0,1,41.39,26.9a29.11,29.11,0,0,1,.078,3.673.509.509,0,0,0,.276.5,2.792,2.792,0,0,1,1.414,2.451q.033,3.447,0,6.894a2.779,2.779,0,0,1-1.341,2.408,7.6,7.6,0,0,1-1.1.493M1.872,41.712H29.395V41.38c0-2.383-.005-4.766,0-7.15a2.965,2.965,0,0,1,1.4-2.619.718.718,0,0,0,.38-.7q-.014-9.97-.007-19.94v-.5h-.541q-3.4,0-6.8,0a1.371,1.371,0,0,1-1.547-1.56q0-3.42,0-6.839v-.46H1.872Zm34.287-.274q2.272,0,4.544,0c.676,0,.795-.119.795-.8q0-3.691,0-7.382c0-.664-.123-.795-.752-.795q-4.568,0-9.135,0c-.611,0-.746.135-.746.751q0,3.741,0,7.482c0,.611.137.745.752.746q2.271,0,4.543,0m3.754-10.823c0-1.188.015-2.335,0-3.48a3.455,3.455,0,0,0-3.144-3.394,3.327,3.327,0,0,0-3.653,2.8,33.2,33.2,0,0,0-.033,4.077ZM23.116,1.359c0,1.755.061,5.444.092,7.167a.955.955,0,0,0,.941.938l7.422.108s-6.137-5.895-8.455-8.213" transform="translate(0 0.001)" fill="#fff"/>
          <path id="Trazado_196837" data-name="Trazado 196837" d="M20.713,68.981q-2.978,0-5.957,0a.818.818,0,0,1-.8-1.154.807.807,0,0,1,.789-.485h2.377q4.768,0,9.536,0a.82.82,0,0,1,.824,1.142.832.832,0,0,1-.836.5q-2.705,0-5.41,0h-.519" transform="translate(-8.789 -42.661)" fill="#fff"/>
          <path id="Trazado_196838" data-name="Trazado 196838" d="M21.518,80.664q3.329,0,6.657,0a.914.914,0,0,1,.914,1.26.886.886,0,0,1-.862.57c-.6.007-1.2,0-1.8,0H15.005a1.887,1.887,0,0,1-.395-.023.914.914,0,0,1,.22-1.808q3.069-.006,6.137,0h.55" transform="translate(-8.793 -51.102)" fill="#fff"/>
          <path id="Trazado_196839" data-name="Trazado 196839" d="M19.987,94.25c1.7,0,3.406,0,5.109,0a.966.966,0,1,1-.042,1.928q-2.844,0-5.687,0c-1.489,0-2.978,0-4.467,0a.96.96,0,0,1-.925-1.37.978.978,0,0,1,.967-.56c1.682,0,3.363,0,5.045,0" transform="translate(-8.791 -59.708)" fill="#fff"/>
          <path id="Trazado_196840" data-name="Trazado 196840" d="M62.624,39.218c-.654,0-1.308,0-1.963,0a1.019,1.019,0,1,1,.013-2.032q1.946,0,3.892,0a1.021,1.021,0,1,1-.014,2.033c-.643,0-1.286,0-1.929,0" transform="translate(-37.74 -23.556)" fill="#fff"/>
          <path id="Trazado_196841" data-name="Trazado 196841" d="M62.619,50.318c-.654,0-1.308,0-1.963,0a1.018,1.018,0,1,1-.011-2.031q1.98-.007,3.959,0a1.016,1.016,0,1,1,.011,2.03c-.666.007-1.331,0-2,0" transform="translate(-37.74 -30.587)" fill="#fff"/>
          <path id="Trazado_196842" data-name="Trazado 196842" d="M95.189,97.548c0-.281-.01-.563,0-.843a1.265,1.265,0,0,1,2.529,0c.019.59.021,1.181,0,1.77a1.264,1.264,0,0,1-2.527,0c-.016-.308,0-.618,0-.927" transform="translate(-60.301 -60.479)" fill="#fff"/>
          <path id="Trazado_196843" data-name="Trazado 196843" d="M20.289,32.084h-6.8c-.626,0-.788-.158-.779-.8.011-.795-.012-1.594.064-2.384a3.121,3.121,0,0,1,1.886-2.636c.575-.273,1.2-.439,1.773-.714a3.989,3.989,0,0,0,1.115-.751c.3-.308.231-.478-.1-.759a4.107,4.107,0,0,1-1.621-3,17.863,17.863,0,0,1,.105-3.815,4.506,4.506,0,0,1,8.862.491,20.954,20.954,0,0,1-.01,3.465,4.089,4.089,0,0,1-1.692,2.921c-.208.162-.267.333-.126.509a2.868,2.868,0,0,0,.727.714,8.675,8.675,0,0,0,1.234.5c.269.106.542.2.807.317A3.416,3.416,0,0,1,27.9,29.441c.018.651.007,1.3,0,1.954,0,.505-.19.689-.706.689q-3.455,0-6.911,0m-6.444-1.11H26.808c0-.59.028-1.157-.006-1.72a2.313,2.313,0,0,0-1.571-2.14c-.313-.125-.629-.242-.947-.354-1.036-.366-2.05-.758-2.409-1.889a13.217,13.217,0,0,1-1.584.18,12.806,12.806,0,0,1-1.556-.187,2.806,2.806,0,0,1-1.892,1.71c-.56.219-1.134.408-1.683.652A2.053,2.053,0,0,0,13.856,29c-.053.644-.011,1.3-.011,1.972M23.81,19.426l-.045,0c0-.4.014-.8,0-1.194a3.471,3.471,0,0,0-3.045-3.37,3.348,3.348,0,0,0-3.748,2.668,13.833,13.833,0,0,0-.088,3.277,3.435,3.435,0,0,0,6.778.489,13.589,13.589,0,0,0,.151-1.868" transform="translate(-8.05 -8.717)" fill="#fff"/>
        </g>
      </g>
    </g>
  </g>
</svg>
