<svg xmlns="http://www.w3.org/2000/svg" width="224.212" height="169.446" viewBox="0 0 224.212 169.446">
  <g id="Grupo_63676" data-name="Grupo 63676" transform="translate(-24688.125 -4525.849)">
    <g id="freepik--Documents--inject-28" transform="translate(24688.125 4525.849)">
      <path id="Trazado_196584" data-name="Trazado 196584" d="M0,0H66.649V85.562H0Z" transform="translate(28.466 49.609)" fill="#2194e5"/>
      <path id="Trazado_119851" data-name="Trazado 119851" d="M15060.58,4378.351l-33.271.115-33.377.063h-.184v-.184l-.1-85.562v-.253h.283l66.648.069h.221v.213l-.1,42.815Zm0,0-.143-42.838-.07-42.723.213.219-66.648.063.283-.282-.1,85.562-.18-.184,33.279.069Z" transform="translate(-14965.441 -4243.174)" fill="#dbdbdb"/>
      <path id="Trazado_119852" data-name="Trazado 119852" d="M15377.7,4537.319l26.047-.069,26.046.069-26.046.063Z" transform="translate(-15341.973 -4469.419)" fill="#c7c7c7"/>
      <path id="Trazado_119853" data-name="Trazado 119853" d="M15377.7,4541l26.047-.063,26.046.063-26.046.069Z" transform="translate(-15341.973 -4470.983)" fill="#c7c7c7"/>
      <path id="Trazado_119854" data-name="Trazado 119854" d="M15377.7,4544.689l26.047-.069,26.046.069-26.046.063Z" transform="translate(-15341.973 -4472.543)" fill="#c7c7c7"/>
      <path id="Trazado_119855" data-name="Trazado 119855" d="M15377.7,4548.373l26.047-.063,26.046.063-26.046.063Z" transform="translate(-15341.973 -4474.106)" fill="#c7c7c7"/>
      <path id="Trazado_119856" data-name="Trazado 119856" d="M15377.7,4552.059l26.047-.069,26.046.069-26.046.063Z" transform="translate(-15341.973 -4475.666)" fill="#c7c7c7"/>
      <path id="Trazado_119857" data-name="Trazado 119857" d="M15377.7,4555.744l26.047-.063,26.046.063-26.046.063Z" transform="translate(-15341.973 -4477.229)" fill="#c7c7c7"/>
      <path id="Trazado_119858" data-name="Trazado 119858" d="M15377.7,4559.423l26.047-.063,26.046.063-26.046.069Z" transform="translate(-15341.973 -4478.789)" fill="#c7c7c7"/>
      <path id="Trazado_119859" data-name="Trazado 119859" d="M15377.7,4563.113l26.047-.063,26.046.063-26.046.063Z" transform="translate(-15341.973 -4480.353)" fill="#c7c7c7"/>
      <path id="Trazado_119860" data-name="Trazado 119860" d="M15377.7,4566.793l26.047-.063,26.046.063-26.046.069Z" transform="translate(-15341.973 -4481.912)" fill="#c7c7c7"/>
      <path id="Trazado_119861" data-name="Trazado 119861" d="M15377.7,4570.479l26.047-.069,26.046.069-26.046.064Z" transform="translate(-15341.973 -4483.471)" fill="#c7c7c7"/>
      <path id="Trazado_119862" data-name="Trazado 119862" d="M15377.7,4574.164l26.047-.063,26.046.063-26.046.069Z" transform="translate(-15341.973 -4485.035)" fill="#c7c7c7"/>
      <path id="Trazado_119863" data-name="Trazado 119863" d="M15377.7,4577.849l26.047-.069,26.046.069-26.046.063Z" transform="translate(-15341.973 -4486.594)" fill="#c7c7c7"/>
      <path id="Trazado_119864" data-name="Trazado 119864" d="M15377.7,4581.534l26.047-.063,26.046.063-26.046.069Z" transform="translate(-15341.973 -4488.158)" fill="#c7c7c7"/>
      <path id="Trazado_119865" data-name="Trazado 119865" d="M15377.7,4585.219l26.047-.069,26.046.069-26.046.063Z" transform="translate(-15341.973 -4489.717)" fill="#c7c7c7"/>
      <path id="Trazado_119866" data-name="Trazado 119866" d="M15377.7,4588.9l26.047-.063,26.046.063-26.046.069Z" transform="translate(-15341.973 -4491.281)" fill="#c7c7c7"/>
      <rect id="Rectángulo_10843" data-name="Rectángulo 10843" width="3.947" height="8.909" transform="translate(41.259 91.186)" fill="#d9a171"/>
      <rect id="Rectángulo_10844" data-name="Rectángulo 10844" width="3.947" height="13.663" transform="translate(48.578 86.432)" fill="#d9a171"/>
      <rect id="Rectángulo_10845" data-name="Rectángulo 10845" width="3.947" height="18.987" transform="translate(55.896 81.113)" fill="#aed3f2"/>
      <rect id="Rectángulo_10846" data-name="Rectángulo 10846" width="3.947" height="21.269" transform="translate(63.215 78.831)" fill="#aed3f2"/>
      <rect id="Rectángulo_10847" data-name="Rectángulo 10847" width="3.947" height="25.343" transform="translate(70.533 74.757)" fill="#aed3f2"/>
      <rect id="Rectángulo_10848" data-name="Rectángulo 10848" width="3.947" height="29.366" transform="translate(77.851 70.729)" fill="#aed3f2"/>
      <path id="Trazado_119867" data-name="Trazado 119867" d="M15009.022,4322.13l.1,8.425.069,8.419c.052,5.619.063,11.231.074,16.85l-.247-.248h12.677l12.678.028,12.678.081,12.678.144-12.678.144-12.678.081h-25.6v-.242q0-8.425.069-16.85l.074-8.419Z" transform="translate(-14971.854 -4255.717)" fill="#c7c7c7"/>
      <rect id="Rectángulo_10849" data-name="Rectángulo 10849" width="3.947" height="0.357" transform="translate(41.259 101.881)" fill="#c7c7c7"/>
      <rect id="Rectángulo_10850" data-name="Rectángulo 10850" width="3.947" height="0.357" transform="translate(48.578 101.881)" fill="#c7c7c7"/>
      <rect id="Rectángulo_10851" data-name="Rectángulo 10851" width="3.947" height="0.357" transform="translate(55.896 101.881)" fill="#c7c7c7"/>
      <rect id="Rectángulo_10852" data-name="Rectángulo 10852" width="3.947" height="0.357" transform="translate(63.215 101.881)" fill="#c7c7c7"/>
      <rect id="Rectángulo_10853" data-name="Rectángulo 10853" width="3.947" height="0.357" transform="translate(70.533 101.881)" fill="#c7c7c7"/>
      <rect id="Rectángulo_10854" data-name="Rectángulo 10854" width="3.947" height="0.357" transform="translate(77.851 101.881)" fill="#c7c7c7"/>
      <path id="Trazado_119868" data-name="Trazado 119868" d="M15017.1,4351.808a50.559,50.559,0,0,0,5.763-.432q2.88-.38,5.7-1.037a49.538,49.538,0,0,0,10.846-3.821,38.812,38.812,0,0,0,9.479-6.454l.536-.484.508-.513,1-1.032c.623-.732,1.291-1.429,1.855-2.207a39.3,39.3,0,0,0,3.239-4.789h0a34.672,34.672,0,0,1-11.358,13.041,39.169,39.169,0,0,1-5.024,2.951A49.09,49.09,0,0,1,15017.1,4351.808Z" transform="translate(-14975.38 -4259.493)" fill="#344154"/>
      <path id="Trazado_119869" data-name="Trazado 119869" d="M15454.533,4546.069l-.518.138-.691-2.7-2.65.87-.174-.536,3.227-1.055Z" transform="translate(-15372.821 -4471.767)" fill="#344154"/>
      <rect id="Rectángulo_10855" data-name="Rectángulo 10855" width="54.294" height="2.196" transform="translate(34.632 113.343)" fill="#dbdbdb"/>
      <rect id="Rectángulo_10856" data-name="Rectángulo 10856" width="30.57" height="2.196" transform="translate(34.632 118.892)" fill="#dbdbdb"/>
      <rect id="Rectángulo_10857" data-name="Rectángulo 10857" width="30.57" height="2.196" transform="translate(46.503 59.066)" fill="#dbdbdb"/>
      <path id="Trazado_119870" data-name="Trazado 119870" d="M15398.22,4631.222l-65.29,13.415-17.229-83.81,48.462-9.958,20.112,12.516Z" transform="translate(-15315.7 -4475.191)" fill="#3cafff"/>
      <path id="Trazado_119871" data-name="Trazado 119871" d="M15399.8,4550.87l20.113,12.516-16.828,3.452Z" transform="translate(-15351.337 -4475.191)" fill="#d9a171"/>
      <rect id="Rectángulo_10858" data-name="Rectángulo 10858" width="37.059" height="2.196" transform="translate(9.264 98.381) rotate(-11.61)" fill="#dbdbdb"/>
      <rect id="Rectángulo_10859" data-name="Rectángulo 10859" width="37.059" height="2.196" transform="translate(10.357 103.818) rotate(-11.61)" fill="#dbdbdb"/>
      <rect id="Rectángulo_10860" data-name="Rectángulo 10860" width="37.059" height="2.196" transform="translate(11.512 109.237) rotate(-11.61)" fill="#dbdbdb"/>
      <rect id="Rectángulo_10861" data-name="Rectángulo 10861" width="54.294" height="2.196" transform="translate(12.612 114.675) rotate(-11.61)" fill="#dbdbdb"/>
      <rect id="Rectángulo_10862" data-name="Rectángulo 10862" width="54.306" height="2.196" transform="matrix(0.98, -0.2, 0.2, 0.98, 13.748, 120.566)" fill="#dbdbdb"/>
      <rect id="Rectángulo_10863" data-name="Rectángulo 10863" width="54.294" height="2.196" transform="translate(14.856 125.531) rotate(-11.61)" fill="#dbdbdb"/>
      <rect id="Rectángulo_10864" data-name="Rectángulo 10864" width="54.294" height="2.196" transform="translate(15.95 130.974) rotate(-11.61)" fill="#dbdbdb"/>
      <rect id="Rectángulo_10865" data-name="Rectángulo 10865" width="54.294" height="2.196" transform="translate(17.106 136.393) rotate(-11.61)" fill="#dbdbdb"/>
      <rect id="Rectángulo_10866" data-name="Rectángulo 10866" width="54.294" height="2.196" transform="translate(18.2 141.83) rotate(-11.61)" fill="#dbdbdb"/>
      <rect id="Rectángulo_10867" data-name="Rectángulo 10867" width="54.294" height="2.196" transform="translate(19.294 147.267) rotate(-11.61)" fill="#dbdbdb"/>
      <rect id="Rectángulo_10868" data-name="Rectángulo 10868" width="54.294" height="2.196" transform="translate(20.449 152.692) rotate(-11.61)" fill="#dbdbdb"/>
      <rect id="Rectángulo_10869" data-name="Rectángulo 10869" width="54.294" height="2.196" transform="translate(21.544 158.129) rotate(-11.61)" fill="#dbdbdb"/>
      <path id="Trazado_119872" data-name="Trazado 119872" d="M15262.086,4302.158l-73.131,5.325c-8.326-31.659.576-63.318-5.9-94.978l73.121-5.325C15264.508,4238.811,15255.633,4270.464,15262.086,4302.158Z" transform="translate(-15045.704 -4207.007)" fill="#2194e5"/>
      <path id="Trazado_119873" data-name="Trazado 119873" d="M15261.832,4302.03l-73.084,5.521h-.174a.89.89,0,0,0-.047-.179c-8.373-31.653.514-63.312-6-94.972a1.262,1.262,0,0,0-.062-.282h.287l73.133-5.238h.2a.7.7,0,0,0,.057.2C15264.426,4238.671,15255.379,4270.336,15261.832,4302.03Zm0,0c-6.568-31.653,2.307-63.307-6.1-94.96l.254.184-73.127,5.411.225-.311c6.461,31.693-2.5,63.324,5.764,94.988l-.225-.167Z" transform="translate(-15045.451 -4206.88)" fill="#dbdbdb"/>
      <path id="Trazado_119874" data-name="Trazado 119874" d="M15198.4,4237.736l41.058-2.956q.138,1.21.242,2.438l-41.109,2.962C15198.515,4239.361,15198.458,4238.549,15198.4,4237.736Z" transform="translate(-15052.206 -4218.703)" fill="#dbdbdb"/>
      <path id="Trazado_119875" data-name="Trazado 119875" d="M15199.1,4248.422l41.184-2.962q.082,1.21.139,2.438l-41.225,2.962C15199.158,4250.047,15199.158,4249.229,15199.1,4248.422Z" transform="translate(-15052.502 -4223.229)" fill="#dbdbdb"/>
      <path id="Trazado_119876" data-name="Trazado 119876" d="M15199.4,4259.1l41.282-2.962c0,.813.04,1.625.058,2.438l-41.317,2.974A21.549,21.549,0,0,0,15199.4,4259.1Z" transform="translate(-15052.63 -4227.754)" fill="#dbdbdb"/>
      <path id="Trazado_119877" data-name="Trazado 119877" d="M15199.475,4268.813l60.581-4.333v2.438l-60.616,4.333Q15199.475,4270.012,15199.475,4268.813Z" transform="translate(-15052.646 -4231.288)" fill="#dbdbdb"/>
      <path id="Trazado_119878" data-name="Trazado 119878" d="M15199.262,4279.454l60.656-4.333-.035,2.438-60.672,4.339Z" transform="translate(-15052.55 -4235.797)" fill="#dbdbdb"/>
      <path id="Trazado_119879" data-name="Trazado 119879" d="M15199.049,4290.14l60.691-4.339c0,.813-.034,1.625-.058,2.438l-60.7,4.322C15198.992,4291.765,15198.992,4290.952,15199.049,4290.14Z" transform="translate(-15052.451 -4240.323)" fill="#dbdbdb"/>
      <path id="Trazado_119880" data-name="Trazado 119880" d="M15198.766,4300.83l60.686-4.31c0,.813-.035,1.631-.059,2.443l-60.674,4.333C15198.766,4302.461,15198.766,4301.648,15198.766,4300.83Z" transform="translate(-15052.34 -4244.865)" fill="#dbdbdb"/>
      <path id="Trazado_119881" data-name="Trazado 119881" d="M15198.7,4311.5l60.672-4.333c0,.813,0,1.625-.039,2.438l-60.623,4.333C15198.7,4313.14,15198.7,4312.316,15198.7,4311.5Z" transform="translate(-15052.334 -4249.378)" fill="#dbdbdb"/>
      <path id="Trazado_119882" data-name="Trazado 119882" d="M15198.7,4322.184l60.563-4.333v2.438l-60.506,4.339C15198.7,4323.814,15198.7,4323,15198.7,4322.184Z" transform="translate(-15052.334 -4253.904)" fill="#dbdbdb"/>
      <path id="Trazado_119883" data-name="Trazado 119883" d="M15199,4332.869l60.455-4.339c0,.813.033,1.625.063,2.443l-60.4,4.333Q15199,4334.091,15199,4332.869Z" transform="translate(-15052.46 -4258.429)" fill="#dbdbdb"/>
      <path id="Trazado_119884" data-name="Trazado 119884" d="M15199.6,4343.55l60.3-4.339c.041.818.092,1.631.145,2.443l-60.213,4.35C15199.715,4345.157,15199.658,4344.362,15199.6,4343.55Z" transform="translate(-15052.714 -4262.955)" fill="#dbdbdb"/>
      <path id="Trazado_119885" data-name="Trazado 119885" d="M15200.7,4354.233l60.108-4.333q.111,1.219.247,2.438l-60.021,4.339C15200.931,4355.864,15200.815,4355.046,15200.7,4354.233Z" transform="translate(-15053.181 -4267.485)" fill="#dbdbdb"/>
      <path id="Trazado_119886" data-name="Trazado 119886" d="M15247.2,4352.357q-37.825-6.414-74.791-12.81c3.221-31.285,19.016-62.546,18.2-93.808q37.825,6.414,74.791,12.827C15262.184,4289.829,15246.395,4321.107,15247.2,4352.357Z" transform="translate(-15041.192 -4223.347)" fill="#d9a171"/>
      <path id="Trazado_119887" data-name="Trazado 119887" d="M15247.2,4352.357q-37.825-6.414-74.791-12.81c3.221-31.285,19.016-62.546,18.2-93.808q37.825,6.414,74.791,12.827C15262.184,4289.829,15246.395,4321.107,15247.2,4352.357Z" transform="translate(-15041.192 -4223.347)" fill="#3cafff" opacity="0.8"/>
      <path id="Trazado_119888" data-name="Trazado 119888" d="M15214.467,4271.89q20.5,3.562,40.816,7.134c-.139.807-.283,1.608-.432,2.409q-20.268-3.561-40.7-7.134C15214.295,4273.5,15214.352,4272.7,15214.467,4271.89Z" transform="translate(-15058.88 -4234.428)" fill="#dbdbdb"/>
      <path id="Trazado_119889" data-name="Trazado 119889" d="M15212.891,4282.44q20.335,3.561,40.527,7.134c-.173.807-.346,1.608-.524,2.409q-20.168-3.562-40.424-7.134C15212.6,4284.048,15212.775,4283.247,15212.891,4282.44Z" transform="translate(-15058.168 -4238.898)" fill="#dbdbdb"/>
      <path id="Trazado_119890" data-name="Trazado 119890" d="M15210.836,4293l40.291,7.134c-.2.8-.386,1.608-.576,2.409q-20.054-3.579-40.211-7.134A22.519,22.519,0,0,0,15210.836,4293Z" transform="translate(-15057.265 -4243.374)" fill="#dbdbdb"/>
      <path id="Trazado_119891" data-name="Trazado 119891" d="M15208.576,4303.53q29.458,5.227,58.721,10.453c-.214.8-.433,1.6-.651,2.409q-29.262-5.221-58.645-10.447C15208.173,4305.144,15208.346,4304.342,15208.576,4303.53Z" transform="translate(-15056.274 -4247.835)" fill="#dbdbdb"/>
      <path id="Trazado_119892" data-name="Trazado 119892" d="M15205.842,4314.09l58.564,10.453c-.219.8-.438,1.6-.663,2.409l-58.523-10.454Z" transform="translate(-15055.096 -4252.31)" fill="#dbdbdb"/>
      <path id="Trazado_119893" data-name="Trazado 119893" d="M15203.021,4324.64l58.482,10.453c-.219.8-.443,1.6-.662,2.409l-58.473-10.454C15202.617,4326.248,15202.848,4325.424,15203.021,4324.64Z" transform="translate(-15053.887 -4256.781)" fill="#dbdbdb"/>
      <path id="Trazado_119894" data-name="Trazado 119894" d="M15200.209,4335.19l58.488,10.453c-.219.8-.432,1.6-.645,2.4q-29.291-5.221-58.514-10.447C15199.748,4336.809,15199.979,4335.991,15200.209,4335.19Z" transform="translate(-15052.688 -4261.251)" fill="#dbdbdb"/>
      <path id="Trazado_119895" data-name="Trazado 119895" d="M15197.329,4345.74l58.576,10.447c-.2.807-.4,1.608-.576,2.409q-29.389-5.221-58.639-10.447C15196.868,4347.348,15197.1,4346.541,15197.329,4345.74Z" transform="translate(-15051.481 -4265.722)" fill="#dbdbdb"/>
      <path id="Trazado_119896" data-name="Trazado 119896" d="M15194.533,4356.29q29.285,5.221,58.744,10.447c-.186.807-.363,1.608-.543,2.409q-29.525-5.221-58.834-10.447A18.346,18.346,0,0,1,15194.533,4356.29Z" transform="translate(-15050.299 -4270.192)" fill="#dbdbdb"/>
      <path id="Trazado_119897" data-name="Trazado 119897" d="M15191.768,4366.84q29.391,5.221,59,10.447c-.16.807-.311,1.608-.459,2.409q-29.719-5.221-59.123-10.447C15191.365,4368.442,15191.537,4367.641,15191.768,4366.84Z" transform="translate(-15049.147 -4274.663)" fill="#dbdbdb"/>
      <path id="Trazado_119898" data-name="Trazado 119898" d="M15189.318,4377.38q29.522,5.227,59.354,10.453c-.133.8-.254,1.608-.367,2.409q-29.968-5.221-59.5-10.471C15188.973,4378.988,15189.146,4378.187,15189.318,4377.38Z" transform="translate(-15048.138 -4279.129)" fill="#dbdbdb"/>
      <path id="Trazado_119899" data-name="Trazado 119899" d="M15187.188,4387.93q29.687,5.221,59.75,10.453c-.092.8-.172,1.608-.246,2.409q-30.2-5.238-59.932-10.453C15186.9,4389.538,15187.072,4388.737,15187.188,4387.93Z" transform="translate(-15047.272 -4283.6)" fill="#dbdbdb"/>
    </g>
    <g id="freepik--Folder--inject-28" transform="translate(24725.928 4532.432)">
      <rect id="Rectángulo_10870" data-name="Rectángulo 10870" width="129.247" height="93.687" transform="translate(11.295 62.592)" fill="#d9a171"/>
      <path id="Trazado_119900" data-name="Trazado 119900" d="M15441.6,4604.33h-45.7v9.7h48.289Z" transform="translate(-15384.605 -4551.442)" fill="#d9a171"/>
      <g id="Grupo_60383" data-name="Grupo 60383" transform="translate(11.295 52.888)" opacity="0.1">
        <rect id="Rectángulo_10871" data-name="Rectángulo 10871" width="129.247" height="93.687" transform="translate(0 9.704)" fill="#344154"/>
        <path id="Trazado_119901" data-name="Trazado 119901" d="M15441.6,4604.33h-45.7v9.7h48.289Z" transform="translate(-15395.9 -4604.33)" fill="#344154"/>
      </g>
      <path id="Trazado_119902" data-name="Trazado 119902" d="M15193.143,4431.637c-25.234-7.22-49.9-14.354-74.192-21.419,6.107-28.553,23.223-56.524,24.387-85.5,25.211,6.806,49.863,13.611,74.164,20.445C15211.294,4374.168,15194.18,4402.4,15193.143,4431.637Z" transform="translate(-15053.459 -4310.412)" fill="#aed3f2"/>
      <path id="Trazado_119903" data-name="Trazado 119903" d="M15192.986,4431.383c-25.234-7.163-49.921-14.25-74.227-21.258l-.179-.052.034-.161c6.085-28.559,23.165-56.542,24.271-85.527v-.265l.294.081c25.229,6.822,49.892,13.663,74.164,20.526l.2.058a.311.311,0,0,1-.041.184C15211.253,4373.966,15194.08,4402.2,15192.986,4431.383Zm0,0c.979-29.233,18.019-57.469,24.133-86.529.052.081.1.161.161.242-24.271-6.805-48.917-13.593-74.111-20.371l.306-.184c-1.228,28.968-18.371,56.928-24.508,85.469l-.139-.207Q15155.241,4420.475,15192.986,4431.383Z" transform="translate(-15053.303 -4310.158)" fill="#dbdbdb"/>
      <path id="Trazado_119909" data-name="Trazado 119909" d="M15166.683,4445.59q20.244,5.97,40.706,11.992c-.2.737-.4,1.475-.576,2.213q-20.555-6.034-40.833-12.009A18.011,18.011,0,0,1,15166.683,4445.59Z" transform="translate(-15073.388 -4361.631)" fill="#dbdbdb"/>
      <path id="Trazado_119910" data-name="Trazado 119910" d="M15163.621,4455.2q20.37,5.993,41.034,12.043c-.173.738-.34,1.481-.5,2.219q-20.745-6.068-41.185-12.067C15163.16,4456.664,15163.391,4455.932,15163.621,4455.2Z" transform="translate(-15072.112 -4365.703)" fill="#dbdbdb"/>
      <path id="Trazado_119911" data-name="Trazado 119911" d="M15160.88,4464.82q20.539,6.016,41.433,12.1c-.138.738-.271,1.481-.392,2.224q-21-6.1-41.61-12.13C15160.535,4466.29,15160.708,4465.552,15160.88,4464.82Z" transform="translate(-15070.985 -4369.779)" fill="#dbdbdb"/>
      <path id="Trazado_119912" data-name="Trazado 119912" d="M15149.689,4443.021l-4.908-1.44.742-2.19,4.9,1.446C15150.209,4441.563,15149.92,4442.294,15149.689,4443.021Z" transform="translate(-15064.405 -4359.004)" fill="#d9a171"/>
      <path id="Trazado_119913" data-name="Trazado 119913" d="M15146.664,4452.612l-4.943-1.452c.225-.727.455-1.458.686-2.19l4.932,1.452C15147.068,4451.148,15146.895,4451.869,15146.664,4452.612Z" transform="translate(-15063.108 -4363.063)" fill="#5e6178"/>
      <path id="Trazado_119914" data-name="Trazado 119914" d="M15143.951,4462.218l-4.963-1.458c.2-.731.4-1.458.605-2.189l4.969,1.452C15144.354,4460.749,15144.125,4461.48,15143.951,4462.218Z" transform="translate(-15061.95 -4367.131)" fill="#dbdbdb"/>
      <path id="Trazado_119915" data-name="Trazado 119915" d="M15517.222,4720.573h-129.253L15378,4634.66h129.253Z" transform="translate(-15377.021 -4564.294)" fill="#d9a171"/>
      <path id="Trazado_119916" data-name="Trazado 119916" d="M15421.939,4619.22H15376.3l.979,8.9h48.289Z" transform="translate(-15376.301 -4557.752)" fill="#d9a171"/>
      <path id="Trazado_119917" data-name="Trazado 119917" d="M15160.188,4304.5a8.344,8.344,0,0,1-.289-2.3,7.986,7.986,0,0,1,.289-2.3A9.325,9.325,0,0,1,15160.188,4304.5Z" transform="translate(-15070.811 -4299.891)" fill="#344154"/>
      <path id="Trazado_119918" data-name="Trazado 119918" d="M15150.609,4307.308a8.762,8.762,0,0,1-1.4-1.85,1.169,1.169,0,1,1,.5-.288,8.173,8.173,0,0,1,.9,2.138Z" transform="translate(-15065.9 -4301.344)" fill="#344154"/>
      <path id="Trazado_119919" data-name="Trazado 119919" d="M15143.469,4314.645a9.309,9.309,0,0,1-3.988-2.305,8.126,8.126,0,0,1,2.139.9A8.267,8.267,0,0,1,15143.469,4314.645Z" transform="translate(-15062.159 -4305.166)" fill="#344154"/>
      <path id="Trazado_119920" data-name="Trazado 119920" d="M15141.01,4324.32a9.452,9.452,0,0,1-4.609,0A9.452,9.452,0,0,1,15141.01,4324.32Z" transform="translate(-15060.854 -4310.122)" fill="#344154"/>
      <path id="Trazado_119921" data-name="Trazado 119921" d="M15143.769,4332.7a9.31,9.31,0,0,1-3.987,2.3A9.31,9.31,0,0,1,15143.769,4332.7Z" transform="translate(-15062.286 -4313.794)" fill="#344154"/>
      <path id="Trazado_119922" data-name="Trazado 119922" d="M15151.105,4338.53a9.212,9.212,0,0,1-2.307,3.982,8,8,0,0,1,.9-2.132A8.278,8.278,0,0,1,15151.105,4338.53Z" transform="translate(-15066.107 -4316.264)" fill="#344154"/>
      <path id="Trazado_119923" data-name="Trazado 119923" d="M15160.886,4340.6a9.3,9.3,0,0,1,0,4.61A9.3,9.3,0,0,1,15160.886,4340.6Z" transform="translate(-15071.106 -4317.142)" fill="#344154"/>
      <path id="Trazado_119924" data-name="Trazado 119924" d="M15169.2,4338.24a8.463,8.463,0,0,1,1.4,1.85,1.154,1.154,0,1,1-.5.288,8.273,8.273,0,0,1-.9-2.138Z" transform="translate(-15074.752 -4316.141)" fill="#344154"/>
      <path id="Trazado_119925" data-name="Trazado 119925" d="M15175.092,4332.14a4.581,4.581,0,1,1-.01,0Z" transform="translate(-15077.246 -4313.556)" fill="#344154"/>
      <path id="Trazado_119926" data-name="Trazado 119926" d="M15177.1,4323.707a8.413,8.413,0,0,1,2.307-.288,7.993,7.993,0,0,1,2.3.288,8.385,8.385,0,0,1-2.3.288A8.858,8.858,0,0,1,15177.1,4323.707Z" transform="translate(-15078.1 -4309.86)" fill="#344154"/>
      <path id="Trazado_119927" data-name="Trazado 119927" d="M15174.7,4314.095a8.113,8.113,0,0,1,1.85-1.4,7.967,7.967,0,0,1,2.138-.9,8.483,8.483,0,0,1-1.851,1.4A8.744,8.744,0,0,1,15174.7,4314.095Z" transform="translate(-15077.083 -4304.933)" fill="#344154"/>
      <path id="Trazado_119928" data-name="Trazado 119928" d="M15168.6,4306.987a8.112,8.112,0,0,1,.9-2.138,7.851,7.851,0,0,1,1.4-1.85,8.336,8.336,0,0,1-.9,2.138A8.757,8.757,0,0,1,15168.6,4306.987Z" transform="translate(-15074.498 -4301.208)" fill="#344154"/>
    </g>
    <g id="freepik--Note--inject-28" transform="translate(24817.666 4612.323)">
      <path id="Trazado_119929" data-name="Trazado 119929" d="M15164.5,4468.126h29.613a15.859,15.859,0,0,0,1.469-5.9v-23.7h-29.613v24.03A17.465,17.465,0,0,1,15164.5,4468.126Z" transform="translate(-15164.5 -4438.53)" fill="#12263f"/>
      <path id="Trazado_119930" data-name="Trazado 119930" d="M15173.3,4450.377c3.459-.288,6.967-.352,10.449-.369s6.965.081,10.447.369c-3.459.283-6.967.352-10.447.363S15176.814,4450.66,15173.3,4450.377Z" transform="translate(-15168.228 -4443.394)" fill="#ffbf9d"/>
      <path id="Trazado_119931" data-name="Trazado 119931" d="M15173.3,4457.147c3.137-.283,6.266-.352,9.4-.369s6.266.081,9.395.369c-3.129.288-6.266.352-9.395.369S15176.469,4457.436,15173.3,4457.147Z" transform="translate(-15168.228 -4446.262)" fill="#ffbf9d"/>
      <path id="Trazado_119932" data-name="Trazado 119932" d="M15173.3,4463.928c2.738-.288,5.48-.352,8.219-.369a79.963,79.963,0,0,1,8.221.369c-2.742.282-5.479.352-8.221.363a76.812,76.812,0,0,1-8.217-.363Z" transform="translate(-15168.228 -4449.135)" fill="#ffbf9d"/>
      <path id="Trazado_119933" data-name="Trazado 119933" d="M15173.3,4470.727c3.459-.282,6.967-.351,10.449-.369s6.965.081,10.447.369c-3.459.289-6.967.352-10.447.369S15176.814,4471,15173.3,4470.727Z" transform="translate(-15168.228 -4452.017)" fill="#ffbf9d"/>
    </g>
  </g>
</svg>
