<svg xmlns="http://www.w3.org/2000/svg" xmlns:xlink="http://www.w3.org/1999/xlink" width="120.286" height="119.564" viewBox="0 0 120.286 119.564">
  <defs>
    <clipPath id="clip-path">
      <rect id="Rectángulo_46427" data-name="Rectángulo 46427" width="103.769" height="119.564" fill="#2194e5"/>
    </clipPath>
  </defs>
  <g id="Grupo_154437" data-name="Grupo 154437" transform="translate(-12.303)">
    <g id="Grupo_152595" data-name="Grupo 152595" transform="translate(94.504 47.167)">
      <rect id="Rectángulo_45221" data-name="Rectángulo 45221" width="7.254" height="7.254" transform="translate(30.83 0)" fill="#7f4fc7"/>
      <rect id="Rectángulo_45222" data-name="Rectángulo 45222" width="7.254" height="7.254" transform="translate(15.415 0)" fill="#7f4fc7"/>
      <rect id="Rectángulo_45223" data-name="Rectángulo 45223" width="7.254" height="7.254" transform="translate(0 0)" fill="#7f4fc7"/>
      <rect id="Rectángulo_45232" data-name="Rectángulo 45232" width="7.254" height="7.254" transform="translate(30.83 15.415)" fill="#7f4fc7"/>
      <rect id="Rectángulo_45233" data-name="Rectángulo 45233" width="7.254" height="7.254" transform="translate(15.415 15.415)" fill="#7f4fc7"/>
      <rect id="Rectángulo_45234" data-name="Rectángulo 45234" width="7.254" height="7.254" transform="translate(0 15.415)" fill="#7f4fc7"/>
      <rect id="Rectángulo_45243" data-name="Rectángulo 45243" width="7.254" height="7.254" transform="translate(30.83 30.831)" fill="#7f4fc7"/>
      <rect id="Rectángulo_45244" data-name="Rectángulo 45244" width="7.254" height="7.254" transform="translate(15.415 30.831)" fill="#7f4fc7"/>
      <rect id="Rectángulo_45245" data-name="Rectángulo 45245" width="7.254" height="7.254" transform="translate(0 30.831)" fill="#7f4fc7"/>
    </g>
    <g id="Grupo_154840" data-name="Grupo 154840" transform="translate(12.303)">
      <g id="Grupo_154840-2" data-name="Grupo 154840" clip-path="url(#clip-path)">
        <path id="Trazado_196782" data-name="Trazado 196782" d="M40.477,0c2.516.454,5.077.739,7.54,1.391a36.969,36.969,0,0,1,21.707,15.53C74.876,24.52,76.578,33,76.1,42.1c-.635,12.028-5.263,22.4-12.35,31.908-3.389,4.548-6.607,9.234-9.7,13.985a44.181,44.181,0,0,0-4.95,11.784A36.028,36.028,0,0,1,43.276,111.9c-3.8,4.894-8.926,7.241-15.011,7.606a26.043,26.043,0,0,1-17.364-4.93,2.815,2.815,0,0,1-1.115-1.75c-.126-1.443,1.47-2.041,2.888-1.248a40.364,40.364,0,0,0,5.971,3.109c5.545,1.97,11.155,2.078,16.561-.531,4.258-2.056,6.8-5.759,8.526-9.98,1.368-3.337,2.352-6.828,3.6-10.217a63.522,63.522,0,0,1,8.249-14.834c3.43-4.813,6.97-9.56,10.145-14.537A45.582,45.582,0,0,0,72.5,43.008,40.386,40.386,0,0,0,71.35,28.671,33.986,33.986,0,0,0,56.916,9.118a33.4,33.4,0,0,0-22.338-5.4A33.581,33.581,0,0,0,13.09,14.334c-6.548,6.916-9.544,15.225-9.527,24.71q.048,26.737-.008,53.475a23.843,23.843,0,0,0,3.52,13.094c.757,1.205.614,2.174-.305,2.763-.94.6-1.917.249-2.7-.989A24.6,24.6,0,0,1,.1,94.156C.053,75.4-.117,56.636.136,37.88.335,23.2,7.187,12.116,19.847,4.731A34.848,34.848,0,0,1,34.9.178a7.53,7.53,0,0,0,.9-.178Z" transform="translate(0)" fill="#2194e5"/>
        <path id="Trazado_196783" data-name="Trazado 196783" d="M21.276,26.749a24.917,24.917,0,0,1,11.937,1.77C43.2,32.6,47.919,41.89,45.288,52.365c-.273,1.09-.607,2.169-.968,3.234-.425,1.246-1.246,1.734-2.276,1.428A1.77,1.77,0,0,1,41,54.551a25.439,25.439,0,0,0,1.417-8.343A14.435,14.435,0,0,0,36.15,34.17,20,20,0,0,0,22.678,30.21a16.79,16.79,0,0,0-3.083.582,3.442,3.442,0,0,0-2.481,2.189,26.022,26.022,0,0,0-1.795,8.389c-.078,1.331-.75,2-1.823,1.949s-1.706-.9-1.655-2.241a25.39,25.39,0,0,1,48.939-8.911c.407,1.048.736,2.129,1.04,3.212A1.735,1.735,0,0,1,60.7,37.71a1.676,1.676,0,0,1-2.2-1.344,23.547,23.547,0,0,0-4.694-9.025c-8-9.574-23.279-10.175-31.974-1.236-.128.131-.24.276-.556.643" transform="translate(-0.719 -0.986)" fill="#2194e5"/>
        <path id="Trazado_196784" data-name="Trazado 196784" d="M29.5,94.907a12.327,12.327,0,0,1-11.013-7.534c-2.424-5.276-1.852-10.32,2-14.774,1.784-2.06,2.806-4.214,1.819-6.915a5.82,5.82,0,0,0-4.892-3.967c-.116-.018-.233-.023-.348-.039-1.608-.226-2.314-.874-2.185-2s.939-1.612,2.572-1.455a9.1,9.1,0,0,1,7.954,5.8A8.892,8.892,0,0,1,24,73.759c-1.982,2.328-3.474,4.75-3.4,7.924a9.941,9.941,0,0,0,6.112,9.024A9.618,9.618,0,0,0,37.685,88.2a18.311,18.311,0,0,0,2.573-3.445c3.416-6.347,7.518-12.253,11.516-18.23A41.45,41.45,0,0,0,57.8,53.975c.611-2.357.9-4.8,1.323-7.2.061-.344.051-.7.113-1.043.232-1.276.962-1.889,2.04-1.734.992.143,1.485.9,1.413,2.182a40.832,40.832,0,0,1-5.625,18.439c-.9,1.544-1.89,3.034-2.839,4.548Q48.833,77.75,43.444,86.337a22.091,22.091,0,0,1-5.025,5.927c-2.355,1.831-4.866,2.707-8.914,2.644" transform="translate(-0.904 -2.672)" fill="#2194e5"/>
        <path id="Trazado_196785" data-name="Trazado 196785" d="M81.365,68.575A32.5,32.5,0,0,1,90.6,45.811c.918-.964,1.983-1.1,2.758-.363a1.778,1.778,0,0,1-.156,2.689,28.338,28.338,0,0,0-6.8,11.155c-3.228,10.46-1.376,19.953,5.631,28.4.4.479.853.908,1.25,1.387a1.762,1.762,0,1,1-2.59,2.345,32.443,32.443,0,0,1-9.323-22.852" transform="translate(-4.944 -2.733)" fill="#2194e5"/>
        <path id="Trazado_196786" data-name="Trazado 196786" d="M92.521,69.038a21.867,21.867,0,0,1,6.054-15.216c1-1.07,2.021-1.253,2.836-.518.8.719.706,1.8-.254,2.869C95.984,61.94,94.75,68.5,97.267,75.779a17.749,17.749,0,0,0,3.811,6.089,2.462,2.462,0,0,1,.8,1.468,2.549,2.549,0,0,1-.9,1.689,1.57,1.57,0,0,1-2.1-.413,22.294,22.294,0,0,1-4.767-7.266,21.5,21.5,0,0,1-1.588-8.308" transform="translate(-5.622 -3.212)" fill="#2194e5"/>
        <path id="Trazado_196787" data-name="Trazado 196787" d="M103.679,69.58a11.652,11.652,0,0,1,3.163-8.081,1.758,1.758,0,0,1,2.575-.373,1.682,1.682,0,0,1,.1,2.581,8.5,8.5,0,0,0-2.271,6.853,7.948,7.948,0,0,0,1.822,4.211c1.176,1.419,1.281,2.375.38,3.145-.941.8-1.868.507-3.1-.963a11.315,11.315,0,0,1-2.669-7.372" transform="translate(-6.3 -3.69)" fill="#2194e5"/>
      </g>
    </g>
  </g>
</svg>
