<svg xmlns="http://www.w3.org/2000/svg" xmlns:xlink="http://www.w3.org/1999/xlink" width="127.321" height="127.332" viewBox="0 0 127.321 127.332">
  <defs>
    <clipPath id="clip-path">
      <rect id="Rectángulo_46426" data-name="Rectángulo 46426" width="127.321" height="127.332" fill="#2194e5"/>
    </clipPath>
  </defs>
  <g id="Grupo_154436" data-name="Grupo 154436" transform="translate(-8.733)">
    <g id="Grupo_152595" data-name="Grupo 152595" transform="translate(94.504 47.167)">
      <rect id="Rectángulo_45221" data-name="Rectángulo 45221" width="7.254" height="7.254" transform="translate(30.83 0)" fill="#7f4fc7"/>
      <rect id="Rectángulo_45222" data-name="Rectángulo 45222" width="7.254" height="7.254" transform="translate(15.415 0)" fill="#7f4fc7"/>
      <rect id="Rectángulo_45223" data-name="Rectángulo 45223" width="7.254" height="7.254" transform="translate(0 0)" fill="#7f4fc7"/>
      <rect id="Rectángulo_45232" data-name="Rectángulo 45232" width="7.254" height="7.254" transform="translate(30.83 15.415)" fill="#7f4fc7"/>
      <rect id="Rectángulo_45233" data-name="Rectángulo 45233" width="7.254" height="7.254" transform="translate(15.415 15.415)" fill="#7f4fc7"/>
      <rect id="Rectángulo_45234" data-name="Rectángulo 45234" width="7.254" height="7.254" transform="translate(0 15.415)" fill="#7f4fc7"/>
      <rect id="Rectángulo_45243" data-name="Rectángulo 45243" width="7.254" height="7.254" transform="translate(30.83 30.831)" fill="#7f4fc7"/>
      <rect id="Rectángulo_45244" data-name="Rectángulo 45244" width="7.254" height="7.254" transform="translate(15.415 30.831)" fill="#7f4fc7"/>
      <rect id="Rectángulo_45245" data-name="Rectángulo 45245" width="7.254" height="7.254" transform="translate(0 30.831)" fill="#7f4fc7"/>
    </g>
    <g id="Grupo_154839" data-name="Grupo 154839" transform="translate(8.733)">
      <g id="Grupo_154839-2" data-name="Grupo 154839" clip-path="url(#clip-path)">
        <path id="Trazado_196774" data-name="Trazado 196774" d="M0,66.182c.875-2.385,1.416-4.968,2.692-7.116a16.012,16.012,0,0,1,13.925-8.222c8.531-.215,17.072-.078,25.608-.067a2.534,2.534,0,0,1,2.758,2.435c.029,1.479-1.138,2.519-2.926,2.521q-11.873.019-23.744.006c-8.023,0-13.338,5.289-13.339,13.275q0,18.337,0,36.673c0,7.849,5.337,13.2,13.161,13.2,4.931,0,9.863.016,14.793-.011a3.606,3.606,0,0,1,2.884,1.351c1.842,2,3.866,3.835,5.963,5.882,0-1.449-.01-2.791,0-4.131.02-2.179.927-3.086,3.131-3.087q12.742-.011,25.485,0c7.765,0,13.142-5.357,13.149-13.091q.006-7.77.005-15.539a6.852,6.852,0,0,1,.107-1.48,2.422,2.422,0,0,1,4.739-.041,5.251,5.251,0,0,1,.117,1.23c.007,5.47.042,10.94-.005,16.41a17.283,17.283,0,0,1-13.751,17.053,20.33,20.33,0,0,1-4.313.414c-7.831.038-15.661.019-23.7.019v3.33c0,1.409-.068,2.822.017,4.226A3.242,3.242,0,0,1,45,134.806H43.511c-.829-.733-1.693-1.43-2.479-2.206-2.68-2.643-5.309-5.338-8.018-7.95a2.9,2.9,0,0,0-1.8-.75c-4.839-.067-9.684.1-14.515-.093a16.278,16.278,0,0,1-14.012-8.252C1.41,113.411.872,110.832,0,108.451V66.182" transform="translate(0 -7.474)" fill="#2194e5"/>
        <path id="Trazado_196775" data-name="Trazado 196775" d="M96.184.06c5.507-.171,10.61.244,15.49,2.1,11.952,4.541,19.869,12.936,22.894,25.359,3.334,13.689-.462,25.532-10.654,35.252a4.439,4.439,0,0,0-1.652,3.684c.12,3.85.025,7.706.048,11.559.007,1.247-.24,2.334-1.491,2.879-1.3.569-2.308-.006-3.22-.921-2.659-2.673-5.346-5.319-7.989-8.007a1.857,1.857,0,0,0-1.924-.616c-8.069,1.472-16.163,1.672-24.132-.459A34.678,34.678,0,0,1,63.082,55.894a34.814,34.814,0,0,1-5.719-23.043A35.252,35.252,0,0,1,70.971,7.823C78.431,1.863,87.078-.408,96.184.06m21.145,72.635c0-2.961.106-5.565-.035-8.156a4.723,4.723,0,0,1,2.024-4.346A28.662,28.662,0,0,0,128.944,46.6c3.255-9.681,2.248-18.983-3.393-27.554a29.956,29.956,0,0,0-20.93-13.562,51.736,51.736,0,0,0-15.106-.144,31.325,31.325,0,0,0-9.021,2.526C70.4,12.554,64.211,20.5,62.576,31.545,60.841,43.262,64.86,52.987,73.949,60.509a29.164,29.164,0,0,0,17.918,6.73c5.465.205,10.941.454,16.276-1.12a3.326,3.326,0,0,1,3.683,1.025c1.712,1.8,3.491,3.528,5.5,5.551" transform="translate(-8.427 0)" fill="#2194e5"/>
        <path id="Trazado_196776" data-name="Trazado 196776" d="M44.593,90.433q12.554,0,25.11,0a8.588,8.588,0,0,1,1.241.043,2.453,2.453,0,0,1,0,4.884A8.584,8.584,0,0,1,69.7,95.4q-25.234,0-50.467,0h-.249c-2.016-.011-3.214-.939-3.214-2.487s1.2-2.483,3.216-2.484q12.8-.005,25.607,0" transform="translate(-2.324 -13.326)" fill="#2194e5"/>
        <path id="Trazado_196777" data-name="Trazado 196777" d="M39.748,106.763q10.127,0,20.253.008a6.153,6.153,0,0,1,1.713.194,2.412,2.412,0,0,1-.029,4.58,6.155,6.155,0,0,1-1.714.184q-20.378.015-40.754.008h-.373c-1.9-.022-3.086-.986-3.074-2.5s1.19-2.467,3.1-2.468q10.436-.01,20.874,0" transform="translate(-2.324 -15.732)" fill="#2194e5"/>
        <path id="Trazado_196778" data-name="Trazado 196778" d="M36.428,74.1q8.639,0,17.278.006a5.992,5.992,0,0,1,1.474.141,2.379,2.379,0,0,1,1.814,2.38,2.34,2.34,0,0,1-1.773,2.286,5.481,5.481,0,0,1-1.473.154q-17.339.012-34.68,0A6.561,6.561,0,0,1,17.833,79a2.436,2.436,0,0,1-.042-4.808,6.873,6.873,0,0,1,1.359-.085q8.639-.008,17.278,0" transform="translate(-2.324 -10.919)" fill="#2194e5"/>
        <path id="Trazado_196779" data-name="Trazado 196779" d="M79.733,106.787a2.466,2.466,0,1,1-2.433,2.5,2.565,2.565,0,0,1,2.433-2.5" transform="translate(-11.39 -15.735)" fill="#2194e5"/>
        <path id="Trazado_196780" data-name="Trazado 196780" d="M99.787,43.8c0-.952-.025-1.906.005-2.858a4.554,4.554,0,0,1,3.239-4.377c.39-.138.788-.253,1.174-.4A5.52,5.52,0,0,0,107.7,30a5.592,5.592,0,0,0-5.583-4.541,5.491,5.491,0,0,0-5.333,4.792c-.324,2.376-1.249,3.366-2.944,3.151-1.546-.2-2.173-1.341-1.992-3.638a10.444,10.444,0,0,1,18.125-5.853A10.417,10.417,0,0,1,105.62,40.9a1.089,1.089,0,0,0-.886,1.23c.055,1.571.068,3.15-.006,4.72a2.479,2.479,0,1,1-4.945-.072c-.014-.373,0-.746,0-1.119q0-.932,0-1.864h.009" transform="translate(-13.53 -3.022)" fill="#2194e5"/>
        <path id="Trazado_196781" data-name="Trazado 196781" d="M106.095,62.635a2.5,2.5,0,0,1-2.413,2.493,2.433,2.433,0,0,1-2.507-2.378,2.477,2.477,0,0,1,2.392-2.516,2.538,2.538,0,0,1,2.528,2.4" transform="translate(-14.908 -8.876)" fill="#2194e5"/>
      </g>
    </g>
  </g>
</svg>
