<svg xmlns="http://www.w3.org/2000/svg" xmlns:xlink="http://www.w3.org/1999/xlink" width="398" height="91" viewBox="0 0 398 91">
  <defs>
    <clipPath id="clip-path">
      <rect id="Rect치ngulo_46451" data-name="Rect치ngulo 46451" width="48.1" height="48.112" fill="#fff"/>
    </clipPath>
  </defs>
  <g id="Grupo_155242" data-name="Grupo 155242" transform="translate(-1021 -2661)">
    <rect id="Rect치ngulo_46655" data-name="Rect치ngulo 46655" width="360" height="91" rx="14" transform="translate(1059 2661)" fill="#ede7f7"/>
    <path id="Trazado_197259" data-name="Trazado 197259" d="M9.688,11.391a4.185,4.185,0,0,1-1.332,2.785,4.365,4.365,0,0,1-2.98.98,4.008,4.008,0,0,1-3.23-1.445A5.815,5.815,0,0,1,.93,9.844V8.75A6.481,6.481,0,0,1,1.5,5.961,4.231,4.231,0,0,1,3.1,4.113a4.47,4.47,0,0,1,2.406-.645A4.11,4.11,0,0,1,8.414,4.48a4.235,4.235,0,0,1,1.273,2.8H8.18a3.268,3.268,0,0,0-.848-1.975A2.565,2.565,0,0,0,5.508,4.7,2.684,2.684,0,0,0,3.254,5.759a4.882,4.882,0,0,0-.816,3.026v1.1a5.018,5.018,0,0,0,.773,2.948A2.5,2.5,0,0,0,5.375,13.93a2.887,2.887,0,0,0,1.918-.566,3.143,3.143,0,0,0,.887-1.973Zm1.438-.7a4.993,4.993,0,0,1,.488-2.234A3.643,3.643,0,0,1,12.973,6.93a3.7,3.7,0,0,1,1.988-.539,3.565,3.565,0,0,1,2.793,1.2,4.6,4.6,0,0,1,1.066,3.18v.1a5.036,5.036,0,0,1-.473,2.215A3.589,3.589,0,0,1,17,14.609a3.743,3.743,0,0,1-2.02.547,3.556,3.556,0,0,1-2.785-1.2A4.575,4.575,0,0,1,11.125,10.8Zm1.453.172a3.616,3.616,0,0,0,.652,2.258,2.211,2.211,0,0,0,3.5-.012,3.955,3.955,0,0,0,.648-2.418,3.61,3.61,0,0,0-.66-2.254,2.1,2.1,0,0,0-1.754-.863,2.075,2.075,0,0,0-1.727.852A3.925,3.925,0,0,0,12.578,10.867ZM22,6.547l.047,1.063a3.08,3.08,0,0,1,2.531-1.219q2.68,0,2.7,3.023V15H25.836V9.406a1.946,1.946,0,0,0-.418-1.352,1.675,1.675,0,0,0-1.277-.437,2.086,2.086,0,0,0-1.234.375,2.546,2.546,0,0,0-.828.984V15H20.633V6.547ZM31.422,4.5V6.547H33V7.664H31.422v5.249a1.173,1.173,0,0,0,.211.763.888.888,0,0,0,.719.254,3.5,3.5,0,0,0,.688-.094V15a4.215,4.215,0,0,1-1.109.155,1.8,1.8,0,0,1-1.461-.586,2.517,2.517,0,0,1-.492-1.664V7.664H28.438V6.547h1.539V4.5Zm7.352,3.344a4.331,4.331,0,0,0-.711-.055A1.9,1.9,0,0,0,36.133,9v6H34.688V6.547h1.406l.023.977a2.251,2.251,0,0,1,2.016-1.133,1.477,1.477,0,0,1,.641.109Zm.789,2.852a4.993,4.993,0,0,1,.488-2.234A3.643,3.643,0,0,1,41.41,6.93,3.7,3.7,0,0,1,43.4,6.391a3.565,3.565,0,0,1,2.793,1.2,4.6,4.6,0,0,1,1.066,3.18v.1a5.036,5.036,0,0,1-.473,2.215,3.589,3.589,0,0,1-1.352,1.527,3.743,3.743,0,0,1-2.02.547,3.556,3.556,0,0,1-2.785-1.2A4.575,4.575,0,0,1,39.563,10.8Zm1.453.172a3.616,3.616,0,0,0,.652,2.258,2.211,2.211,0,0,0,3.5-.012,3.955,3.955,0,0,0,.648-2.418,3.61,3.61,0,0,0-.66-2.254A2.1,2.1,0,0,0,43.4,7.578a2.075,2.075,0,0,0-1.727.852A3.925,3.925,0,0,0,41.016,10.867ZM50.641,15H49.2V3h1.445Zm5.922-4.3a4.952,4.952,0,0,1,.922-3.129,3.137,3.137,0,0,1,4.766-.168V3H63.7V15H62.367l-.07-.906a2.943,2.943,0,0,1-2.414,1.063,2.887,2.887,0,0,1-2.395-1.2,5.008,5.008,0,0,1-.926-3.141Zm1.445.164a3.749,3.749,0,0,0,.594,2.25,1.92,1.92,0,0,0,1.641.813A2.108,2.108,0,0,0,62.25,12.7V8.813a2.125,2.125,0,0,0-1.992-1.2,1.929,1.929,0,0,0-1.656.82A4.128,4.128,0,0,0,58.008,10.867Zm11.438,4.289a3.693,3.693,0,0,1-2.8-1.129,4.19,4.19,0,0,1-1.078-3.02v-.266a5.073,5.073,0,0,1,.48-2.246,3.748,3.748,0,0,1,1.344-1.547,3.378,3.378,0,0,1,1.871-.559,3.166,3.166,0,0,1,2.563,1.086,4.7,4.7,0,0,1,.914,3.109v.6H67.016a3,3,0,0,0,.73,2.02,2.3,2.3,0,0,0,1.777.77,2.517,2.517,0,0,0,1.3-.312,3.259,3.259,0,0,0,.93-.828l.883.688A3.55,3.55,0,0,1,69.445,15.156Zm-.18-7.578a1.928,1.928,0,0,0-1.469.637A3.1,3.1,0,0,0,67.063,10H71.3V9.891A2.753,2.753,0,0,0,70.7,8.184,1.815,1.815,0,0,0,69.266,7.578Zm13.2.266a4.331,4.331,0,0,0-.711-.055A1.9,1.9,0,0,0,79.82,9v6H78.375V6.547h1.406l.023.977A2.251,2.251,0,0,1,81.82,6.391a1.477,1.477,0,0,1,.641.109ZM85.359,15H83.914V6.547h1.445ZM83.8,4.3a.863.863,0,0,1,.215-.594.807.807,0,0,1,.637-.242.819.819,0,0,1,.641.242.854.854,0,0,1,.219.594.826.826,0,0,1-.219.586.834.834,0,0,1-.641.234.821.821,0,0,1-.637-.234A.834.834,0,0,1,83.8,4.3ZM91.18,15.156a3.693,3.693,0,0,1-2.8-1.129,4.19,4.19,0,0,1-1.078-3.02v-.266a5.073,5.073,0,0,1,.48-2.246,3.748,3.748,0,0,1,1.344-1.547A3.378,3.378,0,0,1,91,6.391a3.166,3.166,0,0,1,2.563,1.086,4.7,4.7,0,0,1,.914,3.109v.6H88.75a3,3,0,0,0,.73,2.02,2.3,2.3,0,0,0,1.777.77,2.517,2.517,0,0,0,1.3-.312,3.259,3.259,0,0,0,.93-.828l.883.688A3.55,3.55,0,0,1,91.18,15.156ZM91,7.578a1.928,1.928,0,0,0-1.469.637A3.1,3.1,0,0,0,88.8,10h4.234V9.891a2.753,2.753,0,0,0-.594-1.707A1.815,1.815,0,0,0,91,7.578Zm10.07,5.18a1.064,1.064,0,0,0-.441-.91,4.249,4.249,0,0,0-1.539-.559,7.277,7.277,0,0,1-1.742-.562,2.479,2.479,0,0,1-.953-.781,1.869,1.869,0,0,1-.309-1.078,2.193,2.193,0,0,1,.879-1.758,3.432,3.432,0,0,1,2.246-.719,3.532,3.532,0,0,1,2.332.742,2.357,2.357,0,0,1,.895,1.9h-1.453a1.3,1.3,0,0,0-.5-1.023,1.888,1.888,0,0,0-1.27-.43,1.976,1.976,0,0,0-1.234.344,1.082,1.082,0,0,0-.445.9.877.877,0,0,0,.414.789,5.1,5.1,0,0,0,1.5.508,7.8,7.8,0,0,1,1.754.578,2.558,2.558,0,0,1,1,.809,1.988,1.988,0,0,1,.324,1.152,2.163,2.163,0,0,1-.906,1.816,3.8,3.8,0,0,1-2.352.684,4.257,4.257,0,0,1-1.8-.359,2.922,2.922,0,0,1-1.223-1A2.42,2.42,0,0,1,95.8,12.4h1.445a1.5,1.5,0,0,0,.582,1.152,2.258,2.258,0,0,0,1.434.426,2.331,2.331,0,0,0,1.316-.332A1.02,1.02,0,0,0,101.07,12.758Zm2.984-2.055a4.968,4.968,0,0,1,.914-3.145,3.151,3.151,0,0,1,4.836-.074l.07-.937h1.32V14.8a3.439,3.439,0,0,1-.973,2.586,3.589,3.589,0,0,1-2.613.945,4.348,4.348,0,0,1-1.789-.391,3.08,3.08,0,0,1-1.336-1.07l.75-.867a2.826,2.826,0,0,0,2.273,1.148,2.214,2.214,0,0,0,1.645-.594,2.269,2.269,0,0,0,.59-1.672v-.727a2.971,2.971,0,0,1-2.367,1,2.887,2.887,0,0,1-2.4-1.2A5.224,5.224,0,0,1,104.055,10.7Zm1.453.164a3.79,3.79,0,0,0,.586,2.246,1.9,1.9,0,0,0,1.641.816,2.117,2.117,0,0,0,2.008-1.242V8.828a2.142,2.142,0,0,0-1.992-1.211,1.921,1.921,0,0,0-1.648.82A4.128,4.128,0,0,0,105.508,10.867Zm7.484-.172a4.993,4.993,0,0,1,.488-2.234A3.643,3.643,0,0,1,114.84,6.93a3.7,3.7,0,0,1,1.988-.539,3.565,3.565,0,0,1,2.793,1.2,4.6,4.6,0,0,1,1.066,3.18v.1a5.036,5.036,0,0,1-.473,2.215,3.589,3.589,0,0,1-1.352,1.527,3.743,3.743,0,0,1-2.02.547,3.556,3.556,0,0,1-2.785-1.2,4.575,4.575,0,0,1-1.066-3.164Zm1.453.172a3.616,3.616,0,0,0,.652,2.258,2.211,2.211,0,0,0,3.5-.012,3.955,3.955,0,0,0,.648-2.418,3.61,3.61,0,0,0-.66-2.254,2.1,2.1,0,0,0-1.754-.863,2.075,2.075,0,0,0-1.727.852A3.925,3.925,0,0,0,114.445,10.867ZM128.3,15h-1.5V3.625h1.5ZM138.672,4.852h-3.656V15h-1.492V4.852h-3.648V3.625h8.8Zm-.211,9.391a.905.905,0,0,1,.223-.625.848.848,0,0,1,.668-.25.874.874,0,0,1,.676.25.887.887,0,0,1,.23.625.839.839,0,0,1-.23.6.89.89,0,0,1-.676.242.8.8,0,0,1-.891-.844Z" transform="translate(1125 2697)" fill="#12263f"/>
    <g id="Grupo_154893" data-name="Grupo 154893" transform="translate(1020.694 2668.471)">
      <circle id="Elipse_5809" data-name="Elipse 5809" cx="38.5" cy="38.5" r="38.5" transform="translate(0.306 76.529) rotate(-90)" fill="#2194e5"/>
      <g id="Grupo_154884" data-name="Grupo 154884" transform="translate(14.999 14.33)">
        <g id="Grupo_154883" data-name="Grupo 154883" clip-path="url(#clip-path)">
          <path id="Trazado_196827" data-name="Trazado 196827" d="M45,11.643H43.989a6.982,6.982,0,1,0-10.4,0H24.049V3.885a.777.777,0,0,0-.777-.777h-3.1a.777.777,0,0,0-.777.777v7.758h-.777V.782A.777.777,0,0,0,17.84.005h-3.1a.777.777,0,0,0-.777.777V11.643h-.777V6.212a.777.777,0,0,0-.777-.777H9.31a.777.777,0,0,0-.777.777v5.431H3.1a3.108,3.108,0,0,0-3.1,3.1V38.02a3.108,3.108,0,0,0,3.1,3.1H19.094l-1.036,3.1H15.516a.777.777,0,0,0-.777.777v1.554H6.982a.777.777,0,1,0,0,1.554H41.117a.777.777,0,0,0,0-1.554h-7.76V45a.777.777,0,0,0-.777-.777h-2.54l-1.036-3.1H45a3.108,3.108,0,0,0,3.1-3.1V14.746a3.108,3.108,0,0,0-3.1-3.1M39.565,1.613a5.438,5.438,0,0,1,4.6,4.6h-4.6Zm-.458,6.15H44.16a5.427,5.427,0,0,1-8.625,3.572Zm-5.751-.777a5.439,5.439,0,0,1,4.655-5.374V6.666L34.445,10.24a5.4,5.4,0,0,1-1.083-3.25ZM20.943,4.656H22.5V19.4H20.943Zm-2.331,8.534h.777V19.4h-.777Zm-3.1-11.632H17.07V19.4H15.516ZM13.185,13.194h.777V19.4h-.777Zm-3.1-6.206h1.554V19.4H10.081ZM31.808,46.555H16.292v-.777H31.808ZM19.7,44.224l1.036-3.1h6.634l1.036,3.1Zm26.848-6.206a1.554,1.554,0,0,1-1.554,1.554H3.1A1.554,1.554,0,0,1,1.55,38.018V36.464h45Zm0-3.1H1.554V14.746a1.554,1.554,0,0,1,1.554-1.554H8.539V19.4H7.762V14.746a.777.777,0,0,0-.777-.777H3.879a.777.777,0,0,0-.777.777v5.431a.777.777,0,0,0,.777.777H28.7a.777.777,0,0,0,.777-.777V14.746a.777.777,0,0,0-.777-.777H25.6a.777.777,0,0,0-.777.777V19.4h-.777V13.194H35.6a6.956,6.956,0,0,0,6.388,0H45a1.554,1.554,0,0,1,1.554,1.554ZM6.206,19.4H4.652V15.522H6.206Zm20.171-3.879h1.554V19.4H26.377Z" transform="translate(0 0)" fill="#fff"/>
          <path id="Trazado_196828" data-name="Trazado 196828" d="M14.939,114.041H10.285a.777.777,0,0,0,0,1.554H14.94a.777.777,0,0,0,0-1.554Z" transform="translate(-6.405 -76.797)" fill="#fff"/>
          <path id="Trazado_196829" data-name="Trazado 196829" d="M32.442,114.041h-.777a.777.777,0,0,0,0,1.554h.777a.777.777,0,0,0,0-1.554" transform="translate(-20.802 -76.797)" fill="#fff"/>
          <path id="Trazado_196830" data-name="Trazado 196830" d="M98.177,49.8a.779.779,0,0,0,.548-.227L101.6,46.7h6.661a.777.777,0,1,0,0-1.554h-6.982a.775.775,0,0,0-.548.227l-3.1,3.1a.777.777,0,0,0,.548,1.324Z" transform="translate(-65.592 -30.403)" fill="#fff"/>
          <path id="Trazado_196831" data-name="Trazado 196831" d="M49.05,74.368a2.33,2.33,0,0,0-2.012,1.161L38.916,70.79a2.331,2.331,0,0,0-4.568.058l-8.173,6.129a2.326,2.326,0,0,0-4.023.212l-8.078-3.367a2.331,2.331,0,1,0-.19,1.6l8.078,3.367a2.331,2.331,0,0,0,4.552-.128l8.172-6.129a2.325,2.325,0,0,0,3.962-.1l8.122,4.739a2.331,2.331,0,1,0,2.279-2.8Zm-36.462,0a.777.777,0,1,1-.777-.777.777.777,0,0,1,.777.777m11.637,4.651A.777.777,0,1,1,25,78.241.777.777,0,0,1,24.224,79.018Zm12.413-6.982a.777.777,0,1,1,.777-.777.777.777,0,0,1-.777.777m12.412,5.431a.777.777,0,1,1,.777-.777.777.777,0,0,1-.777.777h0Z" transform="translate(-6.381 -46.432)" fill="#fff"/>
          <path id="Trazado_196832" data-name="Trazado 196832" d="M98.857,99.787H93.428a.777.777,0,0,0,0,1.554h5.431a.777.777,0,0,0,0-1.554Z" transform="translate(-62.395 -67.198)" fill="#fff"/>
          <path id="Trazado_196833" data-name="Trazado 196833" d="M105.246,92.661h-2.331a.777.777,0,0,0,0,1.554h2.331a.777.777,0,0,0,0-1.554" transform="translate(-68.783 -62.399)" fill="#fff"/>
          <path id="Trazado_196834" data-name="Trazado 196834" d="M10.28,68.085h8.534a.777.777,0,1,0,0-1.554H10.28a.777.777,0,1,0,0,1.554" transform="translate(-6.399 -44.803)" fill="#fff"/>
          <path id="Trazado_196835" data-name="Trazado 196835" d="M43.536,68.085h.777a.777.777,0,1,0,0-1.554h-.777a.777.777,0,0,0,0,1.554" transform="translate(-28.795 -44.803)" fill="#fff"/>
        </g>
      </g>
    </g>
  </g>
</svg>
