<svg xmlns="http://www.w3.org/2000/svg" xmlns:xlink="http://www.w3.org/1999/xlink" width="398" height="91" viewBox="0 0 398 91">
  <defs>
    <clipPath id="clip-path">
      <rect id="Rect치ngulo_46449" data-name="Rect치ngulo 46449" width="47.855" height="47.969" fill="#fff"/>
    </clipPath>
  </defs>
  <g id="Grupo_155240" data-name="Grupo 155240" transform="translate(-1021 -2558)">
    <rect id="Rect치ngulo_46654" data-name="Rect치ngulo 46654" width="360" height="91" rx="14" transform="translate(1059 2558)" fill="#ede7f7"/>
    <path id="Trazado_197257" data-name="Trazado 197257" d="M5.492,10.4H2.82V15H1.313V3.625H5.078A4.457,4.457,0,0,1,8.035,4.5,3.148,3.148,0,0,1,9.07,7.047,3.062,3.062,0,0,1,8.5,8.9a3.428,3.428,0,0,1-1.6,1.18L9.57,14.906V15H7.961ZM2.82,9.172h2.3A2.6,2.6,0,0,0,6.9,8.593a1.959,1.959,0,0,0,.66-1.55,2.062,2.062,0,0,0-.629-1.62,2.663,2.663,0,0,0-1.816-.571H2.82Zm11.633,5.984a3.693,3.693,0,0,1-2.8-1.129,4.19,4.19,0,0,1-1.078-3.02v-.266a5.073,5.073,0,0,1,.48-2.246A3.748,3.748,0,0,1,12.4,6.949a3.378,3.378,0,0,1,1.871-.559,3.166,3.166,0,0,1,2.563,1.086,4.7,4.7,0,0,1,.914,3.109v.6H12.023a3,3,0,0,0,.73,2.02,2.3,2.3,0,0,0,1.777.77,2.517,2.517,0,0,0,1.3-.312,3.259,3.259,0,0,0,.93-.828l.883.688A3.55,3.55,0,0,1,14.453,15.156Zm-.18-7.578a1.928,1.928,0,0,0-1.469.637A3.1,3.1,0,0,0,12.07,10H16.3V9.891a2.753,2.753,0,0,0-.594-1.707A1.815,1.815,0,0,0,14.273,7.578Zm4.8,3.125a4.952,4.952,0,0,1,.922-3.129,3.137,3.137,0,0,1,4.766-.168V3H26.2V15H24.875l-.07-.906a2.943,2.943,0,0,1-2.414,1.063A2.887,2.887,0,0,1,20,13.953a5.008,5.008,0,0,1-.926-3.141Zm1.445.164a3.749,3.749,0,0,0,.594,2.25,1.92,1.92,0,0,0,1.641.813A2.108,2.108,0,0,0,24.758,12.7V8.813a2.125,2.125,0,0,0-1.992-1.2,1.929,1.929,0,0,0-1.656.82A4.128,4.128,0,0,0,20.516,10.867Zm13.148,3.3a3.07,3.07,0,0,1-2.477.992,2.628,2.628,0,0,1-2.059-.785,3.4,3.4,0,0,1-.715-2.324v-5.5h1.445v5.461q0,1.922,1.563,1.922a2.163,2.163,0,0,0,2.2-1.234V6.547H35.07V15H33.7Zm6.992-.187a2.082,2.082,0,0,0,1.352-.469,1.649,1.649,0,0,0,.641-1.172h1.367a2.621,2.621,0,0,1-.5,1.383,3.293,3.293,0,0,1-1.23,1.047,3.55,3.55,0,0,1-1.629.391A3.482,3.482,0,0,1,37.91,14a4.59,4.59,0,0,1-1.02-3.152v-.242a5.089,5.089,0,0,1,.453-2.2,3.451,3.451,0,0,1,1.3-1.492,3.7,3.7,0,0,1,2-.531,3.39,3.39,0,0,1,2.363.852,3.043,3.043,0,0,1,1,2.211H42.648a1.992,1.992,0,0,0-.621-1.348,1.932,1.932,0,0,0-1.379-.527,2.023,2.023,0,0,0-1.707.793,3.724,3.724,0,0,0-.605,2.293v.273a3.65,3.65,0,0,0,.6,2.25A2.033,2.033,0,0,0,40.656,13.977Zm8.375,0a2.082,2.082,0,0,0,1.352-.469,1.649,1.649,0,0,0,.641-1.172h1.367a2.621,2.621,0,0,1-.5,1.383,3.293,3.293,0,0,1-1.23,1.047,3.55,3.55,0,0,1-1.629.391A3.482,3.482,0,0,1,46.285,14a4.59,4.59,0,0,1-1.02-3.152v-.242a5.089,5.089,0,0,1,.453-2.2,3.451,3.451,0,0,1,1.3-1.492,3.7,3.7,0,0,1,2-.531,3.39,3.39,0,0,1,2.363.852,3.043,3.043,0,0,1,1,2.211H51.023A1.992,1.992,0,0,0,50.4,8.105a1.932,1.932,0,0,0-1.379-.527,2.023,2.023,0,0,0-1.707.793,3.724,3.724,0,0,0-.605,2.293v.273a3.65,3.65,0,0,0,.6,2.25A2.033,2.033,0,0,0,49.031,13.977ZM55.586,15H54.141V6.547h1.445ZM54.023,4.3a.863.863,0,0,1,.215-.594.807.807,0,0,1,.637-.242.819.819,0,0,1,.641.242.854.854,0,0,1,.219.594.826.826,0,0,1-.219.586.834.834,0,0,1-.641.234.821.821,0,0,1-.637-.234A.834.834,0,0,1,54.023,4.3ZM57.516,10.7A4.993,4.993,0,0,1,58,8.461,3.643,3.643,0,0,1,59.363,6.93a3.7,3.7,0,0,1,1.988-.539,3.565,3.565,0,0,1,2.793,1.2,4.6,4.6,0,0,1,1.066,3.18v.1a5.036,5.036,0,0,1-.473,2.215,3.589,3.589,0,0,1-1.352,1.527,3.743,3.743,0,0,1-2.02.547,3.556,3.556,0,0,1-2.785-1.2A4.575,4.575,0,0,1,57.516,10.8Zm1.453.172a3.616,3.616,0,0,0,.652,2.258,2.211,2.211,0,0,0,3.5-.012,3.955,3.955,0,0,0,.648-2.418,3.61,3.61,0,0,0-.66-2.254,2.1,2.1,0,0,0-1.754-.863,2.075,2.075,0,0,0-1.727.852A3.925,3.925,0,0,0,58.969,10.867Zm3.039-7.852h1.75l-2.094,2.3-1.164,0Zm6.383,3.531.047,1.063a3.08,3.08,0,0,1,2.531-1.219q2.68,0,2.7,3.023V15H72.227V9.406a1.946,1.946,0,0,0-.418-1.352,1.675,1.675,0,0,0-1.277-.437,2.086,2.086,0,0,0-1.234.375,2.546,2.546,0,0,0-.828.984V15H67.023V6.547ZM79.461,10.7a4.952,4.952,0,0,1,.922-3.129,3.137,3.137,0,0,1,4.766-.168V3h1.445V15H85.266l-.07-.906a2.943,2.943,0,0,1-2.414,1.063,2.887,2.887,0,0,1-2.395-1.2,5.008,5.008,0,0,1-.926-3.141Zm1.445.164a3.749,3.749,0,0,0,.594,2.25,1.92,1.92,0,0,0,1.641.813A2.108,2.108,0,0,0,85.148,12.7V8.813a2.125,2.125,0,0,0-1.992-1.2,1.929,1.929,0,0,0-1.656.82A4.128,4.128,0,0,0,80.906,10.867Zm11.438,4.289a3.693,3.693,0,0,1-2.8-1.129,4.19,4.19,0,0,1-1.078-3.02v-.266a5.073,5.073,0,0,1,.48-2.246,3.748,3.748,0,0,1,1.344-1.547,3.378,3.378,0,0,1,1.871-.559,3.166,3.166,0,0,1,2.563,1.086,4.7,4.7,0,0,1,.914,3.109v.6H89.914a3,3,0,0,0,.73,2.02,2.3,2.3,0,0,0,1.777.77,2.517,2.517,0,0,0,1.3-.312,3.259,3.259,0,0,0,.93-.828l.883.688A3.55,3.55,0,0,1,92.344,15.156Zm-.18-7.578a1.928,1.928,0,0,0-1.469.637A3.1,3.1,0,0,0,89.961,10H94.2V9.891A2.753,2.753,0,0,0,93.6,8.184,1.815,1.815,0,0,0,92.164,7.578Zm12.5,6.4a2.082,2.082,0,0,0,1.352-.469,1.649,1.649,0,0,0,.641-1.172h1.367a2.621,2.621,0,0,1-.5,1.383,3.293,3.293,0,0,1-1.23,1.047,3.55,3.55,0,0,1-1.629.391A3.482,3.482,0,0,1,101.918,14a4.59,4.59,0,0,1-1.02-3.152v-.242a5.089,5.089,0,0,1,.453-2.2,3.451,3.451,0,0,1,1.3-1.492,3.7,3.7,0,0,1,2-.531,3.39,3.39,0,0,1,2.363.852,3.043,3.043,0,0,1,1,2.211h-1.367a1.992,1.992,0,0,0-.621-1.348,1.932,1.932,0,0,0-1.379-.527,2.023,2.023,0,0,0-1.707.793,3.724,3.724,0,0,0-.605,2.293v.273a3.65,3.65,0,0,0,.6,2.25A2.033,2.033,0,0,0,104.664,13.977Zm4.6-3.281a4.993,4.993,0,0,1,.488-2.234,3.643,3.643,0,0,1,1.359-1.531,3.7,3.7,0,0,1,1.988-.539,3.565,3.565,0,0,1,2.793,1.2,4.6,4.6,0,0,1,1.066,3.18v.1a5.036,5.036,0,0,1-.473,2.215,3.589,3.589,0,0,1-1.352,1.527,3.743,3.743,0,0,1-2.02.547,3.556,3.556,0,0,1-2.785-1.2,4.575,4.575,0,0,1-1.066-3.164Zm1.453.172a3.616,3.616,0,0,0,.652,2.258,2.211,2.211,0,0,0,3.5-.012,3.955,3.955,0,0,0,.648-2.418,3.61,3.61,0,0,0-.66-2.254,2.1,2.1,0,0,0-1.754-.863,2.075,2.075,0,0,0-1.727.852A3.925,3.925,0,0,0,110.719,10.867ZM123.7,12.758a1.064,1.064,0,0,0-.441-.91,4.249,4.249,0,0,0-1.539-.559,7.277,7.277,0,0,1-1.742-.562,2.479,2.479,0,0,1-.953-.781,1.869,1.869,0,0,1-.309-1.078,2.193,2.193,0,0,1,.879-1.758,3.432,3.432,0,0,1,2.246-.719,3.532,3.532,0,0,1,2.332.742,2.357,2.357,0,0,1,.895,1.9h-1.453a1.3,1.3,0,0,0-.5-1.023,1.888,1.888,0,0,0-1.27-.43,1.976,1.976,0,0,0-1.234.344,1.082,1.082,0,0,0-.445.9.877.877,0,0,0,.414.789,5.1,5.1,0,0,0,1.5.508,7.8,7.8,0,0,1,1.754.578,2.558,2.558,0,0,1,1,.809,1.988,1.988,0,0,1,.324,1.152,2.163,2.163,0,0,1-.906,1.816,3.8,3.8,0,0,1-2.352.684,4.257,4.257,0,0,1-1.8-.359,2.922,2.922,0,0,1-1.223-1,2.42,2.42,0,0,1-.441-1.395h1.445a1.5,1.5,0,0,0,.582,1.152,2.258,2.258,0,0,0,1.434.426,2.331,2.331,0,0,0,1.316-.332A1.02,1.02,0,0,0,123.7,12.758ZM128.984,4.5V6.547h1.578V7.664h-1.578v5.249a1.173,1.173,0,0,0,.211.763.888.888,0,0,0,.719.254,3.5,3.5,0,0,0,.688-.094V15a4.215,4.215,0,0,1-1.109.155,1.8,1.8,0,0,1-1.461-.586,2.517,2.517,0,0,1-.492-1.664V7.664H126V6.547h1.539V4.5Zm2.727,6.2a4.993,4.993,0,0,1,.488-2.234,3.642,3.642,0,0,1,1.359-1.531,3.7,3.7,0,0,1,1.988-.539,3.565,3.565,0,0,1,2.793,1.2,4.6,4.6,0,0,1,1.066,3.18v.1a5.036,5.036,0,0,1-.473,2.215,3.589,3.589,0,0,1-1.352,1.527,3.743,3.743,0,0,1-2.02.547,3.556,3.556,0,0,1-2.785-1.2,4.575,4.575,0,0,1-1.066-3.164Zm1.453.172a3.616,3.616,0,0,0,.652,2.258,2.211,2.211,0,0,0,3.5-.012,3.954,3.954,0,0,0,.648-2.418,3.61,3.61,0,0,0-.66-2.254,2.1,2.1,0,0,0-1.754-.863,2.075,2.075,0,0,0-1.727.852A3.925,3.925,0,0,0,133.164,10.867Zm12.977,1.891a1.064,1.064,0,0,0-.441-.91,4.249,4.249,0,0,0-1.539-.559,7.277,7.277,0,0,1-1.742-.562,2.479,2.479,0,0,1-.953-.781,1.869,1.869,0,0,1-.309-1.078,2.193,2.193,0,0,1,.879-1.758,3.432,3.432,0,0,1,2.246-.719,3.532,3.532,0,0,1,2.332.742,2.357,2.357,0,0,1,.895,1.9h-1.453a1.3,1.3,0,0,0-.5-1.023,1.888,1.888,0,0,0-1.27-.43,1.976,1.976,0,0,0-1.234.344,1.082,1.082,0,0,0-.445.9.877.877,0,0,0,.414.789,5.1,5.1,0,0,0,1.5.508,7.8,7.8,0,0,1,1.754.578,2.558,2.558,0,0,1,1,.809,1.988,1.988,0,0,1,.324,1.152,2.163,2.163,0,0,1-.906,1.816,3.8,3.8,0,0,1-2.352.684,4.257,4.257,0,0,1-1.8-.359,2.922,2.922,0,0,1-1.223-1,2.42,2.42,0,0,1-.441-1.395h1.445a1.5,1.5,0,0,0,.582,1.152,2.258,2.258,0,0,0,1.434.426,2.331,2.331,0,0,0,1.316-.332A1.02,1.02,0,0,0,146.141,12.758Zm3.359,1.484a.905.905,0,0,1,.223-.625.848.848,0,0,1,.668-.25.874.874,0,0,1,.676.25.887.887,0,0,1,.23.625.839.839,0,0,1-.23.6.89.89,0,0,1-.676.242.8.8,0,0,1-.891-.844Z" transform="translate(1125 2594)" fill="#12263f"/>
    <g id="Grupo_154887" data-name="Grupo 154887" transform="translate(1020.776 2565.153)">
      <circle id="Elipse_5810" data-name="Elipse 5810" cx="38.5" cy="38.5" r="38.5" transform="translate(0.224 76.847) rotate(-90)" fill="#2194e5"/>
      <g id="Grupo_154880" data-name="Grupo 154880" transform="translate(14.826 14.374)">
        <g id="Grupo_154879" data-name="Grupo 154879" transform="translate(0 0)" clip-path="url(#clip-path)">
          <path id="Trazado_196820" data-name="Trazado 196820" d="M0,34.4A2.315,2.315,0,0,1,1.848,32.64,1.185,1.185,0,0,0,2.9,31.775a9.062,9.062,0,0,1,4.57-4.515,1.19,1.19,0,0,0,.663-.7c.4-.983.839-1.949,1.242-2.93a.485.485,0,0,1,.532-.357,4.457,4.457,0,0,1,4.225,2.614.747.747,0,0,0,.8.5q2.077-.046,4.154,0c.865.017,1.732.1,2.628.155.109-.547.2-1.145.353-1.732a13.063,13.063,0,0,1,2.2-4.58q2.392-3.246,4.77-6.5c.1-.14.2-.286.3-.438-1.432-.331-2.174-1.041-2.279-2.155S27.567,9.15,28.912,8.6c-.531-.319-1.014-.626-1.515-.9a.593.593,0,0,1-.354-.6,4.433,4.433,0,0,1,3.428-4.355c.138-.034.279-.064.456-.1-.189-.47.115-.717.416-.965l.075-.061c2.37-2.037,4.512-2.005,6.836.091.28.253.559.491.395.912.426.136.837.229,1.217.393A4.374,4.374,0,0,1,42.5,7.2a.647.647,0,0,1-.257.442c-.5.336-1.028.638-1.586.975A2.43,2.43,0,0,1,42.5,11.143a2.426,2.426,0,0,1-2.291,2.128c.109.159.2.3.3.428,1.618,2.207,3.249,4.4,4.852,6.621a13.091,13.091,0,0,1-16.234,19.5l-.417-.19c-.057.1-.117.193-.162.292a9.445,9.445,0,0,1-4.231,4.542.6.6,0,0,0-.365.638,4.6,4.6,0,0,1-.074,1.149,2.265,2.265,0,0,1-2.187,1.776c-.483.014-.966.005-1.449,0a2.331,2.331,0,0,1-2.461-2.106c-.01-.06-.021-.119-.035-.194H13.2a6.249,6.249,0,0,1-.29.954,2.232,2.232,0,0,1-2.022,1.34c-.562.025-1.128.02-1.691,0a2.232,2.232,0,0,1-2.219-2.245c0-.008,0-.017,0-.025A1.525,1.525,0,0,0,6,44.095a8.943,8.943,0,0,1-3.209-2.8.5.5,0,0,0-.33-.215A2.473,2.473,0,0,1,0,39.228ZM34.774,13.234c-1.014,0-2.029.014-3.043-.008a.722.722,0,0,0-.674.346q-2.771,3.806-5.56,7.6a11.748,11.748,0,0,0-2.175,5.251c-.067.43-.038.7.449.922a9.448,9.448,0,0,1,5.443,10.383.435.435,0,0,0,.279.549l.01,0a11.637,11.637,0,0,0,7.085,1.119,11.449,11.449,0,0,0,7.7-17.925c-1.894-2.681-3.87-5.306-5.823-7.945a.79.79,0,0,0-.547-.273c-1.047-.029-2.1-.015-3.141-.015ZM24.7,35.607a2.851,2.851,0,0,0,2.537-1.152,1.009,1.009,0,0,0,.165-1.062,8.271,8.271,0,0,0-7.5-5.456c-1.625-.043-3.252-.01-4.878-.018a3.494,3.494,0,0,1-1.554-.091c-.365-.206-.487-.833-.719-1.276a4.479,4.479,0,0,0-.243-.416,3,3,0,0,0-1.6-1.185.351.351,0,0,0-.518.237c-.356.879-.757,1.739-1.11,2.619a1.027,1.027,0,0,1-.645.638,7.757,7.757,0,0,0-4.627,4.631c-.4,1.017-.4,1.016-1.492,1.028-.713.007-.973.273-.976,1V37.86c0,1.633,0,1.64,1.632,1.647a.624.624,0,0,1,.564.328,8.424,8.424,0,0,0,1.433,1.732,29.764,29.764,0,0,0,2.992,1.914.54.54,0,0,1,.343.547c-.024.53-.015,1.063,0,1.593a.774.774,0,0,0,.7.842.786.786,0,0,0,.144,0c.45.012.9.009,1.352,0a.793.793,0,0,0,.892-.894c.008-.461,0-.924,0-1.391h7.723v1.33c.007.686.273.951.975.956.4,0,.8.005,1.208,0,.624-.01.9-.291.911-.928.005-.5.022-1-.006-1.5a.5.5,0,0,1,.374-.568,8.05,8.05,0,0,0,5.035-7.392A4.994,4.994,0,0,1,24.288,37.2c-.117,0-.257.144-.358.249-1.081,1.121-2.157,2.248-3.215,3.353l-1.158-1.1,2.5-2.455c-1.722-.873-2.285-1.858-1.83-3.145a2.337,2.337,0,0,1,2.613-1.508c1.331.288,1.974,1.317,1.856,3.019M35.713,8.577c.425-1.9.842-3.767,1.251-5.634A.449.449,0,0,0,36.9,2.6a2.772,2.772,0,0,0-3.389-.572c-.984.533-.989.534-.752,1.613.365,1.64.729,3.281,1.1,4.935Zm-.9,3.111h5.169c.617,0,.97-.273.982-.754s-.353-.79-.992-.79H29.437a.785.785,0,0,0-.835.731q0,.012,0,.023a.772.772,0,0,0,.751.792.8.8,0,0,0,.1,0c1.793.006,3.58,0,5.369,0ZM32.288,8.653l-1-4.46a2.868,2.868,0,0,0-2.581,2.04.434.434,0,0,0,.2.58l.017.008c.92.526,1.817,1.087,2.734,1.622a3.518,3.518,0,0,0,.623.21ZM38.28,4.17l-1,4.505a4.636,4.636,0,0,0,.657-.246c.887-.519,1.754-1.069,2.651-1.57a.482.482,0,0,0,.282-.621.47.47,0,0,0-.04-.082A2.907,2.907,0,0,0,38.28,4.17M23.05,35.637c.229-.7.173-1.126-.182-1.376a.71.71,0,0,0-.929.025.7.7,0,0,0-.218.9c.29.605.836.457,1.329.452Z" transform="translate(0 -0.068)" fill="#fff"/>
          <path id="Trazado_196821" data-name="Trazado 196821" d="M0,6.882C1.229,4.887,2.423,2.871,3.7.908a2.058,2.058,0,0,1,3.414,0Q8.923,3.615,10.58,6.421A1.942,1.942,0,0,1,8.939,9.3c-.127.008-.253.011-.428.019v9.231H2.346V9.314A2.175,2.175,0,0,1,0,7.756Zm6.952.869c.627,0,1.185.008,1.748,0s.719-.312.424-.786q-1.556-2.5-3.13-4.981c-.345-.547-.825-.537-1.171.011q-1.56,2.465-3.1,4.942c-.327.524-.16.812.462.82.555.005,1.111,0,1.7,0V17H6.955Z" transform="translate(0 0)" fill="#fff"/>
          <path id="Trazado_196822" data-name="Trazado 196822" d="M40.533,30.577h-6.2V21.372a7.483,7.483,0,0,1-.849-.123,1.914,1.914,0,0,1-1.237-2.788c1.115-1.88,2.273-3.737,3.489-5.555a2.061,2.061,0,0,1,3.388.017q1.806,2.708,3.464,5.513a1.943,1.943,0,0,1-1.625,2.885c-.127.008-.255,0-.431,0Zm-1.549-1.549V19.777c.594,0,1.139.005,1.685,0,.595-.007.77-.3.462-.792Q39.574,16.488,38,14c-.343-.54-.82-.528-1.171.021q-1.559,2.465-3.1,4.942c-.326.521-.156.807.472.812.555,0,1.11,0,1.695,0v9.255Z" transform="translate(-19.646 -7.382)" fill="#fff"/>
          <path id="Trazado_196823" data-name="Trazado 196823" d="M83.122,47.729V46.154h1.516V47.7c2.071.747,3.128,2.033,3.082,3.761-.24.019-.487.046-.737.056s-.479,0-.747,0c-.031-.173-.053-.343-.091-.509a2.31,2.31,0,1,0-2.859,2.665c.541.15,1.094.266,1.634.421A3.8,3.8,0,0,1,85,61.426c-.106.033-.21.07-.343.115V63.1H83.122V61.538a3.99,3.99,0,0,1-2.573-1.823,4.368,4.368,0,0,1-.509-2.728h1.525c0,.292-.008.577,0,.861a2.271,2.271,0,0,0,2.1,2.193,2.3,2.3,0,0,0,2.508-1.914A2.263,2.263,0,0,0,84.5,55.6c-.464-.131-.931-.248-1.4-.365a3.81,3.81,0,0,1-.182-7.443Z" transform="translate(-49.097 -28.326)" fill="#fff"/>
          <path id="Trazado_196824" data-name="Trazado 196824" d="M18.36,78.12a2.318,2.318,0,1,1-2.347,2.289c0-.008,0-.016,0-.025A2.327,2.327,0,0,1,18.36,78.12m-.035,3.087a.769.769,0,1,0-.764-.775.778.778,0,0,0,.764.774Z" transform="translate(-9.828 -47.945)" fill="#fff"/>
        </g>
      </g>
    </g>
  </g>
</svg>
