<svg xmlns="http://www.w3.org/2000/svg" xmlns:xlink="http://www.w3.org/1999/xlink" width="77" height="77" viewBox="0 0 77 77">
  <defs>
    <clipPath id="clip-path">
      <rect id="Rectángulo_46431" data-name="Rectángulo 46431" width="53.291" height="44.435" fill="#fff"/>
    </clipPath>
  </defs>
  <g id="Grupo_154888" data-name="Grupo 154888" transform="translate(-0.188 -0.117)">
    <circle id="Elipse_5801" data-name="Elipse 5801" cx="38.5" cy="38.5" r="38.5" transform="translate(0.188 0.117)" fill="#2194e5"/>
    <g id="Grupo_154872" data-name="Grupo 154872" transform="translate(12.188 16.118)">
      <g id="Grupo_154871" data-name="Grupo 154871" clip-path="url(#clip-path)">
        <path id="Trazado_196805" data-name="Trazado 196805" d="M53.292,12.213a7.976,7.976,0,0,1-1.7,3.535c-2.132,2.942-4.238,5.911-6.414,8.952a5.124,5.124,0,0,1,1.748,4.937,4.7,4.7,0,0,1-3.14,3.784c.452,3.292-2.245,6.313-4.477,5.529-.454,1.988-1.357,3.493-3,4.05-1.726.586-2.9-.7-3.924-2.049a24.962,24.962,0,0,1-1.349,2.188,2.819,2.819,0,0,1-4.637.157c-.887-1.007-1.754-2.041-2.534-2.951a25.249,25.249,0,0,0-1.792,2.08c-1.881,2.7-4.772,1.952-6.146-1.348-.055-.133-.1-.277-.144-.413-2.629,1.243-4.436.255-5.529-3.051-1.527.653-2.825.154-3.944-1.3a4.956,4.956,0,0,1-.773-4.916,21.157,21.157,0,0,1-1.818-1.757,4.871,4.871,0,0,1-.105-5.9c.706-.964,1.433-1.9,2.19-2.905-.257-.284-.5-.555-.741-.819q-1.879-2.029-3.759-4.055A4.842,4.842,0,0,1,.986,9.71Q3.324,6.4,5.661,3.084C7.03,1.141,9.012.568,10.9,1.575c.766.408,1.524.837,2.293,1.237A4.344,4.344,0,0,0,17.442,2.8c.719-.377,1.434-.768,2.151-1.154a5.314,5.314,0,0,1,5.766.2.391.391,0,0,1,.046.029A1.415,1.415,0,0,0,27.48,1.9a4.012,4.012,0,0,1,4.7-.181c1.243.721,2.459,1.515,3.7,2.254a3.138,3.138,0,0,0,3.817-.248c1.271-.984,2.529-1.992,3.8-2.981,1.639-1.278,3.607-.9,4.814,1q2.153,3.381,4.22,6.846a12.611,12.611,0,0,1,.771,2.045ZM28.2,32.986c.16.177.29.316.415.462,1.9,2.216,3.792,4.439,5.7,6.642a2.353,2.353,0,0,0,.87.673c.786.3,1.6-.305,2.107-1.467a2.254,2.254,0,0,0-.4-2.429q-2.9-3.4-5.807-6.788c-.124-.145-.264-.267-.424-.428l1.257-1.7c.18.2.309.347.435.5q3.248,3.795,6.5,7.584a2.3,2.3,0,0,0,.821.654c.928.367,1.53-.328,2.118-1.419a2.168,2.168,0,0,0-.343-2.43q-3.542-4.169-7.1-8.317a6.622,6.622,0,0,0-.5-.477l1.281-1.73.631.734c2.139,2.5,4.27,5.014,6.419,7.5.819.949,1.63.81,2.475-.352a2.291,2.291,0,0,0,0-3.005,104.376,104.376,0,0,0-13.375-13.97,2.507,2.507,0,0,0-3.374-.176c-.467.334-.92.7-1.383,1.046-1.928,1.441-3.948.7-5.3-1.9a4.849,4.849,0,0,1,1.191-5.916c.7-.555,1.365-1.2,2.044-1.81.118-.106.226-.229.373-.379a3.89,3.89,0,0,0-4.288-.458c-.792.382-1.563.835-2.345,1.251a5.8,5.8,0,0,1-5.8-.015c-.748-.4-1.5-.808-2.248-1.2a2.279,2.279,0,0,0-3.075.868Q4.693,7.876,2.328,11.247a2.171,2.171,0,0,0,.152,2.968c1.314,1.432,2.636,2.85,3.956,4.272.206.222.417.437.663.694,1.1-1.663,2.282-3.195,4.153-2.586,1.745.568,2.786,2.094,3.095,4.432,1.295-.106,2.269.691,3.109,1.854a5.242,5.242,0,0,1,.749,4.236c1.917.653,2.692,2.49,3.159,4.673.064.009.132.023.2.027,2.549.173,4.214,3.218,3.449,6.274a.918.918,0,0,0,.165.639c.7.857,1.415,1.682,2.128,2.517,1.08,1.265,1.838,1.216,2.819-.183a2.224,2.224,0,0,0-.088-2.85c-.528-.634-1.071-1.249-1.606-1.874-.478-.558-.954-1.118-1.447-1.7L28.2,32.986M43.87,23.114c.1-.138.19-.245.271-.359Q47.473,18.1,50.8,13.439a3.176,3.176,0,0,0,.1-3.785q-1.936-3.136-3.873-6.27c-.741-1.2-1.678-1.418-2.693-.623-1.252.979-2.488,1.994-3.752,2.946a4.568,4.568,0,0,1-5.463.344c-1.255-.74-2.488-1.54-3.745-2.273a2.654,2.654,0,0,0-3.233.234c-1.709,1.416-3.359,2.948-5.028,4.441a1.915,1.915,0,0,0-.613,1.582c.092,1.893,1.788,3.05,3.08,2.106.54-.394,1.054-.848,1.608-1.207a3.726,3.726,0,0,1,4.841.212c2.519,2.207,4.983,4.524,7.388,6.926,1.546,1.545,2.946,3.325,4.447,5.041m-29.476.154a3.911,3.911,0,0,0-.949.728c-1.975,2.549-3.924,5.13-5.871,7.713a2.279,2.279,0,0,0,.163,3.133c.867,1.042,1.694,1.054,2.485.012q2.9-3.813,5.785-7.636a2.175,2.175,0,0,0,.381-2.265,2.429,2.429,0,0,0-1.994-1.685M10.335,18.73a3.382,3.382,0,0,0-.9.662c-1.509,1.932-2.994,3.9-4.466,5.874a2.282,2.282,0,0,0,.28,3.077c.827.97,1.628.977,2.36.014,1.441-1.895,2.874-3.8,4.322-5.684a2.036,2.036,0,0,0,.425-2.117,2.378,2.378,0,0,0-2.02-1.825M19.58,31.837a3,3,0,0,0-.991-1.965,1.273,1.273,0,0,0-2.143.076q-2.049,2.663-4.061,5.369a2.167,2.167,0,0,0,.023,2.556,6.919,6.919,0,0,0,.488.591,1.291,1.291,0,0,0,2.148-.067c1.344-1.741,2.678-3.494,3.986-5.277a6.381,6.381,0,0,0,.55-1.283m3.954,4.733a3.041,3.041,0,0,0-1.085-2.038,1.252,1.252,0,0,0-2.029.125q-1.3,1.655-2.555,3.372a2.242,2.242,0,0,0,.053,2.715c.145.188.294.373.453.542a1.277,1.277,0,0,0,2.109-.093c.855-1.089,1.7-2.191,2.512-3.333a6.619,6.619,0,0,0,.541-1.29" transform="translate(0 0)" fill="#fff"/>
      </g>
    </g>
  </g>
</svg>
