<svg xmlns="http://www.w3.org/2000/svg" xmlns:xlink="http://www.w3.org/1999/xlink" width="77" height="77" viewBox="0 0 77 77">
  <defs>
    <clipPath id="clip-path">
      <rect id="Rectángulo_46437" data-name="Rectángulo 46437" width="43.502" height="43.482" fill="#fff"/>
    </clipPath>
  </defs>
  <g id="Grupo_154890" data-name="Grupo 154890" transform="translate(-0.271 0.153)">
    <circle id="Elipse_5802" data-name="Elipse 5802" cx="38.5" cy="38.5" r="38.5" transform="translate(0.271 76.847) rotate(-90)" fill="#2194e5"/>
    <g id="Grupo_154874" data-name="Grupo 154874" transform="translate(16.425 16.905)">
      <g id="Grupo_154873" data-name="Grupo 154873" clip-path="url(#clip-path)">
        <path id="Trazado_196806" data-name="Trazado 196806" d="M42.013,75.67h1.426v1.418H20.287v1.976a2.188,2.188,0,0,1-1.971,2.386,2.164,2.164,0,0,1-.423,0H2.417a2.2,2.2,0,0,1-2.4-2.42q0-8.145-.007-16.29A2.566,2.566,0,0,1,.8,60.8q2.335-2.3,4.641-4.639a2.518,2.518,0,0,1,1.9-.784c3.424.013,6.849.061,10.272-.017a2.379,2.379,0,0,1,2.651,2.885h-1.4c-.007-.139-.019-.284-.021-.429-.008-.764-.23-.984-1.008-.985H7.255v3.285a2.22,2.22,0,0,1-2.5,2.509q-1.584,0-3.168.008a.563.563,0,0,0-.127.05V78.938c0,.862.2,1.063,1.064,1.063h15.25c.862,0,1.064-.2,1.065-1.064v-1.79c-.44-.063-.8-.154-1.082.378a2.063,2.063,0,0,1-2.424.934,2.166,2.166,0,0,1,.066-4.179,2.11,2.11,0,0,1,2.4,1,.629.629,0,0,0,.662.378c1.552-.019,3.1-.008,4.725-.008V71.487c0-.651.253-.9.9-.9h3.44V67.717c0-1.432.046-1.478,1.463-1.479q1.38,0,2.76-.008c.026,0,.052-.022.123-.052V62.95c0-.858.2-1.056,1.07-1.056h3.274v-.453c0-1.025-.006-2.051,0-3.077a.724.724,0,0,1,.811-.812q2.079-.012,4.163,0c.578,0,.815.289.815.945V75.67ZM37.7,59.025V75.643h2.835V59.025ZM33.354,63.36V75.63h2.835V63.358Zm-1.5,4.368H29.018v7.909h2.842Zm-4.347,7.914V72.067H24.669v3.576ZM5.809,58,2.637,61.171c.826,0,1.679.024,2.53-.01a.651.651,0,0,0,.64-.662c0-.012,0-.023,0-.035.01-.826,0-1.652,0-2.467ZM15.958,75.667a.722.722,0,1,0,.712.731v-.012a.729.729,0,0,0-.722-.723Z" transform="translate(0 -37.977)" fill="#fff"/>
        <path id="Trazado_196807" data-name="Trazado 196807" d="M58.166,17.778,55.3,20.65c-.479.48-.955.966-1.441,1.439-1.4,1.36-.741,1.078-2.7,1.107-.756.011-1.512,0-2.311,0V36.2H47.4v-13c-.507,0-.984-.022-1.456.016-.108.008-.218.211-.3.342a2.173,2.173,0,1,1-2.682-3.1,2.133,2.133,0,0,1,2.684.96.534.534,0,0,0,.546.339c1.87-.015,3.741,0,5.611-.015a.8.8,0,0,0,.517-.179c1.5-1.482,2.994-2.979,4.486-4.473a1.1,1.1,0,0,0,.095-.133,9.387,9.387,0,0,1-3.718-7.5,9.172,9.172,0,0,1,2.393-6.323,9.442,9.442,0,1,1,2.588,14.647Zm3.7-16.215c-2.872-.082-6.058,2.558-6.948,5.725a8,8,0,0,0,3.74,9.077,7.8,7.8,0,0,0,8.618-.567c-1.662-1.87-3.317-3.747-4.991-5.605a1.558,1.558,0,0,1-.427-1.134c.017-2.337.008-4.673.008-7.01ZM63.33,8.687h7.158a7.817,7.817,0,0,0-7.163-7.12Zm5.058,6.185a7.349,7.349,0,0,0,2.06-4.669H64.237Zm-23.908,7.6a.721.721,0,1,0-.719.723h.009a.729.729,0,0,0,.71-.719Z" transform="translate(-28.54 0)" fill="#fff"/>
        <path id="Trazado_196808" data-name="Trazado 196808" d="M16.322,17.646c1.1-.945,2.184-1.859,3.243-2.8a.618.618,0,0,0,.082-.5,2.164,2.164,0,1,1,3.953.628,2.1,2.1,0,0,1-2.384.944.833.833,0,0,0-.914.209c-1.106.979-2.242,1.925-3.354,2.9a1.417,1.417,0,0,0-.357.543,2.141,2.141,0,0,1-1.871,1.492,2.046,2.046,0,0,1-2.1-1.122.5.5,0,0,0-.515-.315q-1.221.024-2.442,0a.464.464,0,0,0-.482.293,2.094,2.094,0,0,1-2.529,1.056.5.5,0,0,0-.583.158c-.524.541-1.054,1.079-1.6,1.6a.6.6,0,0,0-.183.7,2,2,0,0,1-.722,2.222,2.024,2.024,0,0,1-2.328.255,2.07,2.07,0,0,1-1.2-2.019,2.141,2.141,0,0,1,2.72-1.993.6.6,0,0,0,.7-.189c.531-.556,1.093-1.082,1.617-1.644a.615.615,0,0,0,.119-.492,2.183,2.183,0,0,1,4.021-1.655.614.614,0,0,0,.438.257c.829.024,1.658.019,2.487,0a.543.543,0,0,0,.395-.18c.987-1.545,2.451-1.694,3.788-.345m6.159-3.822a.721.721,0,1,0-.71.732h.011a.726.726,0,0,0,.7-.732ZM6.557,18.869a.721.721,0,1,0,.755-.686H7.3a.729.729,0,0,0-.744.685Zm7.971-.686a.721.721,0,1,0,.712.729V18.9a.726.726,0,0,0-.712-.716ZM2.205,23.252a.721.721,0,1,0,.725.717v-.011a.726.726,0,0,0-.725-.707Z" transform="translate(-0.023 -8.012)" fill="#fff"/>
        <rect id="Rectángulo_46432" data-name="Rectángulo 46432" width="8.632" height="1.393" transform="translate(8.016 29.75)" fill="#fff"/>
        <rect id="Rectángulo_46433" data-name="Rectángulo 46433" width="7.182" height="1.392" transform="translate(3.654 33.363)" fill="#fff"/>
        <rect id="Rectángulo_46434" data-name="Rectángulo 46434" width="4.294" height="1.391" transform="translate(12.353 33.364)" fill="#fff"/>
        <rect id="Rectángulo_46435" data-name="Rectángulo 46435" width="2.842" height="1.399" transform="translate(3.665 29.749)" fill="#fff"/>
        <rect id="Rectángulo_46436" data-name="Rectángulo 46436" width="2.835" height="1.409" transform="translate(3.67 36.976)" fill="#fff"/>
      </g>
    </g>
  </g>
</svg>
