<svg xmlns="http://www.w3.org/2000/svg" xmlns:xlink="http://www.w3.org/1999/xlink" width="77" height="77" viewBox="0 0 77 77">
  <defs>
    <clipPath id="clip-path">
      <rect id="Rectángulo_46430" data-name="Rectángulo 46430" width="50.286" height="50.263" fill="#fff"/>
    </clipPath>
  </defs>
  <g id="Grupo_154895" data-name="Grupo 154895" transform="translate(-0.306 -0.117)">
    <circle id="Elipse_5812" data-name="Elipse 5812" cx="38.5" cy="38.5" r="38.5" transform="translate(0.306 0.117)" fill="#2194e5"/>
    <g id="Grupo_154870" data-name="Grupo 154870" transform="translate(13.531 13.407)">
      <g id="Grupo_154869" data-name="Grupo 154869" transform="translate(0 0)" clip-path="url(#clip-path)">
        <path id="Trazado_196801" data-name="Trazado 196801" d="M0,23.654c.131-.953.232-1.91.4-2.857a25.12,25.12,0,0,1,49.34-.787,24.553,24.553,0,0,1-2.575,17.184,24.7,24.7,0,0,1-6.2,7.459,2.741,2.741,0,0,1-.441.307.961.961,0,0,1-1.2-.237.927.927,0,0,1,.013-1.216,9.826,9.826,0,0,1,.871-.789A22.91,22.91,0,0,0,48,28.6a21.517,21.517,0,0,0,.121-6.066c-.409.5-.817,1.075-1.3,1.58-.732.769-1.506.587-1.87-.4-.3-.812-.644-1.612-.874-2.444a6.093,6.093,0,0,0-1.654-2.5,1.5,1.5,0,0,0-.788-.257c.368.865-.12,1.322-.656,1.8a13.7,13.7,0,0,1-4.684,2.7,1.025,1.025,0,0,1-1.457-.574q-1.2-2.276-2.378-4.565a1.406,1.406,0,0,1-.169-.7,1.222,1.222,0,0,0-.421-.977,4.82,4.82,0,0,0-2.264-1.375.939.939,0,0,1-.768-1.132.9.9,0,0,1,1.107-.77,5.048,5.048,0,0,1,2.726,1.335,10.693,10.693,0,0,0,1.06,1.021,1.623,1.623,0,0,1,.524,1.215,3.011,3.011,0,0,0,.281,1.109c.545,1.113,1.137,2.2,1.776,3.425l3.211-1.908c-.143-.288-.245-.455-.311-.634a1.4,1.4,0,0,1,1.212-1.885,14.613,14.613,0,0,1,1.863.007,2.662,2.662,0,0,1,1.746.985A8.091,8.091,0,0,1,46.173,21.3a3.378,3.378,0,0,1,1.187-2.009.509.509,0,0,0,.057-.426,22.544,22.544,0,0,0-5.752-9.952A22.8,22.8,0,0,0,27.646,2.137a.739.739,0,0,0-.559.228c-.8.969-1.557,1.981-2.376,2.937a2.664,2.664,0,0,1-1.046.745c-1.852.688-3.727,1.315-5.584,1.989a1.021,1.021,0,0,0-.53.484c-.41.908-.763,1.841-1.162,2.754a.624.624,0,0,0,.085.714c.413.544.8,1.108,1.225,1.7a4.3,4.3,0,0,1,2.345-1.832,8.775,8.775,0,0,1,1.928-.264.971.971,0,0,1,1.066.976.992.992,0,0,1-1.078.968,3.149,3.149,0,0,0-1.789.4,2.385,2.385,0,0,0-1.023,1.318c.7-.038,1.353-.119,2-.095a7.784,7.784,0,0,1,1.921.26,1.38,1.38,0,0,1,1.012,1.458.541.541,0,0,0,.193.386c.286.21.6.378.9.56a2.043,2.043,0,0,1,2.464-.717c.493.173,1,.318,1.5.448a3.923,3.923,0,0,1,2.733,2.522q.595,1.451,1.231,2.884a9.8,9.8,0,0,0,.536.99,1.734,1.734,0,0,0,1.388.884,5.414,5.414,0,0,1,1.143.262,1.422,1.422,0,0,1,.912,2.04,9.151,9.151,0,0,1-1.279,1.775c-.575.668-1.229,1.266-1.825,1.916a1.467,1.467,0,0,0-.321,1.508c.091.3.161.6.233.9a2.413,2.413,0,0,1-.575,2.378c-.992.976-1.3,2.376-2.237,3.373a1.287,1.287,0,0,0-.237.736C30.739,41,28.217,43,26.957,43.024a2.093,2.093,0,0,1-1.9-.888,3.209,3.209,0,0,1-.383-.626c-.687-1.676-1.384-3.35-2.027-5.043A3.205,3.205,0,0,1,22.65,34.3c.1-.31.193-.624.269-.942a1.643,1.643,0,0,0-.4-1.635,3.237,3.237,0,0,1-.989-2.424c.008-.584-.266-.785-.847-.691a19.762,19.762,0,0,1-2.026.338,5.6,5.6,0,0,1-5.206-8.265,8.009,8.009,0,0,1,.891-1.344c.854-1.095,1.734-2.17,2.63-3.284-.8-1.115-1.568-2.245-2.395-3.334a1.512,1.512,0,0,1-.2-1.718c.551-1.219,1.04-2.468,1.538-3.712a1.517,1.517,0,0,1,.985-.938q2.921-1,5.824-2.046a1.645,1.645,0,0,0,.655-.465c.5-.578.954-1.186,1.492-1.864a23.11,23.11,0,0,0-13.909,4.85,14.238,14.238,0,0,1,1.5,1.985,3.6,3.6,0,0,1-.423,4.271,29.005,29.005,0,0,0-3.477,5.314,4.524,4.524,0,0,1-1.59,1.75c-.307.182-.584.415-.919.657.368.54.727,1.06,1.079,1.586.555.831.257,1.568-.716,1.73-.887.148-1.778.273-2.668.393a1.654,1.654,0,0,1-1.7-.517V26.53c.78-.251,1.511-.469,2.229-.723a1.324,1.324,0,0,1,1.37.229c1.134.887,2.31,1.72,3.423,2.631a3.651,3.651,0,0,0,1.744.684,4.9,4.9,0,0,1,2.462.869,2.853,2.853,0,0,1,1.044,2.8,3.665,3.665,0,0,0,.165,1.96,3.036,3.036,0,0,1-.352,2.855,3.42,3.42,0,0,1-1.631,1.2.748.748,0,0,0-.4.457q-.41,1.942-.746,3.9a.624.624,0,0,0,.2.507A22.972,22.972,0,0,0,32.9,46.95q.231-.083.466-.152a.988.988,0,0,1,1.324.576.975.975,0,0,1-.69,1.27,15.416,15.416,0,0,1-2.189.706c-1.6.322-3.214.56-4.822.834-.128.022-.254.053-.381.08H23.958a2.906,2.906,0,0,0-.379-.073,24.27,24.27,0,0,1-11.6-3.666A24.823,24.823,0,0,1,.382,29.4C.209,28.477.125,27.535,0,26.6V23.654m21.813-6.58c-.956.067-1.817.133-2.678.186a1.6,1.6,0,0,0-1.228.7c-.7.923-1.44,1.819-2.151,2.735a4.712,4.712,0,0,0-.531.821,3.722,3.722,0,0,0,.309,4.113A3.447,3.447,0,0,0,19.248,26.9a15.5,15.5,0,0,1,1.594-.259,2.377,2.377,0,0,1,2.565,1.884,4.666,4.666,0,0,0,.98,2.465,3.384,3.384,0,0,1,.3,3.328,3.031,3.031,0,0,0,.073,2.326c.455,1.083.883,2.178,1.334,3.263a5.406,5.406,0,0,0,.463.916.489.489,0,0,0,.423.183A2.966,2.966,0,0,0,28.8,39.525a8.9,8.9,0,0,1,1.425-2.7c.05-.061.059-.153.1-.221a13.88,13.88,0,0,1,1.134-1.747,1.565,1.565,0,0,0,.4-1.728,3.159,3.159,0,0,1,.207-2.927,19.909,19.909,0,0,1,1.771-2.08c.377-.421.789-.811,1.171-1.2-.047-.078-.052-.1-.062-.1a.711.711,0,0,0-.142-.034,3.755,3.755,0,0,1-3.141-2.35c-.506-1.041-1-2.1-1.4-3.182a2.683,2.683,0,0,0-2.2-1.972,2.569,2.569,0,0,1-.611-.175.471.471,0,0,0-.628.177,1.454,1.454,0,0,1-1.748.541c-.891-.387-1.725-.9-2.588-1.355a1.138,1.138,0,0,1-.677-1.4M9.554,42.265c.25-1.294.511-2.489.7-3.695a1.345,1.345,0,0,1,1.112-1.252,3.816,3.816,0,0,0,.422-.129,1.131,1.131,0,0,0,.821-1.6,4.746,4.746,0,0,1-.238-2.829,1,1,0,0,0-.858-1.261,14.314,14.314,0,0,0-1.442-.284,4.111,4.111,0,0,1-2.156-.954c-.931-.771-1.929-1.462-2.876-2.215a.8.8,0,0,0-.886-.143,13.12,13.12,0,0,1-1.491.483c-.371.095-.43.267-.367.629A23.166,23.166,0,0,0,6,38.167a22.194,22.194,0,0,0,3.556,4.1M4.715,22.343c-.253-.375-.484-.711-.708-1.051a1.051,1.051,0,0,1,.31-1.673c.595-.433,1.206-.843,1.791-1.29a2.317,2.317,0,0,0,.549-.6c1.214-1.947,2.145-4.061,3.762-5.769a2.2,2.2,0,0,0-.929-3.49A.554.554,0,0,0,9,8.542,22.982,22.982,0,0,0,2.349,21.163a.568.568,0,0,0,.024.365,1.854,1.854,0,0,0,2.342.815" transform="translate(0 0)" fill="#fff"/>
        <path id="Trazado_196802" data-name="Trazado 196802" d="M85.712,85.888c.135-.475.3-1,.431-1.539a3.093,3.093,0,0,0,.125-.995A2.344,2.344,0,0,1,87.652,80.7a2.711,2.711,0,0,0,1.486-1.586,2.656,2.656,0,0,1,.194-.4.964.964,0,0,1,1.007-.55.933.933,0,0,1,.829.729c.163.564.327,1.13.455,1.7a1.4,1.4,0,0,1-.019.676q-.758,2.507-1.558,5a4.367,4.367,0,0,1-.484.959A1.906,1.906,0,0,1,87.7,88.35a2.216,2.216,0,0,1-1.764-1.527,5.893,5.893,0,0,1-.222-.935m2.024.28.268.046L89.376,82a3.78,3.78,0,0,0-.793.417c-.167.157-.379.426-.348.608a4.309,4.309,0,0,1-.37,2.377,3.585,3.585,0,0,0-.129.765" transform="translate(-51.385 -46.855)" fill="#fff"/>
        <path id="Trazado_196803" data-name="Trazado 196803" d="M63.827,30.907a1.033,1.033,0,0,1-1.036-.97,1,1,0,0,1,1.005-.991,1.03,1.03,0,0,1,1.005,1,.963.963,0,0,1-.974.958" transform="translate(-37.644 -17.353)" fill="#fff"/>
        <path id="Trazado_196804" data-name="Trazado 196804" d="M91.408,114.5a.937.937,0,0,1-.972-.948A.984.984,0,1,1,92.4,113.5a1.017,1.017,0,0,1-.995,1" transform="translate(-54.217 -67.472)" fill="#fff"/>
      </g>
    </g>
  </g>
</svg>
