<svg xmlns="http://www.w3.org/2000/svg" xmlns:xlink="http://www.w3.org/1999/xlink" width="227.535" height="311.302" viewBox="0 0 227.535 311.302">
  <defs>
    <linearGradient id="linear-gradient" x1="0.5" y1="1.356" x2="0.5" y2="0.614" gradientUnits="objectBoundingBox">
      <stop offset="0" stop-color="#7e53c5"/>
      <stop offset="1" stop-color="#080383"/>
    </linearGradient>
    <clipPath id="clip-path">
      <rect id="Rectángulo_46054" data-name="Rectángulo 46054" width="67.875" height="69.989" fill="#fff"/>
    </clipPath>
  </defs>
  <g id="Grupo_155229" data-name="Grupo 155229" transform="translate(-948.732 -2011.164)">
    <rect id="Rectángulo_46050" data-name="Rectángulo 46050" width="227.535" height="311.302" rx="7" transform="translate(948.732 2011.164)" fill="url(#linear-gradient)"/>
    <path id="Trazado_197247" data-name="Trazado 197247" d="M80.886,9.362h1.4a1.453,1.453,0,0,0,1.661-1.626,1.406,1.406,0,0,0-.4-1.033,1.5,1.5,0,0,0-1.116-.4,1.606,1.606,0,0,0-1.024.343,1.046,1.046,0,0,0-.435.853H78.012a3.032,3.032,0,0,1,.563-1.8,3.715,3.715,0,0,1,1.56-1.235,5.334,5.334,0,0,1,2.193-.444,5.241,5.241,0,0,1,3.357.976,3.243,3.243,0,0,1,1.222,2.681,2.7,2.7,0,0,1-.505,1.56,3.6,3.6,0,0,1-1.472,1.191,3.441,3.441,0,0,1,1.6,1.121,2.951,2.951,0,0,1,.58,1.859,3.3,3.3,0,0,1-1.318,2.742,5.472,5.472,0,0,1-3.463,1.028,5.675,5.675,0,0,1-2.333-.479,3.656,3.656,0,0,1-1.63-1.327,3.45,3.45,0,0,1-.554-1.929h2.979a1.334,1.334,0,0,0,.475,1.02,1.676,1.676,0,0,0,1.169.431,1.755,1.755,0,0,0,1.248-.435,1.454,1.454,0,0,0,.466-1.112,1.7,1.7,0,0,0-.483-1.371,2.021,2.021,0,0,0-1.336-.4H80.886Zm16.348-1.74a2.954,2.954,0,0,1-.461,1.644,3.361,3.361,0,0,1-1.27,1.143,3.7,3.7,0,0,1,1.45,1.226,3.164,3.164,0,0,1,.536,1.841,3.349,3.349,0,0,1-1.182,2.707,4.909,4.909,0,0,1-3.256.993,5,5,0,0,1-3.287-1,3.325,3.325,0,0,1-1.2-2.7,3.2,3.2,0,0,1,.527-1.819,3.586,3.586,0,0,1,1.494-1.248A3.38,3.38,0,0,1,89.3,9.266a2.934,2.934,0,0,1-.466-1.644,3.284,3.284,0,0,1,1.134-2.637,5.349,5.349,0,0,1,6.135,0A3.284,3.284,0,0,1,97.233,7.622Zm-2.716,5.616a1.69,1.69,0,0,0-.409-1.217,1.423,1.423,0,0,0-1.077-.426,1.438,1.438,0,0,0-1.081.426,1.678,1.678,0,0,0-.413,1.217,1.693,1.693,0,0,0,.417,1.208,1.433,1.433,0,0,0,1.094.444,1.377,1.377,0,0,0,1.063-.439A1.723,1.723,0,0,0,94.518,13.238ZM93.023,6.3a1.1,1.1,0,0,0-.91.391A1.7,1.7,0,0,0,91.8,7.78a1.8,1.8,0,0,0,.316,1.107,1.092,1.092,0,0,0,.932.422,1.047,1.047,0,0,0,.91-.422,1.856,1.856,0,0,0,.3-1.107A1.7,1.7,0,0,0,93.951,6.7,1.109,1.109,0,0,0,93.023,6.3Zm6.012.36a2.512,2.512,0,0,1,.773-1.916,3.334,3.334,0,0,1,4.157,0,2.578,2.578,0,0,1,.765,1.964v.633a2.5,2.5,0,0,1-.765,1.907,2.889,2.889,0,0,1-2.065.721,2.968,2.968,0,0,1-2.079-.716,2.524,2.524,0,0,1-.787-1.964Zm1.907.675a1.062,1.062,0,0,0,.255.738.9.9,0,0,0,.7.284q.923,0,.923-1.17V6.666a1.12,1.12,0,0,0-.246-.747.857.857,0,0,0-.694-.293.876.876,0,0,0-.686.284,1.114,1.114,0,0,0-.255.773Zm4.175,6.524a2.487,2.487,0,0,1,.778-1.916,2.924,2.924,0,0,1,2.07-.721,2.956,2.956,0,0,1,2.083.712,2.565,2.565,0,0,1,.773,1.986v.615a2.509,2.509,0,0,1-.765,1.916,2.9,2.9,0,0,1-2.074.721,2.968,2.968,0,0,1-2.079-.716,2.524,2.524,0,0,1-.787-1.964Zm1.9.675a1.039,1.039,0,0,0,.281.72.891.891,0,0,0,.686.31.808.808,0,0,0,.923-.8l.009-.9a1.075,1.075,0,0,0-.255-.747.992.992,0,0,0-1.371-.017,1.061,1.061,0,0,0-.272.72Zm-4.553,1.505-1.38-.694,6.249-10,1.38.694Z" transform="translate(968 2158.164)" fill="#3cffe9"/>
    <g id="Grupo_154390" data-name="Grupo 154390" transform="translate(1024.32 2050.501)">
      <g id="Grupo_154373" data-name="Grupo 154373" transform="translate(0 6.278)">
        <line id="Línea_1807" data-name="Línea 1807" x2="77.131" transform="translate(0 66.441)" fill="none" stroke="#fff" stroke-width="1" stroke-dasharray="6"/>
        <g id="Grupo_153193" data-name="Grupo 153193" transform="translate(22.23 11.293) rotate(180)">
          <rect id="Rectángulo_45221" data-name="Rectángulo 45221" width="2.151" height="2.151" transform="translate(9.142 9.142)" fill="#1894f6"/>
          <rect id="Rectángulo_45222" data-name="Rectángulo 45222" width="2.151" height="2.151" transform="translate(4.571 9.142)" fill="#1894f6"/>
          <rect id="Rectángulo_45223" data-name="Rectángulo 45223" width="2.151" height="2.151" transform="translate(0 9.142)" fill="#1894f6"/>
          <rect id="Rectángulo_45232" data-name="Rectángulo 45232" width="2.151" height="2.151" transform="translate(9.142 4.571)" fill="#1894f6"/>
          <rect id="Rectángulo_45233" data-name="Rectángulo 45233" width="2.151" height="2.151" transform="translate(4.571 4.571)" fill="#1894f6"/>
          <rect id="Rectángulo_45234" data-name="Rectángulo 45234" width="2.151" height="2.151" transform="translate(0 4.571)" fill="#1894f6"/>
          <rect id="Rectángulo_45243" data-name="Rectángulo 45243" width="2.151" height="2.151" transform="translate(9.142)" fill="#1894f6"/>
          <rect id="Rectángulo_45244" data-name="Rectángulo 45244" width="2.151" height="2.151" transform="translate(4.571)" fill="#1894f6"/>
          <rect id="Rectángulo_45245" data-name="Rectángulo 45245" width="2.151" height="2.151" fill="#1894f6"/>
        </g>
      </g>
      <g id="Grupo_154383" data-name="Grupo 154383" transform="translate(4.628 0)">
        <g id="Grupo_154382" data-name="Grupo 154382" clip-path="url(#clip-path)">
          <path id="Trazado_196226" data-name="Trazado 196226" d="M0,59.725a21.514,21.514,0,0,1,1.053-3.136,7.549,7.549,0,0,1,4.94-3.837c4.347-1.234,8.689-2.488,13.04-3.706a.783.783,0,0,0,.685-.924,23.733,23.733,0,0,0-3.943-13.187,69.166,69.166,0,0,1-4.006-6.361A18.362,18.362,0,0,1,18.221,5.051a17.423,17.423,0,0,1,9.455-2.724A71.725,71.725,0,0,0,45.881.046a.708.708,0,0,1,.882.3,15.7,15.7,0,0,1,3.314,6.616A13.181,13.181,0,0,1,46.8,18.828a1.056,1.056,0,0,0-.238,1.341,6.155,6.155,0,0,1,.472,2.179,13.755,13.755,0,0,0,2.733,8.118,2.8,2.8,0,0,1-1.656,4.512.915.915,0,0,0-.519.431A13.672,13.672,0,0,0,45.9,40.521a6.338,6.338,0,0,1-6.36,5.765,14.736,14.736,0,0,1-2.67-.394c-.581-.116-1.143-.336-1.81-.538,0,1.117-.023,2.177.026,3.234.007.15.349.349.567.413,2.914.848,5.835,1.673,8.751,2.512,1.7.49,3.426.92,5.1,1.512a7.724,7.724,0,0,1,5.241,7.522c.031,3.147,0,6.3,0,9.443H0V59.725M17.715,51.75c-1.208.344-2.355.664-3.5,1-2.829.82-5.683,1.558-8.474,2.5A4.892,4.892,0,0,0,2.3,59.7c-.191,2.606-.065,5.238-.072,7.859,0,.038.044.075.073.123H52.538c0-2.521.1-4.986-.027-7.44a5.457,5.457,0,0,0-4.3-5.3q-2.81-.806-5.62-1.612c-1.826-.521-3.653-1.037-5.543-1.573l-2.461,10.1-7.2-6.173-7.208,6.171-2.457-10.1m6.333-25.768c.039-.462.073-.891.113-1.319a9.526,9.526,0,0,1,8.824-8.743c2.43-.12,4.869-.07,7.3-.064a6.5,6.5,0,0,1,3.424.933c.41.25.792.55,1.173.818A11.172,11.172,0,0,0,45.77,2.8a.933.933,0,0,0-.789-.2A78.779,78.779,0,0,1,27.6,4.579,15.07,15.07,0,0,0,15.96,9.933a16.145,16.145,0,0,0-1.353,19.189c.977,1.493,1.949,2.99,2.929,4.481a26.326,26.326,0,0,1,3.023,6.137c.232.694.422,1.4.662,2.209a12.4,12.4,0,0,0,2.8-6.875c-2.859-.645-4.364-2.265-4.3-4.6a4.517,4.517,0,0,1,4.325-4.492M27.694,40.73c.281.082.493.142.7.206,3.028.932,6.048,1.894,9.09,2.775a7.63,7.63,0,0,0,2.473.267,4,4,0,0,0,3.758-3.742A11.884,11.884,0,0,1,45.2,35.259a14.091,14.091,0,0,0,.856-1.773.971.971,0,0,1,1.141-.74c.289.027.8-.108.849-.277a1.315,1.315,0,0,0-.25-.962,15.1,15.1,0,0,1-2.9-8.638,4.568,4.568,0,0,0-4.768-4.752c-2.125-.01-4.251-.019-6.376.008a8.014,8.014,0,0,0-1.9.229A7.467,7.467,0,0,0,26.3,25.707c-.018.834,0,1.67,0,2.546-.714,0-1.332,0-1.949,0a2.262,2.262,0,1,0,.012,4.512c.632,0,1.264,0,1.908,0,.013.238.024.373.026.507a15.205,15.205,0,0,1-4.219,11.081,1.187,1.187,0,0,0-.335.739c.025,1.184.092,2.369.191,3.549a1.061,1.061,0,0,0,.377.695Q24.629,50.986,27,52.562a.817.817,0,0,0,.743.009q2.4-1.588,4.751-3.258a.945.945,0,0,0,.334-.651c.035-1.025-.033-2.055.032-3.077a.978.978,0,0,0-.866-1.21c-1.642-.437-3.255-.986-4.925-1.5l.624-2.14m7.22,10.481c-.719-.334-.719-.335-1.289.055q-1.075.737-2.149,1.476L29.209,54.3l4.1,3.51,1.606-6.6M25.549,54.3c-1.513-1.04-2.99-2.031-4.437-3.064a.932.932,0,0,0-1.264-.008l1.605,6.585,4.1-3.513" transform="translate(0 0)" fill="#fff"/>
          <path id="Trazado_196227" data-name="Trazado 196227" d="M181.691,89.924l-1.5-1.6a13.877,13.877,0,0,0-.017-19.067l1.53-1.527c5.515,5.36,6.369,15.574-.01,22.193" transform="translate(-118.287 -43.768)" fill="#fff"/>
          <path id="Trazado_196228" data-name="Trazado 196228" d="M172.777,92.556l-1.5-1.468c3.38-5.168,3.381-7.632.005-12.8l1.475-1.445c3.93,3.516,4.57,11.23.021,15.71" transform="translate(-112.447 -49.658)" fill="#fff"/>
          <path id="Trazado_196229" data-name="Trazado 196229" d="M163.641,95.1l-1.464-1.535a4.723,4.723,0,0,0-.011-6.373l1.5-1.532a6.753,6.753,0,0,1-.022,9.44" transform="translate(-106.466 -55.35)" fill="#fff"/>
        </g>
      </g>
    </g>
    <path id="Trazado_197248" data-name="Trazado 197248" d="M20.117,4.852H16.461V15H14.969V4.852H11.32V3.625h8.8Zm.3,5.844a4.993,4.993,0,0,1,.488-2.234A3.643,3.643,0,0,1,22.27,6.93a3.7,3.7,0,0,1,1.988-.539,3.565,3.565,0,0,1,2.793,1.2,4.6,4.6,0,0,1,1.066,3.18v.1a5.036,5.036,0,0,1-.473,2.215,3.589,3.589,0,0,1-1.352,1.527,3.743,3.743,0,0,1-2.02.547,3.556,3.556,0,0,1-2.785-1.2A4.575,4.575,0,0,1,20.422,10.8Zm1.453.172a3.616,3.616,0,0,0,.652,2.258,2.211,2.211,0,0,0,3.5-.012,3.955,3.955,0,0,0,.648-2.418,3.61,3.61,0,0,0-.66-2.254,2.1,2.1,0,0,0-1.754-.863,2.075,2.075,0,0,0-1.727.852A3.925,3.925,0,0,0,21.875,10.867ZM31.3,6.547l.047,1.063a3.08,3.08,0,0,1,2.531-1.219q2.68,0,2.7,3.023V15H35.133V9.406a1.946,1.946,0,0,0-.418-1.352,1.675,1.675,0,0,0-1.277-.437,2.086,2.086,0,0,0-1.234.375,2.546,2.546,0,0,0-.828.984V15H29.93V6.547ZM38.375,10.7a4.993,4.993,0,0,1,.488-2.234A3.643,3.643,0,0,1,40.223,6.93a3.7,3.7,0,0,1,1.988-.539A3.565,3.565,0,0,1,45,7.586a4.6,4.6,0,0,1,1.066,3.18v.1a5.036,5.036,0,0,1-.473,2.215,3.589,3.589,0,0,1-1.352,1.527,3.743,3.743,0,0,1-2.02.547,3.556,3.556,0,0,1-2.785-1.2A4.575,4.575,0,0,1,38.375,10.8Zm1.453.172a3.616,3.616,0,0,0,.652,2.258,2.211,2.211,0,0,0,3.5-.012,3.955,3.955,0,0,0,.648-2.418,3.61,3.61,0,0,0-.66-2.254,2.1,2.1,0,0,0-1.754-.863,2.075,2.075,0,0,0-1.727.852A3.925,3.925,0,0,0,39.828,10.867Zm14.781,2.016,1.969-6.336h1.547l-3.4,9.758q-.789,2.109-2.508,2.109l-.273-.023-.539-.1V17.117l.391.031a1.923,1.923,0,0,0,1.145-.3,2.148,2.148,0,0,0,.676-1.086l.32-.859L50.922,6.547H52.5Zm15.906-2.016a5.062,5.062,0,0,1-.883,3.109,2.829,2.829,0,0,1-2.391,1.18,3.1,3.1,0,0,1-2.422-.977v4.07H63.375V6.547H64.7l.07.938a2.977,2.977,0,0,1,2.453-1.094,2.882,2.882,0,0,1,2.41,1.148,5.117,5.117,0,0,1,.887,3.2ZM69.07,10.7a3.735,3.735,0,0,0-.609-2.258,1.963,1.963,0,0,0-1.672-.828A2.125,2.125,0,0,0,64.82,8.781V12.82A2.129,2.129,0,0,0,66.8,13.977a1.954,1.954,0,0,0,1.652-.824A4.077,4.077,0,0,0,69.07,10.7Zm7.367-2.859a4.331,4.331,0,0,0-.711-.055A1.9,1.9,0,0,0,73.8,9v6H72.352V6.547h1.406l.023.977A2.251,2.251,0,0,1,75.8,6.391a1.477,1.477,0,0,1,.641.109Zm.789,2.852a4.993,4.993,0,0,1,.488-2.234A3.643,3.643,0,0,1,79.074,6.93a3.7,3.7,0,0,1,1.988-.539,3.565,3.565,0,0,1,2.793,1.2,4.6,4.6,0,0,1,1.066,3.18v.1a5.036,5.036,0,0,1-.473,2.215A3.589,3.589,0,0,1,83.1,14.609a3.743,3.743,0,0,1-2.02.547,3.556,3.556,0,0,1-2.785-1.2A4.575,4.575,0,0,1,77.227,10.8Zm1.453.172a3.616,3.616,0,0,0,.652,2.258,2.211,2.211,0,0,0,3.5-.012,3.955,3.955,0,0,0,.648-2.418,3.61,3.61,0,0,0-.66-2.254,2.1,2.1,0,0,0-1.754-.863,2.075,2.075,0,0,0-1.727.852A3.925,3.925,0,0,0,78.68,10.867Zm10.7,2.016,1.969-6.336H92.9L89.5,16.3q-.789,2.109-2.508,2.109l-.273-.023-.539-.1V17.117l.391.031a1.923,1.923,0,0,0,1.145-.3,2.149,2.149,0,0,0,.676-1.086l.32-.859L85.7,6.547h1.578Zm8.211,2.273a3.693,3.693,0,0,1-2.8-1.129,4.19,4.19,0,0,1-1.078-3.02v-.266A5.073,5.073,0,0,1,94.2,8.5a3.748,3.748,0,0,1,1.344-1.547,3.378,3.378,0,0,1,1.871-.559,3.166,3.166,0,0,1,2.563,1.086,4.7,4.7,0,0,1,.914,3.109v.6H95.164a3,3,0,0,0,.73,2.02,2.3,2.3,0,0,0,1.777.77,2.517,2.517,0,0,0,1.3-.312,3.259,3.259,0,0,0,.93-.828l.883.688A3.55,3.55,0,0,1,97.594,15.156Zm-.18-7.578a1.928,1.928,0,0,0-1.469.637A3.1,3.1,0,0,0,95.211,10h4.234V9.891a2.753,2.753,0,0,0-.594-1.707A1.815,1.815,0,0,0,97.414,7.578Zm8.539,6.4a2.082,2.082,0,0,0,1.352-.469,1.649,1.649,0,0,0,.641-1.172h1.367a2.621,2.621,0,0,1-.5,1.383,3.293,3.293,0,0,1-1.23,1.047,3.55,3.55,0,0,1-1.629.391A3.482,3.482,0,0,1,103.207,14a4.59,4.59,0,0,1-1.02-3.152v-.242a5.089,5.089,0,0,1,.453-2.2,3.451,3.451,0,0,1,1.3-1.492,3.7,3.7,0,0,1,2-.531,3.39,3.39,0,0,1,2.363.852,3.043,3.043,0,0,1,1,2.211h-1.367a1.992,1.992,0,0,0-.621-1.348,1.932,1.932,0,0,0-1.379-.527,2.023,2.023,0,0,0-1.707.793,3.724,3.724,0,0,0-.605,2.293v.273a3.65,3.65,0,0,0,.6,2.25A2.033,2.033,0,0,0,105.953,13.977Zm8.375,0a2.082,2.082,0,0,0,1.352-.469,1.649,1.649,0,0,0,.641-1.172h1.367a2.621,2.621,0,0,1-.5,1.383,3.293,3.293,0,0,1-1.23,1.047,3.55,3.55,0,0,1-1.629.391A3.482,3.482,0,0,1,111.582,14a4.59,4.59,0,0,1-1.02-3.152v-.242a5.089,5.089,0,0,1,.453-2.2,3.451,3.451,0,0,1,1.3-1.492,3.7,3.7,0,0,1,2-.531,3.39,3.39,0,0,1,2.363.852,3.043,3.043,0,0,1,1,2.211H116.32a1.992,1.992,0,0,0-.621-1.348,1.932,1.932,0,0,0-1.379-.527,2.023,2.023,0,0,0-1.707.793,3.724,3.724,0,0,0-.605,2.293v.273a3.65,3.65,0,0,0,.6,2.25A2.033,2.033,0,0,0,114.328,13.977ZM120.883,15h-1.445V6.547h1.445ZM119.32,4.3a.863.863,0,0,1,.215-.594.807.807,0,0,1,.637-.242.819.819,0,0,1,.641.242.854.854,0,0,1,.219.594.826.826,0,0,1-.219.586.834.834,0,0,1-.641.234.821.821,0,0,1-.637-.234A.834.834,0,0,1,119.32,4.3Zm3.492,6.391a4.993,4.993,0,0,1,.488-2.234A3.643,3.643,0,0,1,124.66,6.93a3.7,3.7,0,0,1,1.988-.539,3.565,3.565,0,0,1,2.793,1.2,4.6,4.6,0,0,1,1.066,3.18v.1a5.036,5.036,0,0,1-.473,2.215,3.589,3.589,0,0,1-1.352,1.527,3.743,3.743,0,0,1-2.02.547,3.556,3.556,0,0,1-2.785-1.2,4.575,4.575,0,0,1-1.066-3.164Zm1.453.172a3.616,3.616,0,0,0,.652,2.258,2.211,2.211,0,0,0,3.5-.012,3.954,3.954,0,0,0,.648-2.418,3.61,3.61,0,0,0-.66-2.254,2.1,2.1,0,0,0-1.754-.863,2.075,2.075,0,0,0-1.727.852A3.925,3.925,0,0,0,124.266,10.867ZM127.3,3.016h1.75l-2.094,2.3-1.164,0Zm6.383,3.531.047,1.063a3.08,3.08,0,0,1,2.531-1.219q2.68,0,2.7,3.023V15h-1.445V9.406a1.946,1.946,0,0,0-.418-1.352,1.675,1.675,0,0,0-1.277-.437,2.086,2.086,0,0,0-1.234.375,2.546,2.546,0,0,0-.828.984V15H132.32V6.547Zm11.07,4.156a4.952,4.952,0,0,1,.922-3.129,3.137,3.137,0,0,1,4.766-.168V3h1.445V15h-1.328l-.07-.906a2.943,2.943,0,0,1-2.414,1.063,2.887,2.887,0,0,1-2.395-1.2,5.008,5.008,0,0,1-.926-3.141Zm1.445.164a3.749,3.749,0,0,0,.594,2.25,1.919,1.919,0,0,0,1.641.813,2.108,2.108,0,0,0,2.008-1.234V8.813a2.125,2.125,0,0,0-1.992-1.2,1.929,1.929,0,0,0-1.656.82A4.128,4.128,0,0,0,146.2,10.867Zm11.438,4.289a3.693,3.693,0,0,1-2.8-1.129,4.19,4.19,0,0,1-1.078-3.02v-.266a5.073,5.073,0,0,1,.48-2.246,3.748,3.748,0,0,1,1.344-1.547,3.378,3.378,0,0,1,1.871-.559,3.166,3.166,0,0,1,2.563,1.086,4.7,4.7,0,0,1,.914,3.109v.6h-5.727a3,3,0,0,0,.73,2.02,2.3,2.3,0,0,0,1.777.77,2.517,2.517,0,0,0,1.3-.312,3.258,3.258,0,0,0,.93-.828l.883.688A3.55,3.55,0,0,1,157.641,15.156Zm-.18-7.578a1.928,1.928,0,0,0-1.469.637A3.1,3.1,0,0,0,155.258,10h4.234V9.891a2.753,2.753,0,0,0-.594-1.707A1.815,1.815,0,0,0,157.461,7.578ZM168.141,15H166.7V3h1.445Zm7.531,0a3.036,3.036,0,0,1-.2-.891,3.225,3.225,0,0,1-2.406,1.047,2.984,2.984,0,0,1-2.051-.707,2.287,2.287,0,0,1-.8-1.793,2.39,2.39,0,0,1,1-2.051,4.733,4.733,0,0,1,2.824-.73h1.406V9.211A1.623,1.623,0,0,0,174.992,8a1.821,1.821,0,0,0-1.336-.449,2.107,2.107,0,0,0-1.3.391,1.151,1.151,0,0,0-.523.945h-1.453a2,2,0,0,1,.449-1.223,3.066,3.066,0,0,1,1.219-.934,4.1,4.1,0,0,1,1.691-.344,3.342,3.342,0,0,1,2.289.73,2.635,2.635,0,0,1,.859,2.012v3.891a4.757,4.757,0,0,0,.3,1.852V15Zm-2.4-1.1a2.54,2.54,0,0,0,1.289-.352,2.127,2.127,0,0,0,.883-.914V10.9h-1.133q-2.656,0-2.656,1.555a1.316,1.316,0,0,0,.453,1.063A1.742,1.742,0,0,0,173.273,13.9ZM86.1,37.039,88.2,30.547h1.477L86.641,39h-1.1l-3.062-8.453h1.477ZM90.563,34.7a4.993,4.993,0,0,1,.488-2.234A3.643,3.643,0,0,1,92.41,30.93a3.7,3.7,0,0,1,1.988-.539,3.565,3.565,0,0,1,2.793,1.2,4.6,4.6,0,0,1,1.066,3.18v.1a5.036,5.036,0,0,1-.473,2.215,3.589,3.589,0,0,1-1.352,1.527,3.743,3.743,0,0,1-2.02.547,3.556,3.556,0,0,1-2.785-1.2A4.575,4.575,0,0,1,90.563,34.8Zm1.453.172a3.616,3.616,0,0,0,.652,2.258,2.211,2.211,0,0,0,3.5-.012,3.955,3.955,0,0,0,.648-2.418,3.61,3.61,0,0,0-.66-2.254,2.1,2.1,0,0,0-1.754-.863,2.075,2.075,0,0,0-1.727.852A3.925,3.925,0,0,0,92.016,34.867ZM101.3,37.82h4.945V39H99.539V37.938l4.664-6.2H99.609v-1.2h6.406V31.57Z" transform="translate(968.386 2199.664)" fill="#fff"/>
  </g>
</svg>
