<svg xmlns="http://www.w3.org/2000/svg" xmlns:xlink="http://www.w3.org/1999/xlink" width="77" height="77" viewBox="0 0 77 77">
  <defs>
    <clipPath id="clip-path">
      <rect id="Rectángulo_46438" data-name="Rectángulo 46438" width="43.34" height="43.332" fill="#fff"/>
    </clipPath>
  </defs>
  <g id="Grupo_154889" data-name="Grupo 154889" transform="translate(-0.271 0.354)">
    <circle id="Elipse_5803" data-name="Elipse 5803" cx="38.5" cy="38.5" r="38.5" transform="translate(0.271 76.647) rotate(-90)" fill="#2194e5"/>
    <g id="Grupo_154876" data-name="Grupo 154876" transform="translate(19.232 17.565)">
      <g id="Grupo_154875" data-name="Grupo 154875" clip-path="url(#clip-path)">
        <path id="Trazado_196809" data-name="Trazado 196809" d="M36.107,20.195c2.01.15,2.885.829,2.887,2.191s-.9,2.067-2.887,2.192v.469c0,1.414.041,2.83-.018,4.242a1.448,1.448,0,0,0,.734,1.4c.733-.511.893-.5,1.525.135,1.3,1.3,2.6,2.587,3.891,3.9a3.3,3.3,0,0,1,.863,3.682A3.255,3.255,0,0,1,37.8,39.522c-.554-.5-1.041-1.078-1.559-1.621l-.13.059c0,.561,0,1.123,0,1.684a3.6,3.6,0,0,1-3.1,3.645,4.43,4.43,0,0,1-.719.042q-14.237,0-28.475,0A3.618,3.618,0,0,1,0,39.5q0-1.963,0-3.927c0-.653.25-.9.895-.908s1.289,0,1.993,0V1.123C2.89.174,3.065,0,4.023,0H34.979c.95,0,1.127.177,1.127,1.13V20.195ZM17.869,14.444h-.559q-3.881,0-7.762,0c-.557,0-.891-.292-.877-.744S9,13,9.546,13q5.054,0,10.108.009a1.235,1.235,0,0,0,.42-.117c.88-.341,1.746-.722,2.642-1.012a.467.467,0,0,0,.4-.553c-.011-2.016-.006-4.032,0-6.048,0-.709.238-.946.947-.947q2.64,0,5.28,0c.768,0,.992.225.993.993,0,2.362.006,4.724-.007,7.086a.591.591,0,0,0,.344.6,10.743,10.743,0,0,1,3.768,3.62,2.038,2.038,0,0,0,.2.23V1.476H4.37V34.64H15.887c0-.685,0-1.344,0-2,.005-.593.264-.854.853-.859.888-.006,1.775,0,2.663,0a1.284,1.284,0,0,0,.209-.021l-2.994-2.677c0,.01-.008.094-.009.178-.014.9-.2,1.077-1.091,1.077q-3.317,0-6.634,0c-.7,0-.939-.243-.94-.954q0-2.618,0-5.236c0-.825.209-1.031,1.044-1.031h2.649a1.815,1.815,0,0,0-.011-.19,2.158,2.158,0,0,1,2.215-2.7c.267,0,.534,0,.742,0l1.033-2.889H9.964c-.949,0-1.3-.2-1.294-.734s.341-.711,1.316-.711h.948c1.775,0,3.55,0,5.325-.006a.724.724,0,0,0,.473-.158c.377-.385.72-.8,1.137-1.279M1.477,36.127a.945.945,0,0,0-.028.135c0,1.1-.006,2.2,0,3.295a2.174,2.174,0,0,0,2.346,2.33q12.682,0,25.364,0c.124,0,.249-.018.319-.023a14.046,14.046,0,0,1-.52-1.547,6.388,6.388,0,0,1-.067-1.3c-.008-.957,0-1.915,0-2.888ZM18.777,22.4a6.5,6.5,0,1,0,6.557-6.507A6.51,6.51,0,0,0,18.777,22.4m8.664,12.269c.615,0,1.29,0,1.964,0s.921.247.923.925c0,1.383-.011,2.766.005,4.148a2.162,2.162,0,0,0,4.325.005,15.646,15.646,0,0,1,.016-1.667,2.761,2.761,0,0,0-1.128-2.805c-.466-.349-.433-.72-.068-1.169.045-.055.082-.116.091-.129L31.1,31.512a11.3,11.3,0,0,1-3.423,1.448.445.445,0,0,0-.229.338c-.028.431-.011.865-.011,1.368m7.582.039c1.247,1.253,2.482,2.523,3.753,3.756a1.816,1.816,0,1,0,2.587-2.549c-1.229-1.274-2.5-2.508-3.756-3.758-.017-.017-.056-.011-.029-.007L35.024,34.7M9.421,24.555v4.3h5.728a9.1,9.1,0,0,0-.434-4.019c-.05-.116-.2-.265-.308-.266-1.651-.017-3.3-.011-4.985-.011m19.433-12.4V5.814H24.59V8.75a2.21,2.21,0,0,1,2.851,2.4c0,.206,0,.412,0,.621.269.065.487.113.7.172s.457.135.709.211m-5.6,17.935a8.037,8.037,0,0,1-5.684-5.677l-1.382.192a9.133,9.133,0,0,0,6.871,6.847l.195-1.363m-.2-16.8a9.223,9.223,0,0,0-6.866,6.945,5.65,5.65,0,0,1,.678.006,6.522,6.522,0,0,1,.7.161,8.062,8.062,0,0,1,5.687-5.715l-.2-1.4m11.328,6.945a9.235,9.235,0,0,0-6.9-6.921c-.064.454-.129.907-.2,1.377a8.057,8.057,0,0,1,5.693,5.715,6.144,6.144,0,0,1,.691-.165,6.09,6.09,0,0,1,.708-.006M32.971,24.41a8.038,8.038,0,0,1-5.68,5.678l.2,1.392A9.242,9.242,0,0,0,34.359,24.6l-1.387-.193M17.354,34.641H23.17c-.032-.483-.063-.94-.093-1.4H17.354ZM26,12.294c0-.466.009-.933,0-1.4a.722.722,0,1,0-1.438.011q-.014,1.377,0,2.753a.72.72,0,0,0,.7.781.728.728,0,0,0,.736-.793c.01-.451,0-.9,0-1.353M15.136,23.11c.466,0,.933.008,1.4,0a.729.729,0,0,0,.793-.736.72.72,0,0,0-.781-.7q-1.376-.015-2.752,0a.722.722,0,1,0-.012,1.438c.451.011.9,0,1.353,0m20.245,0c.466,0,.933.01,1.4,0a.721.721,0,0,0,.767-.716.712.712,0,0,0-.761-.72q-1.4-.018-2.8,0a.719.719,0,1,0-.005,1.436c.466.013.932,0,1.4,0M26,32.505c0-.466.01-.933,0-1.4a.721.721,0,0,0-.712-.77.711.711,0,0,0-.723.757q-.018,1.4,0,2.8a.719.719,0,1,0,1.436.013c.014-.466,0-.933,0-1.4m7.485-2.937-1.026.986L34.7,32.8l1.026-.989-2.249-2.239" transform="translate(0)" fill="#fff"/>
        <path id="Trazado_196810" data-name="Trazado 196810" d="M28.621,18.926c1.625,0,3.249,0,4.874,0,.5,0,.8.233.85.63a.733.733,0,0,1-.805.81c-1.008.009-2.015,0-3.023,0-2.257,0-4.513,0-6.769-.007a.976.976,0,0,1-.662-.181,1.044,1.044,0,0,1-.226-.752c.055-.367.381-.506.751-.5q2.1,0,4.2,0h.812" transform="translate(-14.133 -11.704)" fill="#fff"/>
        <path id="Trazado_196811" data-name="Trazado 196811" d="M40.779,26.5c.662,0,1.324,0,1.985,0,.536,0,.859.273.866.709s-.317.731-.843.733q-2.053.008-4.106,0a.73.73,0,0,1-.82-.709c-.008-.44.315-.727.842-.732.692-.006,1.384,0,2.076,0" transform="translate(-23.415 -16.384)" fill="#fff"/>
        <path id="Trazado_196812" data-name="Trazado 196812" d="M28.648,12.794c-.451,0-.9.008-1.353,0a.722.722,0,1,1,0-1.438q1.376-.014,2.752,0a.722.722,0,1,1,0,1.438c-.466.011-.933,0-1.4,0" transform="translate(-16.392 -7.017)" fill="#fff"/>
        <path id="Trazado_196813" data-name="Trazado 196813" d="M43.85,12.795c-.466,0-.933.007-1.4,0a.725.725,0,1,1,.009-1.44q1.354-.011,2.707,0a.725.725,0,0,1,.8.723.733.733,0,0,1-.814.717c-.436.008-.872,0-1.308,0" transform="translate(-25.756 -7.017)" fill="#fff"/>
        <path id="Trazado_196814" data-name="Trazado 196814" d="M24.866,27.936c-.451,0-.9.008-1.353,0A.722.722,0,1,1,23.5,26.5q1.376-.015,2.752,0a.722.722,0,1,1,.01,1.438c-.466.011-.933,0-1.4,0" transform="translate(-14.051 -16.381)" fill="#fff"/>
        <path id="Trazado_196815" data-name="Trazado 196815" d="M64,52.889a.7.7,0,0,1-.629.658,1.4,1.4,0,0,1-.4.009.659.659,0,0,0-.747.39,2.657,2.657,0,0,1-.832.791.479.479,0,0,0-.276.493,2.81,2.81,0,0,1,0,.54.717.717,0,0,1-.715.674.663.663,0,0,1-.7-.673,1.149,1.149,0,0,0-.7-1.311.819.819,0,0,1-.382-.43c-.168-.466-.5-.5-.92-.479-.567.026-.9-.264-.9-.715s.33-.737.9-.714c.416.016.714-.024.931-.472a2.079,2.079,0,0,1,.781-.715.469.469,0,0,0,.277-.491,2.342,2.342,0,0,1,.009-.585.675.675,0,0,1,.709-.623c.4,0,.728.245.693.62a1.245,1.245,0,0,0,.749,1.383.718.718,0,0,1,.324.365c.175.495.537.54.987.52a.734.734,0,0,1,.854.767m-2.888-.061a.719.719,0,1,0-.7.727.726.726,0,0,0,.7-.727" transform="translate(-35.119 -30.448)" fill="#fff"/>
      </g>
    </g>
  </g>
</svg>
