<svg xmlns="http://www.w3.org/2000/svg" xmlns:xlink="http://www.w3.org/1999/xlink" width="392" height="91" viewBox="0 0 392 91">
  <defs>
    <clipPath id="clip-path">
      <rect id="Rect치ngulo_46438" data-name="Rect치ngulo 46438" width="43.34" height="43.332" fill="#fff"/>
    </clipPath>
  </defs>
  <g id="Grupo_155239" data-name="Grupo 155239" transform="translate(-608 -2558)">
    <rect id="Rect치ngulo_46659" data-name="Rect치ngulo 46659" width="360" height="91" rx="14" transform="translate(640 2558)" fill="#ede7f7"/>
    <path id="Trazado_197256" data-name="Trazado 197256" d="M5.086,13.008l3.25-9.383H9.977L5.758,15H4.43L.219,3.625H1.852Zm9.352,2.148a3.693,3.693,0,0,1-2.8-1.129,4.19,4.19,0,0,1-1.078-3.02v-.266a5.073,5.073,0,0,1,.48-2.246,3.748,3.748,0,0,1,1.344-1.547,3.378,3.378,0,0,1,1.871-.559A3.166,3.166,0,0,1,16.82,7.477a4.7,4.7,0,0,1,.914,3.109v.6H12.008a3,3,0,0,0,.73,2.02,2.3,2.3,0,0,0,1.777.77,2.517,2.517,0,0,0,1.3-.312,3.259,3.259,0,0,0,.93-.828l.883.688A3.55,3.55,0,0,1,14.438,15.156Zm-.18-7.578a1.928,1.928,0,0,0-1.469.637A3.1,3.1,0,0,0,12.055,10h4.234V9.891A2.753,2.753,0,0,0,15.7,8.184,1.815,1.815,0,0,0,14.258,7.578Zm6.516-1.031.047,1.063a3.08,3.08,0,0,1,2.531-1.219q2.68,0,2.7,3.023V15H24.609V9.406a1.946,1.946,0,0,0-.418-1.352,1.675,1.675,0,0,0-1.277-.437,2.086,2.086,0,0,0-1.234.375,2.546,2.546,0,0,0-.828.984V15H19.406V6.547ZM30.2,4.5V6.547h1.578V7.664H30.2v5.249a1.173,1.173,0,0,0,.211.763.888.888,0,0,0,.719.254,3.5,3.5,0,0,0,.688-.094V15a4.215,4.215,0,0,1-1.109.155,1.8,1.8,0,0,1-1.461-.586,2.517,2.517,0,0,1-.492-1.664V7.664H27.211V6.547H28.75V4.5ZM38.68,15a3.036,3.036,0,0,1-.2-.891,3.225,3.225,0,0,1-2.406,1.047,2.984,2.984,0,0,1-2.051-.707,2.287,2.287,0,0,1-.8-1.793,2.39,2.39,0,0,1,1-2.051,4.733,4.733,0,0,1,2.824-.73h1.406V9.211A1.623,1.623,0,0,0,38,8a1.821,1.821,0,0,0-1.336-.449,2.107,2.107,0,0,0-1.3.391,1.151,1.151,0,0,0-.523.945H33.391a2,2,0,0,1,.449-1.223,3.066,3.066,0,0,1,1.219-.934,4.1,4.1,0,0,1,1.691-.344,3.342,3.342,0,0,1,2.289.73A2.635,2.635,0,0,1,39.9,9.133v3.891a4.757,4.757,0,0,0,.3,1.852V15Zm-2.4-1.1a2.54,2.54,0,0,0,1.289-.352,2.127,2.127,0,0,0,.883-.914V10.9H37.32q-2.656,0-2.656,1.555a1.316,1.316,0,0,0,.453,1.063A1.742,1.742,0,0,0,36.281,13.9Zm7.375-7.352v9.43q0,2.438-2.211,2.438a2.7,2.7,0,0,1-.883-.14V17.125a2.794,2.794,0,0,0,.656.063.982.982,0,0,0,.738-.262,1.3,1.3,0,0,0,.254-.911V6.547ZM42.063,4.3a.867.867,0,0,1,.215-.59.79.79,0,0,1,.629-.246.819.819,0,0,1,.641.242.854.854,0,0,1,.219.594.826.826,0,0,1-.219.586.834.834,0,0,1-.641.234.808.808,0,0,1-.633-.234A.843.843,0,0,1,42.063,4.3ZM51.2,15a3.036,3.036,0,0,1-.2-.891,3.225,3.225,0,0,1-2.406,1.047,2.984,2.984,0,0,1-2.051-.707,2.287,2.287,0,0,1-.8-1.793,2.39,2.39,0,0,1,1-2.051,4.733,4.733,0,0,1,2.824-.73h1.406V9.211A1.623,1.623,0,0,0,50.523,8a1.821,1.821,0,0,0-1.336-.449,2.107,2.107,0,0,0-1.3.391,1.151,1.151,0,0,0-.523.945H45.914a2,2,0,0,1,.449-1.223,3.066,3.066,0,0,1,1.219-.934,4.1,4.1,0,0,1,1.691-.344,3.342,3.342,0,0,1,2.289.73,2.635,2.635,0,0,1,.859,2.012v3.891a4.757,4.757,0,0,0,.3,1.852V15Zm-2.4-1.1a2.54,2.54,0,0,0,1.289-.352,2.127,2.127,0,0,0,.883-.914V10.9H49.844q-2.656,0-2.656,1.555a1.316,1.316,0,0,0,.453,1.063A1.742,1.742,0,0,0,48.8,13.9Zm13.234.078a2.082,2.082,0,0,0,1.352-.469,1.649,1.649,0,0,0,.641-1.172H65.4a2.621,2.621,0,0,1-.5,1.383,3.293,3.293,0,0,1-1.23,1.047,3.55,3.55,0,0,1-1.629.391A3.482,3.482,0,0,1,59.293,14a4.59,4.59,0,0,1-1.02-3.152v-.242a5.089,5.089,0,0,1,.453-2.2,3.451,3.451,0,0,1,1.3-1.492,3.7,3.7,0,0,1,2-.531,3.39,3.39,0,0,1,2.363.852,3.043,3.043,0,0,1,1,2.211H64.031a1.992,1.992,0,0,0-.621-1.348,1.932,1.932,0,0,0-1.379-.527,2.023,2.023,0,0,0-1.707.793,3.724,3.724,0,0,0-.605,2.293v.273a3.65,3.65,0,0,0,.6,2.25A2.033,2.033,0,0,0,62.039,13.977Zm4.6-3.281a4.993,4.993,0,0,1,.488-2.234A3.643,3.643,0,0,1,68.488,6.93a3.7,3.7,0,0,1,1.988-.539,3.565,3.565,0,0,1,2.793,1.2,4.6,4.6,0,0,1,1.066,3.18v.1a5.036,5.036,0,0,1-.473,2.215,3.589,3.589,0,0,1-1.352,1.527,3.743,3.743,0,0,1-2.02.547,3.556,3.556,0,0,1-2.785-1.2A4.575,4.575,0,0,1,66.641,10.8Zm1.453.172a3.616,3.616,0,0,0,.652,2.258,2.211,2.211,0,0,0,3.5-.012,3.955,3.955,0,0,0,.648-2.418,3.61,3.61,0,0,0-.66-2.254,2.1,2.1,0,0,0-1.754-.863,2.075,2.075,0,0,0-1.727.852A3.925,3.925,0,0,0,68.094,10.867Zm9.414-4.32.039.938a3.122,3.122,0,0,1,2.508-1.094A2.417,2.417,0,0,1,82.469,7.75a3.2,3.2,0,0,1,1.1-.984,3.242,3.242,0,0,1,1.6-.375q2.781,0,2.828,2.945V15H86.547V9.422a1.941,1.941,0,0,0-.414-1.355,1.823,1.823,0,0,0-1.391-.449,1.916,1.916,0,0,0-1.336.48,1.949,1.949,0,0,0-.617,1.293V15H81.336V9.461a1.613,1.613,0,0,0-1.8-1.844,1.934,1.934,0,0,0-1.945,1.211V15H76.141V6.547Zm19.8,4.32a5.062,5.062,0,0,1-.883,3.109,2.829,2.829,0,0,1-2.391,1.18,3.1,3.1,0,0,1-2.422-.977v4.07H90.172V6.547h1.32l.07.938a2.977,2.977,0,0,1,2.453-1.094,2.882,2.882,0,0,1,2.41,1.148,5.117,5.117,0,0,1,.887,3.2ZM95.867,10.7a3.735,3.735,0,0,0-.609-2.258,1.963,1.963,0,0,0-1.672-.828,2.125,2.125,0,0,0-1.969,1.164V12.82A2.129,2.129,0,0,0,93.6,13.977a1.954,1.954,0,0,0,1.652-.824A4.077,4.077,0,0,0,95.867,10.7Zm6.789,4.453a3.693,3.693,0,0,1-2.8-1.129,4.19,4.19,0,0,1-1.078-3.02v-.266a5.073,5.073,0,0,1,.48-2.246,3.748,3.748,0,0,1,1.344-1.547,3.378,3.378,0,0,1,1.871-.559,3.166,3.166,0,0,1,2.563,1.086,4.7,4.7,0,0,1,.914,3.109v.6h-5.727a3,3,0,0,0,.73,2.02,2.3,2.3,0,0,0,1.777.77,2.517,2.517,0,0,0,1.3-.312,3.259,3.259,0,0,0,.93-.828l.883.688A3.55,3.55,0,0,1,102.656,15.156Zm-.18-7.578a1.928,1.928,0,0,0-1.469.637A3.1,3.1,0,0,0,100.273,10h4.234V9.891a2.753,2.753,0,0,0-.594-1.707A1.815,1.815,0,0,0,102.477,7.578ZM109.586,4.5V6.547h1.578V7.664h-1.578v5.249a1.173,1.173,0,0,0,.211.763.888.888,0,0,0,.719.254,3.5,3.5,0,0,0,.688-.094V15a4.215,4.215,0,0,1-1.109.155,1.8,1.8,0,0,1-1.461-.586,2.517,2.517,0,0,1-.492-1.664V7.664H106.6V6.547h1.539V4.5ZM114.422,15h-1.445V6.547h1.445ZM112.859,4.3a.863.863,0,0,1,.215-.594.807.807,0,0,1,.637-.242.819.819,0,0,1,.641.242.854.854,0,0,1,.219.594.826.826,0,0,1-.219.586.834.834,0,0,1-.641.234.821.821,0,0,1-.637-.234A.834.834,0,0,1,112.859,4.3Zm5.836.2V6.547h1.578V7.664H118.7v5.249a1.173,1.173,0,0,0,.211.763.888.888,0,0,0,.719.254,3.5,3.5,0,0,0,.688-.094V15a4.215,4.215,0,0,1-1.109.155,1.8,1.8,0,0,1-1.461-.586,2.517,2.517,0,0,1-.492-1.664V7.664h-1.539V6.547h1.539V4.5ZM123.531,15h-1.445V6.547h1.445ZM121.969,4.3a.863.863,0,0,1,.215-.594.807.807,0,0,1,.637-.242.819.819,0,0,1,.641.242.854.854,0,0,1,.219.594.826.826,0,0,1-.219.586.834.834,0,0,1-.641.234.821.821,0,0,1-.637-.234A.834.834,0,0,1,121.969,4.3Zm6.664,8.734,2.094-6.492H132.2L129.172,15h-1.1l-3.062-8.453h1.477ZM138.7,15a3.036,3.036,0,0,1-.2-.891,3.225,3.225,0,0,1-2.406,1.047,2.984,2.984,0,0,1-2.051-.707,2.287,2.287,0,0,1-.8-1.793,2.39,2.39,0,0,1,1-2.051,4.733,4.733,0,0,1,2.824-.73h1.406V9.211A1.623,1.623,0,0,0,138.016,8a1.821,1.821,0,0,0-1.336-.449,2.107,2.107,0,0,0-1.3.391,1.151,1.151,0,0,0-.523.945h-1.453a2,2,0,0,1,.449-1.223,3.066,3.066,0,0,1,1.219-.934,4.1,4.1,0,0,1,1.691-.344,3.342,3.342,0,0,1,2.289.73,2.635,2.635,0,0,1,.859,2.012v3.891a4.757,4.757,0,0,0,.3,1.852V15Zm-2.4-1.1a2.54,2.54,0,0,0,1.289-.352,2.127,2.127,0,0,0,.883-.914V10.9h-1.133q-2.656,0-2.656,1.555a1.316,1.316,0,0,0,.453,1.063A1.742,1.742,0,0,0,136.3,13.9Zm9.492-3.2a4.952,4.952,0,0,1,.922-3.129,3.137,3.137,0,0,1,4.766-.168V3h1.445V15h-1.328l-.07-.906a2.943,2.943,0,0,1-2.414,1.063,2.887,2.887,0,0,1-2.395-1.2,5.008,5.008,0,0,1-.926-3.141Zm1.445.164a3.749,3.749,0,0,0,.594,2.25,1.919,1.919,0,0,0,1.641.813,2.108,2.108,0,0,0,2.008-1.234V8.813a2.125,2.125,0,0,0-1.992-1.2,1.929,1.929,0,0,0-1.656.82A4.128,4.128,0,0,0,147.234,10.867Zm11.438,4.289a3.693,3.693,0,0,1-2.8-1.129,4.19,4.19,0,0,1-1.078-3.02v-.266a5.073,5.073,0,0,1,.48-2.246,3.748,3.748,0,0,1,1.344-1.547,3.378,3.378,0,0,1,1.871-.559,3.166,3.166,0,0,1,2.563,1.086,4.7,4.7,0,0,1,.914,3.109v.6h-5.727a3,3,0,0,0,.73,2.02,2.3,2.3,0,0,0,1.777.77,2.517,2.517,0,0,0,1.3-.312,3.258,3.258,0,0,0,.93-.828l.883.688A3.55,3.55,0,0,1,158.672,15.156Zm-.18-7.578a1.928,1.928,0,0,0-1.469.637A3.1,3.1,0,0,0,156.289,10h4.234V9.891a2.753,2.753,0,0,0-.594-1.707A1.815,1.815,0,0,0,158.492,7.578Zm12.3,3.289a5.026,5.026,0,0,1-.891,3.113,2.846,2.846,0,0,1-2.391,1.176,2.947,2.947,0,0,1-2.477-1.133l-.07.977h-1.328V3h1.445V7.477A2.93,2.93,0,0,1,167.5,6.391a2.863,2.863,0,0,1,2.418,1.164,5.177,5.177,0,0,1,.879,3.188Zm-1.445-.164a3.906,3.906,0,0,0-.57-2.281,1.888,1.888,0,0,0-1.641-.8,2.122,2.122,0,0,0-2.055,1.328V12.6a2.181,2.181,0,0,0,2.07,1.328,1.878,1.878,0,0,0,1.617-.8A4.153,4.153,0,0,0,169.352,10.7Zm4.836,4.3h-1.445V6.547h1.445ZM172.625,4.3a.863.863,0,0,1,.215-.594.807.807,0,0,1,.637-.242.819.819,0,0,1,.641.242.854.854,0,0,1,.219.594.826.826,0,0,1-.219.586.834.834,0,0,1-.641.234.821.821,0,0,1-.637-.234A.834.834,0,0,1,172.625,4.3Zm3.523,6.4a4.952,4.952,0,0,1,.922-3.129,3.137,3.137,0,0,1,4.766-.168V3h1.445V15h-1.328l-.07-.906a2.943,2.943,0,0,1-2.414,1.063,2.887,2.887,0,0,1-2.395-1.2,5.008,5.008,0,0,1-.926-3.141Zm1.445.164a3.749,3.749,0,0,0,.594,2.25,1.919,1.919,0,0,0,1.641.813,2.108,2.108,0,0,0,2.008-1.234V8.813a2.125,2.125,0,0,0-1.992-1.2,1.929,1.929,0,0,0-1.656.82A4.128,4.128,0,0,0,177.594,10.867Zm7.547-.172a4.993,4.993,0,0,1,.488-2.234,3.642,3.642,0,0,1,1.359-1.531,3.7,3.7,0,0,1,1.988-.539,3.565,3.565,0,0,1,2.793,1.2,4.6,4.6,0,0,1,1.066,3.18v.1a5.036,5.036,0,0,1-.473,2.215,3.589,3.589,0,0,1-1.352,1.527,3.743,3.743,0,0,1-2.02.547,3.556,3.556,0,0,1-2.785-1.2,4.575,4.575,0,0,1-1.066-3.164Zm1.453.172a3.616,3.616,0,0,0,.652,2.258,2.211,2.211,0,0,0,3.5-.012,3.954,3.954,0,0,0,.648-2.418,3.61,3.61,0,0,0-.66-2.254,2.1,2.1,0,0,0-1.754-.863,2.075,2.075,0,0,0-1.727.852A3.925,3.925,0,0,0,186.594,10.867ZM203.828,15a3.036,3.036,0,0,1-.2-.891,3.225,3.225,0,0,1-2.406,1.047,2.984,2.984,0,0,1-2.051-.707,2.287,2.287,0,0,1-.8-1.793,2.39,2.39,0,0,1,1-2.051,4.733,4.733,0,0,1,2.824-.73H203.6V9.211A1.623,1.623,0,0,0,203.148,8a1.821,1.821,0,0,0-1.336-.449,2.107,2.107,0,0,0-1.3.391,1.151,1.151,0,0,0-.523.945h-1.453a2,2,0,0,1,.449-1.223,3.066,3.066,0,0,1,1.219-.934,4.1,4.1,0,0,1,1.691-.344,3.342,3.342,0,0,1,2.289.73,2.635,2.635,0,0,1,.859,2.012v3.891a4.757,4.757,0,0,0,.3,1.852V15Zm-2.4-1.1a2.54,2.54,0,0,0,1.289-.352,2.127,2.127,0,0,0,.883-.914V10.9h-1.133q-2.656,0-2.656,1.555a1.316,1.316,0,0,0,.453,1.063A1.742,1.742,0,0,0,201.43,13.9Zm7.453,1.1h-1.445V3h1.445ZM4.6,39.156a3.693,3.693,0,0,1-2.8-1.129,4.19,4.19,0,0,1-1.078-3.02v-.266a5.073,5.073,0,0,1,.48-2.246,3.748,3.748,0,0,1,1.344-1.547,3.378,3.378,0,0,1,1.871-.559,3.166,3.166,0,0,1,2.563,1.086A4.7,4.7,0,0,1,7.9,34.586v.6H2.172a3,3,0,0,0,.73,2.02,2.3,2.3,0,0,0,1.777.77,2.517,2.517,0,0,0,1.3-.312,3.259,3.259,0,0,0,.93-.828l.883.688A3.55,3.55,0,0,1,4.6,39.156Zm-.18-7.578a1.928,1.928,0,0,0-1.469.637A3.1,3.1,0,0,0,2.219,34H6.453v-.109a2.753,2.753,0,0,0-.594-1.707A1.815,1.815,0,0,0,4.422,31.578Zm10.07,5.18a1.064,1.064,0,0,0-.441-.91,4.249,4.249,0,0,0-1.539-.559,7.277,7.277,0,0,1-1.742-.562,2.479,2.479,0,0,1-.953-.781,1.869,1.869,0,0,1-.309-1.078,2.193,2.193,0,0,1,.879-1.758,3.432,3.432,0,0,1,2.246-.719,3.532,3.532,0,0,1,2.332.742,2.357,2.357,0,0,1,.895,1.9H14.406a1.3,1.3,0,0,0-.5-1.023,1.888,1.888,0,0,0-1.27-.43,1.976,1.976,0,0,0-1.234.344,1.082,1.082,0,0,0-.445.9.877.877,0,0,0,.414.789,5.1,5.1,0,0,0,1.5.508,7.8,7.8,0,0,1,1.754.578,2.558,2.558,0,0,1,1,.809,1.988,1.988,0,0,1,.324,1.152,2.163,2.163,0,0,1-.906,1.816,3.8,3.8,0,0,1-2.352.684,4.257,4.257,0,0,1-1.8-.359,2.922,2.922,0,0,1-1.223-1A2.42,2.42,0,0,1,9.219,36.4h1.445a1.5,1.5,0,0,0,.582,1.152,2.258,2.258,0,0,0,1.434.426A2.331,2.331,0,0,0,14,37.645,1.02,1.02,0,0,0,14.492,36.758ZM19.781,28.5v2.047h1.578v1.117H19.781v5.249a1.173,1.173,0,0,0,.211.763.888.888,0,0,0,.719.254,3.5,3.5,0,0,0,.688-.094V39a4.215,4.215,0,0,1-1.109.155,1.8,1.8,0,0,1-1.461-.586,2.517,2.517,0,0,1-.492-1.664V31.664H16.8V30.547h1.539V28.5ZM28.266,39a3.036,3.036,0,0,1-.2-.891,3.225,3.225,0,0,1-2.406,1.047,2.984,2.984,0,0,1-2.051-.707,2.287,2.287,0,0,1-.8-1.793,2.39,2.39,0,0,1,1-2.051,4.733,4.733,0,0,1,2.824-.73h1.406v-.664A1.623,1.623,0,0,0,27.586,32a1.821,1.821,0,0,0-1.336-.449,2.108,2.108,0,0,0-1.3.391,1.151,1.151,0,0,0-.523.945H22.977a2,2,0,0,1,.449-1.223,3.066,3.066,0,0,1,1.219-.934,4.1,4.1,0,0,1,1.691-.344,3.342,3.342,0,0,1,2.289.73,2.635,2.635,0,0,1,.859,2.012v3.891a4.757,4.757,0,0,0,.3,1.852V39Zm-2.4-1.1a2.54,2.54,0,0,0,1.289-.352,2.127,2.127,0,0,0,.883-.914V34.9H26.906q-2.656,0-2.656,1.555a1.316,1.316,0,0,0,.453,1.063A1.742,1.742,0,0,0,25.867,37.9ZM27.2,27.016h1.75l-2.094,2.3-1.164,0Zm5.914,3.531.047,1.063A3.08,3.08,0,0,1,35.7,30.391q2.68,0,2.7,3.023V39H36.953V33.406a1.946,1.946,0,0,0-.418-1.352,1.675,1.675,0,0,0-1.277-.437,2.086,2.086,0,0,0-1.234.375,2.546,2.546,0,0,0-.828.984V39H31.75V30.547ZM40.227,34.7a4.952,4.952,0,0,1,.922-3.129,3.137,3.137,0,0,1,4.766-.168V27h1.445V39H46.031l-.07-.906a2.943,2.943,0,0,1-2.414,1.063,2.887,2.887,0,0,1-2.395-1.2,5.008,5.008,0,0,1-.926-3.141Zm1.445.164a3.749,3.749,0,0,0,.594,2.25,1.919,1.919,0,0,0,1.641.813A2.108,2.108,0,0,0,45.914,36.7V32.813a2.125,2.125,0,0,0-1.992-1.2,1.929,1.929,0,0,0-1.656.82A4.128,4.128,0,0,0,41.672,34.867ZM54.82,39a3.036,3.036,0,0,1-.2-.891,3.225,3.225,0,0,1-2.406,1.047,2.984,2.984,0,0,1-2.051-.707,2.287,2.287,0,0,1-.8-1.793,2.39,2.39,0,0,1,1-2.051,4.733,4.733,0,0,1,2.824-.73h1.406v-.664A1.623,1.623,0,0,0,54.141,32a1.821,1.821,0,0,0-1.336-.449,2.107,2.107,0,0,0-1.3.391,1.151,1.151,0,0,0-.523.945H49.531a2,2,0,0,1,.449-1.223,3.066,3.066,0,0,1,1.219-.934,4.1,4.1,0,0,1,1.691-.344,3.342,3.342,0,0,1,2.289.73,2.635,2.635,0,0,1,.859,2.012v3.891a4.757,4.757,0,0,0,.3,1.852V39Zm-2.4-1.1a2.54,2.54,0,0,0,1.289-.352,2.127,2.127,0,0,0,.883-.914V34.9H53.461q-2.656,0-2.656,1.555a1.316,1.316,0,0,0,.453,1.063A1.742,1.742,0,0,0,52.422,37.9Zm9.969-6.055a4.331,4.331,0,0,0-.711-.055A1.9,1.9,0,0,0,59.75,33v6H58.3V30.547h1.406l.023.977a2.251,2.251,0,0,1,2.016-1.133,1.477,1.477,0,0,1,.641.109Zm9.375,0a4.331,4.331,0,0,0-.711-.055A1.9,1.9,0,0,0,69.125,33v6H67.68V30.547h1.406l.023.977a2.251,2.251,0,0,1,2.016-1.133,1.477,1.477,0,0,1,.641.109Zm4.688,7.313a3.693,3.693,0,0,1-2.8-1.129,4.19,4.19,0,0,1-1.078-3.02v-.266a5.073,5.073,0,0,1,.48-2.246A3.748,3.748,0,0,1,74.4,30.949a3.378,3.378,0,0,1,1.871-.559,3.166,3.166,0,0,1,2.563,1.086,4.7,4.7,0,0,1,.914,3.109v.6H74.023a3,3,0,0,0,.73,2.02,2.3,2.3,0,0,0,1.777.77,2.517,2.517,0,0,0,1.3-.312,3.259,3.259,0,0,0,.93-.828l.883.688A3.55,3.55,0,0,1,76.453,39.156Zm-.18-7.578a1.928,1.928,0,0,0-1.469.637A3.1,3.1,0,0,0,74.07,34H78.3v-.109a2.753,2.753,0,0,0-.594-1.707A1.815,1.815,0,0,0,76.273,31.578Zm8.539,6.4a2.082,2.082,0,0,0,1.352-.469,1.649,1.649,0,0,0,.641-1.172h1.367a2.621,2.621,0,0,1-.5,1.383,3.293,3.293,0,0,1-1.23,1.047,3.55,3.55,0,0,1-1.629.391A3.482,3.482,0,0,1,82.066,38a4.59,4.59,0,0,1-1.02-3.152v-.242a5.089,5.089,0,0,1,.453-2.2,3.451,3.451,0,0,1,1.3-1.492,3.7,3.7,0,0,1,2-.531,3.39,3.39,0,0,1,2.363.852,3.043,3.043,0,0,1,1,2.211H86.8a1.992,1.992,0,0,0-.621-1.348,1.932,1.932,0,0,0-1.379-.527,2.023,2.023,0,0,0-1.707.793,3.724,3.724,0,0,0-.605,2.293v.273a3.65,3.65,0,0,0,.6,2.25A2.033,2.033,0,0,0,84.813,37.977Zm4.6-3.281a4.993,4.993,0,0,1,.488-2.234,3.643,3.643,0,0,1,1.359-1.531,3.7,3.7,0,0,1,1.988-.539,3.565,3.565,0,0,1,2.793,1.2,4.6,4.6,0,0,1,1.066,3.18v.1a5.036,5.036,0,0,1-.473,2.215,3.589,3.589,0,0,1-1.352,1.527,3.743,3.743,0,0,1-2.02.547,3.556,3.556,0,0,1-2.785-1.2A4.575,4.575,0,0,1,89.414,34.8Zm1.453.172a3.616,3.616,0,0,0,.652,2.258,2.211,2.211,0,0,0,3.5-.012,3.955,3.955,0,0,0,.648-2.418A3.61,3.61,0,0,0,95,32.441a2.1,2.1,0,0,0-1.754-.863,2.075,2.075,0,0,0-1.727.852A3.925,3.925,0,0,0,90.867,34.867Zm9.422-4.32.047,1.063a3.08,3.08,0,0,1,2.531-1.219q2.68,0,2.7,3.023V39h-1.445V33.406a1.946,1.946,0,0,0-.418-1.352,1.675,1.675,0,0,0-1.277-.437,2.086,2.086,0,0,0-1.234.375,2.546,2.546,0,0,0-.828.984V39H98.922V30.547Zm7.078,4.148a4.993,4.993,0,0,1,.488-2.234,3.643,3.643,0,0,1,1.359-1.531,3.7,3.7,0,0,1,1.988-.539,3.565,3.565,0,0,1,2.793,1.2,4.6,4.6,0,0,1,1.066,3.18v.1a5.036,5.036,0,0,1-.473,2.215,3.589,3.589,0,0,1-1.352,1.527,3.743,3.743,0,0,1-2.02.547,3.556,3.556,0,0,1-2.785-1.2,4.575,4.575,0,0,1-1.066-3.164Zm1.453.172a3.616,3.616,0,0,0,.652,2.258,2.211,2.211,0,0,0,3.5-.012,3.955,3.955,0,0,0,.648-2.418,3.61,3.61,0,0,0-.66-2.254,2.1,2.1,0,0,0-1.754-.863,2.075,2.075,0,0,0-1.727.852A3.925,3.925,0,0,0,108.82,34.867Zm11.445,3.109a2.082,2.082,0,0,0,1.352-.469,1.649,1.649,0,0,0,.641-1.172h1.367a2.621,2.621,0,0,1-.5,1.383,3.293,3.293,0,0,1-1.23,1.047,3.55,3.55,0,0,1-1.629.391A3.482,3.482,0,0,1,117.52,38a4.59,4.59,0,0,1-1.02-3.152v-.242a5.089,5.089,0,0,1,.453-2.2,3.451,3.451,0,0,1,1.3-1.492,3.7,3.7,0,0,1,2-.531,3.39,3.39,0,0,1,2.363.852,3.043,3.043,0,0,1,1,2.211h-1.367a1.992,1.992,0,0,0-.621-1.348,1.932,1.932,0,0,0-1.379-.527,2.023,2.023,0,0,0-1.707.793,3.724,3.724,0,0,0-.605,2.293v.273a3.65,3.65,0,0,0,.6,2.25A2.033,2.033,0,0,0,120.266,37.977ZM126.82,39h-1.445V30.547h1.445Zm-1.562-10.7a.863.863,0,0,1,.215-.594.807.807,0,0,1,.637-.242.819.819,0,0,1,.641.242.854.854,0,0,1,.219.594.826.826,0,0,1-.219.586.834.834,0,0,1-.641.234.821.821,0,0,1-.637-.234A.834.834,0,0,1,125.258,28.3Zm3.523,6.4a4.952,4.952,0,0,1,.922-3.129,3.137,3.137,0,0,1,4.766-.168V27h1.445V39h-1.328l-.07-.906a2.943,2.943,0,0,1-2.414,1.063,2.887,2.887,0,0,1-2.395-1.2,5.008,5.008,0,0,1-.926-3.141Zm1.445.164a3.749,3.749,0,0,0,.594,2.25,1.919,1.919,0,0,0,1.641.813,2.108,2.108,0,0,0,2.008-1.234V32.813a2.125,2.125,0,0,0-1.992-1.2,1.929,1.929,0,0,0-1.656.82A4.128,4.128,0,0,0,130.227,34.867Zm7.547-.172a4.993,4.993,0,0,1,.488-2.234,3.642,3.642,0,0,1,1.359-1.531,3.7,3.7,0,0,1,1.988-.539,3.565,3.565,0,0,1,2.793,1.2,4.6,4.6,0,0,1,1.066,3.18v.1A5.036,5.036,0,0,1,145,37.082a3.589,3.589,0,0,1-1.352,1.527,3.743,3.743,0,0,1-2.02.547,3.556,3.556,0,0,1-2.785-1.2,4.575,4.575,0,0,1-1.066-3.164Zm1.453.172a3.616,3.616,0,0,0,.652,2.258,2.211,2.211,0,0,0,3.5-.012,3.954,3.954,0,0,0,.648-2.418,3.61,3.61,0,0,0-.66-2.254,2.1,2.1,0,0,0-1.754-.863,2.075,2.075,0,0,0-1.727.852A3.925,3.925,0,0,0,139.227,34.867Zm8.086,3.375a.905.905,0,0,1,.223-.625.848.848,0,0,1,.668-.25.874.874,0,0,1,.676.25.887.887,0,0,1,.23.625.839.839,0,0,1-.23.6.89.89,0,0,1-.676.242.8.8,0,0,1-.891-.844Z" transform="translate(705 2582)" fill="#12263f"/>
    <g id="Grupo_154889" data-name="Grupo 154889" transform="translate(607.729 2565.354)">
      <circle id="Elipse_5803" data-name="Elipse 5803" cx="38.5" cy="38.5" r="38.5" transform="translate(0.271 76.647) rotate(-90)" fill="#2194e5"/>
      <g id="Grupo_154876" data-name="Grupo 154876" transform="translate(19.232 17.565)">
        <g id="Grupo_154875" data-name="Grupo 154875" clip-path="url(#clip-path)">
          <path id="Trazado_196809" data-name="Trazado 196809" d="M36.107,20.195c2.01.15,2.885.829,2.887,2.191s-.9,2.067-2.887,2.192v.469c0,1.414.041,2.83-.018,4.242a1.448,1.448,0,0,0,.734,1.4c.733-.511.893-.5,1.525.135,1.3,1.3,2.6,2.587,3.891,3.9a3.3,3.3,0,0,1,.863,3.682A3.255,3.255,0,0,1,37.8,39.522c-.554-.5-1.041-1.078-1.559-1.621l-.13.059c0,.561,0,1.123,0,1.684a3.6,3.6,0,0,1-3.1,3.645,4.43,4.43,0,0,1-.719.042q-14.237,0-28.475,0A3.618,3.618,0,0,1,0,39.5q0-1.963,0-3.927c0-.653.25-.9.895-.908s1.289,0,1.993,0V1.123C2.89.174,3.065,0,4.023,0H34.979c.95,0,1.127.177,1.127,1.13V20.195ZM17.869,14.444h-.559q-3.881,0-7.762,0c-.557,0-.891-.292-.877-.744S9,13,9.546,13q5.054,0,10.108.009a1.235,1.235,0,0,0,.42-.117c.88-.341,1.746-.722,2.642-1.012a.467.467,0,0,0,.4-.553c-.011-2.016-.006-4.032,0-6.048,0-.709.238-.946.947-.947q2.64,0,5.28,0c.768,0,.992.225.993.993,0,2.362.006,4.724-.007,7.086a.591.591,0,0,0,.344.6,10.743,10.743,0,0,1,3.768,3.62,2.038,2.038,0,0,0,.2.23V1.476H4.37V34.64H15.887c0-.685,0-1.344,0-2,.005-.593.264-.854.853-.859.888-.006,1.775,0,2.663,0a1.284,1.284,0,0,0,.209-.021l-2.994-2.677c0,.01-.008.094-.009.178-.014.9-.2,1.077-1.091,1.077q-3.317,0-6.634,0c-.7,0-.939-.243-.94-.954q0-2.618,0-5.236c0-.825.209-1.031,1.044-1.031h2.649a1.815,1.815,0,0,0-.011-.19,2.158,2.158,0,0,1,2.215-2.7c.267,0,.534,0,.742,0l1.033-2.889H9.964c-.949,0-1.3-.2-1.294-.734s.341-.711,1.316-.711h.948c1.775,0,3.55,0,5.325-.006a.724.724,0,0,0,.473-.158c.377-.385.72-.8,1.137-1.279M1.477,36.127a.945.945,0,0,0-.028.135c0,1.1-.006,2.2,0,3.295a2.174,2.174,0,0,0,2.346,2.33q12.682,0,25.364,0c.124,0,.249-.018.319-.023a14.046,14.046,0,0,1-.52-1.547,6.388,6.388,0,0,1-.067-1.3c-.008-.957,0-1.915,0-2.888ZM18.777,22.4a6.5,6.5,0,1,0,6.557-6.507A6.51,6.51,0,0,0,18.777,22.4m8.664,12.269c.615,0,1.29,0,1.964,0s.921.247.923.925c0,1.383-.011,2.766.005,4.148a2.162,2.162,0,0,0,4.325.005,15.646,15.646,0,0,1,.016-1.667,2.761,2.761,0,0,0-1.128-2.805c-.466-.349-.433-.72-.068-1.169.045-.055.082-.116.091-.129L31.1,31.512a11.3,11.3,0,0,1-3.423,1.448.445.445,0,0,0-.229.338c-.028.431-.011.865-.011,1.368m7.582.039c1.247,1.253,2.482,2.523,3.753,3.756a1.816,1.816,0,1,0,2.587-2.549c-1.229-1.274-2.5-2.508-3.756-3.758-.017-.017-.056-.011-.029-.007L35.024,34.7M9.421,24.555v4.3h5.728a9.1,9.1,0,0,0-.434-4.019c-.05-.116-.2-.265-.308-.266-1.651-.017-3.3-.011-4.985-.011m19.433-12.4V5.814H24.59V8.75a2.21,2.21,0,0,1,2.851,2.4c0,.206,0,.412,0,.621.269.065.487.113.7.172s.457.135.709.211m-5.6,17.935a8.037,8.037,0,0,1-5.684-5.677l-1.382.192a9.133,9.133,0,0,0,6.871,6.847l.195-1.363m-.2-16.8a9.223,9.223,0,0,0-6.866,6.945,5.65,5.65,0,0,1,.678.006,6.522,6.522,0,0,1,.7.161,8.062,8.062,0,0,1,5.687-5.715l-.2-1.4m11.328,6.945a9.235,9.235,0,0,0-6.9-6.921c-.064.454-.129.907-.2,1.377a8.057,8.057,0,0,1,5.693,5.715,6.144,6.144,0,0,1,.691-.165,6.09,6.09,0,0,1,.708-.006M32.971,24.41a8.038,8.038,0,0,1-5.68,5.678l.2,1.392A9.242,9.242,0,0,0,34.359,24.6l-1.387-.193M17.354,34.641H23.17c-.032-.483-.063-.94-.093-1.4H17.354ZM26,12.294c0-.466.009-.933,0-1.4a.722.722,0,1,0-1.438.011q-.014,1.377,0,2.753a.72.72,0,0,0,.7.781.728.728,0,0,0,.736-.793c.01-.451,0-.9,0-1.353M15.136,23.11c.466,0,.933.008,1.4,0a.729.729,0,0,0,.793-.736.72.72,0,0,0-.781-.7q-1.376-.015-2.752,0a.722.722,0,1,0-.012,1.438c.451.011.9,0,1.353,0m20.245,0c.466,0,.933.01,1.4,0a.721.721,0,0,0,.767-.716.712.712,0,0,0-.761-.72q-1.4-.018-2.8,0a.719.719,0,1,0-.005,1.436c.466.013.932,0,1.4,0M26,32.505c0-.466.01-.933,0-1.4a.721.721,0,0,0-.712-.77.711.711,0,0,0-.723.757q-.018,1.4,0,2.8a.719.719,0,1,0,1.436.013c.014-.466,0-.933,0-1.4m7.485-2.937-1.026.986L34.7,32.8l1.026-.989-2.249-2.239" transform="translate(0)" fill="#fff"/>
          <path id="Trazado_196810" data-name="Trazado 196810" d="M28.621,18.926c1.625,0,3.249,0,4.874,0,.5,0,.8.233.85.63a.733.733,0,0,1-.805.81c-1.008.009-2.015,0-3.023,0-2.257,0-4.513,0-6.769-.007a.976.976,0,0,1-.662-.181,1.044,1.044,0,0,1-.226-.752c.055-.367.381-.506.751-.5q2.1,0,4.2,0h.812" transform="translate(-14.133 -11.704)" fill="#fff"/>
          <path id="Trazado_196811" data-name="Trazado 196811" d="M40.779,26.5c.662,0,1.324,0,1.985,0,.536,0,.859.273.866.709s-.317.731-.843.733q-2.053.008-4.106,0a.73.73,0,0,1-.82-.709c-.008-.44.315-.727.842-.732.692-.006,1.384,0,2.076,0" transform="translate(-23.415 -16.384)" fill="#fff"/>
          <path id="Trazado_196812" data-name="Trazado 196812" d="M28.648,12.794c-.451,0-.9.008-1.353,0a.722.722,0,1,1,0-1.438q1.376-.014,2.752,0a.722.722,0,1,1,0,1.438c-.466.011-.933,0-1.4,0" transform="translate(-16.392 -7.017)" fill="#fff"/>
          <path id="Trazado_196813" data-name="Trazado 196813" d="M43.85,12.795c-.466,0-.933.007-1.4,0a.725.725,0,1,1,.009-1.44q1.354-.011,2.707,0a.725.725,0,0,1,.8.723.733.733,0,0,1-.814.717c-.436.008-.872,0-1.308,0" transform="translate(-25.756 -7.017)" fill="#fff"/>
          <path id="Trazado_196814" data-name="Trazado 196814" d="M24.866,27.936c-.451,0-.9.008-1.353,0A.722.722,0,1,1,23.5,26.5q1.376-.015,2.752,0a.722.722,0,1,1,.01,1.438c-.466.011-.933,0-1.4,0" transform="translate(-14.051 -16.381)" fill="#fff"/>
          <path id="Trazado_196815" data-name="Trazado 196815" d="M64,52.889a.7.7,0,0,1-.629.658,1.4,1.4,0,0,1-.4.009.659.659,0,0,0-.747.39,2.657,2.657,0,0,1-.832.791.479.479,0,0,0-.276.493,2.81,2.81,0,0,1,0,.54.717.717,0,0,1-.715.674.663.663,0,0,1-.7-.673,1.149,1.149,0,0,0-.7-1.311.819.819,0,0,1-.382-.43c-.168-.466-.5-.5-.92-.479-.567.026-.9-.264-.9-.715s.33-.737.9-.714c.416.016.714-.024.931-.472a2.079,2.079,0,0,1,.781-.715.469.469,0,0,0,.277-.491,2.342,2.342,0,0,1,.009-.585.675.675,0,0,1,.709-.623c.4,0,.728.245.693.62a1.245,1.245,0,0,0,.749,1.383.718.718,0,0,1,.324.365c.175.495.537.54.987.52a.734.734,0,0,1,.854.767m-2.888-.061a.719.719,0,1,0-.7.727.726.726,0,0,0,.7-.727" transform="translate(-35.119 -30.448)" fill="#fff"/>
        </g>
      </g>
    </g>
  </g>
</svg>
