<svg xmlns="http://www.w3.org/2000/svg" xmlns:xlink="http://www.w3.org/1999/xlink" width="77" height="77" viewBox="0 0 77 77">
  <defs>
    <clipPath id="clip-path">
      <rect id="Rectángulo_46451" data-name="Rectángulo 46451" width="48.1" height="48.112" fill="#fff"/>
    </clipPath>
  </defs>
  <g id="Grupo_154893" data-name="Grupo 154893" transform="translate(-0.306 0.471)">
    <circle id="Elipse_5809" data-name="Elipse 5809" cx="38.5" cy="38.5" r="38.5" transform="translate(0.306 76.529) rotate(-90)" fill="#2194e5"/>
    <g id="Grupo_154884" data-name="Grupo 154884" transform="translate(14.999 14.33)">
      <g id="Grupo_154883" data-name="Grupo 154883" clip-path="url(#clip-path)">
        <path id="Trazado_196827" data-name="Trazado 196827" d="M45,11.643H43.989a6.982,6.982,0,1,0-10.4,0H24.049V3.885a.777.777,0,0,0-.777-.777h-3.1a.777.777,0,0,0-.777.777v7.758h-.777V.782A.777.777,0,0,0,17.84.005h-3.1a.777.777,0,0,0-.777.777V11.643h-.777V6.212a.777.777,0,0,0-.777-.777H9.31a.777.777,0,0,0-.777.777v5.431H3.1a3.108,3.108,0,0,0-3.1,3.1V38.02a3.108,3.108,0,0,0,3.1,3.1H19.094l-1.036,3.1H15.516a.777.777,0,0,0-.777.777v1.554H6.982a.777.777,0,1,0,0,1.554H41.117a.777.777,0,0,0,0-1.554h-7.76V45a.777.777,0,0,0-.777-.777h-2.54l-1.036-3.1H45a3.108,3.108,0,0,0,3.1-3.1V14.746a3.108,3.108,0,0,0-3.1-3.1M39.565,1.613a5.438,5.438,0,0,1,4.6,4.6h-4.6Zm-.458,6.15H44.16a5.427,5.427,0,0,1-8.625,3.572Zm-5.751-.777a5.439,5.439,0,0,1,4.655-5.374V6.666L34.445,10.24a5.4,5.4,0,0,1-1.083-3.25ZM20.943,4.656H22.5V19.4H20.943Zm-2.331,8.534h.777V19.4h-.777Zm-3.1-11.632H17.07V19.4H15.516ZM13.185,13.194h.777V19.4h-.777Zm-3.1-6.206h1.554V19.4H10.081ZM31.808,46.555H16.292v-.777H31.808ZM19.7,44.224l1.036-3.1h6.634l1.036,3.1Zm26.848-6.206a1.554,1.554,0,0,1-1.554,1.554H3.1A1.554,1.554,0,0,1,1.55,38.018V36.464h45Zm0-3.1H1.554V14.746a1.554,1.554,0,0,1,1.554-1.554H8.539V19.4H7.762V14.746a.777.777,0,0,0-.777-.777H3.879a.777.777,0,0,0-.777.777v5.431a.777.777,0,0,0,.777.777H28.7a.777.777,0,0,0,.777-.777V14.746a.777.777,0,0,0-.777-.777H25.6a.777.777,0,0,0-.777.777V19.4h-.777V13.194H35.6a6.956,6.956,0,0,0,6.388,0H45a1.554,1.554,0,0,1,1.554,1.554ZM6.206,19.4H4.652V15.522H6.206Zm20.171-3.879h1.554V19.4H26.377Z" transform="translate(0 0)" fill="#fff"/>
        <path id="Trazado_196828" data-name="Trazado 196828" d="M14.939,114.041H10.285a.777.777,0,0,0,0,1.554H14.94a.777.777,0,0,0,0-1.554Z" transform="translate(-6.405 -76.797)" fill="#fff"/>
        <path id="Trazado_196829" data-name="Trazado 196829" d="M32.442,114.041h-.777a.777.777,0,0,0,0,1.554h.777a.777.777,0,0,0,0-1.554" transform="translate(-20.802 -76.797)" fill="#fff"/>
        <path id="Trazado_196830" data-name="Trazado 196830" d="M98.177,49.8a.779.779,0,0,0,.548-.227L101.6,46.7h6.661a.777.777,0,1,0,0-1.554h-6.982a.775.775,0,0,0-.548.227l-3.1,3.1a.777.777,0,0,0,.548,1.324Z" transform="translate(-65.592 -30.403)" fill="#fff"/>
        <path id="Trazado_196831" data-name="Trazado 196831" d="M49.05,74.368a2.33,2.33,0,0,0-2.012,1.161L38.916,70.79a2.331,2.331,0,0,0-4.568.058l-8.173,6.129a2.326,2.326,0,0,0-4.023.212l-8.078-3.367a2.331,2.331,0,1,0-.19,1.6l8.078,3.367a2.331,2.331,0,0,0,4.552-.128l8.172-6.129a2.325,2.325,0,0,0,3.962-.1l8.122,4.739a2.331,2.331,0,1,0,2.279-2.8Zm-36.462,0a.777.777,0,1,1-.777-.777.777.777,0,0,1,.777.777m11.637,4.651A.777.777,0,1,1,25,78.241.777.777,0,0,1,24.224,79.018Zm12.413-6.982a.777.777,0,1,1,.777-.777.777.777,0,0,1-.777.777m12.412,5.431a.777.777,0,1,1,.777-.777.777.777,0,0,1-.777.777h0Z" transform="translate(-6.381 -46.432)" fill="#fff"/>
        <path id="Trazado_196832" data-name="Trazado 196832" d="M98.857,99.787H93.428a.777.777,0,0,0,0,1.554h5.431a.777.777,0,0,0,0-1.554Z" transform="translate(-62.395 -67.198)" fill="#fff"/>
        <path id="Trazado_196833" data-name="Trazado 196833" d="M105.246,92.661h-2.331a.777.777,0,0,0,0,1.554h2.331a.777.777,0,0,0,0-1.554" transform="translate(-68.783 -62.399)" fill="#fff"/>
        <path id="Trazado_196834" data-name="Trazado 196834" d="M10.28,68.085h8.534a.777.777,0,1,0,0-1.554H10.28a.777.777,0,1,0,0,1.554" transform="translate(-6.399 -44.803)" fill="#fff"/>
        <path id="Trazado_196835" data-name="Trazado 196835" d="M43.536,68.085h.777a.777.777,0,1,0,0-1.554h-.777a.777.777,0,0,0,0,1.554" transform="translate(-28.795 -44.803)" fill="#fff"/>
      </g>
    </g>
  </g>
</svg>
