<svg xmlns="http://www.w3.org/2000/svg" xmlns:xlink="http://www.w3.org/1999/xlink" width="77" height="77" viewBox="0 0 77 77">
  <defs>
    <clipPath id="clip-path">
      <rect id="Rectángulo_46450" data-name="Rectángulo 46450" width="52.493" height="51.493" fill="#fff"/>
    </clipPath>
  </defs>
  <g id="Grupo_154894" data-name="Grupo 154894" transform="translate(-0.224 0.354)">
    <circle id="Elipse_5811" data-name="Elipse 5811" cx="38.5" cy="38.5" r="38.5" transform="translate(0.224 76.647) rotate(-90)" fill="#2194e5"/>
    <g id="Grupo_154882" data-name="Grupo 154882" transform="translate(12.812 12.812)">
      <g id="Grupo_154881" data-name="Grupo 154881" clip-path="url(#clip-path)">
        <path id="Trazado_196825" data-name="Trazado 196825" d="M52.493,26.051a1.311,1.311,0,0,1-1.165.465c-1.023-.02-2.047-.006-3.117-.006a21.118,21.118,0,0,1-6.429,14.455A21.914,21.914,0,0,1,27.014,47.3c0,.818,0,1.616,0,2.414,0,.335.012.672-.009,1.006a.752.752,0,0,1-.766.778.744.744,0,0,1-.754-.787c-.02-.972-.009-1.944-.01-2.917,0-.149,0-.3,0-.491a21.938,21.938,0,0,1-14.738-6.3A21.128,21.128,0,0,1,4.278,26.51H2.433c-.53,0-1.06.013-1.589-.008S0,26.181,0,25.745s.32-.731.854-.738c.94-.013,1.88,0,2.82,0H4.23c.127-1,.218-1.965.376-2.917a20.747,20.747,0,0,1,3.829-8.948.785.785,0,0,1,1.14-.294c.4.268.443.708.093,1.188a19.337,19.337,0,0,0-3.455,7.816c-.195,1.016-.294,2.048-.444,3.12H8.456c.3-8.7,7.872-16.332,16.988-16.671V5.7c-.836.088-1.666.137-2.482.27a20.312,20.312,0,0,0-11.053,5.5,1.7,1.7,0,0,1-.625.405.735.735,0,0,1-.657-1.269c.826-.726,1.627-1.489,2.512-2.141a21.789,21.789,0,0,1,12.007-4.24c.083,0,.166-.014.329-.029V2.4c0-.436.019-.873,0-1.307A1.169,1.169,0,0,1,25.937,0h.615a1.215,1.215,0,0,1,.467,1.143c-.024.468-.005.938-.005,1.408V4.2c.179.014.279.023.379.029A21.791,21.791,0,0,1,39.347,8.466c.845.621,1.62,1.336,2.4,2.037a.7.7,0,0,1,.023,1.074.794.794,0,0,1-1.068.01,2.929,2.929,0,0,1-.225-.2,20.165,20.165,0,0,0-10.33-5.3c-1.012-.192-2.047-.271-3.088-.405V8.331A17.771,17.771,0,0,1,38.8,13.449a17.151,17.151,0,0,1,5.206,11.525h2.71c-.145-1.062-.239-2.092-.434-3.1a19.349,19.349,0,0,0-3.567-7.98c-.357-.48-.319-.914.073-1.191a.791.791,0,0,1,1.146.279,20.743,20.743,0,0,1,3.942,9.058c.166.967.254,1.947.383,2.965,1.04,0,2.08.016,3.119-.007a1.256,1.256,0,0,1,1.116.454Zm-10.034-.3A16.059,16.059,0,0,0,26.269,9.843a16.059,16.059,0,0,0-16.24,15.906,16.061,16.061,0,0,0,16.19,15.907A16.063,16.063,0,0,0,42.46,25.749m-36.565.789c.083,10.23,9.3,19.113,19.539,19.171V43.286C15.389,41.907,9.739,36.359,8.363,26.511c-.659,0-1.392,0-2.124,0-.115,0-.231.017-.344.026M27.046,45.781a20.375,20.375,0,0,0,14.148-6.409,19.52,19.52,0,0,0,5.464-12.818H44.124c-1.419,9.855-7.075,15.4-17.078,16.73Z" transform="translate(0 -0.001)" fill="#fff"/>
        <path id="Trazado_196826" data-name="Trazado 196826" d="M50.686,42.385c1.416,0,2.8,0,4.181,0a3.932,3.932,0,0,1,.511.016.692.692,0,0,1,.657.713.669.669,0,0,1-.622.738,11.729,11.729,0,0,1-1.278.039c-1.142,0-2.284,0-3.449,0a7.441,7.441,0,0,1-6.552,6.422v1.131c0,1.072.006,2.145,0,3.217-.005.558-.294.893-.744.908-.466.015-.783-.336-.788-.915-.01-1.256,0-2.513,0-3.77v-.571a7.443,7.443,0,0,1-6.551-6.423H34.892c-1.093,0-2.186.008-3.28,0-.589-.007-.946-.324-.93-.78s.359-.719.928-.722c1.468-.006,2.936,0,4.429,0a7.432,7.432,0,0,1,6.554-6.436c0-1.28,0-2.549,0-3.819,0-.235-.01-.47.012-.7a.758.758,0,0,1,.759-.732.741.741,0,0,1,.751.738c.027.736.014,1.474.015,2.212,0,.753,0,1.507,0,2.3a7.435,7.435,0,0,1,6.552,6.44m-13,0h.545c.82,0,1.641-.009,2.46.011a.69.69,0,0,1,.736.686.71.71,0,0,1-.684.788,5.54,5.54,0,0,1-.716.023c-.781,0-1.562,0-2.347,0,.217,2.438,2.738,4.877,4.918,4.774,0-.2,0-.394,0-.592,0-.771-.013-1.543.015-2.313a.707.707,0,0,1,.748-.729.721.721,0,0,1,.763.717c.022.216.012.435.013.653q0,1.149,0,2.3c2.441-.16,4.932-2.625,4.878-4.811-.439,0-.881,0-1.322,0-.58-.005-1.163.013-1.74-.035a.666.666,0,0,1-.645-.764.682.682,0,0,1,.672-.693,5.366,5.366,0,0,1,.614-.016q1.222,0,2.445,0a5.537,5.537,0,0,0-4.9-4.812v.541c0,.771.011,1.542-.008,2.313a.762.762,0,1,1-1.523.012c-.021-.552-.008-1.106-.008-1.659,0-.41,0-.82,0-1.238a5.619,5.619,0,0,0-4.913,4.844" transform="translate(-17.119 -17.384)" fill="#fff"/>
      </g>
    </g>
  </g>
</svg>
