<svg xmlns="http://www.w3.org/2000/svg" xmlns:xlink="http://www.w3.org/1999/xlink" width="227.535" height="311.302" viewBox="0 0 227.535 311.302">
  <defs>
    <linearGradient id="linear-gradient" x1="0.5" y1="1.356" x2="0.5" y2="0.614" gradientUnits="objectBoundingBox">
      <stop offset="0" stop-color="#7e53c5"/>
      <stop offset="1" stop-color="#080383"/>
    </linearGradient>
    <clipPath id="clip-path">
      <rect id="Rectángulo_46053" data-name="Rectángulo 46053" width="67.875" height="65.314" fill="#fff"/>
    </clipPath>
  </defs>
  <g id="Grupo_155230" data-name="Grupo 155230" transform="translate(-1192.465 -2011.164)">
    <rect id="Rectángulo_46049" data-name="Rectángulo 46049" width="227.535" height="311.302" rx="7" transform="translate(1192.465 2011.164)" fill="url(#linear-gradient)"/>
    <path id="Trazado_197249" data-name="Trazado 197249" d="M92.285,5.785,87.5,17H84.375l4.79-10.512h-6.1V4.2h9.22Zm1.538.879A2.512,2.512,0,0,1,94.6,4.748a3.334,3.334,0,0,1,4.157,0,2.578,2.578,0,0,1,.765,1.964v.633a2.5,2.5,0,0,1-.765,1.907,2.889,2.889,0,0,1-2.065.721,2.968,2.968,0,0,1-2.079-.716,2.524,2.524,0,0,1-.787-1.964Zm1.907.675a1.062,1.062,0,0,0,.255.738.9.9,0,0,0,.7.284q.923,0,.923-1.17V6.666a1.12,1.12,0,0,0-.246-.747.857.857,0,0,0-.694-.293.876.876,0,0,0-.686.284,1.114,1.114,0,0,0-.255.773Zm4.175,6.524a2.487,2.487,0,0,1,.778-1.916,2.924,2.924,0,0,1,2.07-.721,2.956,2.956,0,0,1,2.083.712,2.565,2.565,0,0,1,.773,1.986v.615a2.509,2.509,0,0,1-.765,1.916,2.9,2.9,0,0,1-2.074.721,2.968,2.968,0,0,1-2.079-.716,2.524,2.524,0,0,1-.787-1.964Zm1.9.675a1.039,1.039,0,0,0,.281.72.891.891,0,0,0,.686.31.808.808,0,0,0,.923-.8l.009-.9a1.075,1.075,0,0,0-.255-.747.992.992,0,0,0-1.371-.017,1.061,1.061,0,0,0-.272.72Zm-4.553,1.505-1.38-.694,6.249-10,1.38.694Z" transform="translate(1212 2158.164)" fill="#3cffe9"/>
    <g id="Grupo_154388" data-name="Grupo 154388" transform="translate(1268.053 2053.586)">
      <g id="Grupo_154374" data-name="Grupo 154374" transform="translate(0 2.87)">
        <line id="Línea_1807" data-name="Línea 1807" x2="77.131" y2="0.771" transform="translate(0 66.441)" fill="none" stroke="#fff" stroke-width="1" stroke-dasharray="6"/>
        <g id="Grupo_153193" data-name="Grupo 153193" transform="translate(22.23 11.293) rotate(180)">
          <rect id="Rectángulo_45221" data-name="Rectángulo 45221" width="2.151" height="2.151" transform="translate(9.142 9.142)" fill="#1894f6"/>
          <rect id="Rectángulo_45222" data-name="Rectángulo 45222" width="2.151" height="2.151" transform="translate(4.571 9.142)" fill="#1894f6"/>
          <rect id="Rectángulo_45223" data-name="Rectángulo 45223" width="2.151" height="2.151" transform="translate(0 9.142)" fill="#1894f6"/>
          <rect id="Rectángulo_45232" data-name="Rectángulo 45232" width="2.151" height="2.151" transform="translate(9.142 4.571)" fill="#1894f6"/>
          <rect id="Rectángulo_45233" data-name="Rectángulo 45233" width="2.151" height="2.151" transform="translate(4.571 4.571)" fill="#1894f6"/>
          <rect id="Rectángulo_45234" data-name="Rectángulo 45234" width="2.151" height="2.151" transform="translate(0 4.571)" fill="#1894f6"/>
          <rect id="Rectángulo_45243" data-name="Rectángulo 45243" width="2.151" height="2.151" transform="translate(9.142)" fill="#1894f6"/>
          <rect id="Rectángulo_45244" data-name="Rectángulo 45244" width="2.151" height="2.151" transform="translate(4.571)" fill="#1894f6"/>
          <rect id="Rectángulo_45245" data-name="Rectángulo 45245" width="2.151" height="2.151" fill="#1894f6"/>
        </g>
      </g>
      <g id="Grupo_154381" data-name="Grupo 154381" transform="translate(4.628 0)">
        <g id="Grupo_154380" data-name="Grupo 154380" transform="translate(0)" clip-path="url(#clip-path)">
          <path id="Trazado_196213" data-name="Trazado 196213" d="M137.948,78.765c-.669,1.634-1.264,3.3-2.021,4.9a29.835,29.835,0,0,1-9.465,11.792,23.883,23.883,0,0,1-20.9,3.05c-.745-.248-1.049-.714-.868-1.326.171-.576.727-.8,1.467-.57a21.614,21.614,0,0,0,16.6-1.231,24.079,24.079,0,0,0,9.409-8.957,37.043,37.043,0,0,0,3.653-7.664,1.142,1.142,0,0,0-.375-1.471q-2.6-1.877-5.222-3.732a6.574,6.574,0,0,0-.578-.322c-.686-.392-.894-.916-.582-1.466s.868-.658,1.554-.265c1.034.594,2.075,1.182,3.061,1.85.895.605,1.726,1.308,2.576,1.98a4.716,4.716,0,0,1,1.7,2.233Z" transform="translate(-70.073 -47.579)" fill="#fff"/>
          <path id="Trazado_196214" data-name="Trazado 196214" d="M85.956,82.27a88.726,88.726,0,0,1,20.107,2.659c1.7.429,2.122,1.816.919,3.074a39.6,39.6,0,0,1-11.148,8.341,21.493,21.493,0,0,1-20.4-.3,40.107,40.107,0,0,1-10.647-8.141,1.66,1.66,0,0,1,.82-2.917,75.709,75.709,0,0,1,12.625-2.214c2.57-.224,5.149-.342,7.724-.507m-19.4,4.554c1.6,1.957,6.556,5.869,8.233,6.53a.577.577,0,0,0,.117-.062,8.09,8.09,0,0,1,10.62.1c.367.33.606.16.906-.09a8.015,8.015,0,0,1,10.254-.2.648.648,0,0,0,.921.014c1.516-1.109,3.078-2.156,4.549-3.322,1.116-.885,2.12-1.914,3.174-2.879l-.075-.248a9.683,9.683,0,0,0-2.31-.117c-3.573.674-7.116,1.511-10.694,2.153a33.707,33.707,0,0,1-9.626.4A98.786,98.786,0,0,1,69.24,86.619a4.769,4.769,0,0,0-2.68.205m6.773-1.4a45.438,45.438,0,0,0,25.212,0,76.376,76.376,0,0,0-25.212,0m3.386,9c5.212,3.086,14.33,3.064,18.356-.021-.115-.079-.218-.16-.331-.225a6.1,6.1,0,0,0-7.041.658c-1.271,1.071-2.222,1.035-3.552.019a7.71,7.71,0,0,0-2.12-1.18,5.844,5.844,0,0,0-5.312.749" transform="translate(-42.991 -54.924)" fill="#fff"/>
          <path id="Trazado_196215" data-name="Trazado 196215" d="M54.557,73.36a2.655,2.655,0,0,1,.8-2.086,27.033,27.033,0,0,1,12.6-7A12.889,12.889,0,0,1,78.3,66.383c1.171.783,1.162.774,2.37-.019a13.5,13.5,0,0,1,11.453-1.839c.766.209,1.075.671.907,1.285s-.675.823-1.439.622A11.709,11.709,0,0,0,81.4,68.28a2.9,2.9,0,0,1-3.841.005A11.647,11.647,0,0,0,66,66.915a28.393,28.393,0,0,0-8.989,5.515,1.108,1.108,0,0,0-.374,1.3,31.792,31.792,0,0,0,8.949,13.934c.831.724,1.761,1.334,2.661,1.975.646.46.841.979.513,1.506s-.886.617-1.558.2a27.541,27.541,0,0,1-8.775-9.1A36.668,36.668,0,0,1,54.8,74.485a6.541,6.541,0,0,1-.2-.7,2.622,2.622,0,0,1-.038-.422" transform="translate(-36.535 -42.692)" fill="#fff"/>
          <path id="Trazado_196216" data-name="Trazado 196216" d="M8.589,143.463c.314-1.51.62-2.982.927-4.454.032-.152.061-.305.107-.453a.955.955,0,0,1,1.15-.745.924.924,0,0,1,.756,1.139c-.176,1.05-.412,2.089-.622,3.133-.086.432-.168.865-.26,1.34h2.026c.311-1.474.624-2.963.937-4.453.014-.065.015-.133.03-.2.167-.747.631-1.1,1.254-.953.574.134.841.633.7,1.37-.223,1.132-.468,2.259-.7,3.389-.054.26-.1.521-.168.881.576,0,1.117-.01,1.658,0,.749.017,1.222.439,1.2,1.045-.025.588-.467.943-1.2.95-.661.007-1.322,0-2.069,0l-.846,4.044c.623,0,1.169-.013,1.713,0,.743.022,1.15.391,1.145,1.005s-.406.964-1.161.986c-.486.015-.974.028-1.457,0-.468-.03-.7.085-.789.616-.241,1.4-.562,2.783-.859,4.172-.161.753-.643,1.133-1.226.99-.6-.149-.857-.664-.7-1.426.289-1.409.578-2.817.89-4.337-.647,0-1.233-.029-1.812.023-.126.011-.291.293-.331.474-.31,1.408-.587,2.823-.89,4.233-.167.782-.615,1.157-1.194,1.042-.627-.125-.895-.646-.733-1.455.244-1.218.5-2.434.743-3.652.038-.19.059-.384.1-.675-.6,0-1.148.015-1.691,0-.706-.024-1.105-.382-1.121-.965-.016-.607.4-.99,1.134-1.025.22-.011.442,0,.662,0,1.487,0,1.485,0,1.78-1.5.162-.824.333-1.646.515-2.545-.629,0-1.2.01-1.768,0a1,1,0,0,1-1.094-.993,1.017,1.017,0,0,1,1.044-.993c.725-.029,1.452-.007,2.233-.007m3.655,2.038H10.2l-.82,3.993c.644,0,1.212.014,1.779-.012a.431.431,0,0,0,.316-.254c.268-1.227.511-2.46.768-3.727" transform="translate(-2.734 -91.988)" fill="#fff"/>
          <path id="Trazado_196217" data-name="Trazado 196217" d="M60.037,14.008a.941.941,0,0,1-.73,1.034.912.912,0,0,1-1.143-.556c-.283-.673-.551-1.355-.778-2.048a.7.7,0,0,0-.787-.584c-1.786.033-3.573.028-5.36,0a.672.672,0,0,0-.763.534c-.214.651-.463,1.293-.719,1.929a1,1,0,0,1-1.364.688,1.017,1.017,0,0,1-.48-1.4Q50.3,7.263,52.706.929A1.294,1.294,0,0,1,55.186.923Q57.567,7.265,59.94,13.61a2.954,2.954,0,0,1,.1.4m-6.1-10.741L51.467,9.827H56.4L53.942,3.266" transform="translate(-32.019 0)" fill="#fff"/>
          <path id="Trazado_196218" data-name="Trazado 196218" d="M126.032,23.26c0-.488,0-.977,0-1.465,0-1.068.224-1.318,1.275-1.459a2.652,2.652,0,1,0-2.9-2.93c-.009.088,0,.178-.015.266a.994.994,0,1,1-1.981-.094,4.633,4.633,0,1,1,6.121,4.513.647.647,0,0,0-.524.755c.028.754.02,1.509,0,2.264a.958.958,0,0,1-.937,1.066.976.976,0,0,1-1.032-1.051c-.028-.62-.006-1.242-.006-1.864Z" transform="translate(-81.973 -8.712)" fill="#fff"/>
          <path id="Trazado_196219" data-name="Trazado 196219" d="M18.313,72.033a24.746,24.746,0,0,1,1.952-9.525c.324-.774.823-1.06,1.416-.819s.734.8.414,1.59a22.39,22.39,0,0,0-.024,17.428,1.63,1.63,0,0,1,.073,1.132,1.063,1.063,0,0,1-.872.526,1.414,1.414,0,0,1-.911-.707,21.854,21.854,0,0,1-1.835-6.705c-.109-.969-.144-1.947-.213-2.92" transform="translate(-12.264 -41.129)" fill="#fff"/>
          <path id="Trazado_196220" data-name="Trazado 196220" d="M2.117,78.187c0,2.1-.074,4.21.018,6.309A23.71,23.71,0,0,0,4,92.423c.084.205.176.407.251.616a1.023,1.023,0,0,1-.5,1.4A.962.962,0,0,1,2.425,93.8c-.652-2-1.376-3.982-1.843-6.025A26.264,26.264,0,0,1,.294,78.3c.018-.132.031-.265.059-.395a1.011,1.011,0,0,1,1.094-.926c.571.062.895.517.857,1.2H2.117" transform="translate(0 -51.39)" fill="#fff"/>
          <path id="Trazado_196221" data-name="Trazado 196221" d="M37.871,78.4a17.073,17.073,0,0,1,1.186-6.142c.284-.729.8-1.016,1.366-.781.59.243.763.755.48,1.509a15.4,15.4,0,0,0,0,11.128c.273.733.078,1.3-.488,1.508-.587.215-1.076-.07-1.363-.806A18.379,18.379,0,0,1,37.871,78.4" transform="translate(-25.36 -47.665)" fill="#fff"/>
          <path id="Trazado_196222" data-name="Trazado 196222" d="M55.844,132.815c0-1.822-.009-3.645,0-5.467a.982.982,0,0,1,1-1.085c.589,0,.956.414.983,1.1,0,.022,0,.044,0,.066q0,5.4,0,10.8c0,.729-.386,1.156-.994,1.153s-.983-.435-.986-1.166c-.009-1.8,0-3.6,0-5.4" transform="translate(-37.395 -84.294)" fill="#fff"/>
          <path id="Trazado_196223" data-name="Trazado 196223" d="M5.429,60.625c-.85-.016-1.349-.577-1.161-1.173A28.906,28.906,0,0,1,5.345,56.6a.889.889,0,0,1,1.23-.458A.953.953,0,0,1,7.113,57.4c-.31.876-.611,1.759-1,2.6-.143.307-.535.5-.682.627" transform="translate(-2.831 -37.425)" fill="#fff"/>
          <path id="Trazado_196224" data-name="Trazado 196224" d="M57.963,171.871a.847.847,0,0,1-.979.755.792.792,0,0,1-.722-.935.809.809,0,0,1,.9-.773.87.87,0,0,1,.8.952" transform="translate(-37.671 -114.106)" fill="#fff"/>
          <path id="Trazado_196225" data-name="Trazado 196225" d="M134.653,59.135a.835.835,0,0,1-.845-.851.866.866,0,0,1,.88-.876.844.844,0,0,1,.817.925.806.806,0,0,1-.853.8" transform="translate(-89.605 -38.325)" fill="#fff"/>
        </g>
      </g>
    </g>
    <path id="Trazado_197250" data-name="Trazado 197250" d="M43.8,9.742h-4.93v4.031H44.6V15H37.375V3.625h7.148V4.852H38.875V8.516H43.8Zm5.273-.109,1.875-3.086h1.688l-2.766,4.18L52.727,15H51.055L49.1,11.836,47.148,15h-1.68l2.852-4.273-2.766-4.18h1.672Zm12.234,1.234a5.062,5.062,0,0,1-.883,3.109,2.829,2.829,0,0,1-2.391,1.18,3.1,3.1,0,0,1-2.422-.977v4.07H54.172V6.547h1.32l.07.938a2.977,2.977,0,0,1,2.453-1.094,2.882,2.882,0,0,1,2.41,1.148,5.117,5.117,0,0,1,.887,3.2ZM59.867,10.7a3.735,3.735,0,0,0-.609-2.258,1.963,1.963,0,0,0-1.672-.828,2.125,2.125,0,0,0-1.969,1.164V12.82A2.129,2.129,0,0,0,57.6,13.977a1.954,1.954,0,0,0,1.652-.824A4.077,4.077,0,0,0,59.867,10.7Zm7.367-2.859a4.331,4.331,0,0,0-.711-.055A1.9,1.9,0,0,0,64.594,9v6H63.148V6.547h1.406l.023.977a2.251,2.251,0,0,1,2.016-1.133,1.477,1.477,0,0,1,.641.109Zm4.688,7.313a3.693,3.693,0,0,1-2.8-1.129,4.19,4.19,0,0,1-1.078-3.02v-.266a5.073,5.073,0,0,1,.48-2.246,3.748,3.748,0,0,1,1.344-1.547,3.378,3.378,0,0,1,1.871-.559A3.166,3.166,0,0,1,74.3,7.477a4.7,4.7,0,0,1,.914,3.109v.6H69.492a3,3,0,0,0,.73,2.02,2.3,2.3,0,0,0,1.777.77,2.517,2.517,0,0,0,1.3-.312,3.259,3.259,0,0,0,.93-.828l.883.688A3.55,3.55,0,0,1,71.922,15.156Zm-.18-7.578a1.928,1.928,0,0,0-1.469.637A3.1,3.1,0,0,0,69.539,10h4.234V9.891a2.753,2.753,0,0,0-.594-1.707A1.815,1.815,0,0,0,71.742,7.578Zm10.07,5.18a1.064,1.064,0,0,0-.441-.91,4.249,4.249,0,0,0-1.539-.559,7.277,7.277,0,0,1-1.742-.562,2.479,2.479,0,0,1-.953-.781,1.869,1.869,0,0,1-.309-1.078,2.193,2.193,0,0,1,.879-1.758,3.432,3.432,0,0,1,2.246-.719,3.532,3.532,0,0,1,2.332.742,2.357,2.357,0,0,1,.895,1.9H81.727a1.3,1.3,0,0,0-.5-1.023,1.888,1.888,0,0,0-1.27-.43,1.976,1.976,0,0,0-1.234.344,1.082,1.082,0,0,0-.445.9.877.877,0,0,0,.414.789,5.1,5.1,0,0,0,1.5.508,7.8,7.8,0,0,1,1.754.578,2.558,2.558,0,0,1,1,.809,1.988,1.988,0,0,1,.324,1.152,2.163,2.163,0,0,1-.906,1.816A3.8,3.8,0,0,1,80,15.156a4.257,4.257,0,0,1-1.8-.359,2.922,2.922,0,0,1-1.223-1,2.42,2.42,0,0,1-.441-1.395h1.445a1.5,1.5,0,0,0,.582,1.152A2.258,2.258,0,0,0,80,13.977a2.331,2.331,0,0,0,1.316-.332A1.02,1.02,0,0,0,81.813,12.758ZM86.711,15H85.266V6.547h1.445ZM85.148,4.3a.863.863,0,0,1,.215-.594A.807.807,0,0,1,86,3.469a.819.819,0,0,1,.641.242.854.854,0,0,1,.219.594.826.826,0,0,1-.219.586A.834.834,0,0,1,86,5.125a.821.821,0,0,1-.637-.234A.834.834,0,0,1,85.148,4.3ZM88.641,10.7a4.993,4.993,0,0,1,.488-2.234A3.643,3.643,0,0,1,90.488,6.93a3.7,3.7,0,0,1,1.988-.539,3.565,3.565,0,0,1,2.793,1.2,4.6,4.6,0,0,1,1.066,3.18v.1a5.036,5.036,0,0,1-.473,2.215,3.589,3.589,0,0,1-1.352,1.527,3.743,3.743,0,0,1-2.02.547,3.556,3.556,0,0,1-2.785-1.2A4.575,4.575,0,0,1,88.641,10.8Zm1.453.172a3.616,3.616,0,0,0,.652,2.258,2.211,2.211,0,0,0,3.5-.012,3.955,3.955,0,0,0,.648-2.418,3.61,3.61,0,0,0-.66-2.254,2.1,2.1,0,0,0-1.754-.863,2.075,2.075,0,0,0-1.727.852A3.925,3.925,0,0,0,90.094,10.867Zm3.039-7.852h1.75l-2.094,2.3-1.164,0Zm6.383,3.531.047,1.063a3.08,3.08,0,0,1,2.531-1.219q2.68,0,2.7,3.023V15h-1.445V9.406a1.946,1.946,0,0,0-.418-1.352,1.675,1.675,0,0,0-1.277-.437,2.086,2.086,0,0,0-1.234.375,2.546,2.546,0,0,0-.828.984V15H98.148V6.547Zm14.211,6.492,2.094-6.492H117.3L114.266,15h-1.1L110.1,6.547h1.477Zm8.367,2.117a3.693,3.693,0,0,1-2.8-1.129,4.19,4.19,0,0,1-1.078-3.02v-.266A5.073,5.073,0,0,1,118.7,8.5a3.748,3.748,0,0,1,1.344-1.547,3.378,3.378,0,0,1,1.871-.559,3.166,3.166,0,0,1,2.563,1.086,4.7,4.7,0,0,1,.914,3.109v.6h-5.727a3,3,0,0,0,.73,2.02,2.3,2.3,0,0,0,1.777.77,2.517,2.517,0,0,0,1.3-.312,3.259,3.259,0,0,0,.93-.828l.883.688A3.55,3.55,0,0,1,122.094,15.156Zm-.18-7.578a1.928,1.928,0,0,0-1.469.637A3.1,3.1,0,0,0,119.711,10h4.234V9.891a2.753,2.753,0,0,0-.594-1.707A1.815,1.815,0,0,0,121.914,7.578Zm9.234.266a4.331,4.331,0,0,0-.711-.055A1.9,1.9,0,0,0,128.508,9v6h-1.445V6.547h1.406l.023.977a2.251,2.251,0,0,1,2.016-1.133,1.477,1.477,0,0,1,.641.109Zm8.484,3.023a5.026,5.026,0,0,1-.891,3.113,2.846,2.846,0,0,1-2.391,1.176,2.947,2.947,0,0,1-2.477-1.133L133.8,15h-1.328V3h1.445V7.477a2.93,2.93,0,0,1,2.414-1.086,2.863,2.863,0,0,1,2.418,1.164,5.177,5.177,0,0,1,.879,3.188Zm-1.445-.164a3.906,3.906,0,0,0-.57-2.281,1.888,1.888,0,0,0-1.641-.8,2.122,2.122,0,0,0-2.055,1.328V12.6a2.181,2.181,0,0,0,2.07,1.328,1.878,1.878,0,0,0,1.617-.8A4.153,4.153,0,0,0,138.188,10.7Zm8.484,4.3a3.036,3.036,0,0,1-.2-.891,3.225,3.225,0,0,1-2.406,1.047,2.984,2.984,0,0,1-2.051-.707,2.287,2.287,0,0,1-.8-1.793,2.39,2.39,0,0,1,1-2.051,4.733,4.733,0,0,1,2.824-.73h1.406V9.211A1.623,1.623,0,0,0,145.992,8a1.821,1.821,0,0,0-1.336-.449,2.107,2.107,0,0,0-1.3.391,1.151,1.151,0,0,0-.523.945h-1.453a2,2,0,0,1,.449-1.223,3.066,3.066,0,0,1,1.219-.934,4.1,4.1,0,0,1,1.691-.344,3.342,3.342,0,0,1,2.289.73,2.635,2.635,0,0,1,.859,2.012v3.891a4.757,4.757,0,0,0,.3,1.852V15Zm-2.4-1.1a2.54,2.54,0,0,0,1.289-.352,2.127,2.127,0,0,0,.883-.914V10.9h-1.133q-2.656,0-2.656,1.555a1.316,1.316,0,0,0,.453,1.063A1.742,1.742,0,0,0,144.273,13.9Zm7.453,1.1h-1.445V3h1.445Z" transform="translate(1212.118 2199.664)" fill="#fff"/>
  </g>
</svg>
