<svg xmlns="http://www.w3.org/2000/svg" xmlns:xlink="http://www.w3.org/1999/xlink" width="505" height="385.508" viewBox="0 0 505 385.508">
  <defs>
    <clipPath id="clip-path">
      <path id="Trazado_194907" data-name="Trazado 194907" d="M0,125.079A71.746,71.746,0,1,0,71.746,53.333,71.744,71.744,0,0,0,0,125.079" transform="translate(0 -53.333)" fill="#7f4fc7"/>
    </clipPath>
    <clipPath id="clip-path-2">
      <rect id="Rectángulo_46326" data-name="Rectángulo 46326" width="120.059" height="79.893" fill="none"/>
    </clipPath>
    <clipPath id="clip-path-3">
      <path id="Trazado_196395" data-name="Trazado 196395" d="M341.678,129.268a85.9,85.9,0,1,0,59.657-24.105,85.9,85.9,0,0,0-59.657,24.105" transform="translate(-315.449 -105.163)" fill="none"/>
    </clipPath>
  </defs>
  <g id="Grupo_154668" data-name="Grupo 154668" transform="translate(-922.737 -1396.328)">
    <g id="Grupo_154369" data-name="Grupo 154369" transform="translate(922.737 1401.328)">
      <g id="Grupo_154368" data-name="Grupo 154368">
        <g id="Grupo_154313" data-name="Grupo 154313" transform="translate(58.551 237.015)">
          <g id="Grupo_152768" data-name="Grupo 152768" transform="translate(0 0)" clip-path="url(#clip-path)">
            <path id="Trazado_194826" data-name="Trazado 194826" d="M3.777,55.22A1.888,1.888,0,1,0,1.889,57.11,1.888,1.888,0,0,0,3.777,55.22" transform="translate(0 -53.333)" fill="#7f4fc7"/>
            <path id="Trazado_194827" data-name="Trazado 194827" d="M12.049,55.22a1.888,1.888,0,1,0-1.887,1.889,1.888,1.888,0,0,0,1.887-1.889" transform="translate(9.191 -53.333)" fill="#7f4fc7"/>
            <path id="Trazado_194828" data-name="Trazado 194828" d="M20.322,55.22a1.888,1.888,0,1,0-1.887,1.889,1.888,1.888,0,0,0,1.887-1.889" transform="translate(18.383 -53.333)" fill="#7f4fc7"/>
            <path id="Trazado_194829" data-name="Trazado 194829" d="M28.595,55.22a1.888,1.888,0,1,0-1.887,1.889,1.888,1.888,0,0,0,1.887-1.889" transform="translate(27.576 -53.333)" fill="#7f4fc7"/>
            <path id="Trazado_194830" data-name="Trazado 194830" d="M36.867,55.22a1.888,1.888,0,1,0-1.887,1.889,1.888,1.888,0,0,0,1.887-1.889" transform="translate(36.767 -53.333)" fill="#7f4fc7"/>
            <path id="Trazado_194831" data-name="Trazado 194831" d="M45.14,55.22a1.888,1.888,0,1,0-1.887,1.889A1.888,1.888,0,0,0,45.14,55.22" transform="translate(45.959 -53.333)" fill="#7f4fc7"/>
            <path id="Trazado_194832" data-name="Trazado 194832" d="M53.412,55.22a1.888,1.888,0,1,0-1.887,1.889,1.888,1.888,0,0,0,1.887-1.889" transform="translate(55.15 -53.333)" fill="#7f4fc7"/>
            <path id="Trazado_194833" data-name="Trazado 194833" d="M61.685,55.22A1.888,1.888,0,1,0,59.8,57.11a1.889,1.889,0,0,0,1.887-1.889" transform="translate(64.342 -53.333)" fill="#7f4fc7"/>
            <path id="Trazado_194834" data-name="Trazado 194834" d="M69.958,55.22A1.888,1.888,0,1,0,68.07,57.11a1.888,1.888,0,0,0,1.887-1.889" transform="translate(73.534 -53.333)" fill="#7f4fc7"/>
            <path id="Trazado_194835" data-name="Trazado 194835" d="M3.777,63.493a1.888,1.888,0,1,0-1.887,1.887,1.887,1.887,0,0,0,1.887-1.887" transform="translate(0 -44.141)" fill="#7f4fc7"/>
            <path id="Trazado_194836" data-name="Trazado 194836" d="M12.049,63.493a1.888,1.888,0,1,0-1.887,1.887,1.887,1.887,0,0,0,1.887-1.887" transform="translate(9.191 -44.141)" fill="#7f4fc7"/>
            <path id="Trazado_194837" data-name="Trazado 194837" d="M20.322,63.493a1.888,1.888,0,1,0-1.887,1.887,1.887,1.887,0,0,0,1.887-1.887" transform="translate(18.383 -44.141)" fill="#7f4fc7"/>
            <path id="Trazado_194838" data-name="Trazado 194838" d="M28.595,63.493a1.888,1.888,0,1,0-1.887,1.887,1.887,1.887,0,0,0,1.887-1.887" transform="translate(27.576 -44.141)" fill="#7f4fc7"/>
            <path id="Trazado_194839" data-name="Trazado 194839" d="M36.867,63.493a1.888,1.888,0,1,0-1.887,1.887,1.887,1.887,0,0,0,1.887-1.887" transform="translate(36.767 -44.141)" fill="#7f4fc7"/>
            <path id="Trazado_194840" data-name="Trazado 194840" d="M45.14,63.493a1.888,1.888,0,1,0-1.887,1.887,1.887,1.887,0,0,0,1.887-1.887" transform="translate(45.959 -44.141)" fill="#7f4fc7"/>
            <path id="Trazado_194841" data-name="Trazado 194841" d="M53.412,63.493a1.888,1.888,0,1,0-1.887,1.887,1.887,1.887,0,0,0,1.887-1.887" transform="translate(55.15 -44.141)" fill="#7f4fc7"/>
            <path id="Trazado_194842" data-name="Trazado 194842" d="M61.685,63.493A1.888,1.888,0,1,0,59.8,65.381a1.888,1.888,0,0,0,1.887-1.887" transform="translate(64.342 -44.141)" fill="#7f4fc7"/>
            <path id="Trazado_194843" data-name="Trazado 194843" d="M69.958,63.493a1.888,1.888,0,1,0-1.887,1.887,1.887,1.887,0,0,0,1.887-1.887" transform="translate(73.534 -44.141)" fill="#7f4fc7"/>
            <path id="Trazado_194844" data-name="Trazado 194844" d="M3.777,71.766a1.888,1.888,0,1,0-1.887,1.887,1.887,1.887,0,0,0,1.887-1.887" transform="translate(0 -34.949)" fill="#7f4fc7"/>
            <path id="Trazado_194845" data-name="Trazado 194845" d="M12.049,71.766a1.888,1.888,0,1,0-1.887,1.887,1.887,1.887,0,0,0,1.887-1.887" transform="translate(9.191 -34.949)" fill="#7f4fc7"/>
            <path id="Trazado_194846" data-name="Trazado 194846" d="M20.322,71.766a1.888,1.888,0,1,0-1.887,1.887,1.887,1.887,0,0,0,1.887-1.887" transform="translate(18.383 -34.949)" fill="#7f4fc7"/>
            <path id="Trazado_194847" data-name="Trazado 194847" d="M28.595,71.766a1.888,1.888,0,1,0-1.887,1.887,1.887,1.887,0,0,0,1.887-1.887" transform="translate(27.576 -34.949)" fill="#7f4fc7"/>
            <path id="Trazado_194848" data-name="Trazado 194848" d="M36.867,71.766a1.888,1.888,0,1,0-1.887,1.887,1.887,1.887,0,0,0,1.887-1.887" transform="translate(36.767 -34.949)" fill="#7f4fc7"/>
            <path id="Trazado_194849" data-name="Trazado 194849" d="M45.14,71.766a1.888,1.888,0,1,0-1.887,1.887,1.887,1.887,0,0,0,1.887-1.887" transform="translate(45.959 -34.949)" fill="#7f4fc7"/>
            <path id="Trazado_194850" data-name="Trazado 194850" d="M53.412,71.766a1.888,1.888,0,1,0-1.887,1.887,1.887,1.887,0,0,0,1.887-1.887" transform="translate(55.15 -34.949)" fill="#7f4fc7"/>
            <path id="Trazado_194851" data-name="Trazado 194851" d="M61.685,71.766A1.888,1.888,0,1,0,59.8,73.654a1.888,1.888,0,0,0,1.887-1.887" transform="translate(64.342 -34.949)" fill="#7f4fc7"/>
            <path id="Trazado_194852" data-name="Trazado 194852" d="M69.958,71.766a1.888,1.888,0,1,0-1.887,1.887,1.887,1.887,0,0,0,1.887-1.887" transform="translate(73.534 -34.949)" fill="#7f4fc7"/>
            <path id="Trazado_194853" data-name="Trazado 194853" d="M3.777,80.038a1.888,1.888,0,1,0-1.887,1.887,1.887,1.887,0,0,0,1.887-1.887" transform="translate(0 -25.757)" fill="#7f4fc7"/>
            <path id="Trazado_194854" data-name="Trazado 194854" d="M12.049,80.038a1.888,1.888,0,1,0-1.887,1.887,1.887,1.887,0,0,0,1.887-1.887" transform="translate(9.191 -25.757)" fill="#7f4fc7"/>
            <path id="Trazado_194855" data-name="Trazado 194855" d="M20.322,80.038a1.888,1.888,0,1,0-1.887,1.887,1.887,1.887,0,0,0,1.887-1.887" transform="translate(18.383 -25.757)" fill="#7f4fc7"/>
            <path id="Trazado_194856" data-name="Trazado 194856" d="M28.595,80.038a1.888,1.888,0,1,0-1.887,1.887,1.887,1.887,0,0,0,1.887-1.887" transform="translate(27.576 -25.757)" fill="#7f4fc7"/>
            <path id="Trazado_194857" data-name="Trazado 194857" d="M36.867,80.038a1.888,1.888,0,1,0-1.887,1.887,1.887,1.887,0,0,0,1.887-1.887" transform="translate(36.767 -25.757)" fill="#7f4fc7"/>
            <path id="Trazado_194858" data-name="Trazado 194858" d="M45.14,80.038a1.888,1.888,0,1,0-1.887,1.887,1.887,1.887,0,0,0,1.887-1.887" transform="translate(45.959 -25.757)" fill="#7f4fc7"/>
            <path id="Trazado_194859" data-name="Trazado 194859" d="M53.412,80.038a1.888,1.888,0,1,0-1.887,1.887,1.887,1.887,0,0,0,1.887-1.887" transform="translate(55.15 -25.757)" fill="#7f4fc7"/>
            <path id="Trazado_194860" data-name="Trazado 194860" d="M61.685,80.038A1.888,1.888,0,1,0,59.8,81.926a1.888,1.888,0,0,0,1.887-1.887" transform="translate(64.342 -25.757)" fill="#7f4fc7"/>
            <path id="Trazado_194861" data-name="Trazado 194861" d="M69.958,80.038a1.888,1.888,0,1,0-1.887,1.887,1.887,1.887,0,0,0,1.887-1.887" transform="translate(73.534 -25.757)" fill="#7f4fc7"/>
            <path id="Trazado_194862" data-name="Trazado 194862" d="M3.777,88.311A1.888,1.888,0,1,0,1.889,90.2a1.887,1.887,0,0,0,1.887-1.889" transform="translate(0 -16.565)" fill="#7f4fc7"/>
            <path id="Trazado_194863" data-name="Trazado 194863" d="M12.049,88.311A1.888,1.888,0,1,0,10.161,90.2a1.887,1.887,0,0,0,1.887-1.889" transform="translate(9.191 -16.565)" fill="#7f4fc7"/>
            <path id="Trazado_194864" data-name="Trazado 194864" d="M20.322,88.311A1.888,1.888,0,1,0,18.434,90.2a1.887,1.887,0,0,0,1.887-1.889" transform="translate(18.383 -16.565)" fill="#7f4fc7"/>
            <path id="Trazado_194865" data-name="Trazado 194865" d="M28.595,88.311A1.888,1.888,0,1,0,26.707,90.2a1.887,1.887,0,0,0,1.887-1.889" transform="translate(27.576 -16.565)" fill="#7f4fc7"/>
            <path id="Trazado_194866" data-name="Trazado 194866" d="M36.867,88.311A1.888,1.888,0,1,0,34.979,90.2a1.887,1.887,0,0,0,1.887-1.889" transform="translate(36.767 -16.565)" fill="#7f4fc7"/>
            <path id="Trazado_194867" data-name="Trazado 194867" d="M45.14,88.311A1.888,1.888,0,1,0,43.252,90.2a1.887,1.887,0,0,0,1.887-1.889" transform="translate(45.959 -16.565)" fill="#7f4fc7"/>
            <path id="Trazado_194868" data-name="Trazado 194868" d="M53.412,88.311A1.888,1.888,0,1,0,51.524,90.2a1.887,1.887,0,0,0,1.887-1.889" transform="translate(55.15 -16.565)" fill="#7f4fc7"/>
            <path id="Trazado_194869" data-name="Trazado 194869" d="M61.685,88.311A1.888,1.888,0,1,0,59.8,90.2a1.888,1.888,0,0,0,1.887-1.889" transform="translate(64.342 -16.565)" fill="#7f4fc7"/>
            <path id="Trazado_194870" data-name="Trazado 194870" d="M69.958,88.311A1.888,1.888,0,1,0,68.07,90.2a1.887,1.887,0,0,0,1.887-1.889" transform="translate(73.534 -16.565)" fill="#7f4fc7"/>
            <path id="Trazado_194871" data-name="Trazado 194871" d="M3.777,96.584a1.888,1.888,0,1,0-1.887,1.887,1.887,1.887,0,0,0,1.887-1.887" transform="translate(0 -7.373)" fill="#7f4fc7"/>
            <path id="Trazado_194872" data-name="Trazado 194872" d="M12.049,96.584a1.888,1.888,0,1,0-1.887,1.887,1.887,1.887,0,0,0,1.887-1.887" transform="translate(9.191 -7.373)" fill="#7f4fc7"/>
            <path id="Trazado_194873" data-name="Trazado 194873" d="M20.322,96.584a1.888,1.888,0,1,0-1.887,1.887,1.887,1.887,0,0,0,1.887-1.887" transform="translate(18.383 -7.373)" fill="#7f4fc7"/>
            <path id="Trazado_194874" data-name="Trazado 194874" d="M28.595,96.584a1.888,1.888,0,1,0-1.887,1.887,1.887,1.887,0,0,0,1.887-1.887" transform="translate(27.576 -7.373)" fill="#7f4fc7"/>
            <path id="Trazado_194875" data-name="Trazado 194875" d="M36.867,96.584a1.888,1.888,0,1,0-1.887,1.887,1.887,1.887,0,0,0,1.887-1.887" transform="translate(36.767 -7.373)" fill="#7f4fc7"/>
            <path id="Trazado_194876" data-name="Trazado 194876" d="M45.14,96.584a1.888,1.888,0,1,0-1.887,1.887,1.887,1.887,0,0,0,1.887-1.887" transform="translate(45.959 -7.373)" fill="#7f4fc7"/>
            <path id="Trazado_194877" data-name="Trazado 194877" d="M53.412,96.584a1.888,1.888,0,1,0-1.887,1.887,1.887,1.887,0,0,0,1.887-1.887" transform="translate(55.15 -7.373)" fill="#7f4fc7"/>
            <path id="Trazado_194878" data-name="Trazado 194878" d="M61.685,96.584A1.888,1.888,0,1,0,59.8,98.472a1.888,1.888,0,0,0,1.887-1.887" transform="translate(64.342 -7.373)" fill="#7f4fc7"/>
            <path id="Trazado_194879" data-name="Trazado 194879" d="M69.958,96.584a1.888,1.888,0,1,0-1.887,1.887,1.887,1.887,0,0,0,1.887-1.887" transform="translate(73.534 -7.373)" fill="#7f4fc7"/>
            <path id="Trazado_194880" data-name="Trazado 194880" d="M3.777,104.856a1.888,1.888,0,1,0-1.887,1.887,1.887,1.887,0,0,0,1.887-1.887" transform="translate(0 1.818)" fill="#7f4fc7"/>
            <path id="Trazado_194881" data-name="Trazado 194881" d="M12.049,104.856a1.888,1.888,0,1,0-1.887,1.887,1.887,1.887,0,0,0,1.887-1.887" transform="translate(9.191 1.818)" fill="#7f4fc7"/>
            <path id="Trazado_194882" data-name="Trazado 194882" d="M20.322,104.856a1.888,1.888,0,1,0-1.887,1.887,1.887,1.887,0,0,0,1.887-1.887" transform="translate(18.383 1.818)" fill="#7f4fc7"/>
            <path id="Trazado_194883" data-name="Trazado 194883" d="M28.595,104.856a1.888,1.888,0,1,0-1.887,1.887,1.887,1.887,0,0,0,1.887-1.887" transform="translate(27.576 1.818)" fill="#7f4fc7"/>
            <path id="Trazado_194884" data-name="Trazado 194884" d="M36.867,104.856a1.888,1.888,0,1,0-1.887,1.887,1.887,1.887,0,0,0,1.887-1.887" transform="translate(36.767 1.818)" fill="#7f4fc7"/>
            <path id="Trazado_194885" data-name="Trazado 194885" d="M45.14,104.856a1.888,1.888,0,1,0-1.887,1.887,1.887,1.887,0,0,0,1.887-1.887" transform="translate(45.959 1.818)" fill="#7f4fc7"/>
            <path id="Trazado_194886" data-name="Trazado 194886" d="M53.412,104.856a1.888,1.888,0,1,0-1.887,1.887,1.887,1.887,0,0,0,1.887-1.887" transform="translate(55.15 1.818)" fill="#7f4fc7"/>
            <path id="Trazado_194887" data-name="Trazado 194887" d="M61.685,104.856a1.888,1.888,0,1,0-1.887,1.887,1.888,1.888,0,0,0,1.887-1.887" transform="translate(64.342 1.818)" fill="#7f4fc7"/>
            <path id="Trazado_194888" data-name="Trazado 194888" d="M69.958,104.856a1.888,1.888,0,1,0-1.887,1.887,1.887,1.887,0,0,0,1.887-1.887" transform="translate(73.534 1.818)" fill="#7f4fc7"/>
            <path id="Trazado_194889" data-name="Trazado 194889" d="M3.777,113.129a1.888,1.888,0,1,0-1.887,1.887,1.887,1.887,0,0,0,1.887-1.887" transform="translate(0 11.01)" fill="#7f4fc7"/>
            <path id="Trazado_194890" data-name="Trazado 194890" d="M12.049,113.129a1.888,1.888,0,1,0-1.887,1.887,1.887,1.887,0,0,0,1.887-1.887" transform="translate(9.191 11.01)" fill="#7f4fc7"/>
            <path id="Trazado_194891" data-name="Trazado 194891" d="M20.322,113.129a1.888,1.888,0,1,0-1.887,1.887,1.887,1.887,0,0,0,1.887-1.887" transform="translate(18.383 11.01)" fill="#7f4fc7"/>
            <path id="Trazado_194892" data-name="Trazado 194892" d="M28.595,113.129a1.888,1.888,0,1,0-1.887,1.887,1.887,1.887,0,0,0,1.887-1.887" transform="translate(27.576 11.01)" fill="#7f4fc7"/>
            <path id="Trazado_194893" data-name="Trazado 194893" d="M36.867,113.129a1.888,1.888,0,1,0-1.887,1.887,1.887,1.887,0,0,0,1.887-1.887" transform="translate(36.767 11.01)" fill="#7f4fc7"/>
            <path id="Trazado_194894" data-name="Trazado 194894" d="M45.14,113.129a1.888,1.888,0,1,0-1.887,1.887,1.887,1.887,0,0,0,1.887-1.887" transform="translate(45.959 11.01)" fill="#7f4fc7"/>
            <path id="Trazado_194895" data-name="Trazado 194895" d="M53.412,113.129a1.888,1.888,0,1,0-1.887,1.887,1.887,1.887,0,0,0,1.887-1.887" transform="translate(55.15 11.01)" fill="#7f4fc7"/>
            <path id="Trazado_194896" data-name="Trazado 194896" d="M61.685,113.129a1.888,1.888,0,1,0-1.887,1.887,1.888,1.888,0,0,0,1.887-1.887" transform="translate(64.342 11.01)" fill="#7f4fc7"/>
            <path id="Trazado_194897" data-name="Trazado 194897" d="M69.958,113.129a1.888,1.888,0,1,0-1.887,1.887,1.887,1.887,0,0,0,1.887-1.887" transform="translate(73.534 11.01)" fill="#7f4fc7"/>
            <path id="Trazado_194898" data-name="Trazado 194898" d="M3.777,121.4a1.888,1.888,0,1,0-1.887,1.887A1.887,1.887,0,0,0,3.777,121.4" transform="translate(0 20.201)" fill="#7f4fc7"/>
            <path id="Trazado_194899" data-name="Trazado 194899" d="M12.049,121.4a1.888,1.888,0,1,0-1.887,1.887,1.887,1.887,0,0,0,1.887-1.887" transform="translate(9.191 20.201)" fill="#7f4fc7"/>
            <path id="Trazado_194900" data-name="Trazado 194900" d="M20.322,121.4a1.888,1.888,0,1,0-1.887,1.887,1.887,1.887,0,0,0,1.887-1.887" transform="translate(18.383 20.201)" fill="#7f4fc7"/>
            <path id="Trazado_194901" data-name="Trazado 194901" d="M28.595,121.4a1.888,1.888,0,1,0-1.887,1.887,1.887,1.887,0,0,0,1.887-1.887" transform="translate(27.576 20.201)" fill="#7f4fc7"/>
            <path id="Trazado_194902" data-name="Trazado 194902" d="M36.867,121.4a1.888,1.888,0,1,0-1.887,1.887,1.887,1.887,0,0,0,1.887-1.887" transform="translate(36.767 20.201)" fill="#7f4fc7"/>
            <path id="Trazado_194903" data-name="Trazado 194903" d="M45.14,121.4a1.888,1.888,0,1,0-1.887,1.887A1.887,1.887,0,0,0,45.14,121.4" transform="translate(45.959 20.201)" fill="#7f4fc7"/>
            <path id="Trazado_194904" data-name="Trazado 194904" d="M53.412,121.4a1.888,1.888,0,1,0-1.887,1.887,1.887,1.887,0,0,0,1.887-1.887" transform="translate(55.15 20.201)" fill="#7f4fc7"/>
            <path id="Trazado_194905" data-name="Trazado 194905" d="M61.685,121.4a1.888,1.888,0,1,0-1.887,1.887,1.888,1.888,0,0,0,1.887-1.887" transform="translate(64.342 20.201)" fill="#7f4fc7"/>
            <path id="Trazado_194906" data-name="Trazado 194906" d="M69.958,121.4a1.888,1.888,0,1,0-1.887,1.887,1.887,1.887,0,0,0,1.887-1.887" transform="translate(73.534 20.201)" fill="#7f4fc7"/>
          </g>
        </g>
        <g id="Grupo_154314" data-name="Grupo 154314" transform="translate(452.434 216.309)">
          <g id="Grupo_152551" data-name="Grupo 152551" transform="translate(0 146.132) rotate(-90)">
            <rect id="Rectángulo_45220" data-name="Rectángulo 45220" width="130.767" height="36.351" transform="translate(131.68 36.351) rotate(180)" fill="#e8e8e8"/>
            <g id="Grupo_152556" data-name="Grupo 152556" transform="translate(0 20.136)">
              <rect id="Rectángulo_45221" data-name="Rectángulo 45221" width="6.177" height="6.177" transform="translate(139.954 26.253)" fill="#1894f6"/>
              <rect id="Rectángulo_45222" data-name="Rectángulo 45222" width="6.177" height="6.177" transform="translate(126.828 26.253)" fill="#1894f6"/>
              <rect id="Rectángulo_45223" data-name="Rectángulo 45223" width="6.177" height="6.177" transform="translate(111.964 26.253)" fill="#1894f6"/>
              <rect id="Rectángulo_45224" data-name="Rectángulo 45224" width="6.177" height="6.177" transform="translate(97.968 26.253)" fill="#1894f6"/>
              <rect id="Rectángulo_45225" data-name="Rectángulo 45225" width="6.177" height="6.177" transform="translate(83.973 26.253)" fill="#1894f6"/>
              <rect id="Rectángulo_45226" data-name="Rectángulo 45226" width="6.177" height="6.177" transform="translate(69.977 26.253)" fill="#1894f6"/>
              <rect id="Rectángulo_45227" data-name="Rectángulo 45227" width="6.177" height="6.177" transform="translate(55.982 26.253)" fill="#1894f6"/>
              <rect id="Rectángulo_45228" data-name="Rectángulo 45228" width="6.177" height="6.177" transform="translate(41.986 26.253)" fill="#1894f6"/>
              <rect id="Rectángulo_45229" data-name="Rectángulo 45229" width="6.177" height="6.177" transform="translate(27.991 26.253)" fill="#1894f6"/>
              <rect id="Rectángulo_45230" data-name="Rectángulo 45230" width="6.177" height="6.177" transform="translate(13.126 26.253)" fill="#1894f6"/>
              <rect id="Rectángulo_45231" data-name="Rectángulo 45231" width="6.177" height="6.177" transform="translate(0 26.253)" fill="#1894f6"/>
              <rect id="Rectángulo_45232" data-name="Rectángulo 45232" width="6.177" height="6.177" transform="translate(139.954 13.126)" fill="#1894f6"/>
              <rect id="Rectángulo_45233" data-name="Rectángulo 45233" width="6.177" height="6.177" transform="translate(126.828 13.126)" fill="#1894f6"/>
              <rect id="Rectángulo_45234" data-name="Rectángulo 45234" width="6.177" height="6.177" transform="translate(111.964 13.126)" fill="#1894f6"/>
              <rect id="Rectángulo_45235" data-name="Rectángulo 45235" width="6.177" height="6.177" transform="translate(97.968 13.126)" fill="#1894f6"/>
              <rect id="Rectángulo_45236" data-name="Rectángulo 45236" width="6.177" height="6.177" transform="translate(83.973 13.126)" fill="#1894f6"/>
              <rect id="Rectángulo_45237" data-name="Rectángulo 45237" width="6.177" height="6.177" transform="translate(69.977 13.126)" fill="#1894f6"/>
              <rect id="Rectángulo_45238" data-name="Rectángulo 45238" width="6.177" height="6.177" transform="translate(55.982 13.126)" fill="#1894f6"/>
              <rect id="Rectángulo_45239" data-name="Rectángulo 45239" width="6.177" height="6.177" transform="translate(41.986 13.126)" fill="#1894f6"/>
              <rect id="Rectángulo_45240" data-name="Rectángulo 45240" width="6.177" height="6.177" transform="translate(27.991 13.126)" fill="#1894f6"/>
              <rect id="Rectángulo_45241" data-name="Rectángulo 45241" width="6.177" height="6.177" transform="translate(13.126 13.126)" fill="#1894f6"/>
              <rect id="Rectángulo_45242" data-name="Rectángulo 45242" width="6.177" height="6.177" transform="translate(0 13.126)" fill="#1894f6"/>
              <rect id="Rectángulo_45243" data-name="Rectángulo 45243" width="6.177" height="6.177" transform="translate(139.954)" fill="#1894f6"/>
              <rect id="Rectángulo_45244" data-name="Rectángulo 45244" width="6.177" height="6.177" transform="translate(126.828)" fill="#1894f6"/>
              <rect id="Rectángulo_45245" data-name="Rectángulo 45245" width="6.177" height="6.177" transform="translate(111.964)" fill="#1894f6"/>
              <rect id="Rectángulo_45246" data-name="Rectángulo 45246" width="6.177" height="6.177" transform="translate(97.968)" fill="#1894f6"/>
              <rect id="Rectángulo_45247" data-name="Rectángulo 45247" width="6.177" height="6.177" transform="translate(83.973)" fill="#1894f6"/>
              <rect id="Rectángulo_45248" data-name="Rectángulo 45248" width="6.177" height="6.177" transform="translate(69.977)" fill="#1894f6"/>
              <rect id="Rectángulo_45249" data-name="Rectángulo 45249" width="6.177" height="6.177" transform="translate(55.982)" fill="#1894f6"/>
              <rect id="Rectángulo_45250" data-name="Rectángulo 45250" width="6.177" height="6.177" transform="translate(41.986)" fill="#1894f6"/>
              <rect id="Rectángulo_45251" data-name="Rectángulo 45251" width="6.177" height="6.177" transform="translate(27.991)" fill="#1894f6"/>
              <rect id="Rectángulo_45252" data-name="Rectángulo 45252" width="6.177" height="6.177" transform="translate(13.126)" fill="#1894f6"/>
              <rect id="Rectángulo_45253" data-name="Rectángulo 45253" width="6.177" height="6.177" fill="#1894f6"/>
            </g>
          </g>
        </g>
        <g id="Grupo_154317" data-name="Grupo 154317" transform="translate(0 350.45)">
          <g id="Grupo_154315" data-name="Grupo 154315" transform="translate(53.793 15.646)">
            <path id="Trazado_195058" data-name="Trazado 195058" d="M14.988,227.726H81.36a2.488,2.488,0,1,0,0-4.975H14.988a2.488,2.488,0,1,0,0,4.975" transform="translate(-12.5 -222.751)" fill="#3cafff"/>
            <path id="Trazado_195059" data-name="Trazado 195059" d="M84.949,227.726H101.7a2.488,2.488,0,1,0,0-4.975H84.949a2.488,2.488,0,1,0,0,4.975" transform="translate(-5.009 -222.751)" fill="#3cafff"/>
            <path id="Trazado_195064" data-name="Trazado 195064" d="M131.644,232.612H85.022a1.748,1.748,0,0,0,0,3.5h46.622a1.748,1.748,0,0,0,0-3.5" transform="translate(-4.922 -221.695)" fill="#3cafff"/>
            <path id="Trazado_195065" data-name="Trazado 195065" d="M79.13,232.612H67.361a1.748,1.748,0,0,0,0,3.5H79.13a1.748,1.748,0,1,0,0-3.5" transform="translate(-6.813 -221.695)" fill="#3cafff"/>
          </g>
          <g id="Grupo_154316" data-name="Grupo 154316">
            <path id="Trazado_195062" data-name="Trazado 195062" d="M193.258,1.333H114.9c-1.622,0-2.936.783-2.936,1.747s1.314,1.748,2.936,1.748h78.353c1.622,0,2.938-.783,2.938-1.748s-1.315-1.747-2.938-1.747" transform="translate(-60.887 -1.333)" fill="#7f4fc7"/>
            <path id="Trazado_195063" data-name="Trazado 195063" d="M129.623,1.333H98.873c-2.522,0-4.564.783-4.564,1.747s2.042,1.748,4.564,1.748h30.75c2.522,0,4.564-.783,4.564-1.748s-2.042-1.747-4.564-1.747" transform="translate(-94.309 -1.333)" fill="#7f4fc7"/>
          </g>
        </g>
        <g id="Grupo_154318" data-name="Grupo 154318" transform="translate(268.068)">
          <g id="Grupo_154315-2" data-name="Grupo 154315" transform="translate(38.286 11.135)">
            <path id="Trazado_195058-2" data-name="Trazado 195058" d="M14.271,226.292H61.51a1.771,1.771,0,1,0,0-3.541H14.271a1.771,1.771,0,1,0,0,3.541" transform="translate(-12.5 -222.751)" fill="#b7aadb"/>
            <path id="Trazado_195059-2" data-name="Trazado 195059" d="M84.232,226.292H96.157a1.771,1.771,0,1,0,0-3.541H84.232a1.771,1.771,0,1,0,0,3.541" transform="translate(-27.336 -222.751)" fill="#b7aadb"/>
            <path id="Trazado_195064-2" data-name="Trazado 195064" d="M117.7,232.612H84.518a1.244,1.244,0,0,0,0,2.488H117.7a1.244,1.244,0,0,0,0-2.488" transform="translate(-27.508 -224.842)" fill="#b7aadb"/>
            <path id="Trazado_195065-2" data-name="Trazado 195065" d="M75.234,232.612H66.857a1.244,1.244,0,0,0,0,2.488h8.377a1.244,1.244,0,1,0,0-2.488" transform="translate(-23.763 -224.842)" fill="#b7aadb"/>
          </g>
          <g id="Grupo_154316-2" data-name="Grupo 154316">
            <path id="Trazado_195062-2" data-name="Trazado 195062" d="M169.825,1.333H114.059c-1.155,0-2.09.557-2.09,1.243s.935,1.244,2.09,1.244h55.766c1.155,0,2.091-.557,2.091-1.244s-.936-1.243-2.091-1.243" transform="translate(-75.613 -1.333)" fill="#b7aadb"/>
            <path id="Trazado_195063-2" data-name="Trazado 195063" d="M119.443,1.333H97.558c-1.8,0-3.249.557-3.249,1.243s1.453,1.244,3.249,1.244h21.886c1.8,0,3.249-.557,3.249-1.244s-1.453-1.243-3.249-1.243" transform="translate(-94.309 -1.333)" fill="#b7aadb"/>
          </g>
        </g>
      </g>
    </g>
    <g id="Grupo_154664" data-name="Grupo 154664" transform="translate(926.407 1396.328)">
      <path id="Trazado_196392" data-name="Trazado 196392" d="M533.985,81.83a8.844,8.844,0,1,0,8.845-8.845,8.845,8.845,0,0,0-8.845,8.845" transform="translate(-50.343 -33.49)" fill="#2194e5"/>
      <g id="Grupo_154659" data-name="Grupo 154659" transform="translate(211.732 287.336)">
        <g id="Grupo_154658" data-name="Grupo 154658" transform="translate(0 0)" clip-path="url(#clip-path-2)">
          <path id="Trazado_196393" data-name="Trazado 196393" d="M274.024,331.3a38.749,38.749,0,1,0,38.748-38.748A38.749,38.749,0,0,0,274.024,331.3Z" transform="translate(-253.068 -267.044)" fill="none" stroke="#7463e5" stroke-miterlimit="10" stroke-width="12.325"/>
        </g>
      </g>
      <g id="Grupo_154667" data-name="Grupo 154667" transform="translate(302.578 75.585)">
        <path id="Trazado_196394" data-name="Trazado 196394" d="M339.555,250.724a85.9,85.9,0,1,0,2.123-121.455,85.9,85.9,0,0,0-2.123,121.455" transform="translate(-315.449 -105.163)" fill="#2194e5"/>
        <g id="Grupo_154663" data-name="Grupo 154663">
          <g id="Grupo_154662" data-name="Grupo 154662" transform="translate(0 0)" clip-path="url(#clip-path-3)">
            <line id="Línea_1835" data-name="Línea 1835" y1="90.324" x2="209.48" transform="translate(-4.224 60.582)" fill="none" stroke="#fff" stroke-linecap="round" stroke-linejoin="round" stroke-width="1.052"/>
            <line id="Línea_1836" data-name="Línea 1836" y1="90.324" x2="209.48" transform="translate(-1.879 66.021)" fill="none" stroke="#fff" stroke-linecap="round" stroke-linejoin="round" stroke-width="1.052"/>
            <line id="Línea_1837" data-name="Línea 1837" y1="90.324" x2="209.48" transform="translate(0.466 71.46)" fill="none" stroke="#fff" stroke-linecap="round" stroke-linejoin="round" stroke-width="1.052"/>
            <line id="Línea_1838" data-name="Línea 1838" y1="90.324" x2="209.48" transform="translate(2.812 76.899)" fill="none" stroke="#fff" stroke-linecap="round" stroke-linejoin="round" stroke-width="1.052"/>
            <line id="Línea_1839" data-name="Línea 1839" y1="90.324" x2="209.48" transform="translate(5.157 82.338)" fill="none" stroke="#fff" stroke-linecap="round" stroke-linejoin="round" stroke-width="1.052"/>
            <line id="Línea_1840" data-name="Línea 1840" y1="90.324" x2="209.48" transform="translate(7.502 87.777)" fill="none" stroke="#fff" stroke-linecap="round" stroke-linejoin="round" stroke-width="1.052"/>
            <line id="Línea_1841" data-name="Línea 1841" y1="90.324" x2="209.48" transform="translate(9.847 93.215)" fill="none" stroke="#fff" stroke-linecap="round" stroke-linejoin="round" stroke-width="1.052"/>
            <line id="Línea_1842" data-name="Línea 1842" y1="90.324" x2="209.48" transform="translate(12.192 98.654)" fill="none" stroke="#fff" stroke-linecap="round" stroke-linejoin="round" stroke-width="1.052"/>
            <line id="Línea_1843" data-name="Línea 1843" y1="90.324" x2="209.48" transform="translate(14.537 104.093)" fill="none" stroke="#fff" stroke-linecap="round" stroke-linejoin="round" stroke-width="1.052"/>
            <line id="Línea_1844" data-name="Línea 1844" y1="90.324" x2="209.48" transform="translate(16.882 109.532)" fill="none" stroke="#fff" stroke-linecap="round" stroke-linejoin="round" stroke-width="1.052"/>
            <line id="Línea_1845" data-name="Línea 1845" y1="90.324" x2="209.48" transform="translate(19.227 114.971)" fill="none" stroke="#fff" stroke-linecap="round" stroke-linejoin="round" stroke-width="1.052"/>
            <line id="Línea_1846" data-name="Línea 1846" y1="90.324" x2="209.48" transform="translate(21.573 120.41)" fill="none" stroke="#fff" stroke-linecap="round" stroke-linejoin="round" stroke-width="1.052"/>
            <line id="Línea_1847" data-name="Línea 1847" y1="90.324" x2="209.48" transform="translate(23.918 125.848)" fill="none" stroke="#fff" stroke-linecap="round" stroke-linejoin="round" stroke-width="1.052"/>
            <line id="Línea_1848" data-name="Línea 1848" y1="90.324" x2="209.48" transform="translate(26.263 131.287)" fill="none" stroke="#fff" stroke-linecap="round" stroke-linejoin="round" stroke-width="1.052"/>
          </g>
        </g>
      </g>
      <path id="Trazado_196396" data-name="Trazado 196396" d="M323.212,355.093H312.591l-76.139-92.656,21.294-87.451Z" transform="translate(-44.66 12.137)" fill="#12263f"/>
      <g id="Grupo_154666" data-name="Grupo 154666" transform="translate(0 119.437)">
        <path id="Trazado_196397" data-name="Trazado 196397" d="M274.34,265.708H31.077L44,110.514h236.43Z" transform="translate(-31.077 -110.514)" fill="#7463e5"/>
        <line id="Línea_1849" data-name="Línea 1849" x2="124.6" transform="translate(14.804 49.95)" fill="none" stroke="#fff" stroke-linecap="round" stroke-linejoin="round" stroke-width="1.052"/>
        <line id="Línea_1850" data-name="Línea 1850" x2="124.6" transform="translate(14.804 62.497)" fill="none" stroke="#fff" stroke-linecap="round" stroke-linejoin="round" stroke-width="1.052"/>
        <line id="Línea_1851" data-name="Línea 1851" x2="44.307" transform="translate(14.804 75.042)" fill="none" stroke="#fff" stroke-linecap="round" stroke-linejoin="round" stroke-width="1.052"/>
        <line id="Línea_1852" data-name="Línea 1852" x2="124.6" transform="translate(14.804 87.587)" fill="none" stroke="#fff" stroke-linecap="round" stroke-linejoin="round" stroke-width="1.052"/>
        <circle id="Elipse_5788" data-name="Elipse 5788" cx="3.627" cy="3.627" r="3.627" transform="matrix(0.987, -0.16, 0.16, 0.987, 19.408, 10.497)" fill="none" stroke="#fff" stroke-linecap="round" stroke-linejoin="round" stroke-width="1.052"/>
        <circle id="Elipse_5789" data-name="Elipse 5789" cx="3.627" cy="3.627" r="3.627" transform="matrix(0.989, -0.149, 0.149, 0.989, 31.736, 10.449)" fill="none" stroke="#fff" stroke-linecap="round" stroke-linejoin="round" stroke-width="1.052"/>
        <circle id="Elipse_5790" data-name="Elipse 5790" cx="3.627" cy="3.627" r="3.627" transform="matrix(0.987, -0.16, 0.16, 0.987, 43.993, 10.497)" fill="none" stroke="#fff" stroke-linecap="round" stroke-linejoin="round" stroke-width="1.052"/>
      </g>
      <path id="Trazado_196399" data-name="Trazado 196399" d="M238.42,92.4H355.2l14.554-70.98L242.587,16.763Z" transform="translate(-44.038 1.162)" fill="#7463e5"/>
      <line id="Línea_1853" data-name="Línea 1853" x1="97.122" transform="translate(192.902 66.115)" fill="none" stroke="#fff" stroke-linecap="round" stroke-linejoin="round" stroke-width="6.69"/>
      <path id="Trazado_196400" data-name="Trazado 196400" d="M301.894,62.281a7,7,0,1,1-7-7,7,7,0,0,1,7,7" transform="translate(-40.747 3.834)" fill="#2194e5"/>
      <line id="Línea_1854" data-name="Línea 1854" x1="96.382" transform="translate(193.65 47.647)" fill="none" stroke="#fff" stroke-linecap="round" stroke-linejoin="round" stroke-width="6.69"/>
      <path id="Trazado_196401" data-name="Trazado 196401" d="M325.21,45.012a7,7,0,1,1-7-7,7,7,0,0,1,7,7" transform="translate(-38.726 2.637)" fill="#1e0b4a"/>
      <path id="Trazado_196402" data-name="Trazado 196402" d="M225.581,136.039a15.551,15.551,0,0,0,0-31.1" transform="translate(-46.134 7.279)" fill="none" stroke="#2194e5" stroke-miterlimit="10" stroke-width="7.65"/>
      <path id="Trazado_196403" data-name="Trazado 196403" d="M226.59,104.937a15.551,15.551,0,0,0,0,31.1" transform="translate(-47.396 7.279)" fill="none" stroke="#fff" stroke-miterlimit="10" stroke-width="7.65"/>
      <g id="Grupo_154665" data-name="Grupo 154665" transform="translate(7.08 291.853)">
        <path id="Trazado_196404" data-name="Trazado 196404" d="M74.027,275.383a26.305,26.305,0,1,0,12.751,34.948,26.305,26.305,0,0,0-12.751-34.948" transform="translate(-36.616 -272.921)" fill="#2194e5"/>
        <path id="Trazado_196405" data-name="Trazado 196405" d="M51.83,321.526a26.316,26.316,0,0,0,29.751-5.293L36.72,295.358a26.316,26.316,0,0,0,15.11,26.168" transform="translate(-36.616 -271.365)" fill="#12263f"/>
      </g>
      <path id="Trazado_196406" data-name="Trazado 196406" d="M412,78.932c-7.6,14.727-12.4,25.978-17.885,33.058L378.69,101.321l11.8-24.681Z" transform="translate(-32.652 5.316)" fill="#ed9f78"/>
      <path id="Trazado_196407" data-name="Trazado 196407" d="M424.9,45.789c-10.086-.88-15.543-1.3-22.241,8.527-3.546,5.2-8.615,16.179-12.93,24.492,7,3.05,20.013,8.859,20.013,8.859S420.715,59.795,424.9,45.789" transform="translate(-31.665 3.146)" fill="#7463e5"/>
      <path id="Trazado_196408" data-name="Trazado 196408" d="M387.552,96.293c10.35,1.265,14.164,14.709,5.266,16.187-7.816,1.3-46.849-3.852-46.849-3.852l-.813-9.86s35.595-3.306,42.4-2.476" transform="translate(-35.357 6.67)" fill="#fcc5a0"/>
      <path id="Trazado_196409" data-name="Trazado 196409" d="M344.223,98.87a14.8,14.8,0,0,0-4.534-1.6c-2.264-.309-11.343-.642-15.1-1.913a1.992,1.992,0,0,0,.959,2.508c2.158,1.345,7.515,2.528,7.515,2.528s-4.841,1.817-5.564,1.958a17.129,17.129,0,0,1-3.215.325,38.81,38.81,0,0,0-.884-4.324,1.974,1.974,0,0,0-2.451-1.208s.13,2.164.329,4.512l-.968-.356-.009-.024s.058-3.013.07-3.9c.026-2.118-2.273-2.452-2.273-2.452a57.468,57.468,0,0,0-.815,6.093c-.161-.141-.408-3.2-.613-3.886a2.382,2.382,0,0,0-2.339-1.684s-.345,5.288.14,6.62,2.281,5.339,3.3,5.741c1.421.82,10.086,4.437,12.786,4.317,1.133-.05,10.206-2.776,13.975-3.546a20.666,20.666,0,0,1,3.577.139l-.813-9.86Z" transform="translate(-38.278 6.584)" fill="#fcc5a0"/>
      <path id="Trazado_196410" data-name="Trazado 196410" d="M312.776,97.508l1.571,2.745c-.051-1.068-.025-2.368.013-3.367a2.563,2.563,0,0,0-1.584.622" transform="translate(-38.702 6.719)" fill="#ed9f78"/>
      <path id="Trazado_196411" data-name="Trazado 196411" d="M324.666,105.773l4.191,2.343a11.716,11.716,0,0,1,8.1-5.055" transform="translate(-37.578 7.149)" fill="none" stroke="#d66050" stroke-linecap="round" stroke-linejoin="round" stroke-width="0.842"/>
      <path id="Trazado_196412" data-name="Trazado 196412" d="M460.431,283.635l-8.649,17.4,5.47,44.587a1.514,1.514,0,0,0,2.946.213l19.438-56.546Z" transform="translate(-25.566 19.674)" fill="#2194e5"/>
      <path id="Trazado_196413" data-name="Trazado 196413" d="M407.773,344.887l.037-1.085a3.719,3.719,0,0,1,.651-1.964l11.31-17.545,17.663-2.16,2.56,20.2a3.431,3.431,0,0,1,.026.575l-.068,1.976Z" transform="translate(-30.127 22.344)" fill="#2194e5"/>
      <path id="Trazado_196414" data-name="Trazado 196414" d="M419.36,138.064c-4.046,39.993-7.321,133.114-7.55,202.175l26.318-2.56c4.33-33.573,20.762-157.437,19.232-194.8Z" transform="translate(-28.339 9.577)" fill="#12263f"/>
      <path id="Trazado_196415" data-name="Trazado 196415" d="M396.1,140.863l39.455-2.8c-9.075,26.93-22.451,72.639-32.1,100.668,20.843,17.93,43.245,35.668,66.3,55.827l-17.126,22.31c-22.638-15.879-56.612-39.233-75.472-56.04-11.857-10.565-11.55-19.112-9.048-28.972,9.536-37.569,13.509-51.433,28-90.994" transform="translate(-31.468 9.577)" fill="#12263f"/>
      <path id="Trazado_196416" data-name="Trazado 196416" d="M435.308,328.638c-1.938,4.441-3.225,10-2.687,14.89" transform="translate(-26.903 22.796)" fill="none" stroke="#1e0b4a" stroke-linecap="round" stroke-linejoin="round" stroke-width="0.842"/>
      <line id="Línea_1855" data-name="Línea 1855" x1="29.563" y1="24.595" transform="translate(384.907 260.448)" fill="none" stroke="#1e0b4a" stroke-linecap="round" stroke-linejoin="round" stroke-width="0.829"/>
      <path id="Trazado_196417" data-name="Trazado 196417" d="M394.192,147.292s6.378-37.982,8.368-58.734c2.324-24.231,5.15-31.493,6.851-36.788.68-2.115,6.385-6.428,8.387-6.4,15.985.2,30.354,1.884,44.709,6.217,27.71,12.688-1,47.824-2.113,66.161-.7,11.576-1.811,31.559-1.811,31.559Z" transform="translate(-29.561 3.146)" fill="#7463e5"/>
      <path id="Trazado_196418" data-name="Trazado 196418" d="M431.521,3.385s-4.8,18.306-5.642,30.927c-.268,4.018,2.236,5.13,6.265,5.657,4.613.6,9.33-1.165,12.052-6.762,7.567-15.566,7.019-27.642,2.643-30.127s-15.319.3-15.319.3" transform="translate(-28.66 0.142)" fill="#fcc5a0"/>
      <path id="Trazado_196419" data-name="Trazado 196419" d="M447.318,17.651,444.057,54.8l-9.826-.974,3.588-37.088Z" transform="translate(-26.783 1.161)" fill="#fcc5a0"/>
      <path id="Trazado_196420" data-name="Trazado 196420" d="M441.2,39.192A23.762,23.762,0,0,0,443.537,32c-.034.075-.065.15-.1.225a10.337,10.337,0,0,1-7.9,6.384l-.4,4.108c2.716-.315,4.7-1.281,6.063-3.526" transform="translate(-26.721 2.22)" fill="#d66050"/>
      <path id="Trazado_196421" data-name="Trazado 196421" d="M446.491,29.528c-.635-2.616.794-6.38.794-11.116,0-1.486-3.371-2.137-3.371-2.137L446.3,8.639s-12.46-2.954-15.578-2.949c.062-1.944.376-2.349,1.007-2.693,3.865-2.1,11.1-2.38,16.6-.133A8.629,8.629,0,0,1,453.6,13.088c-1.363,4.843-7.109,16.44-7.109,16.44" transform="translate(-27.026 0.09)" fill="#1e0b4a"/>
      <path id="Trazado_196422" data-name="Trazado 196422" d="M446.623,18.648A2.839,2.839,0,0,1,449.8,19.7a3.084,3.084,0,0,1-.042,2.762,7.217,7.217,0,0,1-6.964,4.291s-.468-6.758,3.826-8.1" transform="translate(-26.19 1.285)" fill="#fcc5a0"/>
      <path id="Trazado_196423" data-name="Trazado 196423" d="M434.54,14.476l4.117.819s-3.618-3.792-4.117-.819" transform="translate(-26.762 0.926)" fill="#1e0b4a"/>
      <path id="Trazado_196424" data-name="Trazado 196424" d="M431.785,13.91l-3.03-.6s3.683-2.339,3.03.6" transform="translate(-28.687 0.862)" fill="#1e0b4a"/>
      <path id="Trazado_196425" data-name="Trazado 196425" d="M429.951,26.595a10.633,10.633,0,0,0,6.284-2.835" transform="translate(-27.081 1.648)" fill="none" stroke="#d66050" stroke-linecap="round" stroke-linejoin="round" stroke-width="0.842"/>
      <path id="Trazado_196426" data-name="Trazado 196426" d="M432.427,15.851a10.888,10.888,0,0,1-1.311,4.009,12.4,12.4,0,0,0-.957,1.665,2.456,2.456,0,0,0,.481,2.018" transform="translate(-27.07 1.1)" fill="none" stroke="#d66050" stroke-linecap="round" stroke-linejoin="round" stroke-width="0.842"/>
      <path id="Trazado_196427" data-name="Trazado 196427" d="M434.868,16.806a.753.753,0,1,0,.885-.591.753.753,0,0,0-.885.591" transform="translate(-26.74 1.123)" fill="#1e0b4a"/>
      <path id="Trazado_196428" data-name="Trazado 196428" d="M429.063,15.542a.753.753,0,1,0,.885-.59.753.753,0,0,0-.885.59" transform="translate(-28.682 1.035)" fill="#1e0b4a"/>
      <path id="Trazado_196429" data-name="Trazado 196429" d="M429.951,34.177a8.888,8.888,0,0,0,2.361-.3" transform="translate(-27.081 2.351)" fill="none" stroke="#d66050" stroke-linecap="round" stroke-linejoin="round" stroke-width="0.842"/>
      <path id="Trazado_196430" data-name="Trazado 196430" d="M444.841,23.909a3.272,3.272,0,0,1,.77-2.905,3.215,3.215,0,0,1,1.3-.843" transform="translate(-26.054 1.398)" fill="none" stroke="#d66050" stroke-linecap="round" stroke-linejoin="round" stroke-width="0.842"/>
      <path id="Trazado_196431" data-name="Trazado 196431" d="M430.171,18.823a14.392,14.392,0,0,1-3.946-.875,11.39,11.39,0,0,1,.467-4.708,16.688,16.688,0,0,1,5.462,1.129A13.7,13.7,0,0,1,430.171,18.823Z" transform="translate(-28.874 0.919)" fill="none" stroke="#d66050" stroke-linecap="round" stroke-linejoin="round" stroke-width="0.842"/>
      <path id="Trazado_196432" data-name="Trazado 196432" d="M433.414,19.5a24.77,24.77,0,0,0,5.21,1.018,11.374,11.374,0,0,0,1.437-4.507,25.021,25.021,0,0,0-6.7-1.386A13.728,13.728,0,0,0,433.414,19.5Z" transform="translate(-26.857 1.015)" fill="none" stroke="#d66050" stroke-linecap="round" stroke-linejoin="round" stroke-width="0.842"/>
      <line id="Línea_1856" data-name="Línea 1856" x2="1.691" y2="0.35" transform="translate(404.812 15.288)" fill="none" stroke="#d66050" stroke-linecap="round" stroke-linejoin="round" stroke-width="0.842"/>
      <line id="Línea_1857" data-name="Línea 1857" x2="7.33" y2="1.789" transform="translate(413.204 17.023)" fill="none" stroke="#d66050" stroke-linecap="round" stroke-linejoin="round" stroke-width="0.842"/>
      <path id="Trazado_196433" data-name="Trazado 196433" d="M456.147,50.34c-13.444,14-31.945,6.013-32.967-4.776a145.14,145.14,0,0,1,32.967,4.776" transform="translate(-27.55 3.16)" fill="#fcc5a0"/>
      <path id="Trazado_196434" data-name="Trazado 196434" d="M485.818,132.926S477.3,114.909,465.34,88.468L487.8,80.9c5.828,13.5,12.879,33.9,15.291,45.5Z" transform="translate(-24.625 5.611)" fill="#ed9f78"/>
      <path id="Trazado_196435" data-name="Trazado 196435" d="M465.379,159.227s32.335-22.638,37.656-33.388c2.894-5.847-9.564-15.038-23.267.478-13.742,15.56-15.284,16.446-19.626,21.3Z" transform="translate(-24.986 8.168)" fill="#fcc5a0"/>
      <path id="Trazado_196436" data-name="Trazado 196436" d="M451.821,152.352s-8.463,2.844-11.41,2.328a3.509,3.509,0,0,1-2.418-1.713s10.508-4.88,11.788-5.252c2.469-.719,11.9-2.034,11.9-2.034l5.238,11.609c-4.757,5.463-8.445,7.489-12.675,10.034l-6.712-12.264Z" transform="translate(-26.523 10.104)" fill="#fcc5a0"/>
      <path id="Trazado_196437" data-name="Trazado 196437" d="M458.342,51.183c8.48,2.662,19.027,6.576,24.619,17.009,4.351,8.119,6.266,14.14,11.211,28.952-10.862,4.262-24.342,9.747-24.342,9.747L454.245,74.121a190.505,190.505,0,0,1,4.1-22.938" transform="translate(-25.395 3.55)" fill="#7463e5"/>
      <path id="Trazado_196438" data-name="Trazado 196438" d="M152.275.906C120.864-7.7,93.985,47.577,128.4,59.847,191.208,76.824,194.717-.259,157.95.232c-1.429.019-5.675.674-5.675.674" transform="translate(-56.85)" fill="#1e0b4a"/>
      <rect id="Rectángulo_46328" data-name="Rectángulo 46328" width="7.926" height="35.742" transform="translate(89.039 32.288) rotate(-7.43)" fill="#be6248"/>
      <path id="Trazado_196439" data-name="Trazado 196439" d="M157.806,45.543c-2.015,2.727-5.39.846-6.55.134-5.064-3.111-9.19-10.315-10.748-19.48a61.753,61.753,0,0,1-.89-14.231c4.118-4.257,12.462-6.316,18.139-4.273,2.409,11.5,4.681,31.579.049,37.85" transform="translate(-53.576 0.479)" fill="#be6248"/>
      <path id="Trazado_196440" data-name="Trazado 196440" d="M155.314,19.9l3.566-.007s-1.983-2.367-3.566.007" transform="translate(-52.264 1.308)" fill="#1e0b4a"/>
      <path id="Trazado_196441" data-name="Trazado 196441" d="M156.488,22.3c.067.519.443.9.838.847a.86.86,0,0,0,.594-1.034c-.067-.519-.444-.9-.838-.846a.858.858,0,0,0-.593,1.033" transform="translate(-52.172 1.476)" fill="#1e0b4a"/>
      <path id="Trazado_196442" data-name="Trazado 196442" d="M152.116,20.254l-5.684,1.473s3.67-3.922,5.684-1.473" transform="translate(-54.483 1.349)" fill="#1e0b4a"/>
      <path id="Trazado_196443" data-name="Trazado 196443" d="M151.153,23a.883.883,0,1,1-1-.921.967.967,0,0,1,1,.921" transform="translate(-54.275 1.531)" fill="#1e0b4a"/>
      <path id="Trazado_196444" data-name="Trazado 196444" d="M153.778,21.089c-.015,2.449.25,4.5,1.511,6.238.427.59.738.781.822,1.18.168.795-.736,1.435-1.64,1.553" transform="translate(-52.402 1.463)" fill="none" stroke="#853534" stroke-linecap="round" stroke-linejoin="round" stroke-width="0.829"/>
      <path id="Trazado_196445" data-name="Trazado 196445" d="M151.56,26.127a1.636,1.636,0,1,1-1.834-1.409,1.636,1.636,0,0,1,1.834,1.409" transform="translate(-54.354 1.714)" fill="#853534"/>
      <path id="Trazado_196446" data-name="Trazado 196446" d="M158.439,23.664a1.646,1.646,0,0,0,.423,3.244,1.282,1.282,0,0,0,.337-.1c-.092-1.034-.2-2.08-.32-3.125a1.32,1.32,0,0,0-.441-.025" transform="translate(-52.11 1.641)" fill="#853534"/>
      <path id="Trazado_196447" data-name="Trazado 196447" d="M143.746,35.245a25.118,25.118,0,0,0,9.26,15.407l-.819-6.283c-3.031-1.316-6.026-4.408-8.44-9.125" transform="translate(-54.669 2.445)" fill="#853534"/>
      <path id="Trazado_196448" data-name="Trazado 196448" d="M160.572,3.835s-2.3,7.554-3.987,9.569c-2.481,2.964-13.367,9.511-14.9,13.006-4.088,9.292,5.915,35,5.915,35S117.039,48.372,123.547,28.3,160.572,3.835,160.572,3.835" transform="translate(-56.134 0.266)" fill="#1e0b4a"/>
      <path id="Trazado_196449" data-name="Trazado 196449" d="M150.28,30.019a6.354,6.354,0,0,0,5.528,2.778" transform="translate(-52.693 2.082)" fill="none" stroke="#853534" stroke-linecap="round" stroke-linejoin="round" stroke-width="0.829"/>
      <path id="Trazado_196450" data-name="Trazado 196450" d="M141.959,23.569a5.588,5.588,0,0,0-1.573-2.584,1.938,1.938,0,0,0-2.1-.576,2.066,2.066,0,0,0-.891,1.553A4.754,4.754,0,0,0,138.715,26a3.846,3.846,0,0,0,3.824.94Z" transform="translate(-55.113 1.406)" fill="#be6248"/>
      <path id="Trazado_196451" data-name="Trazado 196451" d="M140.552,24.723a4.182,4.182,0,0,0-.681-2.606,2.539,2.539,0,0,0-.878-.775" transform="translate(-54.999 1.48)" fill="none" stroke="#853534" stroke-linecap="round" stroke-linejoin="round" stroke-width="0.829"/>
      <path id="Trazado_196452" data-name="Trazado 196452" d="M189.221,112.265c-6.567-5.591-13.079-16.637-16.074-23.434.249-11.609,14.7-7.345,14.7-7.345a166.4,166.4,0,0,1,5.2,18.3Z" transform="translate(-50.661 5.599)" fill="#853534"/>
      <path id="Trazado_196453" data-name="Trazado 196453" d="M222.046,42.256c-1.27-2.306-6.69,1.412-9.524,3.62s-6.246,4.881-9.786,5.487c4.714-6.5,3.693-7.831,3.194-8.5-2.851,2.781-8.94,7.523-8.032,16.37a20.291,20.291,0,0,1-.908,5.227,50.582,50.582,0,0,0,8.776,4.213c.167-1.414.389-2.638.5-3.866,5.028-1.026,9.444-4.616,11.22-5.864l.143-.067a47.977,47.977,0,0,0,10.415-5.165c-.172-.529-.54-.974-2.078-.85-2.34.19-5.276,2.113-8.776,2.632a56.726,56.726,0,0,0,12.191-6.949c-.34-.525-.9-1.248-3.116-.474-2.039.711-8.013,3.265-9.975,4.091a105.016,105.016,0,0,0,11.963-8.426c-.221-.837-1.755-1.376-4.21.074-4.427,2.615-6.789,3.713-10.515,5.63Z" transform="translate(-48.527 2.881)" fill="#be6248"/>
      <path id="Trazado_196454" data-name="Trazado 196454" d="M197.871,62.976c-3.315,12.373-10.136,24.987-13.177,38.137-2.21,9.562,5.278,16.484,10.847,14.178,5.256-2.177,9.154-29.862,11.106-48.1Z" transform="translate(-49.682 4.368)" fill="#be6248"/>
      <path id="Trazado_196455" data-name="Trazado 196455" d="M206.155,51.441a16.764,16.764,0,0,1-4.27,9.876" transform="translate(-48.245 3.568)" fill="none" stroke="#853534" stroke-linecap="round" stroke-linejoin="round" stroke-width="0.829"/>
      <path id="Trazado_196456" data-name="Trazado 196456" d="M211.361,48.49a19.749,19.749,0,0,1,4.161,7.783" transform="translate(-47.428 3.364)" fill="none" stroke="#853534" stroke-linecap="round" stroke-linejoin="round" stroke-width="0.829"/>
      <path id="Trazado_196457" data-name="Trazado 196457" d="M213.3,242.749c1.91,15.278-2.022,74.69-3.743,93.68l-18.335,9.394c-2.988-23.8-8.355-63.429-10.14-93.4a23.783,23.783,0,0,0-1.81-7.782c-7.682-18.364-13.539-30.926-19.876-52.573-.14,49.206,1.379,89.617,1.124,144.361l-18.134,8.91c-10.505-43.821-26.7-126.976-26.095-157.227.264-13.142,5.634-47.655,10.412-58.79,15.338,2.759,40.941.183,58.583,5.978l7.537,31.4s16.694,45.788,20.477,76.051" transform="translate(-56.574 8.971)" fill="#12263f"/>
      <path id="Trazado_196458" data-name="Trazado 196458" d="M186.724,140.572c-7.228-24.461-1.338-55.7-4.807-74.567-.4-2.185-3.657-4.453-5.818-5.168a136.209,136.209,0,0,0-47.7-7.487c-7.428.154-7.607,13.061-6.364,21.189,4.554,29.774,10.409,43.123,3.933,61.428,24.473,1.9,53.791,4.234,60.752,4.6" transform="translate(-56.216 3.699)" fill="#fff"/>
      <path id="Trazado_196459" data-name="Trazado 196459" d="M170.144,344.827v-.893a4.476,4.476,0,0,0-.576-2.2c-5.2-6.482-9.882-12.891-10.566-18.742l-14.492,2.813a6.112,6.112,0,0,0-4.9,5.277l-1.377,11.565v2.174Z" transform="translate(-53.659 22.403)" fill="#7463e5"/>
      <path id="Trazado_196460" data-name="Trazado 196460" d="M190.863,324.856,204.713,323c8.482,7.236,19.789,13.294,35.718,19.063a1.458,1.458,0,0,1-.642,2.766H186.177l.242-14.973a5.126,5.126,0,0,1,4.444-5" transform="translate(-49.353 22.403)" fill="#7463e5"/>
      <path id="Trazado_196461" data-name="Trazado 196461" d="M135.1,53.384c20.044,31.74,32.6,18.012,33.574,5.2-6.642-2.287-21.687-5.274-33.574-5.2" transform="translate(-53.926 3.702)" fill="#be6248"/>
      <path id="Trazado_196462" data-name="Trazado 196462" d="M163.972,57.466l9.81,117.375,18.127-2.549s-11.862-49.48-11.862-59.29c0-7.949.329-21.143.454-25.859a2.386,2.386,0,0,1,1.721-2.229l6.257-1.817c-6.046-20.132-9.346-21.424-24.507-25.632" transform="translate(-51.426 3.985)" fill="#2194e5"/>
      <path id="Trazado_196463" data-name="Trazado 196463" d="M124.809,90.721l-.083,32.1L113.92,176.781h34.768s8.728-57.117,5.683-73.777-13.435-49.528-13.435-49.528Z" transform="translate(-56.738 3.709)" fill="#2194e5"/>
      <path id="Trazado_196464" data-name="Trazado 196464" d="M101.451,120.9c5.817-8.838,16.563-27.2,21.235-31.6L102.6,81.256a226.383,226.383,0,0,0-16.561,37.386Z" transform="translate(-58.673 5.637)" fill="#853534"/>
      <path id="Trazado_196465" data-name="Trazado 196465" d="M131.63,130.738c-7.239-2.73-25.938-18.419-33.621-19.827-8.184-1.5-18.448,6.25-6.823,14.126S124.96,139.5,124.96,139.5Z" transform="translate(-58.677 7.68)" fill="#be6248"/>
      <path id="Trazado_196466" data-name="Trazado 196466" d="M122,138.064c-.059,1.63,3.793,9.988,5.922,9.8,4.736-1.638,11.4-4.4,11.4-4.4a16.759,16.759,0,0,0-1.444-5.247,14.9,14.9,0,0,1-1.442-3.5c1.273,1.716,3.4,7.027,5.746,7.815a2.554,2.554,0,0,0,2.606-.195c-1.348-3.283-4.728-8.25-7.6-10.143-2.241-1.479-5.5-2.154-8.067-2.757Z" transform="translate(-56.178 8.979)" fill="#be6248"/>
      <path id="Trazado_196467" data-name="Trazado 196467" d="M110.338,67.174c-3.7,5.67-13.369,25.279-13.369,25.279l25.089,10.364L142.111,53.5c-15-.762-21.99-1.313-31.773,13.678" transform="translate(-57.914 3.689)" fill="#2194e5"/>
      <line id="Línea_1858" data-name="Línea 1858" y1="6.383" x2="16.166" transform="translate(68.793 151.63)" fill="none" stroke="#1e0b4a" stroke-linecap="round" stroke-linejoin="round" stroke-width="0.829"/>
      <path id="Trazado_196468" data-name="Trazado 196468" d="M297.638,136.927h56.14a5.279,5.279,0,0,1,4.992,3.561l14.487,42.07H317.115A5.279,5.279,0,0,1,312.124,179Z" transform="translate(-39.3 9.497)" fill="#12263f"/>
      <path id="Trazado_196469" data-name="Trazado 196469" d="M322.906,176.489h70.329a3.61,3.61,0,0,1,3.228,3.325H322.906Z" transform="translate(-37.072 12.242)" fill="#1e0b4a"/>
      <path id="Trazado_196470" data-name="Trazado 196470" d="M457.453,179.6H300.207a10.062,10.062,0,0,0-9.787,7.722L250.347,354.772" transform="translate(-41.791 12.457)" fill="none" stroke="#2194e5" stroke-linecap="round" stroke-linejoin="round" stroke-width="1.052"/>
    </g>
  </g>
</svg>
