<svg xmlns="http://www.w3.org/2000/svg" xmlns:xlink="http://www.w3.org/1999/xlink" width="715" height="311.302" viewBox="0 0 715 311.302">
  <defs>
    <linearGradient id="linear-gradient" x1="0.5" y1="1.356" x2="0.5" y2="0.614" gradientUnits="objectBoundingBox">
      <stop offset="0" stop-color="#7e53c5"/>
      <stop offset="1" stop-color="#080383"/>
    </linearGradient>
    <clipPath id="clip-path">
      <rect id="Rectángulo_46052" data-name="Rectángulo 46052" width="67.875" height="67.865" fill="#fff"/>
    </clipPath>
    <clipPath id="clip-path-2">
      <rect id="Rectángulo_46053" data-name="Rectángulo 46053" width="67.875" height="65.314" fill="#fff"/>
    </clipPath>
    <clipPath id="clip-path-3">
      <rect id="Rectángulo_46054" data-name="Rectángulo 46054" width="67.875" height="69.989" fill="#fff"/>
    </clipPath>
  </defs>
  <g id="Grupo_155228" data-name="Grupo 155228" transform="translate(-705 -2011.164)">
    <rect id="Rectángulo_46049" data-name="Rectángulo 46049" width="227.535" height="311.302" rx="7" transform="translate(1192.465 2011.164)" fill="url(#linear-gradient)"/>
    <rect id="Rectángulo_46050" data-name="Rectángulo 46050" width="227.535" height="311.302" rx="7" transform="translate(948.732 2011.164)" fill="url(#linear-gradient)"/>
    <rect id="Rectángulo_46051" data-name="Rectángulo 46051" width="227.535" height="311.302" rx="7" transform="translate(705 2011.164)" fill="url(#linear-gradient)"/>
    <path id="Trazado_197246" data-name="Trazado 197246" d="M76.113,10.749,76.9,4.2h7.479V6.488H79.3l-.29,2.56a3.493,3.493,0,0,1,.831-.327,4.179,4.179,0,0,1,3.938.988,4.549,4.549,0,0,1,1.024,3.168,4.541,4.541,0,0,1-.549,2.228,3.776,3.776,0,0,1-1.542,1.534,4.87,4.87,0,0,1-2.347.536,5.24,5.24,0,0,1-2.259-.5,4.052,4.052,0,0,1-1.652-1.361,3.308,3.308,0,0,1-.589-1.954h2.971a1.68,1.68,0,0,0,.448,1.114,1.423,1.423,0,0,0,1.063.412q1.494,0,1.494-2.21,0-2.044-1.828-2.044a1.824,1.824,0,0,0-1.547.667Zm10.424,0L87.319,4.2H94.8V6.488H89.728l-.29,2.56a3.493,3.493,0,0,1,.831-.327,4.179,4.179,0,0,1,3.938.988,4.549,4.549,0,0,1,1.024,3.168,4.541,4.541,0,0,1-.549,2.228,3.776,3.776,0,0,1-1.542,1.534,4.87,4.87,0,0,1-2.347.536,5.24,5.24,0,0,1-2.259-.5,4.052,4.052,0,0,1-1.652-1.361,3.308,3.308,0,0,1-.589-1.954h2.971a1.68,1.68,0,0,0,.448,1.114,1.423,1.423,0,0,0,1.063.412q1.494,0,1.494-2.21,0-2.044-1.828-2.044a1.824,1.824,0,0,0-1.547.667Zm14.739-4.085a2.512,2.512,0,0,1,.773-1.916,3.334,3.334,0,0,1,4.157,0,2.578,2.578,0,0,1,.765,1.964v.633a2.5,2.5,0,0,1-.765,1.907,2.889,2.889,0,0,1-2.065.721,2.968,2.968,0,0,1-2.079-.716,2.524,2.524,0,0,1-.787-1.964Zm1.907.675a1.062,1.062,0,0,0,.255.738.9.9,0,0,0,.7.284q.923,0,.923-1.17V6.666a1.12,1.12,0,0,0-.246-.747.857.857,0,0,0-.694-.293.876.876,0,0,0-.686.284,1.114,1.114,0,0,0-.255.773Zm4.175,6.524a2.487,2.487,0,0,1,.778-1.916,2.924,2.924,0,0,1,2.07-.721,2.956,2.956,0,0,1,2.083.712,2.565,2.565,0,0,1,.773,1.986v.615a2.509,2.509,0,0,1-.765,1.916,2.9,2.9,0,0,1-2.074.721,2.968,2.968,0,0,1-2.079-.716,2.524,2.524,0,0,1-.787-1.964Zm1.9.675a1.039,1.039,0,0,0,.281.72.891.891,0,0,0,.686.31.808.808,0,0,0,.923-.8l.009-.9a1.075,1.075,0,0,0-.255-.747.992.992,0,0,0-1.371-.017,1.061,1.061,0,0,0-.272.72ZM104.7,16.042l-1.38-.694,6.249-10,1.38.694ZM17.258,53.625l3.719,9.281L24.7,53.625h1.945V65h-1.5V60.57l.141-4.781L21.547,65H20.4l-3.727-9.187.148,4.758V65h-1.5V53.625ZM28.68,60.7a4.993,4.993,0,0,1,.488-2.234,3.643,3.643,0,0,1,1.359-1.531,3.7,3.7,0,0,1,1.988-.539,3.565,3.565,0,0,1,2.793,1.2,4.6,4.6,0,0,1,1.066,3.18v.1a5.036,5.036,0,0,1-.473,2.215,3.589,3.589,0,0,1-1.352,1.527,3.743,3.743,0,0,1-2.02.547,3.556,3.556,0,0,1-2.785-1.2A4.575,4.575,0,0,1,28.68,60.8Zm1.453.172a3.616,3.616,0,0,0,.652,2.258,2.211,2.211,0,0,0,3.5-.012A3.955,3.955,0,0,0,34.93,60.7a3.61,3.61,0,0,0-.66-2.254,2.1,2.1,0,0,0-1.754-.863,2.075,2.075,0,0,0-1.727.852A3.925,3.925,0,0,0,30.133,60.867Zm10.727,2.172,2.094-6.492H44.43L41.4,65H40.3l-3.062-8.453h1.477ZM47.391,65H45.945V56.547h1.445ZM45.828,54.3a.863.863,0,0,1,.215-.594.807.807,0,0,1,.637-.242.819.819,0,0,1,.641.242.854.854,0,0,1,.219.594.826.826,0,0,1-.219.586.834.834,0,0,1-.641.234.821.821,0,0,1-.637-.234A.834.834,0,0,1,45.828,54.3Zm5.234,2.242.039.938a3.122,3.122,0,0,1,2.508-1.094,2.417,2.417,0,0,1,2.414,1.359,3.2,3.2,0,0,1,1.1-.984,3.242,3.242,0,0,1,1.6-.375q2.781,0,2.828,2.945V65H60.1V59.422a1.941,1.941,0,0,0-.414-1.355,1.823,1.823,0,0,0-1.391-.449,1.916,1.916,0,0,0-1.336.48,1.949,1.949,0,0,0-.617,1.293V65H54.891V59.461a1.613,1.613,0,0,0-1.8-1.844,1.934,1.934,0,0,0-1.945,1.211V65H49.7V56.547ZM65.3,65H63.852V56.547H65.3ZM63.734,54.3a.863.863,0,0,1,.215-.594.807.807,0,0,1,.637-.242.819.819,0,0,1,.641.242.854.854,0,0,1,.219.594.826.826,0,0,1-.219.586.834.834,0,0,1-.641.234.821.821,0,0,1-.637-.234A.834.834,0,0,1,63.734,54.3Zm7.383,10.852a3.693,3.693,0,0,1-2.8-1.129,4.19,4.19,0,0,1-1.078-3.02v-.266a5.073,5.073,0,0,1,.48-2.246,3.748,3.748,0,0,1,1.344-1.547,3.378,3.378,0,0,1,1.871-.559A3.166,3.166,0,0,1,73.5,57.477a4.7,4.7,0,0,1,.914,3.109v.6H68.688a3,3,0,0,0,.73,2.02,2.3,2.3,0,0,0,1.777.77,2.517,2.517,0,0,0,1.3-.312,3.259,3.259,0,0,0,.93-.828l.883.688A3.55,3.55,0,0,1,71.117,65.156Zm-.18-7.578a1.928,1.928,0,0,0-1.469.637A3.1,3.1,0,0,0,68.734,60h4.234v-.109a2.753,2.753,0,0,0-.594-1.707A1.815,1.815,0,0,0,70.938,57.578Zm6.516-1.031.047,1.063a3.08,3.08,0,0,1,2.531-1.219q2.68,0,2.7,3.023V65H81.289V59.406a1.946,1.946,0,0,0-.418-1.352,1.675,1.675,0,0,0-1.277-.437,2.086,2.086,0,0,0-1.234.375,2.546,2.546,0,0,0-.828.984V65H76.086V56.547ZM86.875,54.5v2.047h1.578v1.117H86.875v5.249a1.173,1.173,0,0,0,.211.763.888.888,0,0,0,.719.254,3.5,3.5,0,0,0,.688-.094V65a4.215,4.215,0,0,1-1.109.155,1.8,1.8,0,0,1-1.461-.586,2.517,2.517,0,0,1-.492-1.664V57.664H83.891V56.547H85.43V54.5ZM89.6,60.7a4.993,4.993,0,0,1,.488-2.234,3.643,3.643,0,0,1,1.359-1.531,3.7,3.7,0,0,1,1.988-.539,3.565,3.565,0,0,1,2.793,1.2,4.6,4.6,0,0,1,1.066,3.18v.1a5.036,5.036,0,0,1-.473,2.215,3.589,3.589,0,0,1-1.352,1.527,3.743,3.743,0,0,1-2.02.547,3.556,3.556,0,0,1-2.785-1.2A4.575,4.575,0,0,1,89.6,60.8Zm1.453.172a3.616,3.616,0,0,0,.652,2.258,2.211,2.211,0,0,0,3.5-.012,3.955,3.955,0,0,0,.648-2.418,3.61,3.61,0,0,0-.66-2.254,2.1,2.1,0,0,0-1.754-.863,2.075,2.075,0,0,0-1.727.852A3.925,3.925,0,0,0,91.055,60.867Zm12.977,1.891a1.064,1.064,0,0,0-.441-.91,4.249,4.249,0,0,0-1.539-.559,7.277,7.277,0,0,1-1.742-.562,2.479,2.479,0,0,1-.953-.781,1.869,1.869,0,0,1-.309-1.078,2.193,2.193,0,0,1,.879-1.758,3.432,3.432,0,0,1,2.246-.719,3.532,3.532,0,0,1,2.332.742,2.357,2.357,0,0,1,.895,1.9h-1.453a1.3,1.3,0,0,0-.5-1.023,1.888,1.888,0,0,0-1.27-.43,1.976,1.976,0,0,0-1.234.344,1.082,1.082,0,0,0-.445.9.877.877,0,0,0,.414.789,5.1,5.1,0,0,0,1.5.508,7.8,7.8,0,0,1,1.754.578,2.558,2.558,0,0,1,1,.809,1.988,1.988,0,0,1,.324,1.152,2.163,2.163,0,0,1-.906,1.816,3.8,3.8,0,0,1-2.352.684,4.257,4.257,0,0,1-1.8-.359,2.922,2.922,0,0,1-1.223-1,2.42,2.42,0,0,1-.441-1.395H100.2a1.5,1.5,0,0,0,.582,1.152,2.258,2.258,0,0,0,1.434.426,2.331,2.331,0,0,0,1.316-.332A1.02,1.02,0,0,0,104.031,62.758Zm3.281,4.508-.82-.562a3.77,3.77,0,0,0,.766-2.109v-1.3h1.414v1.133A3.559,3.559,0,0,1,108.285,66,3.7,3.7,0,0,1,107.313,67.266Zm14.289-6.4a5.062,5.062,0,0,1-.883,3.109,2.829,2.829,0,0,1-2.391,1.18,3.1,3.1,0,0,1-2.422-.977v4.07h-1.445v-11.7h1.32l.07.938a2.977,2.977,0,0,1,2.453-1.094,2.882,2.882,0,0,1,2.41,1.148,5.117,5.117,0,0,1,.887,3.2Zm-1.445-.164a3.735,3.735,0,0,0-.609-2.258,1.963,1.963,0,0,0-1.672-.828,2.125,2.125,0,0,0-1.969,1.164V62.82a2.129,2.129,0,0,0,1.984,1.156,1.954,1.954,0,0,0,1.652-.824A4.077,4.077,0,0,0,120.156,60.7Zm2.9-.008a4.993,4.993,0,0,1,.488-2.234A3.643,3.643,0,0,1,124.9,56.93a3.7,3.7,0,0,1,1.988-.539,3.565,3.565,0,0,1,2.793,1.2,4.6,4.6,0,0,1,1.066,3.18v.1a5.036,5.036,0,0,1-.473,2.215,3.589,3.589,0,0,1-1.352,1.527,3.743,3.743,0,0,1-2.02.547,3.556,3.556,0,0,1-2.785-1.2,4.575,4.575,0,0,1-1.066-3.164Zm1.453.172a3.616,3.616,0,0,0,.652,2.258,2.211,2.211,0,0,0,3.5-.012A3.954,3.954,0,0,0,129.3,60.7a3.61,3.61,0,0,0-.66-2.254,2.1,2.1,0,0,0-1.754-.863,2.075,2.075,0,0,0-1.727.852A3.925,3.925,0,0,0,124.508,60.867Zm12.977,1.891a1.064,1.064,0,0,0-.441-.91,4.249,4.249,0,0,0-1.539-.559,7.277,7.277,0,0,1-1.742-.562,2.479,2.479,0,0,1-.953-.781,1.869,1.869,0,0,1-.309-1.078,2.193,2.193,0,0,1,.879-1.758,3.432,3.432,0,0,1,2.246-.719,3.532,3.532,0,0,1,2.332.742,2.357,2.357,0,0,1,.895,1.9H137.4a1.3,1.3,0,0,0-.5-1.023,1.888,1.888,0,0,0-1.27-.43,1.976,1.976,0,0,0-1.234.344,1.082,1.082,0,0,0-.445.9.877.877,0,0,0,.414.789,5.1,5.1,0,0,0,1.5.508,7.8,7.8,0,0,1,1.754.578,2.558,2.558,0,0,1,1,.809,1.988,1.988,0,0,1,.324,1.152,2.163,2.163,0,0,1-.906,1.816,3.8,3.8,0,0,1-2.352.684,4.257,4.257,0,0,1-1.8-.359,2.922,2.922,0,0,1-1.223-1,2.42,2.42,0,0,1-.441-1.395h1.445a1.5,1.5,0,0,0,.582,1.152,2.258,2.258,0,0,0,1.434.426,2.331,2.331,0,0,0,1.316-.332A1.02,1.02,0,0,0,137.484,62.758Zm5.289-8.258v2.047h1.578v1.117h-1.578v5.249a1.173,1.173,0,0,0,.211.763.888.888,0,0,0,.719.254,3.5,3.5,0,0,0,.688-.094V65a4.215,4.215,0,0,1-1.109.155,1.8,1.8,0,0,1-1.461-.586,2.517,2.517,0,0,1-.492-1.664V57.664h-1.539V56.547h1.539V54.5Zm8.484,9.664a3.07,3.07,0,0,1-2.477.992,2.628,2.628,0,0,1-2.059-.785,3.4,3.4,0,0,1-.715-2.324v-5.5h1.445v5.461q0,1.922,1.563,1.922a2.163,2.163,0,0,0,2.2-1.234V56.547h1.445V65h-1.375Zm7.688-6.32a4.331,4.331,0,0,0-.711-.055A1.9,1.9,0,0,0,156.3,59v6h-1.445V56.547h1.406l.023.977a2.251,2.251,0,0,1,2.016-1.133,1.477,1.477,0,0,1,.641.109ZM165.18,65a3.036,3.036,0,0,1-.2-.891,3.225,3.225,0,0,1-2.406,1.047,2.984,2.984,0,0,1-2.051-.707,2.287,2.287,0,0,1-.8-1.793,2.39,2.39,0,0,1,1-2.051,4.733,4.733,0,0,1,2.824-.73h1.406v-.664A1.623,1.623,0,0,0,164.5,58a1.821,1.821,0,0,0-1.336-.449,2.107,2.107,0,0,0-1.3.391,1.151,1.151,0,0,0-.523.945h-1.453a2,2,0,0,1,.449-1.223,3.066,3.066,0,0,1,1.219-.934,4.1,4.1,0,0,1,1.691-.344,3.342,3.342,0,0,1,2.289.73,2.635,2.635,0,0,1,.859,2.012v3.891a4.757,4.757,0,0,0,.3,1.852V65Zm-2.4-1.1a2.54,2.54,0,0,0,1.289-.352,2.127,2.127,0,0,0,.883-.914V60.9H163.82q-2.656,0-2.656,1.555a1.316,1.316,0,0,0,.453,1.063A1.742,1.742,0,0,0,162.781,63.9Zm10.8-1.141a1.064,1.064,0,0,0-.441-.91,4.249,4.249,0,0,0-1.539-.559,7.277,7.277,0,0,1-1.742-.562,2.479,2.479,0,0,1-.953-.781,1.869,1.869,0,0,1-.309-1.078,2.193,2.193,0,0,1,.879-1.758,3.432,3.432,0,0,1,2.246-.719,3.532,3.532,0,0,1,2.332.742,2.357,2.357,0,0,1,.895,1.9H173.5a1.3,1.3,0,0,0-.5-1.023,1.888,1.888,0,0,0-1.27-.43,1.976,1.976,0,0,0-1.234.344,1.082,1.082,0,0,0-.445.9.877.877,0,0,0,.414.789,5.1,5.1,0,0,0,1.5.508,7.8,7.8,0,0,1,1.754.578,2.558,2.558,0,0,1,1,.809,1.988,1.988,0,0,1,.324,1.152,2.163,2.163,0,0,1-.906,1.816,3.8,3.8,0,0,1-2.352.684,4.257,4.257,0,0,1-1.8-.359,2.922,2.922,0,0,1-1.223-1,2.42,2.42,0,0,1-.441-1.395h1.445a1.5,1.5,0,0,0,.582,1.152,2.258,2.258,0,0,0,1.434.426,2.331,2.331,0,0,0,1.316-.332A1.02,1.02,0,0,0,173.586,62.758Zm3.281,4.508-.82-.562a3.77,3.77,0,0,0,.766-2.109v-1.3h1.414v1.133A3.559,3.559,0,0,1,177.84,66,3.7,3.7,0,0,1,176.867,67.266ZM31.855,84.7a4.968,4.968,0,0,1,.914-3.145,3.151,3.151,0,0,1,4.836-.074l.07-.937H39V88.8a3.439,3.439,0,0,1-.973,2.586,3.589,3.589,0,0,1-2.613.945,4.348,4.348,0,0,1-1.789-.391,3.08,3.08,0,0,1-1.336-1.07l.75-.867a2.826,2.826,0,0,0,2.273,1.148,2.214,2.214,0,0,0,1.645-.594,2.269,2.269,0,0,0,.59-1.672v-.727a2.971,2.971,0,0,1-2.367,1,2.887,2.887,0,0,1-2.4-1.2A5.224,5.224,0,0,1,31.855,84.7Zm1.453.164a3.79,3.79,0,0,0,.586,2.246,1.9,1.9,0,0,0,1.641.816,2.117,2.117,0,0,0,2.008-1.242V82.828a2.142,2.142,0,0,0-1.992-1.211,1.921,1.921,0,0,0-1.648.82A4.128,4.128,0,0,0,33.309,84.867Zm11.375,4.289a3.693,3.693,0,0,1-2.8-1.129,4.19,4.19,0,0,1-1.078-3.02v-.266a5.073,5.073,0,0,1,.48-2.246,3.748,3.748,0,0,1,1.344-1.547,3.378,3.378,0,0,1,1.871-.559,3.166,3.166,0,0,1,2.563,1.086,4.7,4.7,0,0,1,.914,3.109v.6H42.254a3,3,0,0,0,.73,2.02,2.3,2.3,0,0,0,1.777.77,2.517,2.517,0,0,0,1.3-.312,3.259,3.259,0,0,0,.93-.828l.883.688A3.55,3.55,0,0,1,44.684,89.156Zm-.18-7.578a1.928,1.928,0,0,0-1.469.637A3.1,3.1,0,0,0,42.3,84h4.234v-.109a2.753,2.753,0,0,0-.594-1.707A1.815,1.815,0,0,0,44.5,81.578Zm10.07,5.18a1.064,1.064,0,0,0-.441-.91,4.249,4.249,0,0,0-1.539-.559,7.277,7.277,0,0,1-1.742-.562,2.479,2.479,0,0,1-.953-.781,1.869,1.869,0,0,1-.309-1.078,2.193,2.193,0,0,1,.879-1.758,3.432,3.432,0,0,1,2.246-.719,3.532,3.532,0,0,1,2.332.742,2.357,2.357,0,0,1,.895,1.9H54.488a1.3,1.3,0,0,0-.5-1.023,1.888,1.888,0,0,0-1.27-.43,1.976,1.976,0,0,0-1.234.344,1.082,1.082,0,0,0-.445.9.877.877,0,0,0,.414.789,5.1,5.1,0,0,0,1.5.508A7.8,7.8,0,0,1,54.7,84.7a2.558,2.558,0,0,1,1,.809,1.988,1.988,0,0,1,.324,1.152,2.163,2.163,0,0,1-.906,1.816,3.8,3.8,0,0,1-2.352.684,4.257,4.257,0,0,1-1.8-.359,2.922,2.922,0,0,1-1.223-1A2.42,2.42,0,0,1,49.3,86.4h1.445a1.5,1.5,0,0,0,.582,1.152,2.258,2.258,0,0,0,1.434.426,2.331,2.331,0,0,0,1.316-.332A1.02,1.02,0,0,0,54.574,86.758ZM59.863,78.5v2.047h1.578v1.117H59.863v5.249a1.173,1.173,0,0,0,.211.763.888.888,0,0,0,.719.254,3.5,3.5,0,0,0,.688-.094V89a4.215,4.215,0,0,1-1.109.155,1.8,1.8,0,0,1-1.461-.586,2.517,2.517,0,0,1-.492-1.664V81.664H56.879V80.547h1.539V78.5Zm2.727,6.2a4.993,4.993,0,0,1,.488-2.234,3.642,3.642,0,0,1,1.359-1.531,3.7,3.7,0,0,1,1.988-.539,3.565,3.565,0,0,1,2.793,1.2,4.6,4.6,0,0,1,1.066,3.18v.1a5.036,5.036,0,0,1-.473,2.215,3.589,3.589,0,0,1-1.352,1.527,3.743,3.743,0,0,1-2.02.547,3.556,3.556,0,0,1-2.785-1.2A4.575,4.575,0,0,1,62.59,84.8Zm1.453.172a3.616,3.616,0,0,0,.652,2.258,2.211,2.211,0,0,0,3.5-.012A3.955,3.955,0,0,0,68.84,84.7a3.61,3.61,0,0,0-.66-2.254,2.1,2.1,0,0,0-1.754-.863,2.075,2.075,0,0,0-1.727.852A3.925,3.925,0,0,0,64.043,84.867ZM77.02,86.758a1.064,1.064,0,0,0-.441-.91,4.249,4.249,0,0,0-1.539-.559,7.277,7.277,0,0,1-1.742-.562,2.478,2.478,0,0,1-.953-.781,1.869,1.869,0,0,1-.309-1.078,2.193,2.193,0,0,1,.879-1.758,3.432,3.432,0,0,1,2.246-.719,3.532,3.532,0,0,1,2.332.742,2.357,2.357,0,0,1,.895,1.9H76.934a1.3,1.3,0,0,0-.5-1.023,1.888,1.888,0,0,0-1.27-.43,1.976,1.976,0,0,0-1.234.344,1.082,1.082,0,0,0-.445.9.877.877,0,0,0,.414.789,5.1,5.1,0,0,0,1.5.508,7.8,7.8,0,0,1,1.754.578,2.559,2.559,0,0,1,1,.809,1.988,1.988,0,0,1,.324,1.152,2.163,2.163,0,0,1-.906,1.816,3.8,3.8,0,0,1-2.352.684,4.257,4.257,0,0,1-1.8-.359,2.922,2.922,0,0,1-1.223-1,2.42,2.42,0,0,1-.441-1.395h1.445a1.5,1.5,0,0,0,.582,1.152,2.258,2.258,0,0,0,1.434.426,2.331,2.331,0,0,0,1.316-.332A1.02,1.02,0,0,0,77.02,86.758Zm7.234-2.375a12.079,12.079,0,0,1,.473-3.391,9.849,9.849,0,0,1,1.41-2.953,6,6,0,0,1,1.945-1.875l.3.953a6.222,6.222,0,0,0-1.871,2.672,11.583,11.583,0,0,0-.8,4.023l-.008.664a11.643,11.643,0,0,0,1.1,5.234,6.252,6.252,0,0,0,1.578,2.078l-.3.883A6.192,6.192,0,0,1,86.1,90.734,10.859,10.859,0,0,1,84.254,84.383Zm9.031,4.773a3.693,3.693,0,0,1-2.8-1.129,4.19,4.19,0,0,1-1.078-3.02v-.266a5.073,5.073,0,0,1,.48-2.246,3.748,3.748,0,0,1,1.344-1.547,3.378,3.378,0,0,1,1.871-.559,3.166,3.166,0,0,1,2.563,1.086,4.7,4.7,0,0,1,.914,3.109v.6H90.855a3,3,0,0,0,.73,2.02,2.3,2.3,0,0,0,1.777.77,2.517,2.517,0,0,0,1.3-.312,3.259,3.259,0,0,0,.93-.828l.883.688A3.55,3.55,0,0,1,93.285,89.156Zm-.18-7.578a1.928,1.928,0,0,0-1.469.637A3.1,3.1,0,0,0,90.9,84h4.234v-.109a2.753,2.753,0,0,0-.594-1.707A1.815,1.815,0,0,0,93.105,81.578Zm7.984,2.055,1.875-3.086h1.688l-2.766,4.18L104.738,89h-1.672l-1.953-3.164L99.16,89H97.48l2.852-4.273-2.766-4.18h1.672Zm12.234,1.234a5.062,5.062,0,0,1-.883,3.109,2.829,2.829,0,0,1-2.391,1.18,3.1,3.1,0,0,1-2.422-.977v4.07h-1.445v-11.7h1.32l.07.938a2.977,2.977,0,0,1,2.453-1.094,2.882,2.882,0,0,1,2.41,1.148,5.117,5.117,0,0,1,.887,3.2Zm-1.445-.164a3.735,3.735,0,0,0-.609-2.258,1.963,1.963,0,0,0-1.672-.828,2.125,2.125,0,0,0-1.969,1.164V86.82a2.129,2.129,0,0,0,1.984,1.156,1.954,1.954,0,0,0,1.652-.824A4.077,4.077,0,0,0,111.879,84.7Zm7.367-2.859a4.331,4.331,0,0,0-.711-.055A1.9,1.9,0,0,0,116.605,83v6H115.16V80.547h1.406l.023.977a2.251,2.251,0,0,1,2.016-1.133,1.477,1.477,0,0,1,.641.109Zm4.688,7.313a3.693,3.693,0,0,1-2.8-1.129,4.19,4.19,0,0,1-1.078-3.02v-.266a5.073,5.073,0,0,1,.48-2.246,3.748,3.748,0,0,1,1.344-1.547,3.378,3.378,0,0,1,1.871-.559,3.166,3.166,0,0,1,2.563,1.086,4.7,4.7,0,0,1,.914,3.109v.6H121.5a3,3,0,0,0,.73,2.02,2.3,2.3,0,0,0,1.777.77,2.517,2.517,0,0,0,1.3-.312,3.259,3.259,0,0,0,.93-.828l.883.688A3.55,3.55,0,0,1,123.934,89.156Zm-.18-7.578a1.928,1.928,0,0,0-1.469.637A3.1,3.1,0,0,0,121.551,84h4.234v-.109a2.753,2.753,0,0,0-.594-1.707A1.815,1.815,0,0,0,123.754,81.578Zm10.07,5.18a1.064,1.064,0,0,0-.441-.91,4.249,4.249,0,0,0-1.539-.559,7.277,7.277,0,0,1-1.742-.562,2.479,2.479,0,0,1-.953-.781,1.869,1.869,0,0,1-.309-1.078,2.193,2.193,0,0,1,.879-1.758,3.432,3.432,0,0,1,2.246-.719,3.532,3.532,0,0,1,2.332.742,2.357,2.357,0,0,1,.895,1.9h-1.453a1.3,1.3,0,0,0-.5-1.023,1.888,1.888,0,0,0-1.27-.43,1.976,1.976,0,0,0-1.234.344,1.082,1.082,0,0,0-.445.9.877.877,0,0,0,.414.789,5.1,5.1,0,0,0,1.5.508,7.8,7.8,0,0,1,1.754.578,2.558,2.558,0,0,1,1,.809,1.988,1.988,0,0,1,.324,1.152,2.163,2.163,0,0,1-.906,1.816,3.8,3.8,0,0,1-2.352.684,4.257,4.257,0,0,1-1.8-.359,2.922,2.922,0,0,1-1.223-1,2.42,2.42,0,0,1-.441-1.395H130a1.5,1.5,0,0,0,.582,1.152,2.258,2.258,0,0,0,1.434.426,2.331,2.331,0,0,0,1.316-.332A1.02,1.02,0,0,0,133.824,86.758Zm4.9,2.242h-1.445V80.547h1.445ZM137.16,78.3a.863.863,0,0,1,.215-.594.807.807,0,0,1,.637-.242.819.819,0,0,1,.641.242.854.854,0,0,1,.219.594.826.826,0,0,1-.219.586.834.834,0,0,1-.641.234.821.821,0,0,1-.637-.234A.834.834,0,0,1,137.16,78.3Zm3.492,6.391a4.993,4.993,0,0,1,.488-2.234A3.642,3.642,0,0,1,142.5,80.93a3.7,3.7,0,0,1,1.988-.539,3.565,3.565,0,0,1,2.793,1.2,4.6,4.6,0,0,1,1.066,3.18v.1a5.036,5.036,0,0,1-.473,2.215,3.589,3.589,0,0,1-1.352,1.527,3.743,3.743,0,0,1-2.02.547,3.556,3.556,0,0,1-2.785-1.2,4.575,4.575,0,0,1-1.066-3.164Zm1.453.172a3.616,3.616,0,0,0,.652,2.258,2.211,2.211,0,0,0,3.5-.012A3.954,3.954,0,0,0,146.9,84.7a3.61,3.61,0,0,0-.66-2.254,2.1,2.1,0,0,0-1.754-.863,2.075,2.075,0,0,0-1.727.852A3.925,3.925,0,0,0,142.105,84.867Zm3.039-7.852h1.75l-2.094,2.3-1.164,0Zm6.383,3.531.047,1.063a3.08,3.08,0,0,1,2.531-1.219q2.68,0,2.7,3.023V89h-1.445V83.406a1.946,1.946,0,0,0-.418-1.352,1.675,1.675,0,0,0-1.277-.437,2.086,2.086,0,0,0-1.234.375,2.546,2.546,0,0,0-.828.984V89H150.16V80.547Zm-84.676,31.43a2.082,2.082,0,0,0,1.352-.469,1.649,1.649,0,0,0,.641-1.172h1.367a2.621,2.621,0,0,1-.5,1.383,3.293,3.293,0,0,1-1.23,1.047,3.55,3.55,0,0,1-1.629.391A3.482,3.482,0,0,1,64.105,112a4.59,4.59,0,0,1-1.02-3.152v-.242a5.089,5.089,0,0,1,.453-2.2,3.451,3.451,0,0,1,1.3-1.492,3.7,3.7,0,0,1,2-.531,3.39,3.39,0,0,1,2.363.852,3.043,3.043,0,0,1,1,2.211H68.844a1.992,1.992,0,0,0-.621-1.348,1.932,1.932,0,0,0-1.379-.527,2.023,2.023,0,0,0-1.707.793,3.724,3.724,0,0,0-.605,2.293v.273a3.65,3.65,0,0,0,.6,2.25A2.033,2.033,0,0,0,66.852,111.977Zm4.6-3.281a4.993,4.993,0,0,1,.488-2.234A3.643,3.643,0,0,1,73.3,104.93a3.7,3.7,0,0,1,1.988-.539,3.565,3.565,0,0,1,2.793,1.2,4.6,4.6,0,0,1,1.066,3.18v.1a5.036,5.036,0,0,1-.473,2.215,3.589,3.589,0,0,1-1.352,1.527,3.743,3.743,0,0,1-2.02.547,3.556,3.556,0,0,1-2.785-1.2,4.575,4.575,0,0,1-1.066-3.164Zm1.453.172a3.616,3.616,0,0,0,.652,2.258,2.211,2.211,0,0,0,3.5-.012A3.955,3.955,0,0,0,77.7,108.7a3.61,3.61,0,0,0-.66-2.254,2.1,2.1,0,0,0-1.754-.863,2.075,2.075,0,0,0-1.727.852A3.925,3.925,0,0,0,72.906,108.867Zm12.141-3.023a4.331,4.331,0,0,0-.711-.055A1.9,1.9,0,0,0,82.406,107v6H80.961v-8.453h1.406l.023.977a2.251,2.251,0,0,1,2.016-1.133,1.477,1.477,0,0,1,.641.109Zm8.469,3.023a5.062,5.062,0,0,1-.883,3.109,2.829,2.829,0,0,1-2.391,1.18,3.1,3.1,0,0,1-2.422-.977v4.07H86.375v-11.7H87.7l.07.938a2.977,2.977,0,0,1,2.453-1.094,2.882,2.882,0,0,1,2.41,1.148,5.117,5.117,0,0,1,.887,3.2ZM92.07,108.7a3.735,3.735,0,0,0-.609-2.258,1.963,1.963,0,0,0-1.672-.828,2.125,2.125,0,0,0-1.969,1.164v4.039a2.129,2.129,0,0,0,1.984,1.156,1.954,1.954,0,0,0,1.652-.824A4.077,4.077,0,0,0,92.07,108.7Zm2.9-.008a4.993,4.993,0,0,1,.488-2.234,3.643,3.643,0,0,1,1.359-1.531,3.7,3.7,0,0,1,1.988-.539,3.565,3.565,0,0,1,2.793,1.2,4.6,4.6,0,0,1,1.066,3.18v.1a5.036,5.036,0,0,1-.473,2.215,3.589,3.589,0,0,1-1.352,1.527,3.743,3.743,0,0,1-2.02.547,3.556,3.556,0,0,1-2.785-1.2,4.575,4.575,0,0,1-1.066-3.164Zm1.453.172a3.616,3.616,0,0,0,.652,2.258,2.211,2.211,0,0,0,3.5-.012,3.955,3.955,0,0,0,.648-2.418,3.61,3.61,0,0,0-.66-2.254,2.1,2.1,0,0,0-1.754-.863,2.075,2.075,0,0,0-1.727.852A3.925,3.925,0,0,0,96.422,108.867Zm12.141-3.023a4.331,4.331,0,0,0-.711-.055,1.9,1.9,0,0,0-1.93,1.211v6h-1.445v-8.453h1.406l.023.977a2.251,2.251,0,0,1,2.016-1.133,1.477,1.477,0,0,1,.641.109ZM114.8,113a3.036,3.036,0,0,1-.2-.891,3.225,3.225,0,0,1-2.406,1.047,2.984,2.984,0,0,1-2.051-.707,2.287,2.287,0,0,1-.8-1.793,2.39,2.39,0,0,1,1-2.051,4.733,4.733,0,0,1,2.824-.73h1.406v-.664a1.623,1.623,0,0,0-.453-1.207,1.821,1.821,0,0,0-1.336-.449,2.108,2.108,0,0,0-1.3.391,1.151,1.151,0,0,0-.523.945h-1.453a2,2,0,0,1,.449-1.223,3.066,3.066,0,0,1,1.219-.934,4.1,4.1,0,0,1,1.691-.344,3.342,3.342,0,0,1,2.289.73,2.635,2.635,0,0,1,.859,2.012v3.891a4.757,4.757,0,0,0,.3,1.852V113Zm-2.4-1.1a2.54,2.54,0,0,0,1.289-.352,2.127,2.127,0,0,0,.883-.914V108.9h-1.133q-2.656,0-2.656,1.555a1.316,1.316,0,0,0,.453,1.063A1.742,1.742,0,0,0,112.4,111.9Zm7.453,1.1h-1.445V101h1.445Zm5.648-4.539a12.084,12.084,0,0,1-.457,3.34,9.876,9.876,0,0,1-1.4,2.949,6.127,6.127,0,0,1-1.973,1.922l-.3-.883a6.281,6.281,0,0,0,1.934-2.863,12.387,12.387,0,0,0,.746-4.309v-.25a12.861,12.861,0,0,0-.344-3.051,10.3,10.3,0,0,0-.957-2.527,5.838,5.838,0,0,0-1.379-1.742l.3-.883a6.1,6.1,0,0,1,1.965,1.906,9.9,9.9,0,0,1,1.4,2.945A12.363,12.363,0,0,1,125.5,108.461Z" transform="translate(724 2158.164)" fill="#fff"/>
    <path id="Trazado_197247" data-name="Trazado 197247" d="M80.886,9.362h1.4a1.453,1.453,0,0,0,1.661-1.626,1.406,1.406,0,0,0-.4-1.033,1.5,1.5,0,0,0-1.116-.4,1.606,1.606,0,0,0-1.024.343,1.046,1.046,0,0,0-.435.853H78.012a3.032,3.032,0,0,1,.563-1.8,3.715,3.715,0,0,1,1.56-1.235,5.334,5.334,0,0,1,2.193-.444,5.241,5.241,0,0,1,3.357.976,3.243,3.243,0,0,1,1.222,2.681,2.7,2.7,0,0,1-.505,1.56,3.6,3.6,0,0,1-1.472,1.191,3.441,3.441,0,0,1,1.6,1.121,2.951,2.951,0,0,1,.58,1.859,3.3,3.3,0,0,1-1.318,2.742,5.472,5.472,0,0,1-3.463,1.028,5.675,5.675,0,0,1-2.333-.479,3.656,3.656,0,0,1-1.63-1.327,3.45,3.45,0,0,1-.554-1.929h2.979a1.334,1.334,0,0,0,.475,1.02,1.676,1.676,0,0,0,1.169.431,1.755,1.755,0,0,0,1.248-.435,1.454,1.454,0,0,0,.466-1.112,1.7,1.7,0,0,0-.483-1.371,2.021,2.021,0,0,0-1.336-.4H80.886Zm16.348-1.74a2.954,2.954,0,0,1-.461,1.644,3.361,3.361,0,0,1-1.27,1.143,3.7,3.7,0,0,1,1.45,1.226,3.164,3.164,0,0,1,.536,1.841,3.349,3.349,0,0,1-1.182,2.707,4.909,4.909,0,0,1-3.256.993,5,5,0,0,1-3.287-1,3.325,3.325,0,0,1-1.2-2.7,3.2,3.2,0,0,1,.527-1.819,3.586,3.586,0,0,1,1.494-1.248A3.38,3.38,0,0,1,89.3,9.266a2.934,2.934,0,0,1-.466-1.644,3.284,3.284,0,0,1,1.134-2.637,5.349,5.349,0,0,1,6.135,0A3.284,3.284,0,0,1,97.233,7.622Zm-2.716,5.616a1.69,1.69,0,0,0-.409-1.217,1.423,1.423,0,0,0-1.077-.426,1.438,1.438,0,0,0-1.081.426,1.678,1.678,0,0,0-.413,1.217,1.693,1.693,0,0,0,.417,1.208,1.433,1.433,0,0,0,1.094.444,1.377,1.377,0,0,0,1.063-.439A1.723,1.723,0,0,0,94.518,13.238ZM93.023,6.3a1.1,1.1,0,0,0-.91.391A1.7,1.7,0,0,0,91.8,7.78a1.8,1.8,0,0,0,.316,1.107,1.092,1.092,0,0,0,.932.422,1.047,1.047,0,0,0,.91-.422,1.856,1.856,0,0,0,.3-1.107A1.7,1.7,0,0,0,93.951,6.7,1.109,1.109,0,0,0,93.023,6.3Zm6.012.36a2.512,2.512,0,0,1,.773-1.916,3.334,3.334,0,0,1,4.157,0,2.578,2.578,0,0,1,.765,1.964v.633a2.5,2.5,0,0,1-.765,1.907,2.889,2.889,0,0,1-2.065.721,2.968,2.968,0,0,1-2.079-.716,2.524,2.524,0,0,1-.787-1.964Zm1.907.675a1.062,1.062,0,0,0,.255.738.9.9,0,0,0,.7.284q.923,0,.923-1.17V6.666a1.12,1.12,0,0,0-.246-.747.857.857,0,0,0-.694-.293.876.876,0,0,0-.686.284,1.114,1.114,0,0,0-.255.773Zm4.175,6.524a2.487,2.487,0,0,1,.778-1.916,2.924,2.924,0,0,1,2.07-.721,2.956,2.956,0,0,1,2.083.712,2.565,2.565,0,0,1,.773,1.986v.615a2.509,2.509,0,0,1-.765,1.916,2.9,2.9,0,0,1-2.074.721,2.968,2.968,0,0,1-2.079-.716,2.524,2.524,0,0,1-.787-1.964Zm1.9.675a1.039,1.039,0,0,0,.281.72.891.891,0,0,0,.686.31.808.808,0,0,0,.923-.8l.009-.9a1.075,1.075,0,0,0-.255-.747.992.992,0,0,0-1.371-.017,1.061,1.061,0,0,0-.272.72Zm-4.553,1.505-1.38-.694,6.249-10,1.38.694ZM20.117,54.852H16.461V65H14.969V54.852H11.32V53.625h8.8Zm.3,5.844a4.993,4.993,0,0,1,.488-2.234A3.643,3.643,0,0,1,22.27,56.93a3.7,3.7,0,0,1,1.988-.539,3.565,3.565,0,0,1,2.793,1.2,4.6,4.6,0,0,1,1.066,3.18v.1a5.036,5.036,0,0,1-.473,2.215,3.589,3.589,0,0,1-1.352,1.527,3.743,3.743,0,0,1-2.02.547,3.556,3.556,0,0,1-2.785-1.2A4.575,4.575,0,0,1,20.422,60.8Zm1.453.172a3.616,3.616,0,0,0,.652,2.258,2.211,2.211,0,0,0,3.5-.012,3.955,3.955,0,0,0,.648-2.418,3.61,3.61,0,0,0-.66-2.254,2.1,2.1,0,0,0-1.754-.863,2.075,2.075,0,0,0-1.727.852A3.925,3.925,0,0,0,21.875,60.867Zm9.422-4.32.047,1.063a3.08,3.08,0,0,1,2.531-1.219q2.68,0,2.7,3.023V65H35.133V59.406a1.946,1.946,0,0,0-.418-1.352,1.675,1.675,0,0,0-1.277-.437,2.086,2.086,0,0,0-1.234.375,2.546,2.546,0,0,0-.828.984V65H29.93V56.547ZM38.375,60.7a4.993,4.993,0,0,1,.488-2.234,3.643,3.643,0,0,1,1.359-1.531,3.7,3.7,0,0,1,1.988-.539A3.565,3.565,0,0,1,45,57.586a4.6,4.6,0,0,1,1.066,3.18v.1a5.036,5.036,0,0,1-.473,2.215,3.589,3.589,0,0,1-1.352,1.527,3.743,3.743,0,0,1-2.02.547,3.556,3.556,0,0,1-2.785-1.2A4.575,4.575,0,0,1,38.375,60.8Zm1.453.172a3.616,3.616,0,0,0,.652,2.258,2.211,2.211,0,0,0,3.5-.012,3.955,3.955,0,0,0,.648-2.418,3.61,3.61,0,0,0-.66-2.254,2.1,2.1,0,0,0-1.754-.863,2.075,2.075,0,0,0-1.727.852A3.925,3.925,0,0,0,39.828,60.867Zm14.781,2.016,1.969-6.336h1.547l-3.4,9.758q-.789,2.109-2.508,2.109l-.273-.023-.539-.1V67.117l.391.031a1.923,1.923,0,0,0,1.145-.3,2.148,2.148,0,0,0,.676-1.086l.32-.859-3.016-8.359H52.5Zm15.906-2.016a5.062,5.062,0,0,1-.883,3.109,2.829,2.829,0,0,1-2.391,1.18,3.1,3.1,0,0,1-2.422-.977v4.07H63.375v-11.7H64.7l.07.938a2.977,2.977,0,0,1,2.453-1.094,2.882,2.882,0,0,1,2.41,1.148,5.117,5.117,0,0,1,.887,3.2ZM69.07,60.7a3.735,3.735,0,0,0-.609-2.258,1.963,1.963,0,0,0-1.672-.828,2.125,2.125,0,0,0-1.969,1.164V62.82A2.129,2.129,0,0,0,66.8,63.977a1.954,1.954,0,0,0,1.652-.824A4.077,4.077,0,0,0,69.07,60.7Zm7.367-2.859a4.331,4.331,0,0,0-.711-.055A1.9,1.9,0,0,0,73.8,59v6H72.352V56.547h1.406l.023.977A2.251,2.251,0,0,1,75.8,56.391a1.477,1.477,0,0,1,.641.109Zm.789,2.852a4.993,4.993,0,0,1,.488-2.234,3.643,3.643,0,0,1,1.359-1.531,3.7,3.7,0,0,1,1.988-.539,3.565,3.565,0,0,1,2.793,1.2,4.6,4.6,0,0,1,1.066,3.18v.1a5.036,5.036,0,0,1-.473,2.215A3.589,3.589,0,0,1,83.1,64.609a3.743,3.743,0,0,1-2.02.547,3.556,3.556,0,0,1-2.785-1.2A4.575,4.575,0,0,1,77.227,60.8Zm1.453.172a3.616,3.616,0,0,0,.652,2.258,2.211,2.211,0,0,0,3.5-.012,3.955,3.955,0,0,0,.648-2.418,3.61,3.61,0,0,0-.66-2.254,2.1,2.1,0,0,0-1.754-.863,2.075,2.075,0,0,0-1.727.852A3.925,3.925,0,0,0,78.68,60.867Zm10.7,2.016,1.969-6.336H92.9L89.5,66.3q-.789,2.109-2.508,2.109l-.273-.023-.539-.1V67.117l.391.031a1.923,1.923,0,0,0,1.145-.3,2.149,2.149,0,0,0,.676-1.086l.32-.859L85.7,56.547h1.578Zm8.211,2.273a3.693,3.693,0,0,1-2.8-1.129,4.19,4.19,0,0,1-1.078-3.02v-.266A5.073,5.073,0,0,1,94.2,58.5a3.748,3.748,0,0,1,1.344-1.547,3.378,3.378,0,0,1,1.871-.559,3.166,3.166,0,0,1,2.563,1.086,4.7,4.7,0,0,1,.914,3.109v.6H95.164a3,3,0,0,0,.73,2.02,2.3,2.3,0,0,0,1.777.77,2.517,2.517,0,0,0,1.3-.312,3.259,3.259,0,0,0,.93-.828l.883.688A3.55,3.55,0,0,1,97.594,65.156Zm-.18-7.578a1.928,1.928,0,0,0-1.469.637A3.1,3.1,0,0,0,95.211,60h4.234v-.109a2.753,2.753,0,0,0-.594-1.707A1.815,1.815,0,0,0,97.414,57.578Zm8.539,6.4a2.082,2.082,0,0,0,1.352-.469,1.649,1.649,0,0,0,.641-1.172h1.367a2.621,2.621,0,0,1-.5,1.383,3.293,3.293,0,0,1-1.23,1.047,3.55,3.55,0,0,1-1.629.391A3.482,3.482,0,0,1,103.207,64a4.59,4.59,0,0,1-1.02-3.152v-.242a5.089,5.089,0,0,1,.453-2.2,3.451,3.451,0,0,1,1.3-1.492,3.7,3.7,0,0,1,2-.531,3.39,3.39,0,0,1,2.363.852,3.043,3.043,0,0,1,1,2.211h-1.367a1.992,1.992,0,0,0-.621-1.348,1.932,1.932,0,0,0-1.379-.527,2.023,2.023,0,0,0-1.707.793,3.724,3.724,0,0,0-.605,2.293v.273a3.65,3.65,0,0,0,.6,2.25A2.033,2.033,0,0,0,105.953,63.977Zm8.375,0a2.082,2.082,0,0,0,1.352-.469,1.649,1.649,0,0,0,.641-1.172h1.367a2.621,2.621,0,0,1-.5,1.383,3.293,3.293,0,0,1-1.23,1.047,3.55,3.55,0,0,1-1.629.391A3.482,3.482,0,0,1,111.582,64a4.59,4.59,0,0,1-1.02-3.152v-.242a5.089,5.089,0,0,1,.453-2.2,3.451,3.451,0,0,1,1.3-1.492,3.7,3.7,0,0,1,2-.531,3.39,3.39,0,0,1,2.363.852,3.043,3.043,0,0,1,1,2.211H116.32a1.992,1.992,0,0,0-.621-1.348,1.932,1.932,0,0,0-1.379-.527,2.023,2.023,0,0,0-1.707.793,3.724,3.724,0,0,0-.605,2.293v.273a3.65,3.65,0,0,0,.6,2.25A2.033,2.033,0,0,0,114.328,63.977ZM120.883,65h-1.445V56.547h1.445ZM119.32,54.3a.863.863,0,0,1,.215-.594.807.807,0,0,1,.637-.242.819.819,0,0,1,.641.242.854.854,0,0,1,.219.594.826.826,0,0,1-.219.586.834.834,0,0,1-.641.234.821.821,0,0,1-.637-.234A.834.834,0,0,1,119.32,54.3Zm3.492,6.391a4.993,4.993,0,0,1,.488-2.234,3.643,3.643,0,0,1,1.359-1.531,3.7,3.7,0,0,1,1.988-.539,3.565,3.565,0,0,1,2.793,1.2,4.6,4.6,0,0,1,1.066,3.18v.1a5.036,5.036,0,0,1-.473,2.215,3.589,3.589,0,0,1-1.352,1.527,3.743,3.743,0,0,1-2.02.547,3.556,3.556,0,0,1-2.785-1.2,4.575,4.575,0,0,1-1.066-3.164Zm1.453.172a3.616,3.616,0,0,0,.652,2.258,2.211,2.211,0,0,0,3.5-.012,3.954,3.954,0,0,0,.648-2.418,3.61,3.61,0,0,0-.66-2.254,2.1,2.1,0,0,0-1.754-.863,2.075,2.075,0,0,0-1.727.852A3.925,3.925,0,0,0,124.266,60.867Zm3.039-7.852h1.75l-2.094,2.3-1.164,0Zm6.383,3.531.047,1.063a3.08,3.08,0,0,1,2.531-1.219q2.68,0,2.7,3.023V65h-1.445V59.406a1.946,1.946,0,0,0-.418-1.352,1.675,1.675,0,0,0-1.277-.437,2.086,2.086,0,0,0-1.234.375,2.546,2.546,0,0,0-.828.984V65H132.32V56.547Zm11.07,4.156a4.952,4.952,0,0,1,.922-3.129,3.137,3.137,0,0,1,4.766-.168V53h1.445V65h-1.328l-.07-.906a2.943,2.943,0,0,1-2.414,1.063,2.887,2.887,0,0,1-2.395-1.2,5.008,5.008,0,0,1-.926-3.141Zm1.445.164a3.749,3.749,0,0,0,.594,2.25,1.919,1.919,0,0,0,1.641.813,2.108,2.108,0,0,0,2.008-1.234V58.813a2.125,2.125,0,0,0-1.992-1.2,1.929,1.929,0,0,0-1.656.82A4.128,4.128,0,0,0,146.2,60.867Zm11.438,4.289a3.693,3.693,0,0,1-2.8-1.129,4.19,4.19,0,0,1-1.078-3.02v-.266a5.073,5.073,0,0,1,.48-2.246,3.748,3.748,0,0,1,1.344-1.547,3.378,3.378,0,0,1,1.871-.559,3.166,3.166,0,0,1,2.563,1.086,4.7,4.7,0,0,1,.914,3.109v.6h-5.727a3,3,0,0,0,.73,2.02,2.3,2.3,0,0,0,1.777.77,2.517,2.517,0,0,0,1.3-.312,3.258,3.258,0,0,0,.93-.828l.883.688A3.55,3.55,0,0,1,157.641,65.156Zm-.18-7.578a1.928,1.928,0,0,0-1.469.637A3.1,3.1,0,0,0,155.258,60h4.234v-.109a2.753,2.753,0,0,0-.594-1.707A1.815,1.815,0,0,0,157.461,57.578ZM168.141,65H166.7V53h1.445Zm7.531,0a3.036,3.036,0,0,1-.2-.891,3.225,3.225,0,0,1-2.406,1.047,2.984,2.984,0,0,1-2.051-.707,2.287,2.287,0,0,1-.8-1.793,2.39,2.39,0,0,1,1-2.051,4.733,4.733,0,0,1,2.824-.73h1.406v-.664A1.623,1.623,0,0,0,174.992,58a1.821,1.821,0,0,0-1.336-.449,2.107,2.107,0,0,0-1.3.391,1.151,1.151,0,0,0-.523.945h-1.453a2,2,0,0,1,.449-1.223,3.066,3.066,0,0,1,1.219-.934,4.1,4.1,0,0,1,1.691-.344,3.342,3.342,0,0,1,2.289.73,2.635,2.635,0,0,1,.859,2.012v3.891a4.757,4.757,0,0,0,.3,1.852V65Zm-2.4-1.1a2.54,2.54,0,0,0,1.289-.352,2.127,2.127,0,0,0,.883-.914V60.9h-1.133q-2.656,0-2.656,1.555a1.316,1.316,0,0,0,.453,1.063A1.742,1.742,0,0,0,173.273,63.9ZM86.1,87.039,88.2,80.547h1.477L86.641,89h-1.1l-3.062-8.453h1.477ZM90.563,84.7a4.993,4.993,0,0,1,.488-2.234A3.643,3.643,0,0,1,92.41,80.93a3.7,3.7,0,0,1,1.988-.539,3.565,3.565,0,0,1,2.793,1.2,4.6,4.6,0,0,1,1.066,3.18v.1a5.036,5.036,0,0,1-.473,2.215,3.589,3.589,0,0,1-1.352,1.527,3.743,3.743,0,0,1-2.02.547,3.556,3.556,0,0,1-2.785-1.2A4.575,4.575,0,0,1,90.563,84.8Zm1.453.172a3.616,3.616,0,0,0,.652,2.258,2.211,2.211,0,0,0,3.5-.012,3.955,3.955,0,0,0,.648-2.418,3.61,3.61,0,0,0-.66-2.254,2.1,2.1,0,0,0-1.754-.863,2.075,2.075,0,0,0-1.727.852A3.925,3.925,0,0,0,92.016,84.867ZM101.3,87.82h4.945V89H99.539V87.938l4.664-6.2H99.609v-1.2h6.406V81.57Z" transform="translate(968 2158.164)" fill="#fff"/>
    <path id="Trazado_197248" data-name="Trazado 197248" d="M92.285,5.785,87.5,17H84.375l4.79-10.512h-6.1V4.2h9.22Zm1.538.879A2.512,2.512,0,0,1,94.6,4.748a3.334,3.334,0,0,1,4.157,0,2.578,2.578,0,0,1,.765,1.964v.633a2.5,2.5,0,0,1-.765,1.907,2.889,2.889,0,0,1-2.065.721,2.968,2.968,0,0,1-2.079-.716,2.524,2.524,0,0,1-.787-1.964Zm1.907.675a1.062,1.062,0,0,0,.255.738.9.9,0,0,0,.7.284q.923,0,.923-1.17V6.666a1.12,1.12,0,0,0-.246-.747.857.857,0,0,0-.694-.293.876.876,0,0,0-.686.284,1.114,1.114,0,0,0-.255.773Zm4.175,6.524a2.487,2.487,0,0,1,.778-1.916,2.924,2.924,0,0,1,2.07-.721,2.956,2.956,0,0,1,2.083.712,2.565,2.565,0,0,1,.773,1.986v.615a2.509,2.509,0,0,1-.765,1.916,2.9,2.9,0,0,1-2.074.721,2.968,2.968,0,0,1-2.079-.716,2.524,2.524,0,0,1-.787-1.964Zm1.9.675a1.039,1.039,0,0,0,.281.72.891.891,0,0,0,.686.31.808.808,0,0,0,.923-.8l.009-.9a1.075,1.075,0,0,0-.255-.747.992.992,0,0,0-1.371-.017,1.061,1.061,0,0,0-.272.72Zm-4.553,1.505-1.38-.694,6.249-10,1.38.694ZM43.8,59.742h-4.93v4.031H44.6V65H37.375V53.625h7.148v1.227H38.875v3.664H43.8Zm5.273-.109,1.875-3.086h1.688l-2.766,4.18L52.727,65H51.055L49.1,61.836,47.148,65h-1.68l2.852-4.273-2.766-4.18h1.672Zm12.234,1.234a5.062,5.062,0,0,1-.883,3.109,2.829,2.829,0,0,1-2.391,1.18,3.1,3.1,0,0,1-2.422-.977v4.07H54.172v-11.7h1.32l.07.938a2.977,2.977,0,0,1,2.453-1.094,2.882,2.882,0,0,1,2.41,1.148,5.117,5.117,0,0,1,.887,3.2ZM59.867,60.7a3.735,3.735,0,0,0-.609-2.258,1.963,1.963,0,0,0-1.672-.828,2.125,2.125,0,0,0-1.969,1.164V62.82A2.129,2.129,0,0,0,57.6,63.977a1.954,1.954,0,0,0,1.652-.824A4.077,4.077,0,0,0,59.867,60.7Zm7.367-2.859a4.331,4.331,0,0,0-.711-.055A1.9,1.9,0,0,0,64.594,59v6H63.148V56.547h1.406l.023.977a2.251,2.251,0,0,1,2.016-1.133,1.477,1.477,0,0,1,.641.109Zm4.688,7.313a3.693,3.693,0,0,1-2.8-1.129,4.19,4.19,0,0,1-1.078-3.02v-.266a5.073,5.073,0,0,1,.48-2.246,3.748,3.748,0,0,1,1.344-1.547,3.378,3.378,0,0,1,1.871-.559A3.166,3.166,0,0,1,74.3,57.477a4.7,4.7,0,0,1,.914,3.109v.6H69.492a3,3,0,0,0,.73,2.02,2.3,2.3,0,0,0,1.777.77,2.517,2.517,0,0,0,1.3-.312,3.259,3.259,0,0,0,.93-.828l.883.688A3.55,3.55,0,0,1,71.922,65.156Zm-.18-7.578a1.928,1.928,0,0,0-1.469.637A3.1,3.1,0,0,0,69.539,60h4.234v-.109a2.753,2.753,0,0,0-.594-1.707A1.815,1.815,0,0,0,71.742,57.578Zm10.07,5.18a1.064,1.064,0,0,0-.441-.91,4.249,4.249,0,0,0-1.539-.559,7.277,7.277,0,0,1-1.742-.562,2.479,2.479,0,0,1-.953-.781,1.869,1.869,0,0,1-.309-1.078,2.193,2.193,0,0,1,.879-1.758,3.432,3.432,0,0,1,2.246-.719,3.532,3.532,0,0,1,2.332.742,2.357,2.357,0,0,1,.895,1.9H81.727a1.3,1.3,0,0,0-.5-1.023,1.888,1.888,0,0,0-1.27-.43,1.976,1.976,0,0,0-1.234.344,1.082,1.082,0,0,0-.445.9.877.877,0,0,0,.414.789,5.1,5.1,0,0,0,1.5.508,7.8,7.8,0,0,1,1.754.578,2.558,2.558,0,0,1,1,.809,1.988,1.988,0,0,1,.324,1.152,2.163,2.163,0,0,1-.906,1.816A3.8,3.8,0,0,1,80,65.156a4.257,4.257,0,0,1-1.8-.359,2.922,2.922,0,0,1-1.223-1,2.42,2.42,0,0,1-.441-1.395h1.445a1.5,1.5,0,0,0,.582,1.152A2.258,2.258,0,0,0,80,63.977a2.331,2.331,0,0,0,1.316-.332A1.02,1.02,0,0,0,81.813,62.758ZM86.711,65H85.266V56.547h1.445ZM85.148,54.3a.863.863,0,0,1,.215-.594A.807.807,0,0,1,86,53.469a.819.819,0,0,1,.641.242.854.854,0,0,1,.219.594.826.826,0,0,1-.219.586.834.834,0,0,1-.641.234.821.821,0,0,1-.637-.234A.834.834,0,0,1,85.148,54.3ZM88.641,60.7a4.993,4.993,0,0,1,.488-2.234,3.643,3.643,0,0,1,1.359-1.531,3.7,3.7,0,0,1,1.988-.539,3.565,3.565,0,0,1,2.793,1.2,4.6,4.6,0,0,1,1.066,3.18v.1a5.036,5.036,0,0,1-.473,2.215,3.589,3.589,0,0,1-1.352,1.527,3.743,3.743,0,0,1-2.02.547,3.556,3.556,0,0,1-2.785-1.2A4.575,4.575,0,0,1,88.641,60.8Zm1.453.172a3.616,3.616,0,0,0,.652,2.258,2.211,2.211,0,0,0,3.5-.012,3.955,3.955,0,0,0,.648-2.418,3.61,3.61,0,0,0-.66-2.254,2.1,2.1,0,0,0-1.754-.863,2.075,2.075,0,0,0-1.727.852A3.925,3.925,0,0,0,90.094,60.867Zm3.039-7.852h1.75l-2.094,2.3-1.164,0Zm6.383,3.531.047,1.063a3.08,3.08,0,0,1,2.531-1.219q2.68,0,2.7,3.023V65h-1.445V59.406a1.946,1.946,0,0,0-.418-1.352,1.675,1.675,0,0,0-1.277-.437,2.086,2.086,0,0,0-1.234.375,2.546,2.546,0,0,0-.828.984V65H98.148V56.547Zm14.211,6.492,2.094-6.492H117.3L114.266,65h-1.1L110.1,56.547h1.477Zm8.367,2.117a3.693,3.693,0,0,1-2.8-1.129,4.19,4.19,0,0,1-1.078-3.02v-.266a5.073,5.073,0,0,1,.48-2.246,3.748,3.748,0,0,1,1.344-1.547,3.378,3.378,0,0,1,1.871-.559,3.166,3.166,0,0,1,2.563,1.086,4.7,4.7,0,0,1,.914,3.109v.6h-5.727a3,3,0,0,0,.73,2.02,2.3,2.3,0,0,0,1.777.77,2.517,2.517,0,0,0,1.3-.312,3.259,3.259,0,0,0,.93-.828l.883.688A3.55,3.55,0,0,1,122.094,65.156Zm-.18-7.578a1.928,1.928,0,0,0-1.469.637A3.1,3.1,0,0,0,119.711,60h4.234v-.109a2.753,2.753,0,0,0-.594-1.707A1.815,1.815,0,0,0,121.914,57.578Zm9.234.266a4.331,4.331,0,0,0-.711-.055A1.9,1.9,0,0,0,128.508,59v6h-1.445V56.547h1.406l.023.977a2.251,2.251,0,0,1,2.016-1.133,1.477,1.477,0,0,1,.641.109Zm8.484,3.023a5.026,5.026,0,0,1-.891,3.113,2.846,2.846,0,0,1-2.391,1.176,2.947,2.947,0,0,1-2.477-1.133L133.8,65h-1.328V53h1.445v4.477a2.93,2.93,0,0,1,2.414-1.086,2.863,2.863,0,0,1,2.418,1.164,5.177,5.177,0,0,1,.879,3.188Zm-1.445-.164a3.906,3.906,0,0,0-.57-2.281,1.888,1.888,0,0,0-1.641-.8,2.122,2.122,0,0,0-2.055,1.328V62.6a2.181,2.181,0,0,0,2.07,1.328,1.878,1.878,0,0,0,1.617-.8A4.153,4.153,0,0,0,138.188,60.7Zm8.484,4.3a3.036,3.036,0,0,1-.2-.891,3.225,3.225,0,0,1-2.406,1.047,2.984,2.984,0,0,1-2.051-.707,2.287,2.287,0,0,1-.8-1.793,2.39,2.39,0,0,1,1-2.051,4.733,4.733,0,0,1,2.824-.73h1.406v-.664A1.623,1.623,0,0,0,145.992,58a1.821,1.821,0,0,0-1.336-.449,2.107,2.107,0,0,0-1.3.391,1.151,1.151,0,0,0-.523.945h-1.453a2,2,0,0,1,.449-1.223,3.066,3.066,0,0,1,1.219-.934,4.1,4.1,0,0,1,1.691-.344,3.342,3.342,0,0,1,2.289.73,2.635,2.635,0,0,1,.859,2.012v3.891a4.757,4.757,0,0,0,.3,1.852V65Zm-2.4-1.1a2.54,2.54,0,0,0,1.289-.352,2.127,2.127,0,0,0,.883-.914V60.9h-1.133q-2.656,0-2.656,1.555a1.316,1.316,0,0,0,.453,1.063A1.742,1.742,0,0,0,144.273,63.9Zm7.453,1.1h-1.445V53h1.445Z" transform="translate(1212 2158.164)" fill="#fff"/>
    <g id="Grupo_154389" data-name="Grupo 154389" transform="translate(781.359 2051.271)">
      <g id="Grupo_154371" data-name="Grupo 154371" transform="translate(0 2.812)">
        <line id="Línea_1805" data-name="Línea 1805" x2="77.131" transform="translate(0 69.285)" fill="none" stroke="#fff" stroke-width="1" stroke-dasharray="6"/>
        <g id="Grupo_152595" data-name="Grupo 152595" transform="translate(25.315 11.293) rotate(180)">
          <rect id="Rectángulo_45221" data-name="Rectángulo 45221" width="2.151" height="2.151" transform="translate(9.142 9.142)" fill="#1894f6"/>
          <rect id="Rectángulo_45222" data-name="Rectángulo 45222" width="2.151" height="2.151" transform="translate(4.571 9.142)" fill="#1894f6"/>
          <rect id="Rectángulo_45223" data-name="Rectángulo 45223" width="2.151" height="2.151" transform="translate(0 9.142)" fill="#1894f6"/>
          <rect id="Rectángulo_45232" data-name="Rectángulo 45232" width="2.151" height="2.151" transform="translate(9.142 4.571)" fill="#1894f6"/>
          <rect id="Rectángulo_45233" data-name="Rectángulo 45233" width="2.151" height="2.151" transform="translate(4.571 4.571)" fill="#1894f6"/>
          <rect id="Rectángulo_45234" data-name="Rectángulo 45234" width="2.151" height="2.151" transform="translate(0 4.571)" fill="#1894f6"/>
          <rect id="Rectángulo_45243" data-name="Rectángulo 45243" width="2.151" height="2.151" transform="translate(9.142)" fill="#1894f6"/>
          <rect id="Rectángulo_45244" data-name="Rectángulo 45244" width="2.151" height="2.151" transform="translate(4.571)" fill="#1894f6"/>
          <rect id="Rectángulo_45245" data-name="Rectángulo 45245" width="2.151" height="2.151" fill="#1894f6"/>
        </g>
      </g>
      <g id="Grupo_154379" data-name="Grupo 154379" transform="translate(4.628)">
        <g id="Grupo_154378" data-name="Grupo 154378" clip-path="url(#clip-path)">
          <path id="Trazado_196202" data-name="Trazado 196202" d="M25,75.835A14.476,14.476,0,0,1,32.879,89.64H4.423C4.289,83.468,6.9,78.907,12.282,75.849c-.676-.349-1.35-.642-1.969-1.024a11.746,11.746,0,0,1-5.75-8.761.723.723,0,0,0-.581-.7A5.434,5.434,0,0,1,.695,57.561a1.416,1.416,0,0,0,.015-1,12.1,12.1,0,0,1-.307-7.2A9.228,9.228,0,0,1,4.9,43.505a4.011,4.011,0,0,0,1.472-1.452,9.551,9.551,0,0,1,8.669-4.878q3.521-.007,7.041,0A14.822,14.822,0,0,1,37.033,49.569a14.624,14.624,0,0,1-.5,7.02,1.4,1.4,0,0,0,.056.942,5.45,5.45,0,0,1-3.234,7.832c-.311.1-.551.177-.61.6a11.844,11.844,0,0,1-7.618,9.789,1.179,1.179,0,0,0-.122.086m5.566-15.915h.113V56.638c0-.637.007-1.275,0-1.913a3.287,3.287,0,0,0-3.339-3.33c-2.458-.048-4.923-.005-7.371-.183a26.61,26.61,0,0,1-7.83-2.022,3.941,3.941,0,0,0-5.517,3.737c-.019,3.94-.032,7.881,0,11.821a9.683,9.683,0,0,0,8.4,9.466,38.8,38.8,0,0,0,6.546.105,9.6,9.6,0,0,0,8.958-8.4,53.6,53.6,0,0,0,.038-6m4.08-4.491c.137-.968.345-1.877.382-2.793A12.648,12.648,0,0,0,22.276,39.363c-2.3-.007-4.6.038-6.9-.01a7.62,7.62,0,0,0-7.347,4.171,3.916,3.916,0,0,1-1.591,1.609C2.688,47.2,1.9,50.358,2.327,54.024a14.057,14.057,0,0,0,.312,1.429l1.792-.731c0-.675-.009-1.334,0-1.993A6.181,6.181,0,0,1,13.1,47.2a23.121,23.121,0,0,0,7.853,1.9c2.182.1,4.37.071,6.554.116a5.443,5.443,0,0,1,5.159,4.04c.132.5.181,1.022.264,1.508l1.716.667M11.643,78.816a12.068,12.068,0,0,0-4.964,8.647h6.691c-.573-2.87-1.137-5.7-1.726-8.647m18.99,8.645a12.1,12.1,0,0,0-4.976-8.637c-.586,2.935-1.152,5.764-1.725,8.637ZM18.651,82.683,14.846,87.44h7.61l-3.805-4.757m3.761,1.19c.407-2.028.789-3.892,1.145-5.76a.709.709,0,0,0-.181-.555.509.509,0,0,0-.5.045c-.947,1.095-1.868,2.212-2.812,3.342l2.348,2.929m-7.528,0c.788-.982,1.486-1.838,2.158-2.714a.486.486,0,0,0-.024-.459c-.9-1.109-1.816-2.2-2.743-3.316l-.624.292,1.233,6.2M4.4,57.177a3.064,3.064,0,0,0-2.157,3.048A3.01,3.01,0,0,0,4.4,63.1Zm28.506,5.958a3.12,3.12,0,0,0,2.15-3.031,3.083,3.083,0,0,0-2.15-2.934ZM16.525,76.664l2.127,2.556,2.126-2.556Z" transform="translate(0 -21.841)" fill="#fff"/>
          <path id="Trazado_196203" data-name="Trazado 196203" d="M105.622,90.326a46.668,46.668,0,0,1,5.594.033A11.093,11.093,0,0,1,120.3,105.1a1.537,1.537,0,0,0,.074,1.339,5.4,5.4,0,0,1-3.777,7.686,1,1,0,0,0-.818.669,9.636,9.636,0,0,1-8.977,6.044,13.79,13.79,0,0,1-5.664-.6,9.737,9.737,0,0,1-5.647-5.425,1.039,1.039,0,0,0-.876-.693,5.4,5.4,0,0,1-3.708-7.724,1.379,1.379,0,0,0,.082-1.211,11.172,11.172,0,0,1,10.462-14.959c1.39-.01,2.78,0,4.17,0v.107M96.9,103.346c0,2.8-.13,5.494.033,8.171a7.321,7.321,0,0,0,4.845,6.611,12.145,12.145,0,0,0,5.532.493,7.387,7.387,0,0,0,6.914-6.368c.252-2.3.123-4.637.159-6.959.01-.631,0-1.262,0-1.95a12.553,12.553,0,0,1-8.752-2.883,12.528,12.528,0,0,1-8.734,2.885m8.707-5.917c.569.531,1.028,1.009,1.538,1.426a9.973,9.973,0,0,0,6.557,2.3c.947,0,1.893,0,2.878,0V103.4l1.731.69c.051-.134.1-.238.13-.347a8.99,8.99,0,0,0-8.356-11.323c-2.891-.054-5.786-.072-8.677,0a8.7,8.7,0,0,0-8.014,5.12,8.413,8.413,0,0,0-.445,6.559l1.767-.718V101.35c2.021-.212,4.007-.269,5.925-.662a9.348,9.348,0,0,0,4.966-3.259m-10.938,8.405a3.1,3.1,0,0,0-2.16,3.061,3.059,3.059,0,0,0,2.186,2.9c0-1.864,0-3.716,0-5.568,0-.127-.016-.253-.026-.39m21.925,5.994a3.19,3.19,0,0,0,2.162-3.213,3.024,3.024,0,0,0-2.162-2.764Z" transform="translate(-53.07 -53.008)" fill="#fff"/>
          <path id="Trazado_196204" data-name="Trazado 196204" d="M105.434,30.675a10.964,10.964,0,0,1-7.05-2.212A9.529,9.529,0,0,1,95.47,24.57a.9.9,0,0,0-.762-.64,5.4,5.4,0,0,1-3.783-7.776,1.26,1.26,0,0,0,.068-1.145A9.3,9.3,0,0,1,99.805,2.228,18.2,18.2,0,0,0,107.29.782a9.9,9.9,0,0,1,13.655,9.061,18.309,18.309,0,0,1-.749,5.184,1.4,1.4,0,0,0,.08.94,5.463,5.463,0,0,1-3.792,8,.87.87,0,0,0-.571.369c-1.98,4.5-5.488,6.406-10.479,6.34M96.894,13.114c0,2.809-.119,5.481.031,8.137a7.339,7.339,0,0,0,4.851,6.677,12.122,12.122,0,0,0,5.531.493,7.307,7.307,0,0,0,6.9-6.366c.259-2.933.054-5.907.054-8.934a8.588,8.588,0,0,1-5.579-2.857,18.605,18.605,0,0,1-11.789,2.85m12.284-5.992c1.617,3.041,4.131,4.142,7.393,3.8v2.285l1.726.66c.145-.942.319-1.809.405-2.684a7.682,7.682,0,0,0-3.161-7.476,7.528,7.528,0,0,0-8.008-.688c-.558.255-1.128.484-1.7.7a18.9,18.9,0,0,1-6.206.694,6.914,6.914,0,0,0-6.478,4.232,6.607,6.607,0,0,0-.209,5.269l1.781-.73v-2.3c5.222.378,10.236.028,14.46-3.763M94.664,15.639a3.129,3.129,0,0,0,0,5.949Zm21.925,5.943a3.11,3.11,0,0,0,0-5.928Z" transform="translate(-53.071 0)" fill="#fff"/>
          <path id="Trazado_196205" data-name="Trazado 196205" d="M36.826,81.313h-2.06a4.264,4.264,0,0,1,4.085-4.342,4.394,4.394,0,0,1,4.292,2.783,4.836,4.836,0,0,1-1.269,5.367,2.126,2.126,0,0,1-.494.363,2.021,2.021,0,0,0-1.242,2.385c.1,1.06.022,2.137.022,3.262H37.973v-.978c0-1.48.021-2.961-.012-4.44a.925.925,0,0,1,.513-.928c.585-.35,1.149-.738,1.708-1.129a2.55,2.55,0,0,0,.871-3.21,2.11,2.11,0,0,0-2.007-1.288,2.162,2.162,0,0,0-2.009,1.388,7.808,7.808,0,0,0-.211.767" transform="translate(-20.417 -45.223)" fill="#fff"/>
          <path id="Trazado_196206" data-name="Trazado 196206" d="M43.684,116.759a1.089,1.089,0,1,1-1.1,1.073,1.1,1.1,0,0,1,1.1-1.073" transform="translate(-25.02 -68.603)" fill="#fff"/>
          <path id="Trazado_196207" data-name="Trazado 196207" d="M125.668,146.079l-1.858.941a2.663,2.663,0,0,0-2.3-1.554,2.5,2.5,0,0,0-2.357,1.56l-1.892-.931a4.453,4.453,0,0,1,4.084-2.821,4.5,4.5,0,0,1,4.327,2.805" transform="translate(-68.896 -84.182)" fill="#fff"/>
          <path id="Trazado_196208" data-name="Trazado 196208" d="M108.957,127.423h2.109c.163.583.464,1.054,1.148,1.047s.978-.476,1.129-1.059h2.064a3.163,3.163,0,0,1-3.042,3.254,3.248,3.248,0,0,1-3.408-3.242" transform="translate(-64.019 -74.862)" fill="#fff"/>
          <path id="Trazado_196209" data-name="Trazado 196209" d="M130.166,127.4h2.116c.15.6.46,1.061,1.137,1.061s.984-.466,1.135-1.06h2.058a3.147,3.147,0,0,1-2.958,3.252,3.262,3.262,0,0,1-3.488-3.253" transform="translate(-76.481 -74.859)" fill="#fff"/>
          <path id="Trazado_196210" data-name="Trazado 196210" d="M117.248,55.537l1.864-.936a2.622,2.622,0,0,0,2.31,1.552,2.562,2.562,0,0,0,2.357-1.562l1.882.939a4.551,4.551,0,0,1-8.413.006" transform="translate(-68.891 -32.076)" fill="#fff"/>
          <path id="Trazado_196211" data-name="Trazado 196211" d="M136.689,40.437h-2.11c-.173-.594-.481-1.091-1.2-1.057a1.132,1.132,0,0,0-1.072,1.049h-2.118a3.231,3.231,0,0,1,3.189-3.247,3.264,3.264,0,0,1,3.308,3.255" transform="translate(-76.496 -21.847)" fill="#fff"/>
          <path id="Trazado_196212" data-name="Trazado 196212" d="M111.1,40.431h-2.107a3.214,3.214,0,0,1,3.1-3.248,3.264,3.264,0,0,1,3.387,3.226h-2.119c-.163-.556-.463-1.06-1.18-1.03-.644.027-.951.461-1.084,1.052" transform="translate(-64.04 -21.846)" fill="#fff"/>
        </g>
      </g>
    </g>
    <g id="Grupo_154388" data-name="Grupo 154388" transform="translate(1268.053 2053.586)">
      <g id="Grupo_154374" data-name="Grupo 154374" transform="translate(0 2.87)">
        <line id="Línea_1807" data-name="Línea 1807" x2="77.131" y2="0.771" transform="translate(0 66.441)" fill="none" stroke="#fff" stroke-width="1" stroke-dasharray="6"/>
        <g id="Grupo_153193" data-name="Grupo 153193" transform="translate(22.23 11.293) rotate(180)">
          <rect id="Rectángulo_45221-2" data-name="Rectángulo 45221" width="2.151" height="2.151" transform="translate(9.142 9.142)" fill="#1894f6"/>
          <rect id="Rectángulo_45222-2" data-name="Rectángulo 45222" width="2.151" height="2.151" transform="translate(4.571 9.142)" fill="#1894f6"/>
          <rect id="Rectángulo_45223-2" data-name="Rectángulo 45223" width="2.151" height="2.151" transform="translate(0 9.142)" fill="#1894f6"/>
          <rect id="Rectángulo_45232-2" data-name="Rectángulo 45232" width="2.151" height="2.151" transform="translate(9.142 4.571)" fill="#1894f6"/>
          <rect id="Rectángulo_45233-2" data-name="Rectángulo 45233" width="2.151" height="2.151" transform="translate(4.571 4.571)" fill="#1894f6"/>
          <rect id="Rectángulo_45234-2" data-name="Rectángulo 45234" width="2.151" height="2.151" transform="translate(0 4.571)" fill="#1894f6"/>
          <rect id="Rectángulo_45243-2" data-name="Rectángulo 45243" width="2.151" height="2.151" transform="translate(9.142)" fill="#1894f6"/>
          <rect id="Rectángulo_45244-2" data-name="Rectángulo 45244" width="2.151" height="2.151" transform="translate(4.571)" fill="#1894f6"/>
          <rect id="Rectángulo_45245-2" data-name="Rectángulo 45245" width="2.151" height="2.151" fill="#1894f6"/>
        </g>
      </g>
      <g id="Grupo_154381" data-name="Grupo 154381" transform="translate(4.628 0)">
        <g id="Grupo_154380" data-name="Grupo 154380" transform="translate(0)" clip-path="url(#clip-path-2)">
          <path id="Trazado_196213" data-name="Trazado 196213" d="M137.948,78.765c-.669,1.634-1.264,3.3-2.021,4.9a29.835,29.835,0,0,1-9.465,11.792,23.883,23.883,0,0,1-20.9,3.05c-.745-.248-1.049-.714-.868-1.326.171-.576.727-.8,1.467-.57a21.614,21.614,0,0,0,16.6-1.231,24.079,24.079,0,0,0,9.409-8.957,37.043,37.043,0,0,0,3.653-7.664,1.142,1.142,0,0,0-.375-1.471q-2.6-1.877-5.222-3.732a6.574,6.574,0,0,0-.578-.322c-.686-.392-.894-.916-.582-1.466s.868-.658,1.554-.265c1.034.594,2.075,1.182,3.061,1.85.895.605,1.726,1.308,2.576,1.98a4.716,4.716,0,0,1,1.7,2.233Z" transform="translate(-70.073 -47.579)" fill="#fff"/>
          <path id="Trazado_196214" data-name="Trazado 196214" d="M85.956,82.27a88.726,88.726,0,0,1,20.107,2.659c1.7.429,2.122,1.816.919,3.074a39.6,39.6,0,0,1-11.148,8.341,21.493,21.493,0,0,1-20.4-.3,40.107,40.107,0,0,1-10.647-8.141,1.66,1.66,0,0,1,.82-2.917,75.709,75.709,0,0,1,12.625-2.214c2.57-.224,5.149-.342,7.724-.507m-19.4,4.554c1.6,1.957,6.556,5.869,8.233,6.53a.577.577,0,0,0,.117-.062,8.09,8.09,0,0,1,10.62.1c.367.33.606.16.906-.09a8.015,8.015,0,0,1,10.254-.2.648.648,0,0,0,.921.014c1.516-1.109,3.078-2.156,4.549-3.322,1.116-.885,2.12-1.914,3.174-2.879l-.075-.248a9.683,9.683,0,0,0-2.31-.117c-3.573.674-7.116,1.511-10.694,2.153a33.707,33.707,0,0,1-9.626.4A98.786,98.786,0,0,1,69.24,86.619a4.769,4.769,0,0,0-2.68.205m6.773-1.4a45.438,45.438,0,0,0,25.212,0,76.376,76.376,0,0,0-25.212,0m3.386,9c5.212,3.086,14.33,3.064,18.356-.021-.115-.079-.218-.16-.331-.225a6.1,6.1,0,0,0-7.041.658c-1.271,1.071-2.222,1.035-3.552.019a7.71,7.71,0,0,0-2.12-1.18,5.844,5.844,0,0,0-5.312.749" transform="translate(-42.991 -54.924)" fill="#fff"/>
          <path id="Trazado_196215" data-name="Trazado 196215" d="M54.557,73.36a2.655,2.655,0,0,1,.8-2.086,27.033,27.033,0,0,1,12.6-7A12.889,12.889,0,0,1,78.3,66.383c1.171.783,1.162.774,2.37-.019a13.5,13.5,0,0,1,11.453-1.839c.766.209,1.075.671.907,1.285s-.675.823-1.439.622A11.709,11.709,0,0,0,81.4,68.28a2.9,2.9,0,0,1-3.841.005A11.647,11.647,0,0,0,66,66.915a28.393,28.393,0,0,0-8.989,5.515,1.108,1.108,0,0,0-.374,1.3,31.792,31.792,0,0,0,8.949,13.934c.831.724,1.761,1.334,2.661,1.975.646.46.841.979.513,1.506s-.886.617-1.558.2a27.541,27.541,0,0,1-8.775-9.1A36.668,36.668,0,0,1,54.8,74.485a6.541,6.541,0,0,1-.2-.7,2.622,2.622,0,0,1-.038-.422" transform="translate(-36.535 -42.692)" fill="#fff"/>
          <path id="Trazado_196216" data-name="Trazado 196216" d="M8.589,143.463c.314-1.51.62-2.982.927-4.454.032-.152.061-.305.107-.453a.955.955,0,0,1,1.15-.745.924.924,0,0,1,.756,1.139c-.176,1.05-.412,2.089-.622,3.133-.086.432-.168.865-.26,1.34h2.026c.311-1.474.624-2.963.937-4.453.014-.065.015-.133.03-.2.167-.747.631-1.1,1.254-.953.574.134.841.633.7,1.37-.223,1.132-.468,2.259-.7,3.389-.054.26-.1.521-.168.881.576,0,1.117-.01,1.658,0,.749.017,1.222.439,1.2,1.045-.025.588-.467.943-1.2.95-.661.007-1.322,0-2.069,0l-.846,4.044c.623,0,1.169-.013,1.713,0,.743.022,1.15.391,1.145,1.005s-.406.964-1.161.986c-.486.015-.974.028-1.457,0-.468-.03-.7.085-.789.616-.241,1.4-.562,2.783-.859,4.172-.161.753-.643,1.133-1.226.99-.6-.149-.857-.664-.7-1.426.289-1.409.578-2.817.89-4.337-.647,0-1.233-.029-1.812.023-.126.011-.291.293-.331.474-.31,1.408-.587,2.823-.89,4.233-.167.782-.615,1.157-1.194,1.042-.627-.125-.895-.646-.733-1.455.244-1.218.5-2.434.743-3.652.038-.19.059-.384.1-.675-.6,0-1.148.015-1.691,0-.706-.024-1.105-.382-1.121-.965-.016-.607.4-.99,1.134-1.025.22-.011.442,0,.662,0,1.487,0,1.485,0,1.78-1.5.162-.824.333-1.646.515-2.545-.629,0-1.2.01-1.768,0a1,1,0,0,1-1.094-.993,1.017,1.017,0,0,1,1.044-.993c.725-.029,1.452-.007,2.233-.007m3.655,2.038H10.2l-.82,3.993c.644,0,1.212.014,1.779-.012a.431.431,0,0,0,.316-.254c.268-1.227.511-2.46.768-3.727" transform="translate(-2.734 -91.988)" fill="#fff"/>
          <path id="Trazado_196217" data-name="Trazado 196217" d="M60.037,14.008a.941.941,0,0,1-.73,1.034.912.912,0,0,1-1.143-.556c-.283-.673-.551-1.355-.778-2.048a.7.7,0,0,0-.787-.584c-1.786.033-3.573.028-5.36,0a.672.672,0,0,0-.763.534c-.214.651-.463,1.293-.719,1.929a1,1,0,0,1-1.364.688,1.017,1.017,0,0,1-.48-1.4Q50.3,7.263,52.706.929A1.294,1.294,0,0,1,55.186.923Q57.567,7.265,59.94,13.61a2.954,2.954,0,0,1,.1.4m-6.1-10.741L51.467,9.827H56.4L53.942,3.266" transform="translate(-32.019 0)" fill="#fff"/>
          <path id="Trazado_196218" data-name="Trazado 196218" d="M126.032,23.26c0-.488,0-.977,0-1.465,0-1.068.224-1.318,1.275-1.459a2.652,2.652,0,1,0-2.9-2.93c-.009.088,0,.178-.015.266a.994.994,0,1,1-1.981-.094,4.633,4.633,0,1,1,6.121,4.513.647.647,0,0,0-.524.755c.028.754.02,1.509,0,2.264a.958.958,0,0,1-.937,1.066.976.976,0,0,1-1.032-1.051c-.028-.62-.006-1.242-.006-1.864Z" transform="translate(-81.973 -8.712)" fill="#fff"/>
          <path id="Trazado_196219" data-name="Trazado 196219" d="M18.313,72.033a24.746,24.746,0,0,1,1.952-9.525c.324-.774.823-1.06,1.416-.819s.734.8.414,1.59a22.39,22.39,0,0,0-.024,17.428,1.63,1.63,0,0,1,.073,1.132,1.063,1.063,0,0,1-.872.526,1.414,1.414,0,0,1-.911-.707,21.854,21.854,0,0,1-1.835-6.705c-.109-.969-.144-1.947-.213-2.92" transform="translate(-12.264 -41.129)" fill="#fff"/>
          <path id="Trazado_196220" data-name="Trazado 196220" d="M2.117,78.187c0,2.1-.074,4.21.018,6.309A23.71,23.71,0,0,0,4,92.423c.084.205.176.407.251.616a1.023,1.023,0,0,1-.5,1.4A.962.962,0,0,1,2.425,93.8c-.652-2-1.376-3.982-1.843-6.025A26.264,26.264,0,0,1,.294,78.3c.018-.132.031-.265.059-.395a1.011,1.011,0,0,1,1.094-.926c.571.062.895.517.857,1.2H2.117" transform="translate(0 -51.39)" fill="#fff"/>
          <path id="Trazado_196221" data-name="Trazado 196221" d="M37.871,78.4a17.073,17.073,0,0,1,1.186-6.142c.284-.729.8-1.016,1.366-.781.59.243.763.755.48,1.509a15.4,15.4,0,0,0,0,11.128c.273.733.078,1.3-.488,1.508-.587.215-1.076-.07-1.363-.806A18.379,18.379,0,0,1,37.871,78.4" transform="translate(-25.36 -47.665)" fill="#fff"/>
          <path id="Trazado_196222" data-name="Trazado 196222" d="M55.844,132.815c0-1.822-.009-3.645,0-5.467a.982.982,0,0,1,1-1.085c.589,0,.956.414.983,1.1,0,.022,0,.044,0,.066q0,5.4,0,10.8c0,.729-.386,1.156-.994,1.153s-.983-.435-.986-1.166c-.009-1.8,0-3.6,0-5.4" transform="translate(-37.395 -84.294)" fill="#fff"/>
          <path id="Trazado_196223" data-name="Trazado 196223" d="M5.429,60.625c-.85-.016-1.349-.577-1.161-1.173A28.906,28.906,0,0,1,5.345,56.6a.889.889,0,0,1,1.23-.458A.953.953,0,0,1,7.113,57.4c-.31.876-.611,1.759-1,2.6-.143.307-.535.5-.682.627" transform="translate(-2.831 -37.425)" fill="#fff"/>
          <path id="Trazado_196224" data-name="Trazado 196224" d="M57.963,171.871a.847.847,0,0,1-.979.755.792.792,0,0,1-.722-.935.809.809,0,0,1,.9-.773.87.87,0,0,1,.8.952" transform="translate(-37.671 -114.106)" fill="#fff"/>
          <path id="Trazado_196225" data-name="Trazado 196225" d="M134.653,59.135a.835.835,0,0,1-.845-.851.866.866,0,0,1,.88-.876.844.844,0,0,1,.817.925.806.806,0,0,1-.853.8" transform="translate(-89.605 -38.325)" fill="#fff"/>
        </g>
      </g>
    </g>
    <g id="Grupo_154390" data-name="Grupo 154390" transform="translate(1024.32 2050.501)">
      <g id="Grupo_154373" data-name="Grupo 154373" transform="translate(0 6.278)">
        <line id="Línea_1807-2" data-name="Línea 1807" x2="77.131" transform="translate(0 66.441)" fill="none" stroke="#fff" stroke-width="1" stroke-dasharray="6"/>
        <g id="Grupo_153193-2" data-name="Grupo 153193" transform="translate(22.23 11.293) rotate(180)">
          <rect id="Rectángulo_45221-3" data-name="Rectángulo 45221" width="2.151" height="2.151" transform="translate(9.142 9.142)" fill="#1894f6"/>
          <rect id="Rectángulo_45222-3" data-name="Rectángulo 45222" width="2.151" height="2.151" transform="translate(4.571 9.142)" fill="#1894f6"/>
          <rect id="Rectángulo_45223-3" data-name="Rectángulo 45223" width="2.151" height="2.151" transform="translate(0 9.142)" fill="#1894f6"/>
          <rect id="Rectángulo_45232-3" data-name="Rectángulo 45232" width="2.151" height="2.151" transform="translate(9.142 4.571)" fill="#1894f6"/>
          <rect id="Rectángulo_45233-3" data-name="Rectángulo 45233" width="2.151" height="2.151" transform="translate(4.571 4.571)" fill="#1894f6"/>
          <rect id="Rectángulo_45234-3" data-name="Rectángulo 45234" width="2.151" height="2.151" transform="translate(0 4.571)" fill="#1894f6"/>
          <rect id="Rectángulo_45243-3" data-name="Rectángulo 45243" width="2.151" height="2.151" transform="translate(9.142)" fill="#1894f6"/>
          <rect id="Rectángulo_45244-3" data-name="Rectángulo 45244" width="2.151" height="2.151" transform="translate(4.571)" fill="#1894f6"/>
          <rect id="Rectángulo_45245-3" data-name="Rectángulo 45245" width="2.151" height="2.151" fill="#1894f6"/>
        </g>
      </g>
      <g id="Grupo_154383" data-name="Grupo 154383" transform="translate(4.628 0)">
        <g id="Grupo_154382" data-name="Grupo 154382" clip-path="url(#clip-path-3)">
          <path id="Trazado_196226" data-name="Trazado 196226" d="M0,59.725a21.514,21.514,0,0,1,1.053-3.136,7.549,7.549,0,0,1,4.94-3.837c4.347-1.234,8.689-2.488,13.04-3.706a.783.783,0,0,0,.685-.924,23.733,23.733,0,0,0-3.943-13.187,69.166,69.166,0,0,1-4.006-6.361A18.362,18.362,0,0,1,18.221,5.051a17.423,17.423,0,0,1,9.455-2.724A71.725,71.725,0,0,0,45.881.046a.708.708,0,0,1,.882.3,15.7,15.7,0,0,1,3.314,6.616A13.181,13.181,0,0,1,46.8,18.828a1.056,1.056,0,0,0-.238,1.341,6.155,6.155,0,0,1,.472,2.179,13.755,13.755,0,0,0,2.733,8.118,2.8,2.8,0,0,1-1.656,4.512.915.915,0,0,0-.519.431A13.672,13.672,0,0,0,45.9,40.521a6.338,6.338,0,0,1-6.36,5.765,14.736,14.736,0,0,1-2.67-.394c-.581-.116-1.143-.336-1.81-.538,0,1.117-.023,2.177.026,3.234.007.15.349.349.567.413,2.914.848,5.835,1.673,8.751,2.512,1.7.49,3.426.92,5.1,1.512a7.724,7.724,0,0,1,5.241,7.522c.031,3.147,0,6.3,0,9.443H0V59.725M17.715,51.75c-1.208.344-2.355.664-3.5,1-2.829.82-5.683,1.558-8.474,2.5A4.892,4.892,0,0,0,2.3,59.7c-.191,2.606-.065,5.238-.072,7.859,0,.038.044.075.073.123H52.538c0-2.521.1-4.986-.027-7.44a5.457,5.457,0,0,0-4.3-5.3q-2.81-.806-5.62-1.612c-1.826-.521-3.653-1.037-5.543-1.573l-2.461,10.1-7.2-6.173-7.208,6.171-2.457-10.1m6.333-25.768c.039-.462.073-.891.113-1.319a9.526,9.526,0,0,1,8.824-8.743c2.43-.12,4.869-.07,7.3-.064a6.5,6.5,0,0,1,3.424.933c.41.25.792.55,1.173.818A11.172,11.172,0,0,0,45.77,2.8a.933.933,0,0,0-.789-.2A78.779,78.779,0,0,1,27.6,4.579,15.07,15.07,0,0,0,15.96,9.933a16.145,16.145,0,0,0-1.353,19.189c.977,1.493,1.949,2.99,2.929,4.481a26.326,26.326,0,0,1,3.023,6.137c.232.694.422,1.4.662,2.209a12.4,12.4,0,0,0,2.8-6.875c-2.859-.645-4.364-2.265-4.3-4.6a4.517,4.517,0,0,1,4.325-4.492M27.694,40.73c.281.082.493.142.7.206,3.028.932,6.048,1.894,9.09,2.775a7.63,7.63,0,0,0,2.473.267,4,4,0,0,0,3.758-3.742A11.884,11.884,0,0,1,45.2,35.259a14.091,14.091,0,0,0,.856-1.773.971.971,0,0,1,1.141-.74c.289.027.8-.108.849-.277a1.315,1.315,0,0,0-.25-.962,15.1,15.1,0,0,1-2.9-8.638,4.568,4.568,0,0,0-4.768-4.752c-2.125-.01-4.251-.019-6.376.008a8.014,8.014,0,0,0-1.9.229A7.467,7.467,0,0,0,26.3,25.707c-.018.834,0,1.67,0,2.546-.714,0-1.332,0-1.949,0a2.262,2.262,0,1,0,.012,4.512c.632,0,1.264,0,1.908,0,.013.238.024.373.026.507a15.205,15.205,0,0,1-4.219,11.081,1.187,1.187,0,0,0-.335.739c.025,1.184.092,2.369.191,3.549a1.061,1.061,0,0,0,.377.695Q24.629,50.986,27,52.562a.817.817,0,0,0,.743.009q2.4-1.588,4.751-3.258a.945.945,0,0,0,.334-.651c.035-1.025-.033-2.055.032-3.077a.978.978,0,0,0-.866-1.21c-1.642-.437-3.255-.986-4.925-1.5l.624-2.14m7.22,10.481c-.719-.334-.719-.335-1.289.055q-1.075.737-2.149,1.476L29.209,54.3l4.1,3.51,1.606-6.6M25.549,54.3c-1.513-1.04-2.99-2.031-4.437-3.064a.932.932,0,0,0-1.264-.008l1.605,6.585,4.1-3.513" transform="translate(0 0)" fill="#fff"/>
          <path id="Trazado_196227" data-name="Trazado 196227" d="M181.691,89.924l-1.5-1.6a13.877,13.877,0,0,0-.017-19.067l1.53-1.527c5.515,5.36,6.369,15.574-.01,22.193" transform="translate(-118.287 -43.768)" fill="#fff"/>
          <path id="Trazado_196228" data-name="Trazado 196228" d="M172.777,92.556l-1.5-1.468c3.38-5.168,3.381-7.632.005-12.8l1.475-1.445c3.93,3.516,4.57,11.23.021,15.71" transform="translate(-112.447 -49.658)" fill="#fff"/>
          <path id="Trazado_196229" data-name="Trazado 196229" d="M163.641,95.1l-1.464-1.535a4.723,4.723,0,0,0-.011-6.373l1.5-1.532a6.753,6.753,0,0,1-.022,9.44" transform="translate(-106.466 -55.35)" fill="#fff"/>
        </g>
      </g>
    </g>
  </g>
</svg>
