<svg xmlns="http://www.w3.org/2000/svg" xmlns:xlink="http://www.w3.org/1999/xlink" width="108" height="108" viewBox="0 0 108 108">
  <defs>
    <clipPath id="clip-path">
      <rect id="Rectángulo_46404" data-name="Rectángulo 46404" width="73.617" height="73.603" fill="#fff"/>
    </clipPath>
  </defs>
  <g id="Grupo_155229" data-name="Grupo 155229" transform="translate(12603.5 9085.975)">
    <circle id="Elipse_5716" data-name="Elipse 5716" cx="54" cy="54" r="54" transform="translate(-12603.5 -9085.975)" fill="#baa1e1"/>
    <g id="Grupo_154823" data-name="Grupo 154823" transform="translate(-12586.809 -9068.776)">
      <g id="Grupo_154823-2" data-name="Grupo 154823" clip-path="url(#clip-path)">
        <path id="Trazado_196724" data-name="Trazado 196724" d="M52.247,36.147c0,3.665.02,7.251-.01,10.836a36.445,36.445,0,0,1-.23,4.288A14.335,14.335,0,0,1,49.7,57.2a17.463,17.463,0,0,1,5.353,8.059,25.377,25.377,0,0,1,.738,8.341H17.886c-.59-6.415.969-12.026,5.97-16.341-.491-1.008-1.017-1.959-1.426-2.958a15.078,15.078,0,0,1-1.064-5.8q.011-5.752,0-11.505v-.9a14.162,14.162,0,0,1-11.827,1.1,13.887,13.887,0,0,1-7.265-5.721A14.271,14.271,0,0,1,22.691,12.229,14.289,14.289,0,0,1,28.773,2.5,13.939,13.939,0,0,1,37.38.009,14.4,14.4,0,0,1,50.959,12.248,14.087,14.087,0,0,1,63,9.981,13.873,13.873,0,0,1,70.6,15,14.27,14.27,0,0,1,52.247,36.147M24.931,14.207a11.876,11.876,0,1,0,11.96-11.83,11.9,11.9,0,0,0-11.96,11.83m25.053,5.8c-.692,1.049-1.394,2.061-2.034,3.112a2.468,2.468,0,0,0-.422,1.259,11.852,11.852,0,1,0,23.562-2.324,11.19,11.19,0,0,0-7.764-9.461,11.338,11.338,0,0,0-11.932,2.418,1.222,1.222,0,0,0-.4.592c-.234,1.105-.424,2.22-.64,3.382H52.2c.157.693.5,1.191,1.233,1.2s1.075-.5,1.245-1.174h2.294A3.532,3.532,0,0,1,54.112,22.5c-1.743.373-3.236-.544-4.128-2.493m-26.439-.192a1.209,1.209,0,0,0,.026-.289c-.3-1.269-.593-2.541-.931-3.8a1.657,1.657,0,0,0-.5-.78c-3.741-3.21-7.979-4.013-12.5-2.1A11.24,11.24,0,0,0,2.4,23.259a11.756,11.756,0,0,0,10.411,12.28A11.912,11.912,0,0,0,26.11,24.2a1.1,1.1,0,0,0-.057-.576c-.629-.921-1.291-1.82-1.959-2.751l-1.019,1.485c-.816-.542-1.61-1.036-2.366-1.583a.754.754,0,0,0-1.041-.013c-.756.552-1.554,1.044-2.4,1.6l-1.312-1.971c1.281-.854,2.523-1.66,3.736-2.506a.733.733,0,0,1,.986.014c.925.649,1.877,1.259,2.862,1.914m3.777,44.358V71.23H46.331V64.207h2.385v7.014h4.676c.511-8-5.37-13.838-10.6-14.976Q41.77,65.6,36.8,69.3c-3.4-2.7-5.139-6.5-5.983-13.073-6.7,1.631-11.279,8.739-10.533,14.982h4.681V64.175Zm1.172-23.66h0c0,1.584-.023,3.168.005,4.751a5.713,5.713,0,0,0,4.832,5.654,42.75,42.75,0,0,0,5.922.148,5.894,5.894,0,0,0,5.856-5.877c.031-2.746.016-5.493,0-8.24a2.366,2.366,0,0,0-2.528-2.5c-1.509-.01-3.018,0-4.528,0a7.172,7.172,0,0,1-5.034-2.017,1.364,1.364,0,0,0-.831-.341,3.534,3.534,0,0,0-3.7,3.6c-.017,1.608,0,3.217,0,4.825M47.861,55.6a11.493,11.493,0,0,0,1.974-6.081c.056-4.823.033-9.648,0-14.472a1.962,1.962,0,0,0-.536-1.213,14.645,14.645,0,0,1-3.829-7c-.079-.344-.148-.689-.235-1.1A14.229,14.229,0,0,1,33.394,28.1a4.612,4.612,0,0,0,4.489,3.968c1.607.031,3.216,0,4.823.011a4.729,4.729,0,0,1,4.783,4.741q.038,4.23,0,8.461a7.476,7.476,0,0,1-2,5.213A34.575,34.575,0,0,1,42.378,53.1c.1.121.252.5.516.606,1.616.654,3.257,1.247,4.968,1.891m-22.12.028c1.658-.642,3.243-1.238,4.808-1.882a1.349,1.349,0,0,0,.622-.654c.039-.084-.295-.415-.512-.537a8.213,8.213,0,0,1-4.531-7.465c-.043-3.165-.027-6.33,0-9.5a5.92,5.92,0,0,1,4.594-5.741c.162-.039.321-.088.464-.127-.108-.8-.2-1.549-.321-2.3a.537.537,0,0,0-.222-.342c-.74-.434-1.492-.848-2.268-1.284-.056.228-.118.44-.159.656a13.535,13.535,0,0,1-3.659,7.069,2.639,2.639,0,0,0-.818,2.025c.02,3.808,0,7.616.014,11.424A33.358,33.358,0,0,0,23.9,50.6a11.462,11.462,0,0,0,1.839,5.027M33.6,53.47a10.273,10.273,0,0,0-.2,4.7h6.83a10.4,10.4,0,0,0-.22-4.7Zm3.221,12.479a14.46,14.46,0,0,0,2.858-5.324H33.916a14.546,14.546,0,0,0,2.9,5.324" transform="translate(0 0)" fill="#fff"/>
        <path id="Trazado_196725" data-name="Trazado 196725" d="M89.308,51.648h2.321c.413,2.231,1.693,3.493,3.553,3.524,1.919.031,3.212-1.2,3.7-3.533h2.289a5.685,5.685,0,0,1-2.415,4.735,5.623,5.623,0,0,1-6.343.428,5.788,5.788,0,0,1-3.105-5.153" transform="translate(-58.442 -33.791)" fill="#fff"/>
        <path id="Trazado_196726" data-name="Trazado 196726" d="M86.245,27.6h-2.3c-.164-.646-.5-1.152-1.233-1.152s-1.071.5-1.234,1.152H79.247a3.412,3.412,0,0,1,3.207-3.533A3.539,3.539,0,0,1,86.245,27.6" transform="translate(-51.845 -15.745)" fill="#fff"/>
        <path id="Trazado_196727" data-name="Trazado 196727" d="M118.289,27.594c-.162-.623-.477-1.111-1.181-1.141-.779-.033-1.107.511-1.3,1.147h-2.242a3.454,3.454,0,0,1,3.4-3.533,3.5,3.5,0,0,1,3.6,3.526Z" transform="translate(-74.312 -15.75)" fill="#fff"/>
        <path id="Trazado_196728" data-name="Trazado 196728" d="M166.513,81.521h-2.259c-.444-2.28-1.729-3.523-3.626-3.522s-3.176,1.24-3.625,3.521h-2.259a5.884,5.884,0,1,1,11.769,0" transform="translate(-101.257 -49.487)" fill="#fff"/>
        <path id="Trazado_196729" data-name="Trazado 196729" d="M185.834,55.1a3.58,3.58,0,0,1-3.654,3.522,3.541,3.541,0,0,1-3.428-3.514h2.3c.158.616.488,1.123,1.222,1.129s1.066-.509,1.245-1.137Z" transform="translate(-116.973 -36.059)" fill="#fff"/>
        <path id="Trazado_196730" data-name="Trazado 196730" d="M24.113,79.137h2.308a3.374,3.374,0,0,0,1.51,2.806,4.922,4.922,0,0,0,2.275.687c1.816.027,3.1-1.359,3.412-3.482h2.256c.354,2.8-2.411,5.738-5.522,5.89a5.926,5.926,0,0,1-6.24-5.9" transform="translate(-15.779 -51.786)" fill="#fff"/>
        <path id="Trazado_196731" data-name="Trazado 196731" d="M13.141,55.923l-1.313-1.974c1.336-.892,2.62-1.761,3.924-2.6a.661.661,0,0,1,.587,0c1.3.84,2.586,1.709,3.925,2.6l-1.314,1.97c-.854-.566-1.666-1.078-2.446-1.635a.673.673,0,0,0-.914,0c-.781.555-1.592,1.069-2.449,1.638" transform="translate(-7.74 -33.555)" fill="#fff"/>
      </g>
    </g>
  </g>
</svg>
