<svg xmlns="http://www.w3.org/2000/svg" xmlns:xlink="http://www.w3.org/1999/xlink" width="108" height="108" viewBox="0 0 108 108">
  <defs>
    <clipPath id="clip-path">
      <rect id="Rectángulo_46408" data-name="Rectángulo 46408" width="68.817" height="68.798" fill="#fff"/>
    </clipPath>
  </defs>
  <g id="Grupo_154396" data-name="Grupo 154396" transform="translate(-438 -7380.397)">
    <circle id="Elipse_5716" data-name="Elipse 5716" cx="54" cy="54" r="54" transform="translate(438 7380.397)" fill="#baa1e1"/>
    <g id="Grupo_154826" data-name="Grupo 154826" transform="translate(458 7400.397)">
      <g id="Grupo_154826-2" data-name="Grupo 154826" clip-path="url(#clip-path)">
        <path id="Trazado_196739" data-name="Trazado 196739" d="M22.937,4.691c0-.345,0-.675,0-1A3.451,3.451,0,0,1,26.606,0Q34.7-.006,42.8,0H64.937A3.484,3.484,0,0,1,68.8,3.856q0,7.631,0,15.263c0,2.424-1.406,3.943-3.827,3.772a4.764,4.764,0,0,0-4.441,1.864c-.989,1.217-2.2,2.25-3.314,3.369a1.234,1.234,0,0,1-1.462.439,1.253,1.253,0,0,1-.718-1.349c.015-1.4.005-2.806.005-4.244H49.621a43.223,43.223,0,0,1,.71,4.884c.1,2.757,1.374,5.136,2.2,7.655.89,2.717,1.927,5.387,2.891,8.08.718,2-.293,3.419-2.436,3.423-1.192,0-2.384,0-3.679,0,0,.716.008,1.4,0,2.079-.013.934-.426,1.354-1.363,1.357-2.7.008-5.395,0-8.24,0,.387.768.708,1.47,1.1,2.131.079.134.421.154.642.155,2.1.011,4.2.005,6.305.007,1.182,0,1.555.365,1.559,1.522,0,1.027.017,2.054,0,3.081a3.423,3.423,0,0,1-3.429,3.416q-3.26.038-6.52,0c-.486-.006-.7.117-.831.612-.565,2.094-1.182,4.175-1.786,6.258-.276.954-.555,1.166-1.518,1.167q-12.287,0-24.575,0c-1.158,0-1.611-.567-1.355-1.684.662-2.882,1.337-5.761,2-8.644a9.824,9.824,0,0,0-2.878-9.819,26.923,26.923,0,0,1-6.683-9.7A25.194,25.194,0,0,1,20.978,4.993c.631-.108,1.265-.2,1.959-.3m0,2.3c-.714.113-1.327.2-1.936.308A22.963,22.963,0,0,0,2.793,34.545,23.675,23.675,0,0,0,9.929,46.934a11.931,11.931,0,0,1,3.844,10.481,43.615,43.615,0,0,1-.938,4.476c-.338,1.521-.7,3.039-1.053,4.592h22.91l1.621-5.712H30.658a5.718,5.718,0,0,1-4.085-1.623c-.691-.659-1.363-1.34-2.029-2.024a1.159,1.159,0,1,1,1.614-1.636c.618.6,1.228,1.2,1.824,1.823A3.693,3.693,0,0,0,30.8,58.483c2.46-.016,4.92-.005,7.379-.005q3.725,0,7.451,0c.8,0,1.3-.334,1.353-.983.058-.8.014-1.6.014-2.454-2.243,0-4.413-.014-6.582.009A1.394,1.394,0,0,1,39,54.187c-.663-1.375-1.363-2.731-2.035-4.1-.567-1.156-.087-1.922,1.2-1.925,2.675-.006,5.349,0,8.024,0h.825c0-.645,0-1.213,0-1.78,0-1.327.328-1.658,1.636-1.659h4.726c-.116-.332-.2-.575-.285-.816q-2.356-6.64-4.705-13.281a6.475,6.475,0,0,1-.229-1.183c-.291-1.929-.583-3.859-.857-5.791-.083-.586-.373-.733-.96-.731-6.543.024-13.087.017-19.63.014a3.477,3.477,0,0,1-3.772-3.8q0-5.625,0-11.249V7M57.331,24.747c1.264-1.265,2.363-2.425,3.537-3.5a2.531,2.531,0,0,1,1.373-.578,26.109,26.109,0,0,1,2.647-.026c1.268,0,1.614-.345,1.614-1.61q0-7.556,0-15.113c0-1.275-.342-1.621-1.6-1.622H26.8c-1.216,0-1.569.357-1.57,1.581q0,7.485,0,14.97c0,1.513.28,1.794,1.788,1.794H55.45c1.643,0,1.881.242,1.881,1.916v2.191" transform="translate(0 0)" fill="#fff"/>
        <path id="Trazado_196740" data-name="Trazado 196740" d="M153.014,108.4c-.1,4.755-1.461,8.224-4.227,11.12-.649.679-1.438.688-1.9.048-.362-.5-.267-1.078.284-1.663a12.676,12.676,0,0,0,.07-17.456,1.715,1.715,0,0,1-.506-1.1,1.518,1.518,0,0,1,.694-.957c.494-.313.958-.026,1.332.359a13.716,13.716,0,0,1,3.491,5.842c.417,1.481.614,3.025.767,3.807" transform="translate(-84.196 -56.404)" fill="#fff"/>
        <path id="Trazado_196741" data-name="Trazado 196741" d="M144.084,113.26a10.652,10.652,0,0,1-2.967,7.526,1.029,1.029,0,0,1-1.408.26,1.6,1.6,0,0,1-.583-1.1c-.006-.334.331-.713.59-1.009a7.956,7.956,0,0,0,2.047-5.351,7.834,7.834,0,0,0-1.94-5.245c-.108-.127-.224-.248-.331-.376a1.15,1.15,0,1,1,1.707-1.52,9.83,9.83,0,0,1,2.566,4.71c.184.808.252,1.643.32,2.105" transform="translate(-79.858 -60.827)" fill="#fff"/>
        <path id="Trazado_196742" data-name="Trazado 196742" d="M135.1,117.948a5.759,5.759,0,0,1-1.544,3.9,1.147,1.147,0,0,1-1.7.222,1.179,1.179,0,0,1-.023-1.719,3.415,3.415,0,0,0,.01-4.791,1.147,1.147,0,1,1,1.714-1.512,5.756,5.756,0,0,1,1.547,3.9" transform="translate(-75.472 -65.201)" fill="#fff"/>
        <path id="Trazado_196743" data-name="Trazado 196743" d="M13.487,49.269a20.648,20.648,0,0,1,8.322-15.926,1.153,1.153,0,1,1,1.365,1.833,17.63,17.63,0,0,0-6.456,9.044,43.219,43.219,0,0,0-.942,5.254c-.035.21.01.436-.04.641a1.136,1.136,0,0,1-2.242-.06,4.513,4.513,0,0,1-.008-.785" transform="translate(-7.734 -18.947)" fill="#fff"/>
        <path id="Trazado_196744" data-name="Trazado 196744" d="M91.873,63.952c-1.739-.868-3.338-1.657-4.929-2.463-.825-.418-1.059-1.2-.552-1.812a1.069,1.069,0,0,1,1.409-.313c2.282,1.133,4.569,2.257,6.833,3.425a1.11,1.11,0,0,1,.14,1.982c-1.107.787-2.245,1.531-3.389,2.263a1.116,1.116,0,0,1-1.627-.318,1.137,1.137,0,0,1,.411-1.61c.27-.2.553-.373.83-.56.252-.17.5-.342.873-.593" transform="translate(-49.442 -33.997)" fill="#fff"/>
        <path id="Trazado_196745" data-name="Trazado 196745" d="M43.871,28.268c.018.693-.426,1.013-1,1.219-.689.249-1.375.794-2.1.092A1.093,1.093,0,0,1,41,27.817a6.257,6.257,0,0,1,1.439-.6,1.1,1.1,0,0,1,1.434,1.047" transform="translate(-23.206 -15.601)" fill="#fff"/>
        <path id="Trazado_196746" data-name="Trazado 196746" d="M129.214,17.585c0-1.791,0-3.583,0-5.374,0-.9.429-1.428,1.144-1.428s1.145.524,1.146,1.427q.006,5.445,0,10.891c0,.9-.432,1.429-1.145,1.429s-1.142-.525-1.145-1.429c0-1.839,0-3.678,0-5.517" transform="translate(-74.176 -6.19)" fill="#fff"/>
        <path id="Trazado_196747" data-name="Trazado 196747" d="M83.058,19.275c0,1.409,0,2.818,0,4.227,0,.9-.434,1.429-1.147,1.428s-1.142-.526-1.144-1.43q-.006-4.3,0-8.6c0-.9.43-1.427,1.145-1.427S83.053,14,83.056,14.9c.005,1.457,0,2.914,0,4.371" transform="translate(-46.363 -7.735)" fill="#fff"/>
        <path id="Trazado_196748" data-name="Trazado 196748" d="M123.43,20.819c0,1.051.007,2.1,0,3.152-.008.841-.453,1.357-1.146,1.357s-1.139-.516-1.142-1.358q-.01-3.225,0-6.449c0-.843.449-1.356,1.144-1.355s1.137.514,1.144,1.357c.009,1.1,0,2.2,0,3.3" transform="translate(-69.539 -9.28)" fill="#fff"/>
        <path id="Trazado_196749" data-name="Trazado 196749" d="M74.976,22.316c0,.716.013,1.433,0,2.149a1.158,1.158,0,0,1-1.167,1.262,1.143,1.143,0,0,1-1.116-1.238q-.024-2.185,0-4.371a1.146,1.146,0,1,1,2.283-.023c.018.74,0,1.481,0,2.221" transform="translate(-41.722 -10.826)" fill="#fff"/>
        <path id="Trazado_196750" data-name="Trazado 196750" d="M91.124,22.358c0,.716.016,1.433,0,2.149a1.147,1.147,0,0,1-1.135,1.22A1.133,1.133,0,0,1,88.84,24.52q-.028-2.221,0-4.442a1.142,1.142,0,1,1,2.28-.013c.022.763.005,1.528.005,2.292" transform="translate(-50.992 -10.826)" fill="#fff"/>
        <path id="Trazado_196751" data-name="Trazado 196751" d="M115.349,22.3c0,.74.017,1.481,0,2.221a1.142,1.142,0,1,1-2.28-.01q-.027-2.221,0-4.442a1.142,1.142,0,1,1,2.28.011c.02.74,0,1.481,0,2.221" transform="translate(-64.899 -10.826)" fill="#fff"/>
        <path id="Trazado_196752" data-name="Trazado 196752" d="M139.575,22.316c0,.716.013,1.433,0,2.149a1.157,1.157,0,0,1-1.167,1.261,1.142,1.142,0,0,1-1.116-1.238q-.024-2.185,0-4.37a1.146,1.146,0,1,1,2.283-.023c.018.74,0,1.481,0,2.221" transform="translate(-78.806 -10.826)" fill="#fff"/>
        <path id="Trazado_196753" data-name="Trazado 196753" d="M66.889,23.874c0,.382.023.766-.005,1.146a1.138,1.138,0,0,1-1.173,1.106,1.12,1.12,0,0,1-1.1-1.107c-.032-.787-.032-1.576,0-2.363a1.117,1.117,0,0,1,1.1-1.1,1.134,1.134,0,0,1,1.172,1.106c.029.4.005.811.005,1.217" transform="translate(-37.079 -12.371)" fill="#fff"/>
        <path id="Trazado_196754" data-name="Trazado 196754" d="M99.185,23.774c0,.43.029.862-.007,1.289a1.127,1.127,0,0,1-1.14,1.063,1.111,1.111,0,0,1-1.122-1.079c-.037-.81-.038-1.625,0-2.435a1.106,1.106,0,0,1,1.137-1.062,1.129,1.129,0,0,1,1.127,1.078c.032.38.006.764.005,1.146" transform="translate(-55.62 -12.372)" fill="#fff"/>
        <path id="Trazado_196755" data-name="Trazado 196755" d="M145.369,23.844c0-.406-.027-.814.006-1.217a1.125,1.125,0,0,1,1.127-1.075,1.108,1.108,0,0,1,1.136,1.064c.04.81.039,1.624,0,2.434a1.111,1.111,0,0,1-1.125,1.077,1.126,1.126,0,0,1-1.138-1.065c-.034-.4-.006-.811-.007-1.217" transform="translate(-83.445 -12.372)" fill="#fff"/>
        <path id="Trazado_196756" data-name="Trazado 196756" d="M107.262,26.021a5.576,5.576,0,0,1,0,.572,1.143,1.143,0,0,1-1.13,1.078,1.127,1.127,0,0,1-1.14-1.063,8.657,8.657,0,0,1-.006-1.217,1.14,1.14,0,1,1,2.28-.015c.017.213,0,.429,0,.644Z" transform="translate(-60.257 -13.917)" fill="#fff"/>
      </g>
    </g>
  </g>
</svg>
