<svg xmlns="http://www.w3.org/2000/svg" xmlns:xlink="http://www.w3.org/1999/xlink" width="70" height="70" viewBox="0 0 70 70">
  <defs>
    <clipPath id="clip-path">
      <rect id="Rectángulo_46466" data-name="Rectángulo 46466" width="48.822" height="48.826" fill="#7f4fc7"/>
    </clipPath>
  </defs>
  <g id="Grupo_155251" data-name="Grupo 155251" transform="translate(-615 -6111)">
    <circle id="Elipse_5732" data-name="Elipse 5732" cx="35" cy="35" r="35" transform="translate(615 6111)" fill="#fff"/>
    <g id="Grupo_154923" data-name="Grupo 154923" transform="translate(626 6122)">
      <g id="Grupo_154922" data-name="Grupo 154922" transform="translate(0 0)" clip-path="url(#clip-path)">
        <path id="Trazado_196914" data-name="Trazado 196914" d="M0,39.482A25.362,25.362,0,0,1,.592,36.5c1.962-6.094,6.1-9.721,12.439-10.762,1.01-.166,2.049-.157,3.091-.23.125-.364,0-.6-.335-.849a8.391,8.391,0,0,1-3.574-6.829c-.038-1.379-.007-2.76-.007-4.143-.39-.094-.745-.168-1.093-.265-.382-.107-.709-.358-.7-.751a26.252,26.252,0,0,1,.2-4.36A5.76,5.76,0,0,1,15.442,3.9a.88.88,0,0,0,.568-.319A7.026,7.026,0,0,1,23.688.156a9.495,9.495,0,0,1,7.846,9.479c.006.954,0,1.907,0,2.86,0,.914-.329,1.243-1.227,1.247-.3,0-.6,0-1.011,0v5.92h.659c1.668,0,3.336-.007,5.005,0A.958.958,0,1,1,35,21.57c-.905-.006-1.811,0-2.717,0q-5.339,0-10.678,0a3.249,3.249,0,0,0-3.535,3.525q-.006,6.865,0,13.728a3.243,3.243,0,0,0,3.536,3.519H43.394a3.246,3.246,0,0,0,3.516-3.495q0-6.912,0-13.824a3.238,3.238,0,0,0-3.18-3.454.968.968,0,0,1-1-.985,1,1,0,0,1,1.121-.915,5.136,5.136,0,0,1,4.962,5.2q.022,6.126,0,12.251a21.336,21.336,0,0,1-.1,2.851,5.049,5.049,0,0,1-4.788,4.27c-.808.029-1.618,0-2.334,0L40.3,46.9c.587.082,1.458-.2,1.691.8.126.541-.228.845-.607,1.125H4.958a3.026,3.026,0,0,0-.306-.1A5.534,5.534,0,0,1,.8,45.975,14.651,14.651,0,0,1,0,43.868V39.482m16.278,1.335c-.038-1.188-.1-2.324-.107-3.461-.015-3.1-.005-6.2-.005-9.294v-.515c-.8,0-1.537-.046-2.262.007A13.148,13.148,0,0,0,2.269,37.54a22.836,22.836,0,0,0-.361,5.308,3.821,3.821,0,0,0,4.047,4.07q4.838,0,9.676,0c.167,0,.334-.014.508-.022V42.724H10.022c-.883,0-1.325-.307-1.342-.93-.016-.639.447-.977,1.342-.977h6.256m13.345-29.01c0-.861.025-1.67,0-2.477a7.583,7.583,0,0,0-7.787-7.409,4.956,4.956,0,0,0,.22,9.907c2.4.022,4.8.006,7.194.005.108,0,.216-.015.377-.027M14.111,13.667c0,1.319-.02,2.6.009,3.889a8.57,8.57,0,0,0,.2,1.744,6.4,6.4,0,0,0,2.215,3.54c.1-.179.167-.319.244-.456a5,5,0,0,1,3.469-2.595A8.988,8.988,0,0,1,22,19.668c1.714-.015,3.428-.006,5.181-.006.511-1.964.18-3.932.3-5.92h-.588c-1.637,0-3.273.008-4.909-.006a6.726,6.726,0,0,1-4.034-1.363c-.111-.082-.228-.154-.341-.23a7.316,7.316,0,0,1-3.491,1.524m2.235-2.952a7.08,7.08,0,0,1-1.121-4.789,3.858,3.858,0,0,0-2.809,2.946,25.5,25.5,0,0,0-.174,2.869,5.271,5.271,0,0,0,4.1-1.025m12.41,33.561H22.783l.561,2.611h5.411Zm1.95,2.619h3.573V44.282H30.706ZM18.114,44.289v2.6h3.148c.287-1.823-.95-2.847-3.148-2.6m18.128,2.575c1.5-.091,3.06-1.382,3.162-2.582H36.241Z" transform="translate(0 0)" fill="#7f4fc7"/>
        <path id="Trazado_196915" data-name="Trazado 196915" d="M65.6,68a3.542,3.542,0,1,1,3.543-3.547A3.532,3.532,0,0,1,65.6,68m.016-5.176a1.635,1.635,0,1,0,1.62,1.646,1.623,1.623,0,0,0-1.62-1.646" transform="translate(-33.102 -32.496)" fill="#7f4fc7"/>
        <path id="Trazado_196916" data-name="Trazado 196916" d="M83.331,42.16a.97.97,0,0,1,.945.983.951.951,0,0,1-1.9-.058.974.974,0,0,1,.955-.925" transform="translate(-43.946 -22.492)" fill="#7f4fc7"/>
        <path id="Trazado_196917" data-name="Trazado 196917" d="M36.359,34.571a.925.925,0,0,1,.972-.9.941.941,0,1,1-.085,1.88.929.929,0,0,1-.887-.983" transform="translate(-19.397 -17.965)" fill="#7f4fc7"/>
        <path id="Trazado_196918" data-name="Trazado 196918" d="M49.031,34.569a.925.925,0,0,1,.973-.9.941.941,0,1,1-.088,1.88.929.929,0,0,1-.885-.984" transform="translate(-26.157 -17.964)" fill="#7f4fc7"/>
      </g>
    </g>
  </g>
</svg>
