<svg xmlns="http://www.w3.org/2000/svg" xmlns:xlink="http://www.w3.org/1999/xlink" width="132.589" height="140.507" viewBox="0 0 132.589 140.507">
  <defs>
    <clipPath id="clip-path">
      <rect id="Rectángulo_46456" data-name="Rectángulo 46456" width="104.41" height="140.507" fill="#2194e5"/>
    </clipPath>
  </defs>
  <g id="Grupo_154811" data-name="Grupo 154811" transform="translate(-228.033 -778.124)">
    <g id="Grupo_152595" data-name="Grupo 152595" transform="translate(266.118 879.984) rotate(180)">
      <rect id="Rectángulo_45221" data-name="Rectángulo 45221" width="7.254" height="7.254" transform="translate(30.83 30.831)" fill="#7f4fc7"/>
      <rect id="Rectángulo_45222" data-name="Rectángulo 45222" width="7.254" height="7.254" transform="translate(15.415 30.831)" fill="#7f4fc7"/>
      <rect id="Rectángulo_45223" data-name="Rectángulo 45223" width="7.254" height="7.254" transform="translate(0 30.831)" fill="#7f4fc7"/>
      <rect id="Rectángulo_45232" data-name="Rectángulo 45232" width="7.254" height="7.254" transform="translate(30.83 15.415)" fill="#7f4fc7"/>
      <rect id="Rectángulo_45233" data-name="Rectángulo 45233" width="7.254" height="7.254" transform="translate(15.415 15.415)" fill="#7f4fc7"/>
      <rect id="Rectángulo_45234" data-name="Rectángulo 45234" width="7.254" height="7.254" transform="translate(0 15.415)" fill="#7f4fc7"/>
      <rect id="Rectángulo_45243" data-name="Rectángulo 45243" width="7.254" height="7.254" transform="translate(30.83)" fill="#7f4fc7"/>
      <rect id="Rectángulo_45244" data-name="Rectángulo 45244" width="7.254" height="7.254" transform="translate(15.415)" fill="#7f4fc7"/>
      <rect id="Rectángulo_45245" data-name="Rectángulo 45245" width="7.254" height="7.254" transform="translate(0)" fill="#7f4fc7"/>
    </g>
    <g id="Grupo_154904" data-name="Grupo 154904" transform="translate(256.212 778.124)">
      <g id="Grupo_154904-2" data-name="Grupo 154904" clip-path="url(#clip-path)">
        <path id="Trazado_196860" data-name="Trazado 196860" d="M7.211,140.507A2.8,2.8,0,0,1,5.8,137.775c.061-4.161.018-8.324.035-12.485.008-1.708.794-2.651,2.108-2.617s2,.983,2,2.72c0,3.607,0,7.213,0,10.908H25.224q0-2.525,0-5.041c0-.549-.02-1.1.018-1.646a2.031,2.031,0,1,1,4.062-.021c.08,1.551.03,3.109.034,4.664,0,.638,0,1.277,0,2.024H75.087c0-1.735-.006-3.5,0-5.256a10.077,10.077,0,0,1,.083-1.776,1.866,1.866,0,0,1,2.141-1.672,1.8,1.8,0,0,1,1.841,1.84c.073,1.872.034,3.749.052,5.623,0,.4.044.8.071,1.276H94.663c-.181-4.85.182-9.725-.659-14.383-1.49-8.254-6.826-13.4-14.891-15.666-1.626-.457-3.281-.8-4.925-1.193a1.308,1.308,0,0,0-.37.011c-3.368,10.621-10.321,17.021-21.668,17-11.283-.026-18.2-6.417-21.544-16.993-7.48,1.13-14.072,3.777-18.059,10.808-.873,1.539-1.94,1.986-3.094,1.36a2.073,2.073,0,0,1-.645-3.073,23.362,23.362,0,0,1,14.353-11.546c4.827-1.381,9.724-2.519,14.606-3.7.967-.233,1.353-.57,1.317-1.62-.085-2.467,0-4.939-.057-7.407a1.759,1.759,0,0,0-.635-1.31c-9.506-5.29-14.7-13.4-15.943-24.22A25.927,25.927,0,0,1,19.533,64a9.893,9.893,0,0,1-7.919-7.984c-.931-4.417.631-8.011,4.269-10.643A1.988,1.988,0,0,0,16.889,43.5c-.06-2.56-.054-5.123,0-7.683a1.462,1.462,0,0,0-.983-1.555c-2.885-1.376-5.743-2.807-8.6-4.236C5.247,29,5.072,27.453,6.839,26c.836-.684,1.687-1.351,2.685-2.148-2.608-1.3-5.045-2.517-7.482-3.734-2.559-1.278-2.712-2.7-.464-4.475,3.376-2.66,6.766-5.3,10.138-7.965.792-.625,1.736-1.279,2.581-.547a7.4,7.4,0,0,1,2.275,3.047c.406,1.272-1.173,2.422-2.51,1.92a1.587,1.587,0,0,0-1.8.382C10.3,14.06,8.312,15.6,6.338,17.159a2.491,2.491,0,0,0-.272.36c2.248,1.121,4.416,2.354,6.7,3.3,3.411,1.417,3.55,3.426.572,5.318-.571.363-1.069.84-1.779,1.407L24.846,34.1l.232-.2c-.321-.438-.636-.881-.966-1.312-1.334-1.743-2.69-3.469-4-5.226a2.1,2.1,0,0,1,.416-3.325c.7-.577,1.422-1.127,2.277-1.8-.977-1.075-1.875-2.086-2.8-3.074-.85-.908-1.372-1.865-.543-3.049.677-.965,1.682-1.049,2.957-.422,2.416-2.518,4.569-5.243,7.208-7.359,2.086-1.673,3.251-3.274,2.852-6A1.948,1.948,0,0,1,34.426.02a2.107,2.107,0,0,1,2.116,2.218c.025.4,0,.814,0,1.314,1.511-.586,2.916-1.1,4.291-1.688a2.075,2.075,0,0,0,.706-.77A2.065,2.065,0,0,1,44.386.3,2.867,2.867,0,0,0,45.9.55a37.453,37.453,0,0,1,12.558,0A3.092,3.092,0,0,0,60.1.263c.971-.42,1.972-.384,2.458.468a4.108,4.108,0,0,0,2.488,1.7c.888.345,1.763.725,2.775,1.144.025-.573.025-1.053.073-1.528A2.073,2.073,0,0,1,70.048.022a1.882,1.882,0,0,1,1.9,2.08c-.506,3.026.954,4.733,3.2,6.521,2.507,1.993,4.513,4.616,6.819,7.052.454-.481,1.107-1.158,1.741-1.85,1.854-2.024,3.685-4.068,5.556-6.074a2.011,2.011,0,0,1,3.138-.3q5.527,4.288,11,8.644c1.5,1.2,1.3,2.809-.434,3.727-1.29.685-2.615,1.3-3.923,1.957s-2.609,1.307-4.124,2.065c.966.781,1.834,1.472,2.689,2.178,1.71,1.412,1.572,2.968-.393,3.964-2.851,1.445-5.708,2.885-8.605,4.233a1.614,1.614,0,0,0-1.075,1.773c.057,2.514.05,5.031,0,7.545a1.835,1.835,0,0,0,.921,1.78,10.193,10.193,0,0,1,4.205,11.408,10.307,10.307,0,0,1-9.711,7.521c-.312.015-.623.048-.609.047-.931,3.282-1.771,6.393-2.726,9.467a2.407,2.407,0,0,1-1.259,1.473,2.868,2.868,0,0,1-2.121-.321c-.864-.549-.765-1.486-.507-2.465.75-2.856,1.442-5.73,2.023-8.625a4.746,4.746,0,0,0-.325-2.392q-3.526-9.793-7.154-19.55a5.093,5.093,0,0,0-1.022-1.747c-1.037-1.073-1.852-.935-2.725.254-5.785,7.888-13.74,11.463-23.356,11.7-1.92.047-3.842-.02-5.763.026a8.64,8.64,0,0,0-7.651,4.529,39.749,39.749,0,0,0-2.817,5.476,6.708,6.708,0,0,0-.173,3.34c1.607,10.164,7.146,17.4,16.832,20.848,9.841,3.5,18.81,1.4,26.524-5.734.2-.187.383-.395.592-.572a2.005,2.005,0,0,1,2.942-.032,1.949,1.949,0,0,1-.087,2.929c-2.275,1.891-4.624,3.705-7.048,5.4a2.072,2.072,0,0,0-1.184,2c.085,2.421.055,4.847.012,7.27-.015.784.233,1.085,1.021,1.274q6.988,1.687,13.948,3.5A24.116,24.116,0,0,1,98.6,125.835c.024,3.978-.033,7.958.027,11.936a2.815,2.815,0,0,1-1.414,2.736ZM63.161,6.035v1.76q0,8.3,0,16.6a8.256,8.256,0,0,1-.036,1.232,2,2,0,0,1-2.181,1.824,1.931,1.931,0,0,1-1.884-1.975c-.03-.409-.013-.823-.013-1.234,0-6.036.015-12.072-.03-18.108,0-.467-.337-1.256-.66-1.339a37.591,37.591,0,0,0-4.008-.628c-.03.656-.07,1.146-.071,1.635-.006,3.064,0,6.127,0,9.191,0,1.235.035,2.471-.034,3.7a2.017,2.017,0,0,1-1.975,2.05,2.058,2.058,0,0,1-2.088-2.086c-.035-.409-.02-.823-.021-1.234q0-5.83,0-11.66c0-.487-.047-.974-.078-1.594-1.222.166-2.294.376-3.375.441-1.049.063-1.351.5-1.34,1.548.055,5.075.026,10.151.024,15.226,0,1.372.037,2.745-.023,4.115a1.874,1.874,0,0,1-1.9,1.946,1.928,1.928,0,0,1-2.135-1.709,6.286,6.286,0,0,1-.055-1.366q0-8.3,0-16.6V6.032c-1.408.661-2.584,1.238-3.783,1.764a1.46,1.46,0,0,0-.956,1.584c.054,2.468.031,4.938.015,7.407-.01,1.6-.786,2.548-2.045,2.563-1.285.016-2.051-.9-2.063-2.511-.013-1.764,0-3.528,0-5.368-2.076,1.166-5.625,5.25-6.781,7.747.471.522.97,1.055,1.447,1.607,1.13,1.3,1.033,2.422-.312,3.518-.767.625-1.551,1.228-2.373,1.877,3.1,4.024,6.1,7.936,9.116,11.843.8,1.036,1.667,2.057.64,3.414-.743.981-1.665,1-3.456.114q-4.177-2.059-8.353-4.119c-.393-.193-.8-.351-1.277-.555v6.637c1.14,0,2.184-.031,3.226.007a2,2,0,0,1,2.22,2.213c.053,1.461.017,2.926.018,4.389q0,1.652,0,3.3a14.5,14.5,0,0,1,12.857-5.5c1.368.076,2.745.048,4.115-.008,8.8-.363,15.827-3.909,20.686-11.451a2.95,2.95,0,0,1,2.2-1.244,48.378,48.378,0,0,1,5.79,1.124l7.671-9.983c-1.153-1.231-2.572-2.178-3.144-3.495-.755-1.739,1.434-2.51,2.084-3.892a30.8,30.8,0,0,0-6.81-7.792c0,2.076.01,3.837,0,5.6-.011,1.616-.768,2.532-2.052,2.524-1.264-.008-2.047-.955-2.057-2.55-.015-2.514.015-5.03-.025-7.544a1.506,1.506,0,0,0-.463-1.134C66.1,7.4,64.73,6.794,63.161,6.035M43.2,90.627c0,3.567-.161,6.952.04,10.316a8.925,8.925,0,0,0,8.554,8.271,8.824,8.824,0,0,0,9.232-7.459,53.408,53.408,0,0,0,.22-6.967c.024-1.339,0-2.678,0-4.151a31.005,31.005,0,0,1-18.051-.01m22,12.169c-1.929,6.378-5.955,10.3-12.607,10.465-7.04.171-11.322-3.8-13.393-10.453L34.851,103.9c.892,6.507,7.642,14.407,17.8,14.162,10.357-.25,16.347-8.682,16.894-14.17L65.2,102.8M91.2,11.723,81.63,22.216c.7.56,1.229.989,1.763,1.412,1.961,1.556,2.049,2.284.5,4.307-1.333,1.74-2.677,3.47-4.006,5.213-.189.248-.318.541-.667,1.145l13.66-6.748c-.967-.762-1.753-1.378-2.535-2C88.34,23.959,88.5,22.454,90.8,21.3c2.509-1.261,5.022-2.513,7.684-3.843L91.2,11.723M22.345,47.834a5.842,5.842,0,0,0-5.959,2.815,6.191,6.191,0,0,0,.291,6.943,5.578,5.578,0,0,0,5.668,2.333ZM82.076,60.119a6.1,6.1,0,0,0,6.2-3.438,5.837,5.837,0,0,0-.7-6.657,5.748,5.748,0,0,0-5.5-2.27ZM83.36,36.846,74.432,41.24c1.079,2.933,2.117,5.751,3.155,8.569a21.326,21.326,0,0,0,.307-3.969c.052-1.568.729-2.232,2.281-2.281,1.036-.033,2.072-.006,3.186-.006Z" transform="translate(0 0)" fill="#2194e5"/>
        <path id="Trazado_196861" data-name="Trazado 196861" d="M51.124,83.818a6.524,6.524,0,0,1-6.5-5.977,2.163,2.163,0,0,1,1.762-2.523,2.061,2.061,0,0,1,2.325,1.949q.42,2.358,2.305,2.429c1.327.05,2.135-.726,2.477-2.38.292-1.413,1.127-2.142,2.293-2,1.218.145,1.877,1.128,1.762,2.625a6.439,6.439,0,0,1-6.42,5.88" transform="translate(-10.466 -17.665)" fill="#2194e5"/>
        <path id="Trazado_196862" data-name="Trazado 196862" d="M81.332,83.819a6.452,6.452,0,0,1-6.438-6.156,2.043,2.043,0,1,1,4.054-.476c.394,1.809,1.146,2.563,2.5,2.51,1.287-.051,1.974-.814,2.315-2.569a2.046,2.046,0,0,1,2.315-1.809,2.142,2.142,0,0,1,1.767,2.39,6.52,6.52,0,0,1-6.516,6.11" transform="translate(-17.571 -17.665)" fill="#2194e5"/>
        <path id="Trazado_196863" data-name="Trazado 196863" d="M65.667,99.162a10.577,10.577,0,0,1,7.348,2.853c1.083,1,1.218,2.215.388,3.127s-1.922.9-3.049.006c-3.176-2.533-6.181-2.543-9.3-.031-1.172.944-2.334.927-3.144-.046a2.09,2.09,0,0,1,.423-3.023,10.559,10.559,0,0,1,7.335-2.887" transform="translate(-13.475 -23.265)" fill="#2194e5"/>
        <path id="Trazado_196864" data-name="Trazado 196864" d="M65.582,36.664a10.47,10.47,0,0,1,.012-1.5,1.883,1.883,0,0,1,2.052-1.783,1.82,1.82,0,0,1,1.932,1.753,17.917,17.917,0,0,1,0,3.28,2,2,0,0,1-3.98.031,13.346,13.346,0,0,1-.014-1.776h-.006" transform="translate(-15.381 -7.831)" fill="#2194e5"/>
        <path id="Trazado_196865" data-name="Trazado 196865" d="M46.451,34.935a10.035,10.035,0,0,1-.015,1.642,2.031,2.031,0,0,1-4.052-.194c-.047-.866-.035-1.737-.01-2.605A2.041,2.041,0,0,1,44.3,31.556,2.063,2.063,0,0,1,46.474,33.7c.028.409,0,.823,0,1.235Z" transform="translate(-9.936 -7.403)" fill="#2194e5"/>
        <path id="Trazado_196866" data-name="Trazado 196866" d="M92.786,34.986c0,.457.025.916-.005,1.372A2.053,2.053,0,0,1,90.8,38.407a2.032,2.032,0,0,1-2.1-1.939,18.881,18.881,0,0,1,0-3.015,2,2,0,0,1,2.116-1.9,2.018,2.018,0,0,1,1.953,2.059c.028.455,0,.915,0,1.372" transform="translate(-20.798 -7.403)" fill="#2194e5"/>
      </g>
    </g>
  </g>
</svg>
