<svg xmlns="http://www.w3.org/2000/svg" xmlns:xlink="http://www.w3.org/1999/xlink" width="70" height="70" viewBox="0 0 70 70">
  <defs>
    <clipPath id="clip-path">
      <rect id="Rectángulo_46464" data-name="Rectángulo 46464" width="48.496" height="48.491" fill="#7f4fc7"/>
    </clipPath>
  </defs>
  <g id="Grupo_155249" data-name="Grupo 155249" transform="translate(-615 -5874)">
    <circle id="Elipse_5730" data-name="Elipse 5730" cx="35" cy="35" r="35" transform="translate(615 5874)" fill="#fff"/>
    <g id="Grupo_154919" data-name="Grupo 154919" transform="translate(626 5885)">
      <g id="Grupo_154918" data-name="Grupo 154918" clip-path="url(#clip-path)">
        <path id="Trazado_196903" data-name="Trazado 196903" d="M14.4,48.491a1.191,1.191,0,0,1-.435-1.075c.015-1.531.006-3.061.006-4.592v-.56H1.1C.19,42.263.012,42.087.011,41.2c0-.174-.006-.347,0-.521A.727.727,0,0,1,.679,39.9a.726.726,0,0,1,.749.694c.01.062.013.125.021.22H4.023c0-.489-.012-.986.006-1.482.008-.214.01-.5.139-.622a.934.934,0,0,1,.713-.291.9.9,0,0,1,.528.609A13.8,13.8,0,0,1,5.433,40.8h8.518c.018-.4.014-.793.056-1.18A4.383,4.383,0,0,1,16.893,35.8c.654-.266,1.338-.46,2.033-.7a2.721,2.721,0,0,0-1.6-1.723c-1.458-.545-2.948-1.006-4.449-1.511a2.759,2.759,0,0,1-2.589,1.777,2.727,2.727,0,0,1-2.569-1.756c-.254.077-.507.147-.756.229-1.122.369-2.246.732-3.364,1.115a3.081,3.081,0,0,0-2.165,3.009c0,.363.02.728-.012,1.088a.651.651,0,0,1-.68.649.629.629,0,0,1-.711-.611,6.336,6.336,0,0,1,.3-2.845A4.442,4.442,0,0,1,3.09,31.91q2.036-.693,4.085-1.343A.517.517,0,0,0,7.59,30a1.693,1.693,0,0,0-.726-1.663A4.631,4.631,0,0,1,5.017,24.7a36.693,36.693,0,0,1,.005-3.738,4.979,4.979,0,0,1,3.407-4.629,5.076,5.076,0,0,1,5.658,1.256c.134.13.256.272.414.441.076-.105.139-.187.2-.272A4.537,4.537,0,0,1,17.13,15.9c1.331-.439,2.659-.889,4-1.308.313-.1.39-.241.414-.558a1.715,1.715,0,0,0-.746-1.7A4.467,4.467,0,0,1,19,8.918a27.218,27.218,0,0,1,.063-4.487,5.254,5.254,0,0,1,10.38.008,26.562,26.562,0,0,1,.01,4.765,4.609,4.609,0,0,1-2.067,3.415.857.857,0,0,0-.411.809c.021,1.021.006,1.023.958,1.337,1,.33,2,.675,3.01.981a4.928,4.928,0,0,1,3.071,2.362c.131-.174.213-.307.316-.419A5.267,5.267,0,0,1,40,16.291a5.173,5.173,0,0,1,3.479,4.685,32.44,32.44,0,0,1-.108,4.438A4.525,4.525,0,0,1,41.348,28.6a.886.886,0,0,0-.427.849c.031.972.01.972.92,1.273,1.077.356,2.147.731,3.23,1.068a4.542,4.542,0,0,1,3.35,3.613c.009.042.049.077.074.115V37.5c-.215.35-.5.594-.933.448s-.509-.512-.49-.922c.014-.3.014-.6,0-.9a2.856,2.856,0,0,0-1.748-2.705c-1.467-.6-3-1.045-4.519-1.565a2.769,2.769,0,0,1-5.173.01c-1.494.5-2.967.958-4.412,1.492A2.773,2.773,0,0,0,29.577,35.1c.685.233,1.352.427,1.993.683A4.382,4.382,0,0,1,34.5,39.672c.037.37.005.747.005,1.134h8.563a13.888,13.888,0,0,1,.023-1.729.969.969,0,0,1,.487-.65.826.826,0,0,1,.7.2,1.007,1.007,0,0,1,.2.647c.027.511.009,1.025.009,1.541h2.574c.016-.41.106-.746.527-.88s.67.136.911.412v1.42a.919.919,0,0,1-.931.5c-1.42-.018-2.84-.007-4.26-.007-2.761,0-5.522.008-8.283-.009-.4,0-.529.122-.5.509a3.906,3.906,0,0,1-.03.9.626.626,0,0,1-.663.556.646.646,0,0,1-.693-.58,3.129,3.129,0,0,1-.026-.519c-.011-1.136.03-2.275-.042-3.407A2.723,2.723,0,0,0,31.3,37.224c-1.459-.575-2.968-1.025-4.471-1.534a2.757,2.757,0,0,1-5.158.016c-1.365.449-2.7.882-4.025,1.325A3.061,3.061,0,0,0,15.4,40.078c-.021,2.225-.006,4.45,0,6.675a2.47,2.47,0,0,0,.031.283h2.553c.006-.126.014-.219.014-.312,0-1.247,0-2.493,0-3.74a.7.7,0,0,1,.7-.782.716.716,0,0,1,.716.773c.011.284,0,.568,0,.852,0,1.068,0,2.136,0,3.215h9.668c0-1.351,0-2.673,0-4,0-.523.267-.833.692-.845.448-.012.723.3.725.852,0,1.168,0,2.336,0,3.5v.482h2.566c.031-.168.01-.353.092-.435.186-.186.414-.428.641-.447a.844.844,0,0,1,.631.377,2.022,2.022,0,0,1-.337,1.956Zm7.242-32.6c-1.482.5-2.986.962-4.452,1.524a2.9,2.9,0,0,0-1.763,2.588c.075,1.415.107,2.832.155,4.248.006.2,0,.394,0,.6H18.92a5.385,5.385,0,0,1,5.133-5.046,5.164,5.164,0,0,1,3.324,1.025,5.373,5.373,0,0,1,2.188,4.024h3.328a.8.8,0,0,0,.043-.156q.071-2.384.135-4.768a1.705,1.705,0,0,0-.063-.466,3.048,3.048,0,0,0-2.069-2.214c-.714-.247-1.436-.47-2.154-.706-.653-.214-1.305-.43-1.953-.643a2.782,2.782,0,0,1-5.185-.008M20.334,6.82l.04,0c0,.552-.013,1.1,0,1.656a3.882,3.882,0,0,0,3.477,3.742,3.76,3.76,0,0,0,4.175-3.141,23.01,23.01,0,0,0,.077-4.1,3.86,3.86,0,0,0-7.639-.414,19.918,19.918,0,0,0-.132,2.26m7.839,19.835-.043,0c0-.567.016-1.136,0-1.7a3.9,3.9,0,0,0-3.609-3.72,3.773,3.773,0,0,0-4.04,3.152,23.563,23.563,0,0,0-.079,4.1,3.862,3.862,0,0,0,7.64.429,19.912,19.912,0,0,0,.134-2.26M6.353,22.818l.074,0c0,.6-.031,1.2.005,1.8a3.859,3.859,0,0,0,7.7.046,34.062,34.062,0,0,0,0-3.686,3.851,3.851,0,0,0-7.58-.648,17.414,17.414,0,0,0-.2,2.488m35.8.006-.072,0c0-.6.031-1.2-.006-1.8a3.86,3.86,0,0,0-7.7-.045,33.746,33.746,0,0,0,0,3.64,3.85,3.85,0,0,0,7.588.647,17.294,17.294,0,0,0,.192-2.441M28.2,34.63a4.712,4.712,0,0,1,3.362-2.906c.972-.318,1.943-.64,2.917-.955,1.032-.335,1.045-.333,1.019-1.429a.834.834,0,0,0-.239-.59,5.754,5.754,0,0,1-1.845-2.176c-.052-.109-.184-.254-.281-.255-1.177-.018-2.354-.011-3.576-.011,0,.566-.006,1.083,0,1.6a5.336,5.336,0,0,1-2.335,4.655.572.572,0,0,0-.231.315c-.208,1.25-.077,1.436,1.209,1.753m-7.908.008c1.279-.333,1.287-.333,1.224-1.625a.668.668,0,0,0-.239-.45,5.345,5.345,0,0,1-2.327-4.614c0-.532,0-1.064,0-1.643-1.21,0-2.373-.009-3.534.014-.118,0-.25.181-.345.3a8.388,8.388,0,0,1-1.335,1.684,1.728,1.728,0,0,0-.75,1.75.466.466,0,0,0,.373.5c1.185.375,2.353.809,3.546,1.154a4.807,4.807,0,0,1,3.386,2.934M25.511,33.4H22.989A13.094,13.094,0,0,0,23,35.018a1.268,1.268,0,0,0,2.494.023,13.072,13.072,0,0,0,.015-1.638M22.926,13.6a15.833,15.833,0,0,0,.1,1.7,1.265,1.265,0,0,0,2.44.065,14.8,14.8,0,0,0,.118-1.766ZM11.57,29.584H9c0,.478-.02.965,0,1.45a1.282,1.282,0,0,0,2.558,0c.026-.485.005-.973.005-1.451m25.377,0c0,.5-.041,1.053.011,1.594a1.282,1.282,0,0,0,2.522-.006c.052-.542.011-1.092.011-1.588Z" transform="translate(0 0)" fill="#7f4fc7"/>
      </g>
    </g>
  </g>
</svg>
