<svg xmlns="http://www.w3.org/2000/svg" xmlns:xlink="http://www.w3.org/1999/xlink" width="70" height="70" viewBox="0 0 70 70">
  <defs>
    <clipPath id="clip-path">
      <rect id="Rectángulo_46477" data-name="Rectángulo 46477" width="49.338" height="49.215" fill="#7f4fc7"/>
    </clipPath>
  </defs>
  <g id="Grupo_154935" data-name="Grupo 154935" transform="translate(-248 -6382)">
    <circle id="Elipse_5733" data-name="Elipse 5733" cx="35" cy="35" r="35" transform="translate(248 6382)" fill="#fff"/>
    <g id="Grupo_154925" data-name="Grupo 154925" transform="translate(258 6392)">
      <g id="Grupo_154924" data-name="Grupo 154924" clip-path="url(#clip-path)">
        <path id="Trazado_196919" data-name="Trazado 196919" d="M4.8,21.319c-.921-.913-1.817-1.807-2.72-2.694-.311-.306-.545-.627-.341-1.086a.916.916,0,0,1,.977-.5c3.134.006,6.267,0,9.4,0,.771,0,1.051.281,1.051,1.054,0,3.134,0,6.268,0,9.4a.915.915,0,0,1-.5.975c-.46.2-.78-.034-1.086-.344-.746-.756-1.5-1.5-2.252-2.253-.118-.118-.245-.226-.493-.454-.628,1.293-1.311,2.48-1.8,3.742A18.907,18.907,0,0,0,15.9,52.7c.889.465.986.766.534,1.672-.518,1.041-1.033,2.084-1.557,3.122-.326.646-.714.791-1.333.461A24.147,24.147,0,0,1,.342,39.759,23.851,23.851,0,0,1,4.62,21.6c.049-.069.09-.143.178-.285M4.444,18.71c.616.6,1.135,1.091,1.643,1.595.822.815.82.966.133,1.9A22.462,22.462,0,0,0,1.8,38.393,22.578,22.578,0,0,0,9.155,52.947a21.837,21.837,0,0,0,4.535,3.226l1.091-2.189c-.182-.11-.326-.2-.471-.284A20.571,20.571,0,0,1,7.693,24.38c.889-1.3,1.142-1.329,2.253-.217L11.5,25.714v-7Z" transform="translate(0 -11.295)" fill="#7f4fc7"/>
        <path id="Trazado_196920" data-name="Trazado 196920" d="M108.79,44.154c.919.918,1.8,1.8,2.688,2.683.306.3.564.615.376,1.081-.2.484-.605.533-1.06.532-3.082-.007-6.164,0-9.246,0-.878,0-1.135-.255-1.136-1.125q0-4.65,0-9.3c0-.44.064-.825.52-1.017s.779.056,1.082.364c.852.864,1.712,1.722,2.62,2.635.148-.217.274-.388.386-.569a18.933,18.933,0,0,0-7.391-26.676c-.8-.418-.914-.747-.511-1.559.531-1.073,1.06-2.146,1.6-3.215.322-.639.713-.779,1.336-.445,7.621,4.082,12.139,10.386,13.293,18.962a23.933,23.933,0,0,1-4.335,17.312c-.067.1-.127.2-.218.34M98.8,11.5c.2.122.365.233.539.336a20.556,20.556,0,0,1,6.288,29.641c-.575.805-1.007.85-1.693.149-.59-.6-1.162-1.224-1.742-1.837l-.1.1v6.886h6.887l.076-.106c-.553-.526-1.112-1.046-1.657-1.58-.7-.687-.705-.907-.116-1.7a22.3,22.3,0,0,0,4.431-16.674,22.586,22.586,0,0,0-11.28-17.1c-.169-.1-.351-.182-.554-.287L98.8,11.5" transform="translate(-64.231 -4.882)" fill="#7f4fc7"/>
        <path id="Trazado_196921" data-name="Trazado 196921" d="M43.942,45.649q0-5.214,0-10.427A3.3,3.3,0,0,1,47.5,31.67c3.372,0,6.744.005,10.116-.007a1.412,1.412,0,0,1,1.091.448q2.254,2.285,4.538,4.54a1.363,1.363,0,0,1,.427,1.048q-.013,9.22-.007,18.439a3.292,3.292,0,0,1-3.475,3.482q-6.367.006-12.735,0a3.3,3.3,0,0,1-3.514-3.494q0-5.239,0-10.478m13.15-12.335h-.565q-4.52,0-9.04,0a1.684,1.684,0,0,0-1.9,1.89q0,10.429,0,20.858a1.692,1.692,0,0,0,1.928,1.915H60.047c1.368,0,1.977-.606,1.977-1.969q0-8.58,0-17.159v-.6c-1.328,0-2.607,0-3.886,0-.765,0-1.043-.285-1.045-1.06,0-1.266,0-2.531,0-3.872m1.666,3.242H60.63l-1.871-1.925Z" transform="translate(-29.131 -20.991)" fill="#7f4fc7"/>
        <path id="Trazado_196922" data-name="Trazado 196922" d="M56.761,4.708c.075,1.057-.124,1.279-.889,1.419q-1.534.282-3.058.622c-.679.15-1.017,0-1.217-.645q-.574-1.859-1.118-3.727a.78.78,0,0,1,.591-1.1Q53.24.791,55.43.392a.787.787,0,0,1,.936.783c.151,1.272.285,2.547.395,3.533m-4.5-2.1.718,2.375,2.111-.44L54.812,2.1l-2.555.516" transform="translate(-33.428 -0.25)" fill="#7f4fc7"/>
        <path id="Trazado_196923" data-name="Trazado 196923" d="M77.5,0c1.45.3,2.9.593,4.349.92a.752.752,0,0,1,.612,1.01c-.352,1.336-.733,2.664-1.131,3.987a.8.8,0,0,1-1.024.536c-1.123-.206-2.245-.415-3.368-.62a.8.8,0,0,1-.762-.917Q76.329,2.9,76.53.884c.053-.534.41-.8.971-.884m.593,1.8-.214,2.469L80,4.644l.667-2.37L78.095,1.8" transform="translate(-50.5)" fill="#7f4fc7"/>
        <path id="Trazado_196924" data-name="Trazado 196924" d="M77.157,128.939c-.073-1.034.137-1.276.853-1.409q1.559-.289,3.108-.631c.671-.148,1.008.007,1.21.661q.566,1.834,1.1,3.677c.174.6-.01,1.013-.6,1.145-1.446.326-2.9.613-4.361.878-.5.092-.858-.243-.924-.8-.151-1.272-.285-2.547-.394-3.524m1.675.163.27,2.458,2.561-.522-.721-2.364-2.11.429" transform="translate(-51.142 -84.094)" fill="#7f4fc7"/>
        <path id="Trazado_196925" data-name="Trazado 196925" d="M57.767,129.061c-.1,1.1-.2,2.31-.318,3.517-.059.622-.416.962-1.024.862-1.428-.236-2.852-.506-4.27-.8a.78.78,0,0,1-.641-1.081c.345-1.285.715-2.563,1.094-3.838a.816.816,0,0,1,1.064-.619l3.368.621c.6.11.783.418.727,1.34m-1.673.225-2.125-.383L53.3,131.28l2.565.471.225-2.464" transform="translate(-34.12 -84.243)" fill="#7f4fc7"/>
        <rect id="Rectángulo_46467" data-name="Rectángulo 46467" width="8.172" height="1.575" transform="translate(19.779 18.93)" fill="#7f4fc7"/>
        <rect id="Rectángulo_46468" data-name="Rectángulo 46468" width="8.154" height="1.582" transform="translate(18.123 25.503)" fill="#7f4fc7"/>
        <rect id="Rectángulo_46469" data-name="Rectángulo 46469" width="6.511" height="1.585" transform="translate(24.714 22.223)" fill="#7f4fc7"/>
        <rect id="Rectángulo_46470" data-name="Rectángulo 46470" width="6.51" height="1.583" transform="translate(18.123 28.791)" fill="#7f4fc7"/>
        <rect id="Rectángulo_46471" data-name="Rectángulo 46471" width="4.867" height="1.581" transform="translate(18.14 22.225)" fill="#7f4fc7"/>
        <rect id="Rectángulo_46472" data-name="Rectángulo 46472" width="3.223" height="1.582" transform="translate(18.122 13.994)" fill="#7f4fc7"/>
        <rect id="Rectángulo_46473" data-name="Rectángulo 46473" width="3.232" height="1.581" transform="translate(27.985 25.513)" fill="#7f4fc7"/>
        <rect id="Rectángulo_46474" data-name="Rectángulo 46474" width="3.135" height="1.596" transform="translate(26.445 28.794)" fill="#7f4fc7"/>
        <rect id="Rectángulo_46475" data-name="Rectángulo 46475" width="3.132" height="1.593" transform="translate(27.268 32.084)" fill="#7f4fc7"/>
        <rect id="Rectángulo_46476" data-name="Rectángulo 46476" width="1.598" height="1.562" transform="translate(29.64 18.943)" fill="#7f4fc7"/>
      </g>
    </g>
  </g>
</svg>
