<svg xmlns="http://www.w3.org/2000/svg" xmlns:xlink="http://www.w3.org/1999/xlink" width="70" height="70" viewBox="0 0 70 70">
  <defs>
    <clipPath id="clip-path">
      <rect id="Rectángulo_46480" data-name="Rectángulo 46480" width="44.879" height="38.184" fill="#7f4fc7" stroke="#7f4fc7" stroke-width="0.5"/>
    </clipPath>
  </defs>
  <g id="Grupo_154932" data-name="Grupo 154932" transform="translate(-248 -6732)">
    <circle id="Elipse_5736" data-name="Elipse 5736" cx="35" cy="35" r="35" transform="translate(248 6732)" fill="#fff"/>
    <g id="Grupo_154931" data-name="Grupo 154931" transform="translate(261 6748)">
      <g id="Grupo_154930" data-name="Grupo 154930" clip-path="url(#clip-path)">
        <path id="Trazado_196948" data-name="Trazado 196948" d="M111.382,49.63a4.827,4.827,0,0,1-.6,1.083,2.449,2.449,0,0,1-.9.4c-.147.057-.3.091-.511.151.118.665.23,1.319.35,1.971.1.531.2,1.06.306,1.59.117.607.018.726-.6.737-.128,0-.256.014-.442.025.053.732.12,1.44.148,2.15a4.6,4.6,0,0,1-.054,1.3,1.73,1.73,0,0,1-1.839,1.246,1.789,1.789,0,0,1-1.634-1.665q-.105-1.42-.21-2.84c0-.025-.027-.049-.1-.179-.05.571-.1,1.046-.131,1.521-.038.5-.064.991-.1,1.486a1.8,1.8,0,0,1-1.849,1.681,1.767,1.767,0,0,1-1.72-1.8c.013-.685.089-1.369.134-2.054.018-.273.032-.545.049-.841-.177-.01-.3-.021-.433-.024-.619-.01-.72-.13-.607-.736.223-1.189.446-2.377.678-3.608-.224-.058-.429-.118-.638-.165a1.511,1.511,0,0,1-1.357-1.69,13.212,13.212,0,0,1,.33-2.2c.235-1.067.5-2.13.807-3.178a3.576,3.576,0,0,1,2.977-2.8,5.429,5.429,0,0,1,1.115.094,3.682,3.682,0,0,0,1.412.018,3.22,3.22,0,0,1,3.644,1.4,11.041,11.041,0,0,1,.876,2.271c.329,1.223.557,2.473.831,3.711a.679.679,0,0,0,.077.152Zm-10.036,5.191c.157.02.255.04.355.045.7.031.717.061.662.736-.073.9-.146,1.805-.194,2.709a1.094,1.094,0,0,0,1.039,1.26,1.122,1.122,0,0,0,1.173-1.19q.084-1.356.187-2.71c.047-.629.252-.816.844-.793.447.018.624.208.672.791.076.932.134,1.865.2,2.8a1.109,1.109,0,1,0,2.213-.071c0-.117-.011-.234-.02-.35q-.107-1.332-.215-2.664c-.027-.322.094-.506.439-.5.186,0,.372,0,.575,0a2.091,2.091,0,0,0,0-.316c-.242-1.305-.489-2.609-.732-3.914q-.461-2.474-.914-4.949c-.041-.228-.09-.5.256-.543.32-.042.377.192.423.438q.26,1.4.532,2.794c.138.711.281,1.42.421,2.124,1.176-.095,1.563-.491,1.351-1.574-.323-1.657-.726-3.3-1.148-4.936a2.955,2.955,0,0,0-.645-1.176,2.344,2.344,0,0,0-2.654-.84,3.05,3.05,0,0,1-1.812-.022,2.064,2.064,0,0,0-.851-.081,2.881,2.881,0,0,0-2.374,2.239c-.3,1.006-.55,2.027-.788,3.049-.149.638-.252,1.289-.34,1.939-.084.619.14,1.1.541,1.219.276.081.565.117.894.183.167-.888.33-1.744.49-2.6.15-.8.281-1.61.459-2.407a.564.564,0,0,1,.374-.372c.279-.016.329.228.291.473-.009.058-.01.117-.021.174q-.631,3.376-1.264,6.752c-.141.755-.275,1.512-.415,2.288" transform="translate(-66.503 -27.556)" fill="#7f4fc7"/>
        <path id="Trazado_196948_-_Contorno" data-name="Trazado 196948 - Contorno" d="M107.421,60.543a1.8,1.8,0,0,1-.214-.013,2.039,2.039,0,0,1-1.853-1.894l-.025-.344c-.008.111-.015.223-.024.333a2.048,2.048,0,0,1-2.111,1.911,2.009,2.009,0,0,1-1.957-2.054c.009-.471.047-.945.084-1.4.018-.217.036-.442.05-.662.013-.188.023-.375.034-.573v-.017c-.062,0-.119-.007-.174-.008a.725.725,0,0,1-.848-1.032c.195-1.04.39-2.08.591-3.148l.044-.233c-.139-.038-.271-.073-.4-.1a1.748,1.748,0,0,1-1.553-1.946,13.468,13.468,0,0,1,.336-2.244c.255-1.158.52-2.2.812-3.2a3.807,3.807,0,0,1,3.177-2.972,1.458,1.458,0,0,1,.233-.018,3.416,3.416,0,0,1,.547.059,3.85,3.85,0,0,0,.389.05c.142.008.286.026.426.043a4.366,4.366,0,0,0,.524.045,1.006,1.006,0,0,0,.358-.054,2.683,2.683,0,0,1,.959-.17,3.563,3.563,0,0,1,3,1.691,11.245,11.245,0,0,1,.9,2.322c.228.849.411,1.722.587,2.566.079.377.161.767.245,1.149,0,.008.013.023.02.035s.025.041.036.062l.028.054v.913l-.029.055c-.055.1-.1.213-.157.328a2.916,2.916,0,0,1-.482.809,1.611,1.611,0,0,1-.734.375c-.092.029-.178.056-.257.086a3.1,3.1,0,0,1-.316.1l.065.37c.079.452.161.919.245,1.376.066.361.138.728.207,1.082q.049.253.1.506a.934.934,0,0,1-.075.8.966.966,0,0,1-.768.239c-.056,0-.113,0-.178.008q.015.2.031.4c.041.518.079,1.008.1,1.511l.005.125a4.276,4.276,0,0,1-.067,1.245A1.991,1.991,0,0,1,107.421,60.543ZM105.3,55.126l.2.344c.03.05.051.083.066.106a.37.37,0,0,1,.073.181q.069.915.135,1.829.037.506.074,1.012a1.532,1.532,0,0,0,1.414,1.435,1.3,1.3,0,0,0,.154.009,1.479,1.479,0,0,0,1.412-1.069,3.913,3.913,0,0,0,.052-1.1l-.005-.127c-.02-.494-.058-.978-.1-1.492-.017-.215-.034-.432-.05-.65l-.018-.253.253-.015.17-.011c.1-.007.192-.013.282-.015.315-.006.377-.043.389-.054s.031-.081-.028-.386q-.049-.253-.1-.5c-.07-.356-.141-.724-.208-1.088-.084-.458-.166-.926-.246-1.379q-.052-.3-.1-.593l-.039-.221.216-.063.192-.053a3.039,3.039,0,0,0,.3-.091c.095-.037.194-.068.289-.1a1.288,1.288,0,0,0,.518-.24,2.516,2.516,0,0,0,.393-.675c.045-.1.091-.2.141-.3v-.66a.546.546,0,0,1-.071-.166c-.086-.387-.168-.781-.248-1.162-.175-.837-.356-1.7-.581-2.538a10.745,10.745,0,0,0-.855-2.219,3.075,3.075,0,0,0-2.553-1.424,2.186,2.186,0,0,0-.781.138,1.489,1.489,0,0,1-.536.087,4.8,4.8,0,0,1-.585-.048c-.138-.017-.268-.033-.393-.04a4.284,4.284,0,0,1-.441-.056,3,3,0,0,0-.467-.052.967.967,0,0,0-.154.011,3.3,3.3,0,0,0-2.776,2.619c-.288.981-.551,2.015-.8,3.162a13.012,13.012,0,0,0-.324,2.16,1.26,1.26,0,0,0,1.162,1.434c.149.033.292.072.444.113l.2.054.226.059-.13.69c-.2,1.068-.4,2.108-.591,3.147-.059.314-.03.377-.024.387s.064.048.389.053c.09,0,.176.007.277.014l.166.01.25.014-.014.25c-.005.09-.01.178-.015.264-.011.2-.021.388-.034.579-.015.224-.033.45-.051.669-.037.451-.074.917-.083,1.372a1.517,1.517,0,0,0,1.483,1.546,1.565,1.565,0,0,0,1.587-1.45c.018-.236.033-.476.048-.708.016-.255.033-.518.054-.778.025-.33.055-.666.087-1.022.014-.16.029-.327.045-.5l.037-.429c-.162.044-.232.173-.26.542-.072.953-.132,1.839-.186,2.707a1.368,1.368,0,0,1-1.365,1.426c-.023,0-.045,0-.068,0a1.3,1.3,0,0,1-.922-.416,1.505,1.505,0,0,1-.356-1.107c.049-.92.123-1.833.194-2.716a2.132,2.132,0,0,0,.011-.421,2.18,2.18,0,0,0-.435-.045,2.292,2.292,0,0,1-.233-.027l-.142-.02-.261-.034.047-.259q.064-.351.126-.7c.1-.547.191-1.064.29-1.592q.381-2.042.764-4.084.25-1.334.5-2.669c0-.021.006-.047.009-.074s.006-.062.011-.093a.391.391,0,0,0,0-.184h-.015a.413.413,0,0,0-.156.177c-.126.566-.231,1.149-.332,1.713-.041.228-.082.457-.125.684-.109.585-.22,1.171-.333,1.766l-.2,1.082-.248-.05c-.1-.021-.2-.039-.3-.056a5.639,5.639,0,0,1-.614-.133,1.258,1.258,0,0,1-.718-1.492c.073-.539.179-1.249.345-1.962.211-.906.469-1.979.792-3.063a3.11,3.11,0,0,1,2.573-2.415,2.277,2.277,0,0,1,.958.086,2.756,2.756,0,0,0,1.666.026,2.546,2.546,0,0,1,2.92.911,3.208,3.208,0,0,1,.7,1.28c.375,1.453.805,3.177,1.151,4.95a1.586,1.586,0,0,1-.166,1.314,1.832,1.832,0,0,1-1.41.558l-.222.018-.043-.218q-.069-.35-.14-.7c-.093-.466-.189-.948-.281-1.423-.211-1.088-.38-1.977-.533-2.8a.545.545,0,0,0-.072-.235.083.083,0,0,0-.034,0l-.039,0a.2.2,0,0,0-.064.016.788.788,0,0,0,.021.234c.312,1.717.645,3.508.914,4.947q.167.9.336,1.793.2,1.06.4,2.121a1.047,1.047,0,0,1,.009.236c0,.037,0,.078,0,.126v.25h-.835a.238.238,0,0,0-.154.035.3.3,0,0,0-.027.2c.058.7.115,1.41.17,2.1l.048.6c.009.109.018.221.019.336a1.365,1.365,0,0,1-1.31,1.458h-.052a1.366,1.366,0,0,1-1.35-1.369q-.023-.335-.045-.671c-.047-.7-.095-1.417-.152-2.123-.043-.523-.17-.551-.432-.561Zm.022-.5.1,0c.73.029.869.507.911,1.02.058.71.106,1.432.153,2.13q.022.335.045.67a.86.86,0,1,0,1.713-.051c0-.1-.009-.2-.017-.3l-.048-.6c-.055-.687-.111-1.4-.169-2.1a.73.73,0,0,1,.157-.577.677.677,0,0,1,.522-.2h.339a.179.179,0,0,0,0-.021q-.2-1.06-.4-2.12-.168-.9-.336-1.794c-.268-1.44-.6-3.231-.914-4.95a.78.78,0,0,1,.067-.62.563.563,0,0,1,.4-.215.8.8,0,0,1,.1-.007c.477,0,.558.438.6.648.152.818.321,1.705.532,2.792.092.474.188.955.281,1.421l.1.478a1.206,1.206,0,0,0,.831-.339,1.156,1.156,0,0,0,.074-.916c-.343-1.76-.771-3.475-1.145-4.921a2.692,2.692,0,0,0-.59-1.073,2.253,2.253,0,0,0-1.688-.891,2.213,2.213,0,0,0-.7.122,2.79,2.79,0,0,1-.888.141,4.015,4.015,0,0,1-1.07-.159,1.808,1.808,0,0,0-.744-.075,2.614,2.614,0,0,0-2.175,2.064c-.318,1.071-.575,2.135-.784,3.034-.161.693-.264,1.388-.336,1.916-.065.483.081.863.364.945a5.274,5.274,0,0,0,.561.12l.063.011.111-.589c.113-.6.223-1.18.332-1.765.042-.227.083-.454.124-.681.1-.569.208-1.158.336-1.734a.787.787,0,0,1,.6-.567h.038a.5.5,0,0,1,.393.17.719.719,0,0,1,.12.592c0,.02,0,.041-.007.062,0,.036-.007.077-.015.12q-.249,1.334-.5,2.668-.382,2.042-.764,4.083c-.1.526-.191,1.042-.289,1.588l-.08.442.074.007c.364.016.627.028.789.212s.139.439.11.794c-.071.88-.145,1.789-.193,2.7a1.013,1.013,0,0,0,.227.744.8.8,0,0,0,.573.253h.047c.505,0,.829-.358.866-.957.054-.87.115-1.757.187-2.713C104.374,54.923,104.664,54.626,105.321,54.626Z" transform="translate(-66.503 -27.556)" fill="#7f4fc7"/>
        <path id="Trazado_196949" data-name="Trazado 196949" d="M54.377,58.905q-.1,1.482-.206,2.963a1.833,1.833,0,0,1-1.626,1.779,1.776,1.776,0,0,1-1.88-1.257,2.269,2.269,0,0,1-.067-.778c.189-2.665.39-5.329.588-7.993.01-.13.015-.26.03-.518-.1.193-.153.278-.2.368a1.6,1.6,0,0,1-3.012-1.045c.5-1.723.989-3.45,1.57-5.145a4.462,4.462,0,0,1,4.215-2.952c3.112-.02,6.224-.011,9.335,0a1.563,1.563,0,1,1-.024,3.121c-1.651,0-3.3.012-4.952-.007-.372,0-.466.12-.465.475.009,1.811-.061,3.625,0,5.434.065,1.866.251,3.728.388,5.592.067.917.16,1.833.209,2.751a1.792,1.792,0,1,1-3.576.244c-.086-.945-.155-1.891-.234-2.837a1.261,1.261,0,0,0-.049-.2l-.051.006m4.041-13.893H53.9a3.814,3.814,0,0,0-3.685,2.539c-.559,1.657-1.038,3.341-1.535,5.018a.906.906,0,1,0,1.756.43c.349-1.355.678-2.716,1.011-4.076.058-.236.107-.491.419-.456s.309.294.294.538c-.062,1.006-.113,2.012-.184,3.017-.157,2.214-.327,4.427-.487,6.641-.076,1.049-.167,2.1-.207,3.147A1.071,1.071,0,0,0,52.671,62.9c.508-.137.781-.57.827-1.254q.219-3.234.454-6.468c.022-.314.11-.606.5-.593.352.011.427.276.449.584q.207,2.972.429,5.942c.016.218.043.436.063.654.069.768.527,1.223,1.183,1.172a1.151,1.151,0,0,0,1.021-1.371c-.2-2.635-.456-5.269-.573-7.908-.092-2.071-.011-4.149-.005-6.224,0-.612.061-.667.686-.667,1.8,0,3.595,0,5.392,0a.871.871,0,0,0,.946-1.1c-.123-.435-.441-.648-1.015-.65-1.534,0-3.069,0-4.6,0" transform="translate(-32.108 -29.676)" fill="#7f4fc7"/>
        <path id="Trazado_196949_-_Contorno" data-name="Trazado 196949 - Contorno" d="M52.348,63.91a2.04,2.04,0,0,1-1.923-1.45,2.483,2.483,0,0,1-.076-.865c.142-2,.293-4.03.439-5.995l.111-1.5a1.781,1.781,0,0,1-1.336.6,1.955,1.955,0,0,1-.664-.119,1.831,1.831,0,0,1-1.13-2.228l.109-.378c.454-1.574.924-3.2,1.464-4.778a4.7,4.7,0,0,1,4.45-3.121c1.259-.008,2.625-.012,4.177-.012,1.527,0,3.079,0,4.58.008h.58a1.927,1.927,0,0,1,1.383.56,1.766,1.766,0,0,1,.51,1.27,1.812,1.812,0,0,1-1.917,1.79l-.647,0q-.951,0-1.9,0c-.927,0-1.692,0-2.407-.012h-.016c-.14,0-.172.024-.172.024s-.025.034-.024.2c0,.673,0,1.357-.012,2.019-.013,1.118-.026,2.275.014,3.407.046,1.321.155,2.665.26,3.965.043.53.087,1.078.127,1.617.025.339.053.683.081,1.016.048.569.1,1.158.128,1.74a2.052,2.052,0,0,1-1.947,2.212c-.042,0-.084,0-.126,0a2.057,2.057,0,0,1-2-1.935q-.013-.146-.026-.292l-.015.22a2.073,2.073,0,0,1-1.844,2.01A1.845,1.845,0,0,1,52.348,63.91ZM51,52.984l.47.132c0,.088-.009.162-.012.225-.007.124-.011.211-.018.3q-.074,1-.148,2c-.146,1.964-.3,4-.439,5.993a2.018,2.018,0,0,0,.058.69,1.531,1.531,0,0,0,1.443,1.089,1.342,1.342,0,0,0,.166-.01,1.59,1.59,0,0,0,1.408-1.548q.07-1.025.142-2.05l.078-1.12.475-.055.054.212c0,.017.01.035.015.052a.9.9,0,0,1,.041.188q.044.528.085,1.057c.046.583.094,1.186.148,1.778a1.56,1.56,0,0,0,1.5,1.481c.031,0,.063,0,.094,0a1.562,1.562,0,0,0,1.48-1.686c-.031-.574-.08-1.159-.127-1.725-.028-.334-.057-.68-.082-1.021-.039-.538-.084-1.085-.127-1.613-.106-1.305-.215-2.655-.262-3.988-.04-1.144-.027-2.307-.014-3.431.007-.66.015-1.341.012-2.011a.747.747,0,0,1,.17-.555.724.724,0,0,1,.526-.171h.021c.713.008,1.476.012,2.4.012q.95,0,1.9,0l.647,0a1.313,1.313,0,0,0,1.418-1.3,1.27,1.27,0,0,0-.366-.913,1.431,1.431,0,0,0-1.028-.412h-.58c-1.5,0-3.053-.008-4.579-.008-1.551,0-2.916,0-4.174.012a4.2,4.2,0,0,0-3.98,2.783c-.536,1.566-1,3.187-1.457,4.755l-.109.378a1.329,1.329,0,0,0,.82,1.618,1.456,1.456,0,0,0,.495.089,1.361,1.361,0,0,0,1.231-.838c.03-.065.064-.127.111-.213Zm1.362,10.2A1.309,1.309,0,0,1,51.034,61.8c.031-.816.093-1.642.154-2.441q.027-.357.053-.715.1-1.4.207-2.806c.093-1.257.19-2.556.281-3.834.046-.654.085-1.32.122-1.965q.03-.525.062-1.05a.561.561,0,0,0-.014-.259.125.125,0,0,0-.058-.016l-.028,0c-.034,0-.055,0-.113.241l-.161.66c-.276,1.13-.562,2.3-.857,3.446a1.146,1.146,0,0,1-1.1.945,1.246,1.246,0,0,1-.413-.073,1.126,1.126,0,0,1-.724-1.436q.142-.48.284-.961c.394-1.338.8-2.721,1.255-4.066A4.042,4.042,0,0,1,53.9,44.763H61q1.01,0,2.019,0a1.15,1.15,0,0,1,1.255.832,1.063,1.063,0,0,1-.163.95,1.26,1.26,0,0,1-1.022.465c-.677,0-1.394,0-2.322,0H57.7a1.445,1.445,0,0,0-.4.035,1.463,1.463,0,0,0-.032.383c0,.628-.011,1.266-.019,1.884-.02,1.421-.04,2.89.024,4.328.086,1.939.248,3.909.4,5.814.056.683.114,1.39.168,2.085a1.643,1.643,0,0,1-.283,1.118,1.3,1.3,0,0,1-.968.522c-.039,0-.078,0-.116,0a1.371,1.371,0,0,1-1.335-1.4c-.008-.089-.017-.177-.026-.266-.013-.128-.027-.26-.037-.393l-.057-.777c-.124-1.693-.253-3.444-.372-5.167-.024-.346-.1-.348-.207-.352h-.016c-.1,0-.2,0-.222.362l-.062.865c-.131,1.836-.266,3.735-.392,5.6-.069,1.015-.588,1.364-1.011,1.478A1.452,1.452,0,0,1,52.357,63.188Zm-.544-14.973a.745.745,0,0,1,.084,0c.561.063.528.6.515.8q-.032.524-.062,1.048c-.037.646-.076,1.314-.122,1.971-.091,1.279-.187,2.579-.281,3.836q-.1,1.4-.207,2.805-.026.358-.053.716c-.06.794-.122,1.616-.153,2.422a.833.833,0,0,0,.224.617.821.821,0,0,0,.6.248.952.952,0,0,0,.249-.034c.393-.106.6-.443.643-1.03.127-1.868.262-3.768.392-5.6l.062-.865c.049-.683.419-.826.721-.826h.032c.634.02.676.62.69.817.12,1.722.248,3.472.372,5.165l.057.777c.009.125.023.253.035.378.009.091.019.182.027.273.056.626.4.985.915.945a.8.8,0,0,0,.6-.32,1.153,1.153,0,0,0,.187-.783c-.054-.694-.112-1.4-.168-2.083-.157-1.91-.319-3.885-.406-5.833-.064-1.452-.044-2.929-.025-4.357.008-.616.017-1.253.019-1.878,0-.753.169-.916.936-.917H60.77c.928,0,1.643,0,2.32,0a.768.768,0,0,0,.625-.266.574.574,0,0,0,.081-.513c-.068-.242-.209-.466-.775-.467q-1.6-.005-3.2,0H53.906a3.554,3.554,0,0,0-3.451,2.369c-.451,1.336-.856,2.714-1.249,4.047q-.142.481-.284.962a.629.629,0,0,0,.41.822.748.748,0,0,0,.247.045.653.653,0,0,0,.617-.57c.294-1.144.58-2.311.856-3.44l.161-.66C51.267,48.621,51.365,48.215,51.813,48.215Z" transform="translate(-32.108 -29.676)" fill="#7f4fc7"/>
        <path id="Trazado_196950" data-name="Trazado 196950" d="M9.717,65.949l.209,2.86c.137,1.878.291,3.755.405,5.635A1.771,1.771,0,0,1,8.6,76.4a1.84,1.84,0,0,1-1.849-1.831c-.059-.969-.135-1.937-.292-2.909q-.082,1-.164,1.99c-.029.364-.049.728-.084,1.091a1.789,1.789,0,0,1-3.57-.21c.039-.947.137-1.892.207-2.838q.2-2.642.393-5.284a1.175,1.175,0,0,0-.032-.38,1.792,1.792,0,0,1-1.2,1.125A1.578,1.578,0,0,1,.059,65.292c.49-1.769.977-3.546,1.608-5.268A4.326,4.326,0,0,1,5.8,57.1a8.753,8.753,0,0,1,2.223.11,4.353,4.353,0,0,1,3.439,3.141c.49,1.542.945,3.094,1.407,4.645a1.6,1.6,0,1,1-3.015,1.084c-.021-.049-.044-.1-.066-.145l-.069.016M8.8,62.477l.052,0c-.011-.2-.022-.408-.031-.613-.011-.248-.062-.536.292-.577.318-.037.361.227.417.459.318,1.333.631,2.667.958,4a.9.9,0,1,0,1.729-.484c-.477-1.607-.932-3.222-1.456-4.814a3.536,3.536,0,0,0-2.737-2.515,9.05,9.05,0,0,0-2.479-.1A3.536,3.536,0,0,0,2.31,60.258c-.6,1.686-1.065,3.423-1.569,5.144a.849.849,0,0,0,.6,1.064A.908.908,0,0,0,2.532,65.7c.337-1.358.662-2.719,1-4.079.055-.223.157-.476.423-.369a.625.625,0,0,1,.274.494c0,.6-.07,1.194-.113,1.791q-.388,5.418-.777,10.835A1.152,1.152,0,0,0,4.362,75.7,1.117,1.117,0,0,0,5.535,74.56q.243-3.232.481-6.465c.026-.348,0-.783.509-.751.479.03.44.461.464.809.151,2.141.3,4.282.457,6.422A1.133,1.133,0,0,0,8.6,75.707a1.1,1.1,0,0,0,1.044-1.259c-.049-.991-.131-1.981-.2-2.972q-.319-4.5-.639-9" transform="translate(-0.004 -38.22)" fill="#7f4fc7"/>
        <path id="Trazado_196950_-_Contorno" data-name="Trazado 196950 - Contorno" d="M4.454,76.655c-.04,0-.08,0-.119,0a2.042,2.042,0,0,1-1.942-2.126c.027-.654.082-1.314.136-1.953.025-.293.05-.6.072-.894.117-1.57.239-3.188.357-4.8a1.864,1.864,0,0,1-.884.517,1.806,1.806,0,0,1-.465.061,1.891,1.891,0,0,1-1.494-.748,1.7,1.7,0,0,1-.3-1.487l.036-.131c.472-1.7.959-3.468,1.578-5.156a4.566,4.566,0,0,1,4.352-3.09c.279-.015.529-.023.765-.023a7.536,7.536,0,0,1,1.521.137,4.622,4.622,0,0,1,3.627,3.31c.414,1.3.809,2.631,1.191,3.918l.217.732a1.846,1.846,0,0,1-1.116,2.45,1.891,1.891,0,0,1-.627.111,1.73,1.73,0,0,1-1.33-.64l.142,1.947q.061.837.125,1.673c.1,1.3.2,2.641.28,3.964a2.123,2.123,0,0,1-.53,1.581,2.009,2.009,0,0,1-1.442.644H8.55A2.1,2.1,0,0,1,6.5,74.588q-.005-.088-.011-.177c-.009.119-.019.239-.03.359A2.041,2.041,0,0,1,4.454,76.655ZM3.274,65.262l.179.709a1.426,1.426,0,0,1,.039.46c-.13,1.769-.264,3.557-.393,5.285-.022.3-.048.6-.073.9-.053.634-.108,1.289-.134,1.932a1.539,1.539,0,0,0,3.072.176c.021-.219.037-.443.052-.66.01-.143.02-.285.032-.428q.058-.715.118-1.429l.047-.562.5-.019c.163,1.017.238,2.011.294,2.933a1.587,1.587,0,0,0,1.592,1.6,1.513,1.513,0,0,0,1.087-.482,1.628,1.628,0,0,0,.4-1.213C10,73.14,9.9,71.8,9.8,70.5q-.063-.837-.125-1.675l-.225-3.074.476-.111.1.218c.018.038.035.077.052.116a1.454,1.454,0,0,0,1.283,1.007,1.394,1.394,0,0,0,.461-.083,1.361,1.361,0,0,0,.8-1.836l-.218-.732c-.381-1.284-.775-2.612-1.188-3.908A4.1,4.1,0,0,0,7.97,57.453a7.047,7.047,0,0,0-1.421-.127c-.227,0-.468.007-.738.022a4.639,4.639,0,0,0-2.42.759,4.063,4.063,0,0,0-1.49,2C1.29,61.78.8,63.533.336,65.228L.3,65.358A1.183,1.183,0,0,0,.513,66.41a1.388,1.388,0,0,0,1.1.551,1.306,1.306,0,0,0,.337-.044,1.547,1.547,0,0,0,1.037-.983Zm5.272,10.7A1.385,1.385,0,0,1,7.2,74.595c-.121-1.613-.236-3.253-.346-4.84q-.055-.792-.111-1.584c0-.041,0-.082-.007-.124-.019-.4-.06-.443-.224-.453H6.474c-.128,0-.176,0-.2.426,0,.032,0,.064-.006.1q-.109,1.457-.217,2.914-.132,1.775-.265,3.551a1.37,1.37,0,0,1-1.331,1.378c-.037,0-.075,0-.112,0a1.4,1.4,0,0,1-1.256-1.6c.193-2.67.387-5.384.575-8.009l.2-2.826c.012-.164.025-.328.039-.493.035-.422.07-.858.074-1.283a.451.451,0,0,0-.122-.261l-.006,0a.586.586,0,0,0-.076.2q-.191.782-.381,1.564c-.2.825-.407,1.678-.615,2.516a1.187,1.187,0,0,1-1.127,1.006,1.23,1.23,0,0,1-.389-.065A1.1,1.1,0,0,1,.5,65.331c.118-.4.235-.811.349-1.207.374-1.3.76-2.651,1.225-3.951a3.792,3.792,0,0,1,3.455-2.6c.331-.026.651-.039.951-.039a8.1,8.1,0,0,1,1.6.147A3.762,3.762,0,0,1,11,60.364c.4,1.21.762,2.451,1.114,3.651q.172.585.344,1.17a1.291,1.291,0,0,1-.08,1.01,1.205,1.205,0,0,1-1.016.574A1.171,1.171,0,0,1,10.25,65.8c-.238-.968-.472-1.953-.7-2.906q-.13-.547-.26-1.094l-.009-.038a.67.67,0,0,0-.079-.228.078.078,0,0,0-.028,0l-.029,0a.151.151,0,0,0-.067.018.7.7,0,0,0-.008.231c0,.023,0,.046,0,.068.006.143.014.285.022.428l.022.427-.047,0,.2,2.809q.211,2.971.422,5.942.028.4.058.8c.053.712.107,1.449.143,2.175a1.348,1.348,0,0,1-1.281,1.521ZM6.474,67.093l.066,0c.649.041.677.618.692.928,0,.038,0,.076.006.114q.056.792.111,1.584c.111,1.586.225,3.225.346,4.837a.882.882,0,0,0,.894.9.853.853,0,0,0,.807-1c-.036-.721-.09-1.454-.143-2.163q-.03-.4-.059-.8-.211-2.971-.422-5.942l-.235-3.306.056,0c-.007-.123-.013-.247-.019-.37,0-.02,0-.041,0-.062-.012-.212-.041-.71.516-.775a.751.751,0,0,1,.086-.005c.449,0,.543.4.594.618l.008.036q.131.547.26,1.095c.226.952.46,1.936.7,2.9a.68.68,0,0,0,.63.588.639.639,0,0,0,.158-.021.652.652,0,0,0,.423-.3.789.789,0,0,0,.036-.621q-.174-.585-.345-1.171c-.351-1.2-.714-2.434-1.109-3.636a3.287,3.287,0,0,0-2.549-2.348,7.6,7.6,0,0,0-1.5-.137c-.287,0-.594.013-.912.038a3.277,3.277,0,0,0-3.023,2.269c-.46,1.284-.844,2.624-1.215,3.92-.114.4-.231.807-.349,1.21a.6.6,0,0,0,.436.757.731.731,0,0,0,.231.04c.3,0,.545-.234.642-.627.208-.837.414-1.689.614-2.513q.19-.783.381-1.565c.095-.388.279-.585.548-.585a.566.566,0,0,1,.211.043.854.854,0,0,1,.431.728c0,.443-.04.888-.075,1.319-.013.163-.027.325-.038.488l-.2,2.826c-.188,2.625-.382,5.34-.575,8.009a.909.909,0,0,0,.8,1.064l.071,0a.879.879,0,0,0,.832-.916q.133-1.775.265-3.55.108-1.457.217-2.914c0-.029,0-.059.006-.089C5.792,67.675,5.828,67.093,6.474,67.093Z" transform="translate(-0.004 -38.22)" fill="#7f4fc7"/>
        <path id="Trazado_196951" data-name="Trazado 196951" d="M35.344,73.181c-.07.974-.143,1.948-.211,2.922a1.8,1.8,0,0,1-3.525.381.539.539,0,0,1-.04-.3c.061-.152.145-.362.27-.406.231-.083.371.079.4.326a1.055,1.055,0,0,0,.86.982,1.087,1.087,0,0,0,1.344-1.026c.16-2.082.3-4.166.452-6.249a2.045,2.045,0,0,1,.085-.689.655.655,0,0,1,.456-.342.545.545,0,0,1,.389.36c.091.561.121,1.131.163,1.7q.187,2.534.365,5.069c.055.786.509,1.242,1.207,1.192a1.135,1.135,0,0,0,1-1.384c-.136-1.307-.266-2.614-.4-3.921-.024-.236-.011-.457.282-.5s.378.141.4.393c.135,1.409.306,2.816.4,4.229A1.738,1.738,0,0,1,37.531,77.8a1.78,1.78,0,0,1-1.858-1.749q-.087-1.268-.183-2.534c-.008-.112-.037-.222-.056-.333l-.091-.005" transform="translate(-21.131 -46.06)" fill="#7f4fc7"/>
        <path id="Trazado_196951_-_Contorno" data-name="Trazado 196951 - Contorno" d="M37.453,78.054a2.037,2.037,0,0,1-2.028-1.983l-.019-.278-.023.327a2.031,2.031,0,0,1-1.825,1.922,2.2,2.2,0,0,1-.227.012,2.02,2.02,0,0,1-1.964-1.5l-.013-.044a.619.619,0,0,1-.018-.414c.079-.2.187-.466.418-.548a.592.592,0,0,1,.2-.037.57.57,0,0,1,.535.566.809.809,0,0,0,.665.77.966.966,0,0,0,.208.023.837.837,0,0,0,.834-.824c.107-1.387.207-2.8.3-4.164q.074-1.042.149-2.083c0-.055.005-.113.007-.174a1.5,1.5,0,0,1,.1-.6.9.9,0,0,1,.671-.487.772.772,0,0,1,.648.57c.078.48.112.969.145,1.441q.01.14.02.28c.151,2.043.264,3.607.365,5.07.025.36.169.963.854.963.028,0,.056,0,.085,0a.778.778,0,0,0,.556-.272,1.111,1.111,0,0,0,.209-.837c-.085-.819-.169-1.652-.251-2.457q-.074-.732-.148-1.464c-.046-.457.12-.717.494-.773a.8.8,0,0,1,.117-.009c.191,0,.519.081.571.626.044.455.092.917.138,1.364.1.939.2,1.911.264,2.871A1.994,1.994,0,0,1,39,77.385a2.044,2.044,0,0,1-1.456.667Zm-2.341-5.137.535.029.034.2c.006.033.012.066.019.1a2.06,2.06,0,0,1,.04.258c.067.89.127,1.719.183,2.536a1.53,1.53,0,0,0,1.6,1.516,1.548,1.548,0,0,0,1.1-.5,1.5,1.5,0,0,0,.368-1.115c-.065-.951-.165-1.918-.263-2.853-.047-.448-.1-.912-.139-1.368-.013-.141-.043-.17-.044-.171a.27.27,0,0,0-.073,0c-.071.011-.092.014-.07.228q.075.732.148,1.465c.081.805.165,1.638.251,2.456a1.6,1.6,0,0,1-.323,1.21,1.267,1.267,0,0,1-.9.45c-.041,0-.081,0-.121,0A1.357,1.357,0,0,1,36.1,75.929c-.1-1.463-.214-3.026-.365-5.068q-.01-.141-.02-.281c-.032-.46-.066-.935-.139-1.391a.428.428,0,0,0-.149-.152.47.47,0,0,0-.224.194,1.12,1.12,0,0,0-.054.4c0,.064,0,.131-.008.2Q35.07,70.873,35,71.914c-.1,1.366-.2,2.778-.3,4.167a1.337,1.337,0,0,1-1.332,1.286,1.466,1.466,0,0,1-.315-.035,1.308,1.308,0,0,1-1.054-1.194.267.267,0,0,0-.043-.13l-.016,0a1.053,1.053,0,0,0-.127.249.9.9,0,0,0,.026.1l.015.054a1.506,1.506,0,0,0,1.482,1.136,1.7,1.7,0,0,0,.175-.009,1.52,1.52,0,0,0,1.378-1.46q.068-.976.141-1.951.035-.486.071-.971Z" transform="translate(-21.131 -46.06)" fill="#7f4fc7"/>
        <path id="Trazado_196952" data-name="Trazado 196952" d="M6.607,27.082a4.629,4.629,0,0,1,4.1,1.8,4.755,4.755,0,0,1,.6,1.061.536.536,0,0,1-.13.5c-.227.153-.392-.013-.5-.248a3.546,3.546,0,0,0-2.738-2.283,9.306,9.306,0,0,0-2.951.016A3.508,3.508,0,0,0,2.2,30.5c-.5,1.553-.954,3.123-1.423,4.686A.923.923,0,0,0,1.3,36.45c.5.183.883-.025,1.2-.587.076-.138.3-.194.456-.287.057.185.2.393.157.552a1.579,1.579,0,0,1-1.882,1.031,1.552,1.552,0,0,1-1.173-1.87Q.68,33.035,1.4,30.807a6.82,6.82,0,0,1,.769-1.748,4.547,4.547,0,0,1,4.155-1.977c.058,0,.117,0,.286,0" transform="translate(0 -18.13)" fill="#7f4fc7"/>
        <path id="Trazado_196952_-_Contorno" data-name="Trazado 196952 - Contorno" d="M1.6,37.457a1.705,1.705,0,0,1-.437-.056,1.936,1.936,0,0,1-1.183-.9,1.666,1.666,0,0,1-.166-1.284C.233,33.709.686,32.2,1.159,30.73a7.067,7.067,0,0,1,.8-1.812,4.741,4.741,0,0,1,4.172-2.089l.2,0H6.6c.106-.005.212-.008.315-.008A4.8,4.8,0,0,1,10.9,28.733a4.938,4.938,0,0,1,.632,1.117.772.772,0,0,1-.221.8.55.55,0,0,1-.309.1c-.162,0-.39-.079-.555-.457A3.271,3.271,0,0,0,7.9,28.16a9.5,9.5,0,0,0-1.418-.107,8.449,8.449,0,0,0-1.452.122,3.253,3.253,0,0,0-2.589,2.4c-.381,1.181-.741,2.392-1.088,3.564q-.166.559-.333,1.118a.7.7,0,0,0,.363.956.745.745,0,0,0,.252.05c.15,0,.379-.054.639-.523a.809.809,0,0,1,.409-.312,1.512,1.512,0,0,0,.136-.068l.273-.164.094.3a1.589,1.589,0,0,0,.061.154.814.814,0,0,1,.1.536A1.822,1.822,0,0,1,1.6,37.457ZM6.131,27.329A4.267,4.267,0,0,0,2.373,29.2a6.643,6.643,0,0,0-.738,1.684C1.164,32.345.713,33.849.293,35.356a1.17,1.17,0,0,0,.119.9,1.433,1.433,0,0,0,.877.66,1.2,1.2,0,0,0,.309.039,1.31,1.31,0,0,0,1.267-.893.509.509,0,0,0-.046-.145.383.383,0,0,0-.107.067,1.257,1.257,0,0,1-1.075.779,1.24,1.24,0,0,1-.423-.08,1.169,1.169,0,0,1-.671-1.57Q.709,34.558.875,34c.349-1.174.709-2.388,1.092-3.575a3.772,3.772,0,0,1,2.978-2.742,8.949,8.949,0,0,1,1.538-.129,10,10,0,0,1,1.493.113,3.788,3.788,0,0,1,2.929,2.43.389.389,0,0,0,.1.156l.015-.008a.392.392,0,0,0,.048-.2,4.442,4.442,0,0,0-.564-1,4.319,4.319,0,0,0-3.589-1.714c-.1,0-.2,0-.3.007H6.314Z" transform="translate(0 -18.13)" fill="#7f4fc7"/>
        <path id="Trazado_196953" data-name="Trazado 196953" d="M10.848,40.827a2.89,2.89,0,0,1,2.922-2.911,2.92,2.92,0,0,1,2.913,2.891,2.957,2.957,0,0,1-2.917,2.948,2.915,2.915,0,0,1-2.918-2.928m.685-.015a2.225,2.225,0,1,0,2.24-2.214,2.235,2.235,0,0,0-2.24,2.214" transform="translate(-7.264 -25.39)" fill="#7f4fc7"/>
        <path id="Trazado_196953_-_Contorno" data-name="Trazado 196953 - Contorno" d="M13.741,44a3.1,3.1,0,0,1-2.221-.933,3.172,3.172,0,0,1-.921-2.245,3.129,3.129,0,0,1,3.164-3.161h.009a3.169,3.169,0,0,1,0,6.339Zm.021-5.839A2.635,2.635,0,0,0,11.1,40.827a2.675,2.675,0,0,0,.777,1.893,2.608,2.608,0,0,0,1.866.784h.023a2.669,2.669,0,0,0,.005-5.339Zm.008,5.14H13.74a2.479,2.479,0,0,1,.03-4.958h0a2.479,2.479,0,0,1,1.751.748,2.425,2.425,0,0,1,.709,1.75A2.5,2.5,0,0,1,13.769,43.306Zm0-4.708v.25a1.979,1.979,0,0,0-.024,3.958h.024a1.994,1.994,0,0,0,1.964-1.969,1.929,1.929,0,0,0-.566-1.391,1.976,1.976,0,0,0-1.395-.6Z" transform="translate(-7.264 -25.39)" fill="#7f4fc7"/>
        <path id="Trazado_196954" data-name="Trazado 196954" d="M29.7,2.923A2.921,2.921,0,0,1,32.63,0a2.956,2.956,0,0,1,2.913,2.907,2.931,2.931,0,0,1-2.963,2.935A2.9,2.9,0,0,1,29.7,2.923m.684,0a2.23,2.23,0,1,0,4.46.008,2.23,2.23,0,1,0-4.46-.008" transform="translate(-19.891 0)" fill="#7f4fc7"/>
        <path id="Trazado_196954_-_Contorno" data-name="Trazado 196954 - Contorno" d="M32.592,6.091h-.014a3.171,3.171,0,0,1,.04-6.341h.012a3.15,3.15,0,0,1,2.221.937,3.139,3.139,0,0,1,.02,4.461A3.193,3.193,0,0,1,32.592,6.091ZM32.618.25a2.671,2.671,0,0,0-.038,5.341h.012a2.7,2.7,0,0,0,1.926-.8,2.64,2.64,0,0,0,.775-1.888A2.713,2.713,0,0,0,32.629.25Zm0,5.156h-.008A2.483,2.483,0,0,1,32.62.441h.013A2.513,2.513,0,0,1,35.1,2.933,2.5,2.5,0,0,1,32.619,5.406ZM32.634.941h-.01a2,2,0,0,0-1.985,1.981,2.008,2.008,0,0,0,1.975,1.984h.006A2,2,0,0,0,34.6,2.926,2.014,2.014,0,0,0,32.634.941Z" transform="translate(-19.891 0)" fill="#7f4fc7"/>
        <path id="Trazado_196955" data-name="Trazado 196955" d="M13.786,7.919a2.922,2.922,0,0,1,2.9,2.907,2.956,2.956,0,0,1-2.932,2.933,2.92,2.92,0,1,1,.035-5.839m-2.253,2.9A2.225,2.225,0,1,0,13.766,8.6a2.234,2.234,0,0,0-2.234,2.22" transform="translate(-7.264 -5.303)" fill="#7f4fc7"/>
        <path id="Trazado_196955_-_Contorno" data-name="Trazado 196955 - Contorno" d="M13.751,14.008h-.005a3.111,3.111,0,0,1-2.217-.923,3.18,3.18,0,0,1-.932-2.271,3.133,3.133,0,0,1,3.175-3.145h.014a3.172,3.172,0,0,1,3.147,3.158A3.2,3.2,0,0,1,13.751,14.008Zm.022-5.839A2.638,2.638,0,0,0,11.1,10.816a2.683,2.683,0,0,0,.786,1.916,2.614,2.614,0,0,0,1.863.776v.25l0-.25a2.7,2.7,0,0,0,2.683-2.683,2.672,2.672,0,0,0-2.649-2.656Zm0,5.14h-.027a2.478,2.478,0,0,1,.019-4.956h0a2.484,2.484,0,0,1,2.464,2.489A2.491,2.491,0,0,1,13.774,13.308Zm0-4.707,0,.25a1.978,1.978,0,0,0-.014,3.957h.021a1.989,1.989,0,0,0,1.96-1.974,1.985,1.985,0,0,0-1.964-1.982Z" transform="translate(-7.264 -5.303)" fill="#7f4fc7"/>
        <path id="Trazado_196956" data-name="Trazado 196956" d="M37.289,18.49a2.907,2.907,0,1,1-2.9,2.924,2.872,2.872,0,0,1,2.9-2.924m.036.688a2.216,2.216,0,1,0,2.191,2.242,2.2,2.2,0,0,0-2.191-2.242" transform="translate(-23.026 -12.382)" fill="#7f4fc7"/>
        <path id="Trazado_196956_-_Contorno" data-name="Trazado 196956 - Contorno" d="M37.282,24.555h0a3.157,3.157,0,1,1,.008-6.315H37.3a3.157,3.157,0,1,1-.014,6.315ZM37.3,18.74h-.006a2.657,2.657,0,0,0-.009,5.315v0A2.658,2.658,0,1,0,37.3,18.74Zm-.012,5.12h-.014a2.427,2.427,0,0,1-1.729-.721,2.474,2.474,0,0,1-.709-1.773,2.449,2.449,0,0,1,2.484-2.439h.009a2.424,2.424,0,0,1,1.729.722,2.474,2.474,0,0,1-1.771,4.21Zm.033-4.432a1.953,1.953,0,0,0-1.984,1.943,1.978,1.978,0,0,0,.565,1.418,1.93,1.93,0,0,0,1.375.572h.012a1.953,1.953,0,0,0,1.982-1.942A1.974,1.974,0,0,0,38.7,20a1.927,1.927,0,0,0-1.375-.574Z" transform="translate(-23.026 -12.382)" fill="#7f4fc7"/>
        <path id="Trazado_196957" data-name="Trazado 196957" d="M52.539,9.032a2.92,2.92,0,0,1-.011-5.839,2.92,2.92,0,1,1,.011,5.839m-.019-.684A2.231,2.231,0,1,0,50.31,6.1a2.256,2.256,0,0,0,2.21,2.25" transform="translate(-33.232 -2.138)" fill="#7f4fc7"/>
        <path id="Trazado_196957_-_Contorno" data-name="Trazado 196957 - Contorno" d="M52.539,9.282h0A3.16,3.16,0,0,1,49.377,6.1a3.182,3.182,0,0,1,3.15-3.158h.022a3.2,3.2,0,0,1,3.172,3.17A3.184,3.184,0,0,1,52.539,9.282Zm.009-5.839H52.53A2.674,2.674,0,0,0,50.654,8a2.64,2.64,0,0,0,1.884.781v0a2.683,2.683,0,0,0,2.682-2.67,2.7,2.7,0,0,0-2.672-2.669ZM52.539,8.6h-.021a2.5,2.5,0,0,1-2.458-2.5,2.5,2.5,0,0,1,2.493-2.46h.011A2.488,2.488,0,0,1,54.32,4.4a2.44,2.44,0,0,1,.7,1.742A2.517,2.517,0,0,1,52.539,8.6Zm.014-4.463A2.019,2.019,0,0,0,50.56,6.1a2,2,0,0,0,1.962,2h.017a2.014,2.014,0,0,0,1.986-1.965,1.938,1.938,0,0,0-.564-1.381,1.986,1.986,0,0,0-1.4-.616Z" transform="translate(-33.232 -2.138)" fill="#7f4fc7"/>
        <path id="Trazado_196958" data-name="Trazado 196958" d="M64.549,28.08a2.923,2.923,0,0,1-2.935,2.914,2.953,2.953,0,0,1-2.9-2.918,2.918,2.918,0,1,1,5.836,0m-2.9-2.238a2.222,2.222,0,1,0,2.213,2.192,2.226,2.226,0,0,0-2.213-2.192" transform="translate(-39.317 -16.847)" fill="#7f4fc7"/>
        <path id="Trazado_196958_-_Contorno" data-name="Trazado 196958 - Contorno" d="M61.637,31.245h-.025a3.169,3.169,0,0,1-2.236-5.395,3.2,3.2,0,0,1,2.285-.942h.025a3.106,3.106,0,0,1,2.211.937,3.181,3.181,0,0,1-2.26,5.4Zm.024-5.837a2.7,2.7,0,0,0-1.931.8,2.619,2.619,0,0,0-.768,1.873,2.7,2.7,0,0,0,2.653,2.669h.021a2.669,2.669,0,0,0,.046-5.337Zm-.021,5.13h-.013a2.467,2.467,0,0,1-2.461-2.485,2.487,2.487,0,0,1,2.486-2.46,2.479,2.479,0,0,1,2.463,2.44,2.473,2.473,0,0,1-2.475,2.505Zm.013-4.445a1.986,1.986,0,0,0-1.986,1.963,1.967,1.967,0,0,0,1.963,1.982h.01a1.958,1.958,0,0,0,1.4-.58,1.972,1.972,0,0,0-1.387-3.365Z" transform="translate(-39.317 -16.847)" fill="#7f4fc7"/>
        <path id="Trazado_196959" data-name="Trazado 196959" d="M114.547,25.509a2.907,2.907,0,1,1-2.906-2.938,2.891,2.891,0,0,1,2.906,2.938m-.69.029a2.217,2.217,0,1,0-2.258,2.188,2.224,2.224,0,0,0,2.258-2.188" transform="translate(-72.812 -15.115)" fill="#7f4fc7"/>
        <path id="Trazado_196959_-_Contorno" data-name="Trazado 196959 - Contorno" d="M111.606,28.66h-.036a3.17,3.17,0,0,1,.067-6.339h.005a3.182,3.182,0,0,1,2.224,5.432A3.192,3.192,0,0,1,111.606,28.66Zm.035-5.839a2.67,2.67,0,0,0-.066,5.339h.031a2.7,2.7,0,0,0,1.909-.763,2.677,2.677,0,0,0-1.873-4.576Zm0,5.156H111.6a2.424,2.424,0,0,1-1.721-.746,2.523,2.523,0,0,1-.7-1.823,2.464,2.464,0,1,1,2.46,2.57Zm0-4.462a1.969,1.969,0,0,0-1.965,1.9,2.027,2.027,0,0,0,.558,1.465,1.928,1.928,0,0,0,1.369.593h.033a1.981,1.981,0,0,0,.042-3.961Z" transform="translate(-72.812 -15.115)" fill="#7f4fc7"/>
        <path id="Trazado_196960" data-name="Trazado 196960" d="M81.425,27.818a1.571,1.571,0,0,1-1.813,1.553c-1.059-.2-2.113-.431-3.17-.644-.242-.049-.436-.153-.38-.428s.3-.293.525-.247c.9.181,1.8.37,2.7.555a3.7,3.7,0,0,0,.387.069.864.864,0,1,0,.29-1.7c-.868-.189-1.742-.354-2.613-.53-.586-.118-1.171-.239-1.757-.351-.236-.045-.446-.124-.406-.408s.266-.319.5-.272c1.53.3,3.062.591,4.586.923a1.529,1.529,0,0,1,1.152,1.482" transform="translate(-50.344 -17.006)" fill="#7f4fc7"/>
        <path id="Trazado_196960_-_Contorno" data-name="Trazado 196960 - Contorno" d="M79.875,29.646a1.688,1.688,0,0,1-.309-.029c-.672-.126-1.351-.267-2.008-.4-.382-.08-.776-.162-1.165-.24a.741.741,0,0,1-.5-.287.563.563,0,0,1-.071-.437.556.556,0,0,1,.588-.467,1.162,1.162,0,0,1,.231.025c.6.121,1.21.247,1.8.37l.9.186.066.014a2.731,2.731,0,0,0,.295.051.623.623,0,0,0,.729-.5.615.615,0,0,0-.515-.713c-.609-.132-1.231-.256-1.833-.375l-.777-.154-.477-.1c-.419-.085-.852-.172-1.278-.254-.454-.087-.658-.318-.607-.688a.552.552,0,0,1,.587-.505,1.1,1.1,0,0,1,.211.022l1.13.222c1.136.222,2.31.451,3.461.7a1.794,1.794,0,0,1,.821,3.008A1.8,1.8,0,0,1,79.875,29.646Zm-3.469-1.364c-.085,0-.088.016-.1.067a.109.109,0,0,0,0,.06s.029.041.186.073c.39.078.786.161,1.168.241.655.136,1.331.278,2,.4a1.305,1.305,0,0,0,.562-2.545c-1.145-.25-2.317-.479-3.45-.7l-1.131-.222a.6.6,0,0,0-.114-.013c-.082,0-.083.011-.092.074s-.012.087.205.128c.429.082.863.17,1.283.255l.476.1.775.154c.6.12,1.229.243,1.842.377a1.122,1.122,0,0,1,.9,1.285,1.1,1.1,0,0,1-1.132.918c-.045,0-.092,0-.138-.007a3.15,3.15,0,0,1-.349-.06l-.064-.013-.9-.186c-.589-.122-1.2-.248-1.8-.369A.684.684,0,0,0,76.406,28.282Z" transform="translate(-50.344 -17.006)" fill="#7f4fc7"/>
        <path id="Trazado_196961" data-name="Trazado 196961" d="M39.232,39.891c-.082.108-.137.251-.233.288a.465.465,0,0,1-.36-.051,1.177,1.177,0,0,1-.246-.3,3.878,3.878,0,0,0-3.056-1.549c-.35-.013-.7,0-1.052,0a3.922,3.922,0,0,0-3.047,1.291c-.171.187-.358.339-.6.134s-.089-.418.076-.6a4.239,4.239,0,0,1,2.339-1.376,7.851,7.851,0,0,1,3.474.045A4.3,4.3,0,0,1,39,39.485c.083.115.144.247.235.405" transform="translate(-20.432 -25.147)" fill="#7f4fc7"/>
        <path id="Trazado_196961_-_Contorno" data-name="Trazado 196961 - Contorno" d="M38.891,40.446a.763.763,0,0,1-.383-.105.845.845,0,0,1-.253-.276c-.021-.032-.041-.062-.059-.086a3.607,3.607,0,0,0-2.868-1.453c-.112,0-.233-.006-.379-.006-.206,0-.413,0-.619,0h-.055a3.652,3.652,0,0,0-2.852,1.209.778.778,0,0,1-.555.314.591.591,0,0,1-.389-.159.565.565,0,0,1-.216-.4.794.794,0,0,1,.27-.56,4.481,4.481,0,0,1,2.476-1.453,9.063,9.063,0,0,1,1.744-.177,7.483,7.483,0,0,1,1.84.225A4.545,4.545,0,0,1,39.2,39.339a2.52,2.52,0,0,1,.169.282c.025.046.051.094.08.145l.083.144-.1.132c-.018.024-.037.055-.058.088a.61.61,0,0,1-.286.283A.549.549,0,0,1,38.891,40.446ZM34.948,38.02c.153,0,.279,0,.4.007a4.132,4.132,0,0,1,3.244,1.645c.031.04.057.08.083.118a.565.565,0,0,0,.1.125.265.265,0,0,0,.121.032H38.9c.013-.017.03-.043.044-.066l-.011-.021a2.13,2.13,0,0,0-.135-.228,4.057,4.057,0,0,0-2.325-1.62,6.983,6.983,0,0,0-1.717-.21,8.563,8.563,0,0,0-1.647.167,3.993,3.993,0,0,0-2.2,1.3c-.034.038-.138.152-.141.195a.283.283,0,0,0,.044.046.136.136,0,0,0,.063.037c.011,0,.058-.011.185-.151a4.18,4.18,0,0,1,3.222-1.373h.055C34.536,38.024,34.742,38.02,34.948,38.02Z" transform="translate(-20.432 -25.147)" fill="#7f4fc7"/>
        <path id="Trazado_196962" data-name="Trazado 196962" d="M33.752,50.977c-.066.963-.111,1.836-.2,2.706-.016.152-.213.286-.327.429-.114-.139-.24-.272-.339-.421-.05-.075-.031-.246-.082-.264-.451-.16-.323-.486-.247-.8.163-.664.312-1.332.509-1.986.05-.167.249-.4.394-.406.276-.019.309.242.293.479-.008.116,0,.233,0,.26" transform="translate(-21.751 -33.641)" fill="#7f4fc7"/>
        <path id="Trazado_196962_-_Contorno" data-name="Trazado 196962 - Contorno" d="M33.229,54.509l-.2-.239c-.033-.04-.067-.08-.1-.119a3.359,3.359,0,0,1-.253-.322.528.528,0,0,1-.074-.215.733.733,0,0,1-.309-.969l.019-.074q.053-.217.105-.435c.124-.515.251-1.047.407-1.565a.853.853,0,0,1,.615-.583l.047,0a.479.479,0,0,1,.363.15.765.765,0,0,1,.152.6c-.005.079,0,.162,0,.207,0,.016,0,.028,0,.036v.017c-.017.248-.032.489-.048.726-.044.688-.086,1.338-.152,1.988a.766.766,0,0,1-.275.448,1.479,1.479,0,0,0-.105.112Zm-.125-.944c.04.058.085.115.133.172a.409.409,0,0,0,.068-.085c.065-.639.106-1.283.15-1.964.015-.234.03-.473.047-.717v-.014c0-.049,0-.152,0-.256a.533.533,0,0,0-.014-.213h0a.5.5,0,0,0-.183.229c-.152.5-.278,1.03-.4,1.537q-.052.218-.106.437l-.02.08c-.085.332-.068.359.108.422a.35.35,0,0,1,.207.319C33.1,53.527,33.1,53.552,33.1,53.565Z" transform="translate(-21.751 -33.641)" fill="#7f4fc7"/>
        <path id="Trazado_196963" data-name="Trazado 196963" d="M54.925,22.365c.475.042.985.064,1.486.147.134.022.237.231.355.354-.151.1-.3.292-.454.3-.914.021-1.829.012-2.743-.021-.142-.005-.278-.189-.416-.289.1-.123.186-.334.3-.353.472-.075.954-.091,1.469-.132" transform="translate(-35.594 -14.977)" fill="#7f4fc7"/>
        <path id="Trazado_196963_-_Contorno" data-name="Trazado 196963 - Contorno" d="M55.321,23.422c-.57,0-1.162-.011-1.761-.033a.725.725,0,0,1-.446-.243,1.355,1.355,0,0,0-.108-.094l-.213-.155.167-.2a1.26,1.26,0,0,0,.074-.11.607.607,0,0,1,.383-.332c.354-.056.7-.08,1.074-.1.136-.009.275-.018.415-.03l.021,0,.021,0c.127.011.256.021.386.031.365.028.741.056,1.118.119a.684.684,0,0,1,.405.317,1.348,1.348,0,0,0,.089.111l.2.213-.244.166a1.464,1.464,0,0,0-.12.1.762.762,0,0,1-.468.241C55.991,23.419,55.656,23.422,55.321,23.422Zm-1.732-.532c.589.021,1.171.032,1.732.032.329,0,.659,0,.979-.011a.556.556,0,0,0,.116-.083.575.575,0,0,0-.064-.073c-.349-.057-.708-.084-1.056-.11l-.372-.029-.4.028c-.345.023-.672.045-.991.094a.826.826,0,0,0-.048.068A.644.644,0,0,0,53.589,22.89Z" transform="translate(-35.594 -14.977)" fill="#7f4fc7"/>
      </g>
    </g>
  </g>
</svg>
