<svg xmlns="http://www.w3.org/2000/svg" xmlns:xlink="http://www.w3.org/1999/xlink" width="108" height="108" viewBox="0 0 108 108">
  <defs>
    <clipPath id="clip-path">
      <rect id="Rectángulo_46484" data-name="Rectángulo 46484" width="68.843" height="68.912" fill="#fff"/>
    </clipPath>
  </defs>
  <g id="Grupo_155255" data-name="Grupo 155255" transform="translate(6140 2828)">
    <circle id="Elipse_5743" data-name="Elipse 5743" cx="54" cy="54" r="54" transform="translate(-6140 -2828)" fill="#baa1e1"/>
    <g id="Grupo_154946" data-name="Grupo 154946" transform="translate(-6121.392 -2808.389)">
      <g id="Grupo_154945" data-name="Grupo 154945" clip-path="url(#clip-path)">
        <path id="Trazado_196977" data-name="Trazado 196977" d="M0,63.7a14.908,14.908,0,0,1,1.148-2.828,13.425,13.425,0,0,1,2.247-2.366.764.764,0,0,0,.318-.882c-.691-2.933-.164-5.523,2.277-7.5a7.032,7.032,0,0,1,4.088-1.461,8.428,8.428,0,0,1,3.9-6.722,9.125,9.125,0,0,1,7.763-.978c.158-.385.3-.759.464-1.122a1.1,1.1,0,0,1,1.462-.7,1.117,1.117,0,0,1,.528,1.527c-.222.609-.448,1.217-.629,1.838-.283.971-.831,1.235-1.773.822A6.773,6.773,0,0,0,15,43.827a6.633,6.633,0,0,0-.615,10.325,7.206,7.206,0,0,0,1.941,1.012c.721.291,1.064.707.916,1.33a1.068,1.068,0,0,1-1.476.745C13,56.5,11.426,54.551,10.5,51.967c-.128-.355-.213-.725-.315-1.079-2.423-.213-5.63,2.281-4.31,6.393a13.764,13.764,0,0,1,1.916.1,4.731,4.731,0,0,1,3.771,3.512,1.066,1.066,0,1,1-2.034.62A2.618,2.618,0,0,0,7.405,59.5a4,4,0,0,0-1.942.279,5.378,5.378,0,0,0-3.23,5.7,4.406,4.406,0,0,0,4.4,3.548c2.75.111,5.509.026,8.366.026V66.5c0-.314-.01-.628,0-.941.033-.746.45-1.193,1.089-1.185a1.1,1.1,0,0,1,1.074,1.211c.02.9.006,1.793.006,2.689,0,.24,0,.481,0,.8H27.181A2.2,2.2,0,0,0,29.588,66.9a3.187,3.187,0,0,0-1.378-3.332,1.051,1.051,0,0,1,1.027-1.819,3.888,3.888,0,0,1,1.336,1.076,5.65,5.65,0,0,1,.779,5.711q-.073.187-.139.377c-.006.017.009.042.037.161h2.283c2.951,0,3.509.185,5.844,1.94.149-.3.287-.606.443-.9a5.155,5.155,0,0,1,6.125-2.5c.769.273,1.108.785.924,1.4-.2.665-.744.885-1.574.638a3.024,3.024,0,0,0-3.3,1.046,3.5,3.5,0,0,0-.332,3.612,6.808,6.808,0,0,0,6.462,3.911l2.084.032a4.895,4.895,0,0,1,4.4,2.5,24.065,24.065,0,0,1,1.462,3.372c.481,1.227.85,2.5,1.369,3.709a2,2,0,0,0,2.666.925,1.248,1.248,0,0,0,.628-1.535,9.3,9.3,0,0,1,.045-4.2,5.606,5.606,0,0,1,1.64-2.88c2.109-1.859,2.47-4.154,1.773-6.728-.215-.793-.519-1.563-.783-2.348-.766.129-1.44.3-2.122.348a6.725,6.725,0,0,1-6.341-2.76,6.174,6.174,0,0,1-.841-2.153,1.007,1.007,0,0,1,.881-1.158,1.1,1.1,0,0,1,1.193.771A4.466,4.466,0,0,0,61.108,69.3a5.994,5.994,0,0,0,5.429-5.061,6.6,6.6,0,0,0-3.111-7.268,11.921,11.921,0,0,0-1.887-.861c-1.062-.4-1.289-.849-.871-1.888a9.368,9.368,0,0,0,.094-7.569,6.46,6.46,0,0,0-3.366-3.41,1.086,1.086,0,1,1,.909-1.941A9.144,9.144,0,0,1,63.6,49.154a11.744,11.744,0,0,1-.65,5.14c3.2,1.4,5.368,3.672,5.808,7.229a9.166,9.166,0,0,1-3.486,8.572,14.179,14.179,0,0,1,1.353,4.967A7.2,7.2,0,0,1,64.4,81.156a5.447,5.447,0,0,0-1.677,4.994,8.054,8.054,0,0,1,.048,2.448,3.243,3.243,0,0,1-3.09,2.426,3.959,3.959,0,0,1-4.454-2.858c-.524-1.329-.946-2.7-1.415-4.051-.117-.338-.236-.675-.364-1.009a3.756,3.756,0,0,0-4.034-2.746,16.762,16.762,0,0,1-3.8-.334,8.1,8.1,0,0,1-5.584-4.256c-.454-.771-.86-1.575-1.378-2.3A5.251,5.251,0,0,0,34.049,71.2c-9.031.039-18.063.007-27.095.006A6.771,6.771,0,0,1,.1,65.751a.65.65,0,0,0-.1-.168V63.7" transform="translate(0 -22.145)" fill="#fff"/>
        <path id="Trazado_196978" data-name="Trazado 196978" d="M75.969,0c.8.173,1.62.308,2.413.525A14.313,14.313,0,0,1,81.6,26.83a1.845,1.845,0,0,0-1.147,2.025,6.927,6.927,0,0,1,0,1.008,1.657,1.657,0,0,0,.719,1.762,2.344,2.344,0,0,1,.687,1.576,19.526,19.526,0,0,1,.023,2.821,3.26,3.26,0,0,1-1.739,2.842,1.516,1.516,0,0,0-.642.736,5.142,5.142,0,0,1-9.879-.043,1.267,1.267,0,0,0-.549-.657,3.285,3.285,0,0,1-1.831-2.925c-.032-.918-.009-1.838-.007-2.757a2.3,2.3,0,0,1,1.042-1.926,1.121,1.121,0,0,0,.39-.729c.054-.668-.016-1.346.027-2.016a1.556,1.556,0,0,0-.955-1.6,14.11,14.11,0,0,1-7.177-9.511A14.355,14.355,0,0,1,72.7.126,2.858,2.858,0,0,0,73.145,0ZM74.576,21.72c.237-.29.421-.513.6-.737.843-1.047,1.675-2.1,2.53-3.14a1.037,1.037,0,0,1,1.532-.261,1.1,1.1,0,0,1,.132,1.609c-.092.127-.195.245-.294.368-1.014,1.254-2.048,2.494-3.029,3.774a1.953,1.953,0,0,0-.376,1.082c-.036,1.949-.018,3.9-.016,5.849,0,.216.023.433.036.663H78.31c0-.9,0-1.747,0-2.595a3.284,3.284,0,0,1,1.884-3.158c.179-.092.355-.19.529-.291a12.217,12.217,0,1,0-11.99.151,3.618,3.618,0,0,1,2.109,3.579c-.03.774-.005,1.55-.005,2.307H73.5c0-2.161-.015-4.264.01-6.367a1.9,1.9,0,0,0-.477-1.335c-1.106-1.324-2.206-2.655-3.238-4.036a1.547,1.547,0,0,1-.164-1.222,1.1,1.1,0,0,1,.874-.558,1.557,1.557,0,0,1,.991.549c1.033,1.207,2.014,2.46,3.076,3.772M69.389,33.153c0,.932-.013,1.8,0,2.673a1.131,1.131,0,0,0,1.2,1.24c.469.024.94.006,1.41.007,2.127,0,4.254.005,6.381,0,.783,0,1.3-.335,1.329-.948.052-.975.014-1.955.014-2.968Zm7.9,6.128H71.9a2.8,2.8,0,0,0,2.552,1.856,2.96,2.96,0,0,0,2.84-1.856" transform="translate(-34.144)" fill="#fff"/>
        <path id="Trazado_196979" data-name="Trazado 196979" d="M137.806,19.651H133.25c-.866,0-1.383-.509-1.256-1.262a.989.989,0,0,1,1.025-.878q4.724-.2,9.448-.387a1.074,1.074,0,1,1,.03,2.131c-1.564.018-3.128.005-4.692.005v.391" transform="translate(-74.844 -9.711)" fill="#fff"/>
        <path id="Trazado_196980" data-name="Trazado 196980" d="M33.629,19.262c-1.542,0-3.084.011-4.626,0-.8-.008-1.271-.44-1.261-1.084a1.105,1.105,0,0,1,1.29-1.05q4.66.178,9.318.384a1.082,1.082,0,0,1,1.127,1.083,1.117,1.117,0,0,1-1.224,1.059c-1.542.006-3.084,0-4.626,0v-.39" transform="translate(-15.732 -9.71)" fill="#fff"/>
        <path id="Trazado_196981" data-name="Trazado 196981" d="M55.182,71.8a4.9,4.9,0,0,1-2.777,4.648,1.117,1.117,0,0,1-1.624-.389c-.3-.575-.065-1.119.652-1.519a3.26,3.26,0,0,0,.435-5.322,1.074,1.074,0,1,1,1.288-1.716,4.938,4.938,0,0,1,1.918,3.336c.071.371.085.754.107.962" transform="translate(-28.727 -38.145)" fill="#fff"/>
        <path id="Trazado_196982" data-name="Trazado 196982" d="M121.322,86.246a3.04,3.04,0,0,0-3.039,1.653,1.027,1.027,0,0,1-1.422.474,1.066,1.066,0,0,1-.465-1.434,4.812,4.812,0,0,1,3.981-2.785,7.875,7.875,0,0,1,1.337-.035c.755.025,1.183.438,1.165,1.085s-.474,1.033-1.222,1.043c-.112,0-.223,0-.335,0" transform="translate(-65.944 -47.698)" fill="#fff"/>
        <path id="Trazado_196983" data-name="Trazado 196983" d="M137.475,28.778c0,.882-.69,1.461-1.335,1.214-1.393-.534-2.768-1.12-4.123-1.745a.944.944,0,0,1-.469-1.309.933.933,0,0,1,1.245-.615c1.413.542,2.806,1.142,4.178,1.782.269.125.406.534.505.673" transform="translate(-74.546 -14.888)" fill="#fff"/>
        <path id="Trazado_196984" data-name="Trazado 196984" d="M47.413,27.6c-.141.16-.346.578-.676.735-1.246.594-2.527,1.118-3.807,1.637a1.065,1.065,0,0,1-1.447-.568,1.032,1.032,0,0,1,.59-1.383c1.261-.565,2.529-1.113,3.813-1.623.784-.312,1.525.184,1.526,1.2" transform="translate(-23.476 -14.918)" fill="#fff"/>
        <path id="Trazado_196985" data-name="Trazado 196985" d="M43.37,5.051c.4.162.634.236.848.348,1.111.58,2.22,1.162,3.322,1.756.719.387.941.945.636,1.534a1.1,1.1,0,0,1-1.619.358c-1.171-.608-2.335-1.229-3.5-1.853a.966.966,0,0,1-.53-1.293c.158-.352.571-.589.841-.849" transform="translate(-24.067 -2.864)" fill="#fff"/>
        <path id="Trazado_196986" data-name="Trazado 196986" d="M135.772,5.188c.211.2.667.442.739.765a1.328,1.328,0,0,1-.33,1.161c-1.3.787-2.653,1.486-4.021,2.148a.926.926,0,0,1-1.281-.536.925.925,0,0,1,.342-1.3c1.324-.748,2.684-1.432,4.033-2.135a2.646,2.646,0,0,1,.519-.1" transform="translate(-74.149 -2.942)" fill="#fff"/>
        <path id="Trazado_196987" data-name="Trazado 196987" d="M87.721,28.259c-.5.532-.932,1.016-1.391,1.47a1.124,1.124,0,0,1-1.851-.034c-.5-.51-1-1.029-1.5-1.542a.618.618,0,0,0-.117-.055l-1.571,1.578c-.684.687-1.22.7-1.9.03-.445-.441-.864-.908-1.362-1.435-.428.539-.792,1.005-1.166,1.464a1.107,1.107,0,0,1-1.628.334,1.12,1.12,0,0,1-.045-1.668c.57-.748,1.142-1.5,1.726-2.232a1.1,1.1,0,0,1,1.832-.128c.513.5.994,1.031,1.459,1.515.616-.586,1.187-1.116,1.744-1.66A1.121,1.121,0,0,1,83.8,25.9c.548.529,1.113,1.041,1.786,1.669.395-.434.842-.959,1.325-1.45a1.135,1.135,0,0,1,1.966.118q.852,1.082,1.683,2.181a1.121,1.121,0,0,1-.08,1.666,1.1,1.1,0,0,1-1.58-.324c-.369-.449-.719-.912-1.184-1.5" transform="translate(-42.447 -14.41)" fill="#fff"/>
      </g>
    </g>
  </g>
</svg>
