<svg xmlns="http://www.w3.org/2000/svg" xmlns:xlink="http://www.w3.org/1999/xlink" width="70" height="70" viewBox="0 0 70 70">
  <defs>
    <clipPath id="clip-path">
      <rect id="Rectángulo_46479" data-name="Rectángulo 46479" width="33.923" height="48.401" fill="#7f4fc7"/>
    </clipPath>
  </defs>
  <g id="Grupo_154933" data-name="Grupo 154933" transform="translate(-248 -6615)">
    <circle id="Elipse_5735" data-name="Elipse 5735" cx="35" cy="35" r="35" transform="translate(248 6615)" fill="#fff"/>
    <g id="Grupo_154929" data-name="Grupo 154929" transform="translate(266 6626)">
      <g id="Grupo_154928" data-name="Grupo 154928" clip-path="url(#clip-path)">
        <path id="Trazado_196940" data-name="Trazado 196940" d="M6.753,48.4a1.91,1.91,0,0,1-1.24-2.139A9.156,9.156,0,0,0,5.538,44.9a.662.662,0,0,0-.267-.422c-1.2-.871-2.4-1.726-3.608-2.587a3.322,3.322,0,0,1-.02-5.743c2.339-1.683,4.684-3.357,7.019-5.044a2.822,2.822,0,0,1,1.759-.564c1.336.02,2.673.006,4.011.006.131-.378.037-.515-.347-.587a4.745,4.745,0,0,1-3.846-4.379c-.022-.39-.122-.557-.538-.63a2.1,2.1,0,0,1-1.665-1.932,7.123,7.123,0,0,1,0-1.32,2.229,2.229,0,0,1,2.149-2.066c.008-.154.025-.32.025-.486,0-1.528,0-3.056,0-4.583a3.815,3.815,0,0,1,4.107-4.139h.461V7.553c-.306,0-.629.005-.951,0-.913-.018-1.286-.642-.842-1.428q1.566-2.775,3.15-5.54a.87.87,0,0,1,1.647.01q1.574,2.743,3.128,5.5c.463.819.1,1.443-.838,1.46-.312.006-.624,0-.964,0v4.093c.365.019.721.028,1.075.056a3.73,3.73,0,0,1,3.5,3.709c.024,1.228.006,2.457.007,3.686,0,.171,0,.341.1.408a15.211,15.211,0,0,1,1.444.806c.9.635.913,3.425-.019,4.076a15.37,15.37,0,0,1-1.5.82c-.031.247-.055.637-.131,1.018a4.752,4.752,0,0,1-3.759,3.729c-.353.065-.468.186-.364.588h.472c1.213,0,2.426.008,3.639,0a2.671,2.671,0,0,1,1.633.519c2.377,1.71,4.765,3.406,7.133,5.128a3.312,3.312,0,0,1-.016,5.663c-1.222.89-2.456,1.764-3.691,2.635a.52.52,0,0,0-.268.565,10.662,10.662,0,0,1,.015,1.84,1.719,1.719,0,0,1-1.3,1.513h-6.05c-.32-.234-.585-.5-.424-.941s.522-.492.927-.48.819,0,1.228,0h1.684c.009-.18.019-.29.019-.4q0-6.848,0-13.7c0-.079,0-.158-.006-.236a.664.664,0,0,0-.7-.685c-1.431-.016-2.863-.006-4.285-.006-.513,1.625-1.079,2.025-2.8,2-1.184-.019-1.852-.609-2.223-1.962a.3.3,0,0,0-.088-.028q-1.913-.005-3.826-.008c-.92,0-1.1.183-1.1,1.1q0,6.682,0,13.365v.555h.559c2.567,0,5.133,0,7.7,0,.4,0,.769.048.927.481s-.105.708-.426.941ZM22.274,22.338c0-.945.006-1.89,0-2.834A2.813,2.813,0,0,0,19.6,16.469a38.035,38.035,0,0,0-5.372.009,2.762,2.762,0,0,0-2.59,2.866c-.034,1.983-.044,3.969,0,5.951a3.346,3.346,0,0,0,3.482,3.344q1.819.008,3.638,0a3.378,3.378,0,0,0,3.509-3.467c.012-.944,0-1.89,0-2.834m3.609,22.308a2.266,2.266,0,0,0,.263-.129c1.831-1.308,3.673-2.6,5.487-3.933a1.779,1.779,0,0,0,.274-2.886c-1.921-1.515-3.939-2.909-6.027-4.432,0,.725.015,1.317-.006,1.907a.725.725,0,0,0,.35.7c1.137.791,2.255,1.608,3.378,2.418.672.485.666.954-.017,1.445-1.125.807-2.255,1.608-3.376,2.42-.13.094-.3.242-.31.372-.031.685-.015,1.372-.015,2.118M8.013,33.332c-.2.137-.318.211-.43.291Q5.016,35.466,2.45,37.312a1.918,1.918,0,0,0,.016,3.407q2.569,1.841,5.144,3.674c.109.078.229.14.4.246,0-.679-.015-1.29.006-1.9a.651.651,0,0,0-.327-.616c-1.133-.794-2.256-1.6-3.38-2.41-.652-.468-.652-.944,0-1.415,1.135-.819,2.276-1.628,3.4-2.456A.686.686,0,0,0,8,35.411c.031-.658.013-1.318.013-2.079m10.2-18.409c0-.272.007-.506,0-.74a2.344,2.344,0,0,0-2.3-2.339c-.659-.028-1.321-.025-1.981,0a2.188,2.188,0,0,0-2.148,1.607,17.889,17.889,0,0,0-.206,2.578l.137.05c1.932-1.616,4.256-.974,6.5-1.156m1.072-8.817-2.333-4.1L14.621,6.113c.158.012.22.02.282.022,1.064.024,1.33.293,1.331,1.358,0,.866-.007,1.732.008,2.6,0,.129.082.336.175.369.389.139.8.225,1.242.341,0-1.118,0-2.2,0-3.286s.267-1.346,1.32-1.379c.073,0,.147-.013.3-.028m.263,7.034q.065.961.122,1.817A13.577,13.577,0,0,1,21,15.372c.425.179.819.435,1.227.658a2.365,2.365,0,0,0-2.678-2.889M18,30.087H15.915c0,.623-.02,1.219.007,1.813a.633.633,0,0,0,.641.63,5.3,5.3,0,0,0,.708.005A.7.7,0,0,0,18,31.781c.014-.549,0-1.1,0-1.694m10.164,8.919L25.922,37.4v3.214l2.245-1.605m-20.184-1.6L5.758,39.005l2.225,1.588Zm2.179-13.826v-2.5c-.672.193-.746.352-.733,1.491.008.655.149.86.733,1.011M23.721,21.1v2.449c.555-.063.727-.275.743-.882.033-1.239-.062-1.449-.743-1.567M25.9,46.944c1.139.127,1.278-.044.993-1.258-.323.455-1.117.442-.993,1.258M6.964,45.727c-.035,1.276-.254,1.366,1.023,1.2.048-.572,0-.634-1.023-1.2" transform="translate(0 0)" fill="#7f4fc7"/>
        <path id="Trazado_196941" data-name="Trazado 196941" d="M2.479,26.722c-.421,0-.78.011-1.138,0A.839.839,0,0,1,.582,25.4q1.6-2.862,3.243-5.7a.841.841,0,0,1,1.547-.01q1.643,2.838,3.246,5.7a.849.849,0,0,1-.8,1.332c-.342.01-.685,0-1.084,0,0,.628.013,1.206,0,1.784s-.4.893-.876.777a.669.669,0,0,1-.535-.731c0-.709-.008-1.417,0-2.126a1,1,0,0,1,1.1-1.12c.14,0,.28,0,.514,0L4.6,21.192l-2.326,4.08c.164.015.265.03.366.032.9.018,1.251.365,1.252,1.272q0,7.062,0,14.124v.651H5.321v-.56q0-4.252,0-8.5a3.324,3.324,0,0,1,.014-.472.635.635,0,0,1,.629-.592.63.63,0,0,1,.717.481,2.063,2.063,0,0,1,.055.559q0,4.583,0,9.165c0,1.073-.3,1.378-1.373,1.38-.535,0-1.071,0-1.606,0-.962,0-1.278-.315-1.279-1.269q0-4.606,0-9.211V26.722" transform="translate(-0.292 -12.809)" fill="#7f4fc7"/>
        <path id="Trazado_196942" data-name="Trazado 196942" d="M78.546,26.715c-.434,0-.795.014-1.154,0a.825.825,0,0,1-.754-1.26q1.627-2.929,3.312-5.825a.819.819,0,0,1,1.468.009q1.674,2.875,3.291,5.783a.836.836,0,0,1-.794,1.3c-.345.011-.69,0-1.088,0-.009.2-.022.361-.022.527q0,2.6,0,5.2a.714.714,0,0,1-.513.8.688.688,0,0,1-.9-.693q-.023-3.118,0-6.236a.985.985,0,0,1,1.03-1.008c.17-.009.342,0,.6,0L80.68,21.185l-2.315,4.072c1.524.18,1.6.266,1.6,1.767V41.357h1.421v-.5q0-2.291,0-4.583c0-.126-.007-.253,0-.378a.7.7,0,0,1,.722-.714.675.675,0,0,1,.687.737c.011,1.26,0,2.52,0,3.78,0,.693.009,1.386,0,2.079a.947.947,0,0,1-1,1.017c-.724.02-1.449.018-2.173,0a.991.991,0,0,1-1.076-1.1c-.01-.709,0-1.417,0-2.126V26.715Z" transform="translate(-51.085 -12.803)" fill="#7f4fc7"/>
        <path id="Trazado_196943" data-name="Trazado 196943" d="M38.491,114.555c.077-.463.143-1.028.273-1.577a.625.625,0,0,0-.236-.695c-.365-.323-.712-.668-1.057-1.013a1.039,1.039,0,0,1,.589-1.809c.514-.071,1.034-.123,1.54-.234a.829.829,0,0,0,.481-.353c.264-.445.473-.923.709-1.385a1.049,1.049,0,0,1,1.889,0c.226.432.465.86.648,1.311a.684.684,0,0,0,.633.457c.5.06,1,.128,1.494.217a1.019,1.019,0,0,1,.6,1.729,11.228,11.228,0,0,1-1.052,1.018.75.75,0,0,0-.284.86,12.047,12.047,0,0,1,.227,1.253,1.065,1.065,0,0,1-1.619,1.178c-.443-.24-.884-.485-1.343-.691a.688.688,0,0,0-.508,0c-.514.236-1,.535-1.515.766a1.043,1.043,0,0,1-1.471-1.032m5.967-3.8c-.5-.071-.9-.137-1.307-.182a.957.957,0,0,1-.827-.607c-.17-.379-.372-.744-.592-1.179a11.279,11.279,0,0,0-.524,1.046,1.115,1.115,0,0,1-1.072.77c-.35.026-.7.1-1.1.157.342.351.617.652.912.931a.908.908,0,0,1,.309.928c-.093.418-.14.845-.218,1.338.452-.233.835-.413,1.2-.624a.905.905,0,0,1,.979-.006c.373.212.763.4,1.212.626-.081-.493-.125-.9-.22-1.293a.918.918,0,0,1,.312-.971c.3-.275.576-.574.935-.934" transform="translate(-24.781 -71.37)" fill="#7f4fc7"/>
        <path id="Trazado_196944" data-name="Trazado 196944" d="M44.916,74.954A3.046,3.046,0,0,1,41.9,71.993a1.089,1.089,0,0,1,1.15-1.206q1.89-.018,3.781,0a1.1,1.1,0,0,1,1.131,1.182,3.058,3.058,0,0,1-3.046,2.983m1.535-2.717H43.376a1.59,1.59,0,0,0,1.639,1.3,1.511,1.511,0,0,0,1.437-1.3" transform="translate(-27.976 -47.257)" fill="#7f4fc7"/>
        <path id="Trazado_196945" data-name="Trazado 196945" d="M49.142,61.033a4.5,4.5,0,0,1,.536.1.643.643,0,0,1,.476.723.623.623,0,0,1-.6.621,5.347,5.347,0,0,1-.989,0,.9.9,0,0,1-.813-.847,11.3,11.3,0,0,1-.015-1.508.666.666,0,0,1,.7-.676.685.685,0,0,1,.7.73c.009.141,0,.283,0,.425s0,.279,0,.431" transform="translate(-31.862 -39.691)" fill="#7f4fc7"/>
        <path id="Trazado_196946" data-name="Trazado 196946" d="M58.822,58.37a6.456,6.456,0,0,1,0,.657.633.633,0,0,1-.651.615.625.625,0,0,1-.717-.59,7.5,7.5,0,0,1,0-1.357.611.611,0,0,1,.687-.568.627.627,0,0,1,.672.587,4.961,4.961,0,0,1,.005.656h0" transform="translate(-38.338 -38.142)" fill="#7f4fc7"/>
        <path id="Trazado_196947" data-name="Trazado 196947" d="M41.734,58.406c0,.2.016.408,0,.61a.635.635,0,0,1-.644.622.609.609,0,0,1-.713-.537,6.711,6.711,0,0,1,0-1.447.606.606,0,0,1,.716-.53.632.632,0,0,1,.64.624c.02.217,0,.438,0,.657" transform="translate(-26.93 -38.139)" fill="#7f4fc7"/>
      </g>
    </g>
  </g>
</svg>
