<svg xmlns="http://www.w3.org/2000/svg" xmlns:xlink="http://www.w3.org/1999/xlink" width="108" height="108" viewBox="0 0 108 108">
  <defs>
    <clipPath id="clip-path">
      <rect id="Rectángulo_46486" data-name="Rectángulo 46486" width="73.675" height="73.712" fill="#fff"/>
    </clipPath>
  </defs>
  <g id="Grupo_155254" data-name="Grupo 155254" transform="translate(5825 2840)">
    <circle id="Elipse_5741" data-name="Elipse 5741" cx="54" cy="54" r="54" transform="translate(-5825 -2840)" fill="#baa1e1"/>
    <g id="Grupo_154950" data-name="Grupo 154950" transform="translate(-5808 -2823)">
      <g id="Grupo_154949" data-name="Grupo 154949" clip-path="url(#clip-path)">
        <path id="Trazado_196997" data-name="Trazado 196997" d="M58.572,0c.7.137,1.4.262,2.1.415a16.533,16.533,0,0,1,12.977,17.1,16.232,16.232,0,0,1-5.137,11.076,1.285,1.285,0,0,0-.469,1.112c.205,3.375.364,6.754.568,10.129.165,2.732-1.343,4.366-4.088,4.369-1.413,0-2.826,0-4.354,0V45c0,2.519.006,5.037,0,7.556a4.893,4.893,0,0,1-5.137,5.161c-.816,0-1.631.021-2.446-.008a.772.772,0,0,0-.773.467,17.387,17.387,0,0,1-1.884,2.7c-3.753,4.01-7.559,7.971-11.352,11.943a2.218,2.218,0,0,1-3.558,0c-3.776-3.956-7.567-7.9-11.3-11.894A15.3,15.3,0,0,1,21.869,58.2a.806.806,0,0,0-.827-.489c-.911.024-1.823.021-2.734,0a4.856,4.856,0,0,1-4.78-4.782c-.034-2.614-.01-5.229-.012-7.844v-.885H10.688c-.648,0-1.3.009-1.943,0a3.635,3.635,0,0,1-3.681-3.851c.123-2.9.235-5.8.5-8.69a4.6,4.6,0,0,0-1.344-4.129,14.952,14.952,0,0,1-4.09-8.924C.107,18.4.045,18.2,0,17.992V15.113a4.709,4.709,0,0,0,.134-.55A16.485,16.485,0,0,1,11.966.684C13,.391,14.062.225,15.111,0h3.022a2.381,2.381,0,0,0,.4.127A16.374,16.374,0,0,1,31.522,9.42a3.6,3.6,0,0,1-.134,3.761.57.57,0,0,0,.072.806c1.028,1.2,1.956,2.5,3.066,3.622,1.642,1.657,1.447,3.95-1.222,4.613.7,1.41.942,2.772-.459,3.557-.234,1.006-.415,1.788-.627,2.7a3.357,3.357,0,0,1,.557,3.953,3.626,3.626,0,0,1-3.7,1.973c-1.39-.039-2.782-.011-4.172-.007-1.146,0-1.574.421-1.579,1.549-.006,1.367-.074,2.739.015,4.1a3.809,3.809,0,0,1-4.186,4.173c-1.041-.073-2.091-.012-3.186-.012v.736c0,2.71-.019,5.42.024,8.129a2.145,2.145,0,0,0,1.794,2.073,23.92,23.92,0,0,0,3.18.031A9.755,9.755,0,0,1,26.086,45.14a9.128,9.128,0,0,1,10.687,2.021c3.17-3.006,6.811-3.961,10.786-1.94,4,2.035,5.5,5.588,5.2,10.05.761,0,1.523,0,2.285,0a2.467,2.467,0,0,0,2.666-2.7q.008-3.849,0-7.7c0-.206-.03-.412-.049-.665-1.2,0-2.348.009-3.5,0a3.642,3.642,0,0,1-3.807-3.8c-.011-1.487,0-2.974,0-4.46-.005-1.13-.432-1.548-1.579-1.551-1.583,0-3.166.02-4.748-.008a3.532,3.532,0,0,1-2.584-5.9l-.58-2.7a1.814,1.814,0,0,1-.988-1.584,12.73,12.73,0,0,1,.4-2.051,2.439,2.439,0,0,1-1.358-4.26c1.292-1.341,2.41-2.85,3.619-4.3a3.765,3.765,0,0,1-.443-4.031,16.1,16.1,0,0,1,9.434-8.548A40.893,40.893,0,0,1,55.694,0Zm-27.8,22.159a15.812,15.812,0,0,1-1.584-.114,1.1,1.1,0,0,1-.935-1.122,1.117,1.117,0,0,1,.78-1.17,2.657,2.657,0,0,1,.852-.093c.973-.01,1.946,0,3.04,0-.189-.268-.286-.425-.4-.565q-1.816-2.186-3.637-4.366c-.88-1.054-.869-1.473.076-2.444a1.321,1.321,0,0,0,.311-1.862A14.119,14.119,0,1,0,7.447,27.343a1.713,1.713,0,0,1,.721,1.477c-.2,3.494-.377,6.991-.584,10.485-.136,2.288,0,2.447,2.322,2.447H13.48V23.266C9.3,21.994,6.967,18.932,7.4,15.323a7.365,7.365,0,0,1,14.482-1.145,7.2,7.2,0,0,1-.544,5.037,7.418,7.418,0,0,1-5.321,4.029V41.759c1.164,0,2.285.007,3.407,0,1.011-.008,1.445-.438,1.451-1.444.009-1.511-.006-3.022,0-4.533a3.679,3.679,0,0,1,3.861-3.83c1.558-.008,3.117,0,4.675,0a1.1,1.1,0,0,0,1.25-.844,1.037,1.037,0,0,0-.727-1.246,1.646,1.646,0,0,1-.058-3.192c.037-.018.058-.073.084-.112-.546-1.5-.292-2.114,1.219-2.933l-.4-1.463M60.189,41.752c1.573,0,3.08.009,4.586,0a1.254,1.254,0,0,0,1.39-1.5c-.2-3.64-.373-7.282-.623-10.918a2.354,2.354,0,0,1,.848-2.133,13.743,13.743,0,0,0,4.726-12.235,14.112,14.112,0,0,0-26.631-4.717c-.511,1.027-.463,1.328.346,2.158a1.341,1.341,0,0,1,.089,2.181Q43.08,16.793,41.237,19c-.14.169-.261.354-.485.662,1.242,0,2.316-.023,3.388.007a1.221,1.221,0,0,1,1.3,1.244,1.264,1.264,0,0,1-1.286,1.2c-1.236.1-1.236.1-1.588,1.294-.025.085-.04.173-.014.058.5.52,1.068.871,1.26,1.365a5.551,5.551,0,0,1,.045,1.842c1.65,1.057,1.625,2.217-.184,3.218a1.061,1.061,0,0,0,.482,2.044c1.583.012,3.166,0,4.749.007a3.679,3.679,0,0,1,3.909,3.927c.006,1.511-.006,3.023.006,4.534.006.755.393,1.295,1.047,1.32,1.262.048,2.526.014,3.8.014V23.232a7.372,7.372,0,1,1,8.47-8.852,7.054,7.054,0,0,1-.652,4.955,7.4,7.4,0,0,1-5.294,3.909ZM36.748,71.079a.737.737,0,0,0,.158-.088c3.9-4.1,7.85-8.15,11.677-12.315a6.93,6.93,0,0,0,1.483-6.8,6.691,6.691,0,0,0-10.822-3.608c-.453.388-.849.846-1.262,1.279-.89.932-1.474.939-2.347.023-.364-.382-.721-.772-1.105-1.132a6.531,6.531,0,0,0-9.864,1.108,7.725,7.725,0,0,0,.884,9.777q2.521,2.664,5.057,5.314,3.073,3.224,6.142,6.44M14.759,11.066a4.9,4.9,0,1,0,4.884,4.906,4.921,4.921,0,0,0-4.884-4.906m44.165,0a4.9,4.9,0,1,0,4.942,4.861,4.9,4.9,0,0,0-4.942-4.861" fill="#fff"/>
        <path id="Trazado_196998" data-name="Trazado 196998" d="M77.649,142.174a6.952,6.952,0,0,1-5.715-2.71,1.271,1.271,0,0,1,.038-1.907c.582-.474,1.274-.341,1.863.36a4.846,4.846,0,0,0,7.61-.015,1.243,1.243,0,1,1,1.906,1.538,6.9,6.9,0,0,1-5.7,2.734" transform="translate(-40.794 -78.285)" fill="#fff"/>
        <path id="Trazado_196999" data-name="Trazado 196999" d="M74.332,124.741c0-1.234.391-1.81,1.229-1.8s1.22.6,1.219,1.827c0,.215.012.432-.008.646a1.22,1.22,0,0,1-2.439-.025c-.013-.214,0-.431,0-.646" transform="translate(-42.391 -70.116)" fill="#fff"/>
        <path id="Trazado_197000" data-name="Trazado 197000" d="M93.893,124.8c0,1.235-.391,1.809-1.231,1.8s-1.218-.59-1.217-1.828c0-.215-.012-.432.007-.646a1.228,1.228,0,0,1,1.274-1.188,1.207,1.207,0,0,1,1.165,1.216c.013.214,0,.431,0,.646" transform="translate(-52.152 -70.117)" fill="#fff"/>
      </g>
    </g>
  </g>
</svg>
