<svg xmlns="http://www.w3.org/2000/svg" xmlns:xlink="http://www.w3.org/1999/xlink" width="108" height="108" viewBox="0 0 108 108">
  <defs>
    <clipPath id="clip-path">
      <rect id="Rectángulo_46483" data-name="Rectángulo 46483" width="53.369" height="61.492" fill="#fff"/>
    </clipPath>
  </defs>
  <g id="Grupo_155252" data-name="Grupo 155252" transform="translate(-1070 -8947)">
    <circle id="Elipse_5740" data-name="Elipse 5740" cx="54" cy="54" r="54" transform="translate(1070 8947)" fill="#baa1e1"/>
    <g id="Grupo_154944" data-name="Grupo 154944" transform="translate(1096.798 8969.615)">
      <g id="Grupo_154943" data-name="Grupo 154943" clip-path="url(#clip-path)">
        <path id="Trazado_196971" data-name="Trazado 196971" d="M20.818,0c1.294.233,2.611.38,3.878.715A19.013,19.013,0,0,1,35.859,8.7a20.406,20.406,0,0,1,3.278,12.951,29.643,29.643,0,0,1-6.352,16.41c-1.743,2.339-3.4,4.749-4.991,7.193a22.722,22.722,0,0,0-2.546,6.06,18.529,18.529,0,0,1-2.992,6.235,10.06,10.06,0,0,1-7.72,3.912,13.394,13.394,0,0,1-8.93-2.536,1.448,1.448,0,0,1-.573-.9c-.065-.742.756-1.05,1.485-.642a20.759,20.759,0,0,0,3.071,1.6,10.718,10.718,0,0,0,8.517-.273,9.2,9.2,0,0,0,4.385-5.133c.7-1.716,1.21-3.512,1.85-5.255A32.669,32.669,0,0,1,28.585,40.7c1.764-2.475,3.585-4.916,5.217-7.477a23.443,23.443,0,0,0,3.484-11.1,20.771,20.771,0,0,0-.59-7.374A17.479,17.479,0,0,0,29.272,4.689,17.18,17.18,0,0,0,17.784,1.914,17.271,17.271,0,0,0,6.732,7.372a17.732,17.732,0,0,0-4.9,12.709q.025,13.751,0,27.5a12.262,12.262,0,0,0,1.81,6.734c.389.62.316,1.118-.157,1.421s-.986.128-1.387-.509a12.653,12.653,0,0,1-2.043-6.8C.027,38.777-.06,29.128.07,19.482.173,11.931,3.7,6.231,10.207,2.433A17.922,17.922,0,0,1,17.951.092,3.873,3.873,0,0,0,18.415,0Z" transform="translate(0)" fill="#fff"/>
        <path id="Trazado_196972" data-name="Trazado 196972" d="M16.692,21.634a12.815,12.815,0,0,1,6.139.91,10.026,10.026,0,0,1,6.21,12.265c-.141.561-.312,1.115-.5,1.663-.218.641-.641.892-1.17.734a.91.91,0,0,1-.538-1.273,13.083,13.083,0,0,0,.729-4.291,7.424,7.424,0,0,0-3.222-6.191,10.286,10.286,0,0,0-6.929-2.037,8.635,8.635,0,0,0-1.586.3,1.77,1.77,0,0,0-1.276,1.126,13.383,13.383,0,0,0-.923,4.315c-.04.684-.385,1.027-.938,1s-.877-.46-.851-1.153a13.058,13.058,0,0,1,25.169-4.583c.209.539.379,1.1.535,1.652a.892.892,0,0,1-.574,1.2.862.862,0,0,1-1.133-.691,12.11,12.11,0,0,0-2.414-4.642A11.261,11.261,0,0,0,16.978,21.3c-.066.067-.123.142-.286.331" transform="translate(-6.12 -8.384)" fill="#fff"/>
        <path id="Trazado_196973" data-name="Trazado 196973" d="M22.4,70.168a6.34,6.34,0,0,1-5.664-3.875,6.627,6.627,0,0,1,1.031-7.6,3.357,3.357,0,0,0,.936-3.556,2.993,2.993,0,0,0-2.516-2.04c-.059-.009-.12-.012-.179-.02-.827-.116-1.19-.45-1.124-1.03s.483-.829,1.323-.748A4.682,4.682,0,0,1,20.3,54.283a4.573,4.573,0,0,1-.727,5.008,5.951,5.951,0,0,0-1.749,4.075,5.112,5.112,0,0,0,3.143,4.641,4.947,4.947,0,0,0,5.643-1.289,9.418,9.418,0,0,0,1.324-1.772c1.757-3.264,3.866-6.3,5.923-9.375a21.318,21.318,0,0,0,3.1-6.455c.314-1.212.462-2.468.681-3.7.031-.177.026-.36.058-.537.119-.656.495-.971,1.049-.892.51.073.764.463.727,1.122a21,21,0,0,1-2.893,9.483c-.461.794-.972,1.56-1.46,2.339q-2.771,4.416-5.543,8.833a11.361,11.361,0,0,1-2.584,3.048,6.628,6.628,0,0,1-4.585,1.36" transform="translate(-7.69 -22.731)" fill="#fff"/>
        <path id="Trazado_196974" data-name="Trazado 196974" d="M81.365,57.114a16.716,16.716,0,0,1,4.748-11.708c.472-.5,1.02-.567,1.418-.187a.915.915,0,0,1-.08,1.383,14.574,14.574,0,0,0-3.5,5.737,14.786,14.786,0,0,0,2.9,14.607c.2.246.439.467.643.713a.906.906,0,1,1-1.332,1.206,16.686,16.686,0,0,1-4.795-11.753" transform="translate(-42.062 -23.251)" fill="#fff"/>
        <path id="Trazado_196975" data-name="Trazado 196975" d="M92.52,61.181a11.246,11.246,0,0,1,3.114-7.826c.513-.55,1.04-.644,1.459-.267s.363.925-.13,1.476a9.495,9.495,0,0,0-2,10.084,9.129,9.129,0,0,0,1.96,3.132,1.266,1.266,0,0,1,.41.755,1.311,1.311,0,0,1-.465.869.808.808,0,0,1-1.078-.213,11.466,11.466,0,0,1-2.451-3.737,11.059,11.059,0,0,1-.817-4.273" transform="translate(-47.828 -27.326)" fill="#fff"/>
        <path id="Trazado_196976" data-name="Trazado 196976" d="M103.679,65.275a5.993,5.993,0,0,1,1.627-4.156.9.9,0,0,1,1.325-.192.865.865,0,0,1,.051,1.327,4.37,4.37,0,0,0-1.168,3.524,4.088,4.088,0,0,0,.937,2.166c.6.73.659,1.222.2,1.617-.484.413-.961.261-1.594-.5a5.82,5.82,0,0,1-1.373-3.791" transform="translate(-53.597 -31.387)" fill="#fff"/>
      </g>
    </g>
  </g>
</svg>
