<svg xmlns="http://www.w3.org/2000/svg" xmlns:xlink="http://www.w3.org/1999/xlink" width="108" height="108" viewBox="0 0 108 108">
  <defs>
    <clipPath id="clip-path">
      <rect id="Rectángulo_46485" data-name="Rectángulo 46485" width="71.37" height="60.501" fill="#fff"/>
    </clipPath>
  </defs>
  <g id="Grupo_155253" data-name="Grupo 155253" transform="translate(5510 2840)">
    <circle id="Elipse_5742" data-name="Elipse 5742" cx="54" cy="54" r="54" transform="translate(-5510 -2840)" fill="#baa1e1"/>
    <g id="Grupo_154948" data-name="Grupo 154948" transform="translate(-5492 -2817)">
      <g id="Grupo_154947" data-name="Grupo 154947" clip-path="url(#clip-path)">
        <path id="Trazado_196988" data-name="Trazado 196988" d="M107.214,25.393a50.067,50.067,0,0,1-1.947,8.31c-.135.468-.242.946-.407,1.4a27.441,27.441,0,0,0-1.443,10.253c.134,4.666.033,9.338.032,14.008a4.232,4.232,0,0,1-.02.7.893.893,0,0,1-1.768.02,3.46,3.46,0,0,1-.022-.626q0-9.513.008-19.027a5.066,5.066,0,0,1,.2-1.294c1.049-3.871,2.234-7.711,3.138-11.616a18.2,18.2,0,0,0-1.34-11.762,19.209,19.209,0,0,0-8.5-9.286C84.136.51,71.748,6.031,68.66,17.386a25.318,25.318,0,0,0-.616,6.567,2.507,2.507,0,0,1-.341,1.227c-1.431,2.363-2.9,4.7-4.358,7.048-.743,1.2-.432,1.973.927,2.307,1.1.271,2.2.525,3.36.8v.78q0,4.53,0,9.06a2.762,2.762,0,0,0,3.072,3.054c5.785.005,11.57,0,17.354.012a1.172,1.172,0,0,0,1-.473c1.584-1.885,3.187-3.754,4.787-5.626.15-.175.3-.44.487-.475.35-.067.84-.13,1.059.056s.234.679.224,1.035c-.005.19-.243.381-.392.557C93.45,45.4,91.661,47.479,89.9,49.581a1.23,1.23,0,0,1-1.073.471c-1.9-.019-3.805-.008-5.816-.008v.785q0,4.251,0,8.5a6.842,6.842,0,0,1-.024.7.816.816,0,0,1-.867.814.825.825,0,0,1-.887-.8,5.115,5.115,0,0,1-.033-.694q0-4.182,0-8.364v-.942h-.776c-3.252,0-6.5.008-9.757,0A4.529,4.529,0,0,1,66,46.71a6.38,6.38,0,0,1-.178-1.585c-.018-2.579-.023-5.157,0-7.736.005-.5-.134-.707-.623-.776a14.6,14.6,0,0,1-1.421-.335,3.086,3.086,0,0,1-2.026-4.933c1.091-1.781,2.141-3.593,3.327-5.31a6.955,6.955,0,0,0,1.2-4.074A19.29,19.29,0,0,1,76.07,4.831,17.972,17.972,0,0,1,87.921,2.37c9.123,1.181,15.154,6.264,18.228,14.87a32.842,32.842,0,0,1,.936,4.341c.042.2.086.4.13.605Z" transform="translate(-35.845 -1.293)" fill="#fff"/>
        <path id="Trazado_196989" data-name="Trazado 196989" d="M113.3,21.831c-.293.639-.565,1.249-.85,1.854a1.907,1.907,0,0,0,1.08,2.6c.2.07.4.133.592.2,1.551.549,1.628.614,1.673,2.28.026.948-.071,1.9-.1,2.849a1.117,1.117,0,0,1-.881,1.108,8.661,8.661,0,0,1-1.051.361,1.751,1.751,0,0,0-1.373,1.283,1.41,1.41,0,0,0,.067,1.431.817.817,0,0,1,.057.127c.89,1.926,1.2,1.655-.579,3.588-.532.578-1.162,1.065-1.747,1.594a1.112,1.112,0,0,1-1.352.15,8.879,8.879,0,0,0-1.388-.639,2.687,2.687,0,0,0-1.165-.035c-.845.142-1.217.737-1.472,1.528-.585,1.819-.339,1.762-2.6,1.894-.875.051-1.759-.07-2.639-.107a1.066,1.066,0,0,1-1.022-.8,8.624,8.624,0,0,1-.389-1.115,1.745,1.745,0,0,0-1.275-1.379,1.7,1.7,0,0,0-1.438.045c-2.117.984-1.724,1.324-3.814-.594-.544-.5-1-1.1-1.491-1.653a1.1,1.1,0,0,1-.163-1.349c.22-.434.384-.9.632-1.316a1.412,1.412,0,0,0,.06-1.3,2.029,2.029,0,0,0-1.457-1.388c-1.95-.636-1.956-.672-1.978-2.747a14.327,14.327,0,0,1,.152-2.564,1.843,1.843,0,0,1,.756-.95,2.5,2.5,0,0,1,1.038-.377,1.845,1.845,0,0,0,1.5-1.424,1.227,1.227,0,0,0-.031-1.178c-.127-.192-.179-.434-.311-.621a1.936,1.936,0,0,1,.39-2.873c.709-.632,1.39-1.3,2.087-1.943a1.118,1.118,0,0,1,1.408-.158c.409.217.855.369,1.253.6a1.519,1.519,0,0,0,1.369.052,2,2,0,0,0,1.357-1.486c.633-1.893.661-1.9,2.646-1.928a15.333,15.333,0,0,1,2.635.145,1.836,1.836,0,0,1,.964.737,2.606,2.606,0,0,1,.377,1.038,1.885,1.885,0,0,0,1.413,1.516,1.322,1.322,0,0,0,1.239-.046c.213-.137.482-.189.687-.334a1.825,1.825,0,0,1,2.691.38c.672.736,1.373,1.445,2.036,2.189a3.652,3.652,0,0,1,.4.75M93.777,20.008a2.37,2.37,0,0,0-.381.243c-.373.348-.713.734-1.1,1.062a.866.866,0,0,0-.2,1.311,2.706,2.706,0,0,1,.113,3.344,2.1,2.1,0,0,0-.236.651,1.582,1.582,0,0,1-1.121,1.12c-1.867.649-1.839.665-1.812,2.63.008.556.158.868.717.976a2.8,2.8,0,0,1,2.539,2.369,1.529,1.529,0,0,0,.239.5,1.636,1.636,0,0,1,.011,1.709c-.856,1.752-.818,1.741.6,3.083a.88.88,0,0,0,1.262.15,2.711,2.711,0,0,1,3.347-.115,1.674,1.674,0,0,0,.583.221,1.624,1.624,0,0,1,1.212,1.2c.624,1.828.644,1.8,2.612,1.752.553-.014.862-.17.976-.728a2.749,2.749,0,0,1,2.309-2.509,1.674,1.674,0,0,0,.564-.265,1.64,1.64,0,0,1,1.711,0c1.751.853,1.745.821,3.078-.613.37-.4.5-.718.176-1.2a2.753,2.753,0,0,1-.14-3.409,2.011,2.011,0,0,0,.238-.651,1.565,1.565,0,0,1,1.122-1.117c1.881-.656,1.853-.672,1.813-2.638-.011-.558-.178-.851-.733-.968a2.75,2.75,0,0,1-2.5-2.314,1.655,1.655,0,0,0-.267-.564,1.641,1.641,0,0,1,0-1.711c.847-1.738.813-1.73-.615-3.078-.4-.382-.727-.487-1.2-.173a2.739,2.739,0,0,1-3.4.138,2.073,2.073,0,0,0-.652-.233,1.585,1.585,0,0,1-1.116-1.125c-.649-1.861-.667-1.833-2.638-1.8-.556.008-.853.16-.972.72a2.754,2.754,0,0,1-2.308,2.51,1.707,1.707,0,0,0-.564.266,1.573,1.573,0,0,1-1.709,0c-.483-.273-1-.484-1.544-.742" transform="translate(-51.137 -9.058)" fill="#fff"/>
        <path id="Trazado_196990" data-name="Trazado 196990" d="M16.349,64.743q0,2.856,0,5.712c0,1.262-.469,1.741-1.709,1.743q-5.711.006-11.424,0c-1.249,0-1.724-.468-1.728-1.732q-.013-5.711,0-11.424c0-1.234.5-1.714,1.75-1.717q5.677-.012,11.354,0c1.28,0,1.753.491,1.755,1.776q0,2.821,0,5.642m-1.862-5.568H3.345V70.354H14.487Z" transform="translate(-0.868 -33.599)" fill="#fff"/>
        <path id="Trazado_196991" data-name="Trazado 196991" d="M16.111,8.052a8.1,8.1,0,0,1-8.063,8.074A8.063,8.063,0,0,1,8.024,0a8.1,8.1,0,0,1,8.087,8.052m-1.866-.367a6.164,6.164,0,0,0-6.4-5.839,6.169,6.169,0,0,0-6,6.529,6.167,6.167,0,0,0,6.416,5.906,6.171,6.171,0,0,0,5.986-6.6" transform="translate(0 0)" fill="#fff"/>
        <path id="Trazado_196992" data-name="Trazado 196992" d="M8.4,126.564c-2.043,0-4.086.007-6.129,0-1.424-.007-2.011-1.008-1.3-2.245q3.085-5.369,6.2-10.721a1.362,1.362,0,0,1,2.559.013q3.112,5.354,6.192,10.725c.708,1.234.113,2.223-1.322,2.228-2.066.008-4.133,0-6.2,0M8.446,115l-5.6,9.707H14.052L8.446,115" transform="translate(-0.394 -66.066)" fill="#fff"/>
        <path id="Trazado_196993" data-name="Trazado 196993" d="M59.543,126.377c0-1.181,0-2.246,0-3.311,0-.826.3-1.232.888-1.242s.919.4.922,1.208c0,1.693,0,3.386,0,5.168H45.03c-1.02,0-1.454-.264-1.473-.884-.02-.645.439-.936,1.494-.936H59.543" transform="translate(-25.532 -71.41)" fill="#fff"/>
        <path id="Trazado_196994" data-name="Trazado 196994" d="M50.559,17.281c1.809,0,3.617,0,5.426,0a1.572,1.572,0,0,1,.813.09c.271.187.614.543.6.8-.022.3-.36.633-.641.845-.17.128-.492.07-.746.07q-5.5,0-10.991,0c-1.02,0-1.45-.267-1.458-.891s.435-.92,1.436-.921q2.783,0,5.565,0" transform="translate(-25.533 -10.127)" fill="#fff"/>
        <path id="Trazado_196995" data-name="Trazado 196995" d="M45.981,74.9c-.486,0-.972.007-1.459,0a.854.854,0,0,1-.933-.832.819.819,0,0,1,.814-.943c1.085-.048,2.176-.05,3.261,0a.805.805,0,0,1,.787.957.822.822,0,0,1-.872.809c-.532.019-1.065,0-1.6,0v0" transform="translate(-25.549 -42.845)" fill="#fff"/>
        <path id="Trazado_196996" data-name="Trazado 196996" d="M114.693,37.95a4.97,4.97,0,1,1-4.95,4.967,4.966,4.966,0,0,1,4.95-4.967m-3.138,4.976a3.157,3.157,0,1,0,3.182-3.16,3.147,3.147,0,0,0-3.182,3.16" transform="translate(-64.329 -22.245)" fill="#fff"/>
      </g>
    </g>
  </g>
</svg>
