<svg xmlns="http://www.w3.org/2000/svg" xmlns:xlink="http://www.w3.org/1999/xlink" width="108" height="108" viewBox="0 0 108 108">
  <defs>
    <clipPath id="clip-path">
      <rect id="Rectángulo_46481" data-name="Rectángulo 46481" width="67.873" height="67.499" fill="#fff"/>
    </clipPath>
  </defs>
  <g id="Grupo_154939" data-name="Grupo 154939" transform="translate(-440 -8899)">
    <circle id="Elipse_5738" data-name="Elipse 5738" cx="54" cy="54" r="54" transform="translate(440 8899)" fill="#baa1e1"/>
    <g id="Grupo_154938" data-name="Grupo 154938" transform="translate(460 8919)">
      <g id="Grupo_154937" data-name="Grupo 154937" clip-path="url(#clip-path)">
        <path id="Trazado_196964" data-name="Trazado 196964" d="M0,35.73c.083-.27.168-.539.248-.809a3.56,3.56,0,0,1,1.97-2.362.682.682,0,0,0,.451-.752q-.02-3.247-.005-6.494A20.362,20.362,0,0,1,18.9,5.2a14.642,14.642,0,0,1,2.487-.346,63.488,63.488,0,0,1,10.24.181L30.6,3.237c-.621-1.086-.206-1.812,1.048-1.8,2.805.023,5.61.06,8.415.093.876.01,1.171.284,1.292,1.159q.533,3.836,1.081,7.67a1.125,1.125,0,0,0,.245.593A21.387,21.387,0,0,1,46.7,16.892l1.58-2.3c-.718-.427-1.4-.826-2.077-1.237-.824-.5-.926-1.042-.32-1.794q1.788-2.218,3.6-4.419c.51-.622,1.046-.723,1.538-.325s.495.963,0,1.573C50.037,9.606,49.045,10.819,48,12.1c.552.33,1.072.643,1.6.952,1.306.77,1.382,1.093.543,2.326-1.328,1.951-2.656,3.9-3.911,5.968l11.212-5.207c-.8-.475-1.487-.893-2.184-1.3-.412-.241-.794-.491-.8-1.043,0-.588.412-.832.851-1.071,3.137-1.709,6.273-3.421,9.54-5.2L55.994,2.283c-.735.9-1.44,1.8-2.193,2.659a1.4,1.4,0,0,1-.864.508,1.089,1.089,0,0,1-.844-.482,1.18,1.18,0,0,1,.034-1.032C53.054,2.7,54.036,1.5,55.04.329c.441-.516.973-.345,1.5-.035Q61.091,3,65.657,5.677c.514.3,1.032.6,1.538.912.918.572.9,1.421-.048,1.943q-4.525,2.485-9.063,4.948c-.174.094-.344.2-.61.351.806.477,1.555.927,2.311,1.365.439.255.916.572.749,1.11a1.787,1.787,0,0,1-.857.965q-5.287,2.516-10.619,4.937a1.042,1.042,0,0,0-.724,1.21c.089,2.715.077,5.432.074,8.149a.975.975,0,0,0,.608,1.071,3.624,3.624,0,0,1,1.991,2.951,6.687,6.687,0,0,1-2.169,6.166,1.172,1.172,0,0,0-.428.961q.02,7.787.008,15.573c0,1.271-.237,1.508-1.509,1.509H40.932c1.07,1.963,1.223,4.056,1.69,6.065.274,1.176-.093,1.634-1.286,1.634q-15.772,0-31.545,0c-1.2,0-1.568-.432-1.309-1.6.446-2.014.611-4.1,1.665-6.059-.327-.016-.556-.037-.786-.037q-2.585,0-5.169,0c-1.255,0-1.528-.27-1.528-1.5q0-7.787.007-15.574a1.131,1.131,0,0,0-.412-.968A7.255,7.255,0,0,1,0,37.586V35.73m7.858-5.277c0,3.413,0,6.745.007,10.077A6.761,6.761,0,0,0,8,41.714,12.652,12.652,0,0,0,20.628,52.3c3.29.014,6.581.028,9.871-.014a13.95,13.95,0,0,0,3.015-.343,12.562,12.562,0,0,0,9.738-12.368c.027-2.738-.036-5.478.029-8.215a1.491,1.491,0,0,0-1.076-1.683,16.223,16.223,0,0,1-6.625-5.929c-.393-.553-.757-1.127-1.146-1.71-3.823,2.919-8.2,4.531-12.706,5.844A68.14,68.14,0,0,1,7.858,30.454m-2.082,2.09a.673.673,0,0,0,.055-.158q.007-1.226.009-2.452c0-1.112.276-1.4,1.394-1.467A63.58,63.58,0,0,0,26.157,24.3a23.324,23.324,0,0,0,7.649-4.389c.811-.744,1.352-.613,1.952.324a44.5,44.5,0,0,0,2.769,4.029,11.32,11.32,0,0,0,5.921,4.143,1.02,1.02,0,0,1,.8,1.135c-.006.986,0,1.972,0,3.113.454-.4,1.2-.065,1.192-.922-.026-2.517-.022-5.035-.034-7.553,0-.2-.039-.41-.065-.68-.894.413-1.716.781-2.527,1.172a1.056,1.056,0,0,1-1.389-.14c-.435-.485-.274-.961.059-1.441.88-1.27,1.752-2.546,2.6-3.837a.913.913,0,0,0,.123-.7,17.056,17.056,0,0,0-2.648-4.71c-.076-.1-.2-.233-.293-.229-.672.032-1.341.1-2.034.151.122,2.311.237,4.581.362,6.851a1,1,0,0,1-.687,1.145.99.99,0,0,1-1.186-.5q-3.48-5.161-6.953-10.326c-.548-.819-.11-1.6.883-1.64.454-.018.909,0,1.428,0-.511-1.167-1.042-2.027-2.443-2.231a57.767,57.767,0,0,0-9.653-.253,16.2,16.2,0,0,0-3.139.435A18.227,18.227,0,0,0,4.776,23.476c-.2,2.857-.081,5.737-.1,8.606,0,.039.036.078.065.134l1.039.327M30.97,57.284a.457.457,0,0,0-.049.085,5.512,5.512,0,0,1-5.184,4.343c-2.609.052-4.493-1.367-5.494-4.11a.682.682,0,0,0-.507-.349c-.793-.026-1.588.015-2.383.02a.981.981,0,0,1-1.1-.909.939.939,0,0,1,.939-1.053c.68-.061,1.366-.047,2.05-.063.257-.005.514,0,.783,0v-.925c-.673-.083-1.313-.121-1.936-.244A14.531,14.531,0,0,1,6.486,43.96a.747.747,0,0,0-.386-.445,13.644,13.644,0,0,0-1.42-.274V57.808h.737c1.5,0,3-.041,4.5.014a3.5,3.5,0,0,0,2.9-.888.931.931,0,0,1,1.452.1A.973.973,0,0,1,14,58.484c-2.462,1.683-2.977,4.282-3.368,6.972H40.425c-.447-5.423-3.228-8.776-9.454-8.171M46.406,43.22a3.228,3.228,0,0,1-.768.168c-.732-.033-.97.381-1.2,1.009a14.356,14.356,0,0,1-10.669,9.525c-.889.214-1.812.293-2.7.431v.895c.464,0,.882.012,1.3,0a9.384,9.384,0,0,1,6.777,2.331,1.183,1.183,0,0,0,.719.222c1.988.017,3.976.011,5.964.007.187,0,.375-.034.579-.054ZM38.284,17.061l.122-.073c-.077-1.366-.167-2.731-.224-4.1-.034-.809.336-1.175,1.144-1.193.407-.009.814,0,1.3,0C40.228,8.906,39.85,6.23,39.465,3.5H33.077c.149.269.261.477.379.68,1.057,1.811,2.121,3.616,3.168,5.432.542.942.122,1.672-.959,1.7-.38.009-.761,0-1.257,0l3.876,5.745m-9.2,37.249H22.1c0,.787-.055,1.558.011,2.317a3.42,3.42,0,0,0,3.114,3.09,3.385,3.385,0,0,0,3.661-2.585,19.935,19.935,0,0,0,.2-2.822m16.16-12.931A4.641,4.641,0,0,0,48.9,38.092a4.513,4.513,0,0,0-.018-2.8,1.811,1.811,0,0,0-2.091-1.116c-.876.173-1.418.763-1.4,1.345a19.555,19.555,0,0,1,2.321.233.843.843,0,0,1,.6,1.1.925.925,0,0,1-1.077.76c-.153-.013-.3-.066-.454-.089-.64-.1-1.508.415-1.527.957-.035.965-.01,1.933-.01,2.9m-39.316.028c-.028-.442-.066-.875-.081-1.308a9.417,9.417,0,0,1,0-1.321.866.866,0,0,0-.576-1,3.92,3.92,0,0,0-1.319-.163c-.458.008-.907-.048-1.042-.5a1.61,1.61,0,0,1,.105-1.091,1.078,1.078,0,0,1,.78-.412c.657-.059,1.323-.019,1.975-.019a1.78,1.78,0,0,0-1.743-1.448,1.806,1.806,0,0,0-1.849,1.217,4.793,4.793,0,0,0,3.75,6.043" transform="translate(0 0)" fill="#fff"/>
        <path id="Trazado_196965" data-name="Trazado 196965" d="M27.727,63.857c-1.27-.254-2.441-.443-3.583-.743a1.555,1.555,0,0,1-.952-.757c-.293-.723.366-1.346,1.229-1.184,1.972.37,3.942.761,5.9,1.2a1.152,1.152,0,0,1,.752.7,1.238,1.238,0,0,1-.338,1.032c-1.469,1.166-2.984,2.274-4.5,3.379a.975.975,0,0,1-1.409-.208.96.96,0,0,1,.265-1.4c.676-.531,1.379-1.03,2.067-1.547.169-.126.324-.271.57-.479" transform="translate(-10.569 -27.95)" fill="#fff"/>
        <path id="Trazado_196966" data-name="Trazado 196966" d="M59.575,63.868c.9.674,1.68,1.249,2.453,1.828.694.52.863,1.1.473,1.613-.373.489-.969.495-1.631,0-1.364-1.01-2.721-2.031-4.088-3.037a1.073,1.073,0,0,1-.565-1.163c.125-.52.52-.708,1.015-.805,1.859-.362,3.712-.755,5.571-1.123.785-.155,1.324.16,1.423.792.091.579-.31,1.017-1.075,1.171l-3.576.72" transform="translate(-25.682 -27.949)" fill="#fff"/>
        <path id="Trazado_196967" data-name="Trazado 196967" d="M43.241,75.761a4.8,4.8,0,0,1,4.368,2.746,1.006,1.006,0,1,1-1.767.909,2.867,2.867,0,0,0-5.18-.007A1,1,0,1,1,38.9,78.5a4.779,4.779,0,0,1,4.339-2.743" transform="translate(-17.703 -34.63)" fill="#fff"/>
        <path id="Trazado_196968" data-name="Trazado 196968" d="M44.732,69.268c-.573,0-1.146.01-1.718,0a.987.987,0,0,1-1.1-.966.976.976,0,0,1,1.059-1.013q1.752-.026,3.5,0a.99.99,0,0,1,1.047.967,1,1,0,0,1-1.068,1.01c-.572.017-1.146,0-1.718,0" transform="translate(-19.156 -30.75)" fill="#fff"/>
      </g>
    </g>
  </g>
</svg>
