<svg xmlns="http://www.w3.org/2000/svg" xmlns:xlink="http://www.w3.org/1999/xlink" width="108" height="108" viewBox="0 0 108 108">
  <defs>
    <clipPath id="clip-path">
      <rect id="Rectángulo_46482" data-name="Rectángulo 46482" width="65" height="65" transform="translate(0 0)" fill="#fff"/>
    </clipPath>
  </defs>
  <g id="Grupo_154942" data-name="Grupo 154942" transform="translate(-755 -8899)">
    <circle id="Elipse_5739" data-name="Elipse 5739" cx="54" cy="54" r="54" transform="translate(755 8899)" fill="#baa1e1"/>
    <g id="Grupo_154941" data-name="Grupo 154941" transform="translate(776 8920)">
      <g id="Grupo_154940" data-name="Grupo 154940" clip-path="url(#clip-path)">
        <path id="Trazado_196969" data-name="Trazado 196969" d="M30.6,65c-1.462-.205-2.935-.353-4.384-.626a31.64,31.64,0,0,1-12.9-5.645A.958.958,0,1,1,14.439,57.2a28.427,28.427,0,0,0,9.445,4.649c11.632,3.061,21.857.483,30.453-7.968A28.546,28.546,0,0,0,62.774,36.8,29.866,29.866,0,0,0,53.94,10.707,28.894,28.894,0,0,0,36.807,2.225a29.874,29.874,0,0,0-26.09,8.826A29,29,0,0,0,2.225,28.18a30.065,30.065,0,0,0,7.795,25.058c.141.157.293.306.435.462.537.59.57,1.053.111,1.49s-.955.383-1.485-.165A32.33,32.33,0,0,1,.106,34.95,4.378,4.378,0,0,0,0,34.4V30.469c.207-1.439.363-2.888.63-4.316A32.5,32.5,0,0,1,26.836.5C28.042.3,29.258.165,30.469,0h4.062c.163.035.325.079.49.1,1.668.259,3.36.413,5,.788a32.438,32.438,0,0,1,24.486,26c.2,1.185.33,2.381.493,3.571v4.062c-.036.164-.082.325-.106.491-.221,1.5-.361,3.024-.668,4.51A32.506,32.506,0,0,1,38.162,64.5c-1.206.2-2.42.335-3.631.5Z" fill="#fff"/>
        <path id="Trazado_196970" data-name="Trazado 196970" d="M47.943,36.193a12.161,12.161,0,0,1,17.219,17.05c2.431,3.477,1.443,6.071-2.618,6.78-.186,2.4-1.518,3.69-3.949,3.921A3.945,3.945,0,0,1,54.652,67.9c-.743,3.94-3.439,5.014-6.645,2.675a3.865,3.865,0,0,1-6.644-2.649c-2.761-.578-3.472-1.287-3.944-3.967A3.92,3.92,0,0,1,33.479,60a3.756,3.756,0,0,1-3.615-2.382,3.829,3.829,0,0,1,.971-4.24,12.453,12.453,0,0,1-2.654-10.155A11.629,11.629,0,0,1,31.9,36.464a12.329,12.329,0,0,1,16.041-.271m.446,24.713c.157.017.322.03.485.052a3.511,3.511,0,0,1,3.081,2.308,5.239,5.239,0,0,0,1.461,2.078A1.714,1.714,0,0,0,56,65.4a1.763,1.763,0,0,0,.031-2.639c-.16-.169-.328-.33-.492-.495-1.9-1.9-3.81-3.789-5.684-5.714a1.281,1.281,0,0,1-.331-.992,1.036,1.036,0,0,1,.725-.664,1.521,1.521,0,0,1,1.025.44c2.042,2,4.048,4.029,6.072,6.044a1.668,1.668,0,0,0,2.185.325,1.764,1.764,0,0,0,.412-2.924c-2.041-2.057-4.1-4.1-6.143-6.153-.542-.545-.539-1.111-.02-1.519.452-.355.883-.3,1.394.211q2.472,2.464,4.937,4.936c.433.434.854.883,1.306,1.3a1.961,1.961,0,0,0,2.652-.069,1.575,1.575,0,0,0,.15-2.321,8.481,8.481,0,0,0-.965-1.089c-1.013-.991-2.052-1.956-3.061-2.95-.2-.2-.461-.5-.437-.72a1.255,1.255,0,0,1,.489-.911,1.206,1.206,0,0,1,1.068.129c.839.7,1.6,1.5,2.41,2.288A10.236,10.236,0,0,0,60.414,36.3a10.143,10.143,0,0,0-11.4,1.555c-2.275,2.149-4.454,4.4-6.645,6.636a2.071,2.071,0,0,0-.5,1.115A1.858,1.858,0,0,0,43,47.422,1.675,1.675,0,0,0,45.024,47q2.95-2.929,5.882-5.876c.78-.78,1.17-.812,1.97-.025,1.6,1.572,3.167,3.174,4.739,4.773.511.52.537,1.02.118,1.44s-.966.4-1.491-.126q-1.957-1.947-3.906-3.9c-.143-.143-.3-.274-.54-.491a6.618,6.618,0,0,1-.462.586q-2.462,2.474-4.933,4.94a3.575,3.575,0,0,1-2.453,1.175,4.071,4.071,0,0,1-3.707-2.432,3.4,3.4,0,0,1,.838-4c1.665-1.685,3.348-3.353,5.022-5.03.142-.142.271-.3.406-.446a10.248,10.248,0,0,0-13.439.4c-4.394,4.094-3.634,9.942-.745,14.047.641-.669,1.229-1.369,1.9-1.973a3.712,3.712,0,0,1,6.116,2.011c.068.322.109.65.162.973a3.864,3.864,0,0,1,2.78,1.131,3.993,3.993,0,0,1,1.132,2.783c2.5.28,3.567,1.349,3.973,3.952m-4.074-2.032a3.856,3.856,0,0,0-.974.542c-1.164,1.1-2.3,2.243-3.411,3.4a1.862,1.862,0,0,0,.006,2.624,1.808,1.808,0,0,0,2.568-.023c1.155-1.114,2.279-2.259,3.406-3.4a1.6,1.6,0,0,0,.348-1.92,2.111,2.111,0,0,0-1.944-1.218M43.215,68A2.1,2.1,0,0,0,44.4,69.729a1.73,1.73,0,0,0,2.044-.364q1.7-1.654,3.363-3.356a1.731,1.731,0,0,0-.033-2.585,1.712,1.712,0,0,0-2.585.017c-1.1,1.078-2.206,2.155-3.259,3.28A6.037,6.037,0,0,0,43.215,68m-9.676-9.945a2.285,2.285,0,0,0,.847-.366c1.3-1.237,2.585-2.486,3.8-3.8a1.63,1.63,0,0,0-.281-2.327,1.659,1.659,0,0,0-2.343-.14Q33.681,53.2,31.9,55.087a1.642,1.642,0,0,0-.186,1.954,1.818,1.818,0,0,0,1.829,1.01M42.6,56.94A2.372,2.372,0,0,0,41.25,55.1a1.641,1.641,0,0,0-1.914.4c-1.109,1.1-2.219,2.2-3.311,3.315A1.856,1.856,0,0,0,36,61.482a1.806,1.806,0,0,0,2.608-.064c1.119-1.088,2.231-2.187,3.306-3.319a5.817,5.817,0,0,0,.68-1.159m6.814,12.25c1.059.953,2.169.935,2.9-.011a1.778,1.778,0,0,0-.432-2.579l-2.47,2.591" transform="translate(-15.44 -18.391)" fill="#fff"/>
      </g>
    </g>
  </g>
</svg>
