<svg xmlns="http://www.w3.org/2000/svg" width="84.412" height="91.125" viewBox="0 0 84.412 91.125">
  <g id="Grupo_154807" data-name="Grupo 154807" transform="translate(-180 -1133.875)">
    <rect id="Rectángulo_45220" data-name="Rectángulo 45220" width="69.053" height="48.731" transform="translate(228.731 1133.875) rotate(90)" fill="#e4e4e4"/>
    <g id="Grupo_154806" data-name="Grupo 154806" transform="translate(216.304 1157.234)">
      <rect id="Rectángulo_45221" data-name="Rectángulo 45221" width="4.203" height="4.203" transform="translate(43.905 4.203) rotate(-90)" fill="#1894f6"/>
      <rect id="Rectángulo_45222" data-name="Rectángulo 45222" width="4.203" height="4.203" transform="translate(43.905 13.132) rotate(-90)" fill="#1894f6"/>
      <rect id="Rectángulo_45223" data-name="Rectángulo 45223" width="4.203" height="4.203" transform="translate(43.905 22.363) rotate(-90)" fill="#1894f6"/>
      <rect id="Rectángulo_45224" data-name="Rectángulo 45224" width="4.202" height="4.203" transform="translate(43.905 31.444) rotate(-90)" fill="#1894f6"/>
      <rect id="Rectángulo_45225" data-name="Rectángulo 45225" width="4.203" height="4.203" transform="translate(43.905 40.525) rotate(-90)" fill="#1894f6"/>
      <rect id="Rectángulo_45226" data-name="Rectángulo 45226" width="4.202" height="4.203" transform="translate(43.905 49.605) rotate(-90)" fill="#1894f6"/>
      <rect id="Rectángulo_45227" data-name="Rectángulo 45227" width="4.203" height="4.203" transform="translate(43.905 58.686) rotate(-90)" fill="#1894f6"/>
      <rect id="Rectángulo_45228" data-name="Rectángulo 45228" width="4.202" height="4.203" transform="translate(43.905 67.766) rotate(-90)" fill="#1894f6"/>
      <rect id="Rectángulo_45232" data-name="Rectángulo 45232" width="4.203" height="4.203" transform="translate(34.975 4.203) rotate(-90)" fill="#1894f6"/>
      <rect id="Rectángulo_45233" data-name="Rectángulo 45233" width="4.203" height="4.203" transform="translate(34.975 13.132) rotate(-90)" fill="#1894f6"/>
      <rect id="Rectángulo_45234" data-name="Rectángulo 45234" width="4.203" height="4.203" transform="translate(34.975 22.363) rotate(-90)" fill="#1894f6"/>
      <rect id="Rectángulo_45235" data-name="Rectángulo 45235" width="4.202" height="4.203" transform="translate(34.975 31.444) rotate(-90)" fill="#1894f6"/>
      <rect id="Rectángulo_45236" data-name="Rectángulo 45236" width="4.203" height="4.203" transform="translate(34.975 40.525) rotate(-90)" fill="#1894f6"/>
      <rect id="Rectángulo_45237" data-name="Rectángulo 45237" width="4.202" height="4.203" transform="translate(34.975 49.605) rotate(-90)" fill="#1894f6"/>
      <rect id="Rectángulo_45238" data-name="Rectángulo 45238" width="4.203" height="4.203" transform="translate(34.975 58.686) rotate(-90)" fill="#1894f6"/>
      <rect id="Rectángulo_45239" data-name="Rectángulo 45239" width="4.202" height="4.203" transform="translate(34.975 67.766) rotate(-90)" fill="#1894f6"/>
      <rect id="Rectángulo_45243" data-name="Rectángulo 45243" width="4.203" height="4.203" transform="translate(26.044 4.203) rotate(-90)" fill="#1894f6"/>
      <rect id="Rectángulo_45244" data-name="Rectángulo 45244" width="4.203" height="4.203" transform="translate(26.044 13.132) rotate(-90)" fill="#1894f6"/>
      <rect id="Rectángulo_45245" data-name="Rectángulo 45245" width="4.203" height="4.203" transform="translate(26.044 22.363) rotate(-90)" fill="#1894f6"/>
      <rect id="Rectángulo_45246" data-name="Rectángulo 45246" width="4.202" height="4.203" transform="translate(26.044 31.444) rotate(-90)" fill="#1894f6"/>
      <rect id="Rectángulo_45247" data-name="Rectángulo 45247" width="4.203" height="4.203" transform="translate(26.044 40.525) rotate(-90)" fill="#1894f6"/>
      <rect id="Rectángulo_45248" data-name="Rectángulo 45248" width="4.202" height="4.203" transform="translate(26.044 49.605) rotate(-90)" fill="#1894f6"/>
      <rect id="Rectángulo_45249" data-name="Rectángulo 45249" width="4.203" height="4.203" transform="translate(26.044 58.686) rotate(-90)" fill="#1894f6"/>
      <rect id="Rectángulo_45250" data-name="Rectángulo 45250" width="4.202" height="4.203" transform="translate(26.044 67.766) rotate(-90)" fill="#1894f6"/>
      <rect id="Rectángulo_45221-2" data-name="Rectángulo 45221" width="4.203" height="4.203" transform="translate(17.861 4.203) rotate(-90)" fill="#1894f6"/>
      <rect id="Rectángulo_45222-2" data-name="Rectángulo 45222" width="4.203" height="4.203" transform="translate(17.861 13.132) rotate(-90)" fill="#1894f6"/>
      <rect id="Rectángulo_45223-2" data-name="Rectángulo 45223" width="4.203" height="4.203" transform="translate(17.861 22.363) rotate(-90)" fill="#1894f6"/>
      <rect id="Rectángulo_45224-2" data-name="Rectángulo 45224" width="4.202" height="4.203" transform="translate(17.861 31.444) rotate(-90)" fill="#1894f6"/>
      <rect id="Rectángulo_45225-2" data-name="Rectángulo 45225" width="4.203" height="4.203" transform="translate(17.861 40.525) rotate(-90)" fill="#1894f6"/>
      <rect id="Rectángulo_45226-2" data-name="Rectángulo 45226" width="4.202" height="4.203" transform="translate(17.861 49.605) rotate(-90)" fill="#1894f6"/>
      <rect id="Rectángulo_45227-2" data-name="Rectángulo 45227" width="4.203" height="4.203" transform="translate(17.861 58.686) rotate(-90)" fill="#1894f6"/>
      <rect id="Rectángulo_45228-2" data-name="Rectángulo 45228" width="4.202" height="4.203" transform="translate(17.861 67.766) rotate(-90)" fill="#1894f6"/>
      <rect id="Rectángulo_45232-2" data-name="Rectángulo 45232" width="4.203" height="4.203" transform="translate(8.93 4.203) rotate(-90)" fill="#1894f6"/>
      <rect id="Rectángulo_45233-2" data-name="Rectángulo 45233" width="4.203" height="4.203" transform="translate(8.93 13.132) rotate(-90)" fill="#1894f6"/>
      <rect id="Rectángulo_45234-2" data-name="Rectángulo 45234" width="4.203" height="4.203" transform="translate(8.93 22.363) rotate(-90)" fill="#1894f6"/>
      <rect id="Rectángulo_45235-2" data-name="Rectángulo 45235" width="4.202" height="4.203" transform="translate(8.93 31.444) rotate(-90)" fill="#1894f6"/>
      <rect id="Rectángulo_45236-2" data-name="Rectángulo 45236" width="4.203" height="4.203" transform="translate(8.93 40.525) rotate(-90)" fill="#1894f6"/>
      <rect id="Rectángulo_45237-2" data-name="Rectángulo 45237" width="4.202" height="4.203" transform="translate(8.93 49.605) rotate(-90)" fill="#1894f6"/>
      <rect id="Rectángulo_45238-2" data-name="Rectángulo 45238" width="4.203" height="4.203" transform="translate(8.93 58.686) rotate(-90)" fill="#1894f6"/>
      <rect id="Rectángulo_45239-2" data-name="Rectángulo 45239" width="4.202" height="4.203" transform="translate(8.93 67.766) rotate(-90)" fill="#1894f6"/>
      <rect id="Rectángulo_45243-2" data-name="Rectángulo 45243" width="4.203" height="4.203" transform="translate(0 4.203) rotate(-90)" fill="#1894f6"/>
      <rect id="Rectángulo_45244-2" data-name="Rectángulo 45244" width="4.203" height="4.203" transform="translate(0 13.132) rotate(-90)" fill="#1894f6"/>
      <rect id="Rectángulo_45245-2" data-name="Rectángulo 45245" width="4.203" height="4.203" transform="translate(0 22.363) rotate(-90)" fill="#1894f6"/>
      <rect id="Rectángulo_45246-2" data-name="Rectángulo 45246" width="4.202" height="4.203" transform="translate(0 31.444) rotate(-90)" fill="#1894f6"/>
      <rect id="Rectángulo_45247-2" data-name="Rectángulo 45247" width="4.203" height="4.203" transform="translate(0 40.525) rotate(-90)" fill="#1894f6"/>
      <rect id="Rectángulo_45248-2" data-name="Rectángulo 45248" width="4.202" height="4.203" transform="translate(0 49.605) rotate(-90)" fill="#1894f6"/>
      <rect id="Rectángulo_45249-2" data-name="Rectángulo 45249" width="4.203" height="4.203" transform="translate(0 58.686) rotate(-90)" fill="#1894f6"/>
      <rect id="Rectángulo_45250-2" data-name="Rectángulo 45250" width="4.202" height="4.203" transform="translate(0 67.766) rotate(-90)" fill="#1894f6"/>
    </g>
  </g>
</svg>
