<svg xmlns="http://www.w3.org/2000/svg" xmlns:xlink="http://www.w3.org/1999/xlink" width="148.418" height="163.02" viewBox="0 0 148.418 163.02">
  <defs>
    <clipPath id="clip-path">
      <rect id="Rectángulo_46455" data-name="Rectángulo 46455" width="120.418" height="163.02" fill="#2194e5"/>
    </clipPath>
  </defs>
  <g id="Grupo_154809" data-name="Grupo 154809" transform="translate(-228.033 -775.631)">
    <g id="Grupo_152595" data-name="Grupo 152595" transform="translate(266.118 875.715) rotate(180)">
      <rect id="Rectángulo_45221" data-name="Rectángulo 45221" width="7.254" height="7.254" transform="translate(30.83 30.831)" fill="#7f4fc7"/>
      <rect id="Rectángulo_45222" data-name="Rectángulo 45222" width="7.254" height="7.254" transform="translate(15.415 30.831)" fill="#7f4fc7"/>
      <rect id="Rectángulo_45223" data-name="Rectángulo 45223" width="7.254" height="7.254" transform="translate(0 30.831)" fill="#7f4fc7"/>
      <rect id="Rectángulo_45232" data-name="Rectángulo 45232" width="7.254" height="7.254" transform="translate(30.83 15.415)" fill="#7f4fc7"/>
      <rect id="Rectángulo_45233" data-name="Rectángulo 45233" width="7.254" height="7.254" transform="translate(15.415 15.415)" fill="#7f4fc7"/>
      <rect id="Rectángulo_45234" data-name="Rectángulo 45234" width="7.254" height="7.254" transform="translate(0 15.415)" fill="#7f4fc7"/>
      <rect id="Rectángulo_45243" data-name="Rectángulo 45243" width="7.254" height="7.254" transform="translate(30.83)" fill="#7f4fc7"/>
      <rect id="Rectángulo_45244" data-name="Rectángulo 45244" width="7.254" height="7.254" transform="translate(15.415)" fill="#7f4fc7"/>
      <rect id="Rectángulo_45245" data-name="Rectángulo 45245" width="7.254" height="7.254" transform="translate(0)" fill="#7f4fc7"/>
    </g>
    <g id="Grupo_154903" data-name="Grupo 154903" transform="translate(256.033 775.631)">
      <g id="Grupo_154903-2" data-name="Grupo 154903" clip-path="url(#clip-path)">
        <path id="Trazado_196853" data-name="Trazado 196853" d="M46.872,163.02c-.772-.646-1.7-.322-2.538-.335-5.709-.09-11.191-1.064-16.092-4.169A27.171,27.171,0,0,1,15,136.54c-.135-1.8-.227-3.6-.253-5.4-.01-.72-.279-.977-.934-1.189-9.572-3.088-12.2-13.68-5.178-20.834a1.611,1.611,0,0,0,.538-1.516c-.816-6.469-1.768-12.923-2.27-19.426a76.039,76.039,0,0,1-.229-11.922c.174-2.184.882-2.939,3.059-2.945,5.306-.016,10.612.008,15.917-.026.491,0,1.4.4,1.428-.392.034-.951.43-2.223-.9-2.766a30.672,30.672,0,0,1-7.665-4.445,1.279,1.279,0,0,0-1.574-.1c-1.24.593-2.5,1.144-3.77,1.67-2.571,1.065-4.748.419-6.149-1.935Q3.814,59.922.745,54.45c-1.3-2.328-.929-4.847,1.371-6.128,3.336-1.859,4.795-4.241,3.771-8.016a3.978,3.978,0,0,1,.048-2.054c.82-2.792-.391-4.374-2.723-5.857-3.7-2.356-4-4.342-1.816-8.119,1.8-3.117,3.582-6.243,5.4-9.349,1.6-2.736,3.834-3.673,6.544-2.122,3.071,1.759,5.587,1.844,8.258-.652a11.084,11.084,0,0,1,3.91-2.05A2.185,2.185,0,0,0,27.126,7.76c.039-1.163.2-2.324.334-3.482A4.547,4.547,0,0,1,32.018.041q6.446-.083,12.892,0a4.491,4.491,0,0,1,4.511,4.089c.22,1.682-.028,3.592.709,4.993.744,1.417,2.89,1.493,4.285,2.415A17.486,17.486,0,0,1,57.2,13.363c1.369,1.354,2.679,1.288,4.181.347a14.126,14.126,0,0,1,1.872-.861c3.178-1.389,5.2-.741,6.942,2.234,1.018,1.735,2.07,3.452,3.014,5.227a1.655,1.655,0,0,0,1.744,1c2.28-.058,4.563-.047,6.844-.01,2.882.046,4.823,1.688,4.819,4.584,0,3.346.954,5.645,4.429,6.686a12.33,12.33,0,0,1,4.01,2.52,2.086,2.086,0,0,0,2.668.249,35.08,35.08,0,0,1,3.474-1.553,4.4,4.4,0,0,1,5.695,1.766q3.4,5.643,6.571,11.421a4.266,4.266,0,0,1-1.193,5.693c-1.391,1.137-3.463,1.889-4.139,3.327s.026,3.506.1,5.3a4.365,4.365,0,0,1-.063,1.426c-.881,2.9.288,4.752,2.843,6.088a5.067,5.067,0,0,1,2.975,3.89c.094.772.6.582,1.036.6,4.688.209,4.74.255,4.839,4.915.206,9.684-1.559,19.088-4.109,28.37a2.112,2.112,0,0,0,.7,2.543,12.216,12.216,0,0,1-4.7,20.691,1.7,1.7,0,0,0-1.462,1.96c.043,5.292-.511,10.478-2.964,15.29-.241.471-.482.943-.745,1.4-.981,1.712-1.725,2.005-3.658,1.465a2.726,2.726,0,0,1-.512-3.826,19.9,19.9,0,0,0,2.742-8.222,247.8,247.8,0,0,0,.514-26.553,2.54,2.54,0,0,0-1.37-2.4,14.024,14.024,0,0,1-4.018-4.027,29.612,29.612,0,0,1-4.386-9.8,10.818,10.818,0,0,0-17.978-5.4,21.789,21.789,0,0,1-13.587,5.525,23.844,23.844,0,0,1-17.5-5.758,9.2,9.2,0,0,0-5.679-2.54c-4.53-1-9.7,2.049-11.444,6.777-.383,1.041-.638,2.128-1,3.176-1.728,4.972-3.918,9.642-8.623,12.557-.663.41-.566.938-.58,1.5-.207,8.375-.2,16.746.26,25.114a22.829,22.829,0,0,0,15.07,20.335c4.846,1.764,9.9,1.492,14.92,1.553a4.887,4.887,0,0,0,.624.1c11.163.389,22.321.235,33.473-.347a21.891,21.891,0,0,0,12.054-4.318,2.915,2.915,0,0,1,3.762-.175c.98,2.091.787,2.783-1.048,4.129-5.224,3.833-11.177,5.228-17.537,5.355-1,.02-2.062-.293-3,.339H75.842a1.719,1.719,0,0,0-2.229,0H51.965a1.376,1.376,0,0,0-1.91,0ZM10.663,32.456a7.933,7.933,0,0,1,.289,3.574,24.527,24.527,0,0,0-.013,7.73,7.946,7.946,0,0,1-.293,3.729.229.229,0,0,0-.106.207c-.223.036-.291.191-.3.391L6.376,51.159c-.594.437-1.776.484-1.028,1.757,1.807,3.077,3.574,6.178,5.356,9.27.29.5.6.9,1.17.3,1.214-.505,2.445-.974,3.639-1.524a4.939,4.939,0,0,1,5.614.679,25.457,25.457,0,0,0,6.946,4.052,6.446,6.446,0,0,1,3.191,2.462,30.908,30.908,0,0,1,.595,3.842c.046,1.274.577,1.528,1.656,1.226.952.02,1.9.051,2.855.055.4,0,.863.113.918-.551.174-2.113,1.7-3.254,3.306-4.179,2.125-1.223,3.2-2.653,2.592-5.312-.3-1.295-.487-1.552-1.763-1.376A21.478,21.478,0,0,1,23.082,55.9c-1.486-1.384-1.547-2.306-.425-4.023,1.535-1,2.724-.437,3.947.7A16.966,16.966,0,0,0,42.182,56.9c.407-.08,1.05.019,1.182-.586s-.471-.759-.828-1.028c-.973-.734-1.974-1.431-2.951-2.159-2.51-1.869-3.006-4.084-1.469-6.787q2.905-5.109,5.878-10.18c1.585-2.71,3.7-3.388,6.587-2.156,1.486.635,2.965,1.285,4.477,1.941a2.881,2.881,0,0,0-.351-2.109A17.351,17.351,0,0,0,21.563,43.88c.381,1.6.373,2.922-1.12,3.905-2.242.131-2.954-.347-3.467-2.331-4.153-16.035,10.38-30.909,26.5-27.071a21.4,21.4,0,0,1,15.516,13.3c.386.929.615.959,1.617.657,2.919-.876,4.164-2.662,3.885-5.646a6.751,6.751,0,0,1,.2-1.575,5.15,5.15,0,0,1,1.492-2.736c.555-.6,1.886-.5,1.821-1.376-.059-.807-.82-1.562-1.271-2.341a8.379,8.379,0,0,1-.467-.829c-.289-.669-.671-.809-1.361-.467-1.277.634-2.59,1.2-3.91,1.742a4.5,4.5,0,0,1-4.8-.567,31.731,31.731,0,0,0-8.08-4.668,4.442,4.442,0,0,1-2.887-4.028c-.122-1.372-.333-2.737-.437-4.11C44.735,5,44.458,4.782,43.71,4.8c-3.393.061-6.787.054-10.181.071C32.5,4.555,32.162,4.974,32.065,6a28.179,28.179,0,0,1-.823,5.786A5.725,5.725,0,0,1,28.9,13.834a31.5,31.5,0,0,0-8.189,4.715,4.513,4.513,0,0,1-4.781.568c-1.365-.556-2.708-1.167-4.06-1.755-.887-.656-1.052.178-1.341.673C8.923,20.8,7.4,23.62,5.7,26.329c-.782,1.247-.708,1.954.707,2.419,1.349,1.317,3.2,2.063,4.259,3.708m97.751,40.78.158-.3q-1.643-1.2-3.286-2.392a4.891,4.891,0,0,1-2.174-5.221,24.631,24.631,0,0,0-.028-8.386,4.729,4.729,0,0,1,1.929-4.881c1.012-.771,2.029-1.542,3.1-2.228.823-.528,1.02-1,.47-1.911-1.726-2.858-3.389-5.754-5.012-8.672-.486-.873-.99-.9-1.793-.5-1.185.589-2.4,1.111-3.627,1.621a4.388,4.388,0,0,1-4.661-.512,33.244,33.244,0,0,0-8.223-4.761,4.309,4.309,0,0,1-2.8-3.747c-.16-1.367-.426-2.728-.483-4.1-.043-1.034-.51-1.19-1.394-1.175-2.651.044-5.3.015-7.956.015-3.162,0-3.162,0-3.47,3.137-.237,2.42-.571,4.824-3.208,5.9a33.5,33.5,0,0,0-8.091,4.673,4.443,4.443,0,0,1-4.8.539c-1.118-.485-2.241-.961-3.338-1.49-.9-.437-1.521-.564-2.09.6-.952,1.947-2.154,3.771-3.219,5.665-.7,1.24-2.093,2.483-1.88,3.737.23,1.351,2.013,2.022,3.227,2.828a5,5,0,0,1,2.449,5.268,24.39,24.39,0,0,0-.038,7.907,5.526,5.526,0,0,1-2.944,6.269,6.509,6.509,0,0,0-2.372,2.038H71.1C63.339,69.3,62.243,62.821,63.335,58.3a12.614,12.614,0,0,1,24.334-.965,12.257,12.257,0,0,1-.6,9.28,13.6,13.6,0,0,1-7.228,6.623ZM63.353,78.07V78.1q-25.227,0-50.454-.022c-1.1,0-1.6.148-1.586,1.435.083,8.669,1.329,17.223,2.424,25.794.057.447.065.838.714.744a7.349,7.349,0,0,0,3.881-1.2,14.868,14.868,0,0,0,3.687-4.532,41.643,41.643,0,0,0,2.921-7.534A15.411,15.411,0,0,1,41.7,82.095a16.467,16.467,0,0,1,8.642,4.046A18.5,18.5,0,0,0,61.23,90.462a19.545,19.545,0,0,0,14.223-4.834,14.631,14.631,0,0,1,13.377-3.25c5.965,1.448,9.763,5.265,11.528,11.123,1.106,3.67,2.393,7.25,5.051,10.144a6.466,6.466,0,0,0,4.518,2.365c.77.042,1.1-.076,1.317-.893a104.534,104.534,0,0,0,3.89-25.228c.019-1.4-.284-1.863-1.8-1.858-16.659.062-33.318.039-49.977.039M83.5,61.176a7.853,7.853,0,1,0-7.837,7.912A7.9,7.9,0,0,0,83.5,61.176m-68.807,64.1c0-4.526-.043-8.757.026-12.987.021-1.271-.344-1.364-1.31-.789a7.289,7.289,0,0,0-3.917,6.959c.162,3.2,1.866,5.41,5.2,6.816m95.77-.2a3.416,3.416,0,0,0,2.025-.866c4.582-3.25,4.042-10.425-.95-12.774-.554-.261-1.09-.624-1.085.483.022,4.373.009,8.747.009,13.157" transform="translate(0 0)" fill="#2194e5"/>
        <path id="Trazado_196854" data-name="Trazado 196854" d="M143.492,11.564A2.677,2.677,0,0,1,142.25,13.7c-2.962,2.036-5.9,4.1-8.882,6.113a2.385,2.385,0,0,1-3.5-.5,2.421,2.421,0,0,1,.82-3.44c2.942-2.065,5.912-4.089,8.869-6.133a2.441,2.441,0,0,1,2.689-.23,2.374,2.374,0,0,1,1.242,2.046" transform="translate(-46.43 -3.305)" fill="#2194e5"/>
        <path id="Trazado_196855" data-name="Trazado 196855" d="M125.906,10.924a2.226,2.226,0,0,1-2.24-2.894,63.015,63.015,0,0,1,2.318-6.7A2.094,2.094,0,0,1,128.769.155a2.1,2.1,0,0,1,1.592,2.569,41.916,41.916,0,0,1-2.472,7.138,1.971,1.971,0,0,1-1.982,1.062" transform="translate(-44.318 -0.003)" fill="#2194e5"/>
        <path id="Trazado_196856" data-name="Trazado 196856" d="M141.325,33.089c-.953,0-1.91.052-2.859-.012a2.379,2.379,0,0,1-2.328-2.345,2.344,2.344,0,0,1,2.42-2.4c1.852-.04,3.709-.036,5.559.047a2.376,2.376,0,1,1-.091,4.747c-.9.031-1.8.006-2.7.006v-.047" transform="translate(-48.826 -10.154)" fill="#2194e5"/>
        <path id="Trazado_196857" data-name="Trazado 196857" d="M89.928,213.116c-3.868-.161-7.569-2.344-10.012-6.586-.908-1.575-.584-3,.729-3.709,1.284-.7,2.452-.248,3.4,1.312,3.474,5.691,10.462,5.685,13.953-.014.943-1.541,2.137-1.993,3.418-1.294,1.317.717,1.578,2.067.716,3.7-2.155,4.073-6.489,6.631-12.206,6.6" transform="translate(-28.477 -72.627)" fill="#2194e5"/>
        <path id="Trazado_196858" data-name="Trazado 196858" d="M60.735,181.1a7.745,7.745,0,0,1,0-11.492c2.224-.7,3.67-.178,4.736,1.871a8.016,8.016,0,0,1,0,7.746c-1.063,2.047-2.51,2.572-4.735,1.876" transform="translate(-20.867 -60.724)" fill="#2194e5"/>
        <path id="Trazado_196859" data-name="Trazado 196859" d="M132.211,175.252a7.047,7.047,0,0,1-1.671,4.994,3.031,3.031,0,0,1-4.723.089c-2.356-2.437-2.34-7.668.031-10.083a3.011,3.011,0,0,1,4.613.038,6.916,6.916,0,0,1,1.75,4.962" transform="translate(-44.494 -60.682)" fill="#2194e5"/>
      </g>
    </g>
  </g>
</svg>
