<svg xmlns="http://www.w3.org/2000/svg" xmlns:xlink="http://www.w3.org/1999/xlink" width="85" height="85" viewBox="0 0 85 85">
  <defs>
    <clipPath id="clip-path">
      <rect id="Rectángulo_46544" data-name="Rectángulo 46544" width="48.309" height="48.323" fill="#fff"/>
    </clipPath>
  </defs>
  <g id="Grupo_155229" data-name="Grupo 155229" transform="translate(-809.958 -990)">
    <circle id="Elipse_5722" data-name="Elipse 5722" cx="42.5" cy="42.5" r="42.5" transform="translate(809.958 990)" fill="#7f4fc7"/>
    <g id="Grupo_155110" data-name="Grupo 155110" transform="translate(827.958 1008)">
      <g id="Grupo_155109" data-name="Grupo 155109" transform="translate(0 0)" clip-path="url(#clip-path)">
        <path id="Trazado_197139" data-name="Trazado 197139" d="M40.931,50.682h1.628c1.758,0,3.517.025,5.275-.007a3.476,3.476,0,0,1,3.449,1.882,3.407,3.407,0,0,1-.463,3.882,3.538,3.538,0,0,1,.845,2.6,3.453,3.453,0,0,1-1.286,2.4,3.544,3.544,0,0,1-.765,4.629,3.626,3.626,0,0,1,.467,2.513,3.427,3.427,0,0,1-3.4,2.814c-3.037.011-6.074,0-9.111,0H31.818a4.763,4.763,0,0,1-2.559-.529c-.372.554-.962.536-1.563.533-2.269-.01-4.539,0-6.809,0-1.016,0-1.434-.412-1.434-1.415q0-8.943,0-17.886c0-1.006.416-1.415,1.433-1.416q3.5,0,7,0c1.175,0,1.539.366,1.541,1.549,0,.143,0,.286,0,.531.408-.262.744-.516,1.112-.707a6.511,6.511,0,0,0,2.35-2.363,6.14,6.14,0,0,0,1.163-4.153c-.1-1.142-.022-2.3-.019-3.451,0-.968.44-1.415,1.419-1.37a9.3,9.3,0,0,1,1.8.233c2.348.583,3.633,2.321,3.676,4.957.026,1.566,0,3.132,0,4.773m-4.6-7.564c0,1.546-.013,3.063.007,4.58a2.34,2.34,0,0,1-.387,1.35,32.924,32.924,0,0,0-1.739,2.865A3.179,3.179,0,0,1,33,53.2c-1.065.677-2.107,1.389-3.176,2.059a.739.739,0,0,0-.4.722c.013,3.644.007,7.288.008,10.931A1.954,1.954,0,0,0,31.615,69.1H46.382c.112,0,.224,0,.336,0a1.147,1.147,0,0,0,.005-2.294c-.207-.013-.416,0-.623,0a1.16,1.16,0,1,1-.022-2.3c.447,0,.9.008,1.342,0a1.149,1.149,0,1,0-.012-2.3c-.463-.012-.927,0-1.39,0a1.152,1.152,0,1,1,0-2.3c.7-.009,1.406,0,2.11,0a1.152,1.152,0,1,0,.016-2.3c-.687-.01-1.375,0-2.062,0a1.16,1.16,0,1,1,.018-2.3c.719,0,1.439.015,2.157-.009a1.138,1.138,0,0,0,1.118-1.146,1.155,1.155,0,0,0-1.122-1.144c-.143-.009-.288,0-.431,0q-3.908,0-7.815,0c-.94,0-1.366-.434-1.369-1.384,0-.815.009-1.63,0-2.445-.018-1.277.007-2.559-.092-3.83-.1-1.3-.819-1.967-2.208-2.206m-9.242,9.905H21.779V69.077h5.312Z" transform="translate(-11.027 -23.082)" fill="#fff"/>
        <path id="Trazado_197140" data-name="Trazado 197140" d="M40.017,13.965c.2-1.16.391-2.358.622-3.548a.983.983,0,0,0-.325-1.045c-.828-.751-1.608-1.554-2.412-2.331a1.184,1.184,0,0,1-.426-1.281,1.166,1.166,0,0,1,1.061-.83c1.2-.168,2.4-.338,3.6-.542a.824.824,0,0,0,.522-.374c.553-1.06,1.075-2.137,1.6-3.215a1.18,1.18,0,0,1,2.235,0c.52,1.078,1.042,2.155,1.6,3.215a.822.822,0,0,0,.525.366c1.211.207,2.428.38,3.644.556A1.158,1.158,0,0,1,52.9,6.978c-.868.849-1.732,1.7-2.613,2.537a.658.658,0,0,0-.22.67c.215,1.194.4,2.392.622,3.585a1.14,1.14,0,0,1-.451,1.223,1.128,1.128,0,0,1-1.3.052c-1.053-.567-2.123-1.1-3.172-1.682a.721.721,0,0,0-.79.01q-1.6.869-3.221,1.69a1.155,1.155,0,0,1-1.732-1.1" transform="translate(-21.213 0)" fill="#fff"/>
        <path id="Trazado_197141" data-name="Trazado 197141" d="M87.161,24.5a5.638,5.638,0,0,1-.01,1.052A1.687,1.687,0,0,0,88.1,27.5c.748.451,1.412,1.041,2.12,1.56a1.2,1.2,0,0,1-.412,2.26c-1.11.293-2.208.629-3.317.924a.724.724,0,0,0-.579.535c-.361,1.123-.766,2.232-1.133,3.353a1.18,1.18,0,0,1-2.194.293c-.645-.989-1.314-1.963-1.952-2.957a.726.726,0,0,0-.7-.369c-1.181,0-2.363-.048-3.545-.056a1.169,1.169,0,0,1-.934-2c.74-.921,1.462-1.857,2.205-2.775a.689.689,0,0,0,.142-.736c-.368-1.121-.7-2.255-1.05-3.38a1.18,1.18,0,0,1,1.616-1.541c1.1.42,2.219.8,3.316,1.236a.711.711,0,0,0,.776-.113c.931-.675,1.881-1.322,2.813-1.994a1.239,1.239,0,0,1,1.381-.209,1.223,1.223,0,0,1,.617,1.295c-.026.557-.006,1.117-.006,1.675h-.1" transform="translate(-42.575 -12.134)" fill="#fff"/>
        <path id="Trazado_197142" data-name="Trazado 197142" d="M4.8,21.264a5.722,5.722,0,0,1,.754.372q1.442.988,2.86,2.011a.748.748,0,0,0,.82.119c1.08-.434,2.183-.807,3.269-1.226a1.179,1.179,0,0,1,1.632,1.523c-.348,1.11-.671,2.229-1.036,3.334a.761.761,0,0,0,.145.822c.748.914,1.466,1.853,2.207,2.774a1.173,1.173,0,0,1-.945,1.971c-1.2.006-2.4.054-3.593.055a.685.685,0,0,0-.652.362c-.641.992-1.308,1.968-1.953,2.956a1.181,1.181,0,0,1-2.2-.275c-.368-1.121-.769-2.231-1.135-3.352a.723.723,0,0,0-.568-.547c-1.142-.3-2.272-.636-3.411-.945a1.2,1.2,0,0,1-.983-.987,1.177,1.177,0,0,1,.567-1.182c.923-.684,1.833-1.388,2.765-2.06a.839.839,0,0,0,.408-.826c-.074-1.211-.11-2.425-.136-3.638A1.206,1.206,0,0,1,4.8,21.264" transform="translate(0 -12.055)" fill="#fff"/>
        <path id="Trazado_197143" data-name="Trazado 197143" d="M30.612,100.552a1.148,1.148,0,1,1-1.145-1.162,1.16,1.16,0,0,1,1.145,1.162" transform="translate(-16.053 -56.344)" fill="#fff"/>
      </g>
    </g>
  </g>
</svg>
