<svg xmlns="http://www.w3.org/2000/svg" width="84.412" height="115.449" viewBox="0 0 84.412 115.449">
  <g id="Grupo_154485" data-name="Grupo 154485" transform="translate(-705.588 -2419.633)">
    <rect id="Rectángulo_45220" data-name="Rectángulo 45220" width="98.053" height="48.731" transform="translate(754.319 2419.633) rotate(90)" fill="#e4e4e4"/>
    <g id="Grupo_154484" data-name="Grupo 154484" transform="translate(0 44.643)">
      <rect id="Rectángulo_45221" data-name="Rectángulo 45221" width="4.203" height="4.203" transform="translate(785.798 2445.787) rotate(-90)" fill="#7f4fc7"/>
      <rect id="Rectángulo_45891" data-name="Rectángulo 45891" width="4.203" height="4.203" transform="translate(785.798 2418.996) rotate(-90)" fill="#7f4fc7"/>
      <rect id="Rectángulo_45222" data-name="Rectángulo 45222" width="4.203" height="4.203" transform="translate(785.798 2454.718) rotate(-90)" fill="#7f4fc7"/>
      <rect id="Rectángulo_45892" data-name="Rectángulo 45892" width="4.203" height="4.203" transform="translate(785.798 2427.927) rotate(-90)" fill="#7f4fc7"/>
      <rect id="Rectángulo_45223" data-name="Rectángulo 45223" width="4.203" height="4.203" transform="translate(785.798 2463.648) rotate(-90)" fill="#7f4fc7"/>
      <rect id="Rectángulo_45893" data-name="Rectángulo 45893" width="4.203" height="4.203" transform="translate(785.798 2436.857) rotate(-90)" fill="#7f4fc7"/>
      <rect id="Rectángulo_45224" data-name="Rectángulo 45224" width="4.202" height="4.203" transform="translate(785.798 2472.578) rotate(-90)" fill="#7f4fc7"/>
      <rect id="Rectángulo_45225" data-name="Rectángulo 45225" width="4.203" height="4.203" transform="translate(785.798 2481.509) rotate(-90)" fill="#7f4fc7"/>
      <rect id="Rectángulo_45226" data-name="Rectángulo 45226" width="4.202" height="4.203" transform="translate(785.798 2490.439) rotate(-90)" fill="#7f4fc7"/>
      <rect id="Rectángulo_45232" data-name="Rectángulo 45232" width="4.203" height="4.203" transform="translate(776.867 2445.787) rotate(-90)" fill="#7f4fc7"/>
      <rect id="Rectángulo_45878" data-name="Rectángulo 45878" width="4.203" height="4.203" transform="translate(776.867 2418.996) rotate(-90)" fill="#7f4fc7"/>
      <rect id="Rectángulo_45233" data-name="Rectángulo 45233" width="4.203" height="4.203" transform="translate(776.867 2454.718) rotate(-90)" fill="#7f4fc7"/>
      <rect id="Rectángulo_45879" data-name="Rectángulo 45879" width="4.203" height="4.203" transform="translate(776.867 2427.927) rotate(-90)" fill="#7f4fc7"/>
      <rect id="Rectángulo_45234" data-name="Rectángulo 45234" width="4.203" height="4.203" transform="translate(776.867 2463.648) rotate(-90)" fill="#7f4fc7"/>
      <rect id="Rectángulo_45880" data-name="Rectángulo 45880" width="4.203" height="4.203" transform="translate(776.867 2436.857) rotate(-90)" fill="#7f4fc7"/>
      <rect id="Rectángulo_45235" data-name="Rectángulo 45235" width="4.202" height="4.203" transform="translate(776.867 2472.578) rotate(-90)" fill="#7f4fc7"/>
      <rect id="Rectángulo_45236" data-name="Rectángulo 45236" width="4.203" height="4.203" transform="translate(776.867 2481.509) rotate(-90)" fill="#7f4fc7"/>
      <rect id="Rectángulo_45237" data-name="Rectángulo 45237" width="4.202" height="4.203" transform="translate(776.867 2490.439) rotate(-90)" fill="#7f4fc7"/>
      <rect id="Rectángulo_45243" data-name="Rectángulo 45243" width="4.203" height="4.203" transform="translate(767.937 2445.787) rotate(-90)" fill="#7f4fc7"/>
      <rect id="Rectángulo_45881" data-name="Rectángulo 45881" width="4.203" height="4.203" transform="translate(767.937 2418.996) rotate(-90)" fill="#7f4fc7"/>
      <rect id="Rectángulo_45244" data-name="Rectángulo 45244" width="4.203" height="4.203" transform="translate(767.937 2454.718) rotate(-90)" fill="#7f4fc7"/>
      <rect id="Rectángulo_45882" data-name="Rectángulo 45882" width="4.203" height="4.203" transform="translate(767.937 2427.927) rotate(-90)" fill="#7f4fc7"/>
      <rect id="Rectángulo_45245" data-name="Rectángulo 45245" width="4.203" height="4.203" transform="translate(767.937 2463.648) rotate(-90)" fill="#7f4fc7"/>
      <rect id="Rectángulo_45883" data-name="Rectángulo 45883" width="4.203" height="4.203" transform="translate(767.937 2436.857) rotate(-90)" fill="#7f4fc7"/>
      <rect id="Rectángulo_45246" data-name="Rectángulo 45246" width="4.202" height="4.203" transform="translate(767.937 2472.578) rotate(-90)" fill="#7f4fc7"/>
      <rect id="Rectángulo_45247" data-name="Rectángulo 45247" width="4.203" height="4.203" transform="translate(767.937 2481.509) rotate(-90)" fill="#7f4fc7"/>
      <rect id="Rectángulo_45248" data-name="Rectángulo 45248" width="4.202" height="4.203" transform="translate(767.937 2490.439) rotate(-90)" fill="#7f4fc7"/>
      <rect id="Rectángulo_45221-2" data-name="Rectángulo 45221" width="4.203" height="4.203" transform="translate(759.753 2445.787) rotate(-90)" fill="#7f4fc7"/>
      <rect id="Rectángulo_45884" data-name="Rectángulo 45884" width="4.203" height="4.203" transform="translate(759.753 2418.996) rotate(-90)" fill="#7f4fc7"/>
      <rect id="Rectángulo_45222-2" data-name="Rectángulo 45222" width="4.203" height="4.203" transform="translate(759.753 2454.718) rotate(-90)" fill="#7f4fc7"/>
      <rect id="Rectángulo_45885" data-name="Rectángulo 45885" width="4.203" height="4.203" transform="translate(759.753 2427.927) rotate(-90)" fill="#7f4fc7"/>
      <rect id="Rectángulo_45223-2" data-name="Rectángulo 45223" width="4.203" height="4.203" transform="translate(759.753 2463.648) rotate(-90)" fill="#7f4fc7"/>
      <rect id="Rectángulo_45886" data-name="Rectángulo 45886" width="4.203" height="4.203" transform="translate(759.753 2436.857) rotate(-90)" fill="#7f4fc7"/>
      <rect id="Rectángulo_45224-2" data-name="Rectángulo 45224" width="4.202" height="4.203" transform="translate(759.753 2472.578) rotate(-90)" fill="#7f4fc7"/>
      <rect id="Rectángulo_45225-2" data-name="Rectángulo 45225" width="4.203" height="4.203" transform="translate(759.753 2481.509) rotate(-90)" fill="#7f4fc7"/>
      <rect id="Rectángulo_45226-2" data-name="Rectángulo 45226" width="4.202" height="4.203" transform="translate(759.753 2490.439) rotate(-90)" fill="#7f4fc7"/>
      <rect id="Rectángulo_45232-2" data-name="Rectángulo 45232" width="4.203" height="4.203" transform="translate(750.823 2445.787) rotate(-90)" fill="#7f4fc7"/>
      <rect id="Rectángulo_45887" data-name="Rectángulo 45887" width="4.203" height="4.203" transform="translate(750.823 2418.996) rotate(-90)" fill="#7f4fc7"/>
      <rect id="Rectángulo_45233-2" data-name="Rectángulo 45233" width="4.203" height="4.203" transform="translate(750.823 2454.718) rotate(-90)" fill="#7f4fc7"/>
      <rect id="Rectángulo_45888" data-name="Rectángulo 45888" width="4.203" height="4.203" transform="translate(750.823 2427.927) rotate(-90)" fill="#7f4fc7"/>
      <rect id="Rectángulo_45234-2" data-name="Rectángulo 45234" width="4.203" height="4.203" transform="translate(750.823 2463.648) rotate(-90)" fill="#7f4fc7"/>
      <rect id="Rectángulo_45889" data-name="Rectángulo 45889" width="4.203" height="4.203" transform="translate(750.823 2436.857) rotate(-90)" fill="#7f4fc7"/>
      <rect id="Rectángulo_45235-2" data-name="Rectángulo 45235" width="4.202" height="4.203" transform="translate(750.823 2472.578) rotate(-90)" fill="#7f4fc7"/>
      <rect id="Rectángulo_45236-2" data-name="Rectángulo 45236" width="4.203" height="4.203" transform="translate(750.823 2481.509) rotate(-90)" fill="#7f4fc7"/>
      <rect id="Rectángulo_45237-2" data-name="Rectángulo 45237" width="4.202" height="4.203" transform="translate(750.823 2490.439) rotate(-90)" fill="#7f4fc7"/>
      <rect id="Rectángulo_45243-2" data-name="Rectángulo 45243" width="4.203" height="4.203" transform="translate(741.893 2445.787) rotate(-90)" fill="#7f4fc7"/>
      <rect id="Rectángulo_45876" data-name="Rectángulo 45876" width="4.203" height="4.203" transform="translate(741.893 2418.996) rotate(-90)" fill="#7f4fc7"/>
      <rect id="Rectángulo_45244-2" data-name="Rectángulo 45244" width="4.203" height="4.203" transform="translate(741.893 2454.718) rotate(-90)" fill="#7f4fc7"/>
      <rect id="Rectángulo_45877" data-name="Rectángulo 45877" width="4.203" height="4.203" transform="translate(741.893 2427.927) rotate(-90)" fill="#7f4fc7"/>
      <rect id="Rectángulo_45245-2" data-name="Rectángulo 45245" width="4.203" height="4.203" transform="translate(741.893 2463.648) rotate(-90)" fill="#7f4fc7"/>
      <rect id="Rectángulo_45890" data-name="Rectángulo 45890" width="4.203" height="4.203" transform="translate(741.893 2436.857) rotate(-90)" fill="#7f4fc7"/>
      <rect id="Rectángulo_45246-2" data-name="Rectángulo 45246" width="4.202" height="4.203" transform="translate(741.893 2472.578) rotate(-90)" fill="#7f4fc7"/>
      <rect id="Rectángulo_45247-2" data-name="Rectángulo 45247" width="4.203" height="4.203" transform="translate(741.893 2481.509) rotate(-90)" fill="#7f4fc7"/>
      <rect id="Rectángulo_45248-2" data-name="Rectángulo 45248" width="4.202" height="4.203" transform="translate(741.893 2490.439) rotate(-90)" fill="#7f4fc7"/>
    </g>
  </g>
</svg>
