<svg xmlns="http://www.w3.org/2000/svg" xmlns:xlink="http://www.w3.org/1999/xlink" width="105" height="105" viewBox="0 0 105 105">
  <defs>
    <clipPath id="clip-path">
      <rect id="Rectángulo_46651" data-name="Rectángulo 46651" width="67.489" height="66.014" fill="#7f4fc7"/>
    </clipPath>
  </defs>
  <g id="Grupo_155193" data-name="Grupo 155193" transform="translate(-194.652 -4153)">
    <circle id="Elipse_5774" data-name="Elipse 5774" cx="52.5" cy="52.5" r="52.5" transform="translate(194.652 4153)" fill="#fff"/>
    <g id="Grupo_155205" data-name="Grupo 155205" transform="translate(-7.896 -0.493)">
      <g id="Grupo_155204" data-name="Grupo 155204" transform="translate(221.548 4172.493)">
        <g id="Grupo_155204-2" data-name="Grupo 155204" clip-path="url(#clip-path)">
          <path id="Trazado_197233" data-name="Trazado 197233" d="M20.724.044c.031-.007.062-.01.093-.015-.031,0-.063.008-.093.015" transform="translate(-9.56 -0.013)" fill="#7f4fc7"/>
          <path id="Trazado_197234" data-name="Trazado 197234" d="M48.6,63.78H2.233V13.89h9.182a1.117,1.117,0,0,0,1.117-1.117V2.234H48.6V13.062a21.3,21.3,0,0,1,2.233.377V1.117A1.117,1.117,0,0,0,49.715,0h-38.3c-.011,0-.02,0-.031,0a1.114,1.114,0,0,1,.868,1.853L10.3,4.068v7.589h-6.7l-1.64,1.856a1.113,1.113,0,0,1-1.947-.8c0,.022-.006.043-.006.065V64.9a1.117,1.117,0,0,0,1.117,1.117h48.6A1.117,1.117,0,0,0,50.832,64.9v-9.83a21.157,21.157,0,0,1-2.233.377Z" fill="#7f4fc7"/>
          <path id="Trazado_197235" data-name="Trazado 197235" d="M20.343.156a.94.94,0,0,1,.092-.033.849.849,0,0,0-.092.033" transform="translate(-9.384 -0.057)" fill="#7f4fc7"/>
          <path id="Trazado_197236" data-name="Trazado 197236" d="M19.992.34c.029-.02.059-.037.088-.054-.03.017-.06.034-.088.054" transform="translate(-9.222 -0.132)" fill="#7f4fc7"/>
          <path id="Trazado_197237" data-name="Trazado 197237" d="M19.681.59a1.04,1.04,0,0,1,.088-.081,1.137,1.137,0,0,0-.088.081" transform="translate(-9.079 -0.235)" fill="#7f4fc7"/>
          <path id="Trazado_197238" data-name="Trazado 197238" d="M16.052,45.482A1.117,1.117,0,0,0,17.169,46.6H33.828A21.143,21.143,0,0,1,34.9,44.365H17.169a1.117,1.117,0,0,0-1.117,1.117" transform="translate(-7.405 -20.466)" fill="#7f4fc7"/>
          <path id="Trazado_197239" data-name="Trazado 197239" d="M16.052,57.982A1.117,1.117,0,0,0,17.169,59.1h15.1a21.3,21.3,0,0,1,.263-2.233H17.169a1.117,1.117,0,0,0-1.117,1.117" transform="translate(-7.405 -26.232)" fill="#7f4fc7"/>
          <path id="Trazado_197240" data-name="Trazado 197240" d="M16.052,69.5a1.117,1.117,0,0,0,1.117,1.117H32.777a21.323,21.323,0,0,1-.392-2.233H17.169A1.117,1.117,0,0,0,16.052,69.5" transform="translate(-7.405 -31.547)" fill="#7f4fc7"/>
          <path id="Trazado_197241" data-name="Trazado 197241" d="M16.833,81.516a1.117,1.117,0,0,0,1.117,1.117H35.819A21.379,21.379,0,0,1,34.6,80.4H17.95a1.117,1.117,0,0,0-1.117,1.117" transform="translate(-7.765 -37.088)" fill="#7f4fc7"/>
          <path id="Trazado_197242" data-name="Trazado 197242" d="M.382,13.612a1.116,1.116,0,0,0,1.576-.1L3.6,11.659,10.3,4.07l1.954-2.211A1.114,1.114,0,0,0,11.389.006a1.1,1.1,0,0,0-.127.013c-.031,0-.062.008-.093.015s-.076.023-.114.036-.062.02-.092.033-.067.036-.1.054S10.8.19,10.774.21s-.054.044-.08.066a1.04,1.04,0,0,0-.088.081c-.008.008-.016.014-.024.022L.284,12.036c-.015.017-.024.035-.037.052a1.083,1.083,0,0,0-.073.1c-.018.029-.033.059-.048.09a.972.972,0,0,0-.046.1,1,1,0,0,0-.033.106c-.009.033-.018.067-.024.1a1.14,1.14,0,0,0-.012.121,1.108,1.108,0,0,0,.371.9" transform="translate(-0.004 -0.002)" fill="#7f4fc7"/>
          <path id="Trazado_197243" data-name="Trazado 197243" d="M67.407,26.126a19.483,19.483,0,0,1,2.2.13,19.184,19.184,0,0,1,0,38.119,19.485,19.485,0,0,1-2.2.13,19.164,19.164,0,0,1-19.044-16.86,19.308,19.308,0,0,1-.146-2.329c0-.37.015-.767.046-1.249a19.175,19.175,0,0,1,19.144-17.94m0-2.145A21.314,21.314,0,0,0,46.122,43.928c-.029.46-.05.921-.05,1.387a21.863,21.863,0,0,0,.553,4.82A21.337,21.337,0,0,0,67.407,66.65a21.546,21.546,0,0,0,2.445-.143,21.335,21.335,0,0,0-2.445-42.526" transform="translate(-21.253 -11.062)" fill="#7f4fc7"/>
          <path id="Trazado_197244" data-name="Trazado 197244" d="M80.834,60.261c2.417-2.417,4.662-4.667,6.914-6.91a5.645,5.645,0,0,1,1.006-.887,1.671,1.671,0,0,1,2.228.311,1.707,1.707,0,0,1,.21,2.244,4.315,4.315,0,0,1-.644.734q-3.936,3.948-7.881,7.887C81.3,65,80.506,65,79.153,63.659q-2.477-2.461-4.937-4.94c-1.008-1.022-1.082-2.094-.242-2.9a1.9,1.9,0,0,1,2.811.276c1.33,1.325,2.62,2.689,4.049,4.163" transform="translate(-33.858 -24.068)" fill="#7f4fc7"/>
        </g>
      </g>
    </g>
  </g>
</svg>
