<svg xmlns="http://www.w3.org/2000/svg" xmlns:xlink="http://www.w3.org/1999/xlink" width="105" height="105" viewBox="0 0 105 105">
  <defs>
    <clipPath id="clip-path">
      <rect id="Rectángulo_46636" data-name="Rectángulo 46636" width="65.976" height="65.317" fill="#7f4fc7"/>
    </clipPath>
  </defs>
  <g id="Grupo_155185" data-name="Grupo 155185" transform="translate(-194.958 -4153)">
    <circle id="Elipse_5774" data-name="Elipse 5774" cx="52.5" cy="52.5" r="52.5" transform="translate(194.958 4153)" fill="#fff"/>
    <g id="Grupo_155196" data-name="Grupo 155196" transform="translate(209.643 4174.659)">
      <g id="Grupo_155196-2" data-name="Grupo 155196" clip-path="url(#clip-path)">
        <path id="Trazado_197183" data-name="Trazado 197183" d="M0,18.509a2.835,2.835,0,0,1,1.741-1.281c3.148-1.059,6.285-2.15,9.425-3.23.219-.075.436-.154.687-.244-.165-.948-.32-1.854-.48-2.758-.268-1.517.181-2.17,1.691-2.431,3.485-.6,6.97-1.2,10.538-1.817V4.118c0-.773-.016-1.546.005-2.319A1.667,1.667,0,0,1,25.322.021c.214-.015.429-.009.644-.009Q40.877.012,55.787,0A2.8,2.8,0,0,1,57.91.839c2.413,2.353,4.859,4.671,7.314,6.981a2.214,2.214,0,0,1,.752,1.75q-.024,20.611-.012,41.221c0,1.516-.588,2.111-2.092,2.112-2.705,0-5.419-.136-8.112.045a23.71,23.71,0,0,0-6.171,1.084C39.251,57.639,28.965,61.4,18.66,65.1c-1.392.5-2.137.149-2.639-1.248Q12.4,53.781,8.779,43.707a4.181,4.181,0,0,1-.156-.489.941.941,0,0,1,.6-1.191.916.916,0,0,1,1.2.578c.411,1.059.783,2.132,1.167,3.2q3.043,8.47,6.086,16.942c.057.159.126.314.229.568l21.141-7.6c-.009-.033-.018-.066-.027-.1q-2.782.472-5.563.945-6.087,1.044-12.173,2.091a1.626,1.626,0,0,1-1.971-1.46q-1.034-5.926-2.045-11.855Q15.43,34.623,13.6,23.907c-.464-2.7-.929-5.406-1.413-8.22L2.02,19.171c.34.958.655,1.861.978,2.76q2.9,8.077,5.811,16.153a3.156,3.156,0,0,1,.181.549.913.913,0,0,1-.614,1.076.877.877,0,0,1-1.122-.373,3.38,3.38,0,0,1-.3-.709Q3.546,29.16.138,19.693A2.765,2.765,0,0,0,0,19.411v-.9M63.987,50.946V10.177H63.18c-1.975-.008-3.951.02-5.925-.037a2.168,2.168,0,0,1-2.25-2.364c-.015-1.7-.008-3.392-.013-5.089,0-.227-.02-.454-.031-.685H25.534v.825q0,12.109,0,24.219c0,.215.008.43-.009.644a.88.88,0,0,1-.9.9.9.9,0,0,1-.99-.814,3.634,3.634,0,0,1-.028-.706q0-8.792,0-17.585V8.708L13.255,10.486C15.9,25.9,18.532,41.261,21.181,56.709L42.8,53c0-.033-.006-.066-.008-.1H42.03q-8.18,0-16.361,0c-1.456,0-2.066-.615-2.066-2.083q0-9.114,0-18.229a2.866,2.866,0,0,1,.038-.64.9.9,0,0,1,.966-.773.892.892,0,0,1,.915.9c.017.213.01.429.01.644q0,8.727,0,17.455v.773ZM56.934,2.6c0,1.764.02,3.35-.011,4.934-.011.547.2.709.709.7,1.522-.013,3.044,0,4.566,0,.158,0,.315-.03.593-.058L56.934,2.6" transform="translate(0 0)" fill="#7f4fc7"/>
        <path id="Trazado_197184" data-name="Trazado 197184" d="M78.443,58.5H91.7a3.523,3.523,0,0,1,.642.02.909.909,0,0,1,.816.931.919.919,0,0,1-.849.968,2.676,2.676,0,0,1-.45.012H64.956a2.721,2.721,0,0,1-.514-.017.959.959,0,0,1-.03-1.89,3.036,3.036,0,0,1,.642-.025q6.694,0,13.39,0" transform="translate(-33.41 -30.714)" fill="#7f4fc7"/>
        <path id="Trazado_197185" data-name="Trazado 197185" d="M78.435,44.076H91.695a4.828,4.828,0,0,1,.643.018.808.808,0,0,1,.793.852,1.672,1.672,0,0,1-.6.947c-.171.149-.53.111-.805.111q-13.356.007-26.712,0c-.107,0-.215,0-.322,0-.682-.039-1.105-.442-1.077-1.022.027-.559.428-.9,1.106-.905q6.855-.008,13.71,0" transform="translate(-33.404 -23.143)" fill="#7f4fc7"/>
        <path id="Trazado_197186" data-name="Trazado 197186" d="M78.374,74.864H65.115a5.691,5.691,0,0,1-.643-.012.87.87,0,0,1-.833-.833.859.859,0,0,1,.63-.994,2.836,2.836,0,0,1,.824-.089q13.292-.006,26.583,0A3.129,3.129,0,0,1,92.44,73a.881.881,0,0,1,.72,1,.89.89,0,0,1-.883.861c-.192.016-.386.008-.579.008H78.374" transform="translate(-33.411 -38.294)" fill="#7f4fc7"/>
        <path id="Trazado_197187" data-name="Trazado 197187" d="M78.372,29.6q6.629,0,13.258,0a4.371,4.371,0,0,1,.706.028.894.894,0,0,1,.826.978.884.884,0,0,1-.843.9,5.735,5.735,0,0,1-.706.026q-13.225,0-26.451,0a4.512,4.512,0,0,1-.769-.04.941.941,0,0,1-.045-1.837,3.583,3.583,0,0,1,.767-.052q6.629,0,13.258,0" transform="translate(-33.412 -15.54)" fill="#7f4fc7"/>
        <path id="Trazado_197188" data-name="Trazado 197188" d="M78.433,87.416q6.6,0,13.194,0a5.839,5.839,0,0,1,.707.021.939.939,0,0,1,.1,1.847,2.9,2.9,0,0,1-.7.061q-13.354,0-26.709,0a2.531,2.531,0,0,1-.761-.085.785.785,0,0,1-.6-.988,1.893,1.893,0,0,1,.761-.814c.163-.113.458-.04.694-.04q6.662,0,13.323,0" transform="translate(-33.403 -45.888)" fill="#7f4fc7"/>
      </g>
    </g>
  </g>
</svg>
