<svg xmlns="http://www.w3.org/2000/svg" xmlns:xlink="http://www.w3.org/1999/xlink" width="70" height="70" viewBox="0 0 70 70">
  <defs>
    <clipPath id="clip-path">
      <rect id="Rectángulo_46520" data-name="Rectángulo 46520" width="42.552" height="42.557" fill="#7f4fc7"/>
    </clipPath>
  </defs>
  <g id="Grupo_155179" data-name="Grupo 155179" transform="translate(-194.958 -4153)">
    <circle id="Elipse_5774" data-name="Elipse 5774" cx="35" cy="35" r="35" transform="translate(194.958 4153)" fill="#fff"/>
    <g id="Grupo_155037" data-name="Grupo 155037" transform="translate(208.213 4166.721)">
      <g id="Grupo_155036" data-name="Grupo 155036" transform="translate(0 0)" clip-path="url(#clip-path)">
        <path id="Trazado_197098" data-name="Trazado 197098" d="M41.443,48.143c-.733.021-1.468-.011-2.2.013-.3.01-.364-.087-.354-.369.02-.609.023-1.219,0-1.827a4.626,4.626,0,0,0-1.317-3.094.8.8,0,0,1-.246-.617c.008-2.852,0-5.7.008-8.558a7.386,7.386,0,0,0-.665-3.22,7.563,7.563,0,0,0-8.2-4.282A7.409,7.409,0,0,0,22.2,33.3c-.052,2.99-.017,5.982-.013,8.973a.753.753,0,0,1-.23.582A4.6,4.6,0,0,0,20.682,45.4a16.321,16.321,0,0,0-.064,2.4c0,.255-.044.366-.332.348-.428-.027-.858-.015-1.287,0a.838.838,0,0,0-.9.695c.011.664.3.96.96.964,1.133.006,2.267.011,3.4-.005.263,0,.319.074.317.324-.011,1.576-.007,3.152-.006,4.728,0,.818.284,1.1,1.093,1.1s1.6,0,2.406,0c.686,0,.914-.179,1.083-.832.027-.013.054-.021.08-.031a1,1,0,0,0-1.064-.923c-.456-.017-.914-.012-1.37,0-.319.006-.441-.128-.438-.446.009-1.108.01-2.216,0-3.323,0-.34.127-.465.463-.464q4.735.008,9.47,0c.308,0,.453.107.451.434-.008,1.122-.01,2.244,0,3.365,0,.329-.139.437-.448.434-.526-.006-1.053-.026-1.578.011a1.013,1.013,0,0,0-1.023.907c.03.012.06.023.09.038.163.639.4.83,1.044.832q1.33.005,2.659,0c.737,0,1.041-.3,1.043-1.032,0-1.579.01-3.159-.007-4.738,0-.306.065-.394.382-.389,1.149.021,2.3.018,3.449,0,.278,0,.339.081.338.346q-.015,3.74,0,7.48c0,.289-.1.331-.353.331q-9.952-.009-19.9,0c-.283,0-.373-.058-.369-.358a21.348,21.348,0,0,0-.04-2.905A5.312,5.312,0,0,0,15.5,49.979c-.573-.1-1.143-.205-1.712-.322a.886.886,0,0,1-.767-.665c-.163-.244-.012-.362.178-.489a5.54,5.54,0,0,0,2.586-4.7c.03-1.121.024-2.243,0-3.363a5.639,5.639,0,0,0-11.222-.657,29.188,29.188,0,0,0-.071,3.691A5.607,5.607,0,0,0,7.12,48.527a.359.359,0,0,1,.142.519,1.145,1.145,0,0,1-.979.665c-.638.118-1.278.229-1.916.349A5.315,5.315,0,0,0,.071,54.534a.462.462,0,0,1-.071.43v3.99a1.16,1.16,0,0,0,.665.665H41.887a1.159,1.159,0,0,0,.665-.665V48.814a1.009,1.009,0,0,0-1.108-.67M24.021,32.073a5.928,5.928,0,0,1,5.841-4.343,5.84,5.84,0,0,1,5.72,4.883,27.518,27.518,0,0,1,.079,3.482c.01.36,0,.72,0,1.08,0,1.357-.007,2.714.006,4.07,0,.3-.048.366-.367.286-.709-.179-1.433-.3-2.152-.437a1.132,1.132,0,0,1-.461-.171c-.377-.268-.374-.511-.007-.774a5.024,5.024,0,0,0,2.206-3.992c.049-.953.015-1.91.017-2.865a.858.858,0,0,0-.455-.784c-.929-.547-1.854-1.1-2.79-1.637a.8.8,0,0,0-1.124.171,4.2,4.2,0,0,1-3.457,1.387c-.539-.019-1.08-.012-1.619,0a.767.767,0,0,0-.838.748,17.643,17.643,0,0,0,.134,3.932,5.042,5.042,0,0,0,2,3c.137.1.406.12.35.388a.672.672,0,0,1-.525.533c-.483.115-.974.2-1.462.294a5.781,5.781,0,0,0-.889.192c-.37.137-.4-.014-.4-.326.01-2.063,0-4.126.008-6.189a11.7,11.7,0,0,1,.175-2.932m4.988,7.258a3.489,3.489,0,0,1-2.74-3.283c-.019-.539.014-1.08-.015-1.619-.017-.316.11-.355.379-.347a7.466,7.466,0,0,0,2.626-.275A5.292,5.292,0,0,0,31.1,32.789a.346.346,0,0,1,.5-.04c.465.3.946.572,1.428.841a.374.374,0,0,1,.229.386c-.016.373,0,.747,0,1.3a4.326,4.326,0,0,1-.413,2.286,3.51,3.51,0,0,1-3.821,1.771m1.941,3.3c-.368.447-.7.929-1.031,1.4-.12.169-.2.185-.329.006-.441-.618-.893-1.229-1.342-1.842-.056-.077-.147-.155-.071-.254a3.967,3.967,0,0,0,.522-.888c.044-.1.173-.045.266-.046a4.158,4.158,0,0,0,1.566,0c.172-.033.292,0,.347.189a.642.642,0,0,0,.136.3c.478.414.248.755-.064,1.134M36.9,48.155c-2.381-.01-4.761-.006-7.141-.006s-4.733-.006-7.1.007c-.3,0-.41-.06-.39-.381.03-.5,0-1,.009-1.495a3.147,3.147,0,0,1,2.578-3.206c.472-.106.956-.156,1.423-.277a.41.41,0,0,1,.508.208c.712.987,1.434,1.967,2.156,2.947.532.722,1.094.723,1.625,0q1.083-1.47,2.155-2.948a.412.412,0,0,1,.508-.209c.548.14,1.116.2,1.662.346a3.086,3.086,0,0,1,2.335,2.927c.024.581-.008,1.163.015,1.744.011.274-.073.343-.343.342M6.174,43.964a27.661,27.661,0,0,1,.046-3.982,3.975,3.975,0,0,1,7.907.621c.011.526,0,1.052,0,1.715A9.509,9.509,0,0,1,13.89,45.1a4,4,0,0,1-6.211,1.793,3.863,3.863,0,0,1-1.5-2.931m5.065,5.847c-.372.1-.743.209-1.1.309-.416-.117-.815-.227-1.213-.344-.161-.047-.1-.154-.072-.265.042-.166.126-.229.295-.189a4.941,4.941,0,0,0,1.4.073,3.3,3.3,0,0,0,.574-.075c.207-.048.258.068.315.225.076.211-.065.229-.2.266m6.983,8.154c-2.7-.015-5.4-.008-8.1-.008s-5.371-.005-8.057.007c-.313,0-.422-.061-.414-.4.022-.936.005-.937.95-.937q2.284,0,4.568,0c.569,0,.915-.255.977-.7.081-.576-.291-.961-.956-.964-1.412-.006-2.824,0-4.236,0H2.209c-.586,0-.6,0-.428-.588a3.654,3.654,0,0,1,3-2.706,22.225,22.225,0,0,0,2.594-.538.666.666,0,0,1,.4.045c.665.188,1.33.372,1.992.568a1.264,1.264,0,0,0,.732,0,8.306,8.306,0,0,1,2.314-.586,16.562,16.562,0,0,1,2.309.437,4.291,4.291,0,0,1,2.319,1.011,3.663,3.663,0,0,1,1.172,2.742c.007.733-.015,1.468.009,2.2.01.318-.067.414-.4.412" transform="translate(0 -17.062)" fill="#7f4fc7"/>
        <path id="Trazado_197099" data-name="Trazado 197099" d="M3.149,15.613c.234.022.173.166.174.29q.005,1.184,0,2.368a1.029,1.029,0,0,0,.158.631c.33.465.908.467,1.39-.012Q6.39,17.383,7.894,15.86a.73.73,0,0,1,.578-.239q2.534.015,5.069,0a3.294,3.294,0,0,0,3.413-3.4c.006-.554.008-1.108,0-1.662,0-.191.038-.281.248-.26a2.488,2.488,0,0,0,.539,0,.949.949,0,0,1,.864.349c.637.674,1.309,1.315,1.961,1.975a.888.888,0,0,0,1.043.284.864.864,0,0,0,.5-.917c-.009-.429.019-.86-.009-1.288-.021-.311.074-.4.389-.441A3.152,3.152,0,0,0,25.4,7.259c.086-1.394.042-2.8.011-4.195a3.053,3.053,0,0,0-.895-2.045A3.657,3.657,0,0,0,22.523,0H11.386A3.055,3.055,0,0,0,8.718,1.81a4.125,4.125,0,0,0-.36,2.022c0,.511-.026.537-.54.538-1.453,0-2.906,0-4.36,0a3.487,3.487,0,0,0-1.685.374A3.056,3.056,0,0,0,0,7.4v5.32a3.31,3.31,0,0,0,3.149,2.9M10.134,4.15c.023-.275,0-.554.007-.831A1.616,1.616,0,0,1,11.8,1.666c1.26-.013,2.521,0,3.781,0q3.179,0,6.358,0a1.649,1.649,0,0,1,1.828,1.822q0,1.662,0,3.325a1.651,1.651,0,0,1-1.815,1.835h-.125c-1.189,0-1.341.145-1.386,1.316a1.118,1.118,0,0,1-.039.162c-.366-.367-.713-.7-1.039-1.049a1.251,1.251,0,0,0-1.03-.433c-.428.019-.948.149-1.263-.042s-.083-.756-.139-1.155a3.3,3.3,0,0,0-3.344-2.952q-1.558-.02-3.116,0c-.277,0-.359-.078-.337-.346M1.672,7.721A1.6,1.6,0,0,1,3.411,6.152q4.839-.006,9.678,0c.208,0,.416-.006.623,0a1.594,1.594,0,0,1,1.571,1.567q.034,2.326,0,4.653a1.594,1.594,0,0,1-1.677,1.586c-1.814.009-3.628.016-5.441-.006a1.565,1.565,0,0,0-1.245.526c-.6.64-1.24,1.251-1.934,1.946,0-.587.009-1.058,0-1.528a.857.857,0,0,0-.931-.934c-.277-.008-.554.007-.831-.007a1.586,1.586,0,0,1-1.549-1.544q-.038-2.346,0-4.694" transform="translate(0 0)" fill="#7f4fc7"/>
        <path id="Trazado_197100" data-name="Trazado 197100" d="M83.376,56.894a.442.442,0,0,1-.525,0,.781.781,0,0,0-1.093.2.826.826,0,0,0,.134,1.117,1.742,1.742,0,0,0,1.189.476,1.806,1.806,0,0,0,1.253-.474.817.817,0,0,0,.133-1.115.774.774,0,0,0-1.091-.2" transform="translate(-53.368 -37.12)" fill="#7f4fc7"/>
        <path id="Trazado_197101" data-name="Trazado 197101" d="M79.841,52.134a.821.821,0,0,0-.784-.842.841.841,0,0,0-.853.821.823.823,0,0,0,.812.816.807.807,0,0,0,.826-.8" transform="translate(-51.148 -33.547)" fill="#7f4fc7"/>
        <path id="Trazado_197102" data-name="Trazado 197102" d="M90.7,52.1a.847.847,0,0,0-.816-.82.828.828,0,0,0-.82.85.8.8,0,0,0,.83.79A.821.821,0,0,0,90.7,52.1" transform="translate(-58.25 -33.541)" fill="#7f4fc7"/>
      </g>
    </g>
  </g>
</svg>
