<svg xmlns="http://www.w3.org/2000/svg" xmlns:xlink="http://www.w3.org/1999/xlink" width="70" height="70" viewBox="0 0 70 70">
  <defs>
    <clipPath id="clip-path">
      <rect id="Rectángulo_46519" data-name="Rectángulo 46519" width="35.692" height="41.304" fill="#7f4fc7"/>
    </clipPath>
  </defs>
  <g id="Grupo_155232" data-name="Grupo 155232" transform="translate(-195.213 -3924)">
    <circle id="Elipse_5772" data-name="Elipse 5772" cx="35" cy="35" r="35" transform="translate(195.213 3924)" fill="#fff"/>
    <g id="Grupo_155035" data-name="Grupo 155035" transform="translate(212.213 3938)">
      <g id="Grupo_155034" data-name="Grupo 155034" clip-path="url(#clip-path)">
        <path id="Trazado_197083" data-name="Trazado 197083" d="M.017,11a.552.552,0,0,0,.546.54.554.554,0,0,0,.624-.451,1.725,1.725,0,0,0,.03-.44c0-3.024.006-6.048-.006-9.072,0-.3.061-.375.369-.375q10.18.015,20.36,0c.29,0,.382.052.379.366-.019,1.613-.012,3.225-.008,4.838a1.272,1.272,0,0,0,1.421,1.414c1.627,0,3.252.01,4.878-.008.31,0,.377.084.37.379-.021.846,0,1.693-.01,2.54a.625.625,0,0,0,.338.633c.435.216.866-.1.871-.65.008-.981-.017-1.963.01-2.943a1.722,1.722,0,0,0-.568-1.355Q26.67,3.5,23.746.548A1.976,1.976,0,0,0,22.932,0H.827A1.344,1.344,0,0,0,0,1.4C.024,4.482.01,7.56.011,10.637A3.3,3.3,0,0,0,.017,11m23.5-8.826,4.44,4.441H24.844c-.363,0-.726-.006-1.089,0-.163,0-.242-.036-.241-.221.006-1.418,0-2.837,0-4.222" transform="translate(0)" fill="#7f4fc7"/>
        <path id="Trazado_197084" data-name="Trazado 197084" d="M68.492,26.385q-.323-.164-.649-.32a1.617,1.617,0,0,0-2.325.79Q59.591,38.882,53.669,50.911a1.314,1.314,0,0,0-.139.7c.028.362.035.725.051,1.088h-.009c.022.389.057.778.064,1.168a.867.867,0,0,0,.47.865.9.9,0,0,0,.979-.133q.9-.643,1.816-1.269a1.637,1.637,0,0,0,.56-.666c.714-1.471,1.441-2.935,2.164-4.4.338-.685.682-1.368,1.012-2.057a.617.617,0,0,0-.3-.9c-.323-.118-.605.023-.8.419-.571,1.153-1.142,2.306-1.7,3.464-.1.211-.187.277-.413.142a6.519,6.519,0,0,0-.973-.479c-.28-.109-.316-.213-.177-.491,1.155-2.314,2.291-4.637,3.433-6.958q2.228-4.527,4.45-9.057c.127-.261.23-.33.5-.166a6.609,6.609,0,0,0,.938.459c.248.1.3.209.167.469-.62,1.218-1.216,2.448-1.819,3.674q-1.572,3.192-3.142,6.384c-.211.43-.13.758.216.931s.65.026.87-.4c.025-.048.048-.1.072-.144l3.694-7.5q1.811-3.679,3.62-7.359a1.618,1.618,0,0,0-.772-2.3M54.81,53.312V51.805l1.268.623-1.268.884m2.161-2.865a1.275,1.275,0,0,1,.176.133c-.145.277-.263.53-.408.766-.05.082-.146-.011-.211-.042-.384-.184-.758-.39-1.149-.557-.215-.093-.19-.188-.107-.361.3-.63.294-.633.912-.329.263.129.526.257.787.39m9.484-18.8c-.043.078-.125.021-.179-.006-.421-.205-.837-.421-1.261-.62-.133-.062-.13-.115-.083-.242.276-.733.281-.739.986-.391.24.118.478.243.719.359.084.04.164.075.192.161-.132.263-.246.505-.374.74m1.8-3.693a2,2,0,0,1-.087.234c-.215.444-.443.883-.648,1.331-.095.208-.188.239-.39.126-.349-.2-.711-.367-1.077-.529-.183-.082-.242-.152-.134-.351.247-.458.471-.928.7-1.4a.444.444,0,0,1,.689-.227c.226.115.455.224.68.339a.436.436,0,0,1,.269.472" transform="translate(-33.784 -16.316)" fill="#7f4fc7"/>
        <path id="Trazado_197085" data-name="Trazado 197085" d="M30.158,50.425A.552.552,0,0,0,29.593,50a.543.543,0,0,0-.56.381,1.538,1.538,0,0,0-.041.477c0,3.63-.008,7.26.008,10.889,0,.384-.08.481-.474.48q-13.41-.019-26.82,0c-.376,0-.482-.068-.482-.468q.021-12.885.009-25.771A2.012,2.012,0,0,0,1.2,35.5a.555.555,0,0,0-.623-.457.56.56,0,0,0-.546.546c-.01.107-.006.215-.006.322q0,13.067,0,26.134c0,1,.385,1.373,1.4,1.373H28.808c.993,0,1.391-.4,1.391-1.389q0-5.586,0-11.172a1.68,1.68,0,0,0-.039-.437" transform="translate(-0.017 -22.119)" fill="#7f4fc7"/>
        <path id="Trazado_197086" data-name="Trazado 197086" d="M7.877,60.468a1.156,1.156,0,0,0,1.189,1.2q1.592.027,3.184,0a1.18,1.18,0,0,0,1.2-1.241q.012-1.552,0-3.1A1.133,1.133,0,0,0,12.335,56.1c-1.114-.035-2.23-.034-3.343,0a1.111,1.111,0,0,0-1.114,1.182c-.013.524,0,1.048,0,1.572s-.01,1.075,0,1.612m1.2-2.927c0-.191.059-.256.253-.254q1.348.012,2.7,0c.18,0,.226.066.225.236-.006.9-.011,1.8,0,2.7,0,.236-.1.256-.29.252-.442-.01-.885,0-1.328,0s-.859-.011-1.287,0c-.216.007-.273-.07-.271-.276q.013-1.327,0-2.655" transform="translate(-4.968 -35.393)" fill="#7f4fc7"/>
        <path id="Trazado_197087" data-name="Trazado 197087" d="M7.877,40.712a1.129,1.129,0,0,0,1.143,1.2q1.651.044,3.3,0a1.142,1.142,0,0,0,1.13-1.219q.012-1.551,0-3.1a1.172,1.172,0,0,0-1.191-1.25q-1.612-.03-3.224,0a1.141,1.141,0,0,0-1.161,1.188c-.014.537,0,1.075,0,1.612s-.01,1.048,0,1.572m1.2-2.928c0-.194.06-.252.253-.25.886.009,1.772.011,2.658,0,.223,0,.265.079.263.278q-.013,1.329,0,2.658c0,.191-.052.259-.249.254-.443-.013-.886,0-1.329,0s-.859-.008-1.289,0c-.209.006-.314-.03-.31-.281.015-.886.011-1.772,0-2.658" transform="translate(-4.968 -22.926)" fill="#7f4fc7"/>
        <path id="Trazado_197088" data-name="Trazado 197088" d="M7.88,80.263a1.147,1.147,0,0,0,1.185,1.161q1.592.015,3.184,0a1.167,1.167,0,0,0,1.2-1.194q.019-1.592,0-3.184a1.151,1.151,0,0,0-1.2-1.194q-1.592-.017-3.184,0a1.136,1.136,0,0,0-1.2,1.187c-.013.524,0,1.048,0,1.572h0c0,.551-.014,1.1,0,1.653m1.2-2.94c0-.206.047-.283.266-.274.442.017.886.005,1.329.005s.886.008,1.329,0c.19-.006.253.048.251.246-.01.9-.008,1.8,0,2.7,0,.172-.042.232-.223.23q-1.349-.013-2.7,0c-.186,0-.255-.042-.252-.242q.015-1.329,0-2.658" transform="translate(-4.968 -47.87)" fill="#7f4fc7"/>
        <path id="Trazado_197089" data-name="Trazado 197089" d="M13.447,17.777a1.146,1.146,0,0,0-1.154-1.157q-1.632-.027-3.265,0a1.127,1.127,0,0,0-1.15,1.151q-.025,1.632,0,3.265a1.132,1.132,0,0,0,1.185,1.156c.524.01,1.048,0,1.572,0h1.652a1.156,1.156,0,0,0,1.159-1.151q.026-1.632,0-3.265M12,20.988c-.442-.013-.885,0-1.328,0s-.912-.007-1.368,0c-.173,0-.232-.046-.231-.225q.012-1.348,0-2.7c0-.2.056-.249.248-.246.9.009,1.8.008,2.7,0,.171,0,.232.041.23.223q-.013,1.348,0,2.7c0,.192-.052.255-.247.249" transform="translate(-4.964 -10.481)" fill="#7f4fc7"/>
        <path id="Trazado_197090" data-name="Trazado 197090" d="M39.556,46.623a.544.544,0,0,0-.4-.618,1.465,1.465,0,0,0-.436-.044q-6.224,0-12.448,0a1.7,1.7,0,0,0-.36.019.593.593,0,0,0-.464.729.639.639,0,0,0,.709.461c2.122-.007,4.243,0,6.365,0h6.164a2.23,2.23,0,0,0,.362-.008.555.555,0,0,0,.509-.534" transform="translate(-16.047 -29.008)" fill="#7f4fc7"/>
        <path id="Trazado_197091" data-name="Trazado 197091" d="M26.371,38.642a2.985,2.985,0,0,0-.4.013.551.551,0,0,0-.517.569.543.543,0,0,0,.447.587,1.9,1.9,0,0,0,.439.039q6.17,0,12.341,0a1.7,1.7,0,0,0,.516-.058.59.59,0,0,0-.081-1.128,2.288,2.288,0,0,0-.442-.022h-12.3" transform="translate(-16.063 -24.389)" fill="#7f4fc7"/>
        <path id="Trazado_197092" data-name="Trazado 197092" d="M38.369,66.895A.579.579,0,0,0,39,66.235c-.035-.377-.289-.545-.841-.545q-5.928,0-11.856,0a1.5,1.5,0,0,0-.476.055.542.542,0,0,0-.384.594.549.549,0,0,0,.465.534,2.258,2.258,0,0,0,.442.024q2.923,0,5.847,0h4.113c.686,0,1.371.009,2.057-.005" transform="translate(-16.059 -41.461)" fill="#7f4fc7"/>
        <path id="Trazado_197093" data-name="Trazado 197093" d="M26.119,59.577c.067,0,.134,0,.2,0H37.29a1.3,1.3,0,0,0,.478-.042.591.591,0,0,0,.353-.815.672.672,0,0,0-.705-.354q-2.8.007-5.606,0h-2.42c-1.089,0-2.178,0-3.267,0a.611.611,0,0,0-.688.576c-.013.366.253.612.683.631" transform="translate(-16.054 -36.838)" fill="#7f4fc7"/>
        <path id="Trazado_197094" data-name="Trazado 197094" d="M36.239,79.292a.585.585,0,0,0,.564-.577.6.6,0,0,0-.56-.622,3.207,3.207,0,0,0-.363-.005H26.407a3.859,3.859,0,0,0-.4,0,.592.592,0,0,0-.562.619.582.582,0,0,0,.559.581,2.532,2.532,0,0,0,.322.006h9.594a2.682,2.682,0,0,0,.322-.006" transform="translate(-16.057 -49.285)" fill="#7f4fc7"/>
        <path id="Trazado_197095" data-name="Trazado 197095" d="M26.2,27.448q4.657,0,9.314,0c.5,0,.79-.229.79-.609s-.288-.6-.791-.6q-2.319,0-4.637,0-2.339,0-4.677,0c-.479,0-.752.212-.765.582-.013.385.274.627.765.627" transform="translate(-16.054 -16.561)" fill="#7f4fc7"/>
        <path id="Trazado_197096" data-name="Trazado 197096" d="M25.923,20.069a2.275,2.275,0,0,0,.4.016h6.892c.82,0,1.639.006,2.459,0a.6.6,0,0,0,.631-.591.624.624,0,0,0-.588-.6,1.38,1.38,0,0,0-.161,0q-4.7,0-9.391,0a.963.963,0,0,0-.354.056.59.59,0,0,0,.111,1.128" transform="translate(-16.058 -11.917)" fill="#7f4fc7"/>
        <path id="Trazado_197097" data-name="Trazado 197097" d="M34.482,85.471a2.377,2.377,0,0,0-.441-.023q-1.914,0-3.828,0H26.988c-.336,0-.672-.008-1.007.015a.54.54,0,0,0-.531.554.552.552,0,0,0,.469.61,1.622,1.622,0,0,0,.359.03q3.929,0,7.858,0a1.287,1.287,0,0,0,.435-.056.589.589,0,0,0-.09-1.128" transform="translate(-16.063 -53.931)" fill="#7f4fc7"/>
      </g>
    </g>
  </g>
</svg>
