<svg xmlns="http://www.w3.org/2000/svg" xmlns:xlink="http://www.w3.org/1999/xlink" width="70" height="70" viewBox="0 0 70 70">
  <defs>
    <clipPath id="clip-path">
      <rect id="Rectángulo_46517" data-name="Rectángulo 46517" width="43.004" height="42.942" fill="#7f4fc7" stroke="#7f4fc7" stroke-width="0.4"/>
    </clipPath>
  </defs>
  <g id="Grupo_155230" data-name="Grupo 155230" transform="translate(-195.213 -3691)">
    <circle id="Elipse_5770" data-name="Elipse 5770" cx="35" cy="35" r="35" transform="translate(195.213 3691)" fill="#fff"/>
    <g id="Grupo_155031" data-name="Grupo 155031" transform="translate(207.997 3704.779)">
      <g id="Grupo_155030" data-name="Grupo 155030" clip-path="url(#clip-path)">
        <path id="Trazado_197040" data-name="Trazado 197040" d="M130.794,0a.412.412,0,0,1,.366.309c.06.189.114.381.174.57a1.492,1.492,0,0,0,1.033,1.048c.231.069.438.165.45.442s-.187.4-.42.463a1.6,1.6,0,0,0-1.114,1.188c-.032.109-.061.219-.09.329-.063.24-.178.427-.461.415-.257-.01-.372-.173-.413-.41a1.807,1.807,0,0,0-1.326-1.564.4.4,0,0,1-.3-.414.392.392,0,0,1,.317-.4A1.743,1.743,0,0,0,130.291.479c.056-.247.145-.472.5-.479" transform="translate(-89.812)" fill="#7f4fc7"/>
        <path id="Trazado_197040_-_Contorno" data-name="Trazado 197040 - Contorno" d="M130.757,4.964h-.033a.611.611,0,0,1-.6-.576,1.614,1.614,0,0,0-1.186-1.406.593.593,0,0,1-.446-.607.591.591,0,0,1,.468-.6A1.538,1.538,0,0,0,130.1.435a.692.692,0,0,1,.693-.635h.021a.612.612,0,0,1,.54.448c.03.093.058.187.086.28s.058.193.089.289a1.292,1.292,0,0,0,.9.917.7.7,0,0,1,.592.625c.013.328-.177.551-.564.663a1.394,1.394,0,0,0-.978,1.054c-.031.1-.059.211-.086.315l0,.008C131.288,4.774,131.076,4.964,130.757,4.964ZM130.787.2c-.182.007-.244.075-.3.323a1.887,1.887,0,0,1-1.431,1.642.2.2,0,0,0-.166.212.2.2,0,0,0,.16.221,2.007,2.007,0,0,1,1.466,1.721c.038.219.127.24.224.244h.017c.095,0,.178-.02.242-.266l0-.008c.028-.107.057-.218.09-.327a1.784,1.784,0,0,1,1.25-1.324c.261-.076.279-.168.276-.263,0-.114-.052-.182-.307-.258A1.687,1.687,0,0,1,131.143.94c-.031-.1-.061-.2-.091-.3S131,.461,130.969.37A.215.215,0,0,0,130.787.2Z" transform="translate(-89.812)" fill="#7f4fc7"/>
        <path id="Trazado_197041" data-name="Trazado 197041" d="M133.912,5.644l.589.672c0,.017,0,.048-.017.062-.194.2-.391.389-.587.582a2.84,2.84,0,0,0-.662-.647,4.416,4.416,0,0,0,.385-.307,3.984,3.984,0,0,0,.291-.362" transform="translate(-92.984 -3.939)" fill="#7f4fc7"/>
        <path id="Trazado_197041_-_Contorno" data-name="Trazado 197041 - Contorno" d="M133.882,7.256l-.183-.222a2.452,2.452,0,0,0-.574-.553l-.232-.153.219-.171c.048-.037.093-.071.137-.1a2.134,2.134,0,0,0,.23-.187,2.019,2.019,0,0,0,.183-.223c.03-.04.061-.081.093-.122l.149-.189.816.931-.023.093a.262.262,0,0,1-.071.164c-.15.151-.3.3-.455.452Zm-.314-.943a2.885,2.885,0,0,1,.344.351l.336-.333-.325-.371a1.848,1.848,0,0,1-.161.188A1.917,1.917,0,0,1,133.568,6.313Z" transform="translate(-92.984 -3.939)" fill="#7f4fc7"/>
        <path id="Trazado_197042" data-name="Trazado 197042" d="M96.069,82.516c-.3-.017-.412-.1-.368-.392a1.168,1.168,0,0,0,0-.3,2.582,2.582,0,0,1,.784-2.236,3.419,3.419,0,0,0-.539-5.087c-.364-.274-.743-.528-1.124-.78s-.637-.16-.778.268a1.7,1.7,0,0,1-1.778,1.3c-1.1,0-2.2,0-3.3,0-.971,0-1.942,0-2.913,0A3.219,3.219,0,0,0,82.6,78.773c0,1.114-.009,2.227.005,3.341,0,.276-.041.386-.358.4a2.177,2.177,0,0,0,.073,4.345c.369.007.493.129.591.465a6.537,6.537,0,0,0,12.491,0c.1-.342.217-.46.585-.467a2.178,2.178,0,0,0,.085-4.347M82.333,86.022A1.361,1.361,0,0,1,81.1,84.769a1.347,1.347,0,0,1,1.111-1.4c.282-.044.422.016.393.343s-.006.653-.006.981h.018c0,.341-.021.684.007,1.023.02.243-.033.327-.289.309m11.362,2.811a5.709,5.709,0,0,1-10.248-3.362,3.491,3.491,0,0,1,.811-2.755,15.014,15.014,0,0,0,1.27-1.77.51.51,0,0,1,.49-.25c1.056.011,2.112.005,3.168.005,1.027,0,2.055.007,3.082-.005a.553.553,0,0,1,.526.266c.615.892,1.249,1.77,1.875,2.654a.648.648,0,0,1,.173.337,7,7,0,0,1-1.148,4.88M83.437,81.007c-.01-.249.088-.324.323-.31.266.015.533,0,.9,0l-1.126,1.588-.09-.048c0-.411.012-.823,0-1.233m10.279-.223c.045-.04.063-.071.082-.072,1.04-.053,1.041-.053,1.04.985v.5l-.1.031-1.019-1.445m1.476-1.03c-.129.133-.293.089-.445.089q-2.719,0-5.438,0c-1.813,0-3.626-.008-5.438.008-.341,0-.458-.1-.431-.433.031-.4-.008-.8.044-1.2a2.3,2.3,0,0,1,2.292-2.064c2.156-.015,4.311-.008,6.467-.005a2.613,2.613,0,0,0,2.345-1.241c.065-.1.088-.236.28-.129a2.761,2.761,0,0,1,1.318,3.8,5.26,5.26,0,0,1-.992,1.171m.748,6.269c-.2.007-.272-.042-.259-.258.022-.354.006-.711.006-1.067H95.7c0-.342.018-.685-.006-1.025-.02-.283.1-.338.347-.312a1.337,1.337,0,0,1-.1,2.663" transform="translate(-56.001 -51.352)" fill="#7f4fc7"/>
        <path id="Trazado_197042_-_Contorno" data-name="Trazado 197042 - Contorno" d="M89.148,92.134h-.017A6.821,6.821,0,0,1,85.125,90.8a6.565,6.565,0,0,1-2.408-3.416c-.078-.268-.138-.316-.4-.32a2.377,2.377,0,0,1-.081-4.745c.126-.007.153-.028.154-.029a.412.412,0,0,0,.015-.171c-.012-.916-.009-1.847-.007-2.748v-.6a3.413,3.413,0,0,1,3.659-3.679q1,0,1.993,0h1.9q1.16,0,2.32,0a1.5,1.5,0,0,0,1.588-1.166c.148-.451.407-.545.6-.545a.88.88,0,0,1,.481.173c.366.243.756.5,1.133.787a3.775,3.775,0,0,1,1.505,2.692,3.446,3.446,0,0,1-.942,2.693A2.39,2.39,0,0,0,95.9,81.8a1.347,1.347,0,0,1,0,.351.256.256,0,0,0,0,.13.4.4,0,0,0,.182.033,2.378,2.378,0,0,1-.092,4.746c-.265.005-.317.047-.4.323a6.547,6.547,0,0,1-2.416,3.423A6.851,6.851,0,0,1,89.148,92.134Zm-2.02-16.641H86.057a3.012,3.012,0,0,0-3.26,3.279v.6c0,.9,0,1.828.007,2.741,0,.345-.087.58-.547.605a1.978,1.978,0,0,0,.066,3.946.714.714,0,0,1,.779.609,6.163,6.163,0,0,0,2.262,3.206,6.418,6.418,0,0,0,3.77,1.257h.016a6.448,6.448,0,0,0,3.791-1.248,6.145,6.145,0,0,0,2.269-3.212.706.706,0,0,1,.773-.611,1.978,1.978,0,0,0,.077-3.947.621.621,0,0,1-.471-.182.551.551,0,0,1-.083-.439.97.97,0,0,0,0-.247,2.788,2.788,0,0,1,.838-2.4,3.051,3.051,0,0,0,.833-2.385,3.374,3.374,0,0,0-1.347-2.405c-.369-.277-.753-.534-1.114-.773a.5.5,0,0,0-.26-.106c-.085,0-.158.091-.217.27a1.9,1.9,0,0,1-1.967,1.441q-1.161,0-2.321,0H87.129ZM89.143,91.28A5.863,5.863,0,0,1,87.357,91a5.945,5.945,0,0,1-4.11-5.519,3.712,3.712,0,0,1,.863-2.9,10.648,10.648,0,0,0,.985-1.344c.089-.135.177-.27.267-.4a.7.7,0,0,1,.645-.338h.013c.442,0,.912.007,1.523.007l1.643,0,1.629,0c.581,0,1.029,0,1.451-.007h.016a.744.744,0,0,1,.677.353c.431.626.88,1.256,1.314,1.865q.28.393.56.787l.038.051a.684.684,0,0,1,.172.392,7.215,7.215,0,0,1-1.19,5.011A5.93,5.93,0,0,1,89.143,91.28ZM86.007,80.9a.312.312,0,0,0-.313.162c-.089.132-.177.266-.264.4a10.946,10.946,0,0,1-1.024,1.394,3.242,3.242,0,0,0-.759,2.609,5.553,5.553,0,0,0,3.832,5.16,5.464,5.464,0,0,0,1.665.26,5.532,5.532,0,0,0,4.393-2.17,6.76,6.76,0,0,0,1.107-4.748.349.349,0,0,0-.092-.169l-.045-.061q-.279-.394-.559-.787c-.435-.61-.884-1.242-1.317-1.87a.354.354,0,0,0-.348-.18H92.27c-.424.005-.873.007-1.456.007l-1.629,0-1.643,0c-.613,0-1.083,0-1.527-.007ZM82.4,86.224l-.078,0a1.539,1.539,0,0,1-.14-3.053,1.13,1.13,0,0,1,.172-.015.443.443,0,0,1,.343.131.567.567,0,0,1,.109.443,6.092,6.092,0,0,0-.009.658q0,.052,0,.1h.02v.2c0,.1,0,.207,0,.31,0,.241-.008.469.01.7a.515.515,0,0,1-.1.407A.438.438,0,0,1,82.4,86.224Zm-.046-2.671a.755.755,0,0,0-.111.01,1.14,1.14,0,0,0,.108,2.259.562.562,0,0,0,.077,0,.628.628,0,0,0,0-.094c-.02-.248-.016-.5-.011-.736q0-.052,0-.1H82.4v-.2c0-.1,0-.2,0-.3a6.486,6.486,0,0,1,.011-.7.363.363,0,0,0-.005-.134A.2.2,0,0,0,82.35,83.553Zm13.557,2.67a.434.434,0,0,1-.329-.115.458.458,0,0,1-.1-.357c.015-.241.011-.492.008-.734,0-.107,0-.214,0-.321v-.2H95.5q0-.057,0-.113c0-.241.008-.469-.009-.7a.527.527,0,0,1,.108-.407.454.454,0,0,1,.34-.126,1.163,1.163,0,0,1,.119.007,1.545,1.545,0,0,1,1.349,1.608,1.571,1.571,0,0,1-1.467,1.454Zm-.027-.4h.054a1.174,1.174,0,0,0,1.081-1.074,1.155,1.155,0,0,0-.991-1.19.542.542,0,0,0-.124,0,.379.379,0,0,0,0,.1c.017.246.013.493.01.732,0,.1,0,.2,0,.307v.2h-.014q0,.058,0,.115c0,.25.007.508-.009.764C95.88,85.8,95.88,85.811,95.88,85.823ZM83.592,82.548l-.351-.188v-.12c0-.122,0-.244,0-.366,0-.282,0-.575-.006-.859a.51.51,0,0,1,.117-.392.466.466,0,0,1,.356-.127l.062,0c.091.005.186.008.31.008l.249,0,.326,0h.387Zm.051-1.646a.305.305,0,0,0-.007.1c.01.262.01.526.008.784l.623-.879h-.186c-.132,0-.235,0-.334-.008H83.71A.248.248,0,0,0,83.644,80.9Zm11.011,1.559-.454-.644-.648-.918-.1-.146.133-.119c.012-.011.022-.021.029-.029a.258.258,0,0,1,.174-.093c.2-.01.356-.018.488-.018.256,0,.541.023.674.3a2.253,2.253,0,0,1,.091.907v.65ZM94.043,80.9l.484.687.112.158V81.7a2.457,2.457,0,0,0-.05-.731c-.014-.028-.035-.072-.314-.072C94.207,80.894,94.13,80.9,94.043,80.9Zm-10.188-.848a.648.648,0,0,1-.494-.162.631.631,0,0,1-.122-.487c.013-.166.013-.332.014-.507a5.454,5.454,0,0,1,.031-.7,2.494,2.494,0,0,1,2.489-2.238c.9-.006,1.878-.009,3.069-.009l2.179,0,1.22,0a2.411,2.411,0,0,0,2.177-1.15c.008-.012.015-.026.022-.039a.35.35,0,0,1,.307-.22.444.444,0,0,1,.216.064,2.969,2.969,0,0,1,1.4,4.067,4.189,4.189,0,0,1-.82,1.01c-.069.069-.138.137-.206.207a.535.535,0,0,1-.405.157c-.034,0-.068,0-.1,0l-.079,0-3.019,0H89.308l-2.768,0c-1.074,0-1.9,0-2.669.01Zm4.987-3.7c-1.19,0-2.164,0-3.066.009a2.1,2.1,0,0,0-2.1,1.89,5.08,5.08,0,0,0-.028.648c0,.175,0,.357-.015.538-.012.149.014.181.017.184s.035.033.2.033h.013c.773-.007,1.6-.01,2.673-.01l2.768,0h2.421l3.017,0c.035,0,.069,0,.1,0s.054,0,.081,0c.071,0,.1-.012.118-.035.069-.071.14-.142.211-.212a3.828,3.828,0,0,0,.748-.912,2.555,2.555,0,0,0-1.222-3.523c-.01.018-.02.036-.032.054a2.816,2.816,0,0,1-2.508,1.333l-1.225,0Z" transform="translate(-56.001 -51.352)" fill="#7f4fc7"/>
        <path id="Trazado_197043" data-name="Trazado 197043" d="M1.881,22.1c.885,0,1.771.01,2.656,0A.412.412,0,0,1,5,22.405a5.646,5.646,0,0,0,10.5,0,.411.411,0,0,1,.458-.316c.885.015,1.771.009,2.656,0,.527,0,.619-.1.622-.634,0-.586.006-1.171,0-1.757a39.752,39.752,0,0,0-.053-4.11A8.954,8.954,0,0,0,9.192,7.653a9.1,9.1,0,0,0-7.646,6.786.519.519,0,0,0,.267.677c.414.025.512-.257.6-.584A8.184,8.184,0,0,1,12.021,8.61a8.214,8.214,0,0,1,6.315,7.241c.07,1.682.02,3.369.037,5.054,0,.276-.11.335-.355.329-.585-.012-1.172-.026-1.756,0-.364.019-.418-.118-.395-.443.108-1.468.031-2.94.051-4.41.005-.389-.108-.64-.567-.688-.921-.1-1.836-.246-2.755-.369-1.794-.242-3.585-.508-5.384-.714a2.207,2.207,0,0,0-2.637,2.391c.007,1.3-.069,2.6.056,3.9.027.281-.079.34-.331.334-.585-.014-1.172-.024-1.756,0-.343.016-.44-.1-.431-.434.022-.828.01-1.656.005-2.485,0-.334-.05-.644-.495-.644-.338.053-.375.3-.374.575,0,1.071,0,2.142,0,3.213,0,.525.107.631.627.634m3.566-5.311a1.292,1.292,0,0,1,1.529-1.33c1.867.224,3.73.488,5.594.737.72.1,1.439.208,2.161.283.267.028.326.135.321.378-.013.656,0,1.312,0,2.1a12.769,12.769,0,0,1-.116,2.387,4.791,4.791,0,0,1-9.456-.616c-.1-1.309-.046-2.624-.029-3.936" transform="translate(-0.873 -5.303)" fill="#7f4fc7"/>
        <path id="Trazado_197043_-_Contorno" data-name="Trazado 197043 - Contorno" d="M10.277,26.172h-.056A5.859,5.859,0,0,1,4.812,22.48c-.068-.169-.112-.187-.256-.187H4.54c-.39.007-.8.01-1.291.01-.408,0-.815,0-1.223,0H1.88c-.631,0-.824-.2-.826-.833,0-.724,0-1.46,0-2.172q0-.521,0-1.042a.663.663,0,0,1,.543-.773l.031,0c.689,0,.693.613.695.843q0,.216,0,.432c0,.674.01,1.372-.008,2.059,0,.163.022.2.028.2s.028.025.145.025h.049c.25-.011.516-.017.813-.017s.6.005.956.014h.027a.405.405,0,0,0,.1-.009.377.377,0,0,0,0-.106,25.52,25.52,0,0,1-.065-2.782c0-.371.01-.755.008-1.132a2.659,2.659,0,0,1,.706-1.943,2.4,2.4,0,0,1,1.753-.671,3.524,3.524,0,0,1,.4.023c1.289.148,2.594.329,3.856.5q.766.106,1.532.21c.3.041.609.085.905.128.6.087,1.228.177,1.843.241a.762.762,0,0,1,.746.889c-.007.506,0,1.021,0,1.519.009.95.017,1.933-.054,2.9-.012.17.006.207.011.213a.271.271,0,0,0,.122.017h.052c.241-.012.5-.019.8-.019.31,0,.624.007.928.013h.071a.31.31,0,0,0,.112-.013.291.291,0,0,0,.014-.115c-.006-.606,0-1.221,0-1.816,0-1.061.009-2.157-.036-3.232a8.008,8.008,0,0,0-6.156-7.054,8.2,8.2,0,0,0-1.656-.17,7.978,7.978,0,0,0-7.718,5.948c-.074.274-.2.733-.743.733l-.063,0-.041,0L1.725,15.3a.728.728,0,0,1-.373-.9A9.029,9.029,0,0,1,4.191,9.726a9.057,9.057,0,0,1,4.98-2.271A9.9,9.9,0,0,1,10.217,7.4a9.131,9.131,0,0,1,9.16,8.175,21.03,21.03,0,0,1,.068,2.807c-.009.435-.018.884-.014,1.324.006.6,0,1.2,0,1.76,0,.65-.18.829-.821.833h-.176c-.4,0-.8,0-1.194,0-.492,0-.9,0-1.292-.01h-.016c-.142,0-.182.018-.253.192A5.843,5.843,0,0,1,10.277,26.172ZM4.556,21.893a.6.6,0,0,1,.627.437,5.459,5.459,0,0,0,5.042,3.442h.052a5.444,5.444,0,0,0,5.032-3.439.6.6,0,0,1,.623-.441h.023c.387.007.795.01,1.285.01.4,0,.794,0,1.192,0h.175c.077,0,.311,0,.366-.057s.057-.29.057-.377c0-.562.006-1.161,0-1.754,0-.446,0-.9.014-1.336a20.729,20.729,0,0,0-.066-2.754A8.731,8.731,0,0,0,10.217,7.8a9.5,9.5,0,0,0-1,.054,8.654,8.654,0,0,0-4.757,2.173,8.626,8.626,0,0,0-2.715,4.458c-.059.261-.007.359.125.434.193,0,.259-.083.354-.437a8.378,8.378,0,0,1,8.1-6.245,8.6,8.6,0,0,1,1.737.179,8.429,8.429,0,0,1,6.475,7.429c.045,1.084.041,2.185.036,3.25,0,.594,0,1.208,0,1.81a.546.546,0,0,1-.129.4.535.535,0,0,1-.4.131h-.08c-.3-.006-.614-.013-.919-.013-.288,0-.541.006-.776.018l-.073,0a.548.548,0,0,1-.416-.145.657.657,0,0,1-.116-.514c.07-.953.061-1.927.053-2.87,0-.5-.009-1.018,0-1.528,0-.345-.082-.454-.388-.486-.623-.065-1.251-.155-1.859-.243-.3-.043-.6-.087-.9-.127q-.767-.1-1.533-.211c-1.26-.175-2.563-.355-3.847-.5a3.122,3.122,0,0,0-.355-.021,2.015,2.015,0,0,0-1.47.553,2.27,2.27,0,0,0-.589,1.659c0,.38,0,.766-.008,1.139a25.217,25.217,0,0,0,.064,2.738.529.529,0,0,1-.1.416.514.514,0,0,1-.4.137H4.3c-.352-.008-.647-.014-.947-.014s-.551.005-.8.016l-.068,0a.583.583,0,0,1-.432-.146.664.664,0,0,1-.141-.495c.018-.68.013-1.374.008-2.045q0-.216,0-.433c0-.372-.072-.442-.279-.445-.132.023-.19.074-.19.375q0,.521,0,1.042c0,.711,0,1.447,0,2.17,0,.077,0,.312.062.373s.291.062.367.062h.147c.407,0,.814,0,1.22,0,.489,0,.9,0,1.284-.009Zm5.8,3.425c-.1,0-.193,0-.288-.009a4.965,4.965,0,0,1-4.795-4.571c-.082-1.062-.062-2.14-.042-3.183,0-.257.01-.514.013-.771a1.478,1.478,0,0,1,1.522-1.54A1.949,1.949,0,0,1,7,15.257c1.339.161,2.7.345,4.011.523l1.586.214c.222.03.444.061.665.092.488.069.993.139,1.49.191a.5.5,0,0,1,.5.581c-.009.46-.008.931-.006,1.429,0,.213,0,.433,0,.665v.008c-.008.21-.005.432,0,.668a7.667,7.667,0,0,1-.118,1.754A5.029,5.029,0,0,1,10.36,25.318ZM6.769,15.643a1.083,1.083,0,0,0-1.122,1.146c0,.258-.008.515-.013.773-.019,1.033-.04,2.1.041,3.144a4.573,4.573,0,0,0,4.422,4.2c.087.006.175.009.262.009a4.621,4.621,0,0,0,4.376-3.623,7.245,7.245,0,0,0,.109-1.663c0-.239-.006-.466,0-.685s0-.448,0-.659c0-.5,0-.974.006-1.439,0-.16,0-.16-.142-.175-.5-.052-1.012-.123-1.5-.192-.221-.031-.442-.062-.663-.091l-1.587-.214c-1.312-.178-2.669-.362-4-.522A1.549,1.549,0,0,0,6.769,15.643Z" transform="translate(-0.873 -5.303)" fill="#7f4fc7"/>
        <path id="Trazado_197044" data-name="Trazado 197044" d="M69.843,17.977q1.466.745,2.938,1.475a1.5,1.5,0,0,1,.748.607c.113.214.318.212.523.2.324-.207.327-.459.129-.764a2.181,2.181,0,0,0-.909-.754c-.846-.421-1.688-.849-2.591-1.3.835-.422,1.6-.843,2.386-1.2A2.548,2.548,0,0,0,74.5,14.653a8.036,8.036,0,1,1,8.263,10.794,7.892,7.892,0,0,1-6.77-2.708c-.224-.248-.439-.409-.77-.215-.22.261-.145.489.064.719a8.606,8.606,0,0,0,8.36,2.925,8.793,8.793,0,0,0,7.224-9.756,8.89,8.89,0,0,0-17.245-1.865,1.383,1.383,0,0,1-.744.827c-1.025.5-2.037,1.016-3.054,1.529-.238.12-.538.2-.532.542s.312.414.547.534" transform="translate(-48.361 -5.963)" fill="#7f4fc7"/>
        <path id="Trazado_197044_-_Contorno" data-name="Trazado 197044 - Contorno" d="M81.848,26.539a8.857,8.857,0,0,1-6.71-3.163.674.674,0,0,1-.069-.982l.022-.026.03-.017a.742.742,0,0,1,.379-.114.886.886,0,0,1,.641.367,7.662,7.662,0,0,0,5.887,2.671c.235,0,.477-.009.719-.028a7.819,7.819,0,0,0,7.069-6.875,7.816,7.816,0,0,0-6.128-8.6,7.558,7.558,0,0,0-1.672-.188,7.776,7.776,0,0,0-4.442,1.4,7.694,7.694,0,0,0-2.887,3.741,2.757,2.757,0,0,1-1.537,1.7c-.54.241-1.063.513-1.617.8l-.409.212.408.206c.631.318,1.226.619,1.83.919a2.339,2.339,0,0,1,.987.824.787.787,0,0,1,.153.6.712.712,0,0,1-.342.441l-.044.028-.052,0c-.041,0-.089.005-.137.005a.6.6,0,0,1-.576-.31,1.318,1.318,0,0,0-.66-.521c-.918-.454-1.88-.937-2.94-1.476-.034-.018-.071-.034-.107-.051a.745.745,0,0,1-.549-.658.732.732,0,0,1,.542-.676l.1-.047.715-.362c.765-.388,1.556-.789,2.342-1.169a1.188,1.188,0,0,0,.643-.715A9.033,9.033,0,0,1,82.1,8.344c.308,0,.621.014.932.043a9.129,9.129,0,0,1,8.035,8,9.354,9.354,0,0,1-1.707,6.477,9.068,9.068,0,0,1-5.679,3.495A9.994,9.994,0,0,1,81.848,26.539Zm-6.5-3.86c-.093.122-.1.229.081.428a8.473,8.473,0,0,0,6.414,3.032,9.592,9.592,0,0,0,1.761-.169,8.67,8.67,0,0,0,5.431-3.339,8.955,8.955,0,0,0,1.631-6.2A8.718,8.718,0,0,0,83,8.785c-.3-.027-.6-.041-.9-.041a8.642,8.642,0,0,0-8.288,5.869,1.581,1.581,0,0,1-.845.939c-.783.378-1.572.778-2.335,1.165l-.715.362-.111.053c-.228.106-.314.16-.311.307s.089.2.316.3c.041.019.082.038.121.058,1.059.538,2.02,1.02,2.936,1.474a1.7,1.7,0,0,1,.836.692c.034.065.078.1.222.1h.057a.3.3,0,0,0,.126-.161.433.433,0,0,0-.1-.3,1.965,1.965,0,0,0-.83-.684c-.6-.3-1.2-.6-1.832-.92l-.76-.383-.354-.178.354-.179c.258-.13.511-.262.757-.389.559-.29,1.087-.565,1.638-.811a2.351,2.351,0,0,0,1.324-1.473,8.092,8.092,0,0,1,3.036-3.935,8.174,8.174,0,0,1,4.669-1.47,7.958,7.958,0,0,1,1.761.2,8.216,8.216,0,0,1,6.437,9.038,8.224,8.224,0,0,1-7.436,7.23c-.252.019-.5.029-.75.029a8.047,8.047,0,0,1-6.184-2.8c-.151-.167-.25-.235-.344-.235A.329.329,0,0,0,75.353,22.679Z" transform="translate(-48.361 -5.963)" fill="#7f4fc7"/>
        <path id="Trazado_197045" data-name="Trazado 197045" d="M23.91,82.95c-1.029-.519-2.057-1.039-3.092-1.547a1.331,1.331,0,0,1-.707-.8,8.884,8.884,0,0,0-17.2,4.145c.052.341.189.565.571.548a.535.535,0,0,0,.286-.643,8.268,8.268,0,0,1,.072-2.769,8.035,8.035,0,0,1,9.221-6.313,7.876,7.876,0,0,1,6.249,5.348,2.084,2.084,0,0,0,1.1,1.238c.746.356,1.48.737,2.214,1.116.113.058.282.062.321.249-.73.366-1.44.766-2.185,1.085a2.816,2.816,0,0,0-1.595,1.769,8.01,8.01,0,0,1-14.083,1.62c-.182-.26-.36-.494-.727-.339a.476.476,0,0,0-.056.717,8.582,8.582,0,0,0,8.565,3.882A8.555,8.555,0,0,0,20.1,86.369a1.4,1.4,0,0,1,.734-.833c1.037-.5,2.063-1.028,3.092-1.549.224-.113.494-.194.488-.524s-.28-.4-.5-.513" transform="translate(-1.964 -52.067)" fill="#7f4fc7"/>
        <path id="Trazado_197045_-_Contorno" data-name="Trazado 197045 - Contorno" d="M11.533,92.541h0A8.746,8.746,0,0,1,4.14,88.486a.673.673,0,0,1,.087-.984l.024-.021.03-.012a.767.767,0,0,1,.3-.066.86.86,0,0,1,.672.474A7.779,7.779,0,0,0,10.5,91.192a7.421,7.421,0,0,0,1.233.1,7.879,7.879,0,0,0,4.386-1.367A7.537,7.537,0,0,0,18.982,86.3a3,3,0,0,1,1.7-1.884c.51-.219,1.016-.482,1.5-.736l.4-.21a.65.65,0,0,1-.059-.027l-.044-.023c-.706-.365-1.437-.742-2.164-1.09a2.293,2.293,0,0,1-1.2-1.349,7.7,7.7,0,0,0-6.1-5.22,7.171,7.171,0,0,0-1.36-.13A7.813,7.813,0,0,0,6.759,77.42a7.65,7.65,0,0,0-2.721,4.5,8.016,8.016,0,0,0-.07,2.7.712.712,0,0,1-.4.853l-.037.018-.042,0H3.444c-.41,0-.655-.242-.728-.719a9.1,9.1,0,0,1,7.427-10.242,9.878,9.878,0,0,1,1.575-.128,8.993,8.993,0,0,1,5.233,1.644A9.251,9.251,0,0,1,20.3,80.533a1.139,1.139,0,0,0,.607.69c1,.489,2,1,2.974,1.488l.12.061.094.045a.673.673,0,0,1,0,1.31l-.08.039-.5.255c-.846.429-1.722.872-2.59,1.294a1.206,1.206,0,0,0-.634.724,9.633,9.633,0,0,1-2.82,4.11,8.85,8.85,0,0,1-4.572,1.9A10.58,10.58,0,0,1,11.533,92.541ZM4.467,87.826c-.115.11-.147.221,0,.429a8.367,8.367,0,0,0,7.065,3.886h0a10.177,10.177,0,0,0,1.31-.087,8.33,8.33,0,0,0,7.07-5.756,1.594,1.594,0,0,1,.833-.942c.866-.421,1.739-.864,2.584-1.292l.505-.256.089-.043c.216-.1.292-.152.289-.3s-.076-.189-.287-.287l-.107-.051-.12-.061c-.972-.491-1.976-1-2.97-1.486a1.531,1.531,0,0,1-.807-.915,8.853,8.853,0,0,0-3.2-4.292,8.6,8.6,0,0,0-5-1.57,9.478,9.478,0,0,0-1.511.123,8.71,8.71,0,0,0-7.1,9.786c.048.312.15.377.322.379.118-.069.177-.168.14-.414a8.409,8.409,0,0,1,.073-2.835A8.051,8.051,0,0,1,6.507,77.11a8.214,8.214,0,0,1,5.158-1.876,7.571,7.571,0,0,1,1.436.137,8.082,8.082,0,0,1,6.4,5.475,1.887,1.887,0,0,0,1,1.126c.733.351,1.466.729,2.175,1.1l.044.023a.6.6,0,0,0,.066.026.481.481,0,0,1,.359.359l.032.151-.138.069c-.222.112-.447.228-.664.341-.5.258-1.008.524-1.532.749a2.627,2.627,0,0,0-1.486,1.655,7.934,7.934,0,0,1-3.012,3.818A8.282,8.282,0,0,1,11.735,91.7a7.822,7.822,0,0,1-1.3-.109,8.166,8.166,0,0,1-5.512-3.48C4.733,87.836,4.651,87.76,4.467,87.826Z" transform="translate(-1.964 -52.067)" fill="#7f4fc7"/>
        <path id="Trazado_197046" data-name="Trazado 197046" d="M3.859,128.366A1.834,1.834,0,0,1,2.5,126.779c-.054-.232-.164-.4-.422-.4-.284-.007-.4.18-.454.421A1.794,1.794,0,0,1,.3,128.357a.387.387,0,0,0-.3.377.371.371,0,0,0,.257.4,1.881,1.881,0,0,1,1.392,1.658.393.393,0,0,0,.424.347.4.4,0,0,0,.405-.318c.023-.082.053-.162.073-.245a1.676,1.676,0,0,1,1.224-1.391.405.405,0,0,0,.35-.409.368.368,0,0,0-.267-.41m-1.309.521c-.154.166-.3.336-.474.524-.205-.223-.536-.425-.563-.662-.021-.184.336-.411.551-.648l.541.582c.09.1,0,.143-.055.2" transform="translate(0 -88.198)" fill="#7f4fc7"/>
        <path id="Trazado_197046_-_Contorno" data-name="Trazado 197046 - Contorno" d="M2.063,131.341a.588.588,0,0,1-.611-.518,1.691,1.691,0,0,0-1.254-1.5.567.567,0,0,1-.4-.6.586.586,0,0,1,.449-.56,1.591,1.591,0,0,0,1.181-1.407.625.625,0,0,1,.633-.579h.021a.619.619,0,0,1,.612.556c.2.853.561,1.283,1.209,1.438a.562.562,0,0,1,.421.6.6.6,0,0,1-.5.6,1.467,1.467,0,0,0-1.08,1.245c-.013.055-.03.106-.045.155-.01.032-.021.064-.029.1a.6.6,0,0,1-.594.465Zm0-4.763c-.1,0-.189.02-.243.264a2.006,2.006,0,0,1-1.475,1.709.191.191,0,0,0-.146.193.174.174,0,0,0,.116.2,2.083,2.083,0,0,1,1.531,1.819.2.2,0,0,0,.216.176H2.07a.205.205,0,0,0,.216-.172c.01-.037.022-.074.034-.111s.028-.086.037-.127a1.87,1.87,0,0,1,1.368-1.538c.206-.054.2-.166.2-.209v-.013c0-.12-.035-.19-.113-.209a2.06,2.06,0,0,1-1.506-1.736c-.052-.225-.136-.245-.232-.247Zm.014,3.131-.149-.162c-.056-.06-.123-.121-.2-.185a1.032,1.032,0,0,1-.419-.59c-.027-.228.174-.408.386-.6.076-.068.155-.139.216-.207l.146-.161.174.187.516.556a.3.3,0,0,1-.035.455l-.021.021c-.105.113-.209.229-.32.352l-.152.169Zm-.364-.972c.02.09.167.221.287.327l.066.06.012-.014c.11-.123.214-.239.321-.353l-.341-.367-.091.083A1.4,1.4,0,0,0,1.714,128.736Z" transform="translate(0 -88.198)" fill="#7f4fc7"/>
        <path id="Trazado_197047" data-name="Trazado 197047" d="M56.6,62.343c-.228.067-.439.152-.459.433-.021.312.21.415.443.494a1.605,1.605,0,0,1,1.125,1.277c.014.069.043.136.056.206.047.248.16.43.443.429.258,0,.379-.158.427-.394.02-.1.053-.192.081-.288a1.644,1.644,0,0,1,1.152-1.258c.218-.061.395-.17.4-.434,0-.287-.195-.391-.425-.458a1.506,1.506,0,0,1-1.059-1.075q-.082-.264-.161-.529a.436.436,0,0,0-.4-.33c-.3.014-.4.2-.466.465A1.734,1.734,0,0,1,56.6,62.343m1.555-.17c.1-.046.117,0,.131.037.107.256.511.389.445.645-.055.213-.35.377-.517.648a3.5,3.5,0,0,0-.634-.687,3.386,3.386,0,0,0,.574-.643" transform="translate(-39.181 -42.165)" fill="#7f4fc7"/>
        <path id="Trazado_197047_-_Contorno" data-name="Trazado 197047 - Contorno" d="M58.207,65.382a.621.621,0,0,1-.637-.591.766.766,0,0,0-.023-.086,1.192,1.192,0,0,1-.032-.118,1.41,1.41,0,0,0-.994-1.128.692.692,0,0,1-.578-.7.7.7,0,0,1,.6-.611,1.556,1.556,0,0,0,1.015-1.316.7.7,0,0,1,.652-.617h.016l.016,0a.632.632,0,0,1,.57.471c.05.169.1.346.16.527a1.309,1.309,0,0,0,.924.943.668.668,0,0,1,.569.651.635.635,0,0,1-.543.625,1.444,1.444,0,0,0-1.014,1.121c-.008.029-.018.059-.027.089-.02.064-.038.125-.05.184a.611.611,0,0,1-.622.553Zm.007-4.764c-.133.01-.2.062-.265.312a1.926,1.926,0,0,1-1.291,1.605c-.258.076-.307.132-.315.255s.036.2.307.291a1.8,1.8,0,0,1,1.257,1.426c0,.024.013.051.022.079a1.1,1.1,0,0,1,.035.131c.047.245.138.265.243.265v.2l0-.2c.1,0,.188-.019.232-.234.016-.077.038-.149.059-.219.008-.028.017-.055.025-.083a1.832,1.832,0,0,1,1.291-1.4c.231-.065.25-.148.251-.243,0-.123-.041-.194-.281-.264a1.7,1.7,0,0,1-1.194-1.208c-.057-.183-.112-.362-.162-.532A.235.235,0,0,0,58.214,60.618Zm.01,3.252-.174-.256a3.285,3.285,0,0,0-.6-.649l-.169-.147.165-.151a3.161,3.161,0,0,0,.541-.6l.03-.048.051-.025a.35.35,0,0,1,.154-.039.261.261,0,0,1,.249.18.709.709,0,0,0,.181.2.574.574,0,0,1,.273.571.988.988,0,0,1-.3.426,1.584,1.584,0,0,0-.24.277Zm-.347-1.059a3.665,3.665,0,0,1,.342.362c.042-.045.084-.087.124-.127a.777.777,0,0,0,.2-.242c.008-.031-.091-.119-.151-.171a1.62,1.62,0,0,1-.184-.182A3.6,3.6,0,0,1,57.877,62.811Z" transform="translate(-39.181 -42.165)" fill="#7f4fc7"/>
        <path id="Trazado_197048" data-name="Trazado 197048" d="M75.081,75.354A1.733,1.733,0,0,1,76.35,73.9a.433.433,0,0,0,.331-.5c-.022-.193-.19-.3-.412-.363a1.605,1.605,0,0,1-1.118-1.185c-.042-.136-.068-.276-.111-.412a.423.423,0,0,0-.432-.343.417.417,0,0,0-.412.363c-.027.111-.058.22-.089.329a1.639,1.639,0,0,1-1.156,1.255c-.223.062-.39.172-.392.435s.171.374.387.444a1.706,1.706,0,0,1,1.21,1.412c.05.263.127.526.452.531s.407-.24.473-.509m-.469-1.272a2.067,2.067,0,0,1-.546-.521c-.089-.093,0-.144.059-.205.164-.173.324-.351.5-.548a2.734,2.734,0,0,0,.349.416c.228.182.257.329,0,.5-.15.1-.234.417-.366.358" transform="translate(-50.638 -49.615)" fill="#7f4fc7"/>
        <path id="Trazado_197048_-_Contorno" data-name="Trazado 197048 - Contorno" d="M74.618,76.063H74.6c-.516-.009-.606-.489-.645-.694a1.509,1.509,0,0,0-1.076-1.259.657.657,0,0,1-.525-.635.631.631,0,0,1,.538-.627,1.434,1.434,0,0,0,1.018-1.117l.009-.031c.028-.1.055-.194.078-.29a.628.628,0,0,1,1.229-.035c.025.077.044.154.062.228s.031.127.05.186a1.4,1.4,0,0,0,.981,1.052c.423.117.537.354.557.532v.014a.63.63,0,0,1-.483.7A1.531,1.531,0,0,0,75.275,75.4C75.222,75.616,75.112,76.063,74.618,76.063Zm.009-4.77h-.012c-.092,0-.182.031-.225.21-.025.1-.054.207-.083.307l-.009.031A1.822,1.822,0,0,1,73,73.233c-.206.058-.244.127-.245.244s.038.184.249.252a1.9,1.9,0,0,1,1.345,1.565c.059.314.125.366.259.368h.007c.134,0,.194-.054.269-.357A1.947,1.947,0,0,1,76.3,73.7c.093-.023.187-.076.18-.288-.005-.036-.03-.121-.266-.187a1.788,1.788,0,0,1-1.256-1.319c-.022-.071-.039-.141-.056-.208s-.034-.138-.055-.2C74.791,71.318,74.708,71.293,74.627,71.293Zm.017,3a.278.278,0,0,1-.113-.024,1.412,1.412,0,0,1-.478-.417c-.045-.054-.088-.1-.132-.15a.288.288,0,0,1-.076-.3.4.4,0,0,1,.113-.155l.021-.021c.116-.122.229-.247.35-.379l.154-.168.156-.17.146.179c.044.054.083.106.121.157a1.226,1.226,0,0,0,.2.229.558.558,0,0,1,.258.433.537.537,0,0,1-.271.391.642.642,0,0,0-.1.136C74.91,74.143,74.815,74.288,74.644,74.288Zm-.372-.8.086.1a1.611,1.611,0,0,0,.261.267l.031-.047a.822.822,0,0,1,.217-.251.374.374,0,0,0,.09-.076.442.442,0,0,0-.1-.1,1.35,1.35,0,0,1-.238-.26C74.5,73.247,74.386,73.369,74.272,73.489Z" transform="translate(-50.638 -49.615)" fill="#7f4fc7"/>
        <path id="Trazado_197049" data-name="Trazado 197049" d="M1.682,35.969c.272-.034.5-.116.528-.443s-.158-.464-.45-.51a.443.443,0,0,0-.441.417.5.5,0,0,0,.363.537" transform="translate(-0.918 -24.437)" fill="#7f4fc7"/>
        <path id="Trazado_197049_-_Contorno" data-name="Trazado 197049 - Contorno" d="M1.654,36.174,1.6,36.154a.686.686,0,0,1-.484-.742.641.641,0,0,1,.614-.594l.028,0,.028,0a.638.638,0,0,1,.618.722.694.694,0,0,1-.7.627Zm.1-.956c-.182.03-.227.113-.24.235s.016.223.194.31c.24-.038.288-.111.3-.252S1.985,35.261,1.758,35.218Z" transform="translate(-0.918 -24.437)" fill="#7f4fc7"/>
        <path id="Trazado_197050" data-name="Trazado 197050" d="M5.343,113.389c.14-.153.3-.295.208-.541a.478.478,0,0,0-.535-.3.461.461,0,0,0-.249.6c.1.26.341.262.576.237" transform="translate(-3.3 -78.548)" fill="#7f4fc7"/>
        <path id="Trazado_197050_-_Contorno" data-name="Trazado 197050 - Contorno" d="M5.181,113.6a.586.586,0,0,1-.6-.372.658.658,0,0,1,.33-.847l.045-.027.052,0h.052a.656.656,0,0,1,.677.428.639.639,0,0,1-.213.711l-.085.092-.075.008A1.717,1.717,0,0,1,5.181,113.6Zm-.1-.85c-.174.122-.163.23-.124.328s.088.133.3.119c.124-.134.151-.183.115-.277S5.263,112.753,5.076,112.749Z" transform="translate(-3.3 -78.548)" fill="#7f4fc7"/>
        <path id="Trazado_197051" data-name="Trazado 197051" d="M85.51,49.828a.433.433,0,0,0-.152.584.426.426,0,0,0,.535.2c.184-.145.34-.3.218-.565a.43.43,0,0,0-.6-.22" transform="translate(-59.53 -34.746)" fill="#7f4fc7"/>
        <path id="Trazado_197051_-_Contorno" data-name="Trazado 197051 - Contorno" d="M85.725,50.837a.6.6,0,0,1-.544-.33.627.627,0,0,1,.2-.835l.028-.022.034-.011a.911.911,0,0,1,.29-.052.587.587,0,0,1,.556.377.634.634,0,0,1-.276.807l-.032.025-.039.011A.842.842,0,0,1,85.725,50.837Zm-.118-.83a.224.224,0,0,0-.074.31.2.2,0,0,0,.192.119.4.4,0,0,0,.077-.008c.173-.142.171-.2.127-.3-.063-.135-.132-.146-.193-.146A.479.479,0,0,0,85.607,50.007Z" transform="translate(-59.53 -34.746)" fill="#7f4fc7"/>
        <path id="Trazado_197052" data-name="Trazado 197052" d="M101.436,28.422c-.288.021-.468-.4-.726-.6a2.194,2.194,0,0,0-1.382-.492,2.152,2.152,0,0,0-2.035,1.306,2.068,2.068,0,0,0,.391,2.382c1.1,1.154,2.252,2.268,3.38,3.4a.44.44,0,0,0,.706.017c1.149-1.151,2.33-2.273,3.436-3.465a2.18,2.18,0,0,0-1.026-3.549,2.13,2.13,0,0,0-2.049.415c-.241.2-.452.57-.7.587m1.138.167a1.354,1.354,0,1,1,1.894,1.934c-.93.946-1.878,1.875-2.81,2.818-.155.157-.253.214-.44.023-.949-.968-1.916-1.917-2.868-2.882a1.287,1.287,0,0,1-.27-1.5,1.261,1.261,0,0,1,1.21-.8,1.306,1.306,0,0,1,1,.409c.256.248.51.5.757.756a.464.464,0,0,0,.769-.008c.247-.257.5-.512.758-.755" transform="translate(-67.754 -19.065)" fill="#7f4fc7"/>
        <path id="Trazado_197052_-_Contorno" data-name="Trazado 197052 - Contorno" d="M101.43,34.8a.721.721,0,0,1-.507-.245c-.358-.359-.724-.723-1.078-1.075-.762-.757-1.549-1.539-2.3-2.328a2.255,2.255,0,0,1-.43-2.6,2.346,2.346,0,0,1,2.207-1.428h.019a2.377,2.377,0,0,1,1.5.534,1.862,1.862,0,0,1,.286.3c.1.123.216.262.3.262h.006c.078-.005.216-.16.317-.273a2.428,2.428,0,0,1,.267-.27,2.34,2.34,0,0,1,1.5-.562,2.571,2.571,0,0,1,.728.11,2.4,2.4,0,0,1,1.646,1.68,2.309,2.309,0,0,1-.53,2.2c-.782.844-1.614,1.664-2.419,2.458-.336.331-.683.673-1.021,1.012A.68.68,0,0,1,101.43,34.8Zm-2.113-7.275a1.952,1.952,0,0,0-1.839,1.184,1.879,1.879,0,0,0,.351,2.166c.752.786,1.538,1.566,2.3,2.321.354.352.721.716,1.08,1.076a.37.37,0,0,0,.224.127.306.306,0,0,0,.2-.11c.34-.34.687-.683,1.024-1.015.8-.79,1.631-1.608,2.407-2.445a1.912,1.912,0,0,0,.437-1.818,2.007,2.007,0,0,0-1.373-1.4,1.938,1.938,0,0,0-1.865.378,2.148,2.148,0,0,0-.221.226.961.961,0,0,1-.587.406h-.034a.844.844,0,0,1-.606-.408,1.583,1.583,0,0,0-.222-.237,1.991,1.991,0,0,0-1.251-.45h-.019Zm2.109,6.158a.51.51,0,0,1-.352-.181c-.519-.529-1.052-1.062-1.568-1.577-.427-.426-.869-.867-1.3-1.3a1.492,1.492,0,0,1-.312-1.719,1.457,1.457,0,0,1,1.387-.917l.072,0a1.519,1.519,0,0,1,1.075.467c.3.291.543.533.762.761a.364.364,0,0,0,.235.139h0a.382.382,0,0,0,.245-.146c.22-.23.483-.5.766-.763a1.663,1.663,0,0,1,1.129-.46,1.518,1.518,0,0,1,1.073.446,1.551,1.551,0,0,1-.029,2.235c-.506.515-1.026,1.033-1.529,1.535-.421.42-.857.854-1.282,1.284A.541.541,0,0,1,101.426,33.686Zm-2.072-5.3H99.3a1.069,1.069,0,0,0-1.035.674,1.087,1.087,0,0,0,.228,1.282c.43.436.871.877,1.3,1.3.517.516,1.051,1.049,1.571,1.58a.37.37,0,0,0,.065.056.626.626,0,0,0,.09-.08c.426-.431.862-.866,1.284-1.286.5-.5,1.021-1.018,1.526-1.532a1.16,1.16,0,0,0,.033-1.671,1.12,1.12,0,0,0-.792-.33,1.265,1.265,0,0,0-.856.353c-.276.257-.534.521-.75.747a.749.749,0,0,1-.534.27h0a.733.733,0,0,1-.523-.261c-.216-.224-.455-.463-.752-.751A1.118,1.118,0,0,0,99.354,28.385Z" transform="translate(-67.754 -19.065)" fill="#7f4fc7"/>
        <path id="Trazado_197053" data-name="Trazado 197053" d="M117.421,26.825a6.4,6.4,0,0,1-1.981,1.158c-.236.088-.392.266-.3.529a.4.4,0,0,0,.581.262c.066-.025.136-.042.2-.068a6.855,6.855,0,0,0,4.444-6.155,7.059,7.059,0,0,0-2.431-5.533,6.977,6.977,0,0,0-2.978-1.526c-.3-.073-.563-.046-.633.306-.063.32.152.46.431.527.083.02.164.047.246.07a6.028,6.028,0,0,1,2.581,1.454,5.9,5.9,0,0,1,1.848,5.309,5.813,5.813,0,0,1-2.013,3.667" transform="translate(-79.781 -10.79)" fill="#7f4fc7"/>
        <path id="Trazado_197053_-_Contorno" data-name="Trazado 197053 - Contorno" d="M115.518,29.016h0a.623.623,0,0,1-.147-1.22,6.171,6.171,0,0,0,1.92-1.122,5.616,5.616,0,0,0,1.946-3.544,5.707,5.707,0,0,0-1.789-5.138,5.854,5.854,0,0,0-2.5-1.405l-.084-.025c-.054-.016-.1-.031-.154-.043-.608-.146-.625-.539-.581-.76a.565.565,0,0,1,.592-.5,1.205,1.205,0,0,1,.284.038,7.242,7.242,0,0,1,5.562,7.249v.011a6.963,6.963,0,0,1-1.257,3.756A7.234,7.234,0,0,1,116,28.893c-.041.016-.08.028-.118.04s-.058.018-.086.029A.778.778,0,0,1,115.518,29.016Zm-.795-13.356c-.109,0-.17.027-.2.177-.018.091-.043.215.282.293.061.014.12.032.177.049l.078.023a6.25,6.25,0,0,1,2.665,1.5,6.088,6.088,0,0,1,1.907,5.481,6,6,0,0,1-2.08,3.79,6.564,6.564,0,0,1-2.042,1.194c-.245.091-.2.22-.18.275.06.171.153.171.188.171a.383.383,0,0,0,.134-.029c.038-.015.075-.026.11-.037s.063-.02.091-.03a6.836,6.836,0,0,0,3.132-2.435,6.564,6.564,0,0,0,1.185-3.535,6.842,6.842,0,0,0-5.256-6.863A.829.829,0,0,0,114.723,15.66Z" transform="translate(-79.781 -10.79)" fill="#7f4fc7"/>
        <path id="Trazado_197054" data-name="Trazado 197054" d="M110.742,58c-.33-.037-.661-.007-.653.429.006.328.263.428.57.422s.638-.041.66-.427c.021-.36-.232-.483-.577-.424" transform="translate(-76.83 -40.466)" fill="#7f4fc7"/>
        <path id="Trazado_197054_-_Contorno" data-name="Trazado 197054 - Contorno" d="M110.634,59.049h0c-.459,0-.738-.231-.744-.619a.624.624,0,0,1,.16-.468.679.679,0,0,1,.51-.176c.054,0,.112,0,.177.01a.7.7,0,0,1,.633.166.607.607,0,0,1,.149.471c-.034.6-.61.611-.856.616Zm-.075-.863a.329.329,0,0,0-.225.056.268.268,0,0,0-.045.18c0,.079,0,.226.344.226h.022c.407-.008.456-.083.465-.239a.244.244,0,0,0-.041-.173.266.266,0,0,0-.18-.053.738.738,0,0,0-.123.011l-.028,0-.028,0A1.468,1.468,0,0,0,110.559,58.186Z" transform="translate(-76.83 -40.466)" fill="#7f4fc7"/>
        <path id="Trazado_197055" data-name="Trazado 197055" d="M20.862,89.087a2.088,2.088,0,0,0-2.156,2.206c0,.856-.013,1.712,0,2.567a2.045,2.045,0,0,0,2.039,2.051c1.7.021,3.394,0,5.091.009.274,0,.494-.079.536-.372s-.128-.449-.406-.5c-1.726,0-3.452.016-5.177.008a1.2,1.2,0,0,1-1.177-.883c-.069-.234-.017-.3.224-.3.485.013.97,0,1.455,0a.4.4,0,0,0,.462-.4.413.413,0,0,0-.452-.457c-.342-.011-.685,0-1.027,0-.742,0-.728,0-.723-.752,0-.259.1-.305.323-.3.413.015.827,0,1.241.007.33.008.641-.037.636-.441,0-.373-.3-.431-.614-.421s-.657.013-.984,0c-.19-.008-.479.1-.549-.064-.09-.217.08-.462.236-.653a1.056,1.056,0,0,1,.721-.417c.283-.028.569-.031.853-.04a.8.8,0,0,0,.874-.882c.008-.3.007-.6,0-.9s.019-.611.4-.633.433.28.46.585a1.979,1.979,0,0,0,1.924,1.824c.3.012.6.016.9.023.272-.057.45-.209.406-.5-.048-.323-.3-.369-.579-.377-1.483-.044-1.482-.047-1.857-1.46a1.253,1.253,0,0,0-1.338-.956,1.287,1.287,0,0,0-1.158,1.177c-.016.213-.008.427-.009.641,0,.584,0,.584-.573.6" transform="translate(-13.051 -60.482)" fill="#7f4fc7"/>
        <path id="Trazado_197055_-_Contorno" data-name="Trazado 197055 - Contorno" d="M22.861,96.123c-.847,0-1.5,0-2.115-.011a2.24,2.24,0,0,1-2.236-2.248c-.013-.7-.009-1.421-.006-2.114q0-.229,0-.458a2.277,2.277,0,0,1,2.35-2.405,1.912,1.912,0,0,0,.361-.027,1.958,1.958,0,0,0,.018-.371c0-.055,0-.108,0-.162,0-.162,0-.329.01-.5a1.492,1.492,0,0,1,1.34-1.361c.045,0,.091-.006.136-.006a1.457,1.457,0,0,1,1.413,1.11c.171.644.264,1,.444,1.138s.552.153,1.226.174a.689.689,0,0,1,.771.548.623.623,0,0,1-.563.727l-.023,0h-.023l-.284-.006c-.2,0-.41-.009-.616-.017a2.187,2.187,0,0,1-2.115-2.007c-.033-.368-.09-.4-.222-.4H22.7c-.154.009-.221.052-.212.429.008.313.008.619,0,.908a1,1,0,0,1-1.067,1.076l-.2.006c-.212.006-.432.012-.642.034a.86.86,0,0,0-.586.344c-.1.126-.231.3-.214.42H19.8a1.254,1.254,0,0,0,.145-.013,1.348,1.348,0,0,1,.224-.016c.151.007.311.01.477.01s.316,0,.491-.009h.07c.614,0,.747.337.751.619a.609.609,0,0,1-.161.454.831.831,0,0,1-.61.191h-.07c-.089,0-.184,0-.3,0l-.549,0c-.154,0-.28,0-.4-.006h-.039a.365.365,0,0,0-.067,0,.394.394,0,0,0-.009.094v.039a1.7,1.7,0,0,0,.028.48,1.83,1.83,0,0,0,.495.031l.57,0c.182,0,.329,0,.464.006a.679.679,0,0,1,.493.2.621.621,0,0,1,.152.465.6.6,0,0,1-.654.586h-.01c-.193,0-.387,0-.581,0h-.365c-.2,0-.361,0-.512-.006H19.8c0,.011.006.025.011.04a1,1,0,0,0,.986.739l1.218,0c.831,0,1.677,0,2.494-.006l1.464,0h.019l.019,0a.617.617,0,0,1,.567.727c-.036.248-.191.543-.729.543h-.005q-.9,0-1.8,0Zm-.14-9.259c-.033,0-.067,0-.1,0a1.089,1.089,0,0,0-.977.994c-.012.15-.01.3-.009.462,0,.055,0,.109,0,.164,0,.335,0,.518-.128.651s-.31.139-.64.149a1.881,1.881,0,0,0-1.962,2.007q0,.229,0,.458c0,.69-.008,1.4.006,2.1a1.847,1.847,0,0,0,1.841,1.855c.614.008,1.265.011,2.11.011l2.353,0h.626c.285,0,.322-.095.337-.2.011-.077.031-.218-.227-.273l-1.443,0c-.818,0-1.664.006-2.5.006l-1.22,0a1.406,1.406,0,0,1-1.368-1.026.461.461,0,0,1,.027-.414.435.435,0,0,1,.36-.139h.034c.147,0,.307.006.5.006l.728,0H21.3c.214,0,.249-.1.254-.206a.231.231,0,0,0-.047-.173.306.306,0,0,0-.211-.073c-.131,0-.274-.006-.451-.006l-.57,0c-.421,0-.632,0-.78-.15s-.146-.354-.143-.764v-.039c0-.334.158-.5.476-.5h.055c.112,0,.233.006.382.006l.549,0c.117,0,.215,0,.308,0h.06a.486.486,0,0,0,.325-.072.234.234,0,0,0,.045-.168c0-.127-.029-.224-.351-.224h-.057c-.18.006-.345.009-.5.009s-.338,0-.495-.01a1.009,1.009,0,0,0-.155.013,1.553,1.553,0,0,1-.2.017.363.363,0,0,1-.373-.217c-.145-.35.142-.7.265-.855a1.245,1.245,0,0,1,.857-.49c.225-.023.451-.029.67-.035l.2-.006a.609.609,0,0,0,.681-.687c.007-.283.007-.582,0-.888-.005-.22-.019-.8.589-.838s.648.51.671.767a1.77,1.77,0,0,0,1.732,1.642c.2.008.408.013.608.017l.261.006c.259-.061.24-.193.228-.272-.021-.138-.079-.2-.387-.207-1.57-.047-1.647-.107-2.044-1.607A1.049,1.049,0,0,0,22.721,86.863Z" transform="translate(-13.051 -60.482)" fill="#7f4fc7"/>
        <path id="Trazado_197056" data-name="Trazado 197056" d="M11.781,86.578a6.676,6.676,0,0,0-2.245,6.113A6.821,6.821,0,0,0,16.3,98.583c.172,0,.343.01.514,0a6.6,6.6,0,0,0,1.951-.425c.253-.1.429-.278.306-.56a.408.408,0,0,0-.595-.241,2.2,2.2,0,0,1-.243.082A5.9,5.9,0,0,1,14.7,97.5a6.009,6.009,0,0,1-3.355-9.138,8.865,8.865,0,0,1,1.038-1.189.394.394,0,0,0-.014-.605c-.2-.211-.384-.18-.591.008" transform="translate(-6.604 -60.315)" fill="#7f4fc7"/>
        <path id="Trazado_197056_-_Contorno" data-name="Trazado 197056 - Contorno" d="M16.624,98.787l-.167,0-.16,0h-.039a7.023,7.023,0,0,1-6.92-6.064,6.847,6.847,0,0,1,2.308-6.288.667.667,0,0,1,.447-.206.584.584,0,0,1,.424.208.591.591,0,0,1,.013.882l-.175.182a6.989,6.989,0,0,0-.841.98,5.841,5.841,0,0,0,4.847,9.066,5.849,5.849,0,0,0,1.808-.294l.081-.025a1.068,1.068,0,0,0,.14-.048.713.713,0,0,1,.3-.071.618.618,0,0,1,.563.414.562.562,0,0,1,.018.452.728.728,0,0,1-.435.374,6.83,6.83,0,0,1-2.009.438C16.764,98.785,16.7,98.787,16.624,98.787Zm-.328-.4.168,0,.159,0c.067,0,.122,0,.174-.005a6.431,6.431,0,0,0,1.892-.412.367.367,0,0,0,.21-.155.164.164,0,0,0-.015-.138c-.05-.116-.116-.174-.2-.174a.32.32,0,0,0-.131.034,1.4,1.4,0,0,1-.194.069l-.07.021a6.094,6.094,0,0,1-3.646.068,6.209,6.209,0,0,1-3.466-9.441,7.4,7.4,0,0,1,.887-1.037l.174-.18c.095-.1.123-.185-.014-.329a.231.231,0,0,0-.134-.083.324.324,0,0,0-.177.1,6.466,6.466,0,0,0-2.181,5.939,6.622,6.622,0,0,0,6.523,5.719Z" transform="translate(-6.604 -60.315)" fill="#7f4fc7"/>
        <path id="Trazado_197057" data-name="Trazado 197057" d="M43.935,119.9c.3.019.854-.5.844-.776a.362.362,0,0,0-.354-.393c-.346,0-.9.485-.881.747a.4.4,0,0,0,.391.422" transform="translate(-30.388 -82.859)" fill="#7f4fc7"/>
        <path id="Trazado_197057_-_Contorno" data-name="Trazado 197057 - Contorno" d="M43.951,120.1h-.029a.6.6,0,0,1-.578-.61.763.763,0,0,1,.247-.512,1.33,1.33,0,0,1,.833-.446h.014a.56.56,0,0,1,.542.586.923.923,0,0,1-.3.584A1.182,1.182,0,0,1,43.951,120.1Zm.468-1.17a1.011,1.011,0,0,0-.676.537c.011.2.115.227.2.233h0a.854.854,0,0,0,.441-.278.6.6,0,0,0,.187-.292C44.573,118.965,44.5,118.934,44.419,118.927Z" transform="translate(-30.388 -82.859)" fill="#7f4fc7"/>
        <path id="Trazado_197058" data-name="Trazado 197058" d="M33.075,15.787a6.6,6.6,0,0,1,1.465,1.168.4.4,0,0,0,.634.047c.216-.211.174-.425-.021-.637a7.019,7.019,0,0,0-5-2.269c-.28,0-.531.1-.546.413s.193.424.5.444a6.617,6.617,0,0,1,2.969.834" transform="translate(-20.66 -9.838)" fill="#7f4fc7"/>
        <path id="Trazado_197058_-_Contorno" data-name="Trazado 197058 - Contorno" d="M34.887,17.337h0a.682.682,0,0,1-.491-.245,6.061,6.061,0,0,0-4.3-1.94c-.65-.041-.7-.471-.689-.654.019-.372.3-.6.744-.6h.013A7.252,7.252,0,0,1,35.3,16.23a.644.644,0,0,1-.413,1.108ZM30.147,14.3c-.332.006-.339.158-.343.223,0,.09-.011.214.315.235a6.459,6.459,0,0,1,4.566,2.064.322.322,0,0,0,.2.12.227.227,0,0,0,.147-.079c.09-.088.145-.17-.029-.358A6.776,6.776,0,0,0,30.147,14.3Z" transform="translate(-20.66 -9.838)" fill="#7f4fc7"/>
        <path id="Trazado_197059" data-name="Trazado 197059" d="M49.86,27.463a.453.453,0,0,0,.267-.48,3.377,3.377,0,0,0-.351-.783.39.39,0,0,0-.537-.208.379.379,0,0,0-.218.5,4.492,4.492,0,0,0,.36.813.351.351,0,0,0,.479.159" transform="translate(-34.194 -18.113)" fill="#7f4fc7"/>
        <path id="Trazado_197059_-_Contorno" data-name="Trazado 197059 - Contorno" d="M49.69,27.7h0a.549.549,0,0,1-.484-.3,4.686,4.686,0,0,1-.376-.849.574.574,0,0,1,.334-.746.693.693,0,0,1,.258-.053.593.593,0,0,1,.532.357c.032.064.067.128.1.191a2.363,2.363,0,0,1,.268.642l0,.018v.018a.649.649,0,0,1-.387.666A.62.62,0,0,1,49.69,27.7Zm-.268-1.548a.3.3,0,0,0-.109.024.182.182,0,0,0-.1.252,4.289,4.289,0,0,0,.345.777.155.155,0,0,0,.224.074c.074-.033.147-.081.148-.276a2.146,2.146,0,0,0-.224-.513c-.035-.065-.072-.133-.106-.2C49.529,26.153,49.448,26.153,49.422,26.153Z" transform="translate(-34.194 -18.113)" fill="#7f4fc7"/>
        <path id="Trazado_197060" data-name="Trazado 197060" d="M5.56,132.085c-.215.237-.573.464-.552.648.027.237.358.439.563.662.169-.188.319-.358.474-.524.056-.061.145-.106.055-.2l-.541-.582" transform="translate(-3.494 -92.181)" fill="#7f4fc7"/>
        <path id="Trazado_197060_-_Contorno" data-name="Trazado 197060 - Contorno" d="M5.573,133.692l-.149-.161c-.056-.06-.123-.121-.2-.185a1.034,1.034,0,0,1-.42-.59c-.026-.228.174-.408.386-.6.076-.068.155-.139.216-.207l.146-.161.315.339.375.4a.3.3,0,0,1-.035.455l-.021.021c-.11.118-.218.238-.332.366l-.14.156Zm-.365-.972c.02.089.168.221.287.327l.066.059h0c.114-.128.222-.248.333-.367L5.58,132.4l-.026-.028-.091.082A1.4,1.4,0,0,0,5.208,132.72Z" transform="translate(-3.494 -92.181)" fill="#7f4fc7"/>
        <path id="Trazado_197061" data-name="Trazado 197061" d="M61.543,67.514c.167-.271.463-.435.518-.648.066-.256-.339-.389-.445-.645-.014-.034-.036-.083-.131-.037a3.4,3.4,0,0,1-.574.643,3.479,3.479,0,0,1,.634.687" transform="translate(-42.508 -46.176)" fill="#7f4fc7"/>
        <path id="Trazado_197061_-_Contorno" data-name="Trazado 197061 - Contorno" d="M61.55,67.882l-.174-.256a3.274,3.274,0,0,0-.6-.648l-.169-.147.165-.151a3.173,3.173,0,0,0,.541-.6l.031-.048L61.4,66a.35.35,0,0,1,.154-.039.261.261,0,0,1,.25.18.71.71,0,0,0,.181.2.574.574,0,0,1,.273.57.986.986,0,0,1-.3.426,1.579,1.579,0,0,0-.24.277ZM61.2,66.823a3.662,3.662,0,0,1,.342.362c.042-.045.084-.087.125-.127a.775.775,0,0,0,.2-.242c.008-.031-.092-.119-.151-.171a1.621,1.621,0,0,1-.184-.182A3.617,3.617,0,0,1,61.2,66.823Z" transform="translate(-42.508 -46.176)" fill="#7f4fc7"/>
        <path id="Trazado_197062" data-name="Trazado 197062" d="M78.374,77.681c.257-.172.228-.32,0-.5a2.768,2.768,0,0,1-.349-.416c-.181.2-.34.375-.5.548-.058.061-.147.112-.059.205a2.067,2.067,0,0,0,.546.521c.132.059.216-.258.366-.358" transform="translate(-54.035 -53.573)" fill="#7f4fc7"/>
        <path id="Trazado_197062_-_Contorno" data-name="Trazado 197062 - Contorno" d="M78.041,78.246h0a.278.278,0,0,1-.113-.024,1.412,1.412,0,0,1-.478-.417c-.045-.054-.088-.1-.132-.15a.3.3,0,0,1-.092-.219.341.341,0,0,1,.129-.24l.021-.021c.118-.124.234-.252.357-.387l.145-.159.156-.17.146.178c.045.055.084.107.122.158a1.228,1.228,0,0,0,.2.228.558.558,0,0,1,.258.433.537.537,0,0,1-.271.391.643.643,0,0,0-.1.136C78.307,78.1,78.213,78.246,78.041,78.246Zm-.372-.8.086.1a1.613,1.613,0,0,0,.261.267l.031-.047a.822.822,0,0,1,.217-.251.374.374,0,0,0,.09-.076.442.442,0,0,0-.1-.1,1.356,1.356,0,0,1-.238-.261C77.895,77.2,77.783,77.327,77.669,77.447Z" transform="translate(-54.035 -53.573)" fill="#7f4fc7"/>
        <path id="Trazado_197063" data-name="Trazado 197063" d="M106.623,117.823c-.3-.156-.507-.014-.647.279a1.475,1.475,0,0,1-2.7-.007c-.13-.276-.332-.416-.613-.288-.322.147-.286.421-.15.69a2.328,2.328,0,0,0,4.233-.005c.127-.252.166-.518-.122-.669" transform="translate(-71.473 -82.184)" fill="#7f4fc7"/>
        <path id="Trazado_197063_-_Contorno" data-name="Trazado 197063 - Contorno" d="M104.629,120.055h-.012a2.563,2.563,0,0,1-2.284-1.466.785.785,0,0,1-.09-.622.592.592,0,0,1,.336-.341.682.682,0,0,1,.283-.066.654.654,0,0,1,.594.451,1.275,1.275,0,0,0,2.34.006.665.665,0,0,1,.6-.458.693.693,0,0,1,.323.087c.161.085.5.347.207.936a2.565,2.565,0,0,1-2.282,1.472Zm-1.767-2.1a.289.289,0,0,0-.117.03c-.1.046-.119.094-.124.109a.452.452,0,0,0,.069.309,2.128,2.128,0,0,0,3.876-.005c.153-.3.039-.363-.037-.4a.3.3,0,0,0-.136-.041c-.1,0-.186.125-.237.23a1.614,1.614,0,0,1-1.528.993h-.006a1.613,1.613,0,0,1-1.529-1C103.025,118.034,102.947,117.96,102.862,117.96Z" transform="translate(-71.473 -82.184)" fill="#7f4fc7"/>
        <path id="Trazado_197064" data-name="Trazado 197064" d="M108.331,107.967a.4.4,0,0,0,.432.427.393.393,0,0,0,.413-.4c.015-.568.016-1.137,0-1.7a.373.373,0,0,0-.43-.373.377.377,0,0,0-.411.393c-.012.269,0,.54,0,.81s-.009.569,0,.852" transform="translate(-75.6 -73.916)" fill="#7f4fc7"/>
        <path id="Trazado_197064_-_Contorno" data-name="Trazado 197064 - Contorno" d="M108.757,108.595a.6.6,0,0,1-.626-.62c-.008-.207-.006-.415,0-.616,0-.081,0-.163,0-.244s0-.17,0-.255c0-.184,0-.374,0-.563a.578.578,0,0,1,.607-.584h.021a.566.566,0,0,1,.614.567c.017.536.017,1.1,0,1.716a.593.593,0,0,1-.611.6Zm0-2.482h-.012c-.173,0-.211.08-.216.2-.008.178-.006.363,0,.542,0,.087,0,.173,0,.26s0,.165,0,.247c0,.2,0,.4,0,.6s.133.235.227.235h0a.2.2,0,0,0,.215-.209c.016-.611.015-1.164,0-1.693C108.972,106.238,108.968,106.112,108.76,106.112Z" transform="translate(-75.6 -73.916)" fill="#7f4fc7"/>
        <path id="Trazado_197065" data-name="Trazado 197065" d="M99.31,104.713c-.376.011-.429.3-.406.615-.026.323.062.594.436.581s.424-.3.422-.613-.083-.595-.453-.584" transform="translate(-69.021 -73.079)" fill="#7f4fc7"/>
        <path id="Trazado_197065_-_Contorno" data-name="Trazado 197065 - Contorno" d="M99.316,106.11a.586.586,0,0,1-.451-.177.781.781,0,0,1-.161-.6.843.843,0,0,1,.157-.63.594.594,0,0,1,.443-.185h.027c.286,0,.628.136.632.783a1.1,1.1,0,0,1-.093.512.569.569,0,0,1-.522.3Zm.015-1.2h-.015c-.114,0-.147.041-.158.053-.034.038-.071.128-.054.347v.031a.448.448,0,0,0,.055.317c.011.012.045.049.157.049h.018c.14,0,.232-.036.229-.411S99.433,104.913,99.331,104.913Z" transform="translate(-69.021 -73.079)" fill="#7f4fc7"/>
        <path id="Trazado_197066" data-name="Trazado 197066" d="M118.188,104.715c-.368-.018-.461.251-.46.574,0,.419.159.658.454.627.342-.035.436-.27.4-.577.027-.312-.022-.607-.4-.625" transform="translate(-82.162 -73.08)" fill="#7f4fc7"/>
        <path id="Trazado_197066_-_Contorno" data-name="Trazado 197066 - Contorno" d="M118.132,106.119c-.141,0-.6-.06-.6-.829a.825.825,0,0,1,.195-.612.585.585,0,0,1,.432-.163h.043a.594.594,0,0,1,.438.192.849.849,0,0,1,.15.631.747.747,0,0,1-.134.556.637.637,0,0,1-.45.221A.682.682,0,0,1,118.132,106.119Zm.022-1.2a.187.187,0,0,0-.148.046c-.036.036-.079.123-.078.328,0,.161.028.431.2.431l.029,0a.258.258,0,0,0,.18-.075.415.415,0,0,0,.045-.281l0-.019,0-.019c.019-.222-.017-.314-.051-.353-.011-.012-.044-.05-.156-.055Z" transform="translate(-82.162 -73.08)" fill="#7f4fc7"/>
        <path id="Trazado_197067" data-name="Trazado 197067" d="M25.7,55.807a2.418,2.418,0,0,0,2.346-1.372c.113-.262.145-.513-.153-.659s-.487,0-.614.269a1.48,1.48,0,0,1-2.717.015c-.125-.267-.314-.426-.608-.289-.324.152-.287.42-.153.69a2.227,2.227,0,0,0,1.9,1.345" transform="translate(-16.54 -37.491)" fill="#7f4fc7"/>
        <path id="Trazado_197067_-_Contorno" data-name="Trazado 197067 - Contorno" d="M25.7,56.007h-.015a2.438,2.438,0,0,1-2.07-1.456.788.788,0,0,1-.088-.616.6.6,0,0,1,.335-.344.679.679,0,0,1,.287-.069.652.652,0,0,1,.587.454,1.207,1.207,0,0,0,1.162.771h.012a1.219,1.219,0,0,0,1.181-.786.638.638,0,0,1,.58-.441.692.692,0,0,1,.3.077c.242.119.482.374.249.917A2.61,2.61,0,0,1,25.7,56.007Zm0-.4h0a2.223,2.223,0,0,0,2.157-1.251c.132-.307.036-.355-.057-.4a.3.3,0,0,0-.128-.036c-.079,0-.152.071-.217.21a1.624,1.624,0,0,1-1.543,1.016H25.9a1.613,1.613,0,0,1-1.522-1c-.07-.149-.146-.224-.225-.224a.287.287,0,0,0-.118.032c-.105.049-.122.1-.128.113-.016.045-.016.134.069.306A2.024,2.024,0,0,0,25.7,55.607Z" transform="translate(-16.54 -37.491)" fill="#7f4fc7"/>
        <path id="Trazado_197068" data-name="Trazado 197068" d="M30.028,44.342a.4.4,0,0,0,.42-.436c.01-.256,0-.512,0-.768,0-.284.006-.569,0-.853a.39.39,0,0,0-.42-.432.377.377,0,0,0-.419.389c-.016.568-.017,1.137,0,1.7a.382.382,0,0,0,.418.394" transform="translate(-20.656 -29.21)" fill="#7f4fc7"/>
        <path id="Trazado_197068_-_Contorno" data-name="Trazado 197068 - Contorno" d="M30.021,44.542a.58.58,0,0,1-.611-.588c-.017-.553-.017-1.13,0-1.717a.577.577,0,0,1,.612-.584h.008a.586.586,0,0,1,.618.626c.006.2,0,.4,0,.6,0,.086,0,.172,0,.258s0,.155,0,.233c0,.177,0,.36,0,.542a.6.6,0,0,1-.618.628Zm.006-2.488c-.148,0-.213.06-.217.2-.017.578-.017,1.148,0,1.693a.184.184,0,0,0,.211.2h0c.128,0,.215-.043.223-.243.007-.173.005-.351,0-.523,0-.079,0-.158,0-.237s0-.174,0-.261c0-.193,0-.392,0-.586s-.089-.237-.221-.238Z" transform="translate(-20.656 -29.21)" fill="#7f4fc7"/>
        <path id="Trazado_197069" data-name="Trazado 197069" d="M39.5,41.875c.365,0,.444-.28.44-.6s-.042-.592-.434-.6-.441.278-.424.612c-.028.294.047.579.418.581" transform="translate(-27.272 -28.392)" fill="#7f4fc7"/>
        <path id="Trazado_197069_-_Contorno" data-name="Trazado 197069 - Contorno" d="M39.5,42.075h0a.6.6,0,0,1-.461-.185.765.765,0,0,1-.156-.6.845.845,0,0,1,.164-.639.6.6,0,0,1,.453-.169h.01c.622.006.629.557.632.793a.849.849,0,0,1-.194.633A.6.6,0,0,1,39.5,42.075Z" transform="translate(-27.272 -28.392)" fill="#7f4fc7"/>
        <path id="Trazado_197070" data-name="Trazado 197070" d="M20.543,41.873c.367.011.461-.264.439-.588.014-.3-.013-.6-.411-.605s-.446.261-.45.577.056.6.421.615" transform="translate(-14.043 -28.391)" fill="#7f4fc7"/>
        <path id="Trazado_197070_-_Contorno" data-name="Trazado 197070 - Contorno" d="M20.565,42.074h-.028c-.415-.013-.622-.288-.615-.818,0-.194.008-.791.655-.775a.6.6,0,0,1,.447.176.831.831,0,0,1,.159.627.8.8,0,0,1-.169.613A.587.587,0,0,1,20.565,42.074Zm-.013-1.193c-.144,0-.226.018-.23.38-.005.405.119.409.228.413h.016c.109,0,.144-.037.155-.05a.458.458,0,0,0,.062-.325v-.023a.573.573,0,0,0-.052-.347.232.232,0,0,0-.164-.049Z" transform="translate(-14.043 -28.391)" fill="#7f4fc7"/>
      </g>
    </g>
  </g>
</svg>
