<svg xmlns="http://www.w3.org/2000/svg" width="84.412" height="86.331" viewBox="0 0 84.412 86.331">
  <g id="Grupo_155045" data-name="Grupo 155045" transform="translate(-180.588 -1071)">
    <rect id="Rectángulo_45220" data-name="Rectángulo 45220" width="61.904" height="48.731" transform="translate(229.319 1071) rotate(90)" fill="#e4e4e4"/>
    <g id="Grupo_154468" data-name="Grupo 154468" transform="translate(0 394)">
      <rect id="Rectángulo_45221" data-name="Rectángulo 45221" width="4.203" height="4.203" transform="translate(260.797 727.609) rotate(-90)" fill="#7f4fc7"/>
      <rect id="Rectángulo_45891" data-name="Rectángulo 45891" width="4.203" height="4.203" transform="translate(260.797 700.818) rotate(-90)" fill="#7f4fc7"/>
      <rect id="Rectángulo_45222" data-name="Rectángulo 45222" width="4.203" height="4.203" transform="translate(260.797 736.54) rotate(-90)" fill="#7f4fc7"/>
      <rect id="Rectángulo_45892" data-name="Rectángulo 45892" width="4.203" height="4.203" transform="translate(260.797 709.749) rotate(-90)" fill="#7f4fc7"/>
      <rect id="Rectángulo_45223" data-name="Rectángulo 45223" width="4.203" height="4.203" transform="translate(260.797 745.471) rotate(-90)" fill="#7f4fc7"/>
      <rect id="Rectángulo_45893" data-name="Rectángulo 45893" width="4.203" height="4.203" transform="translate(260.797 718.68) rotate(-90)" fill="#7f4fc7"/>
      <rect id="Rectángulo_45224" data-name="Rectángulo 45224" width="4.202" height="4.203" transform="translate(260.797 754.4) rotate(-90)" fill="#7f4fc7"/>
      <rect id="Rectángulo_45225" data-name="Rectángulo 45225" width="4.203" height="4.203" transform="translate(260.797 763.331) rotate(-90)" fill="#7f4fc7"/>
      <rect id="Rectángulo_45232" data-name="Rectángulo 45232" width="4.203" height="4.203" transform="translate(251.867 727.609) rotate(-90)" fill="#7f4fc7"/>
      <rect id="Rectángulo_45878" data-name="Rectángulo 45878" width="4.203" height="4.203" transform="translate(251.867 700.818) rotate(-90)" fill="#7f4fc7"/>
      <rect id="Rectángulo_45233" data-name="Rectángulo 45233" width="4.203" height="4.203" transform="translate(251.867 736.54) rotate(-90)" fill="#7f4fc7"/>
      <rect id="Rectángulo_45879" data-name="Rectángulo 45879" width="4.203" height="4.203" transform="translate(251.867 709.749) rotate(-90)" fill="#7f4fc7"/>
      <rect id="Rectángulo_45234" data-name="Rectángulo 45234" width="4.203" height="4.203" transform="translate(251.867 745.471) rotate(-90)" fill="#7f4fc7"/>
      <rect id="Rectángulo_45880" data-name="Rectángulo 45880" width="4.203" height="4.203" transform="translate(251.867 718.68) rotate(-90)" fill="#7f4fc7"/>
      <rect id="Rectángulo_45235" data-name="Rectángulo 45235" width="4.202" height="4.203" transform="translate(251.867 754.4) rotate(-90)" fill="#7f4fc7"/>
      <rect id="Rectángulo_45236" data-name="Rectángulo 45236" width="4.203" height="4.203" transform="translate(251.867 763.331) rotate(-90)" fill="#7f4fc7"/>
      <rect id="Rectángulo_45243" data-name="Rectángulo 45243" width="4.203" height="4.203" transform="translate(242.937 727.609) rotate(-90)" fill="#7f4fc7"/>
      <rect id="Rectángulo_45881" data-name="Rectángulo 45881" width="4.203" height="4.203" transform="translate(242.937 700.818) rotate(-90)" fill="#7f4fc7"/>
      <rect id="Rectángulo_45244" data-name="Rectángulo 45244" width="4.203" height="4.203" transform="translate(242.937 736.54) rotate(-90)" fill="#7f4fc7"/>
      <rect id="Rectángulo_45882" data-name="Rectángulo 45882" width="4.203" height="4.203" transform="translate(242.937 709.749) rotate(-90)" fill="#7f4fc7"/>
      <rect id="Rectángulo_45245" data-name="Rectángulo 45245" width="4.203" height="4.203" transform="translate(242.937 745.471) rotate(-90)" fill="#7f4fc7"/>
      <rect id="Rectángulo_45883" data-name="Rectángulo 45883" width="4.203" height="4.203" transform="translate(242.937 718.68) rotate(-90)" fill="#7f4fc7"/>
      <rect id="Rectángulo_45246" data-name="Rectángulo 45246" width="4.202" height="4.203" transform="translate(242.937 754.4) rotate(-90)" fill="#7f4fc7"/>
      <rect id="Rectángulo_45247" data-name="Rectángulo 45247" width="4.203" height="4.203" transform="translate(242.937 763.331) rotate(-90)" fill="#7f4fc7"/>
      <rect id="Rectángulo_45221-2" data-name="Rectángulo 45221" width="4.203" height="4.203" transform="translate(234.753 727.609) rotate(-90)" fill="#7f4fc7"/>
      <rect id="Rectángulo_45884" data-name="Rectángulo 45884" width="4.203" height="4.203" transform="translate(234.753 700.818) rotate(-90)" fill="#7f4fc7"/>
      <rect id="Rectángulo_45222-2" data-name="Rectángulo 45222" width="4.203" height="4.203" transform="translate(234.753 736.54) rotate(-90)" fill="#7f4fc7"/>
      <rect id="Rectángulo_45885" data-name="Rectángulo 45885" width="4.203" height="4.203" transform="translate(234.753 709.749) rotate(-90)" fill="#7f4fc7"/>
      <rect id="Rectángulo_45223-2" data-name="Rectángulo 45223" width="4.203" height="4.203" transform="translate(234.753 745.471) rotate(-90)" fill="#7f4fc7"/>
      <rect id="Rectángulo_45886" data-name="Rectángulo 45886" width="4.203" height="4.203" transform="translate(234.753 718.68) rotate(-90)" fill="#7f4fc7"/>
      <rect id="Rectángulo_45224-2" data-name="Rectángulo 45224" width="4.202" height="4.203" transform="translate(234.753 754.4) rotate(-90)" fill="#7f4fc7"/>
      <rect id="Rectángulo_45225-2" data-name="Rectángulo 45225" width="4.203" height="4.203" transform="translate(234.753 763.331) rotate(-90)" fill="#7f4fc7"/>
      <rect id="Rectángulo_45232-2" data-name="Rectángulo 45232" width="4.203" height="4.203" transform="translate(225.822 727.609) rotate(-90)" fill="#7f4fc7"/>
      <rect id="Rectángulo_45887" data-name="Rectángulo 45887" width="4.203" height="4.203" transform="translate(225.822 700.818) rotate(-90)" fill="#7f4fc7"/>
      <rect id="Rectángulo_45233-2" data-name="Rectángulo 45233" width="4.203" height="4.203" transform="translate(225.822 736.54) rotate(-90)" fill="#7f4fc7"/>
      <rect id="Rectángulo_45888" data-name="Rectángulo 45888" width="4.203" height="4.203" transform="translate(225.822 709.749) rotate(-90)" fill="#7f4fc7"/>
      <rect id="Rectángulo_45234-2" data-name="Rectángulo 45234" width="4.203" height="4.203" transform="translate(225.822 745.471) rotate(-90)" fill="#7f4fc7"/>
      <rect id="Rectángulo_45889" data-name="Rectángulo 45889" width="4.203" height="4.203" transform="translate(225.822 718.68) rotate(-90)" fill="#7f4fc7"/>
      <rect id="Rectángulo_45235-2" data-name="Rectángulo 45235" width="4.202" height="4.203" transform="translate(225.822 754.4) rotate(-90)" fill="#7f4fc7"/>
      <rect id="Rectángulo_45236-2" data-name="Rectángulo 45236" width="4.203" height="4.203" transform="translate(225.822 763.331) rotate(-90)" fill="#7f4fc7"/>
      <rect id="Rectángulo_45243-2" data-name="Rectángulo 45243" width="4.203" height="4.203" transform="translate(216.892 727.609) rotate(-90)" fill="#7f4fc7"/>
      <rect id="Rectángulo_45876" data-name="Rectángulo 45876" width="4.203" height="4.203" transform="translate(216.892 700.818) rotate(-90)" fill="#7f4fc7"/>
      <rect id="Rectángulo_45244-2" data-name="Rectángulo 45244" width="4.203" height="4.203" transform="translate(216.892 736.54) rotate(-90)" fill="#7f4fc7"/>
      <rect id="Rectángulo_45877" data-name="Rectángulo 45877" width="4.203" height="4.203" transform="translate(216.892 709.749) rotate(-90)" fill="#7f4fc7"/>
      <rect id="Rectángulo_45245-2" data-name="Rectángulo 45245" width="4.203" height="4.203" transform="translate(216.892 745.471) rotate(-90)" fill="#7f4fc7"/>
      <rect id="Rectángulo_45890" data-name="Rectángulo 45890" width="4.203" height="4.203" transform="translate(216.892 718.68) rotate(-90)" fill="#7f4fc7"/>
      <rect id="Rectángulo_45246-2" data-name="Rectángulo 45246" width="4.202" height="4.203" transform="translate(216.892 754.4) rotate(-90)" fill="#7f4fc7"/>
      <rect id="Rectángulo_45247-2" data-name="Rectángulo 45247" width="4.203" height="4.203" transform="translate(216.892 763.331) rotate(-90)" fill="#7f4fc7"/>
    </g>
  </g>
</svg>
