<svg xmlns="http://www.w3.org/2000/svg" xmlns:xlink="http://www.w3.org/1999/xlink" width="70" height="70" viewBox="0 0 70 70">
  <defs>
    <clipPath id="clip-path">
      <rect id="Rectángulo_46463" data-name="Rectángulo 46463" width="54.194" height="49.22" fill="#7f4fc7"/>
    </clipPath>
  </defs>
  <g id="Grupo_155248" data-name="Grupo 155248" transform="translate(-615 -5756)">
    <circle id="Elipse_5729" data-name="Elipse 5729" cx="35" cy="35" r="35" transform="translate(615 5756)" fill="#fff"/>
    <g id="Grupo_154917" data-name="Grupo 154917" transform="translate(623 5766)">
      <g id="Grupo_154916" data-name="Grupo 154916" transform="translate(0 0)" clip-path="url(#clip-path)">
        <path id="Trazado_196900" data-name="Trazado 196900" d="M126.991,83.789c-.7.936-1.257.972-2.1.135-.727-.719-1.462-1.43-2.176-2.162a1.067,1.067,0,0,1,.025-1.7.97.97,0,0,1,1.308.072c1,.984,1.966,2.007,2.946,3.015Z" transform="translate(-72.797 -47.525)" fill="#7f4fc7"/>
        <path id="Trazado_196901" data-name="Trazado 196901" d="M29.834,11.573a4.059,4.059,0,0,1-3.222,6.552c-.655,2.955-1.357,3.661-4.072,4.124a13.214,13.214,0,0,1-.638,2,3.66,3.66,0,0,1-3.1,2.082c-.342.032-.568.07-.6.528A3.931,3.931,0,0,1,12.737,30.2a.6.6,0,0,0-.8.157q-4.891,4.915-9.8,9.81a3.442,3.442,0,0,1-.56.48.991.991,0,0,1-1.259-.157.989.989,0,0,1-.153-1.26,3.477,3.477,0,0,1,.48-.559q4.805-4.813,9.618-9.62a5.8,5.8,0,0,1,.543-.415c-.682-.655-1.257-1.246-1.872-1.792a4.061,4.061,0,0,1,1.561-7.08,4.029,4.029,0,0,1,2.948-5.594,4.093,4.093,0,0,1,.382-3.266A3.982,3.982,0,0,1,16.534,9a4.033,4.033,0,0,1,1.093-4.149,3.945,3.945,0,0,1,4.117-.855c-.049-.863-.121-1.7-.138-2.532C21.585.37,21.967,0,23.059,0c2.77.006,5.54-.013,8.309.041a6.558,6.558,0,0,1,4.54,1.988c.2.193.342.319.672.183a3.785,3.785,0,0,1,4.109.612,3.83,3.83,0,0,1,1.332,3.942c-.014.069-.029.138-.037.208a.425.425,0,0,0,.011.1c2.765,1.135,3.316,2.051,3.116,5.183a4.111,4.111,0,0,1,2.925,5.617,2.042,2.042,0,0,0,.217.106,3.949,3.949,0,0,1,1.64,6.616q-5.377,5.512-10.92,10.861a15.344,15.344,0,0,1-9.45,4.162,1.766,1.766,0,0,0-1.183.741,6.172,6.172,0,0,0,3.54.952,3.378,3.378,0,0,1,2.992,1.244c1.455,1.584,3.026,3.061,4.545,4.586a2.91,2.91,0,0,1,.44.524,1.029,1.029,0,0,1-1.4,1.4,2.577,2.577,0,0,1-.526-.436c-1.625-1.618-3.24-3.247-4.877-4.853a1.121,1.121,0,0,0-.72-.3,9.7,9.7,0,0,1-5.2-1.36c-.33-.2-.486-.084-.707.14q-3.186,3.214-6.4,6.4a2.129,2.129,0,0,1-.88.521.873.873,0,0,1-.987-.452.944.944,0,0,1-.006-1.094,3.131,3.131,0,0,1,.409-.483q4.442-4.465,8.883-8.932a2.1,2.1,0,0,1,1.435-.674A14.374,14.374,0,0,0,38.433,33.1c3.238-3.25,6.494-6.481,9.718-9.744a2.975,2.975,0,0,0,.746-1.288,1.7,1.7,0,0,0-.913-1.908,1.816,1.816,0,0,0-2.118.234c-.487.435-.929.92-1.409,1.363a.884.884,0,0,1-1.112.213,1.435,1.435,0,0,1-.635-.87,1.524,1.524,0,0,1,.449-1c.776-.843,1.609-1.634,2.422-2.443a1.889,1.889,0,0,0,.627-1.716,1.868,1.868,0,0,0-3.172-1.029c-.813.783-1.6,1.592-2.4,2.39-.725.724-1.319.82-1.822.3-.476-.5-.368-1.1.321-1.787q1.7-1.7,3.4-3.408a1.825,1.825,0,0,0,.478-1.947,1.765,1.765,0,0,0-1.444-1.249,1.9,1.9,0,0,0-1.763.633q-1.737,1.744-3.481,3.48a1.152,1.152,0,0,1-1.127.421,1.021,1.021,0,0,1-.675-1.526,2.852,2.852,0,0,1,.442-.523q2.2-2.212,4.414-4.419A1.839,1.839,0,0,0,39.916,5.3a1.781,1.781,0,0,0-1.48-1.275,1.7,1.7,0,0,0-1.558.479c-2.346,2.343-4.682,4.7-7.045,7.072m-1.248,2.254a3.349,3.349,0,0,0-.525-.987c-2.132-2.179-4.293-4.328-6.459-6.472a1.7,1.7,0,0,0-1.714-.428,1.866,1.866,0,0,0-.755,3.225c2.031,2.055,4.082,4.091,6.127,6.133a2.459,2.459,0,0,0,.447.368,1.8,1.8,0,0,0,1.906.054,1.97,1.97,0,0,0,.973-1.893M34.577,3.678a5.146,5.146,0,0,0-3.858-1.563c-2.152,0-4.3,0-6.457,0-.17,0-.34.015-.5.023a2.675,2.675,0,0,0,2.626,2.99c.987.029,1.976-.012,2.963.011a1.014,1.014,0,0,1,1.027.946,1.027,1.027,0,0,1-.89,1.126,2.744,2.744,0,0,1-.526.035c-1.134,0-2.267,0-3.25,0L28.358,9.9l6.219-6.219M22.5,20.231a2.141,2.141,0,0,0,1.777-1.258,1.788,1.788,0,0,0-.426-2.09q-2.607-2.631-5.241-5.236a1.867,1.867,0,1,0-2.647,2.631c1.733,1.759,3.473,3.512,5.247,5.229a5.756,5.756,0,0,0,1.289.724m-8.068-4a1.957,1.957,0,0,0-1.995,1.121,1.774,1.774,0,0,0,.4,2.091q2.1,2.128,4.225,4.223A1.866,1.866,0,1,0,19.7,21.028c-1.382-1.41-2.77-2.813-4.2-4.177a4.332,4.332,0,0,0-1.074-.619m1.8,10.246a4.049,4.049,0,0,0-.528-1.114c-1.011-1.079-2.052-2.133-3.136-3.138a1.8,1.8,0,0,0-2.452.112,1.753,1.753,0,0,0-.2,2.4c1.038,1.148,2.144,2.239,3.28,3.289a1.62,1.62,0,0,0,1.933.163,2.076,2.076,0,0,0,1.1-1.712" transform="translate(0 0)" fill="#7f4fc7"/>
        <path id="Trazado_196902" data-name="Trazado 196902" d="M115.8,74.4a1.056,1.056,0,0,1,1.07-1.016,1.078,1.078,0,0,1,1.016,1.082,1.089,1.089,0,0,1-1.082,1.02,1.058,1.058,0,0,1-1-1.085" transform="translate(-68.925 -43.676)" fill="#7f4fc7"/>
      </g>
    </g>
  </g>
</svg>
