<svg xmlns="http://www.w3.org/2000/svg" xmlns:xlink="http://www.w3.org/1999/xlink" width="295" height="244" viewBox="0 0 295 244">
  <defs>
    <clipPath id="clip-path">
      <rect id="Rectángulo_45335" data-name="Rectángulo 45335" width="295" height="244" fill="none"/>
    </clipPath>
  </defs>
  <g id="Grupo_152666" data-name="Grupo 152666" clip-path="url(#clip-path)">
    <path id="Trazado_194011" data-name="Trazado 194011" d="M55.452,282.113c5.963,1.194,11.971,2.266,17.841,3.854a63.374,63.374,0,0,1,16.232,6.565c.065.1.115.194.18.29a.342.342,0,0,0,.608-.177.31.31,0,0,0,.008-.4,11.943,11.943,0,0,1-1.032-1.614,11.511,11.511,0,0,1-.733-5.443c.582-6.281,5.065-11.13,8.677-16.06a29.488,29.488,0,0,0,4.521-8.255,15.055,15.055,0,0,0,.763-4.433,7.979,7.979,0,0,0-.793-4.016,3.27,3.27,0,0,0-2.819-1.964c-1.494.071-2.452,1.572-3.324,2.557-1.169,1.335-2.344,2.662-3.512,3.991-1.146,1.307-2.253,2.652-3.458,3.915a2.864,2.864,0,0,1-1.7,1.037,1.836,1.836,0,0,1-1.68-1.049,8.791,8.791,0,0,1-.812-4.406,32.942,32.942,0,0,1,1.687-9.178c1.552-5.267,3.528-10.939,2.018-16.436a10.882,10.882,0,0,0-1.647-3.614c-.791-1.047-2.106-1.767-3.344-.921a6.221,6.221,0,0,0-1.392,1.489,18.314,18.314,0,0,0-1.223,1.909,45.6,45.6,0,0,0-2,4.225,32.987,32.987,0,0,1-2.053,4.176,7.69,7.69,0,0,1-2.99,3.172,2.237,2.237,0,0,1-1.884.135,2.55,2.55,0,0,1-1.2-1.69,14.415,14.415,0,0,1-.5-4.1c.036-5.6,2.349-10.9,2.511-16.477a16.78,16.78,0,0,0-.324-3.958c-.256-1.224-.64-2.744-1.826-3.455-2.315-1.4-4.286,1.377-5.156,3.086q-1.189,2.333-2.381,4.672L61.5,221.9a9.222,9.222,0,0,1-1.151,2.056c-1.09,1.218-2.451-.083-3.046-1.061a15.268,15.268,0,0,1-1.418-4.236c-1.5-5.9-2.362-12.16-6.135-17.217a15.559,15.559,0,0,0-6.448-5.219c-2.277-.932-5.4-1.42-7.479.225-2.368,1.869-1.844,5.435-1.266,7.979a33.265,33.265,0,0,0,2.815,7.406c1.217,2.453,2.564,4.845,3.74,7.314a38.54,38.54,0,0,1,1.556,3.693,8.7,8.7,0,0,1,.789,3.867,1.611,1.611,0,0,1-.955,1.418,3.139,3.139,0,0,1-2.149-.355c-1.515-.616-3.016-1.276-4.547-1.862-2.882-1.1-6.064-2-9.194-1.465a2.977,2.977,0,0,0-1.74.821,2.063,2.063,0,0,0-.47,1.689,6.7,6.7,0,0,0,2.117,3.412,50.234,50.234,0,0,0,6.534,5.51,66.1,66.1,0,0,1,6.717,5.408,22.7,22.7,0,0,1,2.717,3.12c.265.371,1.261,1.6.552,1.94a2.4,2.4,0,0,1-1.118-.011c-.319-.028-.636-.063-.955-.091a42.271,42.271,0,0,0-8.12-.344,14.006,14.006,0,0,0-3.79.831,7.524,7.524,0,0,0-3.351,2.219c-1.562,2.135.58,4.474,2.43,5.585a24.053,24.053,0,0,0,3.844,1.759c1.395.532,2.812.993,4.241,1.437,5.279,1.664,11.126,3.189,14.822,7.453a8.758,8.758,0,0,1-1.446.365c-2.664.417-5.333-.164-7.992-.307-2.431-.127-5.066.1-7,1.659-1.666,1.34-2.712,3.525-1.849,5.568a7.261,7.261,0,0,0,2.34,2.711,21.432,21.432,0,0,0,3.56,2.2,39.452,39.452,0,0,0,8.143,2.82c2.859.72,5.755,1.324,8.657,1.908" transform="translate(-7.354 -63.98)" fill="#12263f"/>
    <path id="Trazado_194012" data-name="Trazado 194012" d="M37.474,237.414q7.415,3.79,14.822,7.593,3.663,1.881,7.326,3.765c1.036.533,2.1,1.042,3.12,1.621q-3.662-7.207-7-14.56-4.139-9.139-7.756-18.485c-.327-.845,1.008-1.408,1.337-.559q6.355,16.4,14.307,32.173c.4.789.819,1.566,1.223,2.352q3.341-12.145,6.264-24.39c.207-.872,1.659-.729,1.45.15q-3.125,13.12-6.732,26.129,4.531,8.69,9.537,17.138,5.765-11.314,11.269-22.749c.393-.816,1.751-.306,1.356.516q-5.71,11.877-11.709,23.624a.909.909,0,0,1-.054.073c1.6,2.679,3.225,5.346,4.9,7.983q2.8,4.417,5.741,8.754a.968.968,0,0,0,.514-.353c1.87-2.431,3.539-5.034,5.3-7.541q3.01-4.292,6.012-8.59c.524-.749,1.689.1,1.166.845-3.733,5.342-7.359,10.779-11.234,16.026a2.656,2.656,0,0,1-.922.831q2.272,3.331,4.611,6.619c.529.74-.613,1.615-1.147.868q-2.591-3.628-5.081-7.319c-.187-.028-.38-.063-.589-.108q-2.435-.526-4.88-1.007-4.89-.963-9.816-1.749-5.628-.9-11.292-1.561a.7.7,0,1,1,.156-1.4q9.379,1.106,18.661,2.84,2.274.427,4.541.892,1.06.217,2.118.444-5.446-8.124-10.463-16.5a253.085,253.085,0,0,0-31.992-11.482c-.9-.256-.359-1.56.536-1.306a253.127,253.127,0,0,1,30.241,10.729c-.463-.789-.929-1.577-1.386-2.369q-4.085-7.079-7.837-14.329a27.8,27.8,0,0,0-5.8-3.348q-3.583-1.843-7.167-3.683-7.089-3.639-14.185-7.265c-.819-.419-.293-1.73.536-1.306" transform="translate(-11.017 -70.856)" fill="#1a75b5"/>
    <path id="Trazado_194013" data-name="Trazado 194013" d="M44.77,324.141c3.333,3.646,9.648,1.619,13.721.46,4.775-1.355,9.544-3.086,14.608-2.893.656.028.777-.822.4-1.18-.054-.054-.1-.1-.152-.153a.682.682,0,0,0-.531-.709c-.085-.025-.149-.053-.228-.074a16.056,16.056,0,0,1-2-2.759,12.807,12.807,0,0,1,.251-3.63c.787-4.393,1.953-8.8,1.741-13.29-.184-3.853-1.935-10.425-7.018-10.36a4.026,4.026,0,0,0-2.88,1.166,7.1,7.1,0,0,0-1.314,3.48,21.006,21.006,0,0,1-1.45,4.188c-.249.523-.586,1.248-1.214,1.438s-1.174-.323-1.529-.772c-1.483-1.9-1.627-4.533-2.119-6.782a14.366,14.366,0,0,0-3.379-6.654c-1.334-1.455-3.451-3.463-5.681-3.155-2.715.372-2.364,3.662-2.286,5.579.064,1.61.147,6.285-2.773,4.925-1.932-.9-2.866-3.235-3.567-5.05-1.513-3.944-2.124-8.484-5.107-11.735-1.167-1.275-3.222-2.96-5.09-1.96a3.688,3.688,0,0,0-1.628,2.9c-.2,1.355-.295,2.726-.527,4.075-.145.858-.418,2.172-1.3,2.634-1.261.664-2.613-1.208-3.2-2.053-1.509-2.194-2.481-4.605-4.294-6.62-3.035-3.367-8.745-7.458-13.538-4.952a4.793,4.793,0,0,0-2.62,5.079,9.647,9.647,0,0,0,3.248,5.262,38.8,38.8,0,0,0,7.213,4.878c2.505,1.422,5.339,2.806,7.4,4.823.5.492.9,1.087.538,1.769a3.716,3.716,0,0,1-1.482,1.222c-1.145.67-2.4,1.131-3.523,1.841-1.623,1.018-3.027,2.888-2.615,4.851.487,2.337,3.338,2.874,5.429,3.033a31.535,31.535,0,0,0,6.678-.393,35.451,35.451,0,0,1,6.957-.541,13.854,13.854,0,0,1,1.72.21c.55.1,1.428.2.953.857-.778,1.068-2.321,1.779-3.379,2.564-1.7,1.263-3.176,3.009-3.075,5.2.1,2.3,2.227,3.335,4.378,3.4a77.52,77.52,0,0,0,8.294-.576c1.36-.1,2.728-.182,4.091-.182a14.34,14.34,0,0,1,4.03.329,2.3,2.3,0,0,1,1.328.8c.34.62-.342,1.127-.805,1.453a12.011,12.011,0,0,0-2.717,2.283,4.283,4.283,0,0,0,.043,5.776" transform="translate(0 -88.233)" fill="#958bf7"/>
    <path id="Trazado_194014" data-name="Trazado 194014" d="M55.859,324.36l8.4-.806,4.287-.411c.406-.039,1.027-.009,1.536-.072-1.98-1.243-3.908-2.568-5.849-3.852l-8.766-5.8a.588.588,0,0,1-.267.066,84.2,84.2,0,0,0-14.395,1.278c-.885.156-.991-1.186-.113-1.341a84.25,84.25,0,0,1,12.9-1.242l-.729-.483L36.239,300.683a96.921,96.921,0,0,0-12.519,2.2c-.864.213-1.336-1.055-.462-1.269a99.738,99.738,0,0,1,11.252-2.078l-4.226-2.8-12.661-8.382c-.74-.49.17-1.511.9-1.025l17.391,11.515a102.767,102.767,0,0,1-1.884-12.278.7.7,0,0,1,1.393-.109,100.544,100.544,0,0,0,2.084,13.249.9.9,0,0,1,.02.206l16.843,11.152q-.312-7.418-.626-14.836c-.036-.863,1.356-.976,1.393-.109l.67,15.9,7.314,4.843c2.613,1.73,5.2,3.56,7.884,5.217-.007-.267-.064-.548-.091-.808a89.219,89.219,0,0,1-.276-14.806c.054-.865,1.43-.62,1.376.235q-.264,4.18-.125,8.371.068,2.06.235,4.115.081.99.182,1.977a8.059,8.059,0,0,1,.145,1.785c1.087.632,2.2,1.228,3.331,1.771a.678.678,0,0,1-.589,1.22c-1.21-.578-2.382-1.223-3.533-1.9a5.194,5.194,0,0,1-1.631.32l-4.8.461-9.261.887a.673.673,0,1,1-.113-1.34" transform="translate(-5.232 -93.615)" fill="#1a75b5"/>
    <path id="Trazado_194015" data-name="Trazado 194015" d="M325.893,280.024c-5.963,1.194-11.971,2.266-17.841,3.854a63.376,63.376,0,0,0-16.232,6.565c-.065.1-.115.194-.18.291a.342.342,0,0,1-.608-.177.31.31,0,0,1-.008-.4,11.942,11.942,0,0,0,1.032-1.614,11.511,11.511,0,0,0,.733-5.443c-.582-6.281-5.065-11.13-8.677-16.06a29.489,29.489,0,0,1-4.521-8.255,15.055,15.055,0,0,1-.763-4.433,7.979,7.979,0,0,1,.793-4.016,3.27,3.27,0,0,1,2.819-1.964c1.494.071,2.452,1.572,3.324,2.557,1.169,1.335,2.344,2.662,3.512,3.991,1.146,1.307,2.253,2.652,3.458,3.915a2.864,2.864,0,0,0,1.7,1.037,1.836,1.836,0,0,0,1.68-1.049,8.791,8.791,0,0,0,.812-4.406,32.942,32.942,0,0,0-1.687-9.178c-1.552-5.267-3.528-10.939-2.018-16.436a10.882,10.882,0,0,1,1.647-3.614c.791-1.047,2.106-1.767,3.344-.921a6.221,6.221,0,0,1,1.392,1.489,18.32,18.32,0,0,1,1.223,1.909,45.522,45.522,0,0,1,2,4.225,32.985,32.985,0,0,0,2.053,4.176,7.69,7.69,0,0,0,2.99,3.172,2.237,2.237,0,0,0,1.884.135,2.552,2.552,0,0,0,1.2-1.69,14.414,14.414,0,0,0,.5-4.1c-.036-5.6-2.349-10.9-2.511-16.477a16.779,16.779,0,0,1,.324-3.958c.256-1.224.64-2.744,1.826-3.455,2.315-1.4,4.286,1.377,5.156,3.085q1.189,2.333,2.381,4.672l1.212,2.369A9.22,9.22,0,0,0,321,221.87c1.09,1.218,2.451-.083,3.046-1.061a15.268,15.268,0,0,0,1.418-4.236c1.5-5.9,2.362-12.16,6.135-17.217a15.559,15.559,0,0,1,6.448-5.219c2.277-.932,5.4-1.42,7.479.225,2.368,1.869,1.844,5.435,1.266,7.979a33.265,33.265,0,0,1-2.815,7.406c-1.217,2.453-2.564,4.845-3.74,7.314a38.54,38.54,0,0,0-1.556,3.693,8.7,8.7,0,0,0-.789,3.867,1.611,1.611,0,0,0,.955,1.418,3.14,3.14,0,0,0,2.149-.355c1.515-.616,3.016-1.276,4.547-1.862,2.882-1.1,6.064-2,9.194-1.465a2.977,2.977,0,0,1,1.74.821,2.062,2.062,0,0,1,.47,1.689,6.7,6.7,0,0,1-2.117,3.412,50.236,50.236,0,0,1-6.534,5.51,66.1,66.1,0,0,0-6.717,5.408,22.7,22.7,0,0,0-2.717,3.12c-.265.371-1.261,1.6-.552,1.94a2.4,2.4,0,0,0,1.118-.011c.319-.028.636-.063.955-.091a42.268,42.268,0,0,1,8.12-.344,14,14,0,0,1,3.79.831,7.524,7.524,0,0,1,3.351,2.219c1.562,2.135-.58,4.474-2.43,5.585a24.053,24.053,0,0,1-3.844,1.759c-1.395.532-2.812.993-4.241,1.437-5.279,1.664-11.126,3.189-14.822,7.453a8.751,8.751,0,0,0,1.446.365c2.664.417,5.333-.164,7.992-.307,2.431-.127,5.066.1,7,1.659,1.666,1.34,2.712,3.525,1.849,5.568a7.262,7.262,0,0,1-2.34,2.711,21.434,21.434,0,0,1-3.56,2.2,39.453,39.453,0,0,1-8.143,2.82c-2.859.72-5.755,1.323-8.657,1.908" transform="translate(-84.094 -63.296)" fill="#12263f"/>
    <path id="Trazado_194016" data-name="Trazado 194016" d="M350.2,235.325q-7.415,3.79-14.822,7.593-3.663,1.881-7.326,3.765c-1.036.533-2.1,1.042-3.12,1.621q3.662-7.207,7-14.56,4.139-9.139,7.756-18.485c.327-.845-1.008-1.408-1.337-.559Q332,231.1,324.048,246.873c-.4.789-.819,1.566-1.223,2.352q-3.341-12.145-6.264-24.39c-.207-.872-1.659-.729-1.45.15q3.125,13.12,6.732,26.129-4.531,8.69-9.537,17.138-5.765-11.314-11.269-22.749c-.392-.816-1.751-.306-1.356.516q5.71,11.877,11.709,23.624c.014.027.038.048.054.073-1.6,2.679-3.225,5.346-4.9,7.983q-2.8,4.417-5.741,8.754a.968.968,0,0,1-.514-.353c-1.87-2.431-3.54-5.034-5.3-7.541q-3.01-4.292-6.012-8.59c-.524-.749-1.689.1-1.166.845,3.733,5.342,7.359,10.778,11.234,16.026a2.656,2.656,0,0,0,.922.831q-2.272,3.331-4.611,6.619c-.529.74.613,1.615,1.147.868q2.591-3.628,5.081-7.319c.187-.028.38-.063.589-.109q2.435-.525,4.88-1.007,4.89-.963,9.816-1.749,5.628-.9,11.292-1.561a.7.7,0,1,0-.156-1.4q-9.379,1.106-18.661,2.84-2.274.427-4.541.892-1.06.217-2.118.444,5.446-8.124,10.463-16.5A253.085,253.085,0,0,1,345.144,258.2c.9-.256.359-1.56-.536-1.306a253.124,253.124,0,0,0-30.241,10.729c.463-.789.929-1.577,1.386-2.369q4.085-7.079,7.837-14.329a27.8,27.8,0,0,1,5.8-3.348q3.583-1.843,7.167-3.683,7.089-3.639,14.185-7.265c.819-.419.293-1.73-.536-1.306" transform="translate(-86.765 -70.172)" fill="#1a75b5"/>
    <path id="Trazado_194017" data-name="Trazado 194017" d="M338.487,322.052c-3.333,3.646-9.648,1.619-13.721.46-4.775-1.355-9.544-3.086-14.608-2.893-.656.028-.776-.822-.4-1.18.054-.054.1-.1.152-.153a.682.682,0,0,1,.531-.709c.085-.025.149-.053.228-.074a16.018,16.018,0,0,0,2-2.759,12.805,12.805,0,0,0-.251-3.63c-.787-4.393-1.953-8.8-1.741-13.29.184-3.853,1.935-10.425,7.018-10.36a4.026,4.026,0,0,1,2.88,1.166,7.1,7.1,0,0,1,1.314,3.48,21,21,0,0,0,1.45,4.188c.249.523.586,1.248,1.214,1.438s1.174-.323,1.529-.772c1.483-1.9,1.627-4.533,2.119-6.782a14.367,14.367,0,0,1,3.379-6.654c1.334-1.455,3.452-3.463,5.681-3.155,2.715.372,2.364,3.662,2.286,5.579-.064,1.61-.147,6.285,2.773,4.925,1.932-.9,2.866-3.236,3.567-5.05,1.513-3.944,2.124-8.485,5.107-11.735,1.167-1.275,3.222-2.96,5.09-1.96a3.688,3.688,0,0,1,1.628,2.9c.2,1.355.295,2.726.527,4.075.145.858.418,2.172,1.3,2.634,1.261.664,2.613-1.208,3.2-2.053,1.509-2.194,2.481-4.605,4.294-6.62,3.035-3.367,8.745-7.458,13.538-4.952a4.793,4.793,0,0,1,2.62,5.079,9.647,9.647,0,0,1-3.248,5.262,38.794,38.794,0,0,1-7.213,4.878c-2.505,1.422-5.339,2.806-7.4,4.823-.5.492-.9,1.087-.538,1.769a3.715,3.715,0,0,0,1.482,1.222c1.145.67,2.4,1.131,3.523,1.841,1.623,1.018,3.027,2.888,2.615,4.851-.487,2.337-3.338,2.874-5.429,3.033a31.533,31.533,0,0,1-6.678-.393,35.449,35.449,0,0,0-6.957-.541,13.865,13.865,0,0,0-1.72.21c-.55.1-1.428.2-.953.857.778,1.068,2.321,1.779,3.379,2.564,1.7,1.263,3.176,3.009,3.075,5.2-.1,2.3-2.227,3.335-4.378,3.4a77.533,77.533,0,0,1-8.293-.576c-1.36-.1-2.728-.182-4.091-.182a14.339,14.339,0,0,0-4.03.329,2.3,2.3,0,0,0-1.328.8c-.34.62.342,1.127.805,1.453a12.008,12.008,0,0,1,2.717,2.283,4.282,4.282,0,0,1-.043,5.776" transform="translate(-93.359 -87.549)" fill="#958bf7"/>
    <path id="Trazado_194018" data-name="Trazado 194018" d="M333.826,322.27l-8.4-.806-4.288-.411c-.406-.039-1.027-.009-1.536-.072,1.98-1.243,3.908-2.568,5.849-3.852l8.766-5.8a.588.588,0,0,0,.267.066,84.2,84.2,0,0,1,14.395,1.278c.885.156.991-1.186.113-1.341a84.25,84.25,0,0,0-12.9-1.242l.729-.483,16.632-11.011a96.922,96.922,0,0,1,12.519,2.2c.864.212,1.336-1.055.462-1.269a99.739,99.739,0,0,0-11.252-2.078l4.226-2.8,12.661-8.382c.74-.49-.17-1.511-.9-1.025l-17.391,11.515a102.759,102.759,0,0,0,1.884-12.278.7.7,0,0,0-1.393-.109,100.543,100.543,0,0,1-2.084,13.249.866.866,0,0,0-.02.206L335.31,308.977q.312-7.418.626-14.836c.036-.863-1.356-.976-1.393-.109l-.67,15.9-7.314,4.843c-2.613,1.73-5.2,3.56-7.884,5.217.007-.267.064-.548.091-.808a89.213,89.213,0,0,0,.276-14.806c-.054-.865-1.43-.62-1.376.235q.264,4.18.125,8.372-.068,2.06-.235,4.114-.081.99-.182,1.977a8.059,8.059,0,0,0-.145,1.785c-1.087.632-2.2,1.228-3.331,1.771a.678.678,0,0,0,.589,1.22c1.21-.578,2.382-1.223,3.533-1.9a5.194,5.194,0,0,0,1.631.32l4.8.46,9.261.888a.673.673,0,1,0,.113-1.34" transform="translate(-94.555 -92.931)" fill="#1a75b5"/>
    <rect id="Rectángulo_45330" data-name="Rectángulo 45330" width="136.137" height="46.053" transform="translate(77.368)" fill="#4b39c6"/>
    <path id="Trazado_194019" data-name="Trazado 194019" d="M100.388,103.185l14.391,171.439,126.941.17,14.381-171.4Z" transform="translate(-30.277 -33.791)" fill="#958bf7"/>
    <path id="Trazado_194020" data-name="Trazado 194020" d="M113.073,274.621l-3.953-.005L94.728,103.177l3.953.005Z" transform="translate(-28.57 -33.788)" fill="#4b39c6"/>
    <path id="Trazado_194021" data-name="Trazado 194021" d="M317.135,103.495,302.754,274.9l3.678,0,14.4-171.4Z" transform="translate(-91.311 -33.893)" fill="#4b39c6"/>
    <rect id="Rectángulo_45331" data-name="Rectángulo 45331" width="19.699" height="160.489" transform="translate(69.319 243.785) rotate(-89.92)" fill="#bcd8d7"/>
    <rect id="Rectángulo_45332" data-name="Rectángulo 45332" width="8.317" height="160.489" transform="translate(69.335 232.403) rotate(-89.92)" fill="#c8edea"/>
    <path id="Trazado_194022" data-name="Trazado 194022" d="M334.937,111.482l0,1.544a9.758,9.758,0,0,1-9.924,9.53h-.923a9.881,9.881,0,0,1-9.56-7.079l-1.876-15.922,18.482.025.045-.014Z" transform="translate(-94.296 -32.602)" fill="#2194e5"/>
    <path id="Trazado_194023" data-name="Trazado 194023" d="M327.164,89.236l.044.149-.044.014-18.483-.024-9.193-20.906,13.746.018Z" transform="translate(-90.326 -22.422)" fill="#1a75b5"/>
    <path id="Trazado_194024" data-name="Trazado 194024" d="M304.6,99.543l1.875,15.921a9.869,9.869,0,0,1-9.691,7.5h-.923a9.816,9.816,0,0,1-9.8-8.232l-.111-15.214Z" transform="translate(-86.243 -32.59)" fill="#fff"/>
    <path id="Trazado_194025" data-name="Trazado 194025" d="M292.477,68.459l9.192,20.905-18.645-.025-6.783-20.9Z" transform="translate(-83.314 -22.412)" fill="#e0e0e0"/>
    <path id="Trazado_194026" data-name="Trazado 194026" d="M276.747,99.5l.111,15.214a9.844,9.844,0,0,1-9.811,8.114h-.931a9.873,9.873,0,0,1-9.626-7.371l-1.063-15.984Z" transform="translate(-77.037 -32.576)" fill="#2194e5"/>
    <path id="Trazado_194027" data-name="Trazado 194027" d="M267.9,68.424l6.784,20.9L253.365,89.3l-4.773-20.9Z" transform="translate(-74.975 -22.399)" fill="#1a75b5"/>
    <path id="Trazado_194028" data-name="Trazado 194028" d="M246.7,99.462l1.063,15.984a9.882,9.882,0,0,1-9.669,7.388h-.931a9.815,9.815,0,0,1-9.8-8.254l-.879-15.144Z" transform="translate(-68.308 -32.563)" fill="#fff"/>
    <path id="Trazado_194029" data-name="Trazado 194029" d="M240.517,68.386l4.774,20.9-20.212-.028-3.259-20.9Z" transform="translate(-66.901 -22.387)" fill="#e0e0e0"/>
    <path id="Trazado_194030" data-name="Trazado 194030" d="M218.016,99.422l.88,15.144a9.818,9.818,0,0,1-9.8,8.135h-.931a9.835,9.835,0,0,1-9.758-7.99l.022-15.314Z" transform="translate(-59.838 -32.55)" fill="#2194e5"/>
    <path id="Trazado_194031" data-name="Trazado 194031" d="M214.767,68.351l3.258,20.9-19.591-.026.03-20.893Z" transform="translate(-59.848 -22.376)" fill="#1a75b5"/>
    <path id="Trazado_194032" data-name="Trazado 194032" d="M189.253,99.382l-.022,15.314a9.871,9.871,0,0,1-9.714,7.594h-.931a9.809,9.809,0,0,1-9.8-8.226c-.015.093-.029.185-.052.278l-.747-14.988Z" transform="translate(-50.666 -32.537)" fill="#fff"/>
    <path id="Trazado_194033" data-name="Trazado 194033" d="M189.283,68.316l-.03,20.893-21.261-.028,1.641-20.891Z" transform="translate(-50.666 -22.364)" fill="#e0e0e0"/>
    <path id="Trazado_194034" data-name="Trazado 194034" d="M161.849,68.279,160.208,89.17l-18.024-.024,3.437-20.888Z" transform="translate(-42.883 -22.353)" fill="#1a75b5"/>
    <path id="Trazado_194035" data-name="Trazado 194035" d="M159.541,99.341l.747,14.988a9.837,9.837,0,0,1-9.759,7.829h-.923a9.877,9.877,0,0,1-9.634-7.363l1.545-15.476Z" transform="translate(-42.216 -32.524)" fill="#2194e5"/>
    <path id="Trazado_194036" data-name="Trazado 194036" d="M137.866,68.248l-3.437,20.888-17.958-.024,7.738-20.882Z" transform="translate(-35.128 -22.344)" fill="#e0e0e0"/>
    <path id="Trazado_194037" data-name="Trazado 194037" d="M132.713,99.305l-1.545,15.476a9.883,9.883,0,0,1-9.669,7.388h-.931a9.805,9.805,0,0,1-9.787-8.232l3.975-14.654Z" transform="translate(-33.411 -32.513)" fill="#fff"/>
    <path id="Trazado_194038" data-name="Trazado 194038" d="M115.047,68.22,107.308,89.1l-21.217-.029L99.542,68.2Z" transform="translate(-25.965 -22.334)" fill="#1a75b5"/>
    <path id="Trazado_194039" data-name="Trazado 194039" d="M105.842,99.268l-3.975,14.654a9.843,9.843,0,0,1-9.811,8.113h-.931a9.763,9.763,0,0,1-9.9-9.556l0-1.552L84.625,99.24Z" transform="translate(-24.499 -32.499)" fill="#2194e5"/>
    <rect id="Rectángulo_45333" data-name="Rectángulo 45333" width="35.22" height="126.999" transform="translate(83.024 42.22) rotate(-89.92)" fill="#2194e5"/>
    <path id="Trazado_194040" data-name="Trazado 194040" d="M118.877,62.779,245.019,66.6l.855-3.656Z" transform="translate(-35.853 -20.559)"/>
    <rect id="Rectángulo_45334" data-name="Rectángulo 45334" width="30.274" height="121.005" transform="matrix(0.001, -1, 1, 0.001, 85.698, 39.85)" fill="#fff"/>
    <path id="Trazado_194041" data-name="Trazado 194041" d="M121.3,142.359l8.193,128.1H239.8l6.751-128.873Z" transform="translate(-36.583 -46.368)" fill="#3f3a89"/>
    <path id="Trazado_194042" data-name="Trazado 194042" d="M148.18,257.466a45.7,45.7,0,0,0,8.412-10.774c6.385-10.667,5.345-39.659,5.345-39.659l4.9-.819,3.439,26.419,30.108,1.883L209.036,211l5.943,2.174s-10.557,41.169,4.438,56.732l.126,21.718H142.251l3.13-32.134a12.333,12.333,0,0,0,2.8-2.025" transform="translate(-42.903 -67.531)" fill="#775fe0"/>
    <path id="Trazado_194043" data-name="Trazado 194043" d="M115.48,207.481,111.964,226.9s-1.3,3.325-4.171,2.133-1.828-4.646-1.828-4.646-2.342,1.321-2.342,0a12.145,12.145,0,0,1,.865-2.451c2.089-5.053,7.272-15.942,7.469-16.362l.007-.013Z" transform="translate(-31.253 -67.316)" fill="#fffad8"/>
    <path id="Trazado_194044" data-name="Trazado 194044" d="M217.266,200.553l3.9,4.558-.52,1.178-7.3,16.457a12.275,12.275,0,0,0-6.71-5.519l11.147-11.107Z" transform="translate(-62.322 -65.677)" fill="#fffad8"/>
    <path id="Trazado_194045" data-name="Trazado 194045" d="M188.548,201.962l11.731,14.371c-5.345,1.632-9.516,6.711-9.516,6.711l-4.951-20.568-.261-1.083,4.621-3.569Z" transform="translate(-55.962 -64.784)" fill="#fffad8"/>
    <path id="Trazado_194046" data-name="Trazado 194046" d="M279.971,303.314c3.523-.061,1.569,3.264,1.569,3.264l-3.651,1.632-15.388,6.88-1.168.521-1.7-5.018,18.251-8.912c5.472-1.381,2.082,1.632,2.082,1.632" transform="translate(-78.307 -98.676)" fill="#fffad8"/>
    <path id="Trazado_194047" data-name="Trazado 194047" d="M219.654,210.52,211,234.033,180.9,232.151l-3.439-26.419,5.915-.989,4.951,20.568s4.17-5.08,9.516-6.711a12.268,12.268,0,0,1,6.709,5.519l7.3-16.457Z" transform="translate(-53.521 -67.049)" fill="#2194e5"/>
    <path id="Trazado_194048" data-name="Trazado 194048" d="M256.4,226.358l15.93,47.569-18.251,8.912-.52-1.022-1.857-27.34-2.44,18.82c-14.995-15.563-4.438-56.732-4.438-56.732s15.058,2.33,10.824,5.905c0,0,4.69,2.383.752,3.887" transform="translate(-72.751 -70.921)" fill="#2194e5"/>
    <path id="Trazado_194049" data-name="Trazado 194049" d="M153.888,206.88s1.041,28.992-5.345,39.658a45.713,45.713,0,0,1-8.412,10.775V237.877L115.565,226.96l3.516-19.416,20.206,2.471c-1.632-3.954,4.564-.874,4.564-.874-3.72-5.952,10.036-2.262,10.036-2.262" transform="translate(-34.854 -67.379)" fill="#2194e5"/>
    <path id="Trazado_194050" data-name="Trazado 194050" d="M257.037,300.277l-4.3-8.519,2.44-18.82Z" transform="translate(-76.226 -89.382)"/>
    <path id="Trazado_194051" data-name="Trazado 194051" d="M100.027,219.482l10.845-13.9c-.2.42-5.38,11.31-7.469,16.362,0,0-1.463-1.022-3.376-2.458" transform="translate(-30.168 -67.323)"/>
    <path id="Trazado_194052" data-name="Trazado 194052" d="M283.059,320.474l-.3,5.652H267.134l-3.4-7.68,15.388-6.881Z" transform="translate(-79.543 -102.032)" fill="#feb586"/>
    <path id="Trazado_194053" data-name="Trazado 194053" d="M126.308,137.191c.2-.061,8.474-2.634,9.769-1.273,1.3,1.381-21.507,10.477-21.507,10.477l-7.56,30.374-.007.014-10.845,13.9c-3.685-2.749-9.044-7.029-8.96-8.519.134-2.255,17.4-41.04,17.4-41.04s4.4-11.77,10.816-13.491c0,0,4.072-8.1,6.126-8.54,1.99-.42-1.822,7.26-2.068,7.754.373-.549,6.372-9.529,8.327-9.2,1.835.311-3.509,8.8-4.473,10.314,1.027-1.484,6.766-9.651,8.51-8.994,1.871.7-5.865,11.187-6.295,11.77.464-.5,7.378-8.052,9.424-7.564,2.089.494-8.362,13.639-8.657,14.012" transform="translate(-26.298 -38.526)" fill="#ffb586"/>
    <path id="Trazado_194054" data-name="Trazado 194054" d="M176.434,245.988a1.054,1.054,0,0,0-.538-.564,1.1,1.1,0,0,0-1.405.484l-2.151,3.577a.989.989,0,0,0-.035.788,1.05,1.05,0,0,0,.538.564,1.1,1.1,0,0,0,1.405-.484l2.151-3.576a.994.994,0,0,0,.035-.789" transform="translate(-51.948 -80.342)" fill="#fff"/>
    <path id="Trazado_194055" data-name="Trazado 194055" d="M188.9,253.993a1.13,1.13,0,0,0-.373-.689l-3.128-3.013a1.084,1.084,0,0,0-1.486.126,1,1,0,0,0-.243.741,1.135,1.135,0,0,0,.373.69l3.128,3.012a1.084,1.084,0,0,0,1.486-.125,1,1,0,0,0,.243-.742" transform="translate(-55.392 -81.888)" fill="#fff"/>
    <path id="Trazado_194056" data-name="Trazado 194056" d="M180.789,258.6a1.08,1.08,0,0,0-.67-.412,1.1,1.1,0,0,0-.8.17,1.2,1.2,0,0,0-.428.646l-1.368,4.142a.982.982,0,0,0,.177.771,1.08,1.08,0,0,0,.67.412,1.1,1.1,0,0,0,.8-.17,1.2,1.2,0,0,0,.428-.646l1.368-4.142a.985.985,0,0,0-.177-.771" transform="translate(-53.533 -84.548)" fill="#fff"/>
    <path id="Trazado_194057" data-name="Trazado 194057" d="M171.742,267.779a1.057,1.057,0,0,0-1.143-.923,1.045,1.045,0,0,0-.96,1.1l.369,3.767a1.056,1.056,0,0,0,1.143.923,1.045,1.045,0,0,0,.96-1.1l-.369-3.767" transform="translate(-51.162 -87.388)" fill="#fff"/>
    <path id="Trazado_194058" data-name="Trazado 194058" d="M187.276,275.634a1.058,1.058,0,0,0-1.143-.923l-4.3.57a1.044,1.044,0,0,0-.959,1.1,1.058,1.058,0,0,0,1.143.923l4.3-.57a1.045,1.045,0,0,0,.959-1.1" transform="translate(-54.549 -89.96)" fill="#fff"/>
    <path id="Trazado_194059" data-name="Trazado 194059" d="M196.181,260.8a1.1,1.1,0,0,0-1.405.485q-.88,1.6-1.761,3.2a1.008,1.008,0,0,0,.5,1.353,1.1,1.1,0,0,0,1.4-.484l1.762-3.2a1.008,1.008,0,0,0-.5-1.353" transform="translate(-58.182 -85.378)" fill="#fff"/>
    <path id="Trazado_194060" data-name="Trazado 194060" d="M205.368,252.659a1.057,1.057,0,0,0-1.143-.923,1.045,1.045,0,0,0-.96,1.1q.2,1.883.391,3.765a1.057,1.057,0,0,0,1.143.923,1.044,1.044,0,0,0,.959-1.1q-.2-1.882-.391-3.765" transform="translate(-61.303 -82.436)" fill="#fff"/>
    <path id="Trazado_194061" data-name="Trazado 194061" d="M219.611,253.328l-3.908-.4a1.075,1.075,0,0,0-1.229.816,1.033,1.033,0,0,0,.847,1.183l3.908.4a1.075,1.075,0,0,0,1.228-.816,1.033,1.033,0,0,0-.847-1.183" transform="translate(-64.683 -82.826)" fill="#fff"/>
    <path id="Trazado_194062" data-name="Trazado 194062" d="M234.716,254.341a1.056,1.056,0,0,0-2.1.177q.1,1.695.192,3.389a1.056,1.056,0,0,0,2.1-.178q-.1-1.695-.192-3.389" transform="translate(-70.156 -82.987)" fill="#fff"/>
    <path id="Trazado_194063" data-name="Trazado 194063" d="M222.57,263.514a1.067,1.067,0,0,0-1.228.816l-.4,3.576a1.04,1.04,0,0,0,.847,1.183,1.067,1.067,0,0,0,1.228-.816l.4-3.576a1.04,1.04,0,0,0-.847-1.183" transform="translate(-66.633 -86.293)" fill="#fff"/>
    <path id="Trazado_194064" data-name="Trazado 194064" d="M210.738,268.962a1.08,1.08,0,0,0-.67-.412,1.1,1.1,0,0,0-.8.17.972.972,0,0,0-.428.646l-.2,3.765a1.055,1.055,0,0,0,1.648,1.013.972.972,0,0,0,.428-.646q.1-1.882.2-3.765a1.087,1.087,0,0,0-.177-.771" transform="translate(-62.925 -87.941)" fill="#fff"/>
    <path id="Trazado_194065" data-name="Trazado 194065" d="M222.543,279.235a1.056,1.056,0,0,0-1.143-.923l-4.3.751a1.149,1.149,0,0,0-.716.359,1.009,1.009,0,0,0-.243.741,1.057,1.057,0,0,0,1.143.924l4.3-.751a1.148,1.148,0,0,0,.716-.358,1.007,1.007,0,0,0,.243-.742" transform="translate(-65.186 -91.138)" fill="#fff"/>
    <path id="Trazado_194066" data-name="Trazado 194066" d="M235.039,277.063l-1.173-3.954a1.073,1.073,0,0,0-1.357-.6,1.031,1.031,0,0,0-.621,1.307l1.173,3.954a1.073,1.073,0,0,0,1.357.6,1.031,1.031,0,0,0,.621-1.307" transform="translate(-69.922 -89.221)" fill="#fff"/>
    <path id="Trazado_194067" data-name="Trazado 194067" d="M230.492,287.641a1.054,1.054,0,0,0-.538-.564,1.088,1.088,0,0,0-1.405.484l-1.124,2.842a1,1,0,0,0,.5,1.352,1.087,1.087,0,0,0,1.4-.484l1.125-2.841a1.05,1.05,0,0,0,.035-.789" transform="translate(-68.562 -93.985)" fill="#fff"/>
    <path id="Trazado_194068" data-name="Trazado 194068" d="M214.124,290.187a1.054,1.054,0,0,0-.538-.564,1.1,1.1,0,0,0-.819-.034,1.006,1.006,0,0,0-.586.518l-.977,2.824a1.074,1.074,0,0,0-.036.789,1.054,1.054,0,0,0,.538.564,1.1,1.1,0,0,0,.819.034,1.006,1.006,0,0,0,.586-.518l.978-2.824a1.074,1.074,0,0,0,.035-.789" transform="translate(-63.67 -94.814)" fill="#fff"/>
    <path id="Trazado_194069" data-name="Trazado 194069" d="M199.29,281.635q-.489-1.882-.978-3.765a1.033,1.033,0,0,0-.538-.564,1.117,1.117,0,0,0-.819-.034,1.052,1.052,0,0,0-.585.518,1.128,1.128,0,0,0-.036.789l.978,3.765a1.033,1.033,0,0,0,.538.564,1.116,1.116,0,0,0,.819.034,1.055,1.055,0,0,0,.586-.518,1.132,1.132,0,0,0,.035-.789" transform="translate(-59.198 -90.781)" fill="#fff"/>
    <path id="Trazado_194070" data-name="Trazado 194070" d="M195.868,293.012a1.07,1.07,0,0,0-1.143-.923l-4.5.059a1.033,1.033,0,0,0-.959,1.1,1.07,1.07,0,0,0,1.143.923l4.5-.06a1.032,1.032,0,0,0,.959-1.1" transform="translate(-57.082 -95.654)" fill="#fff"/>
    <path id="Trazado_194071" data-name="Trazado 194071" d="M183.84,287a1.079,1.079,0,0,0-1.229.816l-.925,3.589a1.026,1.026,0,0,0,.848,1.183,1.078,1.078,0,0,0,1.228-.816l.925-3.589A1.026,1.026,0,0,0,183.84,287" transform="translate(-54.789 -93.983)" fill="#fff"/>
    <path id="Trazado_194072" data-name="Trazado 194072" d="M170.382,288.251q-.588-1.694-1.176-3.388a1.078,1.078,0,0,0-1.357-.6,1.027,1.027,0,0,0-.621,1.307l1.176,3.388a1.077,1.077,0,0,0,1.357.6,1.026,1.026,0,0,0,.621-1.307" transform="translate(-50.418 -93.069)" fill="#fff"/>
    <path id="Trazado_194073" data-name="Trazado 194073" d="M158.678,292.548a1.063,1.063,0,0,0-1.143-.923l-3.125.233a1.038,1.038,0,0,0-.959,1.1,1.064,1.064,0,0,0,1.143.924l3.125-.233a1.038,1.038,0,0,0,.959-1.1" transform="translate(-46.279 -95.5)" fill="#fff"/>
    <path id="Trazado_194074" data-name="Trazado 194074" d="M168.251,298.845a1.1,1.1,0,0,0-1.405.484l-2.152,3.765a1.006,1.006,0,0,0,.5,1.352,1.1,1.1,0,0,0,1.405-.484l2.152-3.764a1.007,1.007,0,0,0-.5-1.353" transform="translate(-49.64 -97.837)" fill="#fff"/>
    <path id="Trazado_194075" data-name="Trazado 194075" d="M178.784,306.3q-.762-1.609-1.523-3.219a1.1,1.1,0,0,0-.538-.564,1.115,1.115,0,0,0-.819-.034,1.017,1.017,0,0,0-.622,1.307q.761,1.609,1.523,3.219a1.1,1.1,0,0,0,.537.564,1.117,1.117,0,0,0,.819.034,1.017,1.017,0,0,0,.622-1.307" transform="translate(-52.842 -99.038)" fill="#fff"/>
    <path id="Trazado_194076" data-name="Trazado 194076" d="M159.014,308.955q-.195-1.695-.39-3.389a1.058,1.058,0,0,0-1.143-.923,1.044,1.044,0,0,0-.96,1.1q.2,1.695.39,3.389a1.058,1.058,0,0,0,1.143.923,1.044,1.044,0,0,0,.959-1.1" transform="translate(-47.205 -99.762)" fill="#fff"/>
    <path id="Trazado_194077" data-name="Trazado 194077" d="M152.741,315.646a1.056,1.056,0,0,0-2.1.177q.1,2.071.2,4.142a1.056,1.056,0,0,0,2.1-.177q-.1-2.071-.2-4.142" transform="translate(-45.432 -103.063)" fill="#fff"/>
    <path id="Trazado_194078" data-name="Trazado 194078" d="M168.157,322.373a1.063,1.063,0,0,0-1.143-.923l-4.488.309a1.037,1.037,0,0,0-.959,1.1,1.064,1.064,0,0,0,1.143.923l4.488-.309a1.037,1.037,0,0,0,.959-1.1" transform="translate(-48.726 -105.268)" fill="#fff"/>
    <path id="Trazado_194079" data-name="Trazado 194079" d="M177.233,316.681a1.056,1.056,0,0,0-.959,1.1l-.05,4.141a1.055,1.055,0,0,0,2.1-.177l.05-4.141a1.047,1.047,0,0,0-1.143-.923" transform="translate(-53.149 -103.705)" fill="#fff"/>
    <path id="Trazado_194080" data-name="Trazado 194080" d="M189.851,321.716l-4.114-.252a1.189,1.189,0,0,0-.8.17,1,1,0,0,0,.419,1.829l4.114.252a1.191,1.191,0,0,0,.8-.17,1,1,0,0,0-.419-1.829" transform="translate(-55.645 -105.272)" fill="#fff"/>
    <path id="Trazado_194081" data-name="Trazado 194081" d="M191.266,306.775a1.094,1.094,0,0,0-1.405.484l-1.794,3.561a1.011,1.011,0,0,0,.5,1.352,1.094,1.094,0,0,0,1.405-.484l1.794-3.56a1.012,1.012,0,0,0-.5-1.353" transform="translate(-56.692 -100.434)" fill="#fff"/>
    <path id="Trazado_194082" data-name="Trazado 194082" d="M203.477,306.113l-3.324-3.577a1.16,1.16,0,0,0-.67-.412,1.109,1.109,0,0,0-.8.17,1,1,0,0,0-.251,1.416l3.324,3.576a1.155,1.155,0,0,0,.67.412,1.109,1.109,0,0,0,.8-.17,1,1,0,0,0,.251-1.416" transform="translate(-59.786 -98.935)" fill="#fff"/>
    <path id="Trazado_194083" data-name="Trazado 194083" d="M217.468,305.64l-3.7-1.548a1.089,1.089,0,0,0-1.4.484,1.015,1.015,0,0,0,.5,1.352l3.7,1.549a1.091,1.091,0,0,0,1.405-.484,1.016,1.016,0,0,0-.5-1.353" transform="translate(-64.023 -99.555)" fill="#fff"/>
    <path id="Trazado_194084" data-name="Trazado 194084" d="M227.768,304.1a1.072,1.072,0,0,0-1.229.816q-.294,1.694-.588,3.389a1.034,1.034,0,0,0,.848,1.183,1.071,1.071,0,0,0,1.228-.816q.294-1.695.588-3.389a1.033,1.033,0,0,0-.846-1.183" transform="translate(-68.143 -99.584)" fill="#fff"/>
    <path id="Trazado_194085" data-name="Trazado 194085" d="M220.778,314.441a1.075,1.075,0,0,0-1.228.816q-.509,2.255-1.019,4.51a1.029,1.029,0,0,0,.847,1.183,1.075,1.075,0,0,0,1.228-.816q.51-2.255,1.019-4.51a1.029,1.029,0,0,0-.847-1.183" transform="translate(-65.903 -102.97)" fill="#fff"/>
    <path id="Trazado_194086" data-name="Trazado 194086" d="M208.16,317.159a1.1,1.1,0,0,0-1.486.125l-2.923,3.773a1.008,1.008,0,0,0,.13,1.431,1.1,1.1,0,0,0,1.486-.125l2.923-3.773a1.007,1.007,0,0,0-.13-1.431" transform="translate(-61.38 -103.789)" fill="#fff"/>
    <path id="Trazado_194087" data-name="Trazado 194087" d="M230.3,325.707a1.072,1.072,0,0,0-1.143-.923l-4.5-.036a1.031,1.031,0,0,0-.959,1.1,1.073,1.073,0,0,0,1.143.924l4.5.035a1.031,1.031,0,0,0,.959-1.1" transform="translate(-67.466 -106.349)" fill="#fff"/>
    <path id="Trazado_194088" data-name="Trazado 194088" d="M235.784,313.556a1.083,1.083,0,0,0-1.486.125l-1.955,2.447a1.04,1.04,0,0,0-.243.742,1.02,1.02,0,0,0,.373.689,1.083,1.083,0,0,0,1.486-.125l1.955-2.447a1.038,1.038,0,0,0,.243-.741,1.021,1.021,0,0,0-.373-.69" transform="translate(-70 -102.605)" fill="#fff"/>
    <path id="Trazado_194089" data-name="Trazado 194089" d="M246.731,321.848l-1.9-3.98a1.09,1.09,0,0,0-1.357-.6,1.018,1.018,0,0,0-.621,1.307l1.9,3.98a1.09,1.09,0,0,0,1.357.6,1.018,1.018,0,0,0,.621-1.307" transform="translate(-73.222 -103.877)" fill="#fff"/>
    <path id="Trazado_194090" data-name="Trazado 194090" d="M246.633,306.487a1.055,1.055,0,0,0-.538-.564,1.1,1.1,0,0,0-.819-.034,1.174,1.174,0,0,0-.586.518l-1.8,2.991a1,1,0,0,0-.035.789,1.054,1.054,0,0,0,.538.564,1.1,1.1,0,0,0,.819.034,1.168,1.168,0,0,0,.586-.518l1.8-2.991a.991.991,0,0,0,.035-.789" transform="translate(-73.227 -100.152)" fill="#fff"/>
    <path id="Trazado_194091" data-name="Trazado 194091" d="M238.153,294.308a1.071,1.071,0,0,0-1.228.816q-.3,1.694-.592,3.388a1.034,1.034,0,0,0,.847,1.183,1.072,1.072,0,0,0,1.228-.816q.3-1.694.592-3.388a1.033,1.033,0,0,0-.847-1.183" transform="translate(-71.274 -96.377)" fill="#fff"/>
    <path id="Trazado_194092" data-name="Trazado 194092" d="M234.327,241.058a1.108,1.108,0,0,0-1.486.125l-2.737,2.824a1,1,0,0,0,.13,1.431,1.108,1.108,0,0,0,1.486-.125l2.737-2.824a1,1,0,0,0-.13-1.431" transform="translate(-69.326 -78.867)" fill="#fff"/>
    <path id="Trazado_194093" data-name="Trazado 194093" d="M237.934,233.007l-.975-3.013a1.076,1.076,0,0,0-1.357-.6,1.027,1.027,0,0,0-.621,1.307l.975,3.013a1.075,1.075,0,0,0,1.357.6,1.029,1.029,0,0,0,.621-1.307" transform="translate(-70.853 -75.101)" fill="#fff"/>
    <path id="Trazado_194094" data-name="Trazado 194094" d="M176.417,234.775l-2.136-3.96a1.136,1.136,0,0,0-.538-.564,1.115,1.115,0,0,0-.819-.034,1.053,1.053,0,0,0-.586.518.945.945,0,0,0-.035.789l2.136,3.96a1.132,1.132,0,0,0,.538.564,1.116,1.116,0,0,0,.819.034,1.055,1.055,0,0,0,.586-.518.948.948,0,0,0,.035-.789" transform="translate(-51.945 -75.371)" fill="#fff"/>
    <path id="Trazado_194095" data-name="Trazado 194095" d="M175.76,217.716a1.055,1.055,0,0,0-.538-.564,1.088,1.088,0,0,0-1.405.484l-1.18,3.01a1,1,0,0,0,.5,1.352,1.087,1.087,0,0,0,1.405-.484l1.18-3.01a1.053,1.053,0,0,0,.035-.789" transform="translate(-52.038 -71.086)" fill="#fff"/>
    <path id="Trazado_194096" data-name="Trazado 194096" d="M241,219.362a1.055,1.055,0,0,0-.538-.564,1.1,1.1,0,0,0-.819-.034l-.242.123a1.03,1.03,0,0,0-.344.395l-.977,1.695a1,1,0,0,0-.036.788,1.052,1.052,0,0,0,.538.564,1.1,1.1,0,0,0,.819.034l.242-.123a1.025,1.025,0,0,0,.344-.395l.978-1.694a1,1,0,0,0,.035-.789" transform="translate(-71.774 -71.62)" fill="#fff"/>
    <path id="Trazado_194097" data-name="Trazado 194097" d="M156.9,217.088l-3.982-3.885a.363.363,0,0,0-.5.042.337.337,0,0,0,.043.477l3.982,3.885a.363.363,0,0,0,.5-.042.336.336,0,0,0-.043-.477" transform="translate(-45.948 -69.794)"/>
    <path id="Trazado_194098" data-name="Trazado 194098" d="M160.216,215.861l-1.173-4.33a.358.358,0,0,0-.452-.2.343.343,0,0,0-.207.436l1.173,4.33a.359.359,0,0,0,.453.2.343.343,0,0,0,.207-.436" transform="translate(-47.764 -69.201)"/>
    <path id="Trazado_194099" data-name="Trazado 194099" d="M254.422,225.651l-3.91,2.385c-.382.233.024.785.406.553l3.91-2.385c.383-.233-.024-.786-.406-.553" transform="translate(-75.508 -73.878)"/>
    <path id="Trazado_194100" data-name="Trazado 194100" d="M256.942,229.443l-4.954.871c-.441.078-.384.753.061.675l4.954-.871c.441-.077.384-.753-.061-.675" transform="translate(-75.908 -75.136)"/>
    <path id="Trazado_194101" data-name="Trazado 194101" d="M129.316,143.124a12.7,12.7,0,0,0-7.289,3.356c-.324.3.217.738.538.435a11.912,11.912,0,0,1,6.812-3.116.339.339,0,1,0-.061-.675" transform="translate(-36.773 -46.869)"/>
    <path id="Trazado_194102" data-name="Trazado 194102" d="M205.907,227.767c-.013-.436-.713-.375-.7.059L205.519,239c.013.436.713.375.7-.059l-.312-11.169" transform="translate(-61.89 -74.492)"/>
    <path id="Trazado_194103" data-name="Trazado 194103" d="M210.35,235.452a.879.879,0,1,1-.878-.845.862.862,0,0,1,.878.845" transform="translate(-62.912 -76.829)"/>
    <path id="Trazado_194104" data-name="Trazado 194104" d="M208.789,242.547a.81.81,0,1,1,.81.78.8.8,0,0,1-.81-.78" transform="translate(-62.971 -79.174)"/>
    <path id="Trazado_194105" data-name="Trazado 194105" d="M113.087,210.756l-5.816,12.855a.35.35,0,0,0,.636.29q2.063-4.562,4.127-9.123l-2.1,8.059c-.11.424.582.543.691.122l3.121-12c.1-.373-.506-.555-.664-.206" transform="translate(-32.343 -68.957)"/>
    <path id="Trazado_194106" data-name="Trazado 194106" d="M278.832,307.067l-14.938,5.354a.34.34,0,0,0,.245.635L275.451,309l-9.284,5.327c-.389.223.019.775.406.553l12.584-7.22c.347-.2.041-.726-.326-.594" transform="translate(-79.524 -100.552)"/>
    <path id="Trazado_194107" data-name="Trazado 194107" d="M213.531,174.569a20.653,20.653,0,0,1-4.262,7.89,12.428,12.428,0,0,1-11.415,3.914,13.592,13.592,0,0,1-8.65-4.185,16.058,16.058,0,0,1-3.735-9.163c-3.326-.549-5.422-4.558-4.107-8.364.675-1.957,1.927-2.357,3.024-2.268a5.113,5.113,0,0,1,2.06.7l2.307-7.591a24.222,24.222,0,0,1,23.237,1.666c.337.223.675.454,1.006.684l1.476,6.434a5.448,5.448,0,0,1,1.435-.515c1.308-.271,3.116-.047,3.579,2.96.753,4.862-4.873,7.957-5.957,7.836" transform="translate(-54.579 -50.203)" fill="#feb586"/>
    <path id="Trazado_194108" data-name="Trazado 194108" d="M190.03,153.162c-.162.075-.316.149-.471.224a14.132,14.132,0,0,1-3.13,1.307,2.177,2.177,0,0,1-.3.047.878.878,0,0,1-.8-.257.943.943,0,0,1-.126-.617,3.811,3.811,0,0,1,.985-2.12,7.859,7.859,0,0,1,.893-.907,18.434,18.434,0,0,1,7.194-3.677,33.493,33.493,0,0,1,5.436-.989,22.434,22.434,0,0,1,4.368.223,22.732,22.732,0,0,1,12.554,6.264,15.348,15.348,0,0,1,1.533,1.754,10.221,10.221,0,0,1,.893,1.443c.225.454.387,1.043.043,1.416a1.4,1.4,0,0,1-1.47.122c-.148-.054-.3-.108-.443-.176a16.632,16.632,0,0,1-2.912-1.707c-.331-.23-.668-.46-1.006-.684a24.229,24.229,0,0,0-23.237-1.667" transform="translate(-55.854 -47.861)" fill="#4b39c6"/>
    <path id="Trazado_194109" data-name="Trazado 194109" d="M194.7,143.514a18.451,18.451,0,0,0-7.195,3.677,7.977,7.977,0,0,0-.893.907s.823-8.377,6.428-10.578,9.22-2.567,11.014-2.506,10.718,3.772,13.1,7.28,1.435,8.472,1.435,8.472a15.479,15.479,0,0,0-1.533-1.754,22.739,22.739,0,0,0-12.554-6.265,22.441,22.441,0,0,0-4.368-.223,33.5,33.5,0,0,0-5.436.989" transform="translate(-56.281 -44.213)" fill="#775fe0"/>
    <path id="Trazado_194110" data-name="Trazado 194110" d="M199.515,185.913l9.441,1.781s-.339,4.058-5.621,3.41-3.82-5.191-3.82-5.191" transform="translate(-60.118 -60.883)" fill="#fff"/>
    <path id="Trazado_194111" data-name="Trazado 194111" d="M213.773,176.155a1.771,1.771,0,0,1,.851,1.368,1.431,1.431,0,0,1-.471.86,3.818,3.818,0,0,1-3.938.732,5.029,5.029,0,0,1-2.842-2.892,7.959,7.959,0,0,1-.387-4.036,8.108,8.108,0,0,1,.549-2.106A7,7,0,0,0,210,173.432c1.2.975,2.574,1.747,3.777,2.722" transform="translate(-62.398 -55.698)" fill="#ef9014"/>
    <path id="Trazado_194112" data-name="Trazado 194112" d="M229.742,161.778v4.213a5.422,5.422,0,0,0-1.435.514l-1.477-6.434a16.612,16.612,0,0,0,2.912,1.706" transform="translate(-68.412 -52.421)"/>
    <path id="Trazado_194113" data-name="Trazado 194113" d="M190.232,156.577l-2.307,7.593a5.109,5.109,0,0,0-2.061-.7l.043-.3.422-5a2.175,2.175,0,0,0,.3-.047,14.132,14.132,0,0,0,3.13-1.307c.155-.075.309-.149.471-.224" transform="translate(-56.057 -51.276)"/>
    <path id="Trazado_194114" data-name="Trazado 194114" d="M191.882,196.254a13.594,13.594,0,0,0,8.65,4.185,12.428,12.428,0,0,0,11.415-3.914l.007.007c-10.078,13.335-22.111,4.917-22.111,4.917l1.624-4.138.007-.007Z" transform="translate(-57.257 -64.269)"/>
    <path id="Trazado_194115" data-name="Trazado 194115" d="M212.2,199.28l.52,5.567-11.147,11.107-11.731-14.37s12.033,8.418,22.112-4.917Z" transform="translate(-57.256 -64.405)" fill="#feb586"/>
    <path id="Trazado_194116" data-name="Trazado 194116" d="M187.474,173.456c-.022-.436-.722-.376-.7.059q.151,3.014.3,6.028c.022.436.722.376.7-.059q-.151-3.014-.3-6.028" transform="translate(-56.331 -56.706)"/>
    <path id="Trazado_194117" data-name="Trazado 194117" d="M227.557,176.232l-.688,6.02c-.05.432.643.556.692.123q.344-3.011.688-6.021c.048-.431-.643-.556-.692-.122" transform="translate(-68.423 -57.624)"/>
    <path id="Trazado_194118" data-name="Trazado 194118" d="M199.418,167.339a1.965,1.965,0,1,1-1.895-2.484,2.251,2.251,0,0,1,1.895,2.484" transform="translate(-59.001 -53.987)"/>
    <path id="Trazado_194119" data-name="Trazado 194119" d="M221.257,169.044a1.965,1.965,0,1,1-1.895-2.484,2.251,2.251,0,0,1,1.895,2.484" transform="translate(-65.588 -54.545)"/>
    <path id="Trazado_194120" data-name="Trazado 194120" d="M198.485,160.277a6.226,6.226,0,0,0-4.584.957,1.089,1.089,0,0,0-.47.618,1.006,1.006,0,0,0,.126.78,1.093,1.093,0,0,0,1.452.331,5.061,5.061,0,0,1,.481-.3c.079-.043.159-.083.24-.122l.012-.005.069-.028a5.177,5.177,0,0,1,.948-.26,5.31,5.31,0,0,1,1.049-.024c.055.008.11.013.166.023a1.079,1.079,0,0,0,1.279-.739,1.028,1.028,0,0,0-.768-1.232" transform="translate(-58.33 -52.457)"/>
    <path id="Trazado_194121" data-name="Trazado 194121" d="M222.969,163.231a6.91,6.91,0,0,0-4.75-1.114,1.046,1.046,0,0,0-.959,1.1,1.058,1.058,0,0,0,1.143.924c.175-.026.351-.044.528-.053a3.332,3.332,0,0,0,.441,0l.071.005c.088.008.176.017.264.029q.23.031.457.079c.152.033.3.08.449.116-.308-.073-.016,0,.053.024s.165.062.247.1c.142.059.281.124.418.2.078.04.154.085.23.126l.007,0,.045.029a1.167,1.167,0,0,0,.77.234,1.086,1.086,0,0,0,.716-.359,1,1,0,0,0-.13-1.431" transform="translate(-65.523 -53.069)"/>
    <path id="Trazado_194122" data-name="Trazado 194122" d="M345.464,172.794a1.684,1.684,0,0,0-.515-.7l-.376-.232a1.791,1.791,0,0,0-.9-.155h-.388a1.349,1.349,0,0,0-.657.2,1.315,1.315,0,0,0-.529.393,1.25,1.25,0,0,0-.311.57,1.221,1.221,0,0,0-.091.658l.1.44a1.68,1.68,0,0,0,.514.7l.376.233a1.8,1.8,0,0,0,.9.155h.388a1.35,1.35,0,0,0,.657-.2,1.3,1.3,0,0,0,.528-.393,1.239,1.239,0,0,0,.311-.569,1.225,1.225,0,0,0,.091-.658l-.1-.44" transform="translate(-103.053 -56.228)" fill="#2194e5"/>
    <path id="Trazado_194123" data-name="Trazado 194123" d="M366.083,115a1.715,1.715,0,0,0-1.587,1.821,1.765,1.765,0,0,0,1.892,1.529,1.714,1.714,0,0,0,1.587-1.821A1.764,1.764,0,0,0,366.083,115" transform="translate(-109.93 -37.66)" fill="#2194e5"/>
    <path id="Trazado_194124" data-name="Trazado 194124" d="M390.006,170.931a1.266,1.266,0,0,0-.409-.508,1.318,1.318,0,0,0-.592-.3,1.359,1.359,0,0,0-.683-.088l-.457.1a1.743,1.743,0,0,0-.728.5l-.242.362a1.628,1.628,0,0,0-.161.866v.374a1.238,1.238,0,0,0,.209.632,1.267,1.267,0,0,0,.409.509,1.331,1.331,0,0,0,.592.3,1.359,1.359,0,0,0,.683.087l.457-.1a1.748,1.748,0,0,0,.728-.495l.241-.362a1.617,1.617,0,0,0,.161-.866v-.374a1.232,1.232,0,0,0-.208-.633" transform="translate(-116.637 -55.68)" fill="#2194e5"/>
    <path id="Trazado_194125" data-name="Trazado 194125" d="M54.577,177.049a1.26,1.26,0,0,0-.409-.508l-.376-.233a1.8,1.8,0,0,0-.9-.155l-.457.1a1.743,1.743,0,0,0-.728.5l-.388.374a1.241,1.241,0,0,0-.311.569,1.475,1.475,0,0,0,.117,1.291,1.267,1.267,0,0,0,.409.509l.376.232a1.8,1.8,0,0,0,.9.155l.457-.1a1.747,1.747,0,0,0,.728-.495l.388-.374a1.25,1.25,0,0,0,.311-.57,1.475,1.475,0,0,0-.117-1.291" transform="translate(-15.354 -57.685)" fill="#2194e5"/>
    <path id="Trazado_194126" data-name="Trazado 194126" d="M70.871,143.132a1.266,1.266,0,0,0-.409-.508,1.318,1.318,0,0,0-.592-.3,1.359,1.359,0,0,0-.683-.088l-.457.1a1.743,1.743,0,0,0-.728.5l-.242.362a1.628,1.628,0,0,0-.161.866v.374a1.238,1.238,0,0,0,.209.632,1.267,1.267,0,0,0,.409.509,1.331,1.331,0,0,0,.592.3,1.359,1.359,0,0,0,.683.087l.457-.1a1.747,1.747,0,0,0,.728-.495l.241-.362a1.617,1.617,0,0,0,.161-.866v-.374a1.233,1.233,0,0,0-.208-.633" transform="translate(-20.386 -46.576)" fill="#2194e5"/>
    <path id="Trazado_194127" data-name="Trazado 194127" d="M59.751,85.866a1.272,1.272,0,0,0-.409-.508,1.318,1.318,0,0,0-.592-.3,1.359,1.359,0,0,0-.683-.088l-.457.1a1.743,1.743,0,0,0-.728.5l-.242.362a1.628,1.628,0,0,0-.161.866v.373a1.238,1.238,0,0,0,.209.633,1.266,1.266,0,0,0,.409.509,1.331,1.331,0,0,0,.592.3,1.359,1.359,0,0,0,.683.087l.457-.1a1.747,1.747,0,0,0,.728-.495l.241-.362a1.613,1.613,0,0,0,.161-.865V86.5a1.233,1.233,0,0,0-.208-.633" transform="translate(-17.033 -27.822)" fill="#2194e5"/>
    <path id="Trazado_194128" data-name="Trazado 194128" d="M33.558,131.467a1.68,1.68,0,0,0-.515-.7l-.388-.374a1.329,1.329,0,0,0-.591-.3,1.637,1.637,0,0,0-1.34.113,1.314,1.314,0,0,0-.529.393l-.241.362a1.621,1.621,0,0,0-.161.866l.1.44a1.679,1.679,0,0,0,.514.7l.388.374a1.324,1.324,0,0,0,.592.3,1.63,1.63,0,0,0,1.34-.113,1.3,1.3,0,0,0,.529-.393l.241-.362a1.621,1.621,0,0,0,.161-.866l-.1-.44" transform="translate(-8.984 -42.571)" fill="#2194e5"/>
    <path id="Trazado_194129" data-name="Trazado 194129" d="M369.02,157.6a1.012,1.012,0,0,0-.309-.421l-.388-.374a.789.789,0,0,0-.355-.18.981.981,0,0,0-.8.068.791.791,0,0,0-.317.236l-.145.217a.975.975,0,0,0-.1.519c.021.088.04.176.061.264a1,1,0,0,0,.309.42l.388.374a.793.793,0,0,0,.355.18.977.977,0,0,0,.8-.067.777.777,0,0,0,.317-.237l.145-.217a.97.97,0,0,0,.1-.519Z" transform="translate(-110.567 -51.274)" fill="#958bf7"/>
    <path id="Trazado_194130" data-name="Trazado 194130" d="M395.372,141.57c-1.348,0-1.157,2.01.182,2.01s1.158-2.01-.182-2.01" transform="translate(-118.966 -46.361)" fill="#958bf7"/>
    <path id="Trazado_194131" data-name="Trazado 194131" d="M365.349,92.643c-1.348,0-1.157,2.01.182,2.01s1.158-2.01-.182-2.01" transform="translate(-109.911 -30.339)" fill="#958bf7"/>
    <path id="Trazado_194132" data-name="Trazado 194132" d="M54.887,123.317a1,1,0,0,0-.309-.421l-.226-.139a1.074,1.074,0,0,0-.539-.093h-.388a.809.809,0,0,0-.394.12.786.786,0,0,0-.317.236.748.748,0,0,0-.186.342.732.732,0,0,0-.054.395c.02.088.041.176.061.264a1,1,0,0,0,.309.42l.226.14a1.088,1.088,0,0,0,.539.093H54a.817.817,0,0,0,.394-.12.786.786,0,0,0,.317-.237.746.746,0,0,0,.186-.341.733.733,0,0,0,.054-.395c-.02-.088-.041-.176-.061-.264" transform="translate(-15.824 -40.169)" fill="#958bf7"/>
    <path id="Trazado_194133" data-name="Trazado 194133" d="M45.435,91.626a1,1,0,0,0-.309-.421l-.226-.139a1.075,1.075,0,0,0-.539-.093h-.388a.81.81,0,0,0-.394.12.786.786,0,0,0-.317.236.748.748,0,0,0-.186.342.732.732,0,0,0-.054.395c.02.088.041.176.061.264a1,1,0,0,0,.309.42l.226.14a1.088,1.088,0,0,0,.539.093h.388a.817.817,0,0,0,.394-.12.786.786,0,0,0,.317-.237.746.746,0,0,0,.186-.341.733.733,0,0,0,.054-.395c-.02-.088-.041-.176-.061-.264" transform="translate(-12.973 -29.791)" fill="#958bf7"/>
    <path id="Trazado_194134" data-name="Trazado 194134" d="M19.86,201.155a1,1,0,0,0-.309-.421l-.226-.139a1.075,1.075,0,0,0-.539-.093H18.4a.809.809,0,0,0-.394.12.786.786,0,0,0-.317.236.748.748,0,0,0-.186.342.732.732,0,0,0-.054.395c.02.088.041.176.061.264a1,1,0,0,0,.309.42l.226.14a1.088,1.088,0,0,0,.539.093h.388a.817.817,0,0,0,.394-.12.786.786,0,0,0,.317-.237.746.746,0,0,0,.186-.341.733.733,0,0,0,.054-.395c-.02-.088-.041-.176-.061-.264" transform="translate(-5.26 -65.659)" fill="#958bf7"/>
    <path id="Trazado_194135" data-name="Trazado 194135" d="M28.6,222.963a.735.735,0,0,0-.158-.363.79.79,0,0,0-.294-.26.817.817,0,0,0-.372-.15l-.281-.012a1.06,1.06,0,0,0-.514.182l-.2.175c-.006.007-.01.016-.016.024a.829.829,0,0,0-.3.053.788.788,0,0,0-.339.21.763.763,0,0,0-.243.3l-.084.249a.978.978,0,0,0,.049.535l.127.231a1.043,1.043,0,0,0,.407.33,1.622,1.622,0,0,0,.77.118,2.07,2.07,0,0,0,.389-.081.75.75,0,0,0,.114-.044,2.142,2.142,0,0,0,.335-.182,1.978,1.978,0,0,0,.282-.252,1.753,1.753,0,0,0,.212-.309,1.678,1.678,0,0,0,.128-.353.735.735,0,0,0-.017-.4" transform="translate(-7.777 -72.759)" fill="#958bf7"/>
    <path id="Trazado_194136" data-name="Trazado 194136" d="M33.426,192.164c-1.348,0-1.157,2.01.182,2.01s1.158-2.01-.182-2.01" transform="translate(-9.803 -62.93)" fill="#958bf7"/>
    <path id="Trazado_194137" data-name="Trazado 194137" d="M420.671,214.666a1.272,1.272,0,0,0-.409-.508,1.318,1.318,0,0,0-.592-.3,1.359,1.359,0,0,0-.683-.088l-.457.1a1.743,1.743,0,0,0-.728.5l-.242.362a1.628,1.628,0,0,0-.161.866v.373a1.238,1.238,0,0,0,.209.633,1.266,1.266,0,0,0,.409.509,1.331,1.331,0,0,0,.592.3,1.359,1.359,0,0,0,.683.087l.457-.1a1.747,1.747,0,0,0,.728-.495l.241-.363a1.613,1.613,0,0,0,.161-.865V215.3a1.233,1.233,0,0,0-.208-.633" transform="translate(-125.886 -70.002)" fill="#2194e5"/>
    <path id="Trazado_194138" data-name="Trazado 194138" d="M394.478,260.267a1.679,1.679,0,0,0-.515-.7l-.388-.374a1.328,1.328,0,0,0-.591-.3,1.637,1.637,0,0,0-1.34.113,1.314,1.314,0,0,0-.529.393l-.241.362a1.621,1.621,0,0,0-.161.866l.1.44a1.68,1.68,0,0,0,.514.7l.388.374a1.324,1.324,0,0,0,.592.3,1.631,1.631,0,0,0,1.34-.113,1.3,1.3,0,0,0,.529-.393l.241-.362a1.621,1.621,0,0,0,.161-.865l-.1-.44" transform="translate(-117.837 -84.75)" fill="#2194e5"/>
    <path id="Trazado_194139" data-name="Trazado 194139" d="M415.807,252.117a1,1,0,0,0-.309-.421l-.226-.139a1.074,1.074,0,0,0-.539-.093h-.388a.809.809,0,0,0-.394.12.786.786,0,0,0-.317.236.748.748,0,0,0-.186.342.732.732,0,0,0-.054.395c.02.088.041.176.061.264a1,1,0,0,0,.309.42l.226.14a1.088,1.088,0,0,0,.539.093h.388a.817.817,0,0,0,.394-.12.786.786,0,0,0,.317-.237.745.745,0,0,0,.186-.341.733.733,0,0,0,.054-.395c-.02-.088-.041-.176-.061-.264" transform="translate(-124.677 -82.348)" fill="#958bf7"/>
    <path id="Trazado_194140" data-name="Trazado 194140" d="M406.355,220.426a1.013,1.013,0,0,0-.309-.421l-.226-.139a1.073,1.073,0,0,0-.539-.093h-.388a.812.812,0,0,0-.394.12.791.791,0,0,0-.317.236.748.748,0,0,0-.186.342.732.732,0,0,0-.054.395l.062.264a1,1,0,0,0,.308.42l.226.14a1.089,1.089,0,0,0,.539.093h.388a.812.812,0,0,0,.394-.12.777.777,0,0,0,.317-.237.745.745,0,0,0,.186-.341.733.733,0,0,0,.054-.395c-.02-.088-.04-.176-.061-.264" transform="translate(-121.827 -71.97)" fill="#958bf7"/>
  </g>
</svg>
