<svg xmlns="http://www.w3.org/2000/svg" xmlns:xlink="http://www.w3.org/1999/xlink" width="105" height="105" viewBox="0 0 105 105">
  <defs>
    <clipPath id="clip-path">
      <rect id="Rectángulo_46648" data-name="Rectángulo 46648" width="74.699" height="74.512" fill="#7f4fc7"/>
    </clipPath>
  </defs>
  <g id="Grupo_155180" data-name="Grupo 155180" transform="translate(-194.958 -4153)">
    <circle id="Elipse_5774" data-name="Elipse 5774" cx="52.5" cy="52.5" r="52.5" transform="translate(194.958 4153)" fill="#fff"/>
    <g id="Grupo_155201" data-name="Grupo 155201" transform="translate(210.108 4168.245)">
      <g id="Grupo_155198" data-name="Grupo 155198" clip-path="url(#clip-path)">
        <path id="Trazado_197196" data-name="Trazado 197196" d="M7.265,23.52c-1.394-1.383-2.751-2.736-4.118-4.079-.472-.463-.825-.949-.516-1.644a1.386,1.386,0,0,1,1.479-.759c4.744.009,9.489,0,14.233.007,1.167,0,1.591.425,1.591,1.6,0,4.745,0,9.491.007,14.236a1.385,1.385,0,0,1-.764,1.477c-.7.307-1.181-.051-1.644-.521-1.129-1.144-2.27-2.277-3.409-3.411-.179-.178-.371-.343-.747-.687-.951,1.958-1.986,3.755-2.727,5.665A28.625,28.625,0,0,0,24.067,71.027c1.346.7,1.492,1.16.809,2.532-.785,1.576-1.564,3.155-2.358,4.726-.493.978-1.081,1.2-2.019.7C9.358,73.056,2.56,63.9.518,51.438A36.112,36.112,0,0,1,6.995,23.951c.073-.1.136-.216.27-.431m-.537-3.951c.933.9,1.718,1.652,2.488,2.415,1.245,1.233,1.242,1.463.2,2.875A34.007,34.007,0,0,0,2.724,49.369,34.183,34.183,0,0,0,13.861,71.405a33.062,33.062,0,0,0,6.866,4.885l1.652-3.314c-.276-.166-.493-.3-.713-.43A31.145,31.145,0,0,1,11.648,28.154c1.346-1.975,1.728-2.012,3.41-.329l2.349,2.349V19.569Z" transform="translate(0 -8.343)" fill="#7f4fc7"/>
        <path id="Trazado_197197" data-name="Trazado 197197" d="M114.908,63.064c1.392,1.391,2.727,2.731,4.07,4.062.463.458.853.932.569,1.637-.3.733-.917.807-1.6.805-4.666-.01-9.332,0-14-.006-1.329,0-1.719-.386-1.719-1.7q0-7.04-.006-14.08c0-.666.1-1.249.788-1.539s1.179.085,1.638.551c1.291,1.308,2.591,2.607,3.967,3.989.224-.328.415-.587.584-.861A28.665,28.665,0,0,0,98,15.531c-1.219-.633-1.383-1.13-.774-2.361.8-1.624,1.605-3.25,2.421-4.867.488-.968,1.079-1.179,2.023-.673,11.539,6.18,18.379,15.725,20.126,28.709a36.235,36.235,0,0,1-6.564,26.21c-.1.146-.192.3-.33.515M99.789,13.619c.3.185.553.352.816.509a31.122,31.122,0,0,1,9.52,44.877c-.871,1.219-1.524,1.287-2.563.226-.894-.913-1.76-1.853-2.638-2.781l-.154.153V67.028H115.2l.115-.16c-.837-.8-1.683-1.583-2.508-2.392-1.061-1.041-1.068-1.373-.175-2.579a33.765,33.765,0,0,0,6.709-25.244c-1.481-11.357-7.3-19.955-17.079-25.886-.256-.155-.531-.276-.838-.434l-1.632,3.287" transform="translate(-47.445 -3.606)" fill="#7f4fc7"/>
        <path id="Trazado_197198" data-name="Trazado 197198" d="M43.943,52.838q0-7.893,0-15.786a5,5,0,0,1,5.387-5.378c5.105,0,10.211.008,15.316-.011a2.138,2.138,0,0,1,1.652.679q3.413,3.459,6.871,6.874a2.064,2.064,0,0,1,.647,1.587q-.02,13.959-.011,27.917a4.984,4.984,0,0,1-5.261,5.272q-9.64.008-19.281,0a4.991,4.991,0,0,1-5.32-5.29q-.007-7.932,0-15.864m19.91-18.676H63q-6.843,0-13.686,0a2.55,2.55,0,0,0-2.879,2.861q0,15.79,0,31.58c0,1.944.961,2.9,2.919,2.9q9.488,0,18.975,0c2.071,0,2.993-.918,2.993-2.982q0-12.99,0-25.98v-.911c-2.01,0-3.947,0-5.883,0-1.158,0-1.579-.432-1.582-1.6,0-1.916,0-3.832,0-5.862m2.522,4.909h2.833l-2.833-2.915Z" transform="translate(-21.518 -15.505)" fill="#7f4fc7"/>
        <path id="Trazado_197199" data-name="Trazado 197199" d="M60.018,6.935c.113,1.6-.188,1.936-1.347,2.149q-2.323.427-4.63.941c-1.028.228-1.54,0-1.843-.977q-.87-2.814-1.692-5.642a1.181,1.181,0,0,1,.895-1.67Q54.688,1,58,.4a1.191,1.191,0,0,1,1.418,1.186c.229,1.926.432,3.856.6,5.349M53.2,3.76l1.087,3.6,3.2-.666c-.141-1.263-.275-2.454-.415-3.711L53.2,3.76" transform="translate(-24.692 -0.184)" fill="#7f4fc7"/>
        <path id="Trazado_197200" data-name="Trazado 197200" d="M78.184,0c2.2.46,4.4.9,6.584,1.394a1.138,1.138,0,0,1,.927,1.53c-.533,2.022-1.11,4.033-1.712,6.036a1.207,1.207,0,0,1-1.551.811c-1.7-.312-3.4-.629-5.1-.939A1.218,1.218,0,0,1,76.18,7.443q.228-3.055.533-6.1C76.793.53,77.334.121,78.184,0m.9,2.718c-.116,1.343-.22,2.536-.324,3.737l3.208.575,1.01-3.588-3.895-.725" transform="translate(-37.302)" fill="#7f4fc7"/>
        <path id="Trazado_197201" data-name="Trazado 197201" d="M77.164,130.014c-.111-1.565.207-1.931,1.291-2.133q2.36-.437,4.706-.955c1.016-.224,1.526.011,1.831,1q.857,2.777,1.671,5.567c.264.9-.015,1.533-.9,1.734-2.19.493-4.394.928-6.6,1.33-.764.139-1.3-.368-1.4-1.209-.229-1.926-.432-3.856-.6-5.336m2.537.246.408,3.721,3.877-.79-1.091-3.58-3.194.649" transform="translate(-37.777 -62.117)" fill="#7f4fc7"/>
        <path id="Trazado_197202" data-name="Trazado 197202" d="M61.005,130.083c-.15,1.669-.308,3.5-.481,5.325-.089.941-.63,1.457-1.551,1.305-2.163-.357-4.318-.766-6.465-1.214a1.181,1.181,0,0,1-.971-1.637c.523-1.945,1.082-3.88,1.656-5.811a1.235,1.235,0,0,1,1.611-.938l5.1.939c.907.167,1.185.633,1.1,2.029m-2.533.341-3.217-.58-1.007,3.6,3.883.713c.118-1.3.226-2.472.341-3.73" transform="translate(-25.203 -62.227)" fill="#7f4fc7"/>
        <rect id="Rectángulo_46638" data-name="Rectángulo 46638" width="12.373" height="2.385" transform="translate(29.946 28.661)" fill="#7f4fc7"/>
        <rect id="Rectángulo_46639" data-name="Rectángulo 46639" width="12.345" height="2.396" transform="translate(27.438 38.613)" fill="#7f4fc7"/>
        <rect id="Rectángulo_46640" data-name="Rectángulo 46640" width="9.857" height="2.399" transform="translate(37.418 33.646)" fill="#7f4fc7"/>
        <rect id="Rectángulo_46641" data-name="Rectángulo 46641" width="9.857" height="2.397" transform="translate(27.439 43.591)" fill="#7f4fc7"/>
        <rect id="Rectángulo_46642" data-name="Rectángulo 46642" width="7.368" height="2.394" transform="translate(27.465 33.648)" fill="#7f4fc7"/>
        <rect id="Rectángulo_46643" data-name="Rectángulo 46643" width="4.88" height="2.395" transform="translate(27.438 21.187)" fill="#7f4fc7"/>
        <rect id="Rectángulo_46644" data-name="Rectángulo 46644" width="4.894" height="2.394" transform="translate(42.37 38.627)" fill="#7f4fc7"/>
        <rect id="Rectángulo_46645" data-name="Rectángulo 46645" width="4.747" height="2.416" transform="translate(40.038 43.595)" fill="#7f4fc7"/>
        <rect id="Rectángulo_46646" data-name="Rectángulo 46646" width="4.742" height="2.412" transform="translate(41.285 48.576)" fill="#7f4fc7"/>
        <rect id="Rectángulo_46647" data-name="Rectángulo 46647" width="2.42" height="2.365" transform="translate(44.876 28.68)" fill="#7f4fc7"/>
      </g>
    </g>
  </g>
</svg>
