<svg xmlns="http://www.w3.org/2000/svg" xmlns:xlink="http://www.w3.org/1999/xlink" width="105" height="105" viewBox="0 0 105 105">
  <defs>
    <clipPath id="clip-path">
      <rect id="Rectángulo_46650" data-name="Rectángulo 46650" width="57.896" height="67" fill="#7f4fc7"/>
    </clipPath>
  </defs>
  <g id="Grupo_155192" data-name="Grupo 155192" transform="translate(-194.652 -4153)">
    <circle id="Elipse_5774" data-name="Elipse 5774" cx="52.5" cy="52.5" r="52.5" transform="translate(194.652 4153)" fill="#fff"/>
    <g id="Grupo_155203" data-name="Grupo 155203" transform="translate(218.653 4172)">
      <g id="Grupo_155203-2" data-name="Grupo 155203" clip-path="url(#clip-path)">
        <path id="Trazado_197218" data-name="Trazado 197218" d="M.028,17.843a.9.9,0,0,0,.886.876.9.9,0,0,0,1.012-.732,2.8,2.8,0,0,0,.048-.713c0-4.905.01-9.811-.01-14.715,0-.48.1-.608.6-.608q16.514.025,33.026,0c.471,0,.62.085.614.593-.031,2.616-.019,5.232-.013,7.848A2.063,2.063,0,0,0,38.5,12.688c2.638,0,5.276.016,7.913-.013.5-.005.611.136.6.615-.035,1.372-.007,2.747-.016,4.12a1.014,1.014,0,0,0,.548,1.027c.706.35,1.4-.161,1.413-1.055.013-1.591-.028-3.183.016-4.774a2.793,2.793,0,0,0-.921-2.2Q43.261,5.673,38.519.888A3.2,3.2,0,0,0,37.2,0H1.342A2.18,2.18,0,0,0,0,2.278C.039,7.27.017,12.262.017,17.254a5.349,5.349,0,0,0,.011.588M38.149,3.526l7.2,7.2H40.3c-.589,0-1.177-.009-1.766,0-.265.006-.392-.058-.391-.359.01-2.3.006-4.6.006-6.849" transform="translate(0)" fill="#7f4fc7"/>
        <path id="Trazado_197219" data-name="Trazado 197219" d="M77.8,26.717q-.523-.267-1.053-.519a2.622,2.622,0,0,0-3.772,1.282Q63.364,46.989,53.758,66.5a2.131,2.131,0,0,0-.225,1.136c.045.587.057,1.176.083,1.764H53.6c.036.631.093,1.262.1,1.894a1.406,1.406,0,0,0,.762,1.4,1.463,1.463,0,0,0,1.588-.215Q57.519,71.439,59,70.425a2.656,2.656,0,0,0,.908-1.081c1.158-2.386,2.338-4.761,3.511-7.139.548-1.112,1.106-2.218,1.641-3.337a1,1,0,0,0-.488-1.464c-.523-.191-.982.037-1.3.68-.927,1.87-1.852,3.74-2.76,5.619-.166.343-.3.449-.67.23a10.575,10.575,0,0,0-1.578-.777c-.455-.177-.513-.346-.287-.8,1.874-3.753,3.717-7.522,5.568-11.286q3.614-7.344,7.218-14.691c.206-.424.373-.536.8-.269a10.722,10.722,0,0,0,1.521.744c.4.168.486.339.271.76-1.005,1.976-1.972,3.971-2.951,5.959q-2.55,5.177-5.1,10.356c-.343.7-.211,1.229.351,1.509s1.054.042,1.411-.65c.04-.077.078-.156.117-.233l5.992-12.17q2.938-5.967,5.873-11.936A2.624,2.624,0,0,0,77.8,26.717M55.608,70.4V67.952l2.057,1.011L55.608,70.4m3.505-4.647a2.069,2.069,0,0,1,.286.215c-.235.449-.426.86-.662,1.243-.081.133-.237-.018-.342-.068-.623-.3-1.229-.632-1.864-.9-.349-.15-.308-.306-.174-.586.486-1.022.477-1.027,1.479-.533.426.21.854.416,1.276.633M74.5,35.248c-.069.126-.2.034-.291-.01-.683-.333-1.358-.683-2.046-1.005-.215-.1-.211-.187-.134-.393.447-1.189.456-1.2,1.6-.635.39.192.775.394,1.167.582.136.065.266.121.312.261-.214.427-.4.82-.607,1.2m2.919-5.991a3.237,3.237,0,0,1-.141.38c-.348.721-.719,1.432-1.051,2.16-.154.337-.3.388-.633.2-.565-.316-1.154-.595-1.747-.857-.3-.132-.392-.246-.217-.57.4-.742.765-1.5,1.131-2.265a.72.72,0,0,1,1.117-.368c.366.186.738.364,1.1.55a.708.708,0,0,1,.437.766" transform="translate(-21.503 -10.384)" fill="#7f4fc7"/>
        <path id="Trazado_197220" data-name="Trazado 197220" d="M48.9,59.994a.9.9,0,0,0-.916-.7.881.881,0,0,0-.908.617,2.5,2.5,0,0,0-.067.774c0,5.888-.014,11.776.013,17.664,0,.622-.13.78-.768.778q-21.753-.031-43.5,0c-.61,0-.783-.11-.781-.759q.034-20.9.015-41.8a3.263,3.263,0,0,0-.052-.778.9.9,0,0,0-1.011-.741.908.908,0,0,0-.886.886c-.016.173-.009.348-.009.523q0,21.2,0,42.392c0,1.615.625,2.227,2.265,2.227h44.42c1.611,0,2.256-.643,2.256-2.253q0-9.06,0-18.121a2.726,2.726,0,0,0-.064-.71" transform="translate(-0.011 -14.078)" fill="#7f4fc7"/>
        <path id="Trazado_197221" data-name="Trazado 197221" d="M7.882,63.2A1.875,1.875,0,0,0,9.81,65.154q2.582.044,5.165,0a1.914,1.914,0,0,0,1.951-2.013q.02-2.517,0-5.034a1.838,1.838,0,0,0-1.815-1.99c-1.806-.057-3.617-.055-5.423,0a1.8,1.8,0,0,0-1.807,1.918c-.021.85,0,1.7,0,2.55,0,.872-.017,1.743,0,2.615m1.946-4.747c0-.31.1-.415.41-.412q2.186.02,4.372,0c.291,0,.366.108.364.382-.01,1.457-.017,2.915,0,4.372.006.383-.166.416-.47.409-.717-.016-1.436-.005-2.154-.005-.7,0-1.393-.017-2.088.008-.35.012-.443-.113-.439-.448q.022-2.153,0-4.307" transform="translate(-3.162 -22.527)" fill="#7f4fc7"/>
        <path id="Trazado_197222" data-name="Trazado 197222" d="M7.88,43.443a1.832,1.832,0,0,0,1.854,1.95q2.678.072,5.359-.006a1.852,1.852,0,0,0,1.833-1.977q.02-2.516,0-5.034A1.9,1.9,0,0,0,15,36.348q-2.614-.049-5.23,0a1.851,1.851,0,0,0-1.883,1.927c-.023.871,0,1.743-.005,2.615,0,.85-.017,1.7,0,2.549m1.947-4.749c0-.315.1-.409.41-.406,1.437.015,2.875.019,4.312,0,.362-.005.43.127.426.452q-.022,2.156,0,4.312c0,.311-.085.421-.4.412-.718-.02-1.437-.007-2.156-.007-.7,0-1.394-.013-2.09.006-.34.009-.509-.049-.5-.455.025-1.437.017-2.875,0-4.312" transform="translate(-3.162 -14.592)" fill="#7f4fc7"/>
        <path id="Trazado_197223" data-name="Trazado 197223" d="M7.886,83.013A1.861,1.861,0,0,0,9.808,84.9q2.583.024,5.165,0a1.894,1.894,0,0,0,1.952-1.937q.031-2.583,0-5.166a1.867,1.867,0,0,0-1.938-1.937q-2.582-.027-5.165,0a1.843,1.843,0,0,0-1.941,1.925c-.021.85,0,1.7,0,2.55h0c0,.894-.022,1.788.005,2.681m1.941-4.77c0-.334.077-.458.431-.445.717.027,1.437.008,2.156.008s1.438.014,2.156-.007c.309-.009.41.078.407.4-.017,1.459-.014,2.918,0,4.378,0,.279-.069.376-.362.373q-2.189-.022-4.378,0c-.3,0-.413-.068-.409-.393q.025-2.156,0-4.312" transform="translate(-3.162 -30.468)" fill="#7f4fc7"/>
        <path id="Trazado_197224" data-name="Trazado 197224" d="M16.919,18.505a1.86,1.86,0,0,0-1.872-1.877q-2.647-.043-5.3,0a1.828,1.828,0,0,0-1.866,1.868q-.041,2.647,0,5.3a1.836,1.836,0,0,0,1.923,1.876c.85.016,1.7,0,2.55,0h2.55c.044,0,.087,0,.13,0a1.875,1.875,0,0,0,1.88-1.867q.042-2.647,0-5.3m-2.346,5.208c-.717-.022-1.436-.007-2.154-.007-.74,0-1.48-.011-2.22.005-.28.006-.376-.075-.374-.366q.02-2.187,0-4.374c0-.316.091-.4.4-.4,1.458.015,2.916.013,4.374,0,.277,0,.376.067.373.361q-.022,2.187,0,4.374c0,.312-.085.413-.4.4" transform="translate(-3.16 -6.671)" fill="#7f4fc7"/>
        <path id="Trazado_197225" data-name="Trazado 197225" d="M48.347,47.037a.882.882,0,0,0-.651-1,2.376,2.376,0,0,0-.707-.072q-10.1-.005-20.191,0a2.753,2.753,0,0,0-.585.031.962.962,0,0,0-.753,1.182,1.036,1.036,0,0,0,1.15.748c3.442-.011,6.883-.005,10.325-.005h10a3.618,3.618,0,0,0,.587-.013.9.9,0,0,0,.826-.866" transform="translate(-10.214 -18.463)" fill="#7f4fc7"/>
        <path id="Trazado_197226" data-name="Trazado 197226" d="M26.943,38.642a4.841,4.841,0,0,0-.653.022.893.893,0,0,0-.839.923.88.88,0,0,0,.725.952,3.077,3.077,0,0,0,.713.063q10.009,0,20.019,0a2.754,2.754,0,0,0,.838-.093.957.957,0,0,0-.131-1.83,3.711,3.711,0,0,0-.717-.035q-4.972,0-9.944,0-5,0-10.01,0" transform="translate(-10.224 -15.523)" fill="#7f4fc7"/>
        <path id="Trazado_197227" data-name="Trazado 197227" d="M46.411,67.644a.938.938,0,0,0,1.026-1.07c-.056-.611-.469-.884-1.363-.884q-9.616,0-19.231,0a2.428,2.428,0,0,0-.772.09.879.879,0,0,0-.622.964.891.891,0,0,0,.754.866,3.664,3.664,0,0,0,.717.039q4.742,0,9.485,0h6.672c1.112,0,2.224.014,3.336-.008" transform="translate(-10.221 -26.389)" fill="#7f4fc7"/>
        <path id="Trazado_197228" data-name="Trazado 197228" d="M26.544,60.331c.109,0,.218,0,.327,0q8.9,0,17.794,0a2.105,2.105,0,0,0,.776-.068.958.958,0,0,0,.573-1.323,1.09,1.09,0,0,0-1.144-.574q-4.546.012-9.093,0H31.851c-1.766,0-3.532-.005-5.3,0a.992.992,0,0,0-1.116.934c-.022.593.41.993,1.107,1.024" transform="translate(-10.218 -23.446)" fill="#7f4fc7"/>
        <path id="Trazado_197229" data-name="Trazado 197229" d="M42.957,80.043a.949.949,0,0,0,.914-.936.965.965,0,0,0-.908-1.009,5.207,5.207,0,0,0-.588-.008H27.008a6.256,6.256,0,0,0-.653.008.961.961,0,0,0-.912,1,.945.945,0,0,0,.906.942,4.107,4.107,0,0,0,.522.01H42.434a4.351,4.351,0,0,0,.523-.009" transform="translate(-10.22 -31.368)" fill="#7f4fc7"/>
        <path id="Trazado_197230" data-name="Trazado 197230" d="M26.677,28.2q7.555,0,15.108,0c.809,0,1.282-.372,1.282-.987s-.467-.974-1.283-.975q-3.761,0-7.522,0-3.793,0-7.587,0c-.778,0-1.22.344-1.24.943-.021.625.445,1.017,1.241,1.018" transform="translate(-10.218 -10.54)" fill="#7f4fc7"/>
        <path id="Trazado_197231" data-name="Trazado 197231" d="M26.224,20.807a3.691,3.691,0,0,0,.652.026q3.661,0,7.323,0h3.857c1.329,0,2.659.01,3.988-.007a.969.969,0,0,0,1.024-.959,1.012,1.012,0,0,0-.954-.98,2.238,2.238,0,0,0-.261-.006q-7.616,0-15.233,0a1.563,1.563,0,0,0-.575.092.958.958,0,0,0,.18,1.83" transform="translate(-10.22 -7.585)" fill="#7f4fc7"/>
        <path id="Trazado_197232" data-name="Trazado 197232" d="M40.1,85.486a3.856,3.856,0,0,0-.716-.037q-3.105,0-6.21,0-2.614,0-5.229,0c-.544,0-1.091-.013-1.633.025a.876.876,0,0,0-.862.9.9.9,0,0,0,.761.99,2.633,2.633,0,0,0,.583.048q6.373,0,12.746,0a2.087,2.087,0,0,0,.705-.092.955.955,0,0,0-.146-1.829" transform="translate(-10.223 -34.325)" fill="#7f4fc7"/>
      </g>
    </g>
  </g>
</svg>
