<svg xmlns="http://www.w3.org/2000/svg" xmlns:xlink="http://www.w3.org/1999/xlink" width="70" height="70" viewBox="0 0 70 70">
  <defs>
    <clipPath id="clip-path">
      <rect id="Rectángulo_46478" data-name="Rectángulo 46478" width="48.677" height="51.012" fill="#7f4fc7"/>
    </clipPath>
  </defs>
  <g id="Grupo_154934" data-name="Grupo 154934" transform="translate(-248 -6498)">
    <circle id="Elipse_5734" data-name="Elipse 5734" cx="35" cy="35" r="35" transform="translate(248 6498)" fill="#fff"/>
    <g id="Grupo_154927" data-name="Grupo 154927" transform="translate(259 6507)">
      <g id="Grupo_154926" data-name="Grupo 154926" transform="translate(0 0)" clip-path="url(#clip-path)">
        <path id="Trazado_196926" data-name="Trazado 196926" d="M38.516,0a2.457,2.457,0,0,1,1.231,1.162c.852,1.5,1.741,2.978,2.609,4.469a1.643,1.643,0,0,1-.471,2.432c-.273.216-.543.439-.831.634a1.554,1.554,0,0,1-2.012-.148q-2.12-2.034-4.211-4.1a1.525,1.525,0,0,1,.08-2.331C35.822,1.382,36.781.7,37.719,0ZM41.2,6.616,38.171,1.45,35.705,3.38a3.5,3.5,0,0,1,.475.316q1.557,1.5,3.1,3.012c.918.894.917.894,1.87.007a.583.583,0,0,0,.05-.1" transform="translate(-20.456 0)" fill="#7f4fc7"/>
        <path id="Trazado_196927" data-name="Trazado 196927" d="M3.595,61.172c.879-.242,1.68-.447,2.471-.685a5.01,5.01,0,0,1,4.62.807,4.748,4.748,0,0,0,4.334.767c2.245-.643,4.5-1.257,6.813-1.9-.129-.466-.25-.906-.373-1.345q-1-3.568-1.992-7.137a2.166,2.166,0,0,0-2.934-1.641c-.847.234-1.69.482-2.54.7-.627.163-1.153-.193-1.035-.736a1.023,1.023,0,0,1,.559-.654,29.521,29.521,0,0,1,3.061-.862,3.591,3.591,0,0,1,4.273,2.6c.655,2.261,1.27,4.533,1.9,6.8.048.173.108.343.16.508q4.108-.175,4.931,3.034c.531,2.053-.419,3.812-2.7,4.961a10.371,10.371,0,0,1-1.483,9.044,10.094,10.094,0,0,1-6.275,4.171A10.466,10.466,0,0,1,5.05,71.981a4.161,4.161,0,0,1-3.759-1.033A3.884,3.884,0,0,1,.05,68.62,4.155,4.155,0,0,1,2.816,64.03c-.021-.114-.036-.24-.069-.361q-.683-2.468-1.37-4.935a3.663,3.663,0,0,1,2.738-4.86c.684-.183,1.394-.267,2.133-.4.065-.239.125-.546.232-.836a2.845,2.845,0,0,1,1.659-1.756,17.992,17.992,0,0,1,2.144-.629.711.711,0,0,1,.886.524.734.734,0,0,1-.522.892c-.535.175-1.084.308-1.623.473a1.621,1.621,0,0,0-1.236,1.844c.089.977-.159,1.213-1.153,1.1a5.427,5.427,0,0,0-2.678.418A2.02,2.02,0,0,0,2.7,57.749c.242,1.13.582,2.24.9,3.423M4,62.582c.9,3.212,1.724,6.319,2.63,9.4a8.917,8.917,0,0,0,10.052,6.248,8.821,8.821,0,0,0,7.345-9.346,26.526,26.526,0,0,0-.934-4.211c-.253-1.024-.566-2.034-.858-3.075-2.222.618-4.4,1.186-6.558,1.834a6.357,6.357,0,0,1-5.937-.98,3.077,3.077,0,0,0-2.33-.691c-1.136.19-2.248.531-3.409.817m20.709,2.3a2.55,2.55,0,0,0,1.645-3.238,2.5,2.5,0,0,0-3.023-1.7l1.378,4.935M4.646,70.462,3.268,65.528a2.564,2.564,0,0,0,1.378,4.934" transform="translate(0 -28.842)" fill="#7f4fc7"/>
        <path id="Trazado_196928" data-name="Trazado 196928" d="M75.2,27.61a10.27,10.27,0,0,1-3.881,5.679c-.624.458-1.036.478-1.35.072-.327-.422-.182-.8.481-1.288a8.1,8.1,0,0,0,3.062-4.132c.686-2.2,1.345-4.412,1.851-6.656a15.278,15.278,0,0,0,.075-3.209,1.3,1.3,0,0,0-.113-.353A10.034,10.034,0,0,1,67.077,18.9a10.16,10.16,0,0,1-6.4-5.369,8.482,8.482,0,0,0-1.9,2.979c-.053.139-.1.283-.159.418a.738.738,0,0,1-1.4-.478c.051-.223.138-.438.209-.654a2.375,2.375,0,0,0-2.9,1.444,2.479,2.479,0,0,0,1.5,3.294c.074-.251.143-.5.224-.75a.755.755,0,1,1,1.438.418c-.293,1.122-.67,2.228-.889,3.363a8.647,8.647,0,0,0,8.828,10.149,14.552,14.552,0,0,0,1.578-.193c.531-.084.905.107,1.01.55s-.159.789-.685.913a10.172,10.172,0,0,1-12.313-8.955,11.841,11.841,0,0,1,.009-1.985c.057-.658.211-1.306.335-2.025a4.1,4.1,0,0,1-2.6-2.9,3.865,3.865,0,0,1,.268-2.622,4.044,4.044,0,0,1,4.814-2.177A24.42,24.42,0,0,1,60.162,12,9.731,9.731,0,0,1,70.477,10.1,9.8,9.8,0,0,1,76.954,18.2c.078.472-.068,1.047.156,1.41.2.331.788.408,1.173.648a4.018,4.018,0,0,1-2.7,7.383c-.113-.016-.228-.018-.383-.03M74.83,16.2C72.7,10.8,65.746,9.448,61.912,12.56A8.619,8.619,0,0,0,74.83,16.2M76.966,21.3l-1.332,4.792a2.433,2.433,0,0,0,2.916-1.659A2.487,2.487,0,0,0,76.966,21.3" transform="translate(-31.489 -5.592)" fill="#7f4fc7"/>
        <path id="Trazado_196929" data-name="Trazado 196929" d="M82.118,80.739c-1.7-.107-3.419-.2-5.141-.33-1.231-.09-1.734-.638-1.79-1.878-.008-.183-.017-.365-.034-.547a1.657,1.657,0,0,1,1.491-2.023c1.819-.371,3.636-.757,5.457-1.116a1.579,1.579,0,0,1,1.952,1.52c.052.728.038,1.467.161,2.184a1.737,1.737,0,0,1-2.1,2.192m.422-4.44c-.218.03-.38.043-.539.076q-2.26.471-4.518.948c-.849.18-.822.182-.816,1.038,0,.436.158.56.575.58,1.506.076,3.01.191,4.515.283.323.019.648,0,1,0-.074-1-.144-1.95-.217-2.93" transform="translate(-44.774 -44.575)" fill="#7f4fc7"/>
        <path id="Trazado_196930" data-name="Trazado 196930" d="M26.317,19.083a5.349,5.349,0,0,1-.665-.217q-2.516-1.121-5.025-2.262a1.6,1.6,0,0,1-.766-2.523c.434-.705.87-1.409,1.315-2.108a1.587,1.587,0,0,1,2.543-.4q2.133,1.751,4.248,3.523a1.616,1.616,0,0,1,.387,2.367c-.19.311-.378.624-.585.923a1.664,1.664,0,0,1-1.452.7m-5.345-3.956L26.5,17.61l.737-1.187-4.662-3.862-1.6,2.566" transform="translate(-11.634 -6.617)" fill="#7f4fc7"/>
        <path id="Trazado_196931" data-name="Trazado 196931" d="M85.954,95.02c-.013.064-.033.229-.077.386-.24.861-.475,1.723-.734,2.578a1.564,1.564,0,0,1-2.19,1.072q-2.7-1.148-5.364-2.354a1.529,1.529,0,0,1-.9-1.8,9.916,9.916,0,0,1,.4-1.382,1.546,1.546,0,0,1,1.69-1.025q2.927.413,5.847.866a1.573,1.573,0,0,1,1.328,1.661m-2.3,2.719.825-2.867c-.18-.044-.305-.084-.433-.1q-2.312-.344-4.624-.682c-.936-.139-.923-.137-1.2.8-.094.32-.034.463.284.6,1.3.547,2.581,1.125,3.87,1.692l1.277.562" transform="translate(-45.673 -55.104)" fill="#7f4fc7"/>
        <path id="Trazado_196932" data-name="Trazado 196932" d="M27.118,33.886a15.569,15.569,0,0,1-.371,1.53,1.521,1.521,0,0,1-1.569.993c-1.934-.135-3.867-.276-5.8-.443a1.563,1.563,0,0,1-1.463-2.024c.174-.843.347-1.686.531-2.527a1.58,1.58,0,0,1,2.177-1.241c1.781.619,3.557,1.256,5.33,1.9a1.664,1.664,0,0,1,1.163,1.814m-7.783.552c.2.033.357.072.517.084,1.539.114,3.077.229,4.617.329.9.059.883.042,1.106-.86.092-.371-.036-.493-.354-.6-1.611-.562-3.216-1.143-4.824-1.714-.133-.047-.273-.074-.45-.122-.207.978-.4,1.911-.611,2.886" transform="translate(-10.647 -17.913)" fill="#7f4fc7"/>
        <path id="Trazado_196933" data-name="Trazado 196933" d="M76.583,108.805a5.329,5.329,0,0,1-.407.936c-.5.742-1.036,1.462-1.574,2.177a1.57,1.57,0,0,1-2.465.218q-2.084-1.963-4.136-3.959a1.569,1.569,0,0,1-.188-2.2c.226-.327.455-.654.706-.963a1.524,1.524,0,0,1,1.924-.452c1.778.927,3.541,1.885,5.3,2.849a1.7,1.7,0,0,1,.842,1.394m-7.617-1.763,4.332,4.137c.613-.844,1.175-1.617,1.759-2.423-.189-.116-.323-.207-.465-.283q-1.925-1.039-3.852-2.074c-1.094-.588-1.094-.588-1.737.5a.746.746,0,0,0-.037.145" transform="translate(-40.192 -62.202)" fill="#7f4fc7"/>
        <path id="Trazado_196934" data-name="Trazado 196934" d="M75.13,51.881a4.115,4.115,0,0,1-4.008-5.054c.152-.623.483-.832,1.092-.661q3.112.872,6.22,1.76c.611.175.783.534.585,1.14a4.119,4.119,0,0,1-3.889,2.814m-2.58-4.07a2.564,2.564,0,0,0,2,2.513,2.5,2.5,0,0,0,2.706-1.178l-4.7-1.335" transform="translate(-42.31 -27.475)" fill="#7f4fc7"/>
        <path id="Trazado_196935" data-name="Trazado 196935" d="M70.081,36.243c.067-.481-.052-.752-.412-.856a.579.579,0,0,0-.718.374c-.282.538-.647.694-1.068.473-.392-.207-.494-.615-.277-1.119a2.083,2.083,0,0,1,3.954,1.238c-.115.508-.419.748-.865.683a.685.685,0,0,1-.614-.793" transform="translate(-40.218 -20.176)" fill="#7f4fc7"/>
        <path id="Trazado_196936" data-name="Trazado 196936" d="M91.194,42.112c.044-.351-.044-.639-.424-.729-.364-.086-.58.1-.735.428a.746.746,0,0,1-1.014.439.779.779,0,0,1-.339-1.06,2.088,2.088,0,0,1,3.982,1.22.774.774,0,0,1-.818.643c-.445-.053-.674-.384-.653-.941" transform="translate(-52.798 -23.749)" fill="#7f4fc7"/>
        <path id="Trazado_196937" data-name="Trazado 196937" d="M35.266,103.813a4.183,4.183,0,0,1-4.022-2.917.748.748,0,0,1,.586-1.09q3.2-.906,6.414-1.792c.605-.167.942.053,1.084.671a4.187,4.187,0,0,1-4.062,5.128M37.9,99.655l-4.917,1.372A2.646,2.646,0,0,0,37.9,99.655" transform="translate(-18.577 -58.372)" fill="#7f4fc7"/>
        <path id="Trazado_196938" data-name="Trazado 196938" d="M45.493,88.73a.686.686,0,0,1-.587.792.739.739,0,0,1-.886-.656,2.12,2.12,0,0,1,4.084-1.11.763.763,0,0,1-.411,1,.725.725,0,0,1-.968-.444c-.17-.35-.4-.594-.811-.466-.374.117-.489.415-.421.888" transform="translate(-26.198 -51.434)" fill="#7f4fc7"/>
        <path id="Trazado_196939" data-name="Trazado 196939" d="M24.46,92.359a2.115,2.115,0,0,1,1.958,1.362.772.772,0,0,1-.35,1.059.734.734,0,0,1-1-.446c-.173-.368-.427-.565-.825-.436-.377.121-.458.419-.4.8a.734.734,0,0,1-.6.882.748.748,0,0,1-.861-.634,2.107,2.107,0,0,1,2.086-2.582" transform="translate(-13.295 -55.034)" fill="#7f4fc7"/>
      </g>
    </g>
  </g>
</svg>
