<svg xmlns="http://www.w3.org/2000/svg" xmlns:xlink="http://www.w3.org/1999/xlink" width="105" height="105" viewBox="0 0 105 105">
  <defs>
    <clipPath id="clip-path">
      <rect id="Rectángulo_46520" data-name="Rectángulo 46520" width="63.828" height="63.836" fill="#7f4fc7"/>
    </clipPath>
  </defs>
  <g id="Grupo_155189" data-name="Grupo 155189" transform="translate(-194.958 -4153)">
    <circle id="Elipse_5774" data-name="Elipse 5774" cx="52.5" cy="52.5" r="52.5" transform="translate(194.958 4153)" fill="#fff"/>
    <g id="Grupo_155037" data-name="Grupo 155037" transform="translate(214.84 4173.582)">
      <g id="Grupo_155036" data-name="Grupo 155036" clip-path="url(#clip-path)">
        <path id="Trazado_197098" data-name="Trazado 197098" d="M62.165,59.171c-1.1.032-2.2-.017-3.3.02-.455.015-.545-.131-.531-.553.031-.913.035-1.829-.006-2.741a6.939,6.939,0,0,0-1.976-4.641,1.206,1.206,0,0,1-.369-.926c.012-4.279,0-8.557.011-12.837a11.079,11.079,0,0,0-1-4.83,11.344,11.344,0,0,0-12.3-6.423A11.113,11.113,0,0,0,33.3,36.9c-.077,4.485-.026,8.973-.019,13.459a1.13,1.13,0,0,1-.346.873,6.9,6.9,0,0,0-1.909,3.829,24.481,24.481,0,0,0-.1,3.607c0,.383-.065.55-.5.522-.641-.041-1.288-.022-1.93-.007a1.257,1.257,0,0,0-1.348,1.042c.017,1,.447,1.44,1.44,1.446,1.7.009,3.4.016,5.1-.008.394-.005.478.111.475.486-.017,2.364-.01,4.728-.008,7.092,0,1.226.426,1.655,1.639,1.657s2.405,0,3.608,0c1.03,0,1.372-.268,1.624-1.249.04-.019.08-.031.12-.047a1.5,1.5,0,0,0-1.6-1.384c-.684-.026-1.371-.018-2.056-.005-.478.008-.661-.193-.657-.669.013-1.662.016-3.323,0-4.985-.005-.51.19-.7.695-.7q7.1.012,14.205,0c.462,0,.68.16.676.65-.012,1.682-.015,3.365,0,5.047,0,.494-.209.655-.673.651-.789-.008-1.58-.039-2.367.017a1.52,1.52,0,0,0-1.534,1.361c.045.019.09.034.135.058.244.958.6,1.244,1.567,1.248q1.994.008,3.989,0c1.106,0,1.562-.452,1.564-1.549,0-2.369.015-4.738-.01-7.106,0-.459.1-.592.573-.583,1.724.032,3.449.027,5.173,0,.417-.006.509.121.507.519q-.023,5.61,0,11.221c0,.434-.147.5-.529.5q-14.928-.014-29.857,0c-.425,0-.56-.087-.554-.537a32.022,32.022,0,0,0-.061-4.358c-.485-3.862-3.111-6.409-7.1-7.081-.859-.145-1.715-.308-2.568-.483a1.329,1.329,0,0,1-1.151-1c-.244-.366-.019-.543.267-.734a8.309,8.309,0,0,0,3.88-7.052c.045-1.681.036-3.364,0-5.045a8.458,8.458,0,0,0-16.833-.986,43.782,43.782,0,0,0-.106,5.536,8.411,8.411,0,0,0,3.942,7.582.539.539,0,0,1,.212.779,1.717,1.717,0,0,1-1.468,1c-.957.177-1.917.344-2.874.524A7.973,7.973,0,0,0,.107,68.758.693.693,0,0,1,0,69.4v5.985a1.741,1.741,0,0,0,1,1H62.83a1.739,1.739,0,0,0,1-1V60.177a1.514,1.514,0,0,0-1.663-1.006M36.032,35.065a8.892,8.892,0,0,1,8.761-6.514,8.76,8.76,0,0,1,8.58,7.324,41.277,41.277,0,0,1,.119,5.224c.015.54,0,1.08,0,1.62,0,2.035-.011,4.071.008,6.105,0,.453-.072.55-.551.429-1.063-.268-2.149-.448-3.228-.655a1.7,1.7,0,0,1-.691-.256c-.566-.4-.56-.766-.01-1.161a7.537,7.537,0,0,0,3.309-5.988c.073-1.429.022-2.865.025-4.3a1.286,1.286,0,0,0-.683-1.176c-1.394-.82-2.781-1.653-4.184-2.456a1.206,1.206,0,0,0-1.686.256,6.3,6.3,0,0,1-5.186,2.08c-.809-.028-1.62-.019-2.429,0a1.151,1.151,0,0,0-1.257,1.121,26.465,26.465,0,0,0,.2,5.9,7.563,7.563,0,0,0,3.007,4.5c.2.153.609.181.526.582a1.009,1.009,0,0,1-.788.8c-.725.173-1.461.3-2.193.441a8.672,8.672,0,0,0-1.334.287c-.555.206-.6-.021-.595-.489.015-3.094,0-6.189.012-9.283a17.544,17.544,0,0,1,.263-4.4m7.482,10.888a5.234,5.234,0,0,1-4.11-4.924c-.028-.809.021-1.621-.023-2.428-.026-.473.166-.532.569-.521a11.2,11.2,0,0,0,3.939-.412,7.938,7.938,0,0,0,2.753-1.528.519.519,0,0,1,.745-.061c.7.445,1.419.857,2.142,1.262a.561.561,0,0,1,.343.58c-.024.56-.007,1.121-.007,1.947a6.488,6.488,0,0,1-.619,3.43,5.265,5.265,0,0,1-5.732,2.657M46.425,50.9c-.552.671-1.043,1.393-1.546,2.1-.18.254-.3.278-.493.009-.662-.927-1.34-1.843-2.013-2.763-.084-.115-.221-.232-.106-.381a5.95,5.95,0,0,0,.783-1.332c.065-.154.26-.068.4-.07a6.237,6.237,0,0,0,2.348,0c.258-.049.439.005.521.283a.963.963,0,0,0,.2.447c.718.622.372,1.132-.1,1.7m8.919,8.288c-3.571-.016-7.141-.009-10.712-.009-3.55,0-7.1-.009-10.649.011-.454,0-.614-.09-.585-.572.046-.745.006-1.495.013-2.242a4.72,4.72,0,0,1,3.867-4.809c.707-.158,1.434-.235,2.135-.416a.616.616,0,0,1,.761.312c1.068,1.481,2.152,2.95,3.235,4.42.8,1.083,1.641,1.085,2.438,0q1.624-2.205,3.232-4.421a.617.617,0,0,1,.761-.314c.822.21,1.674.3,2.493.518a4.629,4.629,0,0,1,3.5,4.39c.036.871-.011,1.745.022,2.616.016.41-.109.515-.514.513M9.261,52.9a41.492,41.492,0,0,1,.069-5.973,5.963,5.963,0,0,1,11.86.931c.017.789,0,1.578,0,2.573a14.263,14.263,0,0,1-.358,4.175,6,6,0,0,1-9.317,2.69,5.8,5.8,0,0,1-2.256-4.4m7.6,8.771c-.558.154-1.115.313-1.651.464-.624-.176-1.223-.341-1.819-.515-.241-.07-.15-.23-.108-.4.063-.25.188-.344.442-.283a7.412,7.412,0,0,0,2.106.109,4.945,4.945,0,0,0,.861-.113c.311-.072.387.1.473.337.114.316-.1.343-.3.4M27.333,73.9c-4.049-.023-8.1-.012-12.147-.012-4.029,0-8.057-.008-12.085.01-.469,0-.634-.091-.622-.6.034-1.4.008-1.4,1.426-1.4q3.427,0,6.852,0c.854,0,1.373-.382,1.466-1.044.121-.865-.436-1.441-1.434-1.445-2.118-.009-4.236,0-6.354,0H3.313c-.879,0-.9-.006-.642-.882a5.48,5.48,0,0,1,4.494-4.06,33.338,33.338,0,0,0,3.892-.806,1,1,0,0,1,.607.068c1,.281,2,.557,2.988.852a1.9,1.9,0,0,0,1.1.006,12.459,12.459,0,0,1,3.471-.879,24.845,24.845,0,0,1,3.464.655,6.437,6.437,0,0,1,3.479,1.516,5.5,5.5,0,0,1,1.759,4.113c.01,1.1-.022,2.2.013,3.3.015.476-.1.622-.6.619" transform="translate(0 -12.549)" fill="#7f4fc7"/>
        <path id="Trazado_197099" data-name="Trazado 197099" d="M4.723,23.42c.35.033.26.25.261.435q.008,1.776,0,3.553a1.544,1.544,0,0,0,.237.947c.495.7,1.362.7,2.086-.018q2.278-2.262,4.533-4.546a1.1,1.1,0,0,1,.868-.359q3.8.022,7.6,0a4.941,4.941,0,0,0,5.119-5.1c.009-.831.012-1.662,0-2.493-.006-.286.057-.421.372-.39a3.731,3.731,0,0,0,.809,0,1.423,1.423,0,0,1,1.3.524c.956,1.011,1.964,1.973,2.942,2.963a1.332,1.332,0,0,0,1.565.426,1.3,1.3,0,0,0,.754-1.376c-.013-.644.029-1.291-.013-1.932-.031-.466.112-.6.584-.661a4.729,4.729,0,0,0,4.361-4.51c.129-2.09.063-4.2.016-6.292a4.579,4.579,0,0,0-1.342-3.067A5.485,5.485,0,0,0,33.784,0h-16.7a4.583,4.583,0,0,0-4,2.715,6.188,6.188,0,0,0-.54,3.033c.006.767-.039.806-.81.807-2.18,0-4.36-.005-6.54,0a5.23,5.23,0,0,0-2.527.562A4.584,4.584,0,0,0,0,11.1v7.98A4.965,4.965,0,0,0,4.723,23.42M15.2,6.225c.034-.413,0-.831.01-1.247A2.424,2.424,0,0,1,17.7,2.5c1.89-.02,3.781-.006,5.672-.006q4.769,0,9.537,0a2.474,2.474,0,0,1,2.742,2.732q.006,2.493,0,4.987a2.477,2.477,0,0,1-2.723,2.753h-.187c-1.783,0-2.011.218-2.078,1.975a1.677,1.677,0,0,1-.059.242c-.549-.551-1.069-1.048-1.558-1.573a1.877,1.877,0,0,0-1.545-.65c-.642.029-1.422.224-1.894-.062s-.125-1.134-.209-1.732a4.942,4.942,0,0,0-5.017-4.429q-2.337-.03-4.675.007c-.416.007-.539-.117-.506-.518M2.509,11.581A2.4,2.4,0,0,1,5.116,9.228q7.258-.009,14.517,0c.311,0,.623-.009.934.006a2.391,2.391,0,0,1,2.357,2.351q.051,3.489,0,6.979a2.39,2.39,0,0,1-2.516,2.379c-2.72.013-5.442.024-8.162-.008a2.348,2.348,0,0,0-1.868.789c-.907.96-1.859,1.877-2.9,2.92,0-.881.013-1.586,0-2.292a1.285,1.285,0,0,0-1.4-1.4c-.415-.012-.831.01-1.246-.01a2.378,2.378,0,0,1-2.323-2.316q-.058-3.519,0-7.041" transform="translate(0 0)" fill="#7f4fc7"/>
        <path id="Trazado_197100" data-name="Trazado 197100" d="M84.265,56.964a.663.663,0,0,1-.787,0,1.171,1.171,0,0,0-1.639.3,1.239,1.239,0,0,0,.2,1.675,2.612,2.612,0,0,0,1.783.714,2.71,2.71,0,0,0,1.88-.711,1.225,1.225,0,0,0,.2-1.673,1.161,1.161,0,0,0-1.636-.306" transform="translate(-39.253 -27.302)" fill="#7f4fc7"/>
        <path id="Trazado_197101" data-name="Trazado 197101" d="M80.66,52.556a1.232,1.232,0,0,0-1.176-1.263,1.261,1.261,0,0,0-1.28,1.231,1.235,1.235,0,0,0,1.217,1.224,1.21,1.21,0,0,0,1.239-1.193" transform="translate(-37.62 -24.674)" fill="#7f4fc7"/>
        <path id="Trazado_197102" data-name="Trazado 197102" d="M91.518,52.513a1.27,1.27,0,0,0-1.225-1.23,1.241,1.241,0,0,0-1.229,1.276,1.207,1.207,0,0,0,1.245,1.185,1.231,1.231,0,0,0,1.209-1.231" transform="translate(-42.844 -24.67)" fill="#7f4fc7"/>
      </g>
    </g>
  </g>
</svg>
