<svg xmlns="http://www.w3.org/2000/svg" xmlns:xlink="http://www.w3.org/1999/xlink" width="70" height="70" viewBox="0 0 70 70">
  <defs>
    <clipPath id="clip-path">
      <rect id="Rectángulo_46465" data-name="Rectángulo 46465" width="38.267" height="38.274" fill="#7f4fc7" stroke="#7f4fc7" stroke-width="0.5"/>
    </clipPath>
  </defs>
  <g id="Grupo_155250" data-name="Grupo 155250" transform="translate(-615 -5993)">
    <circle id="Elipse_5731" data-name="Elipse 5731" cx="35" cy="35" r="35" transform="translate(615 5993)" fill="#fff"/>
    <g id="Grupo_154921" data-name="Grupo 154921" transform="translate(631 6009)">
      <g id="Grupo_154920" data-name="Grupo 154920" clip-path="url(#clip-path)">
        <path id="Trazado_196904" data-name="Trazado 196904" d="M3.749,38.274c-.2-.18-.388-.366-.264-.668s.381-.312.655-.311q2.728.006,5.456,0h.466a4.539,4.539,0,0,1-.319-2.444,18.5,18.5,0,0,1,.191-4.021,9.268,9.268,0,0,1,5.755-6.853c.257-.108.391-.221.35-.508a3.228,3.228,0,0,1,0-.448c0-.649,0-.649-.636-1.052.044.264.067.489.121.706a.525.525,0,0,1-.216.651.516.516,0,0,1-.646-.1,10.913,10.913,0,0,1-2.206-2.37l-.225-.327a3.1,3.1,0,0,1-3.764,1.546c-1.422-.423-1.993-1.41-2.186-3.61-.121.05-.231.09-.336.141A8.223,8.223,0,0,0,1,26.063C.939,27.318.987,28.578.99,29.836a1.149,1.149,0,0,0,1.229,1.246c1.084.011,2.167,0,3.251,0,.432,0,.661.171.661.483s-.244.494-.66.5c-1.084,0-2.167.008-3.251,0A2.107,2.107,0,0,1,.015,29.85c.007-1.531-.012-3.065.07-4.592a8.2,8.2,0,0,1,1.389-4.012,1.36,1.36,0,0,0,.2-.76c.031-1.144.1-2.288.169-3.43.074-1.193.175-2.384.244-3.577a.707.707,0,0,0-.17-.452,2.167,2.167,0,0,1,.158-3.059.783.783,0,0,0,.219-.5c.024-1.108,0-2.218.029-3.325A6.406,6.406,0,0,1,6.829.4,1.8,1.8,0,0,1,8.272.565a.485.485,0,0,0,.541.023A2.5,2.5,0,0,1,10.7.4a7.494,7.494,0,0,1,4.42,3.166.721.721,0,0,1,.152.473c-.033.151-.2.362-.33.38a.72.72,0,0,1-.538-.2c-.274-.285-.474-.64-.74-.934a6.451,6.451,0,0,0-3.251-1.945,1.636,1.636,0,0,0-1.474.318c-.4.3-.531.3-.891-.057a.953.953,0,0,0-1.03-.235A5.389,5.389,0,0,0,3.321,6c-.076,1.189-.014,2.386-.014,3.62A3.225,3.225,0,0,0,5.763,7.929c.091-.163.154-.34.247-.5A1.536,1.536,0,0,1,7.4,6.577c1.158-.009,2.316-.013,3.474-.026a1.588,1.588,0,0,1,1.537.923c.159.3.359.588.564.92a8.41,8.41,0,0,1,6.159-2.443,7.032,7.032,0,0,1,5.817,2.958.515.515,0,0,0,.1-.094A21.405,21.405,0,0,1,28.92,4.526c.332-.31.662-.223.862.2.36.75.679,1.524,1.092,2.245a3.927,3.927,0,0,0,2.79,2.115,13.827,13.827,0,0,0,1.59.081c0-.233.011-.413,0-.592a15.371,15.371,0,0,0-.244-2.888,6.106,6.106,0,0,0-5.054-4.522,6.76,6.76,0,0,0-6.524,1.865,9.872,9.872,0,0,0-.877,1.112c-.238.322-.491.417-.751.25s-.284-.462-.072-.788A7.55,7.55,0,0,1,27.91.021a7.662,7.662,0,0,1,5.53,1.6,7.282,7.282,0,0,1,2.8,5.742c.007.311,0,.623,0,.934a4.784,4.784,0,0,0,.24,1.71,2.3,2.3,0,0,1-1.517,3,.4.4,0,0,0-.232.19,7.184,7.184,0,0,1-2.171,3.539c.589.376,1.21.716,1.768,1.139a9.3,9.3,0,0,1,3.891,6.543.786.786,0,0,0,.06.171v5.755c-.028.066-.061.131-.085.2a1.986,1.986,0,0,1-1.825,1.484c-1.317.07-2.639.033-3.959.022a.476.476,0,0,1-.473-.614c.084-.287.3-.36.581-.359,1.183,0,2.366.009,3.55,0A1.15,1.15,0,0,0,37.3,29.84c0-1.52.054-3.042-.012-4.558a8.228,8.228,0,0,0-4.871-7.468c-.126-.062-.261-.107-.429-.175,0,.52.006.98,0,1.44a3.118,3.118,0,0,1-4.121,2.969,3.083,3.083,0,0,1-2.081-2.786c-.015-.354,0-.708,0-1.086a5.152,5.152,0,0,1-.711.3.435.435,0,0,0-.356.394,5.075,5.075,0,0,1-1.792,2.983,1.571,1.571,0,0,0-.682,1.533.6.6,0,0,0,.417.621,9.069,9.069,0,0,1,5.748,7.26,29.034,29.034,0,0,1,.142,3.875,3.767,3.767,0,0,1-.328,2.156h.462q2.84,0,5.68,0c.272,0,.529.009.657.308s-.072.485-.255.671ZM16,24.877a8.225,8.225,0,0,0-5.2,6.916,39.7,39.7,0,0,0-.072,4.328A1.146,1.146,0,0,0,11.989,37.3q7.153,0,14.307,0a1.164,1.164,0,0,0,1.274-1.244c.009-1.158.023-2.316,0-3.474a8.272,8.272,0,0,0-2.438-5.806,7.979,7.979,0,0,0-2.84-1.866c-.566,2.02-1.564,2.937-3.16,2.927S16.531,26.9,16,24.877m9.277-10.183c0-.608.007-1.193,0-1.778a5.689,5.689,0,0,0-.918-3.109,6.009,6.009,0,0,0-5.747-2.855,6.838,6.838,0,0,0-6.383,4.393,9.2,9.2,0,0,0,.962,8.83c.315.5.711.94,1.071,1.408a.281.281,0,0,0,.084-.222A12.47,12.47,0,0,1,15.472,15a13.979,13.979,0,0,1,3.535-4.577c.523-.472.794-.412,1.091.219a19.821,19.821,0,0,0,1.187,2.319,3.73,3.73,0,0,0,3.989,1.729m-1.41,1.018a4.061,4.061,0,0,1-2.814-1.4,20.582,20.582,0,0,1-1.392-2.2,6.7,6.7,0,0,1-.308-.654,11.672,11.672,0,0,0-4.073,8.664.683.683,0,0,0,.142.4,4.764,4.764,0,0,0,7.486-.048c1.112-1.441,1.009-3.087.959-4.769M29.11,5.726A16.676,16.676,0,0,0,25.8,9.482a.856.856,0,0,0-.065.891A8.08,8.08,0,0,1,26.255,14a3.143,3.143,0,0,0,.224,1.6,1.188,1.188,0,0,1,.11.544.423.423,0,0,0,.312.437,5.035,5.035,0,0,0,5.679-1.225c1.393-1.523,1.359-3.363,1.258-5.23a4.875,4.875,0,0,1-3.923-2.782c-.291-.52-.532-1.067-.8-1.616M12.322,9.15c-.271-.422-.538-.8-.761-1.2a.727.727,0,0,0-.719-.419c-1.095.016-2.19.024-3.285.015a.719.719,0,0,0-.747.486A4.139,4.139,0,0,1,4.436,10.33a.337.337,0,0,0-.253.38c.013.647,0,1.294.007,1.941A5.168,5.168,0,0,0,7.408,17.4a5.02,5.02,0,0,0,3.507.151,9.915,9.915,0,0,1,1.407-8.4m4.711,13.769c0,.694-.025,1.326.006,1.956a2.089,2.089,0,0,0,1.819,1.963,2.033,2.033,0,0,0,2.311-1.548A16.975,16.975,0,0,0,21.3,22.9a5.985,5.985,0,0,1-4.269.014M30.97,17.607a6.246,6.246,0,0,1-4.21-.017c0,.573-.013,1.094,0,1.615a2.108,2.108,0,0,0,1.967,2.026,2.08,2.08,0,0,0,2.229-1.813,16.813,16.813,0,0,0,.011-1.81M11.184,18.5a6.291,6.291,0,0,1-3.845-.066A2.21,2.21,0,0,0,9.055,21.2a2.021,2.021,0,0,0,2.065-.839,1.419,1.419,0,0,0,.064-1.86m-5.523-.975A6.209,6.209,0,0,1,3.335,13.9c-.019-.085-.11-.153-.167-.229l-.1.031c-.141,1.984-.282,3.969-.418,5.887l3.013-2.06M3.188,10.647c-.488-.027-.8.3-.845.845a1.052,1.052,0,0,0,.845,1.133Zm31.669,1.325a1.21,1.21,0,0,0,.776-1.241c-.009-.618-.155-.727-.776-.563Zm-9.951,3.765V17.5a1.252,1.252,0,0,0,.706-1.143c.037-.585-.081-.69-.706-.621" transform="translate(-0.01 0)" fill="#7f4fc7"/>
        <path id="Trazado_196904_-_Contorno" data-name="Trazado 196904 - Contorno" d="M34.87,38.524H3.651l-.072-.066a.8.8,0,0,1-.326-.947.822.822,0,0,1,.871-.466h.015q1.417,0,2.834,0H9.669a4.413,4.413,0,0,1-.186-1.76c0-.143.009-.292.01-.435,0-.292,0-.59-.008-.878a13.583,13.583,0,0,1,.205-3.2,9.538,9.538,0,0,1,5.9-7.028c.221-.093.216-.128.2-.243a1.958,1.958,0,0,1-.009-.352c0-.029,0-.058,0-.087a.716.716,0,0,1-.349.473.707.707,0,0,1-.374.112.905.905,0,0,1-.559-.234,11.217,11.217,0,0,1-2.256-2.424l-.018-.027a3.293,3.293,0,0,1-2.715,1.517,3.943,3.943,0,0,1-1.121-.174c-1.443-.429-2.093-1.388-2.33-3.489l-.012.006a8.5,8.5,0,0,0-3.475,2.916,8.5,8.5,0,0,0-1.323,4.331c-.044.886-.032,1.793-.021,2.671,0,.357.009.726.01,1.089a.9.9,0,0,0,.981,1c.371,0,.777.005,1.277.005l1.607,0H5.47c.845,0,.911.561.911.732,0,.452-.357.744-.909.745H4.989l-1.411,0c-.507,0-.951,0-1.359,0A2.357,2.357,0,0,1-.235,29.849q0-.473,0-.945c0-1.2,0-2.44.068-3.659a8.476,8.476,0,0,1,1.429-4.134,1.115,1.115,0,0,0,.163-.631c.032-1.164.1-2.337.169-3.439.034-.55.075-1.107.114-1.647.046-.633.093-1.287.131-1.93a.467.467,0,0,0-.109-.274,2.408,2.408,0,0,1,.175-3.4.537.537,0,0,0,.141-.325c.011-.506.011-1.023.011-1.523,0-.591,0-1.2.018-1.8A6.645,6.645,0,0,1,6.761.161,2.059,2.059,0,0,1,8.4.349.333.333,0,0,0,8.563.41.3.3,0,0,0,8.7.367a2.762,2.762,0,0,1,2.069-.2,7.765,7.765,0,0,1,4.563,3.269.949.949,0,0,1,.188.665.78.78,0,0,1-.54.574.971.971,0,0,1-.752-.271,4.793,4.793,0,0,1-.418-.521,5,5,0,0,0-.328-.419,6.229,6.229,0,0,0-3.128-1.87,1.383,1.383,0,0,0-1.26.274,1,1,0,0,1-.593.271.938.938,0,0,1-.626-.349.7.7,0,0,0-.78-.174A5.15,5.15,0,0,0,3.57,6.019c-.051.807-.039,1.606-.025,2.452,0,.278.009.563.011.85A2.945,2.945,0,0,0,5.544,7.807c.039-.07.074-.146.11-.226s.084-.185.137-.278A1.777,1.777,0,0,1,7.4,6.327l1.206-.008c.743,0,1.512-.009,2.268-.018H10.9a1.836,1.836,0,0,1,1.731,1.058c.1.2.227.39.358.594L13.026,8a8.709,8.709,0,0,1,6.093-2.3h.017a7.246,7.246,0,0,1,5.818,2.807,21.487,21.487,0,0,1,3.609-3.991l.186-.174a.823.823,0,0,1,.563-.253.775.775,0,0,1,.7.523c.112.232.221.47.326.7.235.511.477,1.04.757,1.529a3.651,3.651,0,0,0,2.614,1.992,6.861,6.861,0,0,0,1.012.064l.29.005c0-.116,0-.218,0-.315-.021-.3-.029-.608-.037-.906a8.248,8.248,0,0,0-.2-1.935A5.835,5.835,0,0,0,29.9,1.406a8.2,8.2,0,0,0-1.659-.178A6.343,6.343,0,0,0,23.608,3.2a6.965,6.965,0,0,0-.676.841c-.059.082-.118.163-.178.244a.893.893,0,0,1-.7.432.708.708,0,0,1-.386-.121.687.687,0,0,1-.311-.439.924.924,0,0,1,.165-.7A7.81,7.81,0,0,1,27.894-.229c.233-.014.464-.022.687-.022a7.7,7.7,0,0,1,7.907,7.613c.006.306,0,.615,0,.914V8.3a4.555,4.555,0,0,0,.225,1.624,2.531,2.531,0,0,1-.1,1.995,2.614,2.614,0,0,1-1.576,1.33.213.213,0,0,0-.078.05l0,0a7.118,7.118,0,0,1-2.01,3.386l.3.184a14.616,14.616,0,0,1,1.228.806A9.587,9.587,0,0,1,38.467,24.4c0,.006.012.029.019.046s.019.045.028.067l.015.041V30.4l-.02.047-.03.066c-.019.041-.036.08-.048.115a2.233,2.233,0,0,1-2.049,1.652c-.538.028-1.116.042-1.821.042-.455,0-.916-.005-1.363-.011l-.791-.008a.744.744,0,0,1-.6-.295.722.722,0,0,1-.111-.639.749.749,0,0,1,.814-.539h.008c.6,0,1.282.005,1.956.005.585,0,1.106,0,1.591-.006a.907.907,0,0,0,.985-.993c0-.435.006-.877.011-1.3.012-1.065.024-2.166-.022-3.243a8.446,8.446,0,0,0-1.293-4.321,8.546,8.546,0,0,0-3.44-2.934l-.067-.031q0,.058,0,.116c0,.332,0,.645,0,.96a3.4,3.4,0,0,1-.821,2.216,3.345,3.345,0,0,1-5.881-2.026c-.01-.235-.008-.464-.006-.7a2.253,2.253,0,0,1-.4.149c-.11.028-.137.048-.173.207a5.3,5.3,0,0,1-1.884,3.125,1.324,1.324,0,0,0-.585,1.316c.02.263.058.321.267.411a9.3,9.3,0,0,1,5.9,7.451,18.167,18.167,0,0,1,.14,2.839c0,.352,0,.715,0,1.07,0,.08,0,.16.006.24a4.112,4.112,0,0,1-.186,1.671h2.767q1.488,0,2.976,0h.018a.828.828,0,0,1,.869.459.775.775,0,0,1-.275.914Zm-31.022-.5H34.66c.158-.165.176-.216.13-.323-.055-.129-.128-.156-.409-.156h-.017q-1.489,0-2.977,0h-3.6l.223-.377a3.094,3.094,0,0,0,.3-1.779c0-.082,0-.164-.006-.245-.007-.36-.006-.727,0-1.081a17.794,17.794,0,0,0-.134-2.76,8.83,8.83,0,0,0-5.6-7.069.84.84,0,0,1-.568-.832,1.821,1.821,0,0,1,.778-1.751,4.816,4.816,0,0,0,1.7-2.841.684.684,0,0,1,.539-.58,2.375,2.375,0,0,0,.415-.167c.081-.038.164-.077.257-.118l.349-.151v.381c0,.121,0,.24,0,.357,0,.249-.005.484,0,.718a2.837,2.837,0,0,0,2.835,2.714,2.851,2.851,0,0,0,2.167-.992,2.908,2.908,0,0,0,.7-1.9c0-.309,0-.621,0-.95,0-.157,0-.319,0-.486v-.371l.344.14.155.061c.1.039.2.076.291.122a8.479,8.479,0,0,1,5.01,7.681c.047,1.091.034,2.2.023,3.27,0,.426-.01.867-.011,1.3a1.4,1.4,0,0,1-1.481,1.492c-.486,0-1.008.006-1.595.006-.675,0-1.357,0-1.958-.005H32.51c-.261,0-.3.078-.334.179a.226.226,0,0,0,.032.2.246.246,0,0,0,.2.093l.793.008c.445.005.905.011,1.357.011.7,0,1.265-.013,1.794-.041a1.758,1.758,0,0,0,1.6-1.315c.02-.058.044-.112.066-.16l.005-.011V24.643a.646.646,0,0,1-.057-.19,8.989,8.989,0,0,0-3.794-6.372c-.373-.282-.787-.534-1.186-.778-.186-.113-.378-.23-.565-.35l-.254-.162.205-.22a6.992,6.992,0,0,0,2.115-3.444l.005-.013a.633.633,0,0,1,.39-.34A2.118,2.118,0,0,0,36.165,11.7a2.035,2.035,0,0,0,.078-1.6,5.083,5.083,0,0,1-.255-1.8V8.272c0-.3.005-.6,0-.9a7.066,7.066,0,0,0-2.706-5.554,7.14,7.14,0,0,0-4.7-1.57c-.213,0-.434.007-.657.021a7.333,7.333,0,0,0-5.984,3.466.455.455,0,0,0-.1.319.193.193,0,0,0,.093.123.217.217,0,0,0,.115.041c.083,0,.189-.082.3-.23.059-.079.116-.159.174-.239a7.447,7.447,0,0,1,.726-.9A6.827,6.827,0,0,1,28.244.727a8.7,8.7,0,0,1,1.761.189,7.259,7.259,0,0,1,3.327,1.552,6.2,6.2,0,0,1,1.918,3.15,8.744,8.744,0,0,1,.216,2.052c.008.292.015.593.036.883.009.13.007.259,0,.4,0,.067,0,.137,0,.213v.261l-.261-.012c-.182-.008-.36-.011-.533-.013a7.224,7.224,0,0,1-1.087-.07,4.174,4.174,0,0,1-2.965-2.237c-.291-.509-.538-1.048-.778-1.569-.1-.228-.213-.463-.322-.692-.035-.072-.128-.24-.244-.24a.367.367,0,0,0-.222.118l-.186.174A20.345,20.345,0,0,0,25.27,8.945a.475.475,0,0,1-.127.131l-.025.02-.2.178-.163-.213A6.818,6.818,0,0,0,19.136,6.2h-.016a8.115,8.115,0,0,0-5.967,2.372l-.223.219-.165-.266c-.065-.105-.13-.206-.192-.3-.138-.214-.267-.416-.381-.633A1.336,1.336,0,0,0,10.9,6.8h-.025c-.757.009-1.526.013-2.27.018L7.4,6.827a1.291,1.291,0,0,0-1.177.724c-.042.073-.078.153-.117.237s-.08.175-.129.263A3.492,3.492,0,0,1,3.345,9.87l-.288.044V9.623c0-.384-.006-.771-.012-1.144-.013-.819-.026-1.665.026-2.492A5.415,5.415,0,0,1,4.278,2.979,5.642,5.642,0,0,1,6.942,1.133a1.2,1.2,0,0,1,1.281.3c.138.136.23.2.275.2a.724.724,0,0,0,.288-.168A1.892,1.892,0,0,1,10.475,1.1,6.721,6.721,0,0,1,13.85,3.123a5.45,5.45,0,0,1,.361.461,4.352,4.352,0,0,0,.373.468.5.5,0,0,0,.3.124H14.9a.408.408,0,0,0,.132-.187.559.559,0,0,0-.116-.281A7.279,7.279,0,0,0,10.633.645a2.263,2.263,0,0,0-1.7.164.776.776,0,0,1-.367.1A.809.809,0,0,1,8.147.781,1.561,1.561,0,0,0,6.9.642a5.973,5.973,0,0,0-3.02,2.082,5.907,5.907,0,0,0-1.3,3.425c-.018.595-.018,1.2-.018,1.789,0,.5,0,1.022-.011,1.534a1.037,1.037,0,0,1-.3.676,1.92,1.92,0,0,0-.141,2.714.96.96,0,0,1,.23.63c-.038.647-.085,1.3-.131,1.937-.039.538-.079,1.095-.113,1.642-.068,1.1-.137,2.266-.168,3.422a1.621,1.621,0,0,1-.243.889,7.985,7.985,0,0,0-1.35,3.89C.27,26.478.268,27.711.267,28.9q0,.474,0,.947a1.859,1.859,0,0,0,1.957,1.961c.407,0,.85,0,1.355,0l1.41,0h.483c.187,0,.411-.043.411-.245,0-.069,0-.232-.412-.233H3.5c-.5,0-.909,0-1.282-.005a1.4,1.4,0,0,1-1.476-1.5c0-.361-.006-.729-.01-1.084-.011-.885-.023-1.8.022-2.7a8.477,8.477,0,0,1,5.079-7.672c.08-.039.158-.07.242-.1l.108-.044L6.5,18.1l.03.34c.186,2.118.712,3.006,2.009,3.392a3.445,3.445,0,0,0,.978.153,2.955,2.955,0,0,0,2.5-1.594l.2-.317.214.31.226.328a10.717,10.717,0,0,0,2.156,2.316.449.449,0,0,0,.247.125.215.215,0,0,0,.112-.038c.095-.058.168-.127.1-.377-.04-.161-.064-.321-.089-.49-.011-.075-.023-.153-.036-.236l-.092-.551.472.3c.71.45.752.52.752,1.263,0,.05,0,.1,0,.149a1.563,1.563,0,0,0,0,.264.673.673,0,0,1-.5.773,9.6,9.6,0,0,0-3.665,2.616,9.385,9.385,0,0,0-1.943,4.061,13.206,13.206,0,0,0-.193,3.08c0,.291.009.591.008.887,0,.15-.005.3-.01.449a3.356,3.356,0,0,0,.3,1.871l.212.373H6.975q-1.417,0-2.835,0H4.125c-.3,0-.36.037-.409.156S3.693,37.873,3.848,38.024Zm15.294-.477-7.153,0a1.4,1.4,0,0,1-1.515-1.423c0-.36-.006-.728-.011-1.084a26.705,26.705,0,0,1,.085-3.272,8.484,8.484,0,0,1,5.346-7.117l.269-.122.076.286c.5,1.906,1.4,2.761,2.89,2.77h.024c1.469,0,2.361-.846,2.893-2.744l.074-.265.257.1A8.266,8.266,0,0,1,25.306,26.6a8.539,8.539,0,0,1,2.51,5.975c.024,1.041.016,2.1.008,3.121l0,.361A1.407,1.407,0,0,1,26.3,37.545ZM15.837,25.229A8.869,8.869,0,0,0,12.6,27.769a7.963,7.963,0,0,0-1.552,4.051,26.328,26.328,0,0,0-.082,3.21c.005.357.011.727.012,1.09a.9.9,0,0,0,1.016.924q7.153,0,14.306,0a.916.916,0,0,0,1.024-1l0-.361c.008-1.019.017-2.072-.008-3.105a8.054,8.054,0,0,0-2.366-5.636,7.77,7.77,0,0,0-2.5-1.706c-.609,1.937-1.661,2.842-3.3,2.842h-.028a2.993,2.993,0,0,1-2.134-.793A4.551,4.551,0,0,1,15.837,25.229ZM19.129,27.1a2.7,2.7,0,0,1-.3-.017,2.335,2.335,0,0,1-2.041-2.2c-.022-.439-.017-.872-.011-1.331,0-.206,0-.42,0-.637v-.357l.335.122a5.825,5.825,0,0,0,2.018.371,6.04,6.04,0,0,0,2.081-.386l.352-.127-.017.374c-.012.259-.015.518-.018.768a9.175,9.175,0,0,1-.119,1.653A2.249,2.249,0,0,1,19.129,27.1Zm-1.849-3.837q0,.15,0,.3c-.005.451-.01.877.011,1.3a1.831,1.831,0,0,0,1.6,1.727,2.2,2.2,0,0,0,.244.014,1.756,1.756,0,0,0,1.794-1.361,8.81,8.81,0,0,0,.109-1.564c0-.138,0-.279.007-.422a6.362,6.362,0,0,1-1.9.3A6.184,6.184,0,0,1,17.281,23.267Zm1.839-.695h0a4.872,4.872,0,0,1-3.9-1.891.925.925,0,0,1-.194-.562,12.179,12.179,0,0,1,1.123-4.85,12.6,12.6,0,0,1,3.033-3.993l.251-.226.142.306c.037.08.07.157.1.231a3.228,3.228,0,0,0,.193.4c.123.2.243.408.36.608a12.844,12.844,0,0,0,1.014,1.561,3.784,3.784,0,0,0,2.649,1.308l.213.026.013.428c.05,1.6.1,3.264-1.018,4.716A4.987,4.987,0,0,1,19.12,22.572Zm.142-10.688a11.974,11.974,0,0,0-2.66,3.6,11.683,11.683,0,0,0-1.075,4.652.444.444,0,0,0,.09.242,4.375,4.375,0,0,0,3.5,1.7,4.49,4.49,0,0,0,3.587-1.744c1.01-1.309.963-2.808.914-4.394v0a4.158,4.158,0,0,1-2.766-1.462A13.219,13.219,0,0,1,19.8,12.847c-.115-.2-.235-.4-.355-.6A2.981,2.981,0,0,1,19.262,11.883ZM14.255,21.99l-.2-.255c-.111-.145-.229-.291-.342-.432a10.982,10.982,0,0,1-.741-.995,9.447,9.447,0,0,1-.982-9.058,7.061,7.061,0,0,1,6.6-4.547c.177-.011.354-.017.526-.017A6.2,6.2,0,0,1,24.564,9.67a5.943,5.943,0,0,1,.959,3.243c.006.4,0,.8,0,1.218q0,.279,0,.563v.215l-.213.032a5.558,5.558,0,0,1-.818.063,3.872,3.872,0,0,1-3.418-1.9,16.025,16.025,0,0,1-1.017-1.949q-.093-.2-.186-.4c-.158-.336-.257-.386-.3-.386s-.159.032-.4.246A13.615,13.615,0,0,0,15.7,15.108a12.3,12.3,0,0,0-1.11,6.231.53.53,0,0,1-.137.4Zm4.863-14.8c-.161,0-.328.005-.494.016a6.594,6.594,0,0,0-6.168,4.238,8.972,8.972,0,0,0,.941,8.6,9.985,9.985,0,0,0,.663.892A12.858,12.858,0,0,1,15.245,14.9a14.093,14.093,0,0,1,3.6-4.659,1.139,1.139,0,0,1,.732-.375c.386,0,.606.36.753.673q.094.2.187.4A15.648,15.648,0,0,0,21.5,12.83a3.4,3.4,0,0,0,3,1.675,4.872,4.872,0,0,0,.531-.03q0-.174,0-.345c0-.416,0-.81,0-1.209a5.451,5.451,0,0,0-.876-2.975A5.729,5.729,0,0,0,19.118,7.186Zm-9.654,14.3a2.681,2.681,0,0,1-.451-.04,2.334,2.334,0,0,1-1.547-.984,2.693,2.693,0,0,1-.371-2.078l.056-.273.266.086a6.456,6.456,0,0,0,1.978.324,5.885,5.885,0,0,0,1.718-.259l.171-.052.1.144a1.664,1.664,0,0,1-.067,2.158A2.277,2.277,0,0,1,9.463,21.487ZM7.543,18.757a2.132,2.132,0,0,0,.336,1.424,1.838,1.838,0,0,0,1.219.773,1.775,1.775,0,0,0,1.823-.744,1.161,1.161,0,0,0,.156-1.418,6.368,6.368,0,0,1-1.684.228A6.85,6.85,0,0,1,7.543,18.757ZM28.86,21.484c-.048,0-.1,0-.144,0a2.357,2.357,0,0,1-2.2-2.268c-.011-.36-.009-.717-.006-1.094,0-.172,0-.348,0-.528v-.352l.332.115a6.25,6.25,0,0,0,2.053.36,6.144,6.144,0,0,0,1.995-.344l.331-.114v.35c0,.2.005.4.011.594a8.926,8.926,0,0,1-.023,1.244A2.331,2.331,0,0,1,28.86,21.484Zm-1.851-3.552q0,.1,0,.19c0,.372-.005.724.005,1.075a1.854,1.854,0,0,0,1.732,1.784c.038,0,.077,0,.116,0A1.831,1.831,0,0,0,30.71,19.39a8.563,8.563,0,0,0,.02-1.175c0-.088,0-.177-.007-.267a6.55,6.55,0,0,1-1.83.267A6.64,6.64,0,0,1,27.008,17.933ZM2.363,20.084l.037-.516c.136-1.919.277-3.9.418-5.887l.012-.17.162-.051.1-.032.168-.051.107.14c.011.014.028.033.045.052a.6.6,0,0,1,.165.272,5.951,5.951,0,0,0,2.235,3.487l.273.21-.284.194L2.79,19.792Zm.893-5.528c-.108,1.526-.216,3.046-.322,4.531l2.308-1.578A6.384,6.384,0,0,1,3.256,14.556Zm6.109,3.489h0A5.465,5.465,0,0,1,3.94,12.654c0-.286,0-.576,0-.857,0-.355,0-.723,0-1.082a.58.58,0,0,1,.413-.618A3.9,3.9,0,0,0,6.581,7.935.968.968,0,0,1,7.545,7.3h.014c.31,0,.634,0,.96,0,.714,0,1.472-.006,2.319-.019h.023a.969.969,0,0,1,.918.548c.15.269.322.529.5.8.082.123.165.249.248.379l.09.141-.1.137a9.412,9.412,0,0,0-1.607,3.922,10.838,10.838,0,0,0,.238,4.275l.056.227-.223.071A5.392,5.392,0,0,1,9.365,18.045ZM7.545,7.8a.473.473,0,0,0-.506.336,4.388,4.388,0,0,1-2.512,2.428c-.094.037-.1.039-.094.142.007.365.006.736.005,1.094,0,.279,0,.567,0,.85a4.965,4.965,0,0,0,4.925,4.9h0a4.829,4.829,0,0,0,1.252-.169,11.217,11.217,0,0,1-.191-4.239,9.873,9.873,0,0,1,1.6-3.99l-.154-.234c-.188-.284-.365-.552-.524-.837a.477.477,0,0,0-.481-.291h-.016C10,7.8,9.236,7.8,8.52,7.8c-.328,0-.653,0-.965,0Zm17.112,10.11V15.514l.223-.025a2.816,2.816,0,0,1,.308-.02.69.69,0,0,1,.52.179.931.931,0,0,1,.155.726,1.5,1.5,0,0,1-.842,1.35Zm.5-1.939v1.018a1.151,1.151,0,0,0,.207-.645c.018-.288-.014-.344-.021-.353a.33.33,0,0,0-.155-.021Zm3.7,1.267h0a5.061,5.061,0,0,1-2.053-.428.669.669,0,0,1-.461-.668.945.945,0,0,0-.082-.426A3.151,3.151,0,0,1,26,14.091l0-.1a7.9,7.9,0,0,0-.5-3.515,1.1,1.1,0,0,1,.077-1.121A16.947,16.947,0,0,1,28.955,5.53l.242-.191.137.277c.087.176.172.354.254.526.18.376.35.732.544,1.079a4.646,4.646,0,0,0,3.749,2.659l.195.035.011.2c.09,1.668.2,3.745-1.323,5.413A5.31,5.31,0,0,1,28.853,17.237Zm.172-11.116A16.563,16.563,0,0,0,26.012,9.61a.609.609,0,0,0-.052.66A8.324,8.324,0,0,1,26.505,14l0,.1a2.729,2.729,0,0,0,.2,1.38,1.434,1.434,0,0,1,.138.663c0,.1.007.136.163.205a4.564,4.564,0,0,0,1.851.385,4.809,4.809,0,0,0,3.543-1.55c1.24-1.356,1.3-2.938,1.2-4.853a5.081,5.081,0,0,1-3.9-2.869c-.2-.361-.383-.741-.559-1.108ZM3.438,12.911l-.283-.038a1.293,1.293,0,0,1-1.061-1.4A1.036,1.036,0,0,1,3.2,10.4l.236.013Zm-.5-1.983a.638.638,0,0,0-.346.584.847.847,0,0,0,.346.753Zm31.669,1.4V9.976l.186-.049a1.868,1.868,0,0,1,.468-.076c.609,0,.617.593.621.878a1.45,1.45,0,0,1-.943,1.48Zm.5-1.957v1.161a1.08,1.08,0,0,0,.276-.793c0-.319-.05-.371-.056-.376a.153.153,0,0,0-.065-.009A.879.879,0,0,0,35.107,10.368Z" transform="translate(-0.01 0)" fill="#7f4fc7"/>
        <path id="Trazado_196905" data-name="Trazado 196905" d="M.3,126.944c-.186-.183-.386-.362-.261-.665s.373-.321.647-.314c.346.008.692.005,1.038,0,.279,0,.55-.008.688.307s-.079.478-.243.672Z" transform="translate(0 -88.67)" fill="#7f4fc7"/>
        <path id="Trazado_196905_-_Contorno" data-name="Trazado 196905 - Contorno" d="M2.284,127.194H.2L.1,127.1a.785.785,0,0,1-.3-.918.8.8,0,0,1,.816-.47H.691c.149,0,.3,0,.477,0s.332,0,.552,0h.094a.8.8,0,0,1,.826.457.748.748,0,0,1-.222.866l-.06.068Zm-1.882-.5H2.055c.156-.175.172-.219.127-.321-.052-.119-.112-.158-.368-.158H1.73c-.226,0-.4,0-.562,0s-.336,0-.488-.005H.624c-.246,0-.308.049-.354.16S.245,126.535.4,126.694Z" transform="translate(0 -88.67)" fill="#7f4fc7"/>
        <path id="Trazado_196906" data-name="Trazado 196906" d="M121.991,126.933c-.172-.189-.383-.361-.253-.666s.4-.318.683-.312.544.017.814,0a.725.725,0,0,1,.7.309v.673Z" transform="translate(-85.666 -88.659)" fill="#7f4fc7"/>
        <path id="Trazado_196906_-_Contorno" data-name="Trazado 196906 - Contorno" d="M124.184,127.183h-2.3l-.074-.081-.052-.056a.755.755,0,0,1-.247-.877.8.8,0,0,1,.82-.466h.1l.122,0c.112,0,.227.005.339.005s.232,0,.33-.01a.971.971,0,0,1,.921.413l.046.065Zm-2.085-.5h1.585v-.336a.455.455,0,0,0-.367-.149l-.065,0c-.11.008-.229.012-.366.012-.118,0-.236,0-.351-.006l-.12,0h-.089c-.247,0-.309.042-.359.161C121.924,126.467,121.942,126.515,122.1,126.683Z" transform="translate(-85.666 -88.659)" fill="#7f4fc7"/>
        <path id="Trazado_196907" data-name="Trazado 196907" d="M25.649,105.64a.546.546,0,0,1-.579.541.568.568,0,0,1-.552-.578.579.579,0,0,1,.588-.547.561.561,0,0,1,.543.584" transform="translate(-17.259 -73.952)" fill="#7f4fc7"/>
        <path id="Trazado_196907_-_Contorno" data-name="Trazado 196907 - Contorno" d="M25.09,106.431h-.027a.818.818,0,0,1-.576-.262.8.8,0,0,1-.218-.575.828.828,0,0,1,.845-.788.816.816,0,0,1,.785.84A.8.8,0,0,1,25.09,106.431Zm0-1.125a.332.332,0,0,0-.322.307.3.3,0,0,0,.083.215.322.322,0,0,0,.226.1h.012a.3.3,0,0,0,.31-.3.311.311,0,0,0-.3-.326Z" transform="translate(-17.259 -73.952)" fill="#7f4fc7"/>
        <path id="Trazado_196908" data-name="Trazado 196908" d="M101.625,105.622a.549.549,0,0,1-.562.559.568.568,0,0,1-.569-.56.576.576,0,0,1,.57-.565.563.563,0,0,1,.561.566" transform="translate(-70.741 -73.952)" fill="#7f4fc7"/>
        <path id="Trazado_196908_-_Contorno" data-name="Trazado 196908 - Contorno" d="M101.064,106.431h0a.819.819,0,0,1-.583-.244.8.8,0,0,1-.235-.568.83.83,0,0,1,.819-.814.8.8,0,0,1,.575.24.813.813,0,0,1,.236.576A.8.8,0,0,1,101.064,106.431Z" transform="translate(-70.741 -73.952)" fill="#7f4fc7"/>
        <path id="Trazado_196909" data-name="Trazado 196909" d="M57.068,54.614a.662.662,0,1,1-.647-.81.736.736,0,0,1,.647.81" transform="translate(-39.264 -37.874)" fill="#7f4fc7"/>
        <path id="Trazado_196909_-_Contorno" data-name="Trazado 196909 - Contorno" d="M56.425,55.684a.994.994,0,0,1-.9-1.063.983.983,0,0,1,.891-1.067h.005a1.082,1.082,0,0,1,.005,2.13Z" transform="translate(-39.264 -37.874)" fill="#7f4fc7"/>
        <path id="Trazado_196910" data-name="Trazado 196910" d="M71.3,54.61a.749.749,0,0,1,.661-.8.834.834,0,1,1-.661.8" transform="translate(-50.192 -37.876)" fill="#7f4fc7"/>
        <path id="Trazado_196910_-_Contorno" data-name="Trazado 196910 - Contorno" d="M71.954,55.684h-.014a1.013,1.013,0,0,1-.889-1.077,1,1,0,0,1,.9-1.051h.014a1.08,1.08,0,0,1-.013,2.128Zm0-1.628c-.216,0-.4.26-.406.557,0,.323.207.568.4.572h0c.188,0,.4-.239.4-.559,0-.294-.187-.565-.4-.569Z" transform="translate(-50.192 -37.876)" fill="#7f4fc7"/>
        <path id="Trazado_196911" data-name="Trazado 196911" d="M88.344,35.817a.766.766,0,0,1,.679-.834.861.861,0,1,1-.679.834" transform="translate(-62.188 -24.626)" fill="#7f4fc7"/>
        <path id="Trazado_196911_-_Contorno" data-name="Trazado 196911 - Contorno" d="M89.017,36.914h-.009a1.107,1.107,0,0,1,.01-2.181h.009a1.106,1.106,0,0,1-.009,2.181Zm0-1.681c-.231,0-.425.268-.427.585s.187.593.419.6h0c.229,0,.424-.268.426-.586S89.251,35.235,89.021,35.233Z" transform="translate(-62.188 -24.626)" fill="#7f4fc7"/>
        <path id="Trazado_196912" data-name="Trazado 196912" d="M105.842,35.818a.782.782,0,0,1-.674.844.862.862,0,0,1-.007-1.682.775.775,0,0,1,.681.837" transform="translate(-73.556 -24.624)" fill="#7f4fc7"/>
        <path id="Trazado_196912_-_Contorno" data-name="Trazado 196912 - Contorno" d="M105.164,36.913a1.107,1.107,0,0,1,0-2.182h.005a1.106,1.106,0,0,1,0,2.182Z" transform="translate(-73.556 -24.624)" fill="#7f4fc7"/>
        <path id="Trazado_196913" data-name="Trazado 196913" d="M22,37.364a.725.725,0,0,1-.647.812.824.824,0,0,1-.017-1.606.717.717,0,0,1,.663.794" transform="translate(-14.573 -25.742)" fill="#7f4fc7"/>
        <path id="Trazado_196913_-_Contorno" data-name="Trazado 196913 - Contorno" d="M21.351,38.425h0a.828.828,0,0,1-.589-.254,1.139,1.139,0,0,1-.309-.812.983.983,0,0,1,.874-1.04h.024a.962.962,0,0,1,.9,1.043,1.141,1.141,0,0,1-.306.813A.828.828,0,0,1,21.351,38.425Z" transform="translate(-14.573 -25.742)" fill="#7f4fc7"/>
      </g>
    </g>
  </g>
</svg>
