<svg xmlns="http://www.w3.org/2000/svg" xmlns:xlink="http://www.w3.org/1999/xlink" width="70" height="70" viewBox="0 0 70 70">
  <defs>
    <clipPath id="clip-path">
      <rect id="Rectángulo_46521" data-name="Rectángulo 46521" width="46.313" height="46.32" fill="#7f4fc7"/>
    </clipPath>
  </defs>
  <g id="Grupo_155233" data-name="Grupo 155233" transform="translate(-195.213 -4041)">
    <circle id="Elipse_5773" data-name="Elipse 5773" cx="35" cy="35" r="35" transform="translate(195.213 4041)" fill="#fff"/>
    <g id="Grupo_155039" data-name="Grupo 155039" transform="translate(207.213 4053)">
      <g id="Grupo_155038" data-name="Grupo 155038" clip-path="url(#clip-path)">
        <path id="Trazado_197103" data-name="Trazado 197103" d="M16.1,0c.333.077.668.148,1,.231A7.942,7.942,0,0,1,18.457,15.2c-.3.137-.661.22-.534.673a.65.65,0,0,0,.236.374,5.087,5.087,0,0,1,2.75,4.788c-.018,2.638-.056,5.278.017,7.915a38.684,38.684,0,0,0,.457,4.17c.422,3.074.874,6.144,1.319,9.214a.821.821,0,0,0,.158.451A3.634,3.634,0,0,1,23.894,45.8c-.01.15,0,.3,0,.485H17.14c.051-.641.109-1.291.15-1.942a2.175,2.175,0,0,0-.018-.739c-.5-1.7-1.032-3.392-1.587-5.2-.393,1.272-.759,2.432-1.111,3.6a4.973,4.973,0,0,0-.405,3.056,4.376,4.376,0,0,1,.018,1.233H7.5a4.069,4.069,0,0,1,.836-3.345,1.059,1.059,0,0,0,.242-.553q.725-5.9,1.428-11.8c.115-.956.222-1.913.342-2.95-.259,0-.478,0-.7,0-.844-.01-1.691.025-2.531-.042a2.878,2.878,0,0,1-2.6-2.537c-.038-.341-.161-.435-.478-.411a4.838,4.838,0,0,1-.813-.019,2.025,2.025,0,0,1-1.889-1.719c-.319-1.9-.6-3.809-.9-5.713-.139-.893-.271-1.787-.414-2.679a2.147,2.147,0,0,1,2.151-2.571c.707-.01,1.415,0,2.164,0,.179.979.356,1.938.531,2.9.3,1.674.6,3.349.921,5.021.022.116.185.292.285.293,1.566.018,3.132.013,4.731.013a4.372,4.372,0,0,1,1.2-2.681,2.129,2.129,0,0,0,.675-1.919c-.028-.434-.005-.871-.005-1.331-.348-.037-.676-.053-1-.11A3.208,3.208,0,0,1,8.98,11.163c-.068-1.293-.026-2.592,0-3.888a6.07,6.07,0,0,1,.2-1.036A3.561,3.561,0,0,1,7.618,4.271,3.271,3.271,0,0,1,9.966.09a2.6,2.6,0,0,0,.25-.09ZM10.152,41.9a3.519,3.519,0,0,1,2.683.6c.048-.13.081-.212.108-.3.514-1.667,1-3.345,1.553-5a3.188,3.188,0,0,0,.023-2.378,5.413,5.413,0,0,1-.294-2.682H15.7c0,.316,0,.6,0,.886a9.679,9.679,0,0,0,.752,2.817c.668,2.045,1.276,4.108,1.91,6.164.047.153.1.3.146.434a8.92,8.92,0,0,1,1.233-.5,9.785,9.785,0,0,1,1.374-.14L19.53,30.677H11.5L10.152,41.9m9.254-12.785c0-2.914.075-5.779-.026-8.638a3.45,3.45,0,0,0-3.537-3.291A3.557,3.557,0,0,0,12.3,20.4c-.127,1.275-.263,2.549-.368,3.825-.029.352-.16.452-.5.442-.809-.023-1.619-.007-2.441-.007v1.487h2.7a3.036,3.036,0,0,0,3.318-2.618c.225-.916.459-1.831.7-2.787l1.461.369c-.33,1.244-.584,2.456-.977,3.622a4.179,4.179,0,0,1-2.924,2.726,11.139,11.139,0,0,1-1.407.239l-.17,1.419ZM17.918,13.775c.132-.051.188-.067.24-.092A6.438,6.438,0,0,0,15.831,1.545c-1.728-.087-3.464-.056-5.2-.021a1.955,1.955,0,0,0-1.058.422,1.716,1.716,0,0,0-.439,2.129,1.957,1.957,0,0,0,2.07,1.13c1.08-.2,2.156-.42,3.232-.64a2.8,2.8,0,0,1,3.4,2.016.663.663,0,0,0,.29.354,2.2,2.2,0,0,1,1.284,2.026A2.17,2.17,0,0,1,18.157,11a.467.467,0,0,0-.229.322c-.02.8-.011,1.591-.011,2.45m-1.477,1.858V9.7c.282,0,.5.008.727,0a.683.683,0,0,0,.745-.721.727.727,0,0,0-.739-.748c-.234-.012-.469,0-.736,0,0-.337.009-.607,0-.877a1.317,1.317,0,0,0-1.678-1.319c-1.212.23-2.419.508-3.641.648-.493.057-.632.23-.635.635-.009,1.266-.031,2.532,0,3.8a1.635,1.635,0,0,0,1.376,1.532,2.973,2.973,0,0,0,2.514-.42l1.1,1.061c-.359.219-.693.415-1.017.625-.1.065-.249.166-.253.256-.023.582-.012,1.164-.012,1.719l2.247-.25M4.323,20.161c-.363-2-.722-3.97-1.074-5.938-.138-.771-.129-.773-.907-.765-.7.006-.908.226-.812.912.157,1.117.34,2.23.511,3.344.125.814.249,1.628.375,2.447ZM10.67,21.7h-8c.019.191.03.34.051.487.124.864.249.97,1.132.971h6.664c.053-.5.1-.962.152-1.458M22.322,44.8A1.812,1.812,0,0,0,20.4,43.337,1.731,1.731,0,0,0,18.78,44.8ZM12.6,44.788a1.808,1.808,0,0,0-3.546,0Zm-6.61-20.1a1.371,1.371,0,0,0,1.449,1.41v-1.41Z" transform="translate(0)" fill="#7f4fc7"/>
        <path id="Trazado_197104" data-name="Trazado 197104" d="M100.846,17.843a2.319,2.319,0,0,1-1.994,1.778c-.687.069-1.386.025-2.079.028-.648,0-1.3-.016-1.944.012a.708.708,0,0,0-.468.244c-.27.342-.491.722-.737,1.083a1.742,1.742,0,0,1-2.017.823A1.765,1.765,0,0,1,90.38,20.05c0-.118-.014-.236-.024-.4H87.593c-.3,0-.6.005-.9,0a2.22,2.22,0,0,1-2.273-2.217q-.05-3.392,0-6.784a2.2,2.2,0,0,1,2.276-2.207q5.926-.015,11.851,0a2.321,2.321,0,0,1,2.3,1.806Zm-4.494.3c.7,0,1.316,0,1.932,0,.859,0,1.065-.206,1.065-1.07q0-3.031,0-6.061c0-.864-.21-1.079-1.058-1.079q-5.655,0-11.309,0c-.12,0-.242,0-.361.011a.7.7,0,0,0-.705.731q-.014,3.37,0,6.74a.616.616,0,0,0,.538.683c.8.047,1.609.015,2.458.015a3.893,3.893,0,0,1,1.826-3.927c-.557-1.329-.385-2.325.5-3.02A2.25,2.25,0,0,1,94,11.153c.895.7,1.069,1.7.513,3.042a3.912,3.912,0,0,1,1.836,3.95m-5.936,0h1.469c0,.63-.01,1.2.007,1.771a1.58,1.58,0,0,0,.145.435,1.648,1.648,0,0,0,.4-.287,8.006,8.006,0,0,0,.725-1.09,1.266,1.266,0,0,1,1.484-.837.56.56,0,0,0,.2-.041,2.424,2.424,0,0,0-1.114-2.633,2.106,2.106,0,0,0-2.386.108,2.481,2.481,0,0,0-.932,2.574m2.226-4.48a.747.747,0,1,0-.754-.732.754.754,0,0,0,.754.732" transform="translate(-54.533 -5.449)" fill="#7f4fc7"/>
        <path id="Trazado_197105" data-name="Trazado 197105" d="M100.862,60.057A2.368,2.368,0,0,1,99.1,61.81a3.018,3.018,0,0,1-.627.056c-1.19,0-2.381.012-3.57,0a.581.581,0,0,0-.58.318c-.222.375-.474.733-.722,1.092a1.707,1.707,0,0,1-1.955.768A1.735,1.735,0,0,1,90.4,62.352c-.007-.147-.014-.294-.023-.483-1.229,0-2.432,0-3.634,0a2.264,2.264,0,0,1-2.32-2.309c0-2.2-.016-4.4,0-6.6a2.231,2.231,0,0,1,2.327-2.3q5.876-.013,11.752,0a2.358,2.358,0,0,1,2.358,1.8Zm-4.491.322c.739,0,1.387,0,2.034,0,.705-.006.958-.25.96-.951q.008-3.165,0-6.329c0-.682-.252-.926-.928-.927q-2.554,0-5.109,0-3.255,0-6.51,0c-.576,0-.882.236-.884.732-.011,2.246-.008,4.491,0,6.736a.629.629,0,0,0,.578.7c.79.042,1.584.013,2.424.013a3.867,3.867,0,0,1,1.812-3.929c-.538-1.4-.368-2.348.527-3.041a2.138,2.138,0,0,1,2.643-.046,3.143,3.143,0,0,1,.843,1.133,2.16,2.16,0,0,1-.242,1.948,3.94,3.94,0,0,1,1.853,3.966m-1.512-.059a2.407,2.407,0,0,0-1.13-2.641,2.16,2.16,0,0,0-2.425.163A2.38,2.38,0,0,0,90.48,60.4h1.361a.594.594,0,0,1,.048.1c0,.557,0,1.115.019,1.671a1.306,1.306,0,0,0,.171.412,1.327,1.327,0,0,0,.34-.237,6.672,6.672,0,0,0,.624-.939c.367-.721.84-1.226,1.738-1.046.011,0,.026-.013.077-.041m-2.214-5.908a.731.731,0,0,0-.74.746.745.745,0,0,0,.758.734.733.733,0,0,0,.714-.729.722.722,0,0,0-.732-.751" transform="translate(-54.548 -32.735)" fill="#7f4fc7"/>
        <path id="Trazado_197106" data-name="Trazado 197106" d="M100.847,102.242a6.572,6.572,0,0,1-.263.62,2.122,2.122,0,0,1-1.933,1.2q-1.875.022-3.751,0a.584.584,0,0,0-.583.313c-.231.388-.49.759-.748,1.129a1.7,1.7,0,0,1-1.923.744,1.721,1.721,0,0,1-1.263-1.678c-.007-.148,0-.3,0-.5H88.5c-.6,0-1.205,0-1.808,0a2.2,2.2,0,0,1-2.277-2.2q-.052-3.39,0-6.78a2.228,2.228,0,0,1,2.4-2.226c2-.011,4.007,0,6.011,0,1.718,0,3.437.044,5.152-.013a2.574,2.574,0,0,1,2.868,1.8Zm-4.493.346c.725,0,1.357,0,1.989,0,.756,0,1.005-.248,1.007-1q.005-3.121,0-6.242c0-.738-.243-.976-.974-.976q-3.528,0-7.056,0c-1.523,0-3.045,0-4.568,0-.528,0-.831.257-.833.741q-.016,3.369,0,6.739a.636.636,0,0,0,.585.695c.788.045,1.581.014,2.413.014a3.89,3.89,0,0,1,1.814-3.936c-.535-1.405-.367-2.338.531-3.043a2.131,2.131,0,0,1,2.643-.043,3.085,3.085,0,0,1,.827,1.092,2.168,2.168,0,0,1-.226,1.987,3.948,3.948,0,0,1,1.851,3.975m-4.468,0c0,.661-.007,1.247.006,1.833a1.157,1.157,0,0,0,.132.352c.121-.063.284-.1.357-.195a10.358,10.358,0,0,0,.8-1.2c.312-.582.7-.95,1.417-.79a.7.7,0,0,0,.252-.043,2.426,2.426,0,0,0-1.143-2.659,2.117,2.117,0,0,0-2.458.194,2.5,2.5,0,0,0-.832,2.509Zm1.475-5.224a.736.736,0,0,0-1.472-.046.731.731,0,0,0,.715.77.722.722,0,0,0,.757-.725" transform="translate(-54.533 -59.993)" fill="#7f4fc7"/>
      </g>
    </g>
  </g>
</svg>
