<svg xmlns="http://www.w3.org/2000/svg" xmlns:xlink="http://www.w3.org/1999/xlink" width="105" height="105" viewBox="0 0 105 105">
  <defs>
    <clipPath id="clip-path">
      <rect id="Rectángulo_46649" data-name="Rectángulo 46649" width="66.472" height="67" fill="#7f4fc7"/>
    </clipPath>
  </defs>
  <g id="Grupo_155187" data-name="Grupo 155187" transform="translate(-194.958 -4153)">
    <circle id="Elipse_5774" data-name="Elipse 5774" cx="52.5" cy="52.5" r="52.5" transform="translate(194.958 4153)" fill="#fff"/>
    <g id="Grupo_155202" data-name="Grupo 155202" transform="translate(214.222 4172)">
      <g id="Grupo_155202-2" data-name="Grupo 155202" clip-path="url(#clip-path)">
        <path id="Trazado_197203" data-name="Trazado 197203" d="M1.305,0c.923.892,1.856,1.773,2.767,2.677,1.9,1.89,3.791,3.794,5.69,5.687a.992.992,0,0,1,.224,1.4c-.388.562-1.043.556-1.623-.02Q5.743,7.135,3.134,4.517,1.84,3.222.548,1.924C-.212,1.161-.184.677.651,0Z" transform="translate(0)" fill="#7f4fc7"/>
        <path id="Trazado_197204" data-name="Trazado 197204" d="M117.473,0c.834.676.864,1.166.1,1.927q-3.857,3.864-7.721,7.723c-.153.152-.33.392-.5.394a2.084,2.084,0,0,1-1.123-.2.793.793,0,0,1-.153-1.119,3,3,0,0,1,.471-.538q3.766-3.772,7.537-7.537c.229-.229.485-.431.729-.645Z" transform="translate(-51.652)" fill="#7f4fc7"/>
        <path id="Trazado_197205" data-name="Trazado 197205" d="M98.908,0a1.29,1.29,0,0,1,.5,1.644c-.353,1.143-.641,2.307-.967,3.459-.213.754-.647,1.062-1.257.917-.591-.14-.837-.66-.639-1.407.318-1.2.616-2.406.994-3.587A4.241,4.241,0,0,1,98.254,0Z" transform="translate(-46.174)" fill="#7f4fc7"/>
        <path id="Trazado_197206" data-name="Trazado 197206" d="M26.447,0a4.227,4.227,0,0,1,.715,1.027c.383,1.2.689,2.429,1.007,3.65.18.693-.087,1.212-.656,1.345-.6.139-1.033-.15-1.234-.856-.339-1.193-.636-2.4-1-3.586A1.257,1.257,0,0,1,25.793,0Z" transform="translate(-12.056)" fill="#7f4fc7"/>
        <path id="Trazado_197207" data-name="Trazado 197207" d="M14.278,49.82c.107-.6.178-1.205.33-1.792a4.232,4.232,0,0,0-1.155-4.316,6.062,6.062,0,0,1,.016-8.96A4.187,4.187,0,0,0,14.614,30.5a6.047,6.047,0,0,1,4.463-7.764,4.254,4.254,0,0,0,3.15-3.17,6.048,6.048,0,0,1,7.72-4.448,4.213,4.213,0,0,0,4.314-1.153,6.068,6.068,0,0,1,8.961.018,4.177,4.177,0,0,0,4.256,1.145,6.045,6.045,0,0,1,7.762,4.465,4.224,4.224,0,0,0,3.232,3.164A6.036,6.036,0,0,1,62.9,30.267a4.477,4.477,0,0,0,1.283,4.7,6,6,0,0,1-.017,8.575,4.479,4.479,0,0,0-1.261,4.7,6.039,6.039,0,0,1-4.4,7.484,4.279,4.279,0,0,0-3.294,3.259,6.047,6.047,0,0,1-7.641,4.4,4.262,4.262,0,0,0-4.423,1.178,6.041,6.041,0,0,1-8.817.028,4.3,4.3,0,0,0-4.477-1.2,6.041,6.041,0,0,1-7.605-4.372,4.351,4.351,0,0,0-3.325-3.313,6.139,6.139,0,0,1-4.652-5.888M61.2,28.648A4.094,4.094,0,0,0,58.12,24.7a6.354,6.354,0,0,1-4.854-4.856,4.006,4.006,0,0,0-5.036-2.882A6.329,6.329,0,0,1,41.654,15.2a4.036,4.036,0,0,0-5.86.012,6.267,6.267,0,0,1-6.515,1.76,4.026,4.026,0,0,0-5.087,2.9,6.378,6.378,0,0,1-4.807,4.827,4.036,4.036,0,0,0-2.916,5.132,6.206,6.206,0,0,1-1.7,6.41,4.075,4.075,0,0,0-.006,6.005,6.2,6.2,0,0,1,1.728,6.344,4.093,4.093,0,0,0,3.071,5.272,6.079,6.079,0,0,1,4.56,4.563,4.091,4.091,0,0,0,5.276,3.064,6.177,6.177,0,0,1,6.294,1.691,4.1,4.1,0,0,0,6.1-.016,6.088,6.088,0,0,1,6.232-1.679A4.121,4.121,0,0,0,53.353,58.4a6.03,6.03,0,0,1,4.512-4.527,4.138,4.138,0,0,0,3.1-5.377,6.119,6.119,0,0,1,1.659-6.183,4.9,4.9,0,0,0,1.065-1.541,3.939,3.939,0,0,0-.962-4.505A6.216,6.216,0,0,1,60.994,29.8c.1-.375.138-.769.2-1.153" transform="translate(-5.496 -5.741)" fill="#7f4fc7"/>
        <path id="Trazado_197208" data-name="Trazado 197208" d="M1.2,119.178c-.911-.009-1.38-.762-1.064-1.4a1.436,1.436,0,0,1,.272-.362q4.018-4.027,8.051-8.039a1.3,1.3,0,0,1,.8-.357.952.952,0,0,1,.815,1.411,2.332,2.332,0,0,1-.417.5q-3.858,3.864-7.727,7.717a4.814,4.814,0,0,1-.732.53" transform="translate(-0.018 -52.178)" fill="#7f4fc7"/>
        <path id="Trazado_197209" data-name="Trazado 197209" d="M118.187,118.095a1,1,0,0,1-1.46,1.012,2.634,2.634,0,0,1-.492-.425c-2.575-2.573-5.157-5.139-7.71-7.735a1.657,1.657,0,0,1-.457-1.063.965.965,0,0,1,.626-.706,1.456,1.456,0,0,1,1.089.315c1.637,1.568,3.225,3.186,4.829,4.789,1.033,1.033,2.072,2.06,3.089,3.108a4.247,4.247,0,0,1,.486.706" transform="translate(-51.721 -52.247)" fill="#7f4fc7"/>
        <path id="Trazado_197210" data-name="Trazado 197210" d="M26.414,122.934c-.889.013-1.388-.556-1.23-1.184.351-1.393.733-2.779,1.135-4.158a.973.973,0,1,1,1.87.541c-.352,1.348-.7,2.7-1.122,4.025-.112.35-.506.609-.652.775" transform="translate(-12.039 -55.941)" fill="#7f4fc7"/>
        <path id="Trazado_197211" data-name="Trazado 197211" d="M99.515,121.913a1,1,0,0,1-.825,1.014.856.856,0,0,1-1.05-.579c-.435-1.436-.827-2.886-1.2-4.341a.914.914,0,0,1,.729-1.076.926.926,0,0,1,1.173.678c.309,1.043.58,2.1.864,3.147.108.4.211.8.306,1.156" transform="translate(-46.146 -55.951)" fill="#7f4fc7"/>
        <path id="Trazado_197212" data-name="Trazado 197212" d="M117,28.065c-.611-.036-.97-.25-1.091-.735a.852.852,0,0,1,.529-1.125q2.184-.661,4.4-1.2a.86.86,0,0,1,1.034.7.829.829,0,0,1-.481,1.091c-1.489.479-3,.877-4.394,1.274" transform="translate(-55.452 -11.954)" fill="#7f4fc7"/>
        <path id="Trazado_197213" data-name="Trazado 197213" d="M1.126,24.988c.422.113.947.251,1.472.392.924.249,1.854.477,2.769.757a.953.953,0,0,1,.662,1.24.965.965,0,0,1-1.2.643c-1.368-.357-2.73-.737-4.087-1.13a.9.9,0,0,1-.7-1.1c.09-.508.441-.782,1.08-.8" transform="translate(-0.013 -11.959)" fill="#7f4fc7"/>
        <path id="Trazado_197214" data-name="Trazado 197214" d="M1.192,100.7c-.71-.026-1.051-.3-1.153-.808A.854.854,0,0,1,.615,98.84q2.152-.655,4.339-1.2a.863.863,0,0,1,1.06.657.843.843,0,0,1-.478,1.148c-1.49.473-3,.87-4.343,1.25" transform="translate(-0.008 -46.718)" fill="#7f4fc7"/>
        <path id="Trazado_197215" data-name="Trazado 197215" d="M121.918,99.507c-.022.814-.525,1.3-1.111,1.156-1.458-.346-2.907-.741-4.343-1.17a.862.862,0,0,1-.553-1.169.875.875,0,0,1,1.11-.669c1.413.353,2.823.727,4.209,1.173.322.1.541.526.689.679" transform="translate(-55.449 -46.722)" fill="#7f4fc7"/>
        <path id="Trazado_197216" data-name="Trazado 197216" d="M65.494,44.662A21.467,21.467,0,1,1,40.859,23.449c.237-.034.473-.089.711-.1a.958.958,0,0,1,1.073.829.98.98,0,0,1-.852,1.12c-1.044.214-2.107.362-3.13.649a19.45,19.45,0,1,0,8.907-.459c-.363-.071-.732-.117-1.1-.169-.751-.106-1.171-.532-1.094-1.113.08-.607.582-.934,1.321-.838a21.437,21.437,0,0,1,18.8,21.294" transform="translate(-10.795 -11.174)" fill="#7f4fc7"/>
        <path id="Trazado_197217" data-name="Trazado 197217" d="M47.308,53.717a5.243,5.243,0,0,1,.466-.654q4.571-4.586,9.155-9.161a3.079,3.079,0,0,1,4.854,0c.738.741,1.491,1.47,2.213,2.227a2.991,2.991,0,0,1-.031,4.384c-2.593,2.617-5.209,5.213-7.811,7.822a1.039,1.039,0,0,1-1.336.328.95.95,0,0,1-.2-1.553c.533-.576,1.1-1.115,1.659-1.671q3.053-3.053,6.1-6.106c.788-.79.79-1.258.01-2.045q-1.013-1.022-2.037-2.033c-.753-.739-1.257-.739-2,0q-5.021,5.016-10.038,10.036c-.915.914-1.257.916-2.158.016q-1.782-1.78-3.563-3.56c-.765-.761-1.244-.762-2-.014-.789.784-1.579,1.567-2.358,2.359a1.1,1.1,0,0,0,.005,1.81q3.392,3.408,6.8,6.8a2.7,2.7,0,0,0,3.971-.009c.751-.728,1.478-1.483,2.225-2.215a.989.989,0,1,1,1.394,1.368c-.794.809-1.582,1.626-2.41,2.4a4.6,4.6,0,0,1-6.4-.007c-2.429-2.349-4.807-4.75-7.177-7.16a2.943,2.943,0,0,1-.021-4.139q1.391-1.474,2.864-2.871a2.99,2.99,0,0,1,4.241.051c.579.562,1.143,1.138,1.712,1.711s1.133,1.147,1.863,1.887" transform="translate(-17.128 -20.445)" fill="#7f4fc7"/>
      </g>
    </g>
  </g>
</svg>
