<svg xmlns="http://www.w3.org/2000/svg" xmlns:xlink="http://www.w3.org/1999/xlink" width="105" height="105" viewBox="0 0 105 105">
  <defs>
    <clipPath id="clip-path">
      <rect id="Rectángulo_46637" data-name="Rectángulo 46637" width="63.112" height="67.926" fill="#7f4fc7"/>
    </clipPath>
  </defs>
  <g id="Grupo_155200" data-name="Grupo 155200" transform="translate(-194.958 -4153)">
    <circle id="Elipse_5774" data-name="Elipse 5774" cx="52.5" cy="52.5" r="52.5" transform="translate(194.958 4153)" fill="#fff"/>
    <g id="Grupo_155197" data-name="Grupo 155197" transform="translate(216.43 4171.11)">
      <g id="Grupo_155197-2" data-name="Grupo 155197" transform="translate(0 0)" clip-path="url(#clip-path)">
        <path id="Trazado_197189" data-name="Trazado 197189" d="M.777,77.82A1.575,1.575,0,0,1,.13,76.4C.1,70.916.045,65.434,0,59.952c-.011-1.28.248-1.533,1.555-1.534H2.677V51.263c0-.177-.008-.355.009-.53A1.025,1.025,0,0,1,3.7,49.716a.986.986,0,0,1,.958,1.056c.015,2.255.008,4.509.009,6.764v.831H15.987a17.379,17.379,0,0,1,3-17.006H18.2q-4.908,0-9.815,0c-1.126,0-1.4-.277-1.4-1.411q0-7.892,0-15.784c0-1.124.282-1.4,1.412-1.4q6.3,0,12.6,0c1.063,0,1.377.313,1.377,1.388q0,6.665,0,13.33v.757c6.922-4,13.79-4.165,20.145.8s7.809,11.66,5.616,19.322H53.6V57.56q0-9.782,0-19.564a3.235,3.235,0,0,1,.057-.788.974.974,0,0,1,1.919.163c.019.22.011.442.011.663q0,9.749,0,19.5v.886c.487,0,.92,0,1.353,0,1.039.008,1.33.3,1.331,1.352,0,3.714.011,7.428-.009,11.141a1.456,1.456,0,0,0,.485,1.157c1.284,1.247,2.541,2.523,3.8,3.792.769.773.744,1.258-.088,1.96H61.8c-.249-.215-.512-.416-.745-.648q-3.941-3.93-7.873-7.868c-.153-.152-.313-.3-.439-.416l-4.272,4.278c.884.881,1.806,1.793,2.721,2.713.773.777.734,1.275-.138,1.94H11.39c-.477-.311-.832-.7-.619-1.313s.724-.716,1.3-.678c.154.01.309,0,.464,0h35.66c-.033-.116-.032-.166-.056-.191q-.7-.709-1.4-1.412c-.956-.957-.966-1.174-.1-2.192.023-.027.013-.081.008-.041l-1.918-1.969c-1.138.918-1.283.909-2.354-.161-.625-.625-1.276-1.227-1.866-1.883a.756.756,0,0,0-1.069-.175,17.043,17.043,0,0,1-22.2-6.866.919.919,0,0,0-.926-.541c-4.531.016-9.062.009-13.593.011-.231,0-.461.027-.629.037V75.83c1.591,0,3.087.008,4.582,0,.561,0,1.071.05,1.306.664s-.149.986-.571,1.33ZM32.018,67.5A15.072,15.072,0,1,0,16.96,52.384,15.023,15.023,0,0,0,32.018,67.5m-23-28.191h11.33V24.789H9.021ZM47.086,60.444c1.025,1.006,1.915,1.863,2.785,2.74a1,1,0,0,1,.058,1.569l-.295.347,1.938,1.973c.063-.047.137-.093.2-.15.785-.7,1.145-.7,1.9.054.548.544,1.092,1.093,1.64,1.638.284.283.57.562.929.915V60.444ZM43.507,68.16l4.225-4.186-1.58-1.635-4.2,4.2,1.558,1.619m6.458.453L48.19,66.771l-1.818,1.823,1.785,1.891,1.807-1.872" transform="translate(0 -9.894)" fill="#7f4fc7"/>
        <path id="Trazado_197190" data-name="Trazado 197190" d="M31.2,10.582H7.727c-1,0-1,0-1,1.032V35.288c0,.176,0,.353,0,.53-.008.908-.34,1.348-1.006,1.335s-.981-.451-.982-1.373q0-12.267,0-24.535A2.616,2.616,0,0,1,5.8,8.946a.884.884,0,0,0,.266-.6c.039-.595.01-1.193.027-1.789a2.425,2.425,0,0,1,.944-1.822,1.223,1.223,0,0,0,.374-.742c.058-.591,0-1.193.033-1.788A2.291,2.291,0,0,1,9.679.006c.2-.01.4,0,.6,0H52.118c2.026,0,2.856.829,2.857,2.854a5.753,5.753,0,0,1,0,.663,1.519,1.519,0,0,0,.6,1.467,3.27,3.27,0,0,1,.714,1.5A3.234,3.234,0,0,1,56.3,7.605a1.847,1.847,0,0,0,.642,1.72,2.528,2.528,0,0,1,.67,1.7c.057,3.89.032,7.78.028,11.67,0,.752-.349,1.17-.95,1.188-.632.018-1.031-.417-1.033-1.187-.008-3.316,0-6.631,0-9.947,0-.552-.009-1.105,0-1.658.007-.367-.157-.527-.518-.513-.2.007-.4,0-.6,0H31.2M8.162,8.542H54.319V7.369c0-1.1,0-1.1-1.073-1.1H10.018c-2.142,0-2.142,0-1.916,2.155a.616.616,0,0,0,.059.116M52.984,4.249V3.026c0-1.033,0-1.034-1-1.034H10.4c-.155,0-.34-.053-.457.013-.194.109-.472.283-.49.452a17.58,17.58,0,0,0-.023,1.792Z" transform="translate(-2.056 0)" fill="#7f4fc7"/>
        <path id="Trazado_197191" data-name="Trazado 197191" d="M57.309,24.751q-5.864,0-11.728,0a2.938,2.938,0,0,1-.66-.028.985.985,0,0,1,.041-1.944,3.316,3.316,0,0,1,.6-.016H69.014a3.8,3.8,0,0,1,.6.014.986.986,0,0,1,.022,1.954,3.428,3.428,0,0,1-.661.021H57.309" transform="translate(-19.175 -9.89)" fill="#7f4fc7"/>
        <path id="Trazado_197192" data-name="Trazado 197192" d="M57.231,32.321q-5.77,0-11.541,0a5.478,5.478,0,0,1-.728-.024.912.912,0,0,1-.841-.883.9.9,0,0,1,.684-1.006,2.563,2.563,0,0,1,.719-.073q11.773-.005,23.546,0c.261,0,.61-.038.765.106.278.258.622.658.6.969s-.432.645-.746.86c-.185.127-.515.05-.78.05q-5.837,0-11.674,0" transform="translate(-19.174 -13.182)" fill="#7f4fc7"/>
        <path id="Trazado_197193" data-name="Trazado 197193" d="M53.309,39.928q-3.876,0-7.752,0a2.864,2.864,0,0,1-.721-.064.9.9,0,0,1-.717-.981.908.908,0,0,1,.808-.909,3.95,3.95,0,0,1,.66-.032q7.686,0,15.372,0a3.833,3.833,0,0,1,.66.032.971.971,0,0,1,.1,1.891,2.835,2.835,0,0,1-.721.063q-3.843.007-7.686,0" transform="translate(-19.175 -16.489)" fill="#7f4fc7"/>
        <path id="Trazado_197194" data-name="Trazado 197194" d="M46.82,78.191A12.791,12.791,0,1,1,59.612,65.426,12.8,12.8,0,0,1,46.82,78.191M46.85,76.2a10.8,10.8,0,1,0-10.832-10.77A10.792,10.792,0,0,0,46.85,76.2" transform="translate(-14.79 -22.866)" fill="#7f4fc7"/>
        <path id="Trazado_197195" data-name="Trazado 197195" d="M52.079,75.041H47c-.468,0-.588-.118-.582-.594.008-.593-.008-1.19.048-1.779A2.328,2.328,0,0,1,47.878,70.7c.429-.2.895-.327,1.323-.533a2.973,2.973,0,0,0,.832-.56c.226-.23.172-.356-.078-.566a3.065,3.065,0,0,1-1.209-2.237,13.323,13.323,0,0,1,.078-2.847,3.362,3.362,0,0,1,6.612.367,15.6,15.6,0,0,1-.008,2.585,3.05,3.05,0,0,1-1.262,2.179c-.155.121-.2.249-.093.38a2.129,2.129,0,0,0,.543.533,6.484,6.484,0,0,0,.92.375c.2.079.4.151.6.236a2.549,2.549,0,0,1,1.622,2.454c.014.485.006.971,0,1.458,0,.377-.141.514-.526.514H52.079" transform="translate(-20.177 -26.673)" fill="#7f4fc7"/>
      </g>
    </g>
  </g>
</svg>
