<svg xmlns="http://www.w3.org/2000/svg" xmlns:xlink="http://www.w3.org/1999/xlink" width="138.437" height="121.684" viewBox="0 0 138.437 121.684">
  <defs>
    <clipPath id="clip-path">
      <rect id="Rectángulo_46425" data-name="Rectángulo 46425" width="121.659" height="121.684" fill="#2194e5"/>
    </clipPath>
  </defs>
  <g id="Grupo_154838" data-name="Grupo 154838" transform="translate(-1182.563 -8634.557)">
    <g id="Grupo_154836" data-name="Grupo 154836" transform="translate(1282.915 8679.718)">
      <rect id="Rectángulo_45221" data-name="Rectángulo 45221" width="7.254" height="7.254" transform="translate(30.83 0)" fill="#7f4fc7"/>
      <rect id="Rectángulo_45222" data-name="Rectángulo 45222" width="7.254" height="7.254" transform="translate(15.415 0)" fill="#7f4fc7"/>
      <rect id="Rectángulo_45223" data-name="Rectángulo 45223" width="7.254" height="7.254" transform="translate(0 0)" fill="#7f4fc7"/>
      <rect id="Rectángulo_45232" data-name="Rectángulo 45232" width="7.254" height="7.254" transform="translate(30.83 15.415)" fill="#7f4fc7"/>
      <rect id="Rectángulo_45233" data-name="Rectángulo 45233" width="7.254" height="7.254" transform="translate(15.415 15.415)" fill="#7f4fc7"/>
      <rect id="Rectángulo_45234" data-name="Rectángulo 45234" width="7.254" height="7.254" transform="translate(0 15.415)" fill="#7f4fc7"/>
      <rect id="Rectángulo_45243" data-name="Rectángulo 45243" width="7.254" height="7.254" transform="translate(30.83 30.831)" fill="#7f4fc7"/>
      <rect id="Rectángulo_45244" data-name="Rectángulo 45244" width="7.254" height="7.254" transform="translate(15.415 30.831)" fill="#7f4fc7"/>
      <rect id="Rectángulo_45245" data-name="Rectángulo 45245" width="7.254" height="7.254" transform="translate(0 30.831)" fill="#7f4fc7"/>
    </g>
    <g id="Grupo_154837" data-name="Grupo 154837" transform="translate(1182.563 8634.557)">
      <g id="Grupo_154836-2" data-name="Grupo 154836" clip-path="url(#clip-path)">
        <path id="Trazado_196772" data-name="Trazado 196772" d="M8.112,64.9c-1.891,0-3.654,0-5.417,0C.654,64.888.006,64.223,0,62.134Q0,58.9,0,55.671c0-2.356.561-2.926,2.884-2.942.333,0,.667,0,1.17,0V51.319q0-13.118,0-26.235c0-2.155.623-2.771,2.794-2.774,2.323,0,4.647-.013,6.97,0,1.653.011,2.376.746,2.4,2.408.015,1.173,0,2.347,0,3.662,1.911,0,3.714-.008,5.516,0,1.906.009,2.591.689,2.594,2.6.005,7.18,0,14.361,0,21.643H38.457V44.617c-1.246,0-2.5.011-3.756,0a6.091,6.091,0,0,1-6.308-6.32q-.023-15.97,0-31.94a6.079,6.079,0,0,1,6.4-6.349q26.041-.011,52.081,0a6.078,6.078,0,0,1,6.389,6.359q.023,15.97,0,31.94a6.094,6.094,0,0,1-6.319,6.31c-1.255.014-2.509,0-3.786,0v8.033H97.326c0-.661-.012-1.281,0-1.9a6.108,6.108,0,0,1,6.245-6.126q1.838-.017,3.674,0a6.113,6.113,0,0,1,6.29,6.213c.009.583,0,1.166,0,1.9,1.9,0,3.7-.005,5.5,0,1.911.008,2.605.689,2.613,2.578q.013,3.549,0,7.1c-.01,1.745-.728,2.472-2.457,2.488-1.814.015-3.63,0-5.654,0v1.49q0,26.11,0,52.219c0,2.517-.546,3.074-3.017,3.075q-3.168,0-6.336,0c-2.162,0-2.8-.635-2.8-2.779q0-26.173,0-52.345V64.972c-.447-.029-.813-.073-1.177-.073-5.449,0-10.9.01-16.347-.019a1.487,1.487,0,0,0-1.559.894,5.822,5.822,0,0,1-5.387,3.171c-3.286.022-6.571.005-9.929.005v4.058h1.3c3.548,0,7.1-.013,10.644,0a6.082,6.082,0,1,1-.006,12.159c-2.608.019-5.215,0-7.95,0,0,1.8,0,3.475,0,5.154,0,2.357-.565,2.932-2.882,2.949-.333,0-.667,0-1.089,0V101.4c2.359,0,4.718.13,7.058-.028a6.306,6.306,0,0,1,7.03,7,1.965,1.965,0,0,0,1.2,2.153,5.869,5.869,0,0,1,2.61,6.8A6.158,6.158,0,0,1,79,121.673a6.1,6.1,0,0,1-5.779-4.487,6.007,6.007,0,0,1,2.741-6.766,2.9,2.9,0,0,0,1.011-3.446,2.079,2.079,0,0,0-2.321-1.527c-3.879.023-7.758.009-11.793.009,0,1.379-.07,2.678.046,3.961.032.345.589.708.977.943a6.069,6.069,0,1,1-9.12,4.921,5.754,5.754,0,0,1,3.211-4.976,1.35,1.35,0,0,0,.838-1.465c-.043-1.086-.012-2.175-.012-3.383H48.071c-3.107,0-3.814.764-3.422,3.865.046.368.528.768.9.993a6.068,6.068,0,1,1-8.655,7.4,5.679,5.679,0,0,1,2.149-6.929,3.01,3.01,0,0,0,1.54-3.137,6.025,6.025,0,0,1,6.225-6.245c1.563-.013,3.126,0,4.689,0h3.142V93.278c-.537,0-1.108.014-1.679,0A2.056,2.056,0,0,1,50.7,90.988c-.026-1.891-.006-3.783-.006-5.812-2.755,0-5.4.023-8.049-.006a6.028,6.028,0,0,1-5.9-7.8,5.865,5.865,0,0,1,5.712-4.352c3.59-.031,7.18-.009,10.771-.009h1.445V68.952c-3.162,0-6.277-.036-9.391.012a6.335,6.335,0,0,1-6.131-3.476,1.291,1.291,0,0,0-.943-.566c-5.91-.033-11.821-.024-17.925-.024V66.4q0,26.108,0,52.217c0,2.509-.543,3.056-3.031,3.057-2.238,0-4.478.013-6.717-.005-1.661-.013-2.408-.746-2.412-2.4q-.017-9.759,0-19.519c0-1.543.719-2.385,1.988-2.407,1.316-.022,2.058.842,2.06,2.461.008,5.871,0,11.742,0,17.711h3.972V64.964H12.167V66.28c0,4.858.038,9.715-.046,14.572a2.706,2.706,0,0,1-1.014,1.96,2.223,2.223,0,0,1-2.069-.077,2.9,2.9,0,0,1-.887-2.046c-.075-4.73-.04-9.462-.04-14.195V64.9m24.33-32.448c3.626,0,7.046.018,10.466-.024a1.766,1.766,0,0,0,1.169-.538,22.343,22.343,0,0,1,33.487,0,1.5,1.5,0,0,0,.919.539c3.535.037,7.07.024,10.73.024V31.1q0-12.1,0-24.2c0-2.259-.577-2.833-2.85-2.833H35.3c-2.282,0-2.858.569-2.858,2.822q0,12.1,0,24.206ZM66.91,64.9c3.3,0,6.453.006,9.609,0,1.89-.005,2.551-.687,2.554-2.626.005-5.194.011-10.389-.009-15.582a21.444,21.444,0,0,0-.216-2.772,18.226,18.226,0,0,0-36.233,1.863c-.133,5.614-.042,11.233-.028,16.85a2,2,0,0,0,2.268,2.263c3.125.023,6.249.006,9.373,0a2.445,2.445,0,0,0,.516-.125c0-3.881-.006-7.72,0-11.558.008-3.781,2.578-6.549,6.068-6.554s6.088,2.767,6.1,6.527c.008,3.841,0,7.681,0,11.72m42.484.064H105.5v52.6h3.89ZM4.118,60.756H38.425V56.848H4.118Zm79.068-.005h34.352v-3.9H83.186ZM62.811,81.065c.019-.316.042-.521.042-.727q0-13.613,0-27.224a3.307,3.307,0,0,0-.04-.756,1.911,1.911,0,0,0-1.964-1.634,1.886,1.886,0,0,0-1.994,1.589,4.857,4.857,0,0,0-.054,1.135q0,13.233,0,26.465c0,.367.032.735.051,1.152ZM12.076,26.426h-3.9V52.674h3.9Zm8.1,6.084H16.3V52.681h3.881Zm34.5,44.565c-4.177,0-8.265-.027-12.354.019a1.829,1.829,0,0,0-1.767,1.948,1.852,1.852,0,0,0,1.8,2.047c4.085.047,8.171.018,12.318.018ZM66.96,81.119c4.063,0,7.988.011,11.911-.006a1.952,1.952,0,0,0,2.222-2.03c0-1.257-.8-2.006-2.233-2.014-3.125-.015-6.25-.005-9.375-.005H66.96Zm-.11,4.142h-12v3.9h12ZM58.9,101.334h3.884v-8H58.9ZM101.385,52.64h8.1c0-.5,0-.921,0-1.339-.012-1.98-.659-2.622-2.661-2.628-1.094,0-2.19-.023-3.284.006A1.979,1.979,0,0,0,101.39,50.8c-.028.584-.005,1.17-.005,1.845M32.442,36.568c0,.51,0,.963,0,1.417.015,1.909.673,2.563,2.6,2.574,1.182.008,2.364.031,3.543-.018.314-.013.8-.188.9-.42.5-1.142.891-2.329,1.339-3.553Zm48.434-.02c1.113,4.014,1.113,4.014,5.034,4.013a13.648,13.648,0,0,0,1.391-.019,1.91,1.91,0,0,0,1.886-1.859c.065-.694.011-1.4.011-2.135ZM44.6,115.568a2.018,2.018,0,1,0-1.96,2.043,2.01,2.01,0,0,0,1.96-2.043m16.271,2.043a2.019,2.019,0,1,0-2.061-1.941,2.008,2.008,0,0,0,2.061,1.941m18.219-4.036a2.019,2.019,0,1,0,2,2.007,2.018,2.018,0,0,0-2-2.007" transform="translate(0 0)" fill="#2194e5"/>
        <path id="Trazado_196773" data-name="Trazado 196773" d="M6.349,71.253V71c.006-1.842.675-2.752,2.025-2.753S10.4,69.158,10.4,71c0,.463.02.928-.01,1.389a1.917,1.917,0,0,1-2.016,1.966A1.916,1.916,0,0,1,6.36,72.39c-.026-.378,0-.758,0-1.137Z" transform="translate(1.762 18.948)" fill="#2194e5"/>
      </g>
    </g>
  </g>
</svg>
