<svg xmlns="http://www.w3.org/2000/svg" xmlns:xlink="http://www.w3.org/1999/xlink" width="77" height="77" viewBox="0 0 77 77">
  <defs>
    <clipPath id="clip-path">
      <rect id="Rectángulo_46452" data-name="Rectángulo 46452" width="43.174" height="43.324" fill="#fff"/>
    </clipPath>
  </defs>
  <g id="Grupo_154891" data-name="Grupo 154891" transform="translate(-0.188 0.471)">
    <circle id="Elipse_5798" data-name="Elipse 5798" cx="38.5" cy="38.5" r="38.5" transform="translate(0.188 76.529) rotate(-90)" fill="#2194e5"/>
    <g id="Grupo_154886" data-name="Grupo 154886" transform="translate(17.273 16.635)">
      <g id="Grupo_154885" data-name="Grupo 154885" transform="translate(0 0)" clip-path="url(#clip-path)">
        <path id="Trazado_196836" data-name="Trazado 196836" d="M40.712,43.324H.942A1.633,1.633,0,0,1,0,41.619Q.024,21.572.011,1.525C.011.48.487.007,1.537.007Q12.26.006,22.983,0a1.874,1.874,0,0,1,1.425.6q4,4.02,8.016,8.015a1.87,1.87,0,0,1,.6,1.425c-.014,4.173-.008,8.346-.008,12.519v.476l.258-.139A5.452,5.452,0,0,1,41.39,26.9a29.11,29.11,0,0,1,.078,3.673.509.509,0,0,0,.276.5,2.792,2.792,0,0,1,1.414,2.451q.033,3.447,0,6.894a2.779,2.779,0,0,1-1.341,2.408,7.6,7.6,0,0,1-1.1.493M1.872,41.712H29.395V41.38c0-2.383-.005-4.766,0-7.15a2.965,2.965,0,0,1,1.4-2.619.718.718,0,0,0,.38-.7q-.014-9.97-.007-19.94v-.5h-.541q-3.4,0-6.8,0a1.371,1.371,0,0,1-1.547-1.56q0-3.42,0-6.839v-.46H1.872Zm34.287-.274q2.272,0,4.544,0c.676,0,.795-.119.795-.8q0-3.691,0-7.382c0-.664-.123-.795-.752-.795q-4.568,0-9.135,0c-.611,0-.746.135-.746.751q0,3.741,0,7.482c0,.611.137.745.752.746q2.271,0,4.543,0m3.754-10.823c0-1.188.015-2.335,0-3.48a3.455,3.455,0,0,0-3.144-3.394,3.327,3.327,0,0,0-3.653,2.8,33.2,33.2,0,0,0-.033,4.077ZM23.116,1.359c0,1.755.061,5.444.092,7.167a.955.955,0,0,0,.941.938l7.422.108s-6.137-5.895-8.455-8.213" transform="translate(0 0.001)" fill="#fff"/>
        <path id="Trazado_196837" data-name="Trazado 196837" d="M20.713,68.981q-2.978,0-5.957,0a.818.818,0,0,1-.8-1.154.807.807,0,0,1,.789-.485h2.377q4.768,0,9.536,0a.82.82,0,0,1,.824,1.142.832.832,0,0,1-.836.5q-2.705,0-5.41,0h-.519" transform="translate(-8.789 -42.661)" fill="#fff"/>
        <path id="Trazado_196838" data-name="Trazado 196838" d="M21.518,80.664q3.329,0,6.657,0a.914.914,0,0,1,.914,1.26.886.886,0,0,1-.862.57c-.6.007-1.2,0-1.8,0H15.005a1.887,1.887,0,0,1-.395-.023.914.914,0,0,1,.22-1.808q3.069-.006,6.137,0h.55" transform="translate(-8.793 -51.102)" fill="#fff"/>
        <path id="Trazado_196839" data-name="Trazado 196839" d="M19.987,94.25c1.7,0,3.406,0,5.109,0a.966.966,0,1,1-.042,1.928q-2.844,0-5.687,0c-1.489,0-2.978,0-4.467,0a.96.96,0,0,1-.925-1.37.978.978,0,0,1,.967-.56c1.682,0,3.363,0,5.045,0" transform="translate(-8.791 -59.708)" fill="#fff"/>
        <path id="Trazado_196840" data-name="Trazado 196840" d="M62.624,39.218c-.654,0-1.308,0-1.963,0a1.019,1.019,0,1,1,.013-2.032q1.946,0,3.892,0a1.021,1.021,0,1,1-.014,2.033c-.643,0-1.286,0-1.929,0" transform="translate(-37.74 -23.556)" fill="#fff"/>
        <path id="Trazado_196841" data-name="Trazado 196841" d="M62.619,50.318c-.654,0-1.308,0-1.963,0a1.018,1.018,0,1,1-.011-2.031q1.98-.007,3.959,0a1.016,1.016,0,1,1,.011,2.03c-.666.007-1.331,0-2,0" transform="translate(-37.74 -30.587)" fill="#fff"/>
        <path id="Trazado_196842" data-name="Trazado 196842" d="M95.189,97.548c0-.281-.01-.563,0-.843a1.265,1.265,0,0,1,2.529,0c.019.59.021,1.181,0,1.77a1.264,1.264,0,0,1-2.527,0c-.016-.308,0-.618,0-.927" transform="translate(-60.301 -60.479)" fill="#fff"/>
        <path id="Trazado_196843" data-name="Trazado 196843" d="M20.289,32.084h-6.8c-.626,0-.788-.158-.779-.8.011-.795-.012-1.594.064-2.384a3.121,3.121,0,0,1,1.886-2.636c.575-.273,1.2-.439,1.773-.714a3.989,3.989,0,0,0,1.115-.751c.3-.308.231-.478-.1-.759a4.107,4.107,0,0,1-1.621-3,17.863,17.863,0,0,1,.105-3.815,4.506,4.506,0,0,1,8.862.491,20.954,20.954,0,0,1-.01,3.465,4.089,4.089,0,0,1-1.692,2.921c-.208.162-.267.333-.126.509a2.868,2.868,0,0,0,.727.714,8.675,8.675,0,0,0,1.234.5c.269.106.542.2.807.317A3.416,3.416,0,0,1,27.9,29.441c.018.651.007,1.3,0,1.954,0,.505-.19.689-.706.689q-3.455,0-6.911,0m-6.444-1.11H26.808c0-.59.028-1.157-.006-1.72a2.313,2.313,0,0,0-1.571-2.14c-.313-.125-.629-.242-.947-.354-1.036-.366-2.05-.758-2.409-1.889a13.217,13.217,0,0,1-1.584.18,12.806,12.806,0,0,1-1.556-.187,2.806,2.806,0,0,1-1.892,1.71c-.56.219-1.134.408-1.683.652A2.053,2.053,0,0,0,13.856,29c-.053.644-.011,1.3-.011,1.972M23.81,19.426l-.045,0c0-.4.014-.8,0-1.194a3.471,3.471,0,0,0-3.045-3.37,3.348,3.348,0,0,0-3.748,2.668,13.833,13.833,0,0,0-.088,3.277,3.435,3.435,0,0,0,6.778.489,13.589,13.589,0,0,0,.151-1.868" transform="translate(-8.05 -8.717)" fill="#fff"/>
      </g>
    </g>
  </g>
</svg>
