<svg xmlns="http://www.w3.org/2000/svg" xmlns:xlink="http://www.w3.org/1999/xlink" width="141" height="118.085" viewBox="0 0 141 118.085">
  <defs>
    <clipPath id="clip-path">
      <rect id="Rectángulo_46428" data-name="Rectángulo 46428" width="136.91" height="118.085" transform="translate(0 0)" fill="#2194e5"/>
    </clipPath>
  </defs>
  <g id="Grupo_154438" data-name="Grupo 154438" transform="translate(8.411)">
    <g id="Grupo_152595" data-name="Grupo 152595" transform="translate(94.504 47.167)">
      <rect id="Rectángulo_45221" data-name="Rectángulo 45221" width="7.254" height="7.254" transform="translate(30.83 0)" fill="#7f4fc7"/>
      <rect id="Rectángulo_45222" data-name="Rectángulo 45222" width="7.254" height="7.254" transform="translate(15.415 0)" fill="#7f4fc7"/>
      <rect id="Rectángulo_45223" data-name="Rectángulo 45223" width="7.254" height="7.254" transform="translate(0 0)" fill="#7f4fc7"/>
      <rect id="Rectángulo_45232" data-name="Rectángulo 45232" width="7.254" height="7.254" transform="translate(30.83 15.415)" fill="#7f4fc7"/>
      <rect id="Rectángulo_45233" data-name="Rectángulo 45233" width="7.254" height="7.254" transform="translate(15.415 15.415)" fill="#7f4fc7"/>
      <rect id="Rectángulo_45234" data-name="Rectángulo 45234" width="7.254" height="7.254" transform="translate(0 15.415)" fill="#7f4fc7"/>
      <rect id="Rectángulo_45243" data-name="Rectángulo 45243" width="7.254" height="7.254" transform="translate(30.83 30.831)" fill="#7f4fc7"/>
      <rect id="Rectángulo_45244" data-name="Rectángulo 45244" width="7.254" height="7.254" transform="translate(15.415 30.831)" fill="#7f4fc7"/>
      <rect id="Rectángulo_45245" data-name="Rectángulo 45245" width="7.254" height="7.254" transform="translate(0 30.831)" fill="#7f4fc7"/>
    </g>
    <g id="Grupo_154841" data-name="Grupo 154841" transform="translate(-8.411)">
      <g id="Grupo_154841-2" data-name="Grupo 154841" clip-path="url(#clip-path)">
        <path id="Trazado_196788" data-name="Trazado 196788" d="M73.6,7.466c.665-.256,1.2-.493,1.751-.669,14.4-4.578,27.261-1.5,38.017,8.769,11.34,10.831,14.317,24.315,10.369,39.379a4.137,4.137,0,0,0,.537,3.731c1.668,2.43,3.227,4.934,4.826,7.411.679,1.052,1.345,2.114,2.067,3.25C127.008,71.623,123.034,73.866,119,76a3.523,3.523,0,0,0-2.081,3.532c.057,5.507.021,11.016.021,16.524v1.592c-.541,0-.879.027-1.212,0Q104.721,96.6,93.712,95.56c-2.179-.2-3.12.641-3.131,2.824-.014,2.852,0,5.7,0,8.557,0,2.1,0,4.2,0,6.177-.209.141-.248.19-.287.19-1.474.019-2.949.021-4.423.051-1.663.035-2.647.895-2.675,2.306-.029,1.472.981,2.388,2.723,2.406,2.114.022,4.228.013,6.343,0,2.22-.009,3.03-.8,3.036-3.011.011-4.328,0-8.656,0-12.984v-1.663c7.709.735,15.241,1.431,22.767,2.183,2.69.269,3.592-.472,3.6-3.223.006-5.852.041-11.705-.028-17.557a2.6,2.6,0,0,1,1.568-2.747c3.918-2.043,7.761-4.23,11.627-6.372,2.37-1.313,2.642-2.365,1.2-4.6-2.291-3.552-4.564-7.114-6.9-10.634a2.881,2.881,0,0,1-.471-2.574,43.183,43.183,0,0,0,.925-17.689C125.184,8.452,95.41-8.209,69.4,4.122a2.525,2.525,0,0,1-1.893,0c-12.521-5.749-24.935-5.443-37.226.64a40.233,40.233,0,0,0-12.469,9.748c-1.083,1.24-1.128,2.611-.145,3.551a2.531,2.531,0,0,0,3.653-.382c.273-.283.521-.59.791-.875C29.247,9.277,38,5.067,48.352,4.829c13.853-.318,24.6,5.694,32.485,16.986.645.924,1.181,1.925,1.755,2.9.9,1.536,2.127,2.018,3.4,1.327,1.246-.677,1.524-1.971.767-3.575-.021-.045-.037-.091-.059-.135A37.267,37.267,0,0,0,77.08,10.156c-1.088-.9-2.236-1.732-3.481-2.69M5.728,69.311c2.37-3.66,4.634-7.214,6.966-10.724a3.8,3.8,0,0,0,.528-3.465,39.363,39.363,0,0,1,.083-23.089c.561-1.879.034-3.218-1.4-3.614-1.387-.382-2.536.425-3.076,2.2a43.612,43.612,0,0,0-.637,23.992,3.5,3.5,0,0,1-.559,3.115C5.316,61.2,3.071,64.717.808,68.227-.531,70.3-.244,71.406,1.951,72.62c3.953,2.187,7.895,4.392,11.88,6.519a2.311,2.311,0,0,1,1.45,2.374c-.073,6.1-.044,12.192-.026,18.289.006,2.066.958,3.039,2.833,2.87,4.4-.4,8.8-.85,13.2-1.271,3.4-.325,6.8-.638,10.32-.968V102.2c0,4.376-.013,8.752.007,13.127.009,1.857.868,2.741,2.695,2.745q12.165.025,24.331.006a3.375,3.375,0,0,0,.734-.044,2.344,2.344,0,0,0-.035-4.633,8.352,8.352,0,0,0-1.325-.041q-10.027,0-20.055,0H46.332c0-5.173.011-10.134-.006-15.094-.007-1.959-.96-2.9-2.809-2.736-5.186.468-10.369.978-15.553,1.469-2.618.247-5.236.487-8,.744V95.943c0-5.507-.03-11.014.018-16.52a3.421,3.421,0,0,0-2.034-3.413c-2.789-1.445-5.521-3-8.274-4.514C8.4,70.791,7.117,70.08,5.728,69.311m53.207-7.729H57.083c-3.146,0-6.292.05-9.436-.012-4.563-.09-5.144.216-4.981,4.921.019.545,0,1.092,0,1.689C37.3,62.807,32.1,57.61,26.817,52.329L42.556,38.187c.052.715.1,1.137.109,1.56.043,2.942.606,3.5,3.578,3.5q5.6,0,11.206,0c.8,0,1.406.011,1.9.937.755,1.42,3.088,1.566,3.649.178a8.327,8.327,0,0,0,.312-4.375c-.24-1.339-1.655-1.465-2.9-1.461-3.735.012-7.47,0-11.2,0H47.382c0-2,.041-3.765-.012-5.525-.048-1.563-.974-2.644-2.284-2.517a3.872,3.872,0,0,0-2.055.951Q32.464,40.851,21.967,50.347c-1.515,1.366-1.525,2.667-.046,4.159,2.388,2.408,4.8,4.8,7.195,7.193Q36,68.573,42.9,75.446c1.233,1.227,2.618,1.571,3.484.636a4.2,4.2,0,0,0,.965-2.465c.127-2.383.044-4.778.044-7.313h1.8c3.834,0,7.668.014,11.5-.007,1.829-.01,2.783-.7,2.889-2.255a35.814,35.814,0,0,0-.013-4.859,2.3,2.3,0,0,0-2.373-2.16,2.327,2.327,0,0,0-2.248,2.284c-.052.677-.009,1.36-.009,2.275m51.209-9.212c-.081.229-.088.344-.149.407-1,1.019-2.005,2.026-3,3.048-1.245,1.281-1.373,2.6-.365,3.629,1.026,1.046,2.378.977,3.645-.252,1.589-1.539,3.152-3.107,4.705-4.682,1.515-1.536,1.478-2.814-.137-4.267Q104.427,40.88,94,31.52c-.882-.794-1.773-1.438-3.028-.883-1.308.578-1.467,1.715-1.453,2.956.019,1.6.005,3.205.005,4.932H87.695c-3.786,0-7.572-.015-11.358.009-2.2.013-3.051.862-3.056,3.041q-.024,10.844,0,21.689c.005,2.184.858,3.023,3.056,3.034,3.835.019,7.671,0,11.506.009.52,0,1.04.049,1.681.081,0,2.6,0,5.054,0,7.5a2.386,2.386,0,0,0,1.454,2.5,2.5,2.5,0,0,0,2.82-.721c1.311-1.332,2.653-2.632,3.971-3.958s1.536-2.726.608-3.762c-.881-.983-2.211-.944-3.7.1-.06.042-.17.013-.442.026,0-1.165.014-2.327,0-3.489-.031-2.24-.771-2.991-3.034-3-3.835-.02-7.671,0-11.506-.009-.523,0-1.046-.048-1.61-.075V43.347c.514-.037.943-.1,1.372-.1,3.934-.008,7.868.007,11.8-.01,2.166-.01,2.934-.78,2.978-2.912.013-.616,0-1.234,0-2.249l15.9,14.289m-31.775,61a2.35,2.35,0,0,0,.14,4.7,2.35,2.35,0,1,0-.14-4.7M61.455,47.583a2.345,2.345,0,0,0-2.511,2.155,2.308,2.308,0,0,0,2.11,2.534,2.352,2.352,0,0,0,2.532-2.137,2.392,2.392,0,0,0-2.131-2.552M16.334,24.168a2.321,2.321,0,1,0-4.641.039,2.321,2.321,0,1,0,4.641-.039m85.249,42.673a2.324,2.324,0,0,0,.084-4.648,2.324,2.324,0,1,0-.084,4.648" fill="#2194e5"/>
        <path id="Trazado_196789" data-name="Trazado 196789" d="M73.6,7.466c1.243.958,2.393,1.788,3.479,2.69A37.27,37.27,0,0,1,86.7,22.33c.021.044.039.091.059.135.757,1.6.48,2.9-.767,3.575-1.275.692-2.5.21-3.4-1.326-.572-.974-1.109-1.975-1.753-2.9C72.954,10.524,62.205,4.511,48.352,4.83,38,5.068,29.247,9.278,22.115,16.806c-.271.285-.518.593-.791.876a2.531,2.531,0,0,1-3.653.382c-.984-.941-.939-2.312.145-3.552A40.211,40.211,0,0,1,30.284,4.765C42.576-1.319,54.99-1.625,67.51,4.124a2.525,2.525,0,0,0,1.893,0C95.41-8.209,125.185,8.452,129.578,37.2a43.148,43.148,0,0,1-.924,17.689,2.875,2.875,0,0,0,.472,2.574c2.336,3.52,4.61,7.083,6.9,10.634,1.441,2.236,1.17,3.287-1.2,4.6-3.865,2.142-7.709,4.33-11.626,6.372a2.606,2.606,0,0,0-1.569,2.747c.069,5.852.035,11.705.028,17.557,0,2.751-.9,3.492-3.6,3.224-7.527-.752-15.058-1.448-22.766-2.183v1.663c0,4.328.008,8.655,0,12.983-.007,2.208-.817,3-3.038,3.011-2.113.009-4.228.019-6.343,0-1.741-.018-2.751-.933-2.722-2.406.027-1.411,1.012-2.271,2.675-2.305,1.474-.031,2.948-.033,4.422-.051.04,0,.078-.05.287-.191v-6.176c0-2.853-.01-5.705,0-8.558.01-2.183.953-3.029,3.132-2.824q11.007,1.035,22.016,2.079c.333.032.671,0,1.212,0V96.052c0-5.509.036-11.017-.02-16.525A3.523,3.523,0,0,1,119,76c4.034-2.129,8.007-4.372,12.166-6.657-.724-1.137-1.388-2.2-2.067-3.251-1.6-2.477-3.16-4.981-4.828-7.411a4.136,4.136,0,0,1-.535-3.731c3.948-15.063.971-28.547-10.37-39.378C102.61,5.294,89.75,2.219,75.351,6.8c-.553.176-1.088.413-1.751.669" fill="#2194e5"/>
        <path id="Trazado_196790" data-name="Trazado 196790" d="M5.728,69.312c1.39.769,2.669,1.48,3.951,2.184,2.754,1.513,5.485,3.069,8.274,4.515a3.421,3.421,0,0,1,2.034,3.413c-.048,5.506-.018,11.013-.018,16.519v1.8c2.759-.257,5.377-.5,8-.745,5.184-.49,10.367-1,15.553-1.468,1.85-.167,2.8.777,2.809,2.736.017,4.96.006,9.92.006,15.094h1.631q10.029,0,20.056,0a8.459,8.459,0,0,1,1.324.041,2.344,2.344,0,0,1,.036,4.633,3.261,3.261,0,0,1-.734.044q-12.166,0-24.332,0c-1.826,0-2.686-.889-2.694-2.745-.02-4.376-.007-8.751-.007-13.127v-1.764c-3.523.33-6.922.642-10.32.967-4.4.422-8.8.872-13.2,1.271-1.874.17-2.827-.8-2.833-2.87-.018-6.1-.046-12.193.026-18.289a2.311,2.311,0,0,0-1.45-2.374C9.847,77.012,5.9,74.807,1.952,72.621-.244,71.406-.53,70.3.808,68.227c2.263-3.509,4.509-7.03,6.825-10.5a3.491,3.491,0,0,0,.559-3.114,43.616,43.616,0,0,1,.637-23.993c.54-1.771,1.689-2.579,3.077-2.2,1.433.4,1.96,1.735,1.4,3.614a39.368,39.368,0,0,0-.083,23.088,3.8,3.8,0,0,1-.528,3.465c-2.332,3.51-4.6,7.065-6.966,10.725" fill="#2194e5"/>
        <path id="Trazado_196791" data-name="Trazado 196791" d="M58.935,61.582c0-.915-.043-1.6.009-2.275a2.326,2.326,0,0,1,2.249-2.283,2.3,2.3,0,0,1,2.373,2.159,35.815,35.815,0,0,1,.012,4.859c-.106,1.553-1.059,2.245-2.889,2.255-3.833.021-7.667.007-11.5.007h-1.8c0,2.535.083,4.93-.044,7.313a4.193,4.193,0,0,1-.965,2.465c-.866.935-2.251.591-3.483-.636Q36,68.581,29.117,61.7c-2.4-2.4-4.808-4.785-7.2-7.193-1.479-1.492-1.469-2.793.046-4.159Q32.481,40.87,43.031,31.434a3.876,3.876,0,0,1,2.055-.951c1.31-.127,2.236.954,2.284,2.517.054,1.76.012,3.523.012,5.525h1.826c3.735,0,7.471.009,11.206,0,1.239,0,2.655.122,2.894,1.461A8.317,8.317,0,0,1,63,44.358c-.56,1.388-2.894,1.242-3.648-.178-.493-.926-1.1-.94-1.9-.937q-5.6.015-11.205,0c-2.973,0-3.535-.558-3.578-3.5-.007-.423-.058-.845-.109-1.559L26.817,52.329,42.669,68.18c0-.6.016-1.144,0-1.689-.163-4.7.419-5.011,4.981-4.921,3.144.062,6.291.012,9.436.012h1.852" fill="#2194e5"/>
        <path id="Trazado_196792" data-name="Trazado 196792" d="M110.144,52.37,94.24,38.081c0,1.015.011,1.633,0,2.249-.045,2.132-.812,2.9-2.978,2.912-3.934.017-7.867,0-11.8.01-.429,0-.859.057-1.372.1V61.5c.564.027,1.087.074,1.61.075,3.835.006,7.671-.011,11.506.009,2.263.013,3,.764,3.034,3,.016,1.163,0,2.325,0,3.49.272-.013.381.016.441-.026,1.486-1.043,2.816-1.082,3.7-.1.928,1.036.71,2.438-.609,3.763s-2.659,2.626-3.97,3.958a2.5,2.5,0,0,1-2.82.721,2.388,2.388,0,0,1-1.455-2.5c0-2.451,0-4.9,0-7.5-.641-.032-1.161-.08-1.681-.081-3.835-.006-7.671.01-11.506-.009-2.2-.011-3.051-.85-3.056-3.034q-.024-10.845,0-21.689c.005-2.179.86-3.028,3.056-3.041,3.786-.025,7.572-.008,11.358-.009h1.826c0-1.727.014-3.33-.005-4.932-.014-1.241.145-2.378,1.453-2.956,1.255-.555,2.146.089,3.028.883q10.415,9.375,20.847,18.733c1.615,1.453,1.652,2.731.137,4.267-1.553,1.575-3.116,3.143-4.705,4.682-1.268,1.229-2.62,1.3-3.646.252-1.007-1.027-.879-2.348.366-3.629.994-1.022,2-2.029,3-3.048.061-.063.068-.178.149-.407" fill="#2194e5"/>
        <path id="Trazado_196793" data-name="Trazado 196793" d="M78.369,113.366a2.35,2.35,0,1,1,.14,4.7,2.35,2.35,0,0,1-.14-4.7" fill="#2194e5"/>
        <path id="Trazado_196794" data-name="Trazado 196794" d="M61.455,47.583a2.393,2.393,0,0,1,2.131,2.552,2.35,2.35,0,0,1-2.531,2.137,2.308,2.308,0,0,1-2.111-2.534,2.345,2.345,0,0,1,2.511-2.155" fill="#2194e5"/>
        <path id="Trazado_196795" data-name="Trazado 196795" d="M16.334,24.168a2.321,2.321,0,1,1-4.641.039,2.321,2.321,0,1,1,4.641-.039" fill="#2194e5"/>
        <path id="Trazado_196796" data-name="Trazado 196796" d="M101.583,66.841a2.324,2.324,0,1,1,.084-4.648,2.324,2.324,0,0,1-.084,4.648" fill="#2194e5"/>
      </g>
    </g>
  </g>
</svg>
