<svg xmlns="http://www.w3.org/2000/svg" xmlns:xlink="http://www.w3.org/1999/xlink" width="77" height="77" viewBox="0 0 77 77">
  <defs>
    <clipPath id="clip-path">
      <rect id="Rectángulo_46429" data-name="Rectángulo 46429" width="42.851" height="49.933" fill="#fff"/>
    </clipPath>
  </defs>
  <g id="Grupo_154892" data-name="Grupo 154892" transform="translate(0.118 -0.458)">
    <circle id="Elipse_5796" data-name="Elipse 5796" cx="38.5" cy="38.5" r="38.5" transform="translate(-0.118 0.459)" fill="#2194e5"/>
    <g id="Grupo_154868" data-name="Grupo 154868" transform="translate(16.997 14.468)">
      <g id="Grupo_154867" data-name="Grupo 154867" clip-path="url(#clip-path)">
        <path id="Trazado_196797" data-name="Trazado 196797" d="M42.6,7.338A2.278,2.278,0,0,0,40.25,5.054c-1.169-.057-2.336-.127-3.5-.262A39.326,39.326,0,0,1,25.46,1.8C24.216,1.256,23.083.5,21.818,0h-.781a5.711,5.711,0,0,0-.7.295,34.857,34.857,0,0,1-8.3,3.389c-.524.145-.753.486-.649.915s.506.625,1.051.479a34.411,34.411,0,0,0,8.318-3.353,1.187,1.187,0,0,1,1.348,0A32.289,32.289,0,0,0,28.459,4.5,43.119,43.119,0,0,0,40.181,6.517c.632.025.9.247.944.812.079.956.159,1.912.2,2.869a60.387,60.387,0,0,1-.568,11.671A42.928,42.928,0,0,1,37.524,33.3a27.669,27.669,0,0,1-15.535,15.04,1.311,1.311,0,0,1-1.027.042A27.384,27.384,0,0,1,6.21,35.1C3.095,29.119,1.865,22.67,1.526,16.009a60.1,60.1,0,0,1,.189-8.526c.065-.719.267-.933,1-.967a43.979,43.979,0,0,0,6.1-.645.724.724,0,0,0,.667-.848.74.74,0,0,0-.918-.579,50.7,50.7,0,0,1-6.2.627A2.137,2.137,0,0,0,.346,6.809,15.013,15.013,0,0,0,.163,8.5,64.067,64.067,0,0,0,.243,18.637,48.594,48.594,0,0,0,3.1,31.721c3.214,8.444,8.762,14.656,17.294,18a2.689,2.689,0,0,0,2.074,0A29.2,29.2,0,0,0,38.984,33.612,45.681,45.681,0,0,0,42.419,20.48,64.028,64.028,0,0,0,42.6,7.338" transform="translate(0)" fill="#fff"/>
        <path id="Trazado_196798" data-name="Trazado 196798" d="M11.244,17.711c-.128,1.572-.233,3.145-.209,4.483a52.842,52.842,0,0,0,.286,5.79,38.849,38.849,0,0,0,2.741,11.207c2.639,6.232,6.916,10.834,13.3,13.328a2.181,2.181,0,0,0,1.657.019,23.173,23.173,0,0,0,5.6-3.1,24.474,24.474,0,0,0,8.118-11.207A46.708,46.708,0,0,0,45.166,17.6a1.873,1.873,0,0,0-1.829-1.758c-1.069-.084-2.14-.12-3.206-.256a28.447,28.447,0,0,1-10.73-3.4,2.18,2.18,0,0,0-2.385.01,23.524,23.524,0,0,1-4.57,2.023,33.867,33.867,0,0,1-9.322,1.624,1.886,1.886,0,0,0-1.88,1.864m5.879-.754A29.881,29.881,0,0,0,27.693,13.5a.92.92,0,0,1,1.03-.008,30.149,30.149,0,0,0,11.243,3.555c1.049.133,2.1.193,3.158.245a.56.56,0,0,1,.607.6c.116,1.524.218,3.048.2,4.579a42.994,42.994,0,0,1-2.543,15.239,22.7,22.7,0,0,1-8.98,11.5,21.685,21.685,0,0,1-3.815,1.924.946.946,0,0,1-.745,0A21.349,21.349,0,0,1,16.3,40.56a34.547,34.547,0,0,1-3.322-11.033,51.463,51.463,0,0,1-.374-10.556c.022-.341.079-.68.082-1.02a.583.583,0,0,1,.646-.666,35.844,35.844,0,0,0,3.786-.327" transform="translate(-6.785 -7.282)" fill="#fff"/>
        <path id="Trazado_196799" data-name="Trazado 196799" d="M39.836,56.184a9.962,9.962,0,0,0,7.542-4.006c.466-.586.494-1.012.117-1.319-.4-.33-.783-.195-1.276.431a8.6,8.6,0,0,1-5.984,3.379,8.816,8.816,0,1,1,7.583-10.8,9.117,9.117,0,0,1-.038,4.248.712.712,0,0,0,.284.813.7.7,0,0,0,.78.03c.3-.157.345-.457.411-.738A10.289,10.289,0,1,0,29,46.971c.477,5.165,5,9.237,10.838,9.213" transform="translate(-17.806 -21.903)" fill="#fff"/>
        <path id="Trazado_196800" data-name="Trazado 196800" d="M50.322,45.427q-1.8,1.94-3.589,3.887c-.346.373-.672.992-1.062,1.039-.455.055-.783-.611-1.166-.962a2.987,2.987,0,1,0-4.176,4.272c1.1,1.094,2.227,2.16,3.343,3.238a2.985,2.985,0,0,0,4.37-.194c2.231-2.423,4.478-4.831,6.7-7.262a2.99,2.99,0,1,0-4.419-4.019m3.03,2.706c-1.04,1.151-2.1,2.283-3.153,3.423-1.153,1.249-2.3,2.5-3.459,3.748a1.139,1.139,0,0,1-1.9.062q-1.587-1.522-3.164-3.057a1.042,1.042,0,0,1-.284-1.219,1.062,1.062,0,0,1,.915-.674,1.34,1.34,0,0,1,.971.44c.533.519,1.06,1.044,1.6,1.555a.992.992,0,0,0,1.642-.053c1.737-1.867,3.461-3.746,5.2-5.615a1.039,1.039,0,0,1,1.565-.218,1.014,1.014,0,0,1,.075,1.608" transform="translate(-24.222 -27.27)" fill="#fff"/>
      </g>
    </g>
  </g>
</svg>
