<svg xmlns="http://www.w3.org/2000/svg" width="84.412" height="135.63" viewBox="0 0 84.412 135.63">
  <g id="Grupo_154494" data-name="Grupo 154494" transform="translate(-180 -450.109)">
    <rect id="Rectángulo_45220" data-name="Rectángulo 45220" width="99.908" height="48.731" transform="translate(228.731 450.109) rotate(90)" fill="#e4e4e4"/>
    <g id="Grupo_154493" data-name="Grupo 154493">
      <rect id="Rectángulo_45221" data-name="Rectángulo 45221" width="4.203" height="4.203" transform="translate(260.21 469.645) rotate(-90)" fill="#7f4fc7"/>
      <rect id="Rectángulo_45222" data-name="Rectángulo 45222" width="4.203" height="4.203" transform="translate(260.21 478.574) rotate(-90)" fill="#7f4fc7"/>
      <rect id="Rectángulo_45223" data-name="Rectángulo 45223" width="4.203" height="4.203" transform="translate(260.21 487.505) rotate(-90)" fill="#7f4fc7"/>
      <rect id="Rectángulo_45224" data-name="Rectángulo 45224" width="4.202" height="4.203" transform="translate(260.21 496.436) rotate(-90)" fill="#7f4fc7"/>
      <rect id="Rectángulo_45225" data-name="Rectángulo 45225" width="4.203" height="4.203" transform="translate(260.21 505.366) rotate(-90)" fill="#7f4fc7"/>
      <rect id="Rectángulo_45226" data-name="Rectángulo 45226" width="4.202" height="4.203" transform="translate(260.21 514.296) rotate(-90)" fill="#7f4fc7"/>
      <rect id="Rectángulo_45227" data-name="Rectángulo 45227" width="4.203" height="4.203" transform="translate(260.21 523.227) rotate(-90)" fill="#7f4fc7"/>
      <rect id="Rectángulo_45228" data-name="Rectángulo 45228" width="4.202" height="4.203" transform="translate(260.21 532.157) rotate(-90)" fill="#7f4fc7"/>
      <rect id="Rectángulo_45229" data-name="Rectángulo 45229" width="4.203" height="4.203" transform="translate(260.21 541.088) rotate(-90)" fill="#7f4fc7"/>
      <rect id="Rectángulo_46135" data-name="Rectángulo 46135" width="4.203" height="4.203" transform="translate(260.21 567.879) rotate(-90)" fill="#7f4fc7"/>
      <rect id="Rectángulo_45230" data-name="Rectángulo 45230" width="4.203" height="4.203" transform="translate(260.21 550.018) rotate(-90)" fill="#7f4fc7"/>
      <rect id="Rectángulo_46125" data-name="Rectángulo 46125" width="4.203" height="4.203" transform="translate(260.21 576.809) rotate(-90)" fill="#7f4fc7"/>
      <rect id="Rectángulo_45231" data-name="Rectángulo 45231" width="4.203" height="4.203" transform="translate(260.21 558.948) rotate(-90)" fill="#7f4fc7"/>
      <rect id="Rectángulo_46123" data-name="Rectángulo 46123" width="4.203" height="4.203" transform="translate(260.21 585.739) rotate(-90)" fill="#7f4fc7"/>
      <rect id="Rectángulo_45232" data-name="Rectángulo 45232" width="4.203" height="4.203" transform="translate(251.279 469.645) rotate(-90)" fill="#7f4fc7"/>
      <rect id="Rectángulo_45233" data-name="Rectángulo 45233" width="4.203" height="4.203" transform="translate(251.279 478.574) rotate(-90)" fill="#7f4fc7"/>
      <rect id="Rectángulo_45234" data-name="Rectángulo 45234" width="4.203" height="4.203" transform="translate(251.279 487.505) rotate(-90)" fill="#7f4fc7"/>
      <rect id="Rectángulo_45235" data-name="Rectángulo 45235" width="4.202" height="4.203" transform="translate(251.279 496.436) rotate(-90)" fill="#7f4fc7"/>
      <rect id="Rectángulo_45236" data-name="Rectángulo 45236" width="4.203" height="4.203" transform="translate(251.279 505.366) rotate(-90)" fill="#7f4fc7"/>
      <rect id="Rectángulo_45237" data-name="Rectángulo 45237" width="4.202" height="4.203" transform="translate(251.279 514.296) rotate(-90)" fill="#7f4fc7"/>
      <rect id="Rectángulo_45238" data-name="Rectángulo 45238" width="4.203" height="4.203" transform="translate(251.279 523.227) rotate(-90)" fill="#7f4fc7"/>
      <rect id="Rectángulo_45239" data-name="Rectángulo 45239" width="4.202" height="4.203" transform="translate(251.279 532.157) rotate(-90)" fill="#7f4fc7"/>
      <rect id="Rectángulo_45240" data-name="Rectángulo 45240" width="4.203" height="4.203" transform="translate(251.279 541.088) rotate(-90)" fill="#7f4fc7"/>
      <rect id="Rectángulo_46136" data-name="Rectángulo 46136" width="4.203" height="4.203" transform="translate(251.279 567.879) rotate(-90)" fill="#7f4fc7"/>
      <rect id="Rectángulo_45241" data-name="Rectángulo 45241" width="4.203" height="4.203" transform="translate(251.279 550.018) rotate(-90)" fill="#7f4fc7"/>
      <rect id="Rectángulo_46126" data-name="Rectángulo 46126" width="4.203" height="4.203" transform="translate(251.279 576.809) rotate(-90)" fill="#7f4fc7"/>
      <rect id="Rectángulo_45242" data-name="Rectángulo 45242" width="4.203" height="4.203" transform="translate(251.279 558.948) rotate(-90)" fill="#7f4fc7"/>
      <rect id="Rectángulo_46124" data-name="Rectángulo 46124" width="4.203" height="4.203" transform="translate(251.279 585.739) rotate(-90)" fill="#7f4fc7"/>
      <rect id="Rectángulo_45243" data-name="Rectángulo 45243" width="4.203" height="4.203" transform="translate(242.349 469.645) rotate(-90)" fill="#7f4fc7"/>
      <rect id="Rectángulo_45244" data-name="Rectángulo 45244" width="4.203" height="4.203" transform="translate(242.349 478.574) rotate(-90)" fill="#7f4fc7"/>
      <rect id="Rectángulo_45245" data-name="Rectángulo 45245" width="4.203" height="4.203" transform="translate(242.349 487.505) rotate(-90)" fill="#7f4fc7"/>
      <rect id="Rectángulo_45246" data-name="Rectángulo 45246" width="4.202" height="4.203" transform="translate(242.349 496.436) rotate(-90)" fill="#7f4fc7"/>
      <rect id="Rectángulo_45247" data-name="Rectángulo 45247" width="4.203" height="4.203" transform="translate(242.349 505.366) rotate(-90)" fill="#7f4fc7"/>
      <rect id="Rectángulo_45248" data-name="Rectángulo 45248" width="4.202" height="4.203" transform="translate(242.349 514.296) rotate(-90)" fill="#7f4fc7"/>
      <rect id="Rectángulo_45249" data-name="Rectángulo 45249" width="4.203" height="4.203" transform="translate(242.349 523.227) rotate(-90)" fill="#7f4fc7"/>
      <rect id="Rectángulo_45250" data-name="Rectángulo 45250" width="4.202" height="4.203" transform="translate(242.349 532.157) rotate(-90)" fill="#7f4fc7"/>
      <rect id="Rectángulo_45251" data-name="Rectángulo 45251" width="4.203" height="4.203" transform="translate(242.349 541.088) rotate(-90)" fill="#7f4fc7"/>
      <rect id="Rectángulo_46137" data-name="Rectángulo 46137" width="4.203" height="4.203" transform="translate(242.349 567.879) rotate(-90)" fill="#7f4fc7"/>
      <rect id="Rectángulo_45252" data-name="Rectángulo 45252" width="4.203" height="4.203" transform="translate(242.349 550.018) rotate(-90)" fill="#7f4fc7"/>
      <rect id="Rectángulo_46127" data-name="Rectángulo 46127" width="4.203" height="4.203" transform="translate(242.349 576.809) rotate(-90)" fill="#7f4fc7"/>
      <rect id="Rectángulo_45253" data-name="Rectángulo 45253" width="4.203" height="4.203" transform="translate(242.349 558.948) rotate(-90)" fill="#7f4fc7"/>
      <rect id="Rectángulo_46128" data-name="Rectángulo 46128" width="4.203" height="4.203" transform="translate(242.349 585.739) rotate(-90)" fill="#7f4fc7"/>
      <rect id="Rectángulo_45221-2" data-name="Rectángulo 45221" width="4.203" height="4.203" transform="translate(234.165 469.645) rotate(-90)" fill="#7f4fc7"/>
      <rect id="Rectángulo_45222-2" data-name="Rectángulo 45222" width="4.203" height="4.203" transform="translate(234.165 478.574) rotate(-90)" fill="#7f4fc7"/>
      <rect id="Rectángulo_45223-2" data-name="Rectángulo 45223" width="4.203" height="4.203" transform="translate(234.165 487.505) rotate(-90)" fill="#7f4fc7"/>
      <rect id="Rectángulo_45224-2" data-name="Rectángulo 45224" width="4.202" height="4.203" transform="translate(234.165 496.436) rotate(-90)" fill="#7f4fc7"/>
      <rect id="Rectángulo_45225-2" data-name="Rectángulo 45225" width="4.203" height="4.203" transform="translate(234.165 505.366) rotate(-90)" fill="#7f4fc7"/>
      <rect id="Rectángulo_45226-2" data-name="Rectángulo 45226" width="4.202" height="4.203" transform="translate(234.165 514.296) rotate(-90)" fill="#7f4fc7"/>
      <rect id="Rectángulo_45227-2" data-name="Rectángulo 45227" width="4.203" height="4.203" transform="translate(234.165 523.227) rotate(-90)" fill="#7f4fc7"/>
      <rect id="Rectángulo_45228-2" data-name="Rectángulo 45228" width="4.202" height="4.203" transform="translate(234.165 532.157) rotate(-90)" fill="#7f4fc7"/>
      <rect id="Rectángulo_45229-2" data-name="Rectángulo 45229" width="4.203" height="4.203" transform="translate(234.165 541.088) rotate(-90)" fill="#7f4fc7"/>
      <rect id="Rectángulo_46138" data-name="Rectángulo 46138" width="4.203" height="4.203" transform="translate(234.165 567.879) rotate(-90)" fill="#7f4fc7"/>
      <rect id="Rectángulo_45230-2" data-name="Rectángulo 45230" width="4.203" height="4.203" transform="translate(234.165 550.018) rotate(-90)" fill="#7f4fc7"/>
      <rect id="Rectángulo_46129" data-name="Rectángulo 46129" width="4.203" height="4.203" transform="translate(234.165 576.809) rotate(-90)" fill="#7f4fc7"/>
      <rect id="Rectángulo_45231-2" data-name="Rectángulo 45231" width="4.203" height="4.203" transform="translate(234.165 558.948) rotate(-90)" fill="#7f4fc7"/>
      <rect id="Rectángulo_46130" data-name="Rectángulo 46130" width="4.203" height="4.203" transform="translate(234.165 585.739) rotate(-90)" fill="#7f4fc7"/>
      <rect id="Rectángulo_45232-2" data-name="Rectángulo 45232" width="4.203" height="4.203" transform="translate(225.235 469.645) rotate(-90)" fill="#7f4fc7"/>
      <rect id="Rectángulo_45233-2" data-name="Rectángulo 45233" width="4.203" height="4.203" transform="translate(225.235 478.574) rotate(-90)" fill="#7f4fc7"/>
      <rect id="Rectángulo_45234-2" data-name="Rectángulo 45234" width="4.203" height="4.203" transform="translate(225.235 487.505) rotate(-90)" fill="#7f4fc7"/>
      <rect id="Rectángulo_45235-2" data-name="Rectángulo 45235" width="4.202" height="4.203" transform="translate(225.235 496.436) rotate(-90)" fill="#7f4fc7"/>
      <rect id="Rectángulo_45236-2" data-name="Rectángulo 45236" width="4.203" height="4.203" transform="translate(225.235 505.366) rotate(-90)" fill="#7f4fc7"/>
      <rect id="Rectángulo_45237-2" data-name="Rectángulo 45237" width="4.202" height="4.203" transform="translate(225.235 514.296) rotate(-90)" fill="#7f4fc7"/>
      <rect id="Rectángulo_45238-2" data-name="Rectángulo 45238" width="4.203" height="4.203" transform="translate(225.235 523.227) rotate(-90)" fill="#7f4fc7"/>
      <rect id="Rectángulo_45239-2" data-name="Rectángulo 45239" width="4.202" height="4.203" transform="translate(225.235 532.157) rotate(-90)" fill="#7f4fc7"/>
      <rect id="Rectángulo_45240-2" data-name="Rectángulo 45240" width="4.203" height="4.203" transform="translate(225.235 541.088) rotate(-90)" fill="#7f4fc7"/>
      <rect id="Rectángulo_46139" data-name="Rectángulo 46139" width="4.203" height="4.203" transform="translate(225.235 567.879) rotate(-90)" fill="#7f4fc7"/>
      <rect id="Rectángulo_45241-2" data-name="Rectángulo 45241" width="4.203" height="4.203" transform="translate(225.235 550.018) rotate(-90)" fill="#7f4fc7"/>
      <rect id="Rectángulo_46131" data-name="Rectángulo 46131" width="4.203" height="4.203" transform="translate(225.235 576.809) rotate(-90)" fill="#7f4fc7"/>
      <rect id="Rectángulo_45242-2" data-name="Rectángulo 45242" width="4.203" height="4.203" transform="translate(225.235 558.948) rotate(-90)" fill="#7f4fc7"/>
      <rect id="Rectángulo_46132" data-name="Rectángulo 46132" width="4.203" height="4.203" transform="translate(225.235 585.739) rotate(-90)" fill="#7f4fc7"/>
      <rect id="Rectángulo_45243-2" data-name="Rectángulo 45243" width="4.203" height="4.203" transform="translate(216.304 469.645) rotate(-90)" fill="#7f4fc7"/>
      <rect id="Rectángulo_45244-2" data-name="Rectángulo 45244" width="4.203" height="4.203" transform="translate(216.304 478.574) rotate(-90)" fill="#7f4fc7"/>
      <rect id="Rectángulo_45245-2" data-name="Rectángulo 45245" width="4.203" height="4.203" transform="translate(216.304 487.505) rotate(-90)" fill="#7f4fc7"/>
      <rect id="Rectángulo_45246-2" data-name="Rectángulo 45246" width="4.202" height="4.203" transform="translate(216.304 496.436) rotate(-90)" fill="#7f4fc7"/>
      <rect id="Rectángulo_45247-2" data-name="Rectángulo 45247" width="4.203" height="4.203" transform="translate(216.304 505.366) rotate(-90)" fill="#7f4fc7"/>
      <rect id="Rectángulo_45248-2" data-name="Rectángulo 45248" width="4.202" height="4.203" transform="translate(216.304 514.296) rotate(-90)" fill="#7f4fc7"/>
      <rect id="Rectángulo_45249-2" data-name="Rectángulo 45249" width="4.203" height="4.203" transform="translate(216.304 523.227) rotate(-90)" fill="#7f4fc7"/>
      <rect id="Rectángulo_45250-2" data-name="Rectángulo 45250" width="4.202" height="4.203" transform="translate(216.304 532.157) rotate(-90)" fill="#7f4fc7"/>
      <rect id="Rectángulo_45251-2" data-name="Rectángulo 45251" width="4.203" height="4.203" transform="translate(216.304 541.088) rotate(-90)" fill="#7f4fc7"/>
      <rect id="Rectángulo_46140" data-name="Rectángulo 46140" width="4.203" height="4.203" transform="translate(216.304 567.879) rotate(-90)" fill="#7f4fc7"/>
      <rect id="Rectángulo_45252-2" data-name="Rectángulo 45252" width="4.203" height="4.203" transform="translate(216.304 550.018) rotate(-90)" fill="#7f4fc7"/>
      <rect id="Rectángulo_46133" data-name="Rectángulo 46133" width="4.203" height="4.203" transform="translate(216.304 576.809) rotate(-90)" fill="#7f4fc7"/>
      <rect id="Rectángulo_45253-2" data-name="Rectángulo 45253" width="4.203" height="4.203" transform="translate(216.304 558.948) rotate(-90)" fill="#7f4fc7"/>
      <rect id="Rectángulo_46134" data-name="Rectángulo 46134" width="4.203" height="4.203" transform="translate(216.304 585.739) rotate(-90)" fill="#7f4fc7"/>
    </g>
  </g>
</svg>
