<svg xmlns="http://www.w3.org/2000/svg" width="85" height="101.566" viewBox="0 0 85 101.566">
  <g id="Grupo_154822" data-name="Grupo 154822" transform="translate(-1020 -406)">
    <rect id="Rectángulo_45220" data-name="Rectángulo 45220" width="70.414" height="51.474" transform="translate(1071.474 406) rotate(90)" fill="#e4e4e4"/>
    <rect id="Rectángulo_45221" data-name="Rectángulo 45221" width="3.279" height="3.279" transform="translate(1101.721 444.854) rotate(-90)" fill="#1894f6"/>
    <rect id="Rectángulo_45222" data-name="Rectángulo 45222" width="3.279" height="3.279" transform="translate(1101.721 451.821) rotate(-90)" fill="#1894f6"/>
    <rect id="Rectángulo_45223" data-name="Rectángulo 45223" width="3.279" height="3.279" transform="translate(1101.721 458.789) rotate(-90)" fill="#1894f6"/>
    <rect id="Rectángulo_45224" data-name="Rectángulo 45224" width="3.279" height="3.279" transform="translate(1101.721 465.758) rotate(-90)" fill="#1894f6"/>
    <rect id="Rectángulo_45225" data-name="Rectángulo 45225" width="3.279" height="3.279" transform="translate(1101.721 472.726) rotate(-90)" fill="#1894f6"/>
    <rect id="Rectángulo_45226" data-name="Rectángulo 45226" width="3.279" height="3.279" transform="translate(1101.721 479.693) rotate(-90)" fill="#1894f6"/>
    <rect id="Rectángulo_45227" data-name="Rectángulo 45227" width="3.279" height="3.279" transform="translate(1101.721 486.662) rotate(-90)" fill="#1894f6"/>
    <rect id="Rectángulo_46396" data-name="Rectángulo 46396" width="3.279" height="3.279" transform="translate(1101.721 500.599) rotate(-90)" fill="#1894f6"/>
    <rect id="Rectángulo_45228" data-name="Rectángulo 45228" width="3.279" height="3.279" transform="translate(1101.721 493.63) rotate(-90)" fill="#1894f6"/>
    <rect id="Rectángulo_46388" data-name="Rectángulo 46388" width="3.279" height="3.279" transform="translate(1101.721 507.566) rotate(-90)" fill="#1894f6"/>
    <rect id="Rectángulo_45232" data-name="Rectángulo 45232" width="3.279" height="3.279" transform="translate(1094.753 444.854) rotate(-90)" fill="#1894f6"/>
    <rect id="Rectángulo_45233" data-name="Rectángulo 45233" width="3.279" height="3.279" transform="translate(1094.753 451.821) rotate(-90)" fill="#1894f6"/>
    <rect id="Rectángulo_45234" data-name="Rectángulo 45234" width="3.279" height="3.279" transform="translate(1094.753 458.789) rotate(-90)" fill="#1894f6"/>
    <rect id="Rectángulo_45235" data-name="Rectángulo 45235" width="3.279" height="3.279" transform="translate(1094.753 465.758) rotate(-90)" fill="#1894f6"/>
    <rect id="Rectángulo_45236" data-name="Rectángulo 45236" width="3.279" height="3.279" transform="translate(1094.753 472.726) rotate(-90)" fill="#1894f6"/>
    <rect id="Rectángulo_45237" data-name="Rectángulo 45237" width="3.279" height="3.279" transform="translate(1094.753 479.693) rotate(-90)" fill="#1894f6"/>
    <rect id="Rectángulo_45238" data-name="Rectángulo 45238" width="3.279" height="3.279" transform="translate(1094.753 486.662) rotate(-90)" fill="#1894f6"/>
    <rect id="Rectángulo_46397" data-name="Rectángulo 46397" width="3.279" height="3.279" transform="translate(1094.753 500.599) rotate(-90)" fill="#1894f6"/>
    <rect id="Rectángulo_45239" data-name="Rectángulo 45239" width="3.279" height="3.279" transform="translate(1094.753 493.63) rotate(-90)" fill="#1894f6"/>
    <rect id="Rectángulo_46389" data-name="Rectángulo 46389" width="3.279" height="3.279" transform="translate(1094.753 507.566) rotate(-90)" fill="#1894f6"/>
    <rect id="Rectángulo_45243" data-name="Rectángulo 45243" width="3.279" height="3.279" transform="translate(1087.785 444.854) rotate(-90)" fill="#1894f6"/>
    <rect id="Rectángulo_45244" data-name="Rectángulo 45244" width="3.279" height="3.279" transform="translate(1087.785 451.821) rotate(-90)" fill="#1894f6"/>
    <rect id="Rectángulo_45245" data-name="Rectángulo 45245" width="3.279" height="3.279" transform="translate(1087.785 458.789) rotate(-90)" fill="#1894f6"/>
    <rect id="Rectángulo_45246" data-name="Rectángulo 45246" width="3.279" height="3.279" transform="translate(1087.785 465.758) rotate(-90)" fill="#1894f6"/>
    <rect id="Rectángulo_45247" data-name="Rectángulo 45247" width="3.279" height="3.279" transform="translate(1087.785 472.726) rotate(-90)" fill="#1894f6"/>
    <rect id="Rectángulo_45248" data-name="Rectángulo 45248" width="3.279" height="3.279" transform="translate(1087.785 479.693) rotate(-90)" fill="#1894f6"/>
    <rect id="Rectángulo_45249" data-name="Rectángulo 45249" width="3.279" height="3.279" transform="translate(1087.785 486.662) rotate(-90)" fill="#1894f6"/>
    <rect id="Rectángulo_46398" data-name="Rectángulo 46398" width="3.279" height="3.279" transform="translate(1087.785 500.599) rotate(-90)" fill="#1894f6"/>
    <rect id="Rectángulo_45250" data-name="Rectángulo 45250" width="3.279" height="3.279" transform="translate(1087.785 493.63) rotate(-90)" fill="#1894f6"/>
    <rect id="Rectángulo_46390" data-name="Rectángulo 46390" width="3.279" height="3.279" transform="translate(1087.785 507.566) rotate(-90)" fill="#1894f6"/>
    <rect id="Rectángulo_45221-2" data-name="Rectángulo 45221" width="3.279" height="3.279" transform="translate(1081.398 444.854) rotate(-90)" fill="#1894f6"/>
    <rect id="Rectángulo_45222-2" data-name="Rectángulo 45222" width="3.279" height="3.279" transform="translate(1081.398 451.821) rotate(-90)" fill="#1894f6"/>
    <rect id="Rectángulo_45223-2" data-name="Rectángulo 45223" width="3.279" height="3.279" transform="translate(1081.398 458.79) rotate(-90)" fill="#1894f6"/>
    <rect id="Rectángulo_45224-2" data-name="Rectángulo 45224" width="3.279" height="3.279" transform="translate(1081.398 465.758) rotate(-90)" fill="#1894f6"/>
    <rect id="Rectángulo_45225-2" data-name="Rectángulo 45225" width="3.279" height="3.279" transform="translate(1081.398 472.726) rotate(-90)" fill="#1894f6"/>
    <rect id="Rectángulo_45226-2" data-name="Rectángulo 45226" width="3.279" height="3.279" transform="translate(1081.398 479.693) rotate(-90)" fill="#1894f6"/>
    <rect id="Rectángulo_45227-2" data-name="Rectángulo 45227" width="3.279" height="3.279" transform="translate(1081.398 486.662) rotate(-90)" fill="#1894f6"/>
    <rect id="Rectángulo_46399" data-name="Rectángulo 46399" width="3.279" height="3.279" transform="translate(1081.398 500.599) rotate(-90)" fill="#1894f6"/>
    <rect id="Rectángulo_45228-2" data-name="Rectángulo 45228" width="3.279" height="3.279" transform="translate(1081.398 493.63) rotate(-90)" fill="#1894f6"/>
    <rect id="Rectángulo_46391" data-name="Rectángulo 46391" width="3.279" height="3.279" transform="translate(1081.398 507.566) rotate(-90)" fill="#1894f6"/>
    <rect id="Rectángulo_45232-2" data-name="Rectángulo 45232" width="3.279" height="3.279" transform="translate(1074.432 444.854) rotate(-90)" fill="#1894f6"/>
    <rect id="Rectángulo_45279" data-name="Rectángulo 45279" width="3.279" height="3.279" transform="translate(1060.494 444.854) rotate(-90)" fill="#1894f6"/>
    <rect id="Rectángulo_45233-2" data-name="Rectángulo 45233" width="3.279" height="3.279" transform="translate(1074.432 451.821) rotate(-90)" fill="#1894f6"/>
    <rect id="Rectángulo_45280" data-name="Rectángulo 45280" width="3.279" height="3.279" transform="translate(1060.494 451.821) rotate(-90)" fill="#1894f6"/>
    <rect id="Rectángulo_45234-2" data-name="Rectángulo 45234" width="3.279" height="3.279" transform="translate(1074.432 458.79) rotate(-90)" fill="#1894f6"/>
    <rect id="Rectángulo_45281" data-name="Rectángulo 45281" width="3.279" height="3.279" transform="translate(1060.494 458.79) rotate(-90)" fill="#1894f6"/>
    <rect id="Rectángulo_45235-2" data-name="Rectángulo 45235" width="3.279" height="3.279" transform="translate(1074.432 465.758) rotate(-90)" fill="#1894f6"/>
    <rect id="Rectángulo_45282" data-name="Rectángulo 45282" width="3.279" height="3.279" transform="translate(1060.494 465.758) rotate(-90)" fill="#1894f6"/>
    <rect id="Rectángulo_45236-2" data-name="Rectángulo 45236" width="3.279" height="3.279" transform="translate(1074.432 472.726) rotate(-90)" fill="#1894f6"/>
    <rect id="Rectángulo_45283" data-name="Rectángulo 45283" width="3.279" height="3.279" transform="translate(1060.494 472.726) rotate(-90)" fill="#1894f6"/>
    <rect id="Rectángulo_45237-2" data-name="Rectángulo 45237" width="3.279" height="3.279" transform="translate(1074.432 479.693) rotate(-90)" fill="#1894f6"/>
    <rect id="Rectángulo_45284" data-name="Rectángulo 45284" width="3.279" height="3.279" transform="translate(1060.494 479.693) rotate(-90)" fill="#1894f6"/>
    <rect id="Rectángulo_45238-2" data-name="Rectángulo 45238" width="3.279" height="3.279" transform="translate(1074.432 486.662) rotate(-90)" fill="#1894f6"/>
    <rect id="Rectángulo_46400" data-name="Rectángulo 46400" width="3.279" height="3.279" transform="translate(1074.432 500.599) rotate(-90)" fill="#1894f6"/>
    <rect id="Rectángulo_45285" data-name="Rectángulo 45285" width="3.279" height="3.279" transform="translate(1060.494 486.662) rotate(-90)" fill="#1894f6"/>
    <rect id="Rectángulo_46401" data-name="Rectángulo 46401" width="3.279" height="3.279" transform="translate(1060.494 500.599) rotate(-90)" fill="#1894f6"/>
    <rect id="Rectángulo_45239-2" data-name="Rectángulo 45239" width="3.279" height="3.279" transform="translate(1074.432 493.63) rotate(-90)" fill="#1894f6"/>
    <rect id="Rectángulo_46392" data-name="Rectángulo 46392" width="3.279" height="3.279" transform="translate(1074.432 507.566) rotate(-90)" fill="#1894f6"/>
    <rect id="Rectángulo_45286" data-name="Rectángulo 45286" width="3.279" height="3.279" transform="translate(1060.494 493.63) rotate(-90)" fill="#1894f6"/>
    <rect id="Rectángulo_46393" data-name="Rectángulo 46393" width="3.279" height="3.279" transform="translate(1060.494 507.566) rotate(-90)" fill="#1894f6"/>
    <rect id="Rectángulo_45243-2" data-name="Rectángulo 45243" width="3.279" height="3.279" transform="translate(1067.463 444.854) rotate(-90)" fill="#1894f6"/>
    <rect id="Rectángulo_45268" data-name="Rectángulo 45268" width="3.279" height="3.279" transform="translate(1053.526 444.854) rotate(-90)" fill="#1894f6"/>
    <rect id="Rectángulo_45244-2" data-name="Rectángulo 45244" width="3.279" height="3.279" transform="translate(1067.463 451.821) rotate(-90)" fill="#1894f6"/>
    <rect id="Rectángulo_45269" data-name="Rectángulo 45269" width="3.279" height="3.279" transform="translate(1053.526 451.821) rotate(-90)" fill="#1894f6"/>
    <rect id="Rectángulo_45245-2" data-name="Rectángulo 45245" width="3.279" height="3.279" transform="translate(1067.463 458.79) rotate(-90)" fill="#1894f6"/>
    <rect id="Rectángulo_45270" data-name="Rectángulo 45270" width="3.279" height="3.279" transform="translate(1053.526 458.79) rotate(-90)" fill="#1894f6"/>
    <rect id="Rectángulo_45246-2" data-name="Rectángulo 45246" width="3.279" height="3.279" transform="translate(1067.463 465.758) rotate(-90)" fill="#1894f6"/>
    <rect id="Rectángulo_45271" data-name="Rectángulo 45271" width="3.279" height="3.279" transform="translate(1053.526 465.758) rotate(-90)" fill="#1894f6"/>
    <rect id="Rectángulo_45247-2" data-name="Rectángulo 45247" width="3.279" height="3.279" transform="translate(1067.463 472.726) rotate(-90)" fill="#1894f6"/>
    <rect id="Rectángulo_45272" data-name="Rectángulo 45272" width="3.279" height="3.279" transform="translate(1053.526 472.726) rotate(-90)" fill="#1894f6"/>
    <rect id="Rectángulo_45248-2" data-name="Rectángulo 45248" width="3.279" height="3.279" transform="translate(1067.463 479.693) rotate(-90)" fill="#1894f6"/>
    <rect id="Rectángulo_45273" data-name="Rectángulo 45273" width="3.279" height="3.279" transform="translate(1053.526 479.693) rotate(-90)" fill="#1894f6"/>
    <rect id="Rectángulo_45249-2" data-name="Rectángulo 45249" width="3.279" height="3.279" transform="translate(1067.463 486.662) rotate(-90)" fill="#1894f6"/>
    <rect id="Rectángulo_46402" data-name="Rectángulo 46402" width="3.279" height="3.279" transform="translate(1067.463 500.599) rotate(-90)" fill="#1894f6"/>
    <rect id="Rectángulo_45274" data-name="Rectángulo 45274" width="3.279" height="3.279" transform="translate(1053.526 486.662) rotate(-90)" fill="#1894f6"/>
    <rect id="Rectángulo_46403" data-name="Rectángulo 46403" width="3.279" height="3.279" transform="translate(1053.526 500.599) rotate(-90)" fill="#1894f6"/>
    <rect id="Rectángulo_45250-2" data-name="Rectángulo 45250" width="3.279" height="3.279" transform="translate(1067.463 493.63) rotate(-90)" fill="#1894f6"/>
    <rect id="Rectángulo_46394" data-name="Rectángulo 46394" width="3.279" height="3.279" transform="translate(1067.463 507.566) rotate(-90)" fill="#1894f6"/>
    <rect id="Rectángulo_45275" data-name="Rectángulo 45275" width="3.279" height="3.279" transform="translate(1053.526 493.63) rotate(-90)" fill="#1894f6"/>
    <rect id="Rectángulo_46395" data-name="Rectángulo 46395" width="3.279" height="3.279" transform="translate(1053.526 507.566) rotate(-90)" fill="#1894f6"/>
  </g>
</svg>
