<svg xmlns="http://www.w3.org/2000/svg" width="85" height="137.992" viewBox="0 0 85 137.992">
  <g id="Grupo_154576" data-name="Grupo 154576" transform="translate(-179.958 -2139)">
    <rect id="Rectángulo_45220" data-name="Rectángulo 45220" width="105.527" height="51.474" transform="translate(231.432 2139) rotate(90)" fill="#e4e4e4"/>
    <rect id="Rectángulo_45221" data-name="Rectángulo 45221" width="3.279" height="3.279" transform="translate(261.679 2157.223) rotate(-90)" fill="#1894f6"/>
    <rect id="Rectángulo_46298" data-name="Rectángulo 46298" width="3.279" height="3.279" transform="translate(261.679 2212.967) rotate(-90)" fill="#1894f6"/>
    <rect id="Rectángulo_45222" data-name="Rectángulo 45222" width="3.279" height="3.279" transform="translate(261.679 2164.191) rotate(-90)" fill="#1894f6"/>
    <rect id="Rectángulo_46284" data-name="Rectángulo 46284" width="3.279" height="3.279" transform="translate(261.679 2219.936) rotate(-90)" fill="#1894f6"/>
    <rect id="Rectángulo_45223" data-name="Rectángulo 45223" width="3.279" height="3.279" transform="translate(261.679 2171.158) rotate(-90)" fill="#1894f6"/>
    <rect id="Rectángulo_46272" data-name="Rectángulo 46272" width="3.279" height="3.279" transform="translate(261.679 2226.902) rotate(-90)" fill="#1894f6"/>
    <rect id="Rectángulo_45224" data-name="Rectángulo 45224" width="3.279" height="3.279" transform="translate(261.679 2178.127) rotate(-90)" fill="#1894f6"/>
    <rect id="Rectángulo_46258" data-name="Rectángulo 46258" width="3.279" height="3.279" transform="translate(261.679 2233.871) rotate(-90)" fill="#1894f6"/>
    <rect id="Rectángulo_45225" data-name="Rectángulo 45225" width="3.279" height="3.279" transform="translate(261.679 2185.096) rotate(-90)" fill="#1894f6"/>
    <rect id="Rectángulo_46244" data-name="Rectángulo 46244" width="3.279" height="3.279" transform="translate(261.679 2240.84) rotate(-90)" fill="#1894f6"/>
    <rect id="Rectángulo_45226" data-name="Rectángulo 45226" width="3.279" height="3.279" transform="translate(261.679 2192.063) rotate(-90)" fill="#1894f6"/>
    <rect id="Rectángulo_46245" data-name="Rectángulo 46245" width="3.279" height="3.279" transform="translate(261.679 2247.807) rotate(-90)" fill="#1894f6"/>
    <rect id="Rectángulo_45227" data-name="Rectángulo 45227" width="3.279" height="3.279" transform="translate(261.679 2199.031) rotate(-90)" fill="#1894f6"/>
    <rect id="Rectángulo_46246" data-name="Rectángulo 46246" width="3.279" height="3.279" transform="translate(261.679 2254.775) rotate(-90)" fill="#1894f6"/>
    <rect id="Rectángulo_46314" data-name="Rectángulo 46314" width="3.279" height="3.279" transform="translate(261.679 2270.023) rotate(-90)" fill="#1894f6"/>
    <rect id="Rectángulo_45228" data-name="Rectángulo 45228" width="3.279" height="3.279" transform="translate(261.679 2206) rotate(-90)" fill="#1894f6"/>
    <rect id="Rectángulo_46242" data-name="Rectángulo 46242" width="3.279" height="3.279" transform="translate(261.679 2261.744) rotate(-90)" fill="#1894f6"/>
    <rect id="Rectángulo_46306" data-name="Rectángulo 46306" width="3.279" height="3.279" transform="translate(261.679 2276.992) rotate(-90)" fill="#1894f6"/>
    <rect id="Rectángulo_45232" data-name="Rectángulo 45232" width="3.279" height="3.279" transform="translate(254.711 2157.223) rotate(-90)" fill="#1894f6"/>
    <rect id="Rectángulo_46299" data-name="Rectángulo 46299" width="3.279" height="3.279" transform="translate(254.711 2212.967) rotate(-90)" fill="#1894f6"/>
    <rect id="Rectángulo_45233" data-name="Rectángulo 45233" width="3.279" height="3.279" transform="translate(254.711 2164.191) rotate(-90)" fill="#1894f6"/>
    <rect id="Rectángulo_46285" data-name="Rectángulo 46285" width="3.279" height="3.279" transform="translate(254.711 2219.936) rotate(-90)" fill="#1894f6"/>
    <rect id="Rectángulo_45234" data-name="Rectángulo 45234" width="3.279" height="3.279" transform="translate(254.711 2171.158) rotate(-90)" fill="#1894f6"/>
    <rect id="Rectángulo_46273" data-name="Rectángulo 46273" width="3.279" height="3.279" transform="translate(254.711 2226.902) rotate(-90)" fill="#1894f6"/>
    <rect id="Rectángulo_45235" data-name="Rectángulo 45235" width="3.279" height="3.279" transform="translate(254.711 2178.127) rotate(-90)" fill="#1894f6"/>
    <rect id="Rectángulo_46259" data-name="Rectángulo 46259" width="3.279" height="3.279" transform="translate(254.711 2233.871) rotate(-90)" fill="#1894f6"/>
    <rect id="Rectángulo_45236" data-name="Rectángulo 45236" width="3.279" height="3.279" transform="translate(254.711 2185.096) rotate(-90)" fill="#1894f6"/>
    <rect id="Rectángulo_46247" data-name="Rectángulo 46247" width="3.279" height="3.279" transform="translate(254.711 2240.84) rotate(-90)" fill="#1894f6"/>
    <rect id="Rectángulo_45237" data-name="Rectángulo 45237" width="3.279" height="3.279" transform="translate(254.711 2192.063) rotate(-90)" fill="#1894f6"/>
    <rect id="Rectángulo_46248" data-name="Rectángulo 46248" width="3.279" height="3.279" transform="translate(254.711 2247.807) rotate(-90)" fill="#1894f6"/>
    <rect id="Rectángulo_45238" data-name="Rectángulo 45238" width="3.279" height="3.279" transform="translate(254.711 2199.031) rotate(-90)" fill="#1894f6"/>
    <rect id="Rectángulo_46249" data-name="Rectángulo 46249" width="3.279" height="3.279" transform="translate(254.711 2254.775) rotate(-90)" fill="#1894f6"/>
    <rect id="Rectángulo_46315" data-name="Rectángulo 46315" width="3.279" height="3.279" transform="translate(254.711 2270.023) rotate(-90)" fill="#1894f6"/>
    <rect id="Rectángulo_45239" data-name="Rectángulo 45239" width="3.279" height="3.279" transform="translate(254.711 2206) rotate(-90)" fill="#1894f6"/>
    <rect id="Rectángulo_46243" data-name="Rectángulo 46243" width="3.279" height="3.279" transform="translate(254.711 2261.744) rotate(-90)" fill="#1894f6"/>
    <rect id="Rectángulo_46307" data-name="Rectángulo 46307" width="3.279" height="3.279" transform="translate(254.711 2276.992) rotate(-90)" fill="#1894f6"/>
    <rect id="Rectángulo_45243" data-name="Rectángulo 45243" width="3.279" height="3.279" transform="translate(247.743 2157.223) rotate(-90)" fill="#1894f6"/>
    <rect id="Rectángulo_46300" data-name="Rectángulo 46300" width="3.279" height="3.279" transform="translate(247.743 2212.967) rotate(-90)" fill="#1894f6"/>
    <rect id="Rectángulo_45244" data-name="Rectángulo 45244" width="3.279" height="3.279" transform="translate(247.743 2164.191) rotate(-90)" fill="#1894f6"/>
    <rect id="Rectángulo_46286" data-name="Rectángulo 46286" width="3.279" height="3.279" transform="translate(247.743 2219.936) rotate(-90)" fill="#1894f6"/>
    <rect id="Rectángulo_45245" data-name="Rectángulo 45245" width="3.279" height="3.279" transform="translate(247.743 2171.158) rotate(-90)" fill="#1894f6"/>
    <rect id="Rectángulo_46274" data-name="Rectángulo 46274" width="3.279" height="3.279" transform="translate(247.743 2226.902) rotate(-90)" fill="#1894f6"/>
    <rect id="Rectángulo_45246" data-name="Rectángulo 45246" width="3.279" height="3.279" transform="translate(247.743 2178.127) rotate(-90)" fill="#1894f6"/>
    <rect id="Rectángulo_46260" data-name="Rectángulo 46260" width="3.279" height="3.279" transform="translate(247.743 2233.871) rotate(-90)" fill="#1894f6"/>
    <rect id="Rectángulo_45247" data-name="Rectángulo 45247" width="3.279" height="3.279" transform="translate(247.743 2185.096) rotate(-90)" fill="#1894f6"/>
    <rect id="Rectángulo_46250" data-name="Rectángulo 46250" width="3.279" height="3.279" transform="translate(247.743 2240.84) rotate(-90)" fill="#1894f6"/>
    <rect id="Rectángulo_45248" data-name="Rectángulo 45248" width="3.279" height="3.279" transform="translate(247.743 2192.063) rotate(-90)" fill="#1894f6"/>
    <rect id="Rectángulo_46251" data-name="Rectángulo 46251" width="3.279" height="3.279" transform="translate(247.743 2247.807) rotate(-90)" fill="#1894f6"/>
    <rect id="Rectángulo_45249" data-name="Rectángulo 45249" width="3.279" height="3.279" transform="translate(247.743 2199.031) rotate(-90)" fill="#1894f6"/>
    <rect id="Rectángulo_46252" data-name="Rectángulo 46252" width="3.279" height="3.279" transform="translate(247.743 2254.775) rotate(-90)" fill="#1894f6"/>
    <rect id="Rectángulo_46316" data-name="Rectángulo 46316" width="3.279" height="3.279" transform="translate(247.743 2270.023) rotate(-90)" fill="#1894f6"/>
    <rect id="Rectángulo_45250" data-name="Rectángulo 45250" width="3.279" height="3.279" transform="translate(247.743 2206) rotate(-90)" fill="#1894f6"/>
    <rect id="Rectángulo_46253" data-name="Rectángulo 46253" width="3.279" height="3.279" transform="translate(247.743 2261.744) rotate(-90)" fill="#1894f6"/>
    <rect id="Rectángulo_46308" data-name="Rectángulo 46308" width="3.279" height="3.279" transform="translate(247.743 2276.992) rotate(-90)" fill="#1894f6"/>
    <rect id="Rectángulo_45221-2" data-name="Rectángulo 45221" width="3.279" height="3.279" transform="translate(241.357 2157.223) rotate(-90)" fill="#1894f6"/>
    <rect id="Rectángulo_46301" data-name="Rectángulo 46301" width="3.279" height="3.279" transform="translate(241.357 2212.967) rotate(-90)" fill="#1894f6"/>
    <rect id="Rectángulo_45222-2" data-name="Rectángulo 45222" width="3.279" height="3.279" transform="translate(241.357 2164.191) rotate(-90)" fill="#1894f6"/>
    <rect id="Rectángulo_46287" data-name="Rectángulo 46287" width="3.279" height="3.279" transform="translate(241.357 2219.936) rotate(-90)" fill="#1894f6"/>
    <rect id="Rectángulo_45223-2" data-name="Rectángulo 45223" width="3.279" height="3.279" transform="translate(241.357 2171.159) rotate(-90)" fill="#1894f6"/>
    <rect id="Rectángulo_46275" data-name="Rectángulo 46275" width="3.279" height="3.279" transform="translate(241.357 2226.903) rotate(-90)" fill="#1894f6"/>
    <rect id="Rectángulo_45224-2" data-name="Rectángulo 45224" width="3.279" height="3.279" transform="translate(241.357 2178.127) rotate(-90)" fill="#1894f6"/>
    <rect id="Rectángulo_46261" data-name="Rectángulo 46261" width="3.279" height="3.279" transform="translate(241.357 2233.871) rotate(-90)" fill="#1894f6"/>
    <rect id="Rectángulo_45225-2" data-name="Rectángulo 45225" width="3.279" height="3.279" transform="translate(241.357 2185.096) rotate(-90)" fill="#1894f6"/>
    <rect id="Rectángulo_46254" data-name="Rectángulo 46254" width="3.279" height="3.279" transform="translate(241.357 2240.84) rotate(-90)" fill="#1894f6"/>
    <rect id="Rectángulo_45226-2" data-name="Rectángulo 45226" width="3.279" height="3.279" transform="translate(241.357 2192.063) rotate(-90)" fill="#1894f6"/>
    <rect id="Rectángulo_46255" data-name="Rectángulo 46255" width="3.279" height="3.279" transform="translate(241.357 2247.807) rotate(-90)" fill="#1894f6"/>
    <rect id="Rectángulo_45227-2" data-name="Rectángulo 45227" width="3.279" height="3.279" transform="translate(241.357 2199.031) rotate(-90)" fill="#1894f6"/>
    <rect id="Rectángulo_46256" data-name="Rectángulo 46256" width="3.279" height="3.279" transform="translate(241.357 2254.775) rotate(-90)" fill="#1894f6"/>
    <rect id="Rectángulo_46317" data-name="Rectángulo 46317" width="3.279" height="3.279" transform="translate(241.357 2270.023) rotate(-90)" fill="#1894f6"/>
    <rect id="Rectángulo_45228-2" data-name="Rectángulo 45228" width="3.279" height="3.279" transform="translate(241.357 2206) rotate(-90)" fill="#1894f6"/>
    <rect id="Rectángulo_46257" data-name="Rectángulo 46257" width="3.279" height="3.279" transform="translate(241.357 2261.744) rotate(-90)" fill="#1894f6"/>
    <rect id="Rectángulo_46309" data-name="Rectángulo 46309" width="3.279" height="3.279" transform="translate(241.357 2276.992) rotate(-90)" fill="#1894f6"/>
    <rect id="Rectángulo_45232-2" data-name="Rectángulo 45232" width="3.279" height="3.279" transform="translate(234.389 2157.223) rotate(-90)" fill="#1894f6"/>
    <rect id="Rectángulo_46302" data-name="Rectángulo 46302" width="3.279" height="3.279" transform="translate(234.389 2212.967) rotate(-90)" fill="#1894f6"/>
    <rect id="Rectángulo_45279" data-name="Rectángulo 45279" width="3.279" height="3.279" transform="translate(220.453 2157.223) rotate(-90)" fill="#1894f6"/>
    <rect id="Rectángulo_46303" data-name="Rectángulo 46303" width="3.279" height="3.279" transform="translate(220.453 2212.967) rotate(-90)" fill="#1894f6"/>
    <rect id="Rectángulo_45233-2" data-name="Rectángulo 45233" width="3.279" height="3.279" transform="translate(234.389 2164.191) rotate(-90)" fill="#1894f6"/>
    <rect id="Rectángulo_46288" data-name="Rectángulo 46288" width="3.279" height="3.279" transform="translate(234.389 2219.936) rotate(-90)" fill="#1894f6"/>
    <rect id="Rectángulo_45280" data-name="Rectángulo 45280" width="3.279" height="3.279" transform="translate(220.453 2164.191) rotate(-90)" fill="#1894f6"/>
    <rect id="Rectángulo_46289" data-name="Rectángulo 46289" width="3.279" height="3.279" transform="translate(220.453 2219.936) rotate(-90)" fill="#1894f6"/>
    <rect id="Rectángulo_45234-2" data-name="Rectángulo 45234" width="3.279" height="3.279" transform="translate(234.389 2171.159) rotate(-90)" fill="#1894f6"/>
    <rect id="Rectángulo_46276" data-name="Rectángulo 46276" width="3.279" height="3.279" transform="translate(234.389 2226.903) rotate(-90)" fill="#1894f6"/>
    <rect id="Rectángulo_45281" data-name="Rectángulo 45281" width="3.279" height="3.279" transform="translate(220.453 2171.159) rotate(-90)" fill="#1894f6"/>
    <rect id="Rectángulo_46277" data-name="Rectángulo 46277" width="3.279" height="3.279" transform="translate(220.453 2226.903) rotate(-90)" fill="#1894f6"/>
    <rect id="Rectángulo_45235-2" data-name="Rectángulo 45235" width="3.279" height="3.279" transform="translate(234.389 2178.127) rotate(-90)" fill="#1894f6"/>
    <rect id="Rectángulo_46262" data-name="Rectángulo 46262" width="3.279" height="3.279" transform="translate(234.389 2233.871) rotate(-90)" fill="#1894f6"/>
    <rect id="Rectángulo_45282" data-name="Rectángulo 45282" width="3.279" height="3.279" transform="translate(220.453 2178.127) rotate(-90)" fill="#1894f6"/>
    <rect id="Rectángulo_46278" data-name="Rectángulo 46278" width="3.279" height="3.279" transform="translate(220.453 2233.871) rotate(-90)" fill="#1894f6"/>
    <rect id="Rectángulo_45236-2" data-name="Rectángulo 45236" width="3.279" height="3.279" transform="translate(234.389 2185.096) rotate(-90)" fill="#1894f6"/>
    <rect id="Rectángulo_46263" data-name="Rectángulo 46263" width="3.279" height="3.279" transform="translate(234.389 2240.84) rotate(-90)" fill="#1894f6"/>
    <rect id="Rectángulo_45283" data-name="Rectángulo 45283" width="3.279" height="3.279" transform="translate(220.453 2185.096) rotate(-90)" fill="#1894f6"/>
    <rect id="Rectángulo_46279" data-name="Rectángulo 46279" width="3.279" height="3.279" transform="translate(220.453 2240.84) rotate(-90)" fill="#1894f6"/>
    <rect id="Rectángulo_45237-2" data-name="Rectángulo 45237" width="3.279" height="3.279" transform="translate(234.389 2192.063) rotate(-90)" fill="#1894f6"/>
    <rect id="Rectángulo_46264" data-name="Rectángulo 46264" width="3.279" height="3.279" transform="translate(234.389 2247.807) rotate(-90)" fill="#1894f6"/>
    <rect id="Rectángulo_45284" data-name="Rectángulo 45284" width="3.279" height="3.279" transform="translate(220.453 2192.063) rotate(-90)" fill="#1894f6"/>
    <rect id="Rectángulo_46280" data-name="Rectángulo 46280" width="3.279" height="3.279" transform="translate(220.453 2247.807) rotate(-90)" fill="#1894f6"/>
    <rect id="Rectángulo_45238-2" data-name="Rectángulo 45238" width="3.279" height="3.279" transform="translate(234.389 2199.031) rotate(-90)" fill="#1894f6"/>
    <rect id="Rectángulo_46265" data-name="Rectángulo 46265" width="3.279" height="3.279" transform="translate(234.389 2254.775) rotate(-90)" fill="#1894f6"/>
    <rect id="Rectángulo_46318" data-name="Rectángulo 46318" width="3.279" height="3.279" transform="translate(234.389 2270.023) rotate(-90)" fill="#1894f6"/>
    <rect id="Rectángulo_45285" data-name="Rectángulo 45285" width="3.279" height="3.279" transform="translate(220.453 2199.031) rotate(-90)" fill="#1894f6"/>
    <rect id="Rectángulo_46281" data-name="Rectángulo 46281" width="3.279" height="3.279" transform="translate(220.453 2254.775) rotate(-90)" fill="#1894f6"/>
    <rect id="Rectángulo_46319" data-name="Rectángulo 46319" width="3.279" height="3.279" transform="translate(220.453 2270.023) rotate(-90)" fill="#1894f6"/>
    <rect id="Rectángulo_45239-2" data-name="Rectángulo 45239" width="3.279" height="3.279" transform="translate(234.389 2206) rotate(-90)" fill="#1894f6"/>
    <rect id="Rectángulo_46266" data-name="Rectángulo 46266" width="3.279" height="3.279" transform="translate(234.389 2261.744) rotate(-90)" fill="#1894f6"/>
    <rect id="Rectángulo_46310" data-name="Rectángulo 46310" width="3.279" height="3.279" transform="translate(234.389 2276.992) rotate(-90)" fill="#1894f6"/>
    <rect id="Rectángulo_45286" data-name="Rectángulo 45286" width="3.279" height="3.279" transform="translate(220.453 2206) rotate(-90)" fill="#1894f6"/>
    <rect id="Rectángulo_46282" data-name="Rectángulo 46282" width="3.279" height="3.279" transform="translate(220.453 2261.744) rotate(-90)" fill="#1894f6"/>
    <rect id="Rectángulo_46311" data-name="Rectángulo 46311" width="3.279" height="3.279" transform="translate(220.453 2276.992) rotate(-90)" fill="#1894f6"/>
    <rect id="Rectángulo_45243-2" data-name="Rectángulo 45243" width="3.279" height="3.279" transform="translate(227.421 2157.223) rotate(-90)" fill="#1894f6"/>
    <rect id="Rectángulo_46304" data-name="Rectángulo 46304" width="3.279" height="3.279" transform="translate(227.421 2212.967) rotate(-90)" fill="#1894f6"/>
    <rect id="Rectángulo_45268" data-name="Rectángulo 45268" width="3.279" height="3.279" transform="translate(213.484 2157.223) rotate(-90)" fill="#1894f6"/>
    <rect id="Rectángulo_46305" data-name="Rectángulo 46305" width="3.279" height="3.279" transform="translate(213.484 2212.967) rotate(-90)" fill="#1894f6"/>
    <rect id="Rectángulo_45244-2" data-name="Rectángulo 45244" width="3.279" height="3.279" transform="translate(227.421 2164.191) rotate(-90)" fill="#1894f6"/>
    <rect id="Rectángulo_46290" data-name="Rectángulo 46290" width="3.279" height="3.279" transform="translate(227.421 2219.936) rotate(-90)" fill="#1894f6"/>
    <rect id="Rectángulo_45269" data-name="Rectángulo 45269" width="3.279" height="3.279" transform="translate(213.484 2164.191) rotate(-90)" fill="#1894f6"/>
    <rect id="Rectángulo_46291" data-name="Rectángulo 46291" width="3.279" height="3.279" transform="translate(213.484 2219.936) rotate(-90)" fill="#1894f6"/>
    <rect id="Rectángulo_45245-2" data-name="Rectángulo 45245" width="3.279" height="3.279" transform="translate(227.421 2171.159) rotate(-90)" fill="#1894f6"/>
    <rect id="Rectángulo_46283" data-name="Rectángulo 46283" width="3.279" height="3.279" transform="translate(227.421 2226.903) rotate(-90)" fill="#1894f6"/>
    <rect id="Rectángulo_45270" data-name="Rectángulo 45270" width="3.279" height="3.279" transform="translate(213.484 2171.159) rotate(-90)" fill="#1894f6"/>
    <rect id="Rectángulo_46292" data-name="Rectángulo 46292" width="3.279" height="3.279" transform="translate(213.484 2226.903) rotate(-90)" fill="#1894f6"/>
    <rect id="Rectángulo_45246-2" data-name="Rectángulo 45246" width="3.279" height="3.279" transform="translate(227.421 2178.127) rotate(-90)" fill="#1894f6"/>
    <rect id="Rectángulo_46267" data-name="Rectángulo 46267" width="3.279" height="3.279" transform="translate(227.421 2233.871) rotate(-90)" fill="#1894f6"/>
    <rect id="Rectángulo_45271" data-name="Rectángulo 45271" width="3.279" height="3.279" transform="translate(213.484 2178.127) rotate(-90)" fill="#1894f6"/>
    <rect id="Rectángulo_46293" data-name="Rectángulo 46293" width="3.279" height="3.279" transform="translate(213.484 2233.871) rotate(-90)" fill="#1894f6"/>
    <rect id="Rectángulo_45247-2" data-name="Rectángulo 45247" width="3.279" height="3.279" transform="translate(227.421 2185.096) rotate(-90)" fill="#1894f6"/>
    <rect id="Rectángulo_46268" data-name="Rectángulo 46268" width="3.279" height="3.279" transform="translate(227.421 2240.84) rotate(-90)" fill="#1894f6"/>
    <rect id="Rectángulo_45272" data-name="Rectángulo 45272" width="3.279" height="3.279" transform="translate(213.484 2185.096) rotate(-90)" fill="#1894f6"/>
    <rect id="Rectángulo_46294" data-name="Rectángulo 46294" width="3.279" height="3.279" transform="translate(213.484 2240.84) rotate(-90)" fill="#1894f6"/>
    <rect id="Rectángulo_45248-2" data-name="Rectángulo 45248" width="3.279" height="3.279" transform="translate(227.421 2192.063) rotate(-90)" fill="#1894f6"/>
    <rect id="Rectángulo_46269" data-name="Rectángulo 46269" width="3.279" height="3.279" transform="translate(227.421 2247.807) rotate(-90)" fill="#1894f6"/>
    <rect id="Rectángulo_45273" data-name="Rectángulo 45273" width="3.279" height="3.279" transform="translate(213.484 2192.063) rotate(-90)" fill="#1894f6"/>
    <rect id="Rectángulo_46295" data-name="Rectángulo 46295" width="3.279" height="3.279" transform="translate(213.484 2247.807) rotate(-90)" fill="#1894f6"/>
    <rect id="Rectángulo_45249-2" data-name="Rectángulo 45249" width="3.279" height="3.279" transform="translate(227.421 2199.031) rotate(-90)" fill="#1894f6"/>
    <rect id="Rectángulo_46270" data-name="Rectángulo 46270" width="3.279" height="3.279" transform="translate(227.421 2254.775) rotate(-90)" fill="#1894f6"/>
    <rect id="Rectángulo_46320" data-name="Rectángulo 46320" width="3.279" height="3.279" transform="translate(227.421 2270.023) rotate(-90)" fill="#1894f6"/>
    <rect id="Rectángulo_45274" data-name="Rectángulo 45274" width="3.279" height="3.279" transform="translate(213.484 2199.031) rotate(-90)" fill="#1894f6"/>
    <rect id="Rectángulo_46296" data-name="Rectángulo 46296" width="3.279" height="3.279" transform="translate(213.484 2254.775) rotate(-90)" fill="#1894f6"/>
    <rect id="Rectángulo_46321" data-name="Rectángulo 46321" width="3.279" height="3.279" transform="translate(213.484 2270.023) rotate(-90)" fill="#1894f6"/>
    <rect id="Rectángulo_45250-2" data-name="Rectángulo 45250" width="3.279" height="3.279" transform="translate(227.421 2206) rotate(-90)" fill="#1894f6"/>
    <rect id="Rectángulo_46271" data-name="Rectángulo 46271" width="3.279" height="3.279" transform="translate(227.421 2261.744) rotate(-90)" fill="#1894f6"/>
    <rect id="Rectángulo_46312" data-name="Rectángulo 46312" width="3.279" height="3.279" transform="translate(227.421 2276.992) rotate(-90)" fill="#1894f6"/>
    <rect id="Rectángulo_45275" data-name="Rectángulo 45275" width="3.279" height="3.279" transform="translate(213.484 2206) rotate(-90)" fill="#1894f6"/>
    <rect id="Rectángulo_46297" data-name="Rectángulo 46297" width="3.279" height="3.279" transform="translate(213.484 2261.744) rotate(-90)" fill="#1894f6"/>
    <rect id="Rectángulo_46313" data-name="Rectángulo 46313" width="3.279" height="3.279" transform="translate(213.484 2276.992) rotate(-90)" fill="#1894f6"/>
  </g>
</svg>
