<svg xmlns="http://www.w3.org/2000/svg" xmlns:xlink="http://www.w3.org/1999/xlink" width="237.351" height="241.391" viewBox="0 0 237.351 241.391">
  <defs>
    <filter id="Rectángulo_46523" x="0" y="198.1" width="147.852" height="43.291" filterUnits="userSpaceOnUse">
      <feOffset dy="3" input="SourceAlpha"/>
      <feGaussianBlur stdDeviation="3" result="blur"/>
      <feFlood flood-opacity="0.161"/>
      <feComposite operator="in" in2="blur"/>
      <feComposite in="SourceGraphic"/>
    </filter>
    <clipPath id="clip-path">
      <rect id="Rectángulo_45574" data-name="Rectángulo 45574" width="206.383" height="235.737" fill="none"/>
    </clipPath>
    <clipPath id="clip-path-3">
      <path id="Trazado_195521" data-name="Trazado 195521" d="M15.19,0A10.759,10.759,0,0,0,4.431,10.759V58.325A10.759,10.759,0,0,0,15.19,69.085H55.961A10.759,10.759,0,0,0,66.72,58.325V47.27l7.365,2.123L66.72,39.64V10.759A10.759,10.759,0,0,0,55.961,0Z" transform="translate(-4.431)" fill="none"/>
    </clipPath>
    <clipPath id="clip-path-5">
      <rect id="Rectángulo_45571" data-name="Rectángulo 45571" width="81.487" height="10.367" fill="none"/>
    </clipPath>
  </defs>
  <g id="Grupo_155234" data-name="Grupo 155234" transform="translate(-740.868 -435.263)">
    <g id="Grupo_155049" data-name="Grupo 155049" transform="translate(747.206 447.76)">
      <g id="Grupo_152551" data-name="Grupo 152551" transform="translate(0 41.57) rotate(-90)">
        <rect id="Rectángulo_45220" data-name="Rectángulo 45220" width="30.022" height="8.94" transform="translate(41.57 12.928) rotate(180)" fill="#e8e8e8"/>
        <g id="Grupo_152556" data-name="Grupo 152556">
          <rect id="Rectángulo_45221" data-name="Rectángulo 45221" width="1.519" height="1.519" transform="translate(32.281)" fill="#1894f6"/>
          <rect id="Rectángulo_45222" data-name="Rectángulo 45222" width="1.519" height="1.519" transform="translate(29.053)" fill="#1894f6"/>
          <rect id="Rectángulo_45223" data-name="Rectángulo 45223" width="1.519" height="1.519" transform="translate(25.825)" fill="#1894f6"/>
          <rect id="Rectángulo_45224" data-name="Rectángulo 45224" width="1.519" height="1.519" transform="translate(22.597)" fill="#1894f6"/>
          <rect id="Rectángulo_45225" data-name="Rectángulo 45225" width="1.519" height="1.519" transform="translate(19.369)" fill="#1894f6"/>
          <rect id="Rectángulo_45226" data-name="Rectángulo 45226" width="1.519" height="1.519" transform="translate(16.141)" fill="#1894f6"/>
          <rect id="Rectángulo_45227" data-name="Rectángulo 45227" width="1.519" height="1.519" transform="translate(12.913)" fill="#1894f6"/>
          <rect id="Rectángulo_45228" data-name="Rectángulo 45228" width="1.519" height="1.519" transform="translate(9.684)" fill="#1894f6"/>
          <rect id="Rectángulo_45229" data-name="Rectángulo 45229" width="1.519" height="1.519" transform="translate(6.456)" fill="#1894f6"/>
          <rect id="Rectángulo_45230" data-name="Rectángulo 45230" width="1.519" height="1.519" transform="translate(3.228)" fill="#1894f6"/>
          <rect id="Rectángulo_45231" data-name="Rectángulo 45231" width="1.519" height="1.519" fill="#1894f6"/>
          <rect id="Rectángulo_45232" data-name="Rectángulo 45232" width="1.519" height="1.519" transform="translate(32.281 3.228)" fill="#1894f6"/>
          <rect id="Rectángulo_45233" data-name="Rectángulo 45233" width="1.519" height="1.519" transform="translate(29.053 3.228)" fill="#1894f6"/>
          <rect id="Rectángulo_45234" data-name="Rectángulo 45234" width="1.519" height="1.519" transform="translate(25.825 3.228)" fill="#1894f6"/>
          <rect id="Rectángulo_45235" data-name="Rectángulo 45235" width="1.519" height="1.519" transform="translate(22.597 3.228)" fill="#1894f6"/>
          <rect id="Rectángulo_45236" data-name="Rectángulo 45236" width="1.519" height="1.519" transform="translate(19.369 3.228)" fill="#1894f6"/>
          <rect id="Rectángulo_45237" data-name="Rectángulo 45237" width="1.519" height="1.519" transform="translate(16.141 3.228)" fill="#1894f6"/>
          <rect id="Rectángulo_45238" data-name="Rectángulo 45238" width="1.519" height="1.519" transform="translate(12.913 3.228)" fill="#1894f6"/>
          <rect id="Rectángulo_45239" data-name="Rectángulo 45239" width="1.519" height="1.519" transform="translate(9.684 3.228)" fill="#1894f6"/>
          <rect id="Rectángulo_45240" data-name="Rectángulo 45240" width="1.519" height="1.519" transform="translate(6.456 3.228)" fill="#1894f6"/>
          <rect id="Rectángulo_45241" data-name="Rectángulo 45241" width="1.519" height="1.519" transform="translate(3.228 3.228)" fill="#1894f6"/>
          <rect id="Rectángulo_45242" data-name="Rectángulo 45242" width="1.519" height="1.519" transform="translate(0 3.228)" fill="#1894f6"/>
          <rect id="Rectángulo_45243" data-name="Rectángulo 45243" width="1.519" height="1.519" transform="translate(32.281 6.456)" fill="#1894f6"/>
          <rect id="Rectángulo_45244" data-name="Rectángulo 45244" width="1.519" height="1.519" transform="translate(29.053 6.456)" fill="#1894f6"/>
          <rect id="Rectángulo_45245" data-name="Rectángulo 45245" width="1.519" height="1.519" transform="translate(25.825 6.456)" fill="#1894f6"/>
          <rect id="Rectángulo_45246" data-name="Rectángulo 45246" width="1.519" height="1.519" transform="translate(22.597 6.456)" fill="#1894f6"/>
          <rect id="Rectángulo_45247" data-name="Rectángulo 45247" width="1.519" height="1.519" transform="translate(19.369 6.456)" fill="#1894f6"/>
          <rect id="Rectángulo_45248" data-name="Rectángulo 45248" width="1.519" height="1.519" transform="translate(16.141 6.456)" fill="#1894f6"/>
          <rect id="Rectángulo_45249" data-name="Rectángulo 45249" width="1.519" height="1.519" transform="translate(12.913 6.456)" fill="#1894f6"/>
          <rect id="Rectángulo_45250" data-name="Rectángulo 45250" width="1.519" height="1.519" transform="translate(9.684 6.456)" fill="#1894f6"/>
          <rect id="Rectángulo_45251" data-name="Rectángulo 45251" width="1.519" height="1.519" transform="translate(6.456 6.456)" fill="#1894f6"/>
          <rect id="Rectángulo_45252" data-name="Rectángulo 45252" width="1.519" height="1.519" transform="translate(3.228 6.456)" fill="#1894f6"/>
          <rect id="Rectángulo_45253" data-name="Rectángulo 45253" width="1.519" height="1.519" transform="translate(0 6.456)" fill="#1894f6"/>
        </g>
      </g>
    </g>
    <g transform="matrix(1, 0, 0, 1, 740.87, 435.26)" filter="url(#Rectángulo_46523)">
      <rect id="Rectángulo_46523-2" data-name="Rectángulo 46523" width="25.291" height="129.852" rx="12.646" transform="translate(138.85 204.1) rotate(90)" fill="#008cff"/>
    </g>
    <g id="Grupo_155050" data-name="Grupo 155050" transform="translate(771.835 435.263)">
      <g id="Grupo_152906" data-name="Grupo 152906" transform="translate(0 0)" clip-path="url(#clip-path)">
        <g id="Grupo_152898" data-name="Grupo 152898">
          <g id="Grupo_152897" data-name="Grupo 152897" clip-path="url(#clip-path)">
            <path id="Trazado_195450" data-name="Trazado 195450" d="M337.868,213.976l-6.787-3.288v-2.235a7.608,7.608,0,0,0-7.608-7.608H270.907a7.608,7.608,0,0,0-7.608,7.608v25.6a7.608,7.608,0,0,0,7.608,7.607h52.567a7.608,7.608,0,0,0,7.608-7.607v-17.59Z" transform="translate(-133.092 -101.523)" fill="#fff"/>
            <path id="Trazado_195451" data-name="Trazado 195451" d="M0,342.049l6.787-3.288v-2.235a7.608,7.608,0,0,1,7.608-7.608H66.962a7.608,7.608,0,0,1,7.608,7.608v25.6a7.607,7.607,0,0,1-7.608,7.607H14.4a7.607,7.607,0,0,1-7.608-7.607v-17.59Z" transform="translate(0 -166.261)" fill="#fffad8"/>
            <path id="Trazado_195452" data-name="Trazado 195452" d="M406.574,286.486l1.093,2.214,2.443.355-1.768,1.723.417,2.434-2.185-1.149-2.185,1.149.417-2.434-1.768-1.723,2.443-.355Z" transform="translate(-203.726 -144.812)" fill="#eaeaea"/>
            <path id="Trazado_195453" data-name="Trazado 195453" d="M21.053,201.642l1.093,2.214,2.443.355-1.768,1.723.417,2.434-2.185-1.149-2.185,1.149.417-2.434-1.768-1.723,2.443-.355Z" transform="translate(-8.854 -101.926)" fill="#eaeaea"/>
            <path id="Trazado_195454" data-name="Trazado 195454" d="M38.606,201.642l1.093,2.214,2.443.355-1.768,1.723.417,2.434-2.185-1.149-2.185,1.149.417-2.434-1.768-1.723,2.443-.355Z" transform="translate(-17.727 -101.926)" fill="#eaeaea"/>
            <rect id="Rectángulo_45566" data-name="Rectángulo 45566" width="3.999" height="9.117" transform="translate(137.673 32.439)" fill="#03091c"/>
            <rect id="Rectángulo_45567" data-name="Rectángulo 45567" width="3.999" height="22.006" transform="translate(137.673 47.735)" fill="#03091c"/>
            <path id="Trazado_195455" data-name="Trazado 195455" d="M170.491,200.71H78.515a5.669,5.669,0,0,1-5.669-5.669V29.92a5.669,5.669,0,0,1,5.669-5.669h91.975a5.669,5.669,0,0,1,5.669,5.669V195.041a5.669,5.669,0,0,1-5.669,5.669" transform="translate(-36.822 -12.258)" fill="#03091c"/>
            <path id="Trazado_195456" data-name="Trazado 195456" d="M153.977,32.833h0c0,5.358-4.344,5.433-9.7,5.433h-31.4c-5.358,0-9.7-.075-9.7-5.433h-16.6A5.669,5.669,0,0,0,80.9,38.5V195.562a5.669,5.669,0,0,0,5.669,5.669h84.007a5.669,5.669,0,0,0,5.669-5.669V38.5a5.669,5.669,0,0,0-5.669-5.669Z" transform="translate(-40.895 -16.596)" fill="#fff"/>
            <path id="Trazado_195457" data-name="Trazado 195457" d="M153.977,32.833h0c0,5.358-4.344,5.433-9.7,5.433h-31.4c-5.358,0-9.7-.075-9.7-5.433h-16.6A5.669,5.669,0,0,0,80.9,38.5V195.562a5.669,5.669,0,0,0,5.669,5.669h84.007a5.669,5.669,0,0,0,5.669-5.669V38.5a5.669,5.669,0,0,0-5.669-5.669Z" transform="translate(-40.895 -16.596)" fill="none" stroke="#03091c" stroke-linecap="round" stroke-linejoin="round" stroke-width="0.863"/>
            <rect id="Rectángulo_45568" data-name="Rectángulo 45568" width="103.314" height="176.459" rx="11.464" transform="translate(36.024 11.993)" fill="none" stroke="#03091c" stroke-linecap="round" stroke-linejoin="round" stroke-width="0.863"/>
            <path id="Trazado_195458" data-name="Trazado 195458" d="M181.191,35.305H160.257a1.208,1.208,0,1,1,0-2.415h20.934a1.208,1.208,0,1,1,0,2.415" transform="translate(-80.396 -16.625)" fill="#fff"/>
            <path id="Trazado_195459" data-name="Trazado 195459" d="M150.943,34a1.3,1.3,0,1,1-1.3-1.3,1.3,1.3,0,0,1,1.3,1.3" transform="translate(-74.984 -16.531)" fill="#fff"/>
            <path id="Trazado_195460" data-name="Trazado 195460" d="M295.459,13.959l5-2.422V9.89a5.6,5.6,0,0,1,5.6-5.6h38.725a5.6,5.6,0,0,1,5.6,5.6V28.747a5.6,5.6,0,0,1-5.6,5.6H306.064a5.6,5.6,0,0,1-5.6-5.6V15.788Z" transform="translate(-149.348 -2.166)" fill="#2194e5"/>
            <path id="Trazado_195461" data-name="Trazado 195461" d="M322.628,16.916l.845,2.6h2.733l-2.212,1.606.845,2.6-2.212-1.607-2.211,1.607.845-2.6-2.211-1.606h2.733Z" transform="translate(-161.273 -8.551)" fill="#fff"/>
            <line id="Línea_198" data-name="Línea 198" x1="36.159" transform="translate(157.763 19.09)" fill="none" stroke="#fff" stroke-linecap="round" stroke-linejoin="round" stroke-width="1.586"/>
            <line id="Línea_199" data-name="Línea 199" x1="36.159" transform="translate(157.763 21.835)" fill="none" stroke="#fff" stroke-linecap="round" stroke-linejoin="round" stroke-width="1.586"/>
            <line id="Línea_200" data-name="Línea 200" x1="31.061" transform="translate(162.86 24.58)" fill="none" stroke="#fff" stroke-linecap="round" stroke-linejoin="round" stroke-width="1.586"/>
            <path id="Trazado_195462" data-name="Trazado 195462" d="M382.436,18.321l.431,1.328a.435.435,0,0,0,.413.3h1.4l-1.129.82a.434.434,0,0,0-.158.486l.431,1.328-1.129-.82a.434.434,0,0,0-.511,0l-1.129.82.431-1.328a.434.434,0,0,0-.158-.486l-1.129-.82h1.4a.435.435,0,0,0,.413-.3Zm0-1.406-.845,2.6h-2.733l2.211,1.607-.845,2.6,2.211-1.606,2.211,1.606-.845-2.6,2.212-1.607h-2.733Zm3.578,2.6h0Z" transform="translate(-191.504 -8.55)" fill="#fff"/>
            <path id="Trazado_195463" data-name="Trazado 195463" d="M337.58,18.321l.431,1.328a.435.435,0,0,0,.413.3h1.4l-1.129.82a.434.434,0,0,0-.158.486l.431,1.328-1.129-.82a.434.434,0,0,0-.511,0l-1.129.82.431-1.328a.434.434,0,0,0-.158-.486l-1.129-.82h1.4a.435.435,0,0,0,.413-.3Zm0-1.406-.845,2.6H334l2.211,1.607-.844,2.6,2.211-1.606,2.211,1.606-.845-2.6,2.212-1.607h-2.734Zm3.578,2.6h0Z" transform="translate(-168.831 -8.55)" fill="#fff"/>
            <path id="Trazado_195464" data-name="Trazado 195464" d="M352.532,18.321l.431,1.328a.435.435,0,0,0,.413.3h1.4l-1.129.82a.434.434,0,0,0-.158.486l.431,1.328-1.129-.82a.434.434,0,0,0-.511,0l-1.129.82.431-1.328a.435.435,0,0,0-.158-.486l-1.129-.82h1.4a.434.434,0,0,0,.413-.3Zm0-1.406-.845,2.6h-2.733l2.211,1.607-.845,2.6,2.212-1.606,2.211,1.606-.845-2.6,2.211-1.607h-2.733Zm3.578,2.6h0Z" transform="translate(-176.388 -8.55)" fill="#fff"/>
            <path id="Trazado_195465" data-name="Trazado 195465" d="M367.484,18.321l.431,1.328a.435.435,0,0,0,.413.3h1.4l-1.13.82a.434.434,0,0,0-.158.486l.431,1.328-1.129-.82a.434.434,0,0,0-.511,0l-1.129.82.431-1.328a.434.434,0,0,0-.158-.486l-1.13-.82h1.4a.435.435,0,0,0,.413-.3Zm0-1.406-.845,2.6h-2.733l2.211,1.607-.845,2.6,2.211-1.606,2.212,1.606-.845-2.6,2.212-1.607h-2.733Zm3.578,2.6h0Z" transform="translate(-183.946 -8.55)" fill="#fff"/>
            <path id="Trazado_195466" data-name="Trazado 195466" d="M295.459,79.468l5.114-2.477V75.307a5.732,5.732,0,0,1,5.732-5.732h10.209a5.732,5.732,0,0,1,5.732,5.732v9.148a5.732,5.732,0,0,1-5.732,5.732H306.3a5.732,5.732,0,0,1-5.732-5.732V81.339Z" transform="translate(-149.348 -35.169)" fill="#2194e5"/>
            <path id="Trazado_195467" data-name="Trazado 195467" d="M316.968,85.688a4.625,4.625,0,1,0,4.625-4.625A4.625,4.625,0,0,0,316.968,85.688Z" transform="translate(-160.22 -40.976)" fill="none" stroke="#fff" stroke-linecap="round" stroke-linejoin="round" stroke-width="1.025"/>
            <path id="Trazado_195468" data-name="Trazado 195468" d="M326.271,95.039a15.615,15.615,0,0,0-4.47-.013" transform="translate(-162.663 -47.956)" fill="none" stroke="#fff" stroke-linecap="round" stroke-linejoin="round" stroke-width="1.025"/>
            <path id="Trazado_195469" data-name="Trazado 195469" d="M327.751,87.532a.961.961,0,1,0,.961-.961.961.961,0,0,0-.961.961" transform="translate(-165.671 -43.76)" fill="#fff"/>
            <path id="Trazado_195470" data-name="Trazado 195470" d="M321,87.532a.961.961,0,1,0,.961-.961.961.961,0,0,0-.961.961" transform="translate(-162.26 -43.76)" fill="#fff"/>
            <path id="Trazado_195471" data-name="Trazado 195471" d="M352.212,79.468l5.113-2.477V75.307a5.732,5.732,0,0,1,5.732-5.732h10.209A5.732,5.732,0,0,1,379,75.307v9.148a5.732,5.732,0,0,1-5.732,5.732H363.057a5.732,5.732,0,0,1-5.732-5.732V81.339Z" transform="translate(-178.035 -35.169)" fill="#2194e5"/>
            <path id="Trazado_195472" data-name="Trazado 195472" d="M373.722,85.687a4.625,4.625,0,1,0,4.625-4.625A4.625,4.625,0,0,0,373.722,85.687Z" transform="translate(-188.908 -40.975)" fill="none" stroke="#fff" stroke-linecap="round" stroke-linejoin="round" stroke-width="1.025"/>
            <path id="Trazado_195473" data-name="Trazado 195473" d="M383.025,95.039a15.632,15.632,0,0,0-4.47-.013" transform="translate(-191.351 -47.956)" fill="none" stroke="#fff" stroke-linecap="round" stroke-linejoin="round" stroke-width="1.025"/>
            <path id="Trazado_195474" data-name="Trazado 195474" d="M384.388,87.532c-.424.32.43.961.961.961a.961.961,0,1,0,0-1.922c-.531,0-.646.723-.961.961" transform="translate(-194.242 -43.76)" fill="#fff"/>
            <path id="Trazado_195475" data-name="Trazado 195475" d="M379.529,87.532c.423.32-.43.961-.961.961a.961.961,0,1,1,0-1.922c.531,0,.646.723.961.961" transform="translate(-190.872 -43.76)" fill="#fff"/>
            <path id="Trazado_195476" data-name="Trazado 195476" d="M52.174,153.671l-3.805-1.843v-1.254a4.266,4.266,0,0,0-4.266-4.266H14.628a4.266,4.266,0,0,0-4.265,4.266v14.352a4.266,4.266,0,0,0,4.265,4.266H44.1a4.266,4.266,0,0,0,4.266-4.266v-9.863Z" transform="translate(-5.238 -73.956)" fill="#2194e5"/>
            <path id="Trazado_195477" data-name="Trazado 195477" d="M29.605,167.125a3.2,3.2,0,1,1-3.2-3.2,3.2,3.2,0,0,1,3.2,3.2" transform="translate(-11.735 -82.863)" fill="#fff"/>
            <path id="Trazado_195478" data-name="Trazado 195478" d="M48.149,167.125a3.195,3.195,0,1,1-3.2-3.2,3.2,3.2,0,0,1,3.2,3.2" transform="translate(-21.108 -82.863)" fill="#fff"/>
            <path id="Trazado_195479" data-name="Trazado 195479" d="M66.691,167.125a3.195,3.195,0,1,1-3.2-3.2,3.2,3.2,0,0,1,3.2,3.2" transform="translate(-30.481 -82.863)" fill="#fff"/>
            <path id="Trazado_195480" data-name="Trazado 195480" d="M66.72,39.641V10.76A10.759,10.759,0,0,0,55.961,0H15.19A10.759,10.759,0,0,0,4.431,10.76V58.326A10.759,10.759,0,0,0,15.19,69.085H55.961A10.759,10.759,0,0,0,66.72,58.326V47.271l7.365,2.123Z" transform="translate(-2.24 -0.001)" fill="#2194e5"/>
          </g>
        </g>
        <g id="Grupo_152900" data-name="Grupo 152900" transform="translate(2.191)">
          <g id="Grupo_152899" data-name="Grupo 152899" clip-path="url(#clip-path-3)">
            <path id="Trazado_195481" data-name="Trazado 195481" d="M66.745,127.07V107.736c-2.57-.01-3.66-1.789-4.553-1.69a19.97,19.97,0,0,1-3.779-.6c-2.769-.778-5.546-1.593-8.239-2.568a17.986,17.986,0,0,0-2.638-.8,17.969,17.969,0,0,0-3.322-.231l-17.63-.134a10.873,10.873,0,0,0-2.241.137,23.768,23.768,0,0,0-2.436.788c-.721.228-1.512.147-2.188.356-.845.262-1.671.735-2.519,1.026-1.527.526-3.076,1-4.632,1.43a19.97,19.97,0,0,1-3.779.6c-.9-.1-2.032,1.223-4.574,1.691-.069.012-1.721.052-1.842.107L2.43,127.07Z" transform="translate(-3.391 -51.412)" fill="#683424"/>
            <path id="Trazado_195482" data-name="Trazado 195482" d="M121.055,130.565a19.253,19.253,0,0,1,3.068-13.384" transform="translate(-63.286 -59.232)" fill="none" stroke="#03091c" stroke-linecap="round" stroke-linejoin="round" stroke-width="0.87"/>
            <path id="Trazado_195483" data-name="Trazado 195483" d="M25.8,111.082A100.539,100.539,0,0,1,24.663,127.3" transform="translate(-14.658 -56.149)" fill="none" stroke="#03091c" stroke-linecap="round" stroke-linejoin="round" stroke-width="0.87"/>
            <path id="Trazado_195484" data-name="Trazado 195484" d="M69.466,93.5s-5.718-1.79-6.166-4.425V81.221L55.022,82.25l-8.279-1.029v7.856C46.3,91.712,40.577,93.5,40.577,93.5c3.308,8.837,12.685,10.074,14.32,10.224v.019l.124-.009.124.009v-.019c1.636-.15,11.012-1.387,14.32-10.224" transform="translate(-22.702 -41.055)" fill="#fdbe8b"/>
            <path id="Trazado_195485" data-name="Trazado 195485" d="M69.584,87.34V77.785s-.019,0-.019,0L61.3,78.813l-2.114-.263s-6.155-.765-6.155-.763l-.019,0V87.3l.019.013a39.781,39.781,0,0,0,6.181,3.073,7.942,7.942,0,0,1,2.914,1.9,7,7,0,0,1,1.273,3.073c.273,1.263.46,2.54.621,3.821a7.054,7.054,0,0,0,.2,1.775c.237.512.039.394.626.36a11.085,11.085,0,0,0,3.922-1.6,15.76,15.76,0,0,0,3.989-3.074c.343-.369,3.342-4.773,2.993-4.88,0,0-5.718-1.79-6.166-4.425" transform="translate(-28.985 -39.319)" fill="#ffaa71"/>
            <path id="Trazado_195486" data-name="Trazado 195486" d="M97.014,41.617a1.8,1.8,0,0,1,1.491.55,2.63,2.63,0,0,1,.586,1.225,5.059,5.059,0,0,1-.521,3.573c-.619,1.1-1.663,1.991-1.914,3.225a12.151,12.151,0,0,1-.242,1.683,1.937,1.937,0,0,1-1.865,1.251q.125-3.343.309-6.683c.085-1.548.033-4.583,2.156-4.825" transform="translate(-49.984 -21.031)" fill="#fdbe8b"/>
            <path id="Trazado_195487" data-name="Trazado 195487" d="M95.73,47.159c0-.155,0-.309,0-.463a13.865,13.865,0,0,1,1.5-5.087,1.784,1.784,0,0,0-.224.01c-2.123.241-2.071,3.276-2.156,4.825q-.182,3.34-.309,6.683a1.8,1.8,0,0,0,.7-.114c.1-.719.241-1.436.386-2.146a9.708,9.708,0,0,0,.218-1.422,9.24,9.24,0,0,0-.053-1.3c-.03-.328-.06-.656-.068-.984" transform="translate(-49.984 -21.032)" fill="#ffaa71"/>
            <path id="Trazado_195488" data-name="Trazado 195488" d="M97.015,50.066q-.529.829-1.011,1.686a.153.153,0,0,0-.027.08.156.156,0,0,0,.062.1,10.19,10.19,0,0,1,1.083,1.189" transform="translate(-50.705 -25.307)" fill="none" stroke="#03091c" stroke-linecap="round" stroke-linejoin="round" stroke-width="0.87"/>
            <path id="Trazado_195489" data-name="Trazado 195489" d="M101.567,44.059a3.244,3.244,0,0,1,.517,1.78,4.529,4.529,0,0,1-.4,1.822" transform="translate(-53.531 -22.271)" fill="none" stroke="#03091c" stroke-linecap="round" stroke-linejoin="round" stroke-width="0.87"/>
            <path id="Trazado_195490" data-name="Trazado 195490" d="M37.663,41.617a1.8,1.8,0,0,0-1.491.55,2.624,2.624,0,0,0-.585,1.225,5.056,5.056,0,0,0,.52,3.573c.619,1.1,1.663,1.991,1.914,3.225a12.152,12.152,0,0,0,.242,1.683,1.937,1.937,0,0,0,1.865,1.251q-.125-3.343-.309-6.683c-.085-1.548-.033-4.583-2.156-4.825" transform="translate(-20.117 -21.031)" fill="#fdbe8b"/>
            <path id="Trazado_195491" data-name="Trazado 195491" d="M40.965,47.159c0-.155,0-.309,0-.463a13.865,13.865,0,0,0-1.5-5.087,1.784,1.784,0,0,1,.224.01c2.123.241,2.071,3.276,2.156,4.825q.182,3.34.309,6.683a1.8,1.8,0,0,1-.7-.114c-.1-.719-.241-1.436-.386-2.146a9.642,9.642,0,0,1-.218-1.422,9.167,9.167,0,0,1,.053-1.3c.03-.328.06-.656.068-.984" transform="translate(-22.136 -21.032)" fill="#ffaa71"/>
            <path id="Trazado_195492" data-name="Trazado 195492" d="M41.259,50.066q.53.829,1.011,1.686a.153.153,0,0,1,.027.08.156.156,0,0,1-.062.1,10.191,10.191,0,0,0-1.083,1.189" transform="translate(-22.993 -25.307)" fill="none" stroke="#03091c" stroke-linecap="round" stroke-linejoin="round" stroke-width="0.87"/>
            <path id="Trazado_195493" data-name="Trazado 195493" d="M37.349,44.059a3.244,3.244,0,0,0-.517,1.78,4.537,4.537,0,0,0,.4,1.822" transform="translate(-20.809 -22.271)" fill="none" stroke="#03091c" stroke-linecap="round" stroke-linejoin="round" stroke-width="0.87"/>
            <path id="Trazado_195494" data-name="Trazado 195494" d="M69.422,28.287c0-8.527-5.994-15.439-13.388-15.439S42.646,19.76,42.646,28.287a17.96,17.96,0,0,0,.1,1.865l.813,9a6.564,6.564,0,0,0,1.012,2.954c1.647,2.571,5.55,7.541,11.275,7.9v.023c.063,0,.124-.009.186-.011s.123.01.186.011v-.023c5.725-.358,9.628-5.329,11.275-7.9a6.563,6.563,0,0,0,1.012-2.954l.813-9a17.824,17.824,0,0,0,.1-1.865" transform="translate(-23.748 -6.494)" fill="#fdbe8b"/>
            <path id="Trazado_195495" data-name="Trazado 195495" d="M77.491,73.4a2.772,2.772,0,0,1-2.537.635" transform="translate(-40.079 -37.103)" fill="none" stroke="#03091c" stroke-linecap="round" stroke-linejoin="round" stroke-width="0.87"/>
            <path id="Trazado_195496" data-name="Trazado 195496" d="M57.889,48.2c0,.989-.559,1.79-1.249,1.79s-1.25-.8-1.25-1.79.56-1.79,1.25-1.79,1.249.8,1.249,1.79" transform="translate(-30.19 -23.457)" fill="#03091c"/>
            <path id="Trazado_195497" data-name="Trazado 195497" d="M59.679,47.382a.448.448,0,1,1-.448-.448.447.447,0,0,1,.448.448" transform="translate(-31.905 -23.724)" fill="#fff"/>
            <path id="Trazado_195498" data-name="Trazado 195498" d="M58.53,48.717a.124.124,0,1,1-.124-.124.124.124,0,0,1,.124.124" transform="translate(-31.651 -24.563)" fill="#fff"/>
            <path id="Trazado_195499" data-name="Trazado 195499" d="M82.021,48.2c0,.989-.559,1.79-1.249,1.79s-1.25-.8-1.25-1.79.56-1.79,1.25-1.79,1.249.8,1.249,1.79" transform="translate(-42.388 -23.457)" fill="#03091c"/>
            <path id="Trazado_195500" data-name="Trazado 195500" d="M83.81,47.382a.448.448,0,1,1-.448-.448.447.447,0,0,1,.448.448" transform="translate(-44.103 -23.724)" fill="#fff"/>
            <path id="Trazado_195501" data-name="Trazado 195501" d="M82.661,48.717a.124.124,0,1,1-.124-.124.124.124,0,0,1,.124.124" transform="translate(-43.849 -24.563)" fill="#fff"/>
            <path id="Trazado_195502" data-name="Trazado 195502" d="M68.526,45.677l.124,1.815L67.532,54.8l1.343.049v.472" transform="translate(-36.327 -23.089)" fill="none" stroke="#03091c" stroke-linecap="round" stroke-linejoin="round" stroke-width="0.87"/>
            <path id="Trazado_195503" data-name="Trazado 195503" d="M67.227,13.7c-1.019-2.778-5.8-4.882-11.547-4.882-6.075,0-11.073,2.35-11.686,5.363-3.45,4.748-1.048,18.505-1.048,18.505l.425.043.774-3.119a11.477,11.477,0,0,0,.669-4.662c-.094-.554-.5-1.625-.28-2.146.1-.238.511-.542.692-.736l1.82-1.962L49.7,17.242c1.752.529,3.795,1.853,5.979,1.853,2.131,0,4.128-1.309,5.851-1.815.329-.1,2.457,2.3,2.731,2.555.961.9,1.916,1.809,2.885,2.7-.43.9-.19,2.089-.347,3.08-.1.621,1.152,7.145,1.451,7.115l.425-.043s2.58-14.777-1.449-18.986" transform="translate(-23.488 -4.457)" fill="#683424"/>
            <path id="Trazado_195504" data-name="Trazado 195504" d="M66.409,27.555a5.325,5.325,0,0,0,4.364.138A9.576,9.576,0,0,0,73.425,26.1c.188-.153.949-.643.443-.788-.219-.063-1.171.613-1.409.723a16.759,16.759,0,0,1-2.986,1.054c-.618.154-2.483.783-3.064.466" transform="translate(-35.759 -12.792)" fill="#683424"/>
            <path id="Trazado_195505" data-name="Trazado 195505" d="M91.931,17.113a.926.926,0,0,0,.2-.58l.249-2.364" transform="translate(-48.66 -7.162)" fill="none" stroke="#683424" stroke-linecap="round" stroke-linejoin="round" stroke-width="0.87"/>
            <path id="Trazado_195506" data-name="Trazado 195506" d="M91.858,18.933a7.516,7.516,0,0,1,2.218-.472" transform="translate(-48.623 -9.332)" fill="none" stroke="#683424" stroke-linecap="round" stroke-linejoin="round" stroke-width="0.87"/>
            <path id="Trazado_195507" data-name="Trazado 195507" d="M81.472,22.114a13.168,13.168,0,0,0,4.519-3.472" transform="translate(-43.373 -9.423)" fill="none" stroke="#03091c" stroke-linecap="round" stroke-linejoin="round" stroke-width="0.87"/>
            <path id="Trazado_195508" data-name="Trazado 195508" d="M47.714,18.925a2.709,2.709,0,0,0,1.174,1.281,8.082,8.082,0,0,0,1.634.672" transform="translate(-26.31 -9.566)" fill="none" stroke="#03091c" stroke-linecap="round" stroke-linejoin="round" stroke-width="0.87"/>
            <path id="Trazado_195509" data-name="Trazado 195509" d="M70.388,10.666a4.466,4.466,0,0,1,1.994.174" transform="translate(-37.771 -5.37)" fill="none" stroke="#03091c" stroke-linecap="round" stroke-linejoin="round" stroke-width="0.87"/>
            <path id="Trazado_195510" data-name="Trazado 195510" d="M45.609,38.959c.032.566.038,1.133.018,1.7" transform="translate(-25.246 -19.693)" fill="none" stroke="#03091c" stroke-linecap="round" stroke-linejoin="round" stroke-width="0.87"/>
            <path id="Trazado_195511" data-name="Trazado 195511" d="M93.222,40.08a2.429,2.429,0,0,0-.086.933" transform="translate(-49.263 -20.26)" fill="none" stroke="#03091c" stroke-linecap="round" stroke-linejoin="round" stroke-width="0.87"/>
            <path id="Trazado_195512" data-name="Trazado 195512" d="M80.82,53.853a3.712,3.712,0,0,1,1.494-.276" transform="translate(-43.044 -27.081)" fill="none" stroke="#03091c" stroke-linecap="round" stroke-linejoin="round" stroke-width="0.87"/>
            <path id="Trazado_195513" data-name="Trazado 195513" d="M55.3,52.887a4.461,4.461,0,0,1,1.426.747" transform="translate(-30.143 -26.733)" fill="none" stroke="#03091c" stroke-linecap="round" stroke-linejoin="round" stroke-width="0.87"/>
            <line id="Línea_201" data-name="Línea 201" x2="5.693" transform="translate(35.703 21.603)" fill="none" stroke="#03091c" stroke-linecap="round" stroke-linejoin="round" stroke-width="1.5"/>
            <line id="Línea_202" data-name="Línea 202" x1="4.191" transform="translate(24.208 21.886)" fill="none" stroke="#03091c" stroke-linecap="round" stroke-linejoin="round" stroke-width="1.5"/>
            <path id="Trazado_195514" data-name="Trazado 195514" d="M54.5,115.707c.6.032,13.1.534,15.564-11.827-.618-.206-1.233-.416-1.844-.637q-.415-.151-.832-.294c-.166,3.379-1.972,8.252-10.6,9.648a14.426,14.426,0,0,1-4.646-.011c-9.026-1.485-10.539-6.794-10.547-10.162-.552.178-1.091.4-1.645.575a7.581,7.581,0,0,1-1.47.222,1.112,1.112,0,0,0-.478.073c2.617,12.2,15.9,12.446,16.495,12.414" transform="translate(-21.402 -51.773)" fill="#03091c"/>
            <path id="Trazado_195515" data-name="Trazado 195515" d="M37.517,52.023H39.5V39.735H37.517A2.718,2.718,0,0,0,34.8,42.453V49.3a2.718,2.718,0,0,0,2.718,2.718" transform="translate(-19.781 -20.085)" fill="#fff"/>
            <path id="Trazado_195516" data-name="Trazado 195516" d="M40.464,56.8l-.17,8.381,12.911,2.548" transform="translate(-22.559 -28.709)" fill="none" stroke="#03091c" stroke-linecap="round" stroke-linejoin="round" stroke-width="0.87"/>
            <path id="Trazado_195517" data-name="Trazado 195517" d="M61.849,77.177c-.076.7,1.009,1.392,2.423,1.546s2.623-.288,2.7-.987-1.009-1.392-2.423-1.546-2.623.288-2.7.987" transform="translate(-33.453 -38.497)" fill="#03091c"/>
            <line id="Línea_203" data-name="Línea 203" y2="10.844" transform="translate(18.942 20.244)" fill="none" stroke="#03091c" stroke-linecap="round" stroke-linejoin="round" stroke-width="0.87"/>
            <path id="Trazado_195518" data-name="Trazado 195518" d="M65.692,76.778s2.831,0,2.831,1.331" transform="translate(-35.397 -38.81)" fill="none" stroke="#fff" stroke-linecap="round" stroke-linejoin="round" stroke-width="0.87"/>
            <path id="Trazado_195519" data-name="Trazado 195519" d="M83.17,23.038C84.3,17.508,85.246,7.364,69.778,7.364" transform="translate(-37.462 -3.722)" fill="none" stroke="#03091c" stroke-linecap="round" stroke-linejoin="round" stroke-width="0.891"/>
            <rect id="Rectángulo_45570" data-name="Rectángulo 45570" width="0.598" height="7.259" transform="translate(45.397 19.271)" fill="#fff"/>
            <path id="Trazado_195520" data-name="Trazado 195520" d="M41.229,23.038C40.337,17.508,39.593,7.364,55.3,7.364" transform="translate(-22.832 -3.722)" fill="none" stroke="#03091c" stroke-linecap="round" stroke-linejoin="round" stroke-width="0.891"/>
          </g>
        </g>
        <g id="Grupo_152905" data-name="Grupo 152905">
          <g id="Grupo_152904" data-name="Grupo 152904" clip-path="url(#clip-path)">
            <path id="Trazado_195522" data-name="Trazado 195522" d="M114.154,427.489s1.328,5.787,11.619,5.246l.542-5.688s-8.343-2.367-12.161.442" transform="translate(-57.702 -215.391)" fill="#03091c"/>
            <path id="Trazado_195523" data-name="Trazado 195523" d="M302.113,425.319s-1.084,3.182-9.411,3.115l-.068-4.13Z" transform="translate(-147.92 -214.476)" fill="#03091c"/>
            <path id="Trazado_195524" data-name="Trazado 195524" d="M209.945,401.84c0,.3,3.625,30.332,3.625,30.332H127.245l5.687-31.246Z" transform="translate(-64.319 -202.659)" fill="#265472"/>
            <g id="Grupo_152903" data-name="Grupo 152903" transform="translate(65.657 203.706)" style="mix-blend-mode: multiply;isolation: isolate">
              <g id="Grupo_152902" data-name="Grupo 152902">
                <g id="Grupo_152901" data-name="Grupo 152901" clip-path="url(#clip-path-5)">
                  <path id="Trazado_195525" data-name="Trazado 195525" d="M213.683,412.8l-78.176-.877-2.738,10.367.452-.007c8.943-.113,58.91.162,65.12-.952,4.108-.737,9.618-2.419,13.81-1.452.568.131,1.577.233,2.105.317a65.628,65.628,0,0,1-.573-7.4" transform="translate(-132.769 -411.925)" fill="#265472"/>
                </g>
              </g>
            </g>
            <line id="Línea_204" data-name="Línea 204" y2="19.37" transform="translate(106.066 210.313)" fill="none" stroke="#03091c" stroke-linecap="round" stroke-linejoin="round" stroke-width="0.847"/>
            <path id="Trazado_195526" data-name="Trazado 195526" d="M274.122,412.188a22.943,22.943,0,0,0,10.285,18.173" transform="translate(-138.562 -208.352)" fill="none" stroke="#03091c" stroke-linecap="round" stroke-linejoin="round" stroke-width="0.847"/>
            <path id="Trazado_195527" data-name="Trazado 195527" d="M145.937,417.554a7.613,7.613,0,0,1-1.032,3.529c-2.365,4.734-5.913,9.173-10.842,11.1" transform="translate(-67.766 -211.064)" fill="none" stroke="#03091c" stroke-linecap="round" stroke-linejoin="round" stroke-width="0.847"/>
            <path id="Trazado_195528" data-name="Trazado 195528" d="M292.927,307.1s5.136,3.677,12.99-5.125L298.5,290.7a170.216,170.216,0,0,0-5.576,16.4" transform="translate(-148.068 -146.943)" fill="#03091c"/>
            <path id="Trazado_195529" data-name="Trazado 195529" d="M335.51,258.187s-1.426,4.544-3.388,6.149l-2.081-4.46s1.722-1.832,5.469-1.689" transform="translate(-166.828 -130.504)" fill="#03091c"/>
            <path id="Trazado_195530" data-name="Trazado 195530" d="M94.227,267.232s-19.668-23.6-6.094-36.968c0,0,24.444,11.509,6.094,36.968" transform="translate(-42.135 -116.393)" fill="#03091c"/>
            <path id="Trazado_195531" data-name="Trazado 195531" d="M83.566,237.157l-32.711,18.6s-12.129,2.468-15.428-6.969a8.264,8.264,0,0,1,3.617-9.409l26.667-17.238,16.355-9.774s19.354,2.16,1.5,24.789" transform="translate(-17.71 -107.347)" fill="#fdbe8b"/>
            <path id="Trazado_195532" data-name="Trazado 195532" d="M112.583,212.368l-16.355,9.774-.819.53A60.772,60.772,0,0,1,97.5,246.586l16.581-9.429c17.855-22.629-1.5-24.789-1.5-24.789" transform="translate(-48.227 -107.347)" fill="#ffaa71"/>
            <path id="Trazado_195533" data-name="Trazado 195533" d="M300.351,250.533s-9.344,10.969-5.416,22.072l14.5,26.93s8.531,12.323,17.739,3.25a40.381,40.381,0,0,0,4.526-12,9.413,9.413,0,0,0-1.106-6.472l-20.358-33.642s-4.469-6.229-9.885-.135" transform="translate(-148.596 -125.287)" fill="#fdbe8b"/>
            <path id="Trazado_195534" data-name="Trazado 195534" d="M308.184,264.523a29.147,29.147,0,0,1,5.267-6.458c.22-.216.444-.43.668-.643l-3.883-6.753s-4.469-6.229-9.885-.135c0,0-9.344,10.969-5.416,22.072l8.263,15.54a62.707,62.707,0,0,1,2.425-16.93,32.06,32.06,0,0,1,2.561-6.692" transform="translate(-148.596 -125.287)" fill="#ffaa71"/>
            <path id="Trazado_195535" data-name="Trazado 195535" d="M111.026,197.231c3.463-.636,5.011-2.437,6.229-2.3a27.184,27.184,0,0,0,5.146-.812c2.118-.592,4.228-1.232,6.307-1.947,1.154-.4,2.279-1.041,3.43-1.4.92-.284,2-.174,2.979-.485a32.442,32.442,0,0,1,3.317-1.074,14.8,14.8,0,0,1,3.051-.187l24.007.182a18.349,18.349,0,0,1,8.116,1.411c3.667,1.328,7.449,2.437,11.219,3.5a27.184,27.184,0,0,0,5.146.813c1.219-.135,2.709,2.3,6.229,2.3s4.063,1.354,4.063,1.354L215.7,223.23l-1.083.135c-16.791,5.146-22.479,32.5-22.479,32.5s1.9,28.4,2.167,33.411,6.906,17.2,6.906,17.2a20.471,20.471,0,0,1-8.937-.271c-4.191-.967-69.986,2.292-78.929,2.4a43.557,43.557,0,0,1-8.937-.41,1.4,1.4,0,0,1-.939-.469,1.346,1.346,0,0,1-.093-.993,9.625,9.625,0,0,1,1.008-2.857l9.756-50.721V234.063L99.11,246.386s11.375-13.541.135-30.062c0,0-2.979-4.6-6.229-6.906,0,0,16.173-11.849,18.01-12.187" transform="translate(-47.017 -95.547)" fill="#528869"/>
            <path id="Trazado_195536" data-name="Trazado 195536" d="M248.791,260.773V277.7l-11.375,6.7-11.781-5.89-.271-17.807Z" transform="translate(-113.917 -131.78)" fill="#1c2b1c"/>
            <line id="Línea_205" data-name="Línea 205" x2="19.416" transform="translate(113.682 132.377)" fill="none" stroke="#03091c" stroke-linecap="round" stroke-linejoin="round" stroke-width="0.847"/>
            <rect id="Rectángulo_45572" data-name="Rectángulo 45572" width="6.838" height="2.641" transform="translate(125.396 129.026)" fill="#03091c"/>
            <path id="Trazado_195537" data-name="Trazado 195537" d="M285.968,228.314a26.212,26.212,0,0,1,4.178-18.225" transform="translate(-144.42 -106.195)" fill="none" stroke="#03091c" stroke-linecap="round" stroke-linejoin="round" stroke-width="0.847"/>
            <path id="Trazado_195538" data-name="Trazado 195538" d="M286.1,279q1.361,11.859,3.714,23.575" transform="translate(-144.619 -141.029)" fill="none" stroke="#03091c" stroke-linecap="round" stroke-linejoin="round" stroke-width="0.847"/>
            <path id="Trazado_195539" data-name="Trazado 195539" d="M142.708,269.762c-1.062,3.167-5.318,21.391-6.5,24.516" transform="translate(-68.851 -136.359)" fill="none" stroke="#03091c" stroke-linecap="round" stroke-linejoin="round" stroke-width="0.847"/>
            <path id="Trazado_195540" data-name="Trazado 195540" d="M138.235,275.3a7.587,7.587,0,0,0,2.81-2.884" transform="translate(-69.875 -137.701)" fill="none" stroke="#03091c" stroke-linecap="round" stroke-linejoin="round" stroke-width="0.847"/>
            <path id="Trazado_195541" data-name="Trazado 195541" d="M156.258,201.785a136.74,136.74,0,0,1-1.542,22.08" transform="translate(-78.205 -101.998)" fill="none" stroke="#03091c" stroke-linecap="round" stroke-linejoin="round" stroke-width="0.847"/>
            <path id="Trazado_195542" data-name="Trazado 195542" d="M297.1,392.218c-.387,3.317,1.484,6.559,1.253,9.89" transform="translate(-150.153 -198.257)" fill="none" stroke="#03091c" stroke-linecap="round" stroke-linejoin="round" stroke-width="0.847"/>
            <path id="Trazado_195543" data-name="Trazado 195543" d="M293.066,281.259s4.919-22.818,20.356-27.643" transform="translate(-148.138 -128.197)" fill="none" stroke="#03091c" stroke-linecap="round" stroke-linejoin="round" stroke-width="0.847"/>
            <path id="Trazado_195544" data-name="Trazado 195544" d="M101.231,227.526s15.708,7.99,7.719,31.687" transform="translate(-51.17 -115.009)" fill="none" stroke="#03091c" stroke-linecap="round" stroke-linejoin="round" stroke-width="0.847"/>
            <line id="Línea_206" data-name="Línea 206" x2="54.962" transform="translate(80.737 126.229)" fill="none" stroke="#03091c" stroke-linecap="round" stroke-linejoin="round" stroke-width="0.847"/>
            <path id="Trazado_195545" data-name="Trazado 195545" d="M124.941,422.142c8.4-.877,17.629-.377,25.665-.5,6.162-.094,34.521-.792,42.892-1.719a69.293,69.293,0,0,1,15.972.3" transform="translate(-63.155 -212.092)" fill="none" stroke="#03091c" stroke-linecap="round" stroke-linejoin="round" stroke-width="0.847"/>
            <path id="Trazado_195546" data-name="Trazado 195546" d="M172.012,107.2a2.446,2.446,0,0,0-2.031.749,3.58,3.58,0,0,0-.8,1.669,6.885,6.885,0,0,0,.709,4.867c.843,1.493,2.264,2.711,2.606,4.391a16.57,16.57,0,0,0,.33,2.291,2.638,2.638,0,0,0,2.539,1.7q-.171-4.552-.421-9.1c-.115-2.108-.044-6.241-2.935-6.57" transform="translate(-85.434 -54.179)" fill="#fdbe8b"/>
            <path id="Trazado_195547" data-name="Trazado 195547" d="M176.509,114.743c0-.211,0-.421-.007-.631a18.863,18.863,0,0,0-2.045-6.926,2.238,2.238,0,0,1,.3.013c2.892.328,2.82,4.461,2.936,6.569q.249,4.549.42,9.1a2.454,2.454,0,0,1-.952-.155c-.137-.979-.328-1.956-.526-2.922a13.116,13.116,0,0,1-.3-1.937,12.426,12.426,0,0,1,.072-1.772c.04-.447.082-.893.093-1.34" transform="translate(-88.184 -54.18)" fill="#ffaa71"/>
            <path id="Trazado_195548" data-name="Trazado 195548" d="M176.909,118.7q.72,1.128,1.377,2.3a.2.2,0,0,1,.037.109.212.212,0,0,1-.084.133,13.861,13.861,0,0,0-1.475,1.619" transform="translate(-89.35 -60.001)" fill="none" stroke="#03091c" stroke-linecap="round" stroke-linejoin="round" stroke-width="0.847"/>
            <path id="Trazado_195549" data-name="Trazado 195549" d="M171.585,110.523a4.417,4.417,0,0,0-.7,2.423,6.165,6.165,0,0,0,.548,2.481" transform="translate(-86.377 -55.867)" fill="none" stroke="#03091c" stroke-linecap="round" stroke-linejoin="round" stroke-width="0.847"/>
            <path id="Trazado_195550" data-name="Trazado 195550" d="M144.59,158.493l7.464-4.756,4.519-11.781-9.343-.1L143.879,157.9Z" transform="translate(-72.728 -71.704)" fill="#fdbe8b"/>
            <path id="Trazado_195551" data-name="Trazado 195551" d="M163.392,130.3l-7.975-1.631,1.7-34.114,1.116-.211,6,3.53Z" transform="translate(-78.56 -47.69)" fill="#03091c"/>
            <path id="Trazado_195552" data-name="Trazado 195552" d="M159.762,96.532,158.3,128.8l5.868,1.266.979-30.705Z" transform="translate(-80.016 -48.795)" fill="#fff"/>
            <path id="Trazado_195553" data-name="Trazado 195553" d="M105.454,109.554l-.812-1.422-.338-6.906-9.073-2.3,1.354-8.6s-.2-4.333-2.37-1.083-5.891,18.281-5.891,18.281a12.61,12.61,0,0,0-1.625,4.2c-.271,2.031-4.2,10.7-4.2,10.7l-2.589,3.4s.008.01.011.014l-31.613,32.8s-9.886,5.823-12.053,16.521c0,0-6.906,7.99,2.3,16.52,0,0,8.8,4.469,13.677-2.166,0,0,10.969-8.125,13.541-13.27s23.156-44.957,23.156-44.957l-.195-.147c.969-2.191,2.527-5.718,2.53-5.727a1.5,1.5,0,0,0,.054-.343q.072-.453.143-.906.326-2.07.652-4.14.149-.946.3-1.892l.1-.66c.012-.076.029-.152.036-.228s-.022-.21-.01-.246a2.337,2.337,0,0,1,.651-.858,1.466,1.466,0,0,1,.4-.3,1.538,1.538,0,0,1,.518-.1,19.555,19.555,0,0,0,3.575-.621.466.466,0,0,1,.226-.023.479.479,0,0,1,.156.081,11.951,11.951,0,0,0,2.234,1.139c1.007.421,1.991.909,2.984,1.362,0,0-1.693,4.672-1.151,5.552a20.173,20.173,0,0,0,4.266-6.568Zm-8.243-5.873,4.976,1.473.476,2.2-4.375-2.593-2.855,1.258Zm2.895,7.109-4.148.1,3.436-1.622,3.859,2.285.09,2.376Z" transform="translate(-17.071 -44.499)" fill="#fdbe8b"/>
            <path id="Trazado_195554" data-name="Trazado 195554" d="M144.188,136.741l2.183-2.59,9.547-.1,6.3,5.873" transform="translate(-72.883 -67.759)" fill="none" stroke="#03091c" stroke-linecap="round" stroke-linejoin="round" stroke-width="0.847"/>
            <path id="Trazado_195555" data-name="Trazado 195555" d="M162.251,141.661A12.608,12.608,0,0,0,165,143.269" transform="translate(-82.014 -71.606)" fill="none" stroke="#03091c" stroke-linecap="round" stroke-linejoin="round" stroke-width="0.847"/>
            <path id="Trazado_195556" data-name="Trazado 195556" d="M155.072,143.565a13.146,13.146,0,0,0,4-.748" transform="translate(-78.385 -72.191)" fill="none" stroke="#03091c" stroke-linecap="round" stroke-linejoin="round" stroke-width="0.847"/>
            <path id="Trazado_195557" data-name="Trazado 195557" d="M142.647,126.2l10.664-4.265,6.4,3.5" transform="translate(-72.105 -61.635)" fill="none" stroke="#03091c" stroke-linecap="round" stroke-linejoin="round" stroke-width="0.847"/>
            <line id="Línea_207" data-name="Línea 207" y1="9.307" x2="5.447" transform="translate(72.712 54.425)" fill="none" stroke="#03091c" stroke-linecap="round" stroke-linejoin="round" stroke-width="0.847"/>
            <path id="Trazado_195558" data-name="Trazado 195558" d="M158.582,121.857l1.717-2.183,4.976,1.473.356,1.828" transform="translate(-80.16 -60.493)" fill="none" stroke="#03091c" stroke-linecap="round" stroke-linejoin="round" stroke-width="0.847"/>
            <path id="Trazado_195559" data-name="Trazado 195559" d="M159.282,132.442l3.555-1.473,3.859,2.285.214,2.355" transform="translate(-80.513 -66.202)" fill="none" stroke="#03091c" stroke-linecap="round" stroke-linejoin="round" stroke-width="0.847"/>
            <path id="Trazado_195560" data-name="Trazado 195560" d="M82.883,260.659S76.165,270.944,68.262,276.3a10.361,10.361,0,0,1-3.6,3.213" transform="translate(-32.687 -131.757)" fill="none" stroke="#03091c" stroke-linecap="round" stroke-linejoin="round" stroke-width="0.847"/>
            <path id="Trazado_195561" data-name="Trazado 195561" d="M141.647,174.782a46.621,46.621,0,0,0-4.364,4.367" transform="translate(-69.393 -88.348)" fill="none" stroke="#03091c" stroke-linecap="round" stroke-linejoin="round" stroke-width="0.847"/>
            <path id="Trazado_195562" data-name="Trazado 195562" d="M339.258,159.67a.767.767,0,0,1-.066.126c-.325.493-2.185.085-2.784.062l-4.008-.152-4.885-.185-2.026-7.7.808-7.242s-1.621-.811-1.854-1.367-.347-7.752-.347-7.752l-.071-2.167a1.91,1.91,0,0,1,2.117-1.751l1.2-.136s.793-2.163,1.227-2.188a37.541,37.541,0,0,1,5.529,1.127,30.341,30.341,0,0,0,.886-4.766c.185-1.782.213-6.05.414-7.83a4.825,4.825,0,0,1,.48-1.835c.283-.507,1.714-1.722,2.07-.688.295,3.654.589,9.78.885,13.433q.1,1.3.21,2.611a3.477,3.477,0,0,0,.066.916c.306.609,1.63.756,2.174,1.213a3.6,3.6,0,0,1,.766,3.674c-.336,1.278-1.008,2.457-1.255,3.755a11.9,11.9,0,0,0-.156,1.795c-.2,5.5-.958,10.995-1.28,16.487a1.734,1.734,0,0,1-.1.561" transform="translate(-163.787 -58.039)" fill="#fdbe8b"/>
            <path id="Trazado_195563" data-name="Trazado 195563" d="M332.044,174.594c-1.134.115-2.105.176-3.406.188" transform="translate(-166.119 -88.253)" fill="none" stroke="#03091c" stroke-linecap="round" stroke-linejoin="round" stroke-width="0.847"/>
            <path id="Trazado_195564" data-name="Trazado 195564" d="M336.635,168.237a1.825,1.825,0,0,1,.834-.648,10.839,10.839,0,0,1,1.784-.45" transform="translate(-170.161 -84.486)" fill="none" stroke="#03091c" stroke-linecap="round" stroke-linejoin="round" stroke-width="0.847"/>
            <path id="Trazado_195565" data-name="Trazado 195565" d="M335.444,164.4a2.918,2.918,0,0,0-1.183-1.245,1.2,1.2,0,0,0-.43-.2,6.652,6.652,0,0,1,.769-2.5,4.121,4.121,0,0,1,1.888-1.765" transform="translate(-168.744 -80.22)" fill="none" stroke="#03091c" stroke-linecap="round" stroke-linejoin="round" stroke-width="0.847"/>
            <path id="Trazado_195566" data-name="Trazado 195566" d="M327.82,163.083a3.9,3.9,0,0,0,1.275,1.32,7.019,7.019,0,0,0,1.677.774" transform="translate(-165.705 -82.435)" fill="none" stroke="#03091c" stroke-linecap="round" stroke-linejoin="round" stroke-width="0.847"/>
            <path id="Trazado_195567" data-name="Trazado 195567" d="M324.237,153.628c3.964-1.192,8.633-1.008,12.7-1.77a2.51,2.51,0,0,1,.826-.067,2.4,2.4,0,0,1,.562.183l1.229.518a1.109,1.109,0,0,1,.826.943q.336,1.2.672,2.4" transform="translate(-163.894 -76.72)" fill="none" stroke="#03091c" stroke-linecap="round" stroke-linejoin="round" stroke-width="0.847"/>
            <path id="Trazado_195568" data-name="Trazado 195568" d="M339.35,149.594c-.525-.069-.989-.117-1.268-.128-1.05-.041-2.317-.111-3.365-.2-3.8-.315-9.466-.28-9.466-.28a1.607,1.607,0,0,0-.985.988" transform="translate(-163.909 -75.309)" fill="none" stroke="#03091c" stroke-linecap="round" stroke-linejoin="round" stroke-width="0.847"/>
            <path id="Trazado_195569" data-name="Trazado 195569" d="M329.659,180.059c.724-3.011,3.477-6.87,3.688-9.959" transform="translate(-166.635 -85.982)" fill="none" stroke="#03091c" stroke-linecap="round" stroke-linejoin="round" stroke-width="0.847"/>
            <path id="Trazado_195570" data-name="Trazado 195570" d="M331.38,168.8a.643.643,0,0,0,.22-.113,4.651,4.651,0,0,0,1.079-1.058" transform="translate(-167.505 -84.734)" fill="none" stroke="#03091c" stroke-linecap="round" stroke-linejoin="round" stroke-width="0.847"/>
            <path id="Trazado_195571" data-name="Trazado 195571" d="M333.207,143.933l9.274,1.943.99.147" transform="translate(-168.429 -72.755)" fill="none" stroke="#03091c" stroke-linecap="round" stroke-linejoin="round" stroke-width="0.847"/>
            <path id="Trazado_195572" data-name="Trazado 195572" d="M342.46,244.214l-3.84-40.46c.043-.043.084-.094.126-.142L326.96,203.4l-.111,4.475L323.9,257.713c-2.849,6.692,1.031,18.129,1.031,18.129,7.253,17.736,20.05.286,20.05.286,6.3-17.053-2.518-31.914-2.518-31.914" transform="translate(-163.194 -102.817)" fill="#fdbe8b"/>
            <path id="Trazado_195573" data-name="Trazado 195573" d="M326.071,250.852,323.9,281.7s-4.578,15.259,5.492,24.678" transform="translate(-163.201 -126.8)" fill="none" stroke="#03091c" stroke-linecap="round" stroke-linejoin="round" stroke-width="0.847"/>
            <path id="Trazado_195574" data-name="Trazado 195574" d="M354.314,203.656q-.169,3.791-.338,7.583" transform="translate(-178.927 -102.944)" fill="none" stroke="#03091c" stroke-linecap="round" stroke-linejoin="round" stroke-width="0.847"/>
            <path id="Trazado_195575" data-name="Trazado 195575" d="M215.722,177.848s-7.786-2.437-8.4-6.026v-10.7l-11.273,1.4-11.273-1.4v10.7c-.609,3.588-8.4,6.026-8.4,6.026,4.5,12.033,17.272,13.717,19.5,13.921v.027s.058,0,.169-.012c.111.009.169.012.169.012v-.027c2.228-.2,14.995-1.888,19.5-13.921" transform="translate(-89.158 -81.445)" fill="#fdbe8b"/>
            <path id="Trazado_195576" data-name="Trazado 195576" d="M215.882,171.821v-10.7s-.026,0-.026,0l-11.26,1.4-2.878-.358s-8.382-1.041-8.382-1.038l-.026,0v10.645l.026.018c2.564,1.775,5.584,2.884,8.417,4.185a10.82,10.82,0,0,1,3.969,2.591,9.53,9.53,0,0,1,1.733,4.186c.371,1.718.627,3.459.846,5.2a9.592,9.592,0,0,0,.278,2.418c.323.7.053.536.852.489,1.705-.1,3.878-1.377,5.34-2.178a21.451,21.451,0,0,0,5.432-4.186c.467-.5,4.551-6.5,4.076-6.646,0,0-7.786-2.437-8.4-6.026" transform="translate(-97.714 -81.445)" fill="#ffaa71"/>
            <path id="Trazado_195577" data-name="Trazado 195577" d="M253.233,107.2a2.448,2.448,0,0,1,2.031.749,3.589,3.589,0,0,1,.8,1.669,6.883,6.883,0,0,1-.709,4.867c-.842,1.493-2.264,2.711-2.605,4.391a16.638,16.638,0,0,1-.33,2.291,2.638,2.638,0,0,1-2.539,1.7q.171-4.552.421-9.1c.115-2.108.044-6.241,2.935-6.57" transform="translate(-126.307 -54.179)" fill="#fdbe8b"/>
            <path id="Trazado_195578" data-name="Trazado 195578" d="M251.486,114.743c0-.211,0-.421.007-.631a18.863,18.863,0,0,1,2.045-6.926,2.238,2.238,0,0,0-.3.013c-2.892.328-2.82,4.461-2.936,6.569q-.249,4.549-.42,9.1a2.452,2.452,0,0,0,.952-.155c.136-.979.328-1.956.526-2.922a13.114,13.114,0,0,0,.3-1.937,12.422,12.422,0,0,0-.072-1.772c-.04-.447-.082-.893-.093-1.34" transform="translate(-126.307 -54.18)" fill="#ffaa71"/>
            <path id="Trazado_195579" data-name="Trazado 195579" d="M253.234,118.7q-.72,1.128-1.377,2.3a.209.209,0,0,0-.037.109.212.212,0,0,0,.084.133,13.859,13.859,0,0,1,1.475,1.619" transform="translate(-127.29 -60.001)" fill="none" stroke="#03091c" stroke-linecap="round" stroke-linejoin="round" stroke-width="0.847"/>
            <path id="Trazado_195580" data-name="Trazado 195580" d="M259.433,110.523a4.417,4.417,0,0,1,.7,2.423,6.156,6.156,0,0,1-.548,2.481" transform="translate(-131.137 -55.867)" fill="none" stroke="#03091c" stroke-linecap="round" stroke-linejoin="round" stroke-width="0.847"/>
            <path id="Trazado_195581" data-name="Trazado 195581" d="M215.663,89.047c0-11.61-8.162-21.023-18.23-21.023S179.2,77.436,179.2,89.047a24.4,24.4,0,0,0,.137,2.539l1.285,18.382s6,11.7,16.554,12.359v.032c.086,0,.169-.012.254-.016s.168.013.254.016v-.032c10.55-.66,16.554-12.359,16.554-12.359l1.285-18.382a24.391,24.391,0,0,0,.137-2.539" transform="translate(-90.583 -34.385)" fill="#fdbe8b"/>
            <path id="Trazado_195582" data-name="Trazado 195582" d="M204.808,68.918c-2.094-.054-3.853,1.5-5.622,2.625a20.225,20.225,0,0,1-11.591,3.14l7.173,4.729a29.331,29.331,0,0,0,2.829,1.715,25.819,25.819,0,0,0,3,1.236,98.792,98.792,0,0,0,11.305,3.2,2.126,2.126,0,0,1,1.848,1.484,22.424,22.424,0,0,1,1.724,4.195c.827,3.177-.637,5.42-2.019,8.176a80.5,80.5,0,0,1-4.87,8.408c-2.638,3.979-2.857,9.463-2.879,14.124,8.059-2.78,12.566-11.55,12.566-11.55l1.285-18.382a24.4,24.4,0,0,0,.137-2.539,23.935,23.935,0,0,0-1.013-6.927A20.938,20.938,0,0,0,211.4,71.861a17.1,17.1,0,0,0-5.534-2.779,4.226,4.226,0,0,0-1.058-.165" transform="translate(-94.825 -34.836)" fill="#ffaa71"/>
            <path id="Trazado_195583" data-name="Trazado 195583" d="M215.668,69.569c.16-.114.32-.228.479-.349,0,0,7.922-11.849-2.844-13.474,0,0-6.635,1.355-9.411.068s-5.619-1.963-8.531-.745c0,0-7.854-3.724-12.119.88a11.317,11.317,0,0,0-3.927,6.771s-4.062,1.9-4.265,5.62-.542,6.906.271,9.411,1.693,5.89,1.693,5.89l.019-.089,1.334,18.65a2.27,2.27,0,0,0,.29.963c1.245,2.189,7.015,11.378,16.452,11.9v.008l.051,0,.05,0v-.008c9.416-.521,15.287-9.668,16.574-11.883a2.272,2.272,0,0,0,.3-1l1.14-17.8.688-.811s1.964-5.078,2.979-7.854a6.137,6.137,0,0,0-.812-5.281Zm-5.479,24.838c-.474,1.625-6.026,7.245-6.026,7.245a6.7,6.7,0,0,1-1.286-1.964,2.983,2.983,0,0,0-1.557-1.557l-6.026-.389v-.017l-.135.008-.135-.008v.017L189,98.13a2.981,2.981,0,0,0-1.557,1.557,6.7,6.7,0,0,1-1.287,1.964s-5.552-5.62-6.026-7.245-2.708-10.765-1.354-15.166l2.3-1.49.782-9.222s14.2,7.716,27.253,4.146l.131,5.076,2.3,1.49c1.355,4.4-.88,13.541-1.354,15.166" transform="translate(-88.359 -27.118)" fill="#683424"/>
            <path id="Trazado_195584" data-name="Trazado 195584" d="M246.979,89.655a1.624,1.624,0,0,0,1.124-.277,8.775,8.775,0,0,0,2.732-1.948" transform="translate(-124.842 -44.194)" fill="none" stroke="#03091c" stroke-linecap="round" stroke-linejoin="round" stroke-width="0.847"/>
            <path id="Trazado_195585" data-name="Trazado 195585" d="M216.482,57.81a2.108,2.108,0,0,1,.916.511,39.568,39.568,0,0,1,4.171,3.92" transform="translate(-109.427 -29.222)" fill="none" stroke="#03091c" stroke-linecap="round" stroke-linejoin="round" stroke-width="0.847"/>
            <path id="Trazado_195586" data-name="Trazado 195586" d="M238.273,60.577a7.408,7.408,0,0,1,2.979,2.771" transform="translate(-120.441 -30.62)" fill="none" stroke="#03091c" stroke-linecap="round" stroke-linejoin="round" stroke-width="0.847"/>
            <path id="Trazado_195587" data-name="Trazado 195587" d="M257.645,62.237a.623.623,0,0,1,.343.362,6.74,6.74,0,0,1-1.161,7.525" transform="translate(-129.82 -31.459)" fill="none" stroke="#03091c" stroke-linecap="round" stroke-linejoin="round" stroke-width="0.847"/>
            <path id="Trazado_195588" data-name="Trazado 195588" d="M184.131,76.958A3.252,3.252,0,0,0,185,78.176" transform="translate(-93.074 -38.901)" fill="none" stroke="#03091c" stroke-linecap="round" stroke-linejoin="round" stroke-width="0.847"/>
            <path id="Trazado_195589" data-name="Trazado 195589" d="M210.745,154.6a8.371,8.371,0,0,1,6.338-.2" transform="translate(-106.527 -77.781)" fill="none" stroke="#03091c" stroke-linecap="round" stroke-linejoin="round" stroke-width="0.847"/>
            <path id="Trazado_195590" data-name="Trazado 195590" d="M199.958,116.155c0,1.346-.762,2.438-1.7,2.438s-1.7-1.091-1.7-2.437.762-2.437,1.7-2.437,1.7,1.091,1.7,2.438" transform="translate(-99.354 -57.482)" fill="#03091c"/>
            <path id="Trazado_195591" data-name="Trazado 195591" d="M202.395,115.046a.61.61,0,1,1-.609-.609.609.609,0,0,1,.609.609" transform="translate(-101.69 -57.845)" fill="#fff"/>
            <path id="Trazado_195592" data-name="Trazado 195592" d="M200.831,116.866a.169.169,0,1,1-.169-.169.169.169,0,0,1,.169.169" transform="translate(-101.345 -58.988)" fill="#fff"/>
            <path id="Trazado_195593" data-name="Trazado 195593" d="M195.493,123.489a11.2,11.2,0,0,1,4.347-.024" transform="translate(-98.817 -62.303)" fill="none" stroke="#03091c" stroke-linecap="round" stroke-linejoin="round" stroke-width="0.847"/>
            <path id="Trazado_195594" data-name="Trazado 195594" d="M232.817,116.155c0,1.346-.762,2.438-1.7,2.438s-1.7-1.091-1.7-2.437.762-2.437,1.7-2.437,1.7,1.091,1.7,2.438" transform="translate(-115.964 -57.482)" fill="#03091c"/>
            <path id="Trazado_195595" data-name="Trazado 195595" d="M235.254,115.046a.61.61,0,1,1-.609-.609.609.609,0,0,1,.609.609" transform="translate(-118.299 -57.845)" fill="#fff"/>
            <path id="Trazado_195596" data-name="Trazado 195596" d="M233.69,116.866a.169.169,0,1,1-.169-.169.169.169,0,0,1,.169.169" transform="translate(-117.954 -58.988)" fill="#fff"/>
            <path id="Trazado_195597" data-name="Trazado 195597" d="M228.352,123.489a11.2,11.2,0,0,1,4.347-.024" transform="translate(-115.427 -62.303)" fill="none" stroke="#03091c" stroke-linecap="round" stroke-linejoin="round" stroke-width="0.847"/>
            <path id="Trazado_195598" data-name="Trazado 195598" d="M214.443,112.726l.169,2.471-1.523,9.953,1.828.068v.643" transform="translate(-107.711 -56.98)" fill="none" stroke="#03091c" stroke-linecap="round" stroke-linejoin="round" stroke-width="0.847"/>
            <path id="Trazado_195599" data-name="Trazado 195599" d="M232.078,110.68l-1.49-2.4-8.362,1.083c.034.169.237,2.573.237,2.573l7.008-2.5Z" transform="translate(-112.331 -54.732)" fill="#03091c"/>
            <path id="Trazado_195600" data-name="Trazado 195600" d="M188.1,107.907l1.49-2.4,8.362,1.083c-.034.169-.237,2.573-.237,2.573l-7.008-2.5Z" transform="translate(-95.081 -53.33)" fill="#03091c"/>
            <path id="Trazado_195601" data-name="Trazado 195601" d="M209.4,88.963a18.71,18.71,0,0,1-5.975-4.088,1.385,1.385,0,0,0-.312-.3,1.293,1.293,0,0,0-.494-.14,60.892,60.892,0,0,1-10.9-2.65c-.586-.2-3.118-1.6-3.507-1.3a31.716,31.716,0,0,0,7.656,4.684,42.389,42.389,0,0,0,8.49,2.949,41.348,41.348,0,0,0,5.045.846" transform="translate(-95.137 -40.662)" fill="#683424"/>
            <path id="Trazado_195602" data-name="Trazado 195602" d="M216.2,55.277a10.7,10.7,0,0,1,8.244-1.131c2.681.736,5.011,2.51,7.731,3.079.216.045.524.019.546-.2" transform="translate(-109.286 -27.183)" fill="none" stroke="#683424" stroke-linecap="round" stroke-linejoin="round" stroke-width="0.847"/>
            <path id="Trazado_195603" data-name="Trazado 195603" d="M256.482,85.2a11.077,11.077,0,0,1,1.876,1.667,3.726,3.726,0,0,1,.939,2.28c.023,2.016-2.055,3.47-2.446,5.447" transform="translate(-129.646 -43.067)" fill="none" stroke="#683424" stroke-linecap="round" stroke-linejoin="round" stroke-width="0.847"/>
            <path id="Trazado_195604" data-name="Trazado 195604" d="M183.823,66.872c-.746-1.217-.361-2.815.3-4.08a5.292,5.292,0,0,1,2.375-2.5c1.536-.683,3.321-.178,4.993-.353" transform="translate(-92.712 -30.288)" fill="none" stroke="#683424" stroke-linecap="round" stroke-linejoin="round" stroke-width="0.847"/>
            <path id="Trazado_195605" data-name="Trazado 195605" d="M195.344,208.083c.818.043,17.84.727,21.193-16.1-.841-.28-1.679-.567-2.511-.868q-.565-.2-1.133-.4c-.227,4.6-2.685,11.236-14.43,13.137a19.646,19.646,0,0,1-6.326-.014c-12.29-2.022-14.351-9.252-14.361-13.838-.752.242-1.486.544-2.239.783a10.293,10.293,0,0,1-2,.3,1.525,1.525,0,0,0-.651.1c3.564,16.607,21.647,16.946,22.46,16.9" transform="translate(-87.389 -96.038)" fill="#1c2b1c"/>
          </g>
        </g>
      </g>
    </g>
  </g>
</svg>
