<svg id="Grupo_154389" data-name="Grupo 154389" xmlns="http://www.w3.org/2000/svg" xmlns:xlink="http://www.w3.org/1999/xlink" width="77.131" height="72.597" viewBox="0 0 77.131 72.597">
  <defs>
    <clipPath id="clip-path">
      <rect id="Rectángulo_46052" data-name="Rectángulo 46052" width="67.875" height="67.865" fill="#fff"/>
    </clipPath>
  </defs>
  <g id="Grupo_154371" data-name="Grupo 154371" transform="translate(0 2.812)">
    <line id="Línea_1805" data-name="Línea 1805" x2="77.131" transform="translate(0 69.285)" fill="none" stroke="#fff" stroke-width="1" stroke-dasharray="6"/>
    <g id="Grupo_152595" data-name="Grupo 152595" transform="translate(25.315 11.293) rotate(180)">
      <rect id="Rectángulo_45221" data-name="Rectángulo 45221" width="2.151" height="2.151" transform="translate(9.142 9.142)" fill="#1894f6"/>
      <rect id="Rectángulo_45222" data-name="Rectángulo 45222" width="2.151" height="2.151" transform="translate(4.571 9.142)" fill="#1894f6"/>
      <rect id="Rectángulo_45223" data-name="Rectángulo 45223" width="2.151" height="2.151" transform="translate(0 9.142)" fill="#1894f6"/>
      <rect id="Rectángulo_45232" data-name="Rectángulo 45232" width="2.151" height="2.151" transform="translate(9.142 4.571)" fill="#1894f6"/>
      <rect id="Rectángulo_45233" data-name="Rectángulo 45233" width="2.151" height="2.151" transform="translate(4.571 4.571)" fill="#1894f6"/>
      <rect id="Rectángulo_45234" data-name="Rectángulo 45234" width="2.151" height="2.151" transform="translate(0 4.571)" fill="#1894f6"/>
      <rect id="Rectángulo_45243" data-name="Rectángulo 45243" width="2.151" height="2.151" transform="translate(9.142)" fill="#1894f6"/>
      <rect id="Rectángulo_45244" data-name="Rectángulo 45244" width="2.151" height="2.151" transform="translate(4.571)" fill="#1894f6"/>
      <rect id="Rectángulo_45245" data-name="Rectángulo 45245" width="2.151" height="2.151" fill="#1894f6"/>
    </g>
  </g>
  <g id="Grupo_154379" data-name="Grupo 154379" transform="translate(4.628)">
    <g id="Grupo_154378" data-name="Grupo 154378" clip-path="url(#clip-path)">
      <path id="Trazado_196202" data-name="Trazado 196202" d="M25,75.835A14.476,14.476,0,0,1,32.879,89.64H4.423C4.289,83.468,6.9,78.907,12.282,75.849c-.676-.349-1.35-.642-1.969-1.024a11.746,11.746,0,0,1-5.75-8.761.723.723,0,0,0-.581-.7A5.434,5.434,0,0,1,.695,57.561a1.416,1.416,0,0,0,.015-1,12.1,12.1,0,0,1-.307-7.2A9.228,9.228,0,0,1,4.9,43.505a4.011,4.011,0,0,0,1.472-1.452,9.551,9.551,0,0,1,8.669-4.878q3.521-.007,7.041,0A14.822,14.822,0,0,1,37.033,49.569a14.624,14.624,0,0,1-.5,7.02,1.4,1.4,0,0,0,.056.942,5.45,5.45,0,0,1-3.234,7.832c-.311.1-.551.177-.61.6a11.844,11.844,0,0,1-7.618,9.789,1.179,1.179,0,0,0-.122.086m5.566-15.915h.113V56.638c0-.637.007-1.275,0-1.913a3.287,3.287,0,0,0-3.339-3.33c-2.458-.048-4.923-.005-7.371-.183a26.61,26.61,0,0,1-7.83-2.022,3.941,3.941,0,0,0-5.517,3.737c-.019,3.94-.032,7.881,0,11.821a9.683,9.683,0,0,0,8.4,9.466,38.8,38.8,0,0,0,6.546.105,9.6,9.6,0,0,0,8.958-8.4,53.6,53.6,0,0,0,.038-6m4.08-4.491c.137-.968.345-1.877.382-2.793A12.648,12.648,0,0,0,22.276,39.363c-2.3-.007-4.6.038-6.9-.01a7.62,7.62,0,0,0-7.347,4.171,3.916,3.916,0,0,1-1.591,1.609C2.688,47.2,1.9,50.358,2.327,54.024a14.057,14.057,0,0,0,.312,1.429l1.792-.731c0-.675-.009-1.334,0-1.993A6.181,6.181,0,0,1,13.1,47.2a23.121,23.121,0,0,0,7.853,1.9c2.182.1,4.37.071,6.554.116a5.443,5.443,0,0,1,5.159,4.04c.132.5.181,1.022.264,1.508l1.716.667M11.643,78.816a12.068,12.068,0,0,0-4.964,8.647h6.691c-.573-2.87-1.137-5.7-1.726-8.647m18.99,8.645a12.1,12.1,0,0,0-4.976-8.637c-.586,2.935-1.152,5.764-1.725,8.637ZM18.651,82.683,14.846,87.44h7.61l-3.805-4.757m3.761,1.19c.407-2.028.789-3.892,1.145-5.76a.709.709,0,0,0-.181-.555.509.509,0,0,0-.5.045c-.947,1.095-1.868,2.212-2.812,3.342l2.348,2.929m-7.528,0c.788-.982,1.486-1.838,2.158-2.714a.486.486,0,0,0-.024-.459c-.9-1.109-1.816-2.2-2.743-3.316l-.624.292,1.233,6.2M4.4,57.177a3.064,3.064,0,0,0-2.157,3.048A3.01,3.01,0,0,0,4.4,63.1Zm28.506,5.958a3.12,3.12,0,0,0,2.15-3.031,3.083,3.083,0,0,0-2.15-2.934ZM16.525,76.664l2.127,2.556,2.126-2.556Z" transform="translate(0 -21.841)" fill="#fff"/>
      <path id="Trazado_196203" data-name="Trazado 196203" d="M105.622,90.326a46.668,46.668,0,0,1,5.594.033A11.093,11.093,0,0,1,120.3,105.1a1.537,1.537,0,0,0,.074,1.339,5.4,5.4,0,0,1-3.777,7.686,1,1,0,0,0-.818.669,9.636,9.636,0,0,1-8.977,6.044,13.79,13.79,0,0,1-5.664-.6,9.737,9.737,0,0,1-5.647-5.425,1.039,1.039,0,0,0-.876-.693,5.4,5.4,0,0,1-3.708-7.724,1.379,1.379,0,0,0,.082-1.211,11.172,11.172,0,0,1,10.462-14.959c1.39-.01,2.78,0,4.17,0v.107M96.9,103.346c0,2.8-.13,5.494.033,8.171a7.321,7.321,0,0,0,4.845,6.611,12.145,12.145,0,0,0,5.532.493,7.387,7.387,0,0,0,6.914-6.368c.252-2.3.123-4.637.159-6.959.01-.631,0-1.262,0-1.95a12.553,12.553,0,0,1-8.752-2.883,12.528,12.528,0,0,1-8.734,2.885m8.707-5.917c.569.531,1.028,1.009,1.538,1.426a9.973,9.973,0,0,0,6.557,2.3c.947,0,1.893,0,2.878,0V103.4l1.731.69c.051-.134.1-.238.13-.347a8.99,8.99,0,0,0-8.356-11.323c-2.891-.054-5.786-.072-8.677,0a8.7,8.7,0,0,0-8.014,5.12,8.413,8.413,0,0,0-.445,6.559l1.767-.718V101.35c2.021-.212,4.007-.269,5.925-.662a9.348,9.348,0,0,0,4.966-3.259m-10.938,8.405a3.1,3.1,0,0,0-2.16,3.061,3.059,3.059,0,0,0,2.186,2.9c0-1.864,0-3.716,0-5.568,0-.127-.016-.253-.026-.39m21.925,5.994a3.19,3.19,0,0,0,2.162-3.213,3.024,3.024,0,0,0-2.162-2.764Z" transform="translate(-53.07 -53.008)" fill="#fff"/>
      <path id="Trazado_196204" data-name="Trazado 196204" d="M105.434,30.675a10.964,10.964,0,0,1-7.05-2.212A9.529,9.529,0,0,1,95.47,24.57a.9.9,0,0,0-.762-.64,5.4,5.4,0,0,1-3.783-7.776,1.26,1.26,0,0,0,.068-1.145A9.3,9.3,0,0,1,99.805,2.228,18.2,18.2,0,0,0,107.29.782a9.9,9.9,0,0,1,13.655,9.061,18.309,18.309,0,0,1-.749,5.184,1.4,1.4,0,0,0,.08.94,5.463,5.463,0,0,1-3.792,8,.87.87,0,0,0-.571.369c-1.98,4.5-5.488,6.406-10.479,6.34M96.894,13.114c0,2.809-.119,5.481.031,8.137a7.339,7.339,0,0,0,4.851,6.677,12.122,12.122,0,0,0,5.531.493,7.307,7.307,0,0,0,6.9-6.366c.259-2.933.054-5.907.054-8.934a8.588,8.588,0,0,1-5.579-2.857,18.605,18.605,0,0,1-11.789,2.85m12.284-5.992c1.617,3.041,4.131,4.142,7.393,3.8v2.285l1.726.66c.145-.942.319-1.809.405-2.684a7.682,7.682,0,0,0-3.161-7.476,7.528,7.528,0,0,0-8.008-.688c-.558.255-1.128.484-1.7.7a18.9,18.9,0,0,1-6.206.694,6.914,6.914,0,0,0-6.478,4.232,6.607,6.607,0,0,0-.209,5.269l1.781-.73v-2.3c5.222.378,10.236.028,14.46-3.763M94.664,15.639a3.129,3.129,0,0,0,0,5.949Zm21.925,5.943a3.11,3.11,0,0,0,0-5.928Z" transform="translate(-53.071 0)" fill="#fff"/>
      <path id="Trazado_196205" data-name="Trazado 196205" d="M36.826,81.313h-2.06a4.264,4.264,0,0,1,4.085-4.342,4.394,4.394,0,0,1,4.292,2.783,4.836,4.836,0,0,1-1.269,5.367,2.126,2.126,0,0,1-.494.363,2.021,2.021,0,0,0-1.242,2.385c.1,1.06.022,2.137.022,3.262H37.973v-.978c0-1.48.021-2.961-.012-4.44a.925.925,0,0,1,.513-.928c.585-.35,1.149-.738,1.708-1.129a2.55,2.55,0,0,0,.871-3.21,2.11,2.11,0,0,0-2.007-1.288,2.162,2.162,0,0,0-2.009,1.388,7.808,7.808,0,0,0-.211.767" transform="translate(-20.417 -45.223)" fill="#fff"/>
      <path id="Trazado_196206" data-name="Trazado 196206" d="M43.684,116.759a1.089,1.089,0,1,1-1.1,1.073,1.1,1.1,0,0,1,1.1-1.073" transform="translate(-25.02 -68.603)" fill="#fff"/>
      <path id="Trazado_196207" data-name="Trazado 196207" d="M125.668,146.079l-1.858.941a2.663,2.663,0,0,0-2.3-1.554,2.5,2.5,0,0,0-2.357,1.56l-1.892-.931a4.453,4.453,0,0,1,4.084-2.821,4.5,4.5,0,0,1,4.327,2.805" transform="translate(-68.896 -84.182)" fill="#fff"/>
      <path id="Trazado_196208" data-name="Trazado 196208" d="M108.957,127.423h2.109c.163.583.464,1.054,1.148,1.047s.978-.476,1.129-1.059h2.064a3.163,3.163,0,0,1-3.042,3.254,3.248,3.248,0,0,1-3.408-3.242" transform="translate(-64.019 -74.862)" fill="#fff"/>
      <path id="Trazado_196209" data-name="Trazado 196209" d="M130.166,127.4h2.116c.15.6.46,1.061,1.137,1.061s.984-.466,1.135-1.06h2.058a3.147,3.147,0,0,1-2.958,3.252,3.262,3.262,0,0,1-3.488-3.253" transform="translate(-76.481 -74.859)" fill="#fff"/>
      <path id="Trazado_196210" data-name="Trazado 196210" d="M117.248,55.537l1.864-.936a2.622,2.622,0,0,0,2.31,1.552,2.562,2.562,0,0,0,2.357-1.562l1.882.939a4.551,4.551,0,0,1-8.413.006" transform="translate(-68.891 -32.076)" fill="#fff"/>
      <path id="Trazado_196211" data-name="Trazado 196211" d="M136.689,40.437h-2.11c-.173-.594-.481-1.091-1.2-1.057a1.132,1.132,0,0,0-1.072,1.049h-2.118a3.231,3.231,0,0,1,3.189-3.247,3.264,3.264,0,0,1,3.308,3.255" transform="translate(-76.496 -21.847)" fill="#fff"/>
      <path id="Trazado_196212" data-name="Trazado 196212" d="M111.1,40.431h-2.107a3.214,3.214,0,0,1,3.1-3.248,3.264,3.264,0,0,1,3.387,3.226h-2.119c-.163-.556-.463-1.06-1.18-1.03-.644.027-.951.461-1.084,1.052" transform="translate(-64.04 -21.846)" fill="#fff"/>
    </g>
  </g>
</svg>
