<svg xmlns="http://www.w3.org/2000/svg" xmlns:xlink="http://www.w3.org/1999/xlink" width="77" height="77" viewBox="0 0 77 77">
  <defs>
    <clipPath id="clip-path">
      <rect id="Rectángulo_46449" data-name="Rectángulo 46449" width="47.855" height="47.969" fill="#fff"/>
    </clipPath>
  </defs>
  <g id="Grupo_154887" data-name="Grupo 154887" transform="translate(-0.224 0.153)">
    <circle id="Elipse_5810" data-name="Elipse 5810" cx="38.5" cy="38.5" r="38.5" transform="translate(0.224 76.847) rotate(-90)" fill="#2194e5"/>
    <g id="Grupo_154880" data-name="Grupo 154880" transform="translate(14.826 14.374)">
      <g id="Grupo_154879" data-name="Grupo 154879" transform="translate(0 0)" clip-path="url(#clip-path)">
        <path id="Trazado_196820" data-name="Trazado 196820" d="M0,34.4A2.315,2.315,0,0,1,1.848,32.64,1.185,1.185,0,0,0,2.9,31.775a9.062,9.062,0,0,1,4.57-4.515,1.19,1.19,0,0,0,.663-.7c.4-.983.839-1.949,1.242-2.93a.485.485,0,0,1,.532-.357,4.457,4.457,0,0,1,4.225,2.614.747.747,0,0,0,.8.5q2.077-.046,4.154,0c.865.017,1.732.1,2.628.155.109-.547.2-1.145.353-1.732a13.063,13.063,0,0,1,2.2-4.58q2.392-3.246,4.77-6.5c.1-.14.2-.286.3-.438-1.432-.331-2.174-1.041-2.279-2.155S27.567,9.15,28.912,8.6c-.531-.319-1.014-.626-1.515-.9a.593.593,0,0,1-.354-.6,4.433,4.433,0,0,1,3.428-4.355c.138-.034.279-.064.456-.1-.189-.47.115-.717.416-.965l.075-.061c2.37-2.037,4.512-2.005,6.836.091.28.253.559.491.395.912.426.136.837.229,1.217.393A4.374,4.374,0,0,1,42.5,7.2a.647.647,0,0,1-.257.442c-.5.336-1.028.638-1.586.975A2.43,2.43,0,0,1,42.5,11.143a2.426,2.426,0,0,1-2.291,2.128c.109.159.2.3.3.428,1.618,2.207,3.249,4.4,4.852,6.621a13.091,13.091,0,0,1-16.234,19.5l-.417-.19c-.057.1-.117.193-.162.292a9.445,9.445,0,0,1-4.231,4.542.6.6,0,0,0-.365.638,4.6,4.6,0,0,1-.074,1.149,2.265,2.265,0,0,1-2.187,1.776c-.483.014-.966.005-1.449,0a2.331,2.331,0,0,1-2.461-2.106c-.01-.06-.021-.119-.035-.194H13.2a6.249,6.249,0,0,1-.29.954,2.232,2.232,0,0,1-2.022,1.34c-.562.025-1.128.02-1.691,0a2.232,2.232,0,0,1-2.219-2.245c0-.008,0-.017,0-.025A1.525,1.525,0,0,0,6,44.095a8.943,8.943,0,0,1-3.209-2.8.5.5,0,0,0-.33-.215A2.473,2.473,0,0,1,0,39.228ZM34.774,13.234c-1.014,0-2.029.014-3.043-.008a.722.722,0,0,0-.674.346q-2.771,3.806-5.56,7.6a11.748,11.748,0,0,0-2.175,5.251c-.067.43-.038.7.449.922a9.448,9.448,0,0,1,5.443,10.383.435.435,0,0,0,.279.549l.01,0a11.637,11.637,0,0,0,7.085,1.119,11.449,11.449,0,0,0,7.7-17.925c-1.894-2.681-3.87-5.306-5.823-7.945a.79.79,0,0,0-.547-.273c-1.047-.029-2.1-.015-3.141-.015ZM24.7,35.607a2.851,2.851,0,0,0,2.537-1.152,1.009,1.009,0,0,0,.165-1.062,8.271,8.271,0,0,0-7.5-5.456c-1.625-.043-3.252-.01-4.878-.018a3.494,3.494,0,0,1-1.554-.091c-.365-.206-.487-.833-.719-1.276a4.479,4.479,0,0,0-.243-.416,3,3,0,0,0-1.6-1.185.351.351,0,0,0-.518.237c-.356.879-.757,1.739-1.11,2.619a1.027,1.027,0,0,1-.645.638,7.757,7.757,0,0,0-4.627,4.631c-.4,1.017-.4,1.016-1.492,1.028-.713.007-.973.273-.976,1V37.86c0,1.633,0,1.64,1.632,1.647a.624.624,0,0,1,.564.328,8.424,8.424,0,0,0,1.433,1.732,29.764,29.764,0,0,0,2.992,1.914.54.54,0,0,1,.343.547c-.024.53-.015,1.063,0,1.593a.774.774,0,0,0,.7.842.786.786,0,0,0,.144,0c.45.012.9.009,1.352,0a.793.793,0,0,0,.892-.894c.008-.461,0-.924,0-1.391h7.723v1.33c.007.686.273.951.975.956.4,0,.8.005,1.208,0,.624-.01.9-.291.911-.928.005-.5.022-1-.006-1.5a.5.5,0,0,1,.374-.568,8.05,8.05,0,0,0,5.035-7.392A4.994,4.994,0,0,1,24.288,37.2c-.117,0-.257.144-.358.249-1.081,1.121-2.157,2.248-3.215,3.353l-1.158-1.1,2.5-2.455c-1.722-.873-2.285-1.858-1.83-3.145a2.337,2.337,0,0,1,2.613-1.508c1.331.288,1.974,1.317,1.856,3.019M35.713,8.577c.425-1.9.842-3.767,1.251-5.634A.449.449,0,0,0,36.9,2.6a2.772,2.772,0,0,0-3.389-.572c-.984.533-.989.534-.752,1.613.365,1.64.729,3.281,1.1,4.935Zm-.9,3.111h5.169c.617,0,.97-.273.982-.754s-.353-.79-.992-.79H29.437a.785.785,0,0,0-.835.731q0,.012,0,.023a.772.772,0,0,0,.751.792.8.8,0,0,0,.1,0c1.793.006,3.58,0,5.369,0ZM32.288,8.653l-1-4.46a2.868,2.868,0,0,0-2.581,2.04.434.434,0,0,0,.2.58l.017.008c.92.526,1.817,1.087,2.734,1.622a3.518,3.518,0,0,0,.623.21ZM38.28,4.17l-1,4.505a4.636,4.636,0,0,0,.657-.246c.887-.519,1.754-1.069,2.651-1.57a.482.482,0,0,0,.282-.621.47.47,0,0,0-.04-.082A2.907,2.907,0,0,0,38.28,4.17M23.05,35.637c.229-.7.173-1.126-.182-1.376a.71.71,0,0,0-.929.025.7.7,0,0,0-.218.9c.29.605.836.457,1.329.452Z" transform="translate(0 -0.068)" fill="#fff"/>
        <path id="Trazado_196821" data-name="Trazado 196821" d="M0,6.882C1.229,4.887,2.423,2.871,3.7.908a2.058,2.058,0,0,1,3.414,0Q8.923,3.615,10.58,6.421A1.942,1.942,0,0,1,8.939,9.3c-.127.008-.253.011-.428.019v9.231H2.346V9.314A2.175,2.175,0,0,1,0,7.756Zm6.952.869c.627,0,1.185.008,1.748,0s.719-.312.424-.786q-1.556-2.5-3.13-4.981c-.345-.547-.825-.537-1.171.011q-1.56,2.465-3.1,4.942c-.327.524-.16.812.462.82.555.005,1.111,0,1.7,0V17H6.955Z" transform="translate(0 0)" fill="#fff"/>
        <path id="Trazado_196822" data-name="Trazado 196822" d="M40.533,30.577h-6.2V21.372a7.483,7.483,0,0,1-.849-.123,1.914,1.914,0,0,1-1.237-2.788c1.115-1.88,2.273-3.737,3.489-5.555a2.061,2.061,0,0,1,3.388.017q1.806,2.708,3.464,5.513a1.943,1.943,0,0,1-1.625,2.885c-.127.008-.255,0-.431,0Zm-1.549-1.549V19.777c.594,0,1.139.005,1.685,0,.595-.007.77-.3.462-.792Q39.574,16.488,38,14c-.343-.54-.82-.528-1.171.021q-1.559,2.465-3.1,4.942c-.326.521-.156.807.472.812.555,0,1.11,0,1.695,0v9.255Z" transform="translate(-19.646 -7.382)" fill="#fff"/>
        <path id="Trazado_196823" data-name="Trazado 196823" d="M83.122,47.729V46.154h1.516V47.7c2.071.747,3.128,2.033,3.082,3.761-.24.019-.487.046-.737.056s-.479,0-.747,0c-.031-.173-.053-.343-.091-.509a2.31,2.31,0,1,0-2.859,2.665c.541.15,1.094.266,1.634.421A3.8,3.8,0,0,1,85,61.426c-.106.033-.21.07-.343.115V63.1H83.122V61.538a3.99,3.99,0,0,1-2.573-1.823,4.368,4.368,0,0,1-.509-2.728h1.525c0,.292-.008.577,0,.861a2.271,2.271,0,0,0,2.1,2.193,2.3,2.3,0,0,0,2.508-1.914A2.263,2.263,0,0,0,84.5,55.6c-.464-.131-.931-.248-1.4-.365a3.81,3.81,0,0,1-.182-7.443Z" transform="translate(-49.097 -28.326)" fill="#fff"/>
        <path id="Trazado_196824" data-name="Trazado 196824" d="M18.36,78.12a2.318,2.318,0,1,1-2.347,2.289c0-.008,0-.016,0-.025A2.327,2.327,0,0,1,18.36,78.12m-.035,3.087a.769.769,0,1,0-.764-.775.778.778,0,0,0,.764.774Z" transform="translate(-9.828 -47.945)" fill="#fff"/>
      </g>
    </g>
  </g>
</svg>
