<svg id="Grupo_154390" data-name="Grupo 154390" xmlns="http://www.w3.org/2000/svg" xmlns:xlink="http://www.w3.org/1999/xlink" width="77.13" height="73.219" viewBox="0 0 77.13 73.219">
  <defs>
    <clipPath id="clip-path">
      <rect id="Rectángulo_46054" data-name="Rectángulo 46054" width="67.875" height="69.989" fill="#fff"/>
    </clipPath>
  </defs>
  <g id="Grupo_154373" data-name="Grupo 154373" transform="translate(0 6.278)">
    <line id="Línea_1807" data-name="Línea 1807" x2="77.131" transform="translate(0 66.441)" fill="none" stroke="#fff" stroke-width="1" stroke-dasharray="6"/>
    <g id="Grupo_153193" data-name="Grupo 153193" transform="translate(22.23 11.293) rotate(180)">
      <rect id="Rectángulo_45221" data-name="Rectángulo 45221" width="2.151" height="2.151" transform="translate(9.142 9.142)" fill="#1894f6"/>
      <rect id="Rectángulo_45222" data-name="Rectángulo 45222" width="2.151" height="2.151" transform="translate(4.571 9.142)" fill="#1894f6"/>
      <rect id="Rectángulo_45223" data-name="Rectángulo 45223" width="2.151" height="2.151" transform="translate(0 9.142)" fill="#1894f6"/>
      <rect id="Rectángulo_45232" data-name="Rectángulo 45232" width="2.151" height="2.151" transform="translate(9.142 4.571)" fill="#1894f6"/>
      <rect id="Rectángulo_45233" data-name="Rectángulo 45233" width="2.151" height="2.151" transform="translate(4.571 4.571)" fill="#1894f6"/>
      <rect id="Rectángulo_45234" data-name="Rectángulo 45234" width="2.151" height="2.151" transform="translate(0 4.571)" fill="#1894f6"/>
      <rect id="Rectángulo_45243" data-name="Rectángulo 45243" width="2.151" height="2.151" transform="translate(9.142)" fill="#1894f6"/>
      <rect id="Rectángulo_45244" data-name="Rectángulo 45244" width="2.151" height="2.151" transform="translate(4.571)" fill="#1894f6"/>
      <rect id="Rectángulo_45245" data-name="Rectángulo 45245" width="2.151" height="2.151" fill="#1894f6"/>
    </g>
  </g>
  <g id="Grupo_154383" data-name="Grupo 154383" transform="translate(4.628 0)">
    <g id="Grupo_154382" data-name="Grupo 154382" clip-path="url(#clip-path)">
      <path id="Trazado_196226" data-name="Trazado 196226" d="M0,59.725a21.514,21.514,0,0,1,1.053-3.136,7.549,7.549,0,0,1,4.94-3.837c4.347-1.234,8.689-2.488,13.04-3.706a.783.783,0,0,0,.685-.924,23.733,23.733,0,0,0-3.943-13.187,69.166,69.166,0,0,1-4.006-6.361A18.362,18.362,0,0,1,18.221,5.051a17.423,17.423,0,0,1,9.455-2.724A71.725,71.725,0,0,0,45.881.046a.708.708,0,0,1,.882.3,15.7,15.7,0,0,1,3.314,6.616A13.181,13.181,0,0,1,46.8,18.828a1.056,1.056,0,0,0-.238,1.341,6.155,6.155,0,0,1,.472,2.179,13.755,13.755,0,0,0,2.733,8.118,2.8,2.8,0,0,1-1.656,4.512.915.915,0,0,0-.519.431A13.672,13.672,0,0,0,45.9,40.521a6.338,6.338,0,0,1-6.36,5.765,14.736,14.736,0,0,1-2.67-.394c-.581-.116-1.143-.336-1.81-.538,0,1.117-.023,2.177.026,3.234.007.15.349.349.567.413,2.914.848,5.835,1.673,8.751,2.512,1.7.49,3.426.92,5.1,1.512a7.724,7.724,0,0,1,5.241,7.522c.031,3.147,0,6.3,0,9.443H0V59.725M17.715,51.75c-1.208.344-2.355.664-3.5,1-2.829.82-5.683,1.558-8.474,2.5A4.892,4.892,0,0,0,2.3,59.7c-.191,2.606-.065,5.238-.072,7.859,0,.038.044.075.073.123H52.538c0-2.521.1-4.986-.027-7.44a5.457,5.457,0,0,0-4.3-5.3q-2.81-.806-5.62-1.612c-1.826-.521-3.653-1.037-5.543-1.573l-2.461,10.1-7.2-6.173-7.208,6.171-2.457-10.1m6.333-25.768c.039-.462.073-.891.113-1.319a9.526,9.526,0,0,1,8.824-8.743c2.43-.12,4.869-.07,7.3-.064a6.5,6.5,0,0,1,3.424.933c.41.25.792.55,1.173.818A11.172,11.172,0,0,0,45.77,2.8a.933.933,0,0,0-.789-.2A78.779,78.779,0,0,1,27.6,4.579,15.07,15.07,0,0,0,15.96,9.933a16.145,16.145,0,0,0-1.353,19.189c.977,1.493,1.949,2.99,2.929,4.481a26.326,26.326,0,0,1,3.023,6.137c.232.694.422,1.4.662,2.209a12.4,12.4,0,0,0,2.8-6.875c-2.859-.645-4.364-2.265-4.3-4.6a4.517,4.517,0,0,1,4.325-4.492M27.694,40.73c.281.082.493.142.7.206,3.028.932,6.048,1.894,9.09,2.775a7.63,7.63,0,0,0,2.473.267,4,4,0,0,0,3.758-3.742A11.884,11.884,0,0,1,45.2,35.259a14.091,14.091,0,0,0,.856-1.773.971.971,0,0,1,1.141-.74c.289.027.8-.108.849-.277a1.315,1.315,0,0,0-.25-.962,15.1,15.1,0,0,1-2.9-8.638,4.568,4.568,0,0,0-4.768-4.752c-2.125-.01-4.251-.019-6.376.008a8.014,8.014,0,0,0-1.9.229A7.467,7.467,0,0,0,26.3,25.707c-.018.834,0,1.67,0,2.546-.714,0-1.332,0-1.949,0a2.262,2.262,0,1,0,.012,4.512c.632,0,1.264,0,1.908,0,.013.238.024.373.026.507a15.205,15.205,0,0,1-4.219,11.081,1.187,1.187,0,0,0-.335.739c.025,1.184.092,2.369.191,3.549a1.061,1.061,0,0,0,.377.695Q24.629,50.986,27,52.562a.817.817,0,0,0,.743.009q2.4-1.588,4.751-3.258a.945.945,0,0,0,.334-.651c.035-1.025-.033-2.055.032-3.077a.978.978,0,0,0-.866-1.21c-1.642-.437-3.255-.986-4.925-1.5l.624-2.14m7.22,10.481c-.719-.334-.719-.335-1.289.055q-1.075.737-2.149,1.476L29.209,54.3l4.1,3.51,1.606-6.6M25.549,54.3c-1.513-1.04-2.99-2.031-4.437-3.064a.932.932,0,0,0-1.264-.008l1.605,6.585,4.1-3.513" transform="translate(0 0)" fill="#fff"/>
      <path id="Trazado_196227" data-name="Trazado 196227" d="M181.691,89.924l-1.5-1.6a13.877,13.877,0,0,0-.017-19.067l1.53-1.527c5.515,5.36,6.369,15.574-.01,22.193" transform="translate(-118.287 -43.768)" fill="#fff"/>
      <path id="Trazado_196228" data-name="Trazado 196228" d="M172.777,92.556l-1.5-1.468c3.38-5.168,3.381-7.632.005-12.8l1.475-1.445c3.93,3.516,4.57,11.23.021,15.71" transform="translate(-112.447 -49.658)" fill="#fff"/>
      <path id="Trazado_196229" data-name="Trazado 196229" d="M163.641,95.1l-1.464-1.535a4.723,4.723,0,0,0-.011-6.373l1.5-1.532a6.753,6.753,0,0,1-.022,9.44" transform="translate(-106.466 -55.35)" fill="#fff"/>
    </g>
  </g>
</svg>
