<svg xmlns="http://www.w3.org/2000/svg" xmlns:xlink="http://www.w3.org/1999/xlink" width="85" height="85" viewBox="0 0 85 85">
  <defs>
    <clipPath id="clip-path">
      <rect id="Rectángulo_46545" data-name="Rectángulo 46545" width="53.031" height="60.082" fill="#fff"/>
    </clipPath>
  </defs>
  <g id="Grupo_155114" data-name="Grupo 155114" transform="translate(-809.958 -884)">
    <g id="Grupo_155228" data-name="Grupo 155228">
      <circle id="Elipse_5721" data-name="Elipse 5721" cx="42.5" cy="42.5" r="42.5" transform="translate(809.958 884)" fill="#7f4fc7"/>
      <g id="Grupo_155113" data-name="Grupo 155113" transform="translate(-4.484 2.854)">
        <g id="Grupo_155112" data-name="Grupo 155112" transform="translate(830.442 893.146)">
          <g id="Grupo_155111" data-name="Grupo 155111" transform="translate(0 0)" clip-path="url(#clip-path)">
            <path id="Trazado_197144" data-name="Trazado 197144" d="M47.52,83.5c-.047,2.893-1.458,4.8-4.035,5.441a10.163,10.163,0,0,1-1.976.256c-1.074.05-1.555-.44-1.557-1.5,0-1.264-.092-2.535.021-3.788A6.738,6.738,0,0,0,38.7,79.35a7.149,7.149,0,0,0-2.579-2.594c-.4-.209-.773-.488-1.22-.776v.583c0,1.3-.4,1.7-1.692,1.7q-3.842,0-7.685,0c-1.116,0-1.573-.45-1.573-1.554q0-9.817,0-19.634c0-1.1.459-1.553,1.575-1.553,2.492,0,4.983.006,7.475,0,.659,0,1.308-.024,1.716.585a5.224,5.224,0,0,1,2.809-.581h6.317c3.334,0,6.667-.009,10,0a3.763,3.763,0,0,1,3.729,3.089,3.981,3.981,0,0,1-.513,2.758,3.89,3.89,0,0,1,.841,5.081,3.79,3.79,0,0,1,1.412,2.632,3.883,3.883,0,0,1-.927,2.859,3.741,3.741,0,0,1,.507,4.262A3.816,3.816,0,0,1,55.1,78.272c-1.929-.035-3.86-.008-5.79-.008H47.525c0,1.8.023,3.521-.005,5.24m-2.618.642c.108-1.4.081-2.8.1-4.2.013-.895,0-1.79,0-2.684,0-1.042.471-1.518,1.5-1.519q4.29,0,8.579,0c.158,0,.316.006.474,0a1.268,1.268,0,0,0,1.232-1.256,1.25,1.25,0,0,0-1.228-1.258c-.789-.026-1.579,0-2.368-.01a1.274,1.274,0,1,1-.02-2.525c.755-.006,1.509.007,2.263,0a1.265,1.265,0,1,0-.018-2.522c-.772-.01-1.544.005-2.316,0a1.265,1.265,0,1,1,0-2.523c.509-.01,1.018.008,1.526-.005a1.261,1.261,0,1,0,.013-2.52c-.491-.014-.983,0-1.474,0a1.274,1.274,0,1,1,.024-2.526c.228,0,.457.009.684,0a1.26,1.26,0,0,0-.006-2.518c-.122-.008-.245,0-.368,0H37.3a2.146,2.146,0,0,0-2.4,2.4c0,4,.005,8-.009,12a.812.812,0,0,0,.44.792c1.173.735,2.317,1.517,3.486,2.26a3.487,3.487,0,0,1,1.338,1.414,36.143,36.143,0,0,0,1.909,3.145,2.567,2.567,0,0,1,.425,1.483c-.023,1.664-.009,3.33-.009,5.027,1.526-.263,2.313-1,2.424-2.421M26.5,75.694h5.831V58.072H26.5Z" transform="translate(-12.561 -29.122)" fill="#fff"/>
            <path id="Trazado_197145" data-name="Trazado 197145" d="M40.271,15.33c.22-1.274.429-2.589.683-3.9a1.079,1.079,0,0,0-.357-1.146c-.909-.824-1.765-1.706-2.648-2.558a1.3,1.3,0,0,1-.467-1.406,1.28,1.28,0,0,1,1.164-.911c1.319-.184,2.637-.372,3.95-.595a.9.9,0,0,0,.572-.41c.607-1.164,1.181-2.347,1.752-3.529a1.3,1.3,0,0,1,2.454,0c.571,1.182,1.144,2.365,1.751,3.529a.9.9,0,0,0,.576.4c1.33.227,2.666.416,4,.61a1.271,1.271,0,0,1,.71,2.236c-.953.932-1.9,1.869-2.869,2.785a.722.722,0,0,0-.242.736c.236,1.31.439,2.626.683,3.935a1.288,1.288,0,0,1-1.926,1.4c-1.156-.623-2.331-1.213-3.482-1.846a.791.791,0,0,0-.868.01q-1.754.953-3.536,1.855a1.268,1.268,0,0,1-1.9-1.2M50.789,7.554c-.659-.1-1.31-.25-1.966-.287a1.817,1.817,0,0,1-1.751-1.253c-.248-.62-.588-1.2-.929-1.885-.38.766-.734,1.411-1.026,2.083a1.62,1.62,0,0,1-1.453,1.031c-.723.076-1.439.208-2.144.313.579.606,1.125,1.193,1.69,1.764a1.381,1.381,0,0,1,.431,1.285c-.142.807-.269,1.616-.418,2.525.726-.377,1.389-.684,2.012-1.058a1.626,1.626,0,0,1,1.825,0c.623.368,1.281.675,2.011,1.054-.145-.852-.254-1.595-.4-2.329a1.588,1.588,0,0,1,.534-1.6c.548-.507,1.043-1.073,1.587-1.64" transform="translate(-19.629 0)" fill="#fff"/>
            <path id="Trazado_197146" data-name="Trazado 197146" d="M88.339,24.806a6.189,6.189,0,0,1-.012,1.154,1.853,1.853,0,0,0,1.04,2.133c.821.5,1.55,1.143,2.328,1.713a1.312,1.312,0,0,1-.453,2.481c-1.218.321-2.424.69-3.642,1.015a.8.8,0,0,0-.636.587c-.4,1.233-.841,2.45-1.244,3.681a1.3,1.3,0,0,1-2.409.322c-.708-1.086-1.442-2.155-2.143-3.246a.8.8,0,0,0-.764-.405c-1.3,0-2.594-.052-3.891-.061a1.284,1.284,0,0,1-1.025-2.192c.813-1.011,1.6-2.039,2.421-3.047a.757.757,0,0,0,.155-.808c-.4-1.23-.763-2.476-1.152-3.71a1.3,1.3,0,0,1,1.773-1.691c1.21.461,2.437.881,3.64,1.357a.781.781,0,0,0,.852-.124c1.022-.741,2.065-1.451,3.088-2.188a1.36,1.36,0,0,1,1.516-.23,1.342,1.342,0,0,1,.677,1.421c-.029.612-.006,1.226-.006,1.839h-.115m.012,5.663c-.623-.471-1.114-.9-1.662-1.24a1.886,1.886,0,0,1-.944-2.044,16.3,16.3,0,0,0,.015-1.953c-.613.431-1.2.809-1.752,1.24a1.676,1.676,0,0,1-1.859.246c-.662-.287-1.355-.505-2.116-.784.266.874.488,1.646.739,2.409a1.372,1.372,0,0,1-.264,1.376q-.642.8-1.273,1.609a3.918,3.918,0,0,0-.233.4c.834,0,1.572.021,2.307-.006a1.539,1.539,0,0,1,1.48.8c.4.645.838,1.265,1.306,1.964.278-.808.546-1.512.76-2.232a1.555,1.555,0,0,1,1.223-1.16c.727-.176,1.443-.4,2.273-.631" transform="translate(-39.396 -11.227)" fill="#fff"/>
            <path id="Trazado_197147" data-name="Trazado 197147" d="M5.271,21.264a6.281,6.281,0,0,1,.828.408q1.583,1.085,3.139,2.208a.821.821,0,0,0,.9.13c1.185-.476,2.4-.886,3.589-1.345a1.295,1.295,0,0,1,1.792,1.672c-.382,1.219-.736,2.447-1.137,3.66a.836.836,0,0,0,.159.9c.821,1,1.609,2.034,2.423,3.045a1.288,1.288,0,0,1-1.037,2.164c-1.315.007-2.629.059-3.944.06a.751.751,0,0,0-.716.4c-.7,1.089-1.435,2.16-2.144,3.245a1.3,1.3,0,0,1-2.411-.3c-.4-1.23-.844-2.449-1.246-3.68a.793.793,0,0,0-.623-.6c-1.253-.325-2.494-.7-3.744-1.037A1.316,1.316,0,0,1,.018,31.107a1.292,1.292,0,0,1,.622-1.3c1.014-.751,2.012-1.524,3.036-2.261a.921.921,0,0,0,.447-.907c-.081-1.33-.12-2.662-.149-3.994a1.324,1.324,0,0,1,1.3-1.383" transform="translate(0 -11.154)" fill="#fff"/>
            <path id="Trazado_197148" data-name="Trazado 197148" d="M36.806,62.373a1.26,1.26,0,1,0-1.257,1.275,1.273,1.273,0,0,0,1.257-1.275" transform="translate(-17.985 -32.066)" fill="#fff"/>
          </g>
        </g>
      </g>
    </g>
  </g>
</svg>
