<svg xmlns="http://www.w3.org/2000/svg" xmlns:xlink="http://www.w3.org/1999/xlink" width="77.141" height="70.582" viewBox="0 0 77.141 70.582">
  <defs>
    <clipPath id="clip-path">
      <rect id="Rectángulo_46053" data-name="Rectángulo 46053" width="67.875" height="65.314" fill="#fff"/>
    </clipPath>
  </defs>
  <g id="Grupo_154388" data-name="Grupo 154388" transform="translate(0.005)">
    <g id="Grupo_154374" data-name="Grupo 154374" transform="translate(0 2.87)">
      <line id="Línea_1807" data-name="Línea 1807" x2="77.131" y2="0.771" transform="translate(0 66.441)" fill="none" stroke="#fff" stroke-width="1" stroke-dasharray="6"/>
      <g id="Grupo_153193" data-name="Grupo 153193" transform="translate(22.23 11.293) rotate(180)">
        <rect id="Rectángulo_45221" data-name="Rectángulo 45221" width="2.151" height="2.151" transform="translate(9.142 9.142)" fill="#1894f6"/>
        <rect id="Rectángulo_45222" data-name="Rectángulo 45222" width="2.151" height="2.151" transform="translate(4.571 9.142)" fill="#1894f6"/>
        <rect id="Rectángulo_45223" data-name="Rectángulo 45223" width="2.151" height="2.151" transform="translate(0 9.142)" fill="#1894f6"/>
        <rect id="Rectángulo_45232" data-name="Rectángulo 45232" width="2.151" height="2.151" transform="translate(9.142 4.571)" fill="#1894f6"/>
        <rect id="Rectángulo_45233" data-name="Rectángulo 45233" width="2.151" height="2.151" transform="translate(4.571 4.571)" fill="#1894f6"/>
        <rect id="Rectángulo_45234" data-name="Rectángulo 45234" width="2.151" height="2.151" transform="translate(0 4.571)" fill="#1894f6"/>
        <rect id="Rectángulo_45243" data-name="Rectángulo 45243" width="2.151" height="2.151" transform="translate(9.142)" fill="#1894f6"/>
        <rect id="Rectángulo_45244" data-name="Rectángulo 45244" width="2.151" height="2.151" transform="translate(4.571)" fill="#1894f6"/>
        <rect id="Rectángulo_45245" data-name="Rectángulo 45245" width="2.151" height="2.151" fill="#1894f6"/>
      </g>
    </g>
    <g id="Grupo_154381" data-name="Grupo 154381" transform="translate(4.628 0)">
      <g id="Grupo_154380" data-name="Grupo 154380" transform="translate(0)" clip-path="url(#clip-path)">
        <path id="Trazado_196213" data-name="Trazado 196213" d="M137.948,78.765c-.669,1.634-1.264,3.3-2.021,4.9a29.835,29.835,0,0,1-9.465,11.792,23.883,23.883,0,0,1-20.9,3.05c-.745-.248-1.049-.714-.868-1.326.171-.576.727-.8,1.467-.57a21.614,21.614,0,0,0,16.6-1.231,24.079,24.079,0,0,0,9.409-8.957,37.043,37.043,0,0,0,3.653-7.664,1.142,1.142,0,0,0-.375-1.471q-2.6-1.877-5.222-3.732a6.574,6.574,0,0,0-.578-.322c-.686-.392-.894-.916-.582-1.466s.868-.658,1.554-.265c1.034.594,2.075,1.182,3.061,1.85.895.605,1.726,1.308,2.576,1.98a4.716,4.716,0,0,1,1.7,2.233Z" transform="translate(-70.073 -47.579)" fill="#fff"/>
        <path id="Trazado_196214" data-name="Trazado 196214" d="M85.956,82.27a88.726,88.726,0,0,1,20.107,2.659c1.7.429,2.122,1.816.919,3.074a39.6,39.6,0,0,1-11.148,8.341,21.493,21.493,0,0,1-20.4-.3,40.107,40.107,0,0,1-10.647-8.141,1.66,1.66,0,0,1,.82-2.917,75.709,75.709,0,0,1,12.625-2.214c2.57-.224,5.149-.342,7.724-.507m-19.4,4.554c1.6,1.957,6.556,5.869,8.233,6.53a.577.577,0,0,0,.117-.062,8.09,8.09,0,0,1,10.62.1c.367.33.606.16.906-.09a8.015,8.015,0,0,1,10.254-.2.648.648,0,0,0,.921.014c1.516-1.109,3.078-2.156,4.549-3.322,1.116-.885,2.12-1.914,3.174-2.879l-.075-.248a9.683,9.683,0,0,0-2.31-.117c-3.573.674-7.116,1.511-10.694,2.153a33.707,33.707,0,0,1-9.626.4A98.786,98.786,0,0,1,69.24,86.619a4.769,4.769,0,0,0-2.68.205m6.773-1.4a45.438,45.438,0,0,0,25.212,0,76.376,76.376,0,0,0-25.212,0m3.386,9c5.212,3.086,14.33,3.064,18.356-.021-.115-.079-.218-.16-.331-.225a6.1,6.1,0,0,0-7.041.658c-1.271,1.071-2.222,1.035-3.552.019a7.71,7.71,0,0,0-2.12-1.18,5.844,5.844,0,0,0-5.312.749" transform="translate(-42.991 -54.924)" fill="#fff"/>
        <path id="Trazado_196215" data-name="Trazado 196215" d="M54.557,73.36a2.655,2.655,0,0,1,.8-2.086,27.033,27.033,0,0,1,12.6-7A12.889,12.889,0,0,1,78.3,66.383c1.171.783,1.162.774,2.37-.019a13.5,13.5,0,0,1,11.453-1.839c.766.209,1.075.671.907,1.285s-.675.823-1.439.622A11.709,11.709,0,0,0,81.4,68.28a2.9,2.9,0,0,1-3.841.005A11.647,11.647,0,0,0,66,66.915a28.393,28.393,0,0,0-8.989,5.515,1.108,1.108,0,0,0-.374,1.3,31.792,31.792,0,0,0,8.949,13.934c.831.724,1.761,1.334,2.661,1.975.646.46.841.979.513,1.506s-.886.617-1.558.2a27.541,27.541,0,0,1-8.775-9.1A36.668,36.668,0,0,1,54.8,74.485a6.541,6.541,0,0,1-.2-.7,2.622,2.622,0,0,1-.038-.422" transform="translate(-36.535 -42.692)" fill="#fff"/>
        <path id="Trazado_196216" data-name="Trazado 196216" d="M8.589,143.463c.314-1.51.62-2.982.927-4.454.032-.152.061-.305.107-.453a.955.955,0,0,1,1.15-.745.924.924,0,0,1,.756,1.139c-.176,1.05-.412,2.089-.622,3.133-.086.432-.168.865-.26,1.34h2.026c.311-1.474.624-2.963.937-4.453.014-.065.015-.133.03-.2.167-.747.631-1.1,1.254-.953.574.134.841.633.7,1.37-.223,1.132-.468,2.259-.7,3.389-.054.26-.1.521-.168.881.576,0,1.117-.01,1.658,0,.749.017,1.222.439,1.2,1.045-.025.588-.467.943-1.2.95-.661.007-1.322,0-2.069,0l-.846,4.044c.623,0,1.169-.013,1.713,0,.743.022,1.15.391,1.145,1.005s-.406.964-1.161.986c-.486.015-.974.028-1.457,0-.468-.03-.7.085-.789.616-.241,1.4-.562,2.783-.859,4.172-.161.753-.643,1.133-1.226.99-.6-.149-.857-.664-.7-1.426.289-1.409.578-2.817.89-4.337-.647,0-1.233-.029-1.812.023-.126.011-.291.293-.331.474-.31,1.408-.587,2.823-.89,4.233-.167.782-.615,1.157-1.194,1.042-.627-.125-.895-.646-.733-1.455.244-1.218.5-2.434.743-3.652.038-.19.059-.384.1-.675-.6,0-1.148.015-1.691,0-.706-.024-1.105-.382-1.121-.965-.016-.607.4-.99,1.134-1.025.22-.011.442,0,.662,0,1.487,0,1.485,0,1.78-1.5.162-.824.333-1.646.515-2.545-.629,0-1.2.01-1.768,0a1,1,0,0,1-1.094-.993,1.017,1.017,0,0,1,1.044-.993c.725-.029,1.452-.007,2.233-.007m3.655,2.038H10.2l-.82,3.993c.644,0,1.212.014,1.779-.012a.431.431,0,0,0,.316-.254c.268-1.227.511-2.46.768-3.727" transform="translate(-2.734 -91.988)" fill="#fff"/>
        <path id="Trazado_196217" data-name="Trazado 196217" d="M60.037,14.008a.941.941,0,0,1-.73,1.034.912.912,0,0,1-1.143-.556c-.283-.673-.551-1.355-.778-2.048a.7.7,0,0,0-.787-.584c-1.786.033-3.573.028-5.36,0a.672.672,0,0,0-.763.534c-.214.651-.463,1.293-.719,1.929a1,1,0,0,1-1.364.688,1.017,1.017,0,0,1-.48-1.4Q50.3,7.263,52.706.929A1.294,1.294,0,0,1,55.186.923Q57.567,7.265,59.94,13.61a2.954,2.954,0,0,1,.1.4m-6.1-10.741L51.467,9.827H56.4L53.942,3.266" transform="translate(-32.019 0)" fill="#fff"/>
        <path id="Trazado_196218" data-name="Trazado 196218" d="M126.032,23.26c0-.488,0-.977,0-1.465,0-1.068.224-1.318,1.275-1.459a2.652,2.652,0,1,0-2.9-2.93c-.009.088,0,.178-.015.266a.994.994,0,1,1-1.981-.094,4.633,4.633,0,1,1,6.121,4.513.647.647,0,0,0-.524.755c.028.754.02,1.509,0,2.264a.958.958,0,0,1-.937,1.066.976.976,0,0,1-1.032-1.051c-.028-.62-.006-1.242-.006-1.864Z" transform="translate(-81.973 -8.712)" fill="#fff"/>
        <path id="Trazado_196219" data-name="Trazado 196219" d="M18.313,72.033a24.746,24.746,0,0,1,1.952-9.525c.324-.774.823-1.06,1.416-.819s.734.8.414,1.59a22.39,22.39,0,0,0-.024,17.428,1.63,1.63,0,0,1,.073,1.132,1.063,1.063,0,0,1-.872.526,1.414,1.414,0,0,1-.911-.707,21.854,21.854,0,0,1-1.835-6.705c-.109-.969-.144-1.947-.213-2.92" transform="translate(-12.264 -41.129)" fill="#fff"/>
        <path id="Trazado_196220" data-name="Trazado 196220" d="M2.117,78.187c0,2.1-.074,4.21.018,6.309A23.71,23.71,0,0,0,4,92.423c.084.205.176.407.251.616a1.023,1.023,0,0,1-.5,1.4A.962.962,0,0,1,2.425,93.8c-.652-2-1.376-3.982-1.843-6.025A26.264,26.264,0,0,1,.294,78.3c.018-.132.031-.265.059-.395a1.011,1.011,0,0,1,1.094-.926c.571.062.895.517.857,1.2H2.117" transform="translate(0 -51.39)" fill="#fff"/>
        <path id="Trazado_196221" data-name="Trazado 196221" d="M37.871,78.4a17.073,17.073,0,0,1,1.186-6.142c.284-.729.8-1.016,1.366-.781.59.243.763.755.48,1.509a15.4,15.4,0,0,0,0,11.128c.273.733.078,1.3-.488,1.508-.587.215-1.076-.07-1.363-.806A18.379,18.379,0,0,1,37.871,78.4" transform="translate(-25.36 -47.665)" fill="#fff"/>
        <path id="Trazado_196222" data-name="Trazado 196222" d="M55.844,132.815c0-1.822-.009-3.645,0-5.467a.982.982,0,0,1,1-1.085c.589,0,.956.414.983,1.1,0,.022,0,.044,0,.066q0,5.4,0,10.8c0,.729-.386,1.156-.994,1.153s-.983-.435-.986-1.166c-.009-1.8,0-3.6,0-5.4" transform="translate(-37.395 -84.294)" fill="#fff"/>
        <path id="Trazado_196223" data-name="Trazado 196223" d="M5.429,60.625c-.85-.016-1.349-.577-1.161-1.173A28.906,28.906,0,0,1,5.345,56.6a.889.889,0,0,1,1.23-.458A.953.953,0,0,1,7.113,57.4c-.31.876-.611,1.759-1,2.6-.143.307-.535.5-.682.627" transform="translate(-2.831 -37.425)" fill="#fff"/>
        <path id="Trazado_196224" data-name="Trazado 196224" d="M57.963,171.871a.847.847,0,0,1-.979.755.792.792,0,0,1-.722-.935.809.809,0,0,1,.9-.773.87.87,0,0,1,.8.952" transform="translate(-37.671 -114.106)" fill="#fff"/>
        <path id="Trazado_196225" data-name="Trazado 196225" d="M134.653,59.135a.835.835,0,0,1-.845-.851.866.866,0,0,1,.88-.876.844.844,0,0,1,.817.925.806.806,0,0,1-.853.8" transform="translate(-89.605 -38.325)" fill="#fff"/>
      </g>
    </g>
  </g>
</svg>
