<svg xmlns="http://www.w3.org/2000/svg" xmlns:xlink="http://www.w3.org/1999/xlink" width="77" height="77" viewBox="0 0 77 77">
  <defs>
    <clipPath id="clip-path">
      <rect id="Rectángulo_46503" data-name="Rectángulo 46503" width="45.811" height="45.858" fill="#7f4fc7"/>
    </clipPath>
  </defs>
  <g id="Grupo_155228" data-name="Grupo 155228" transform="translate(-316.961 -3235)">
    <circle id="Elipse_5820" data-name="Elipse 5820" cx="38.5" cy="38.5" r="38.5" transform="translate(316.961 3235)" fill="#fff"/>
    <g id="Grupo_154975" data-name="Grupo 154975" transform="translate(332.961 3251)" clip-path="url(#clip-path)">
      <path id="Trazado_197001" data-name="Trazado 197001" d="M12.515,10.71,17.1,27.515H37.829a2.349,2.349,0,0,0,2.617-2q1.879-6.873,3.75-13.747c.221-.81.03-1.061-.8-1.063-.923,0-1.846,0-2.768,0-.564,0-.905-.294-.908-.758s.336-.764.9-.767c.971-.006,1.941,0,2.912,0a2.121,2.121,0,0,1,2.175,2.846q-1.579,5.817-3.174,11.631c-.222.812-.434,1.627-.664,2.437a3.825,3.825,0,0,1-3.9,2.946q-12.768,0-25.536,0a1.607,1.607,0,0,0-1.532.775,1.525,1.525,0,0,0,1.186,2.277c.173.017.349.008.524.008H38.768a2.321,2.321,0,0,1,2.467,2.038,2.3,2.3,0,0,1-2.2,2.54c-.519.019-1.04,0-1.66,0a5.433,5.433,0,0,1,1.467,4.891,5.17,5.17,0,0,1-1.861,3.08,5.314,5.314,0,0,1-6.955-.181,5.163,5.163,0,0,1-1.759-3.835,5.426,5.426,0,0,1,1.558-3.927H19.833a5.411,5.411,0,0,1,1.45,4.825,5.187,5.187,0,0,1-1.95,3.184,5.355,5.355,0,0,1-7.125-7.963c-3.672-.459-5.874-2.392-6.079-6.2A5.581,5.581,0,0,1,7.668,26.5a6.272,6.272,0,0,1,3.852-2.021L6.1,4.6c-1.2,0-2.385.006-3.574,0A3.47,3.47,0,0,1,1.678,4.5,2.279,2.279,0,0,1,2.165.027C3.756,0,5.348-.018,6.938.034A3.775,3.775,0,0,1,10.4,2.967c.522,1.9,1.045,3.8,1.542,5.7.1.383.243.537.665.523,1.081-.036,2.164-.014,3.245-.011.6,0,.949.293.944.769s-.355.754-.959.756c-1.094,0-2.188,0-3.327,0M15.49,27.516c-.038-.167-.061-.289-.093-.409q-.868-3.2-1.738-6.391Q11.305,12.072,8.951,3.429A2.321,2.321,0,0,0,6.487,1.544q-2,0-4.009,0c-.6,0-.949.291-.945.768s.351.756.956.758c1.257,0,2.514,0,3.77,0,.917,0,1.033.093,1.279.994q2.037,7.471,4.074,14.941.8,2.92,1.584,5.841c.2.736-.1,1.125-.872,1.14-.128,0-.254,0-.382.009a4.582,4.582,0,0,0,.378,9.154q13.2.011,26.394,0a1.738,1.738,0,0,0,.333-.011.758.758,0,0,0,0-1.5,2.687,2.687,0,0,0-.476-.013H20.2q-3.938,0-7.875,0a2.983,2.983,0,0,1-2.435-1.1,3.05,3.05,0,0,1,2.277-5c1.095-.034,2.192-.008,3.326-.008m.541,16.8a3.818,3.818,0,1,0-3.808-3.839,3.823,3.823,0,0,0,3.808,3.839M29.79,40.5a3.818,3.818,0,1,0,3.785-3.814A3.823,3.823,0,0,0,29.79,40.5" transform="translate(0 0)" fill="#7f4fc7"/>
      <path id="Trazado_197002" data-name="Trazado 197002" d="M39.228,19.886a9.929,9.929,0,1,1,9.956-9.853,9.95,9.95,0,0,1-9.956,9.853m.009-1.53a8.4,8.4,0,1,0-8.38-8.432,8.4,8.4,0,0,0,8.38,8.432" transform="translate(-10.996 -0.011)" fill="#7f4fc7"/>
      <path id="Trazado_197003" data-name="Trazado 197003" d="M26.579,63.428a2.289,2.289,0,1,1-2.256-2.3,2.3,2.3,0,0,1,2.256,2.3m-2.292-.769a.761.761,0,1,0,.763.747.769.769,0,0,0-.763-.747" transform="translate(-8.249 -22.919)" fill="#7f4fc7"/>
      <path id="Trazado_197004" data-name="Trazado 197004" d="M54.682,63.407a2.289,2.289,0,1,1-2.277-2.276,2.3,2.3,0,0,1,2.277,2.276m-1.529.033a.761.761,0,1,0-.769.741.77.77,0,0,0,.769-.741" transform="translate(-18.785 -22.919)" fill="#7f4fc7"/>
      <path id="Trazado_197005" data-name="Trazado 197005" d="M40.051,16.5a4.539,4.539,0,0,1,.378-.538q2.811-2.824,5.631-5.638A4.075,4.075,0,0,1,46.4,9.99a.757.757,0,0,1,1.058,1.079,3.215,3.215,0,0,1-.263.276l-6.41,6.411c-.606.606-.923.609-1.52.014q-1.706-1.7-3.408-3.407c-.045-.045-.091-.089-.134-.136a.779.779,0,0,1-.069-1.144.765.765,0,0,1,1.142.059c.94.926,1.871,1.863,2.8,2.8.123.124.222.271.449.554" transform="translate(-13.287 -3.675)" fill="#7f4fc7"/>
    </g>
  </g>
</svg>
