<svg xmlns="http://www.w3.org/2000/svg" xmlns:xlink="http://www.w3.org/1999/xlink" width="122" height="122" viewBox="0 0 122 122">
  <defs>
    <clipPath id="clip-path">
      <rect id="Rectángulo_46547" data-name="Rectángulo 46547" width="86.557" height="86.535" fill="none"/>
    </clipPath>
  </defs>
  <g id="Grupo_155131" data-name="Grupo 155131" transform="translate(-232.958 -3867)">
    <path id="Trazado_197163" data-name="Trazado 197163" d="M61,0A61,61,0,1,1,0,61,61,61,0,0,1,61,0Z" transform="translate(232.958 3867)" fill="#cdb8f1"/>
    <g id="Grupo_155130" data-name="Grupo 155130" transform="translate(250.958 3885)">
      <g id="Grupo_155129" data-name="Grupo 155129" clip-path="url(#clip-path)">
        <path id="Trazado_197149" data-name="Trazado 197149" d="M48.842,95.089H47.491a19.175,19.175,0,0,0-3.32-.383A30.147,30.147,0,0,1,36,92.4,40.026,40.026,0,0,1,14.108,69.825a38.336,38.336,0,0,1-2.445-10.571A39.913,39.913,0,0,1,35.3,19.089a36.482,36.482,0,0,1,7.279-2.4c1.345-.278,2.719-.375,4.076-.583a6.1,6.1,0,0,0,1.139-.271,25.39,25.39,0,0,1,6.176.705A38.74,38.74,0,0,1,69.853,23.8a9.779,9.779,0,0,1,2.95,2.72c.138.452-.131.749-.409,1.029-1.638,1.648-3.275,3.3-4.93,4.926a1.018,1.018,0,0,1-.957.407c-1.064-.638-1.949-1.514-2.958-2.228a29.793,29.793,0,0,0-14.764-5.5c-.8-.124-1.6-.263-2.41-.376a1.471,1.471,0,0,0-.329-.053c-4.935.392-9.79,1.167-14.213,3.546C22.815,33.12,17.26,40.58,15.5,50.684A29.463,29.463,0,0,0,18.64,69.9,30.123,30.123,0,0,0,30.424,82.133a30.449,30.449,0,0,0,12.522,3.981c.838.079,1.679.141,2.517.241a5.9,5.9,0,0,0,2.657-.244A29.615,29.615,0,0,0,64.482,79.8,29.953,29.953,0,0,0,76.027,60.076a30.313,30.313,0,0,0-3.179-18.8,31.028,31.028,0,0,0-3.9-5.7,3.064,3.064,0,0,1-.474-.693c-.13-.453.141-.749.42-1.03q2.434-2.45,4.884-4.883c.282-.28.577-.55,1.031-.431a10.544,10.544,0,0,1,2.776,3.017,38.372,38.372,0,0,1,7.738,19,39.51,39.51,0,0,1-3.588,22.263,40.3,40.3,0,0,1-9.092,12.262A39.887,39.887,0,0,1,56.81,93.956a30.315,30.315,0,0,1-7.485,1.05c-.164.006-.339-.045-.483.084" transform="translate(-6.223 -8.553)" fill="#ef7280"/>
        <path id="Trazado_197150" data-name="Trazado 197150" d="M36.2,95.388A15.437,15.437,0,0,0,33.17,94.9,39.465,39.465,0,0,1,1.055,64.794C-1.689,52.268.919,40.884,8.96,30.9A38.587,38.587,0,0,1,33.308,16.851a23.6,23.6,0,0,1,4.532-.4,18.8,18.8,0,0,1,3.456.01l.307.023c-1.327.215-2.66.394-3.978.65A38.718,38.718,0,0,0,19.91,25.56,39.325,39.325,0,0,0,6.336,48.571a34.475,34.475,0,0,0-.681,7.205A40.087,40.087,0,0,0,9.1,71.992,39.55,39.55,0,0,0,38.9,94.9a5.176,5.176,0,0,1,2.368.49H38.4a1.78,1.78,0,0,0-1.184,0Z" transform="translate(0 -8.852)" fill="#ea5569"/>
        <path id="Trazado_197151" data-name="Trazado 197151" d="M131.146,1.874c-1.59,1.886-3.448,3.51-5.151,5.285-.368.384-.75.755-1.125,1.132a.793.793,0,0,1-.967.291,1.078,1.078,0,0,0-1.092.248c-2.86,2.813-5.669,5.677-8.532,8.511.177.379.862.151.792.723l-2.011,2.088c-2.078,1.934-4.057,3.966-6.032,6a1.193,1.193,0,0,1-.357.823c-1.58,1.549-3.081,3.178-4.728,4.66-1.981,2.078-4,4.116-6.09,6.088-1.681,1.835-3.5,3.539-5.257,5.294-1.674,1.74-3.4,3.429-5.105,5.136a1.711,1.711,0,0,1-1.574.615,1.448,1.448,0,0,1-1.29-.935,1.969,1.969,0,0,1,.383-2.171c1.591-1.586,3.15-3.2,4.78-4.748a2.553,2.553,0,0,0,.352-.36c1.764-1.752,3.457-3.577,5.3-5.253,1.968-2.091,4.011-4.108,6.086-6.092,1.485-1.642,3.11-3.146,4.659-4.724a1.173,1.173,0,0,1,.823-.353c2.036-1.977,4.07-3.955,6-6.033.585-.566,1.159-1.143,1.759-1.693a1.1,1.1,0,0,0,.29-.923c0-2.164.017-4.329-.012-6.493a2.02,2.02,0,0,1,.7-1.626c1.875-1.74,3.719-3.512,5.586-5.261,1.05-.983,2.157-.643,2.5.759.24.98.48,1.961.686,2.948.119.571.292.559.67.176,1.718-1.74,3.452-3.465,5.184-5.192,1.135-1.131,1.869-1.068,2.773.23Z" transform="translate(-44.589 0)" fill="#908190"/>
        <path id="Trazado_197152" data-name="Trazado 197152" d="M81.014,188.186a1.07,1.07,0,0,1,1.183,0Z" transform="translate(-43.802 -101.651)" fill="#ec6375"/>
        <path id="Trazado_197153" data-name="Trazado 197153" d="M76.631,43.143l-5.316,5.285c-.5.209-.808-.16-1.115-.409A23.011,23.011,0,0,0,58.08,43.078a2.524,2.524,0,0,0-1.464-.31,39.4,39.4,0,0,0-6.183.77,23.164,23.164,0,0,0-10.562,5.714A22.315,22.315,0,0,0,33,61.94,23.144,23.144,0,0,0,53.347,89.033c1.449.168,2.951.528,4.423.008A23.038,23.038,0,0,0,78.422,70.4a22.741,22.741,0,0,0-4.544-18.669c-.273-.359-.722-.684-.513-1.256l5.285-5.317a29.557,29.557,0,0,1,7.516,14.776A30.976,30.976,0,0,1,69.3,93.956a29.238,29.238,0,0,1-11.089,2.989,19.818,19.818,0,0,1-7.1-1.176,31.293,31.293,0,0,1-9.126-5.028,31.855,31.855,0,0,1-8.227-9.727A29.9,29.9,0,0,1,30.1,68.992,31.423,31.423,0,0,1,53.466,35.624a15.956,15.956,0,0,1,5.415-.4A28.93,28.93,0,0,1,70.929,38.98a26.278,26.278,0,0,1,5.7,4.162" transform="translate(-16.213 -19.006)" fill="#f4f7f8"/>
        <path id="Trazado_197154" data-name="Trazado 197154" d="M52.658,35.016A29.062,29.062,0,0,0,35.942,41.5a30.914,30.914,0,0,0-11.69,26.957,28.858,28.858,0,0,0,2.679,10.226,30.833,30.833,0,0,0,6.99,9.733,30.288,30.288,0,0,0,14.337,7.65c1.237.271,2.482.484,3.734.671a16.393,16.393,0,0,1-4.37.106A31.092,31.092,0,0,1,18.8,70.205,31,31,0,0,1,43.111,35.434a29.744,29.744,0,0,1,8.974-.545,4.328,4.328,0,0,1,.572.127" transform="translate(-9.99 -18.798)" fill="#e7ecf1"/>
        <path id="Trazado_197155" data-name="Trazado 197155" d="M85.834,16.378l-3.456-.011a10.27,10.27,0,0,1,3.456.011" transform="translate(-44.54 -8.773)" fill="#ef7280"/>
        <path id="Trazado_197156" data-name="Trazado 197156" d="M151.518,27.605c-.508-.293-1.107.017-1.636-.231.028-.371.333-.52.537-.726,2.729-2.741,5.484-5.458,8.189-8.223.608-.621,1.172-.994,2.044-.645a2.216,2.216,0,0,0,.666.051,21.188,21.188,0,0,0,3.412.842c1.457.366,1.793,1.414.773,2.533-1.646,1.808-3.316,3.594-4.94,5.421a2.371,2.371,0,0,1-1.977.884c-2.022-.046-4.047-.015-6.07-.014a2.525,2.525,0,0,0-1,.108" transform="translate(-81.037 -9.541)" fill="#a69aa6"/>
        <path id="Trazado_197157" data-name="Trazado 197157" d="M82.133,59.354a23.5,23.5,0,0,1-12.818,38.57c-.9.194-1.827.278-2.741.413a22.741,22.741,0,0,1-4.273-.821C53.439,94.059,48.01,87.7,46.508,78.3a22.807,22.807,0,0,1,4.95-18.269,23.5,23.5,0,0,1,12.472-8.2,11.575,11.575,0,0,1,2.987-.269,22.7,22.7,0,0,1,11.866,4.671c.446.337.866.708,1.3,1.064-1.937,2.081-3.97,4.066-6.015,6.039-.468.115-.788-.166-1.139-.4a14.448,14.448,0,0,0-5.759-2.413,9.582,9.582,0,0,0-4.742-.12A14.564,14.564,0,0,0,49.871,74.9a14.275,14.275,0,0,0,6.651,12.3,13.118,13.118,0,0,0,7.38,2.335,9.288,9.288,0,0,1,1.934.112c.632.136,1.1-.4,1.691-.436a14.4,14.4,0,0,0,9.373-6.49,14.114,14.114,0,0,0,2.277-7.911,14.35,14.35,0,0,0-2.677-8.3c-.243-.348-.526-.671-.405-1.143,1.971-2.047,3.956-4.079,6.039-6.014" transform="translate(-24.98 -27.881)" fill="#ef7280"/>
        <path id="Trazado_197158" data-name="Trazado 197158" d="M86.118,75.435c4.392,4.856,4.649,12.939.541,18.448a14.312,14.312,0,0,1-9.012,5.773c-2.078.469-3.824-.444-5.449-1.488-5.178-3.329-7.847-8.114-7.41-14.278A14.826,14.826,0,0,1,73,71.342a6.922,6.922,0,0,1,4.305-1.11,13.742,13.742,0,0,1,6.79,3.178l-5.335,5.323c-.812.287-1.305-.4-1.948-.636a9.474,9.474,0,0,0-4.655.164,7.123,7.123,0,0,0,.357,13.566,9.381,9.381,0,0,0,4.162.086c.174-.027.285-.17.413-.279a7.157,7.157,0,0,0,3.875-9.756c-.151-.354-.411-.692-.169-1.107l5.326-5.337" transform="translate(-35.004 -37.948)" fill="#f4f7f8"/>
        <path id="Trazado_197159" data-name="Trazado 197159" d="M89.669,89.807a7.545,7.545,0,0,1-3.529,11.214,3.651,3.651,0,0,1-2.845-1.564,7.967,7.967,0,0,1,.465-11.313A5.743,5.743,0,0,1,85.824,86.9a8.166,8.166,0,0,1,1.81.87q-2.551,2.584-5.1,5.165a1.4,1.4,0,0,0-.393,1.61,1.335,1.335,0,0,0,1.16.857,1.547,1.547,0,0,0,1.324-.611Q86.8,92.6,88.983,90.429c.219-.218.457-.415.686-.622" transform="translate(-43.882 -46.983)" fill="#ef7281"/>
        <path id="Trazado_197160" data-name="Trazado 197160" d="M60.753,51.349a43.312,43.312,0,0,0-4.558,1.184c-8.545,3.309-13.854,9.4-15.357,18.452-1.419,8.551,1.44,15.76,7.833,21.522a22.473,22.473,0,0,0,10.89,5.28,1.545,1.545,0,0,1,.849.331,23.52,23.52,0,0,1-8.9-45.941,24.763,24.763,0,0,1,8.162-.987,10.628,10.628,0,0,1,1.082.158" transform="translate(-18.816 -27.663)" fill="#ea5569"/>
        <path id="Trazado_197161" data-name="Trazado 197161" d="M71.048,69.867A15.067,15.067,0,0,0,59.021,82.6a14.727,14.727,0,0,0,5.457,13.692,11.391,11.391,0,0,0,6.917,3,14.033,14.033,0,0,1-9.522-1.036,15.067,15.067,0,0,1,3.914-28.51,11.97,11.97,0,0,1,5.262.123" transform="translate(-28.752 -37.584)" fill="#e7ecf1"/>
        <path id="Trazado_197162" data-name="Trazado 197162" d="M79.594,86.4c.092.542-.429.545-.689.7A7.568,7.568,0,0,0,76.5,97.6a8.587,8.587,0,0,0,3.407,2.929A7.524,7.524,0,1,1,79.594,86.4" transform="translate(-37.652 -46.488)" fill="#ea5569"/>
      </g>
    </g>
  </g>
</svg>
