<svg xmlns="http://www.w3.org/2000/svg" xmlns:xlink="http://www.w3.org/1999/xlink" width="77" height="77" viewBox="0 0 77 77">
  <defs>
    <clipPath id="clip-path">
      <rect id="Rectángulo_46505" data-name="Rectángulo 46505" width="42.622" height="42.623" fill="#7f4fc7"/>
    </clipPath>
  </defs>
  <g id="Grupo_155230" data-name="Grupo 155230" transform="translate(-827.961 -3235)">
    <circle id="Elipse_5822" data-name="Elipse 5822" cx="38.5" cy="38.5" r="38.5" transform="translate(827.961 3235)" fill="#fff"/>
    <g id="Grupo_154979" data-name="Grupo 154979" transform="translate(845.257 3252.188)">
      <g id="Grupo_154978" data-name="Grupo 154978" clip-path="url(#clip-path)">
        <path id="Trazado_197014" data-name="Trazado 197014" d="M.717,7.148c-.611-.236-.709-.374-.71-.991,0-.814,0-1.628,0-2.442,0-.612.254-.87.859-.87q14.049,0,28.1,0c.612,0,.866.254.87.86.005.814,0,1.628,0,2.442,0,.63-.095.764-.689.991v10.7c.5-.334.957-.623,1.392-.944a.573.573,0,0,0,.163-.382q.376-4.622.736-9.245Q31.7,4,31.967.724A.7.7,0,0,1,32.71.008q1.731-.017,3.462,0c.49,0,.738.27.768.784q.317,5.294.633,10.589c.014.235.041.469.069.788.324-.213.6-.39.873-.575a.784.784,0,0,1,.866-.141.809.809,0,0,1,.4.822q-.006,7.991-.009,15.982a.978.978,0,0,0,.333.811c.406.365.785.763,1.164,1.158a.712.712,0,0,1,.005,1.127c-.13.141-.265.279-.408.408-.184.166-.306.306-.174.6a.484.484,0,0,0,.534.327c1.341,0,1.394.057,1.394,1.4,0,.681.006,1.362,0,2.042-.007.55-.27.8-.825.816a4.871,4.871,0,0,1-.532,0,.488.488,0,0,0-.574.332c-.137.3.021.429.188.6.908.9.908,1.018.013,1.914-.481.482-.96.966-1.445,1.443a.739.739,0,0,1-1.222.011,4.617,4.617,0,0,1-.375-.378.447.447,0,0,0-.6-.154c-.288.117-.311.289-.31.544,0,1.31-.07,1.377-1.372,1.377H1.116c-.935,0-1.11-.175-1.11-1.111q0-10.3-.006-20.6a1.062,1.062,0,0,1,.516-1.044.524.524,0,0,0,.193-.391c.01-4.1.008-8.2.008-12.329M13.5,41.18v-.513q0-2.819,0-5.637c0-.7.236-.931.933-.931q5.459,0,10.918,0c.7,0,.931.236.932.932q0,2.841,0,5.682v.458h3.891c-.528-.508-.979-.93-1.418-1.364-.934-.926-.933-1.023-.014-1.943.168-.169.317-.294.184-.6a.489.489,0,0,0-.575-.331,4.876,4.876,0,0,1-.621,0A.7.7,0,0,1,27,36.21q-.021-1.4,0-2.8a.694.694,0,0,1,.724-.732c.28-.014.562,0,.843-.007.208-.008.493-.462.421-.655a1.777,1.777,0,0,0-1.154-.763H1.449V41.18ZM1.463,21.992H38.32V13.444c-.17.109-.294.187-.416.268q-5.517,3.675-11.033,7.352a.819.819,0,0,1-.9.164.846.846,0,0,1-.4-.871c.005-2.13,0-4.261,0-6.391V13.43c-.2.122-.332.2-.463.288q-5.5,3.663-11,7.328c-.291.194-.579.374-.94.177a.857.857,0,0,1-.387-.876q.008-3.2,0-6.391V13.43c-.166.1-.267.156-.362.219C9,15.936,5.578,18.242,2.124,20.494a1.249,1.249,0,0,0-.686,1.43.566.566,0,0,0,.025.068M5.69,16.433l-.017-.093H5.287c-.816,0-1.019-.207-1.019-1.023q0-3.307,0-6.613c0-.637.25-.886.886-.887q1.953-.005,3.905,0c.637,0,.887.25.888.885,0,1.479,0,2.959,0,4.438,0,.124.013.248.024.432.644-.428,1.243-.8,1.812-1.221a.767.767,0,0,0,.281-.523c.026-1.035.011-2.071.014-3.106,0-.665.244-.9.912-.906q1.908,0,3.816,0c.723,0,.951.23.952.956q0,3.307,0,6.613c0,.725-.229.952-.955.954-.853,0-1.706,0-2.566,0v2.885c.088-.045.141-.065.187-.1,1.747-1.164,3.5-2.322,5.233-3.5a.7.7,0,0,0,.222-.508c.015-2.145.008-4.29.011-6.435,0-.609.256-.863.864-.865q2-.006,3.994,0a.723.723,0,0,1,.821.818c.008.621,0,1.243,0,1.864v1.151c1-.508,1.42-.248,1.42.8q0,3.151,0,6.3v.462a.944.944,0,0,0,.724-1.061c-.027-3.506-.014-7.012-.014-10.519V7.142H2.175V18.775L5.69,16.433M34.1,41.176h1.421c0-.244,0-.463,0-.681,0-.56.137-.721.655-.907a9.213,9.213,0,0,0,1.1-.468.747.747,0,0,1,1,.162c.167.186.311.393.455.579l1.109-1.083c-.176-.158-.346-.3-.5-.455a.765.765,0,0,1-.183-1.1,10.428,10.428,0,0,0,.45-1.105.771.771,0,0,1,.821-.6c.247.006.495,0,.752,0V34.1c-.248,0-.468,0-.687,0-.548-.006-.715-.143-.9-.664a7.669,7.669,0,0,0-.448-1.058.756.756,0,0,1,.152-1.035c.188-.165.4-.3.551-.415l-1.1-1.147c-.141.172-.269.356-.424.512-.4.4-.6.416-1.1.173a9.814,9.814,0,0,0-1.019-.428c-.53-.187-.666-.35-.673-.894,0-.232,0-.463,0-.693H34.1c0,.238,0,.444,0,.65,0,.586-.132.744-.675.937a7.862,7.862,0,0,0-1.057.451.753.753,0,0,1-1.032-.167,6.667,6.667,0,0,1-.409-.578l-1.179,1.1c.187.155.367.284.523.438.425.42.44.613.19,1.138a11.522,11.522,0,0,0-.448,1.106.762.762,0,0,1-.793.576c-.26,0-.52,0-.779,0v1.421c.238,0,.456,0,.674,0,.581,0,.731.13.928.687a8.182,8.182,0,0,0,.453,1.056.764.764,0,0,1-.146,1c-.186.18-.364.368-.508.513l1,1.066c.155-.176.292-.35.447-.505.415-.416.609-.431,1.139-.176a9.049,9.049,0,0,0,1.064.433.772.772,0,0,1,.607.814c-.005.248,0,.5,0,.764m-5.7-36.882H1.462v1.37H28.394ZM1.443,26.995H35.782c.148,0,.3-.007.444,0a.7.7,0,0,1,.708.705c.016.265-.019.535.015.8a.538.538,0,0,0,.222.356c.36.2,1.149-.271,1.178-.735.038-.6.009-1.2.009-1.813H1.443Zm19.839,8.559H18.5v5.627h2.787ZM5.718,9.257v5.662c.722,0,1.415.015,2.107-.006a.735.735,0,0,0,.7-.775q0-1.219,0-2.438V9.257Zm26.475,6.464a.763.763,0,0,0,.189-.041q1.846-1.226,3.686-2.461a.392.392,0,0,0,.165-.277c-.027-.749-.075-1.5-.117-2.252H32.59c-.133,1.688-.264,3.345-.4,5.03M16.306,14.9V9.237H13.52c0,.725,0,1.4,0,2.076.633.29.692.384.692,1.113V14.9Zm5.029-.379c.549-.365,1.049-.7,1.546-1.029.417-.28.989-.479,1.2-.871a3.526,3.526,0,0,0,.072-1.481c0-.251,0-.5,0-.754V9.26H21.335Zm3.5,21.017H22.759v5.642h2.074ZM14.9,23.474H6.434v1.368H14.9Zm18.466,0H24.9v1.369h8.466ZM14.953,41.165h2.076V35.539H14.953Zm-.069-12.72H6.434v1.383h8.45ZM36.027,9.217c-.073-1.2-.144-2.353-.214-3.507H32.989c-.092,1.175-.183,2.329-.275,3.507ZM16.371,24.832h7.052V23.465H16.371Zm-.008,4.974h7.046V28.438H16.363ZM35.726,4.251c-.058-.965-.112-1.885-.166-2.8h-2.23c-.074.946-.145,1.863-.217,2.8ZM24.886,29.834c1.257,0,2.492,0,3.728,0a.307.307,0,0,0,.194-.08c.427-.415.848-.835,1.32-1.3H24.886Zm9.943-4.995h3.5V23.476h-3.5ZM4.953,28.444H1.461v1.371H4.953ZM1.458,24.83h3.5V23.463h-3.5Zm30.091,3.6c.256.177.275.733.76.5.208-.1.478-.144.327-.5Zm1.088,12.754c.159-.422-.212-.523-.406-.5a2.361,2.361,0,0,0-.75.38l.066.122Z" transform="translate(0 0.001)" fill="#7f4fc7"/>
        <path id="Trazado_197015" data-name="Trazado 197015" d="M102.381,98.5c-.389-.414-1.084-.286-1.221-.952-1.278.329-1.793,1.527-1.275,3.1l-1.168.674a3.554,3.554,0,0,1,2.575-5.307l-.132-.408,1.243-.623c.257.525.517,1.016.733,1.526a.719.719,0,0,1-.032.507c-.205.471-.447.927-.722,1.485" transform="translate(-66.959 -64.755)" fill="#7f4fc7"/>
        <path id="Trazado_197016" data-name="Trazado 197016" d="M108.233,104.5l1.2-.7a3.436,3.436,0,0,1,.106,3.348,3.529,3.529,0,0,1-2.656,1.949c-.025.04-.041.055-.038.063.038.11.079.22.131.364l-1.247.627c-.257-.525-.512-1-.724-1.5a.714.714,0,0,1,.011-.507c.209-.484.457-.951.718-1.481.418.324,1.011.32,1.294.894,1.154-.178,1.772-1.573,1.2-3.06" transform="translate(-71.557 -70.765)" fill="#7f4fc7"/>
      </g>
    </g>
  </g>
</svg>
