<svg xmlns="http://www.w3.org/2000/svg" xmlns:xlink="http://www.w3.org/1999/xlink" width="108" height="108" viewBox="0 0 108 108">
  <defs>
    <clipPath id="clip-path">
      <rect id="Rectángulo_46407" data-name="Rectángulo 46407" width="65.671" height="70.366" fill="#fff"/>
    </clipPath>
  </defs>
  <g id="Grupo_155230" data-name="Grupo 155230" transform="translate(12176.5 9085.975)">
    <circle id="Elipse_5716" data-name="Elipse 5716" cx="54" cy="54" r="54" transform="translate(-12176.5 -9085.975)" fill="#baa1e1"/>
    <g id="Grupo_154825" data-name="Grupo 154825" transform="translate(-12153.979 -9068.776)">
      <g id="Grupo_154824" data-name="Grupo 154824" clip-path="url(#clip-path)">
        <path id="Trazado_196732" data-name="Trazado 196732" d="M34.442,29.933l5.4,2.5c.613-1.173,1.207-2.316,1.808-3.456.528-1,1.016-1.172,2.013-.681q10.534,5.19,21.062,10.391c1,.5,1.177,1.008.68,2-2.374,4.759-4.714,9.536-7.144,14.267a13.133,13.133,0,0,1-10.781,7.323c-.145.017-.291.031-.436.049-.02,0-.037.025-.126.087v.666c0,1.955.005,3.909,0,5.863,0,1-.425,1.423-1.432,1.423q-20.26,0-40.52,0c-1,0-1.422-.424-1.425-1.43-.007-2.59.013-5.179-.02-7.769a1.877,1.877,0,0,0-.4-1.094,12.813,12.813,0,0,1-3.1-8.263c-.026-2.418-.035-4.837,0-7.255A11.6,11.6,0,0,1,7.106,33.516c2.266-1.082,4.559-2.11,6.838-3.163.284-.131.564-.27.893-.428-.167-.295-.31-.541-.448-.791a11.867,11.867,0,0,1-1.476-5.824q.008-7.952,0-15.9a4.715,4.715,0,0,1,4.867-5.073,1.059,1.059,0,0,0,.7-.374A4.678,4.678,0,0,1,22.387.01a52.886,52.886,0,0,1,6.069.155,9.183,9.183,0,0,1,7.887,8.86c.064,4.958.028,9.918,0,14.877-.009,1.937-.549,3.537-1.9,6.031M16.03,31.974c-2.779,1.283-5.548,2.493-8.255,3.828A9.16,9.16,0,0,0,2.37,44.42c-.041,2.368-.012,4.738-.007,7.107A10.458,10.458,0,0,0,12.989,62.156c2.857.007,5.714,0,8.571,0,.234,0,.467-.021.7-.032v-5.83h-.82c-2.369,0-4.738.028-7.105-.027a1.623,1.623,0,0,1-1.221-.579C11.87,53.371,10.721,51,9.521,48.611l2.1-1.038c.985,1.964,1.95,3.849,2.872,5.756a.93.93,0,0,0,.985.633c2.344-.032,4.688,0,7.032-.029a2.021,2.021,0,0,0,1.063-.345q2.8-1.941,5.546-3.951c1.127-.826,2.242-1.613,3.756-1.061a2.111,2.111,0,0,0,.093-.353A13.789,13.789,0,0,1,34.693,42.3c1.248-2.347,2.464-4.712,3.692-7.07.119-.229.219-.467.345-.738l-5.475-2.518c-.195.269-.339.463-.479.662q-3.465,4.949-6.93,9.9c-.807,1.151-1.6,1.156-2.4.019q-2.5-3.567-5-7.139c-.8-1.137-1.6-2.271-2.42-3.445m20.827,22.65c1.2-.715,2.274-1.439,3.425-2.014a4.2,4.2,0,0,1,2.009-.468,2.735,2.735,0,0,1,2.495,1.962,2.907,2.907,0,0,1-.67,3.12c-.6.652-1.242,1.264-1.9,1.93.239.1.372.158.51.206a10.991,10.991,0,0,0,13.43-5.431c1.643-3.186,3.218-6.408,4.822-9.614.642-1.283,1.279-2.569,1.948-3.913L43.45,30.8c-.086.06-.142.078-.161.115-2.363,4.544-4.831,9.039-7.047,13.654-1.6,3.34-1.222,6.732.615,10.059m-21.6-36.3c0,.879-.026,1.759.006,2.637a26.965,26.965,0,0,0,.254,4.517,9.356,9.356,0,0,0,18.5-2.05c.014-2.76.005-5.519,0-8.279a7.872,7.872,0,0,0-.1-2.895c-.367-.857-1.328-1.459-2.03-2.172-.034-.035-.069-.069-.1-.1A1.658,1.658,0,0,0,29.2,10c-.579.56-1.131,1.149-1.714,1.7a3.984,3.984,0,0,1-5.719-.018c-.581-.558-1.135-1.144-1.715-1.7A1.65,1.65,0,0,0,17.484,10c-.631.611-1.269,1.22-1.854,1.874a1.478,1.478,0,0,0-.355.884c-.032,1.855-.016,3.712-.016,5.568M5.905,67.974H44.533V62.322c-1.145-.355-2.259-.628-3.311-1.053a1.076,1.076,0,0,0-1.429.266,9.367,9.367,0,0,1-7.142,2.973c-6.492-.02-12.985.015-19.477-.026a14.915,14.915,0,0,1-3.611-.448,33.478,33.478,0,0,1-3.658-1.389ZM24.64,62.128c.206.014.3.027.4.027,2.71,0,5.42.025,8.129-.013a6.653,6.653,0,0,0,4.675-1.965c1.485-1.449,2.937-2.932,4.409-4.395.324-.322.547-.66.206-1.081s-.716-.274-1.1-.037c-1.124.686-2.257,1.357-3.386,2.036a5.108,5.108,0,0,1-2.781.768c-.683-.013-1.367,0-2.051,0-1.137-.011-1.6-.581-1.38-1.682.255-1.267.546-2.528.743-3.8a1.349,1.349,0,0,0-.309-1.071c-.168-.147-.745-.013-1.016.174-2.067,1.43-4.107,2.9-6.143,4.371a.875.875,0,0,0-.373.557c-.027,2.021-.017,4.043-.017,6.118M33.927,8.59a6.7,6.7,0,0,0-5.593-6.059,44.016,44.016,0,0,0-6.357-.14,2.232,2.232,0,0,0-2.021,2.24c-.024.707-.017,1.417,0,2.125,0,.174.065.457.174.5,1.362.532,2.166,1.72,3.176,2.66a1.7,1.7,0,0,0,2.685-.03c.576-.564,1.126-1.155,1.717-1.7a3.74,3.74,0,0,1,4.057-.905A13.182,13.182,0,0,1,33.927,8.59M28.472,34.7a13.323,13.323,0,0,1-7.793-.179l3.962,5.654L28.472,34.7M15.326,8.636C16,8.2,16.71,7.752,17.4,7.28a.591.591,0,0,0,.2-.419c.02-.7.009-1.407.009-2.111-1.827,0-2.663,1.5-2.278,3.887" transform="translate(0 0)" fill="#fff"/>
        <path id="Trazado_196733" data-name="Trazado 196733" d="M114.016,125.961l1.964-1.2a7.577,7.577,0,0,0,8.153,4.179c.148.721.3,1.445.443,2.164-3.6,1.244-8.429-1.106-10.56-5.147" transform="translate(-72.763 -79.623)" fill="#fff"/>
        <path id="Trazado_196734" data-name="Trazado 196734" d="M124.115,110.571l-2.328-1.166,1.026-2.1,2.344,1.174-1.042,2.093" transform="translate(-77.722 -68.479)" fill="#fff"/>
        <path id="Trazado_196735" data-name="Trazado 196735" d="M146.781,120.305l-2.343-1.173,1.049-2.091,2.332,1.167-1.037,2.1" transform="translate(-92.178 -74.694)" fill="#fff"/>
        <path id="Trazado_196736" data-name="Trazado 196736" d="M66.375,61.719c0,.758,0,1.442,0,2.125a3.522,3.522,0,0,1-3.68,3.692c-.311,0-.622,0-.971,0V65.191c.322,0,.652.008.981,0a1.2,1.2,0,0,0,1.324-1.313c.011-.366,0-.732,0-1.1,0-.338,0-.676,0-1.059Z" transform="translate(-39.391 -39.388)" fill="#fff"/>
        <rect id="Rectángulo_46405" data-name="Rectángulo 46405" width="4.598" height="2.256" transform="translate(17.637 15.287)" fill="#fff"/>
        <rect id="Rectángulo_46406" data-name="Rectángulo 46406" width="4.623" height="2.242" transform="translate(27.024 15.307)" fill="#fff"/>
        <path id="Trazado_196737" data-name="Trazado 196737" d="M54.244,53.021a1.167,1.167,0,1,1-1.2-1.138,1.182,1.182,0,0,1,1.2,1.138" transform="translate(-33.129 -33.111)" fill="#fff"/>
        <path id="Trazado_196738" data-name="Trazado 196738" d="M78.994,54.218a1.167,1.167,0,1,1,1.174-1.16,1.178,1.178,0,0,1-1.174,1.16" transform="translate(-49.674 -33.111)" fill="#fff"/>
      </g>
    </g>
  </g>
</svg>
