<svg xmlns="http://www.w3.org/2000/svg" xmlns:xlink="http://www.w3.org/1999/xlink" width="77" height="77" viewBox="0 0 77 77">
  <defs>
    <clipPath id="clip-path">
      <rect id="Rectángulo_46506" data-name="Rectángulo 46506" width="58.497" height="44.811" fill="#7f4fc7"/>
    </clipPath>
  </defs>
  <g id="Grupo_155231" data-name="Grupo 155231" transform="translate(-1073.961 -3235)">
    <circle id="Elipse_5823" data-name="Elipse 5823" cx="38.5" cy="38.5" r="38.5" transform="translate(1073.961 3235)" fill="#fff"/>
    <g id="Grupo_154981" data-name="Grupo 154981" transform="translate(1082.986 3250)">
      <g id="Grupo_154980" data-name="Grupo 154980" clip-path="url(#clip-path)">
        <path id="Trazado_197017" data-name="Trazado 197017" d="M0,69.724c.082-.268.154-.539.246-.8a5.132,5.132,0,0,1,4.028-3.7c.9-.175,1.793-.346,2.674-.576a1.7,1.7,0,0,0,.746-.511,8.567,8.567,0,0,0,.611-.893,1.365,1.365,0,0,1,2.039-.364c1.293.938,2.57,1.9,3.843,2.864A.913.913,0,1,1,13.1,67.2c-1.151-.842-2.288-1.7-3.427-2.552-.636.589-.64.62-.166,1.305.411.594.831,1.183,1.232,1.784a.915.915,0,1,1-1.49,1.041c-.478-.663-.947-1.334-1.4-2.017a.549.549,0,0,0-.694-.285c-.81.2-1.634.351-2.453.516A3.489,3.489,0,0,0,1.833,70.36c-.013.323.018.649-.01.97-.043.5.192.685.667.682,1.218-.009,2.436,0,3.654,0,.733,0,1.147.319,1.163.885.017.584-.419.938-1.17.941-1.123,0-2.247-.03-3.368.009A2.557,2.557,0,0,1,0,72.124v-2.4" transform="translate(0 -35.425)" fill="#7f4fc7"/>
        <path id="Trazado_197018" data-name="Trazado 197018" d="M39.972,73.06l5.5-4.728c.289-.248.573-.5.866-.744a1.618,1.618,0,0,1,2.55.369,3.848,3.848,0,0,1,.4.62,2.9,2.9,0,0,0,2.586,1.781c1.109.133,2.2.435,3.294.669a7.227,7.227,0,0,1,5.7,6.159,19.04,19.04,0,0,1,.1,3.018,2.837,2.837,0,0,1-2.781,2.6c-.152.009-.3.006-.457.006q-17.756,0-35.512,0a3.416,3.416,0,0,1-2.236-.7A2.37,2.37,0,0,1,19,80.427a10.541,10.541,0,0,1,.548-5,7.16,7.16,0,0,1,5.667-4.507c1.348-.231,2.685-.528,4.017-.84a1.468,1.468,0,0,0,.743-.516c.385-.493.7-1.041,1.05-1.561a1.618,1.618,0,0,1,2.622-.376q2.843,2.428,5.671,4.874c.2.173.4.344.654.558m2.815,7.894c.2.01.328.023.459.023h14.56a2.836,2.836,0,0,0,.285-.007,1.052,1.052,0,0,0,1.061-1.159c.005-.533.012-1.066,0-1.6a5.591,5.591,0,0,0-4.5-5.442c-1.358-.282-2.723-.534-4.073-.85a.682.682,0,0,0-.839.329q-2.364,3.292-4.762,6.557a.937.937,0,0,1-1.619.131c-.3-.3-.551-.659-.823-.99l-.286.169q.269,1.418.539,2.836m-5.241-3.035c-.341.367-.59.652-.857.918-.713.714-1.215.674-1.809-.141q-2.369-3.252-4.73-6.51a.577.577,0,0,0-.7-.284c-1.39.317-2.787.6-4.185.876a5.1,5.1,0,0,0-4.129,3.733,12.313,12.313,0,0,0-.34,2.98c-.054,1.166.3,1.486,1.469,1.486q7.137,0,14.274,0c.1,0,.209.033.282-.007.141-.079.343-.18.373-.306.177-.738.318-1.486.455-2.234a1.883,1.883,0,0,0-.1-.511m1.038-3.636-6.066-5.222L31.381,70.78l4.5,6.186,2.7-2.682m8.837-5.219L41.4,74.247l2.681,2.691,4.478-6.159L47.42,69.064m-6.5,11.888c-.129-.633-.245-1.2-.366-1.8a8.5,8.5,0,0,0-.894.01c-.12.013-.306.115-.329.209-.125.509-.209,1.029-.313,1.58Zm-.961-5.408c-.338.509-1.062.685-.882,1.445.089.376.4.373.683.33.375-.057.908.253,1.08-.326.221-.746-.515-.947-.882-1.449" transform="translate(-10.721 -37.999)" fill="#7f4fc7"/>
        <path id="Trazado_197019" data-name="Trazado 197019" d="M63.428,7.18a62.047,62.047,0,0,1-.937,7.663,19.441,19.441,0,0,0-.162,3.407,14.192,14.192,0,0,1-1.5,6.325,12.413,12.413,0,0,1-4.243,4.914A9.3,9.3,0,0,1,44.69,28.336,12.9,12.9,0,0,1,40.452,19.2a65.389,65.389,0,0,0-.912-6.532,38.339,38.339,0,0,1-.5-5.5A5.616,5.616,0,0,1,43.428,1.6,16.356,16.356,0,0,0,46.421.639,10.5,10.5,0,0,1,52.212.2c2.122.328,4.226.781,6.349,1.1a16.79,16.79,0,0,0,2.9.106c.92-.023,1.289.146,1.425,1.075.229,1.558.369,3.13.546,4.7m-15.7,3.383c-.7.046-1.879.111-3.053.215a.735.735,0,0,0-.515.324A14.429,14.429,0,0,0,42.2,18.5a12.109,12.109,0,0,0,3.777,8.535,7.528,7.528,0,0,0,10.488.252,11.764,11.764,0,0,0,4.023-8.472,9.4,9.4,0,0,0-.969-5.573,1.6,1.6,0,0,0-.818-.783,29.717,29.717,0,0,0-10.968-1.9M61,12.114c.071-.111.121-.155.127-.2a31.964,31.964,0,0,0,.146-8.194c-.037-.3-.163-.391-.476-.41-1.042-.063-2.089-.122-3.12-.281-2.216-.341-4.414-.8-6.635-1.1a7.4,7.4,0,0,0-4.959.889,2.815,2.815,0,0,1-1.258.4,3.8,3.8,0,0,0-3.839,3.251,20.4,20.4,0,0,0,.036,3.911,22.791,22.791,0,0,0,.35,2.271c.531-1.083.989-2.02,1.448-2.956A1.1,1.1,0,0,1,43.8,9.02c1.082-.074,2.159-.219,3.242-.254A29.719,29.719,0,0,1,59.6,10.857c.6.249,1.206.486,1.4,1.257" transform="translate(-22.103 0)" fill="#7f4fc7"/>
        <path id="Trazado_197020" data-name="Trazado 197020" d="M101.227,23.2c.11-1.921.215-3.741.322-5.607-1.079-.163-2.1-.335-3.132-.468-1.376-.177-2.755-.331-4.134-.481a.94.94,0,0,1-.952-.932.886.886,0,0,1,1.035-.885c1.438.131,2.871.323,4.306.486,1.245.142,2.49.29,3.738.412a.933.933,0,0,1,.962,1.03,72.368,72.368,0,0,1-.87,10.4c-.142.838-.026,1.718-.159,2.558-.511,3.226-2.111,5.656-5.32,6.725a6.377,6.377,0,0,1-5.993-1.068.9.9,0,0,1-.277-1.3A.845.845,0,0,1,92,33.848c2.908,2.342,7.186.8,8.344-3.462a8.555,8.555,0,0,0-.265-5.326,1.381,1.381,0,0,0-.6-.681,13.58,13.58,0,0,0-5.155-1.334c-.774-.071-1.2-.658-.917-1.277a.951.951,0,0,1,1.083-.546A15.438,15.438,0,0,1,100.813,23c.1.054.2.1.414.2" transform="translate(-51.284 -8.391)" fill="#7f4fc7"/>
        <path id="Trazado_197021" data-name="Trazado 197021" d="M16.847,23.891c.149-.7.65-.848,1.243-.9a23.552,23.552,0,0,1,5.97.327.9.9,0,0,1,.762,1.038.943.943,0,0,1-1.1.76c-1.116-.115-2.231-.328-3.347-.332-2.42-.009-1.8-.438-2.453,1.819a8.69,8.69,0,0,0,.2,5.877A5.507,5.507,0,0,0,23.2,36.094a5.188,5.188,0,0,0,2.771-.938,1.256,1.256,0,0,1,.879-.247,1.228,1.228,0,0,1,.682.664c.17.414-.092.753-.44,1.016a6.662,6.662,0,0,1-7.893.086A8.033,8.033,0,0,1,15.758,30.2c-.067-1.709-.469-3.346-.694-5.018a10.575,10.575,0,0,1-.057-4.25,3.709,3.709,0,0,1,3.3-3.086,1.123,1.123,0,0,0,.423-.146,6.863,6.863,0,0,1,4.143-.759c.685.057,1.064.436,1.038.974-.028.567-.461.89-1.185.84a5.078,5.078,0,0,0-3.487.783.984.984,0,0,1-.487.119,1.794,1.794,0,0,0-1.895,1.492,21.07,21.07,0,0,0-.26,2.684l.246.056" transform="translate(-8.382 -9.571)" fill="#7f4fc7"/>
        <path id="Trazado_197022" data-name="Trazado 197022" d="M106.084,64.627q-1.7,1.266-3.384,2.526a.95.95,0,0,1-1.111.154.877.877,0,0,1-.137-1.485q2.008-1.555,4.075-3.032a1.32,1.32,0,0,1,1.8.3.735.735,0,0,1,.134.184,2.646,2.646,0,0,0,2.486,1.633,12.717,12.717,0,0,1,1.564.317,5.339,5.339,0,0,1,4.225,5.14c.01.38.006.761,0,1.142a2.205,2.205,0,0,1-2.178,2.311c-1.388.046-2.779.024-4.168.009a.91.91,0,1,1,.012-1.816c1.237-.013,2.474,0,3.712-.006.726,0,.807-.072.79-.774a7.458,7.458,0,0,0-.121-1.585A3.291,3.291,0,0,0,111.108,67c-.856-.177-1.709-.372-2.571-.513a.732.732,0,0,0-.587.224c-.486.633-.921,1.305-1.381,1.958-.426.6-.92.751-1.394.429s-.528-.848-.119-1.449c.385-.566.743-1.157,1.18-1.68.417-.5.4-.892-.151-1.337" transform="translate(-57.24 -35.416)" fill="#7f4fc7"/>
      </g>
    </g>
  </g>
</svg>
