<svg xmlns="http://www.w3.org/2000/svg" xmlns:xlink="http://www.w3.org/1999/xlink" width="136.037" height="129" viewBox="0 0 136.037 129">
  <defs>
    <clipPath id="clip-path">
      <rect id="Rectángulo_46457" data-name="Rectángulo 46457" width="127.484" height="129" fill="#2194e5"/>
    </clipPath>
  </defs>
  <g id="Grupo_154810" data-name="Grupo 154810" transform="translate(-228.033 -789.631)">
    <g id="Grupo_152595" data-name="Grupo 152595" transform="translate(266.118 879.984) rotate(180)">
      <rect id="Rectángulo_45221" data-name="Rectángulo 45221" width="7.254" height="7.254" transform="translate(30.83 30.831)" fill="#7f4fc7"/>
      <rect id="Rectángulo_45222" data-name="Rectángulo 45222" width="7.254" height="7.254" transform="translate(15.415 30.831)" fill="#7f4fc7"/>
      <rect id="Rectángulo_45223" data-name="Rectángulo 45223" width="7.254" height="7.254" transform="translate(0 30.831)" fill="#7f4fc7"/>
      <rect id="Rectángulo_45232" data-name="Rectángulo 45232" width="7.254" height="7.254" transform="translate(30.83 15.415)" fill="#7f4fc7"/>
      <rect id="Rectángulo_45233" data-name="Rectángulo 45233" width="7.254" height="7.254" transform="translate(15.415 15.415)" fill="#7f4fc7"/>
      <rect id="Rectángulo_45234" data-name="Rectángulo 45234" width="7.254" height="7.254" transform="translate(0 15.415)" fill="#7f4fc7"/>
      <rect id="Rectángulo_45243" data-name="Rectángulo 45243" width="7.254" height="7.254" transform="translate(30.83)" fill="#7f4fc7"/>
      <rect id="Rectángulo_45244" data-name="Rectángulo 45244" width="7.254" height="7.254" transform="translate(15.415)" fill="#7f4fc7"/>
      <rect id="Rectángulo_45245" data-name="Rectángulo 45245" width="7.254" height="7.254" transform="translate(0)" fill="#7f4fc7"/>
    </g>
    <g id="Grupo_154905" data-name="Grupo 154905" transform="translate(236.586 789.631)">
      <g id="Grupo_154905-2" data-name="Grupo 154905" transform="translate(0 0)" clip-path="url(#clip-path)">
        <path id="Trazado_196867" data-name="Trazado 196867" d="M26.754,129c-3.126-1.471-3.821-2.727-3.272-6.281.871-5.635,1.7-11.279,2.738-16.885,1.674-9.054,8.753-14.875,18.012-14.972,2.938-.031,5.876-.006,8.814-.006h1.466c0-1.491.032-2.83-.029-4.165a.981.981,0,0,0-.607-.713c-8.292-1.344-13.136-6.307-15.167-14.361-1.184-.084-2.443-.09-3.675-.277a9.4,9.4,0,0,1-8.019-9.125,20.876,20.876,0,0,1,.4-5.61,13.15,13.15,0,0,1,2.423-4.173,1.933,1.933,0,0,0,.424-1.759c-.681-3.788-1.362-7.58-1.9-11.391a34.375,34.375,0,0,1-.034-4.641,3.942,3.942,0,0,0-3.034.1c-6.873,2.737-13.345,1.869-18.949-2.959A17.044,17.044,0,0,1,.679,13.59C2.557,6.382,7.444,1.935,14.737.385A18.005,18.005,0,0,1,35.761,13.829c.082.313.165.626.228.862,2.266-1.01,4.451-2.043,6.683-2.958,1.427-.583,2.625.04,2.808,1.338.172,1.22-.571,1.767-1.579,2.243-2.227,1.053-4.41,2.2-6.6,3.338-.8.414-.982,1.176-1.266,2.01-.908,2.652-.067,4.993.883,7.376.465,1.166.884,2.355,1.269,3.55a2.971,2.971,0,0,1-3.427,4.055l-2.32-.352c-.742,3.334.115,11.028,1.572,14.5l4.56-.269c0-2.094-.028-4.175.011-6.255a31.321,31.321,0,0,1,.255-3.5,6.549,6.549,0,0,1,.582-1.784c1.41-3.118,3.614-4.033,6.847-2.928a45.32,45.32,0,0,0,27.353.966,35.514,35.514,0,0,0,5.821-2.33,4.9,4.9,0,0,1,5.331.34,9.23,9.23,0,0,1,4.2,7.757c.047,2.55.009,5.1.009,7.713l4.7.305c1.217-4.708,2.218-9.47,1.578-14.487-1.867.031-3.766,1.149-5.318-.545s-.435-3.386.127-5.289c-2.471-.071-3.082-1.954-3.947-3.772-1.754-3.683-4.9-6.02-8.411-7.851A43.909,43.909,0,0,0,53.94,13.278c-.5.034-1,.1-1.506.107a1.881,1.881,0,1,1-.242-3.744c2.722-.121,5.457-.326,8.171-.185A44.707,44.707,0,0,1,79.2,14.369c4.7,2.486,8.709,5.68,10.858,10.76a1.35,1.35,0,0,0,.951.557c.188.03.6-.332.635-.558A6.714,6.714,0,0,0,91.8,22.6a18.117,18.117,0,1,1,35.485-7.082c.922,6.873-1.333,12.648-6.816,16.885S108.88,37.3,102.4,34.856a18.361,18.361,0,0,0-3.288-.587,60.408,60.408,0,0,1-.049,6.869c-.38,3.153-1.06,6.272-1.685,9.391a1.79,1.79,0,0,0,.456,1.978,8.894,8.894,0,0,1,2.737,6.552,27.091,27.091,0,0,1-.13,4.4,9.549,9.549,0,0,1-9.4,8.062c-.71.022-1.42,0-2.064,0a44.506,44.506,0,0,1-1.813,4.872,16.916,16.916,0,0,1-13.1,9.5c-.809.127-1.068.377-1.031,1.168.057,1.21.015,2.424.015,3.8.769,0,1.431-.011,2.09,0,3.816.078,7.69-.232,11.434.325A17.869,17.869,0,0,1,101.7,107.807a1.867,1.867,0,0,1-1.526,2.119,1.79,1.79,0,0,1-2.152-1.45c-.282-1.18-.416-2.4-.749-3.565a14.068,14.068,0,0,0-12.794-10.23c-.209-.013-.42-.015-.628-.038-2.6-.288-5.014-.178-6.142,2.78A17.926,17.926,0,0,1,48.73,95.831a2.327,2.327,0,0,0-2.316-1.218c-2.563.036-5.134-.052-7.565.952A14.163,14.163,0,0,0,29.8,107.052c-.908,5.544-1.75,11.1-2.675,16.642-.185,1.111.078,1.558,1.242,1.541,2.847-.041,5.7-.014,8.717-.014V121.8c0-2.729,0-5.457,0-8.186,0-1.58.679-2.468,1.865-2.485s1.907.881,1.909,2.437c.006,3.818,0,7.636,0,11.552H86.7v-1.311c0-3.442-.006-6.884,0-10.326,0-1.468.711-2.341,1.866-2.353s1.9.867,1.906,2.318c.011,3.859,0,7.719,0,11.771H95c1.386,0,2.77.008,4.156,0,1.313-.01,1.478-.216,1.272-1.483q-.513-3.167-1.013-6.334a1.959,1.959,0,0,1,1.56-2.451,1.906,1.906,0,0,1,2.137,1.811c.419,2.395.843,4.792,1.169,7.2.3,2.231-.815,3.776-3.474,5.038ZM85.206,55.706q0-6.858,0-13.718A5.69,5.69,0,0,0,82.9,37.32a1.567,1.567,0,0,0-1.938-.153A39.147,39.147,0,0,1,64.4,41.36a49.892,49.892,0,0,1-19.655-2.846c-.877-.319-1.437-.1-1.683.7a11.267,11.267,0,0,0-.679,3.146c-.054,8.641-.045,17.284-.026,25.926.018,8.156,5.889,14.019,14.055,14.051q7.362.029,14.725,0C79.313,82.3,85.171,76.451,85.2,68.292c.017-4.2,0-8.39,0-12.586m8.146-24c1.341-.222,2.451-.367,3.545-.592a13.318,13.318,0,0,1,7.8.456,14.134,14.134,0,0,0,18.974-12.656c.241-6.043-2.369-10.717-7.754-13.47a13.45,13.45,0,0,0-15.549,1.62c-4.673,3.823-6.245,8.9-4.791,14.784a6.451,6.451,0,0,1-.2,4.148c-.719,1.809-1.31,3.668-2.026,5.71m-59.132.007c-.8-2.27-1.605-4.252-2.176-6.3a6.78,6.78,0,0,1-.109-3.156,17.44,17.44,0,0,0,.386-6.354A14.33,14.33,0,1,0,24.25,31.084a5.718,5.718,0,0,1,3.654-.435c2,.394,4.028.684,6.316,1.063m18.414,62.9c5.28,7.539,17.158,7.4,22.213.108-.411-.032-.765-.078-1.119-.085-3.22-.06-4.452-1.312-4.459-4.544,0-1.287,0-2.574,0-3.862H58.29c0,1.615.024,3.119-.006,4.623a3.575,3.575,0,0,1-3.576,3.753c-.643.047-1.293.007-2.075.007M38.508,53.373c-.6,0-1.132-.008-1.665,0-3.747.073-6.06,2.431-6.082,6.2,0,.713-.008,1.426,0,2.139a5.989,5.989,0,0,0,7.745,5.831ZM89.042,67.641c4.9.738,8.161-2.355,7.764-6.72-.038-.416,0-.838-.006-1.257-.022-4.418-3.354-7.066-7.758-6.108Z" transform="translate(0 0)" fill="#2194e5"/>
        <path id="Trazado_196868" data-name="Trazado 196868" d="M56.471,56.623c1.961.535,3.868.969,5.713,1.589a1.819,1.819,0,0,1,1.2,2.508,1.865,1.865,0,0,1-2.613.948,10.515,10.515,0,0,0-8.637.007,1.852,1.852,0,0,1-2.6-.978A1.826,1.826,0,0,1,50.768,58.2c1.846-.615,3.753-1.049,5.7-1.579" transform="translate(7.315 8.387)" fill="#2194e5"/>
        <path id="Trazado_196869" data-name="Trazado 196869" d="M44.143,46.8a7.075,7.075,0,0,1-.931-.007,1.847,1.847,0,0,1-.156-3.663,16.477,16.477,0,0,0,2.731-.377,28.783,28.783,0,0,0,4.3-1.97c1.192-.668,2.227-.693,2.907.216s.443,1.978-.638,2.831A14.135,14.135,0,0,1,44.143,46.8" transform="translate(6.149 5.969)" fill="#2194e5"/>
        <path id="Trazado_196870" data-name="Trazado 196870" d="M68.36,46.775A13.8,13.8,0,0,1,60.234,43.8a1.92,1.92,0,0,1-.557-2.839,1.873,1.873,0,0,1,2.793-.177,11.6,11.6,0,0,0,6.792,2.3A1.755,1.755,0,0,1,71.122,44.9a1.69,1.69,0,0,1-1.51,1.86,6.9,6.9,0,0,1-1.253.013" transform="translate(8.778 5.962)" fill="#2194e5"/>
        <path id="Trazado_196871" data-name="Trazado 196871" d="M48.987,50.983a2.01,2.01,0,0,1-1.882,2.232c-1.153.02-1.9-.892-1.9-2.305.008-1.385.68-2.184,1.845-2.2,1.2-.013,1.945.859,1.932,2.27" transform="translate(6.697 7.216)" fill="#2194e5"/>
        <path id="Trazado_196872" data-name="Trazado 196872" d="M66.381,50.885c.013,1.42-.718,2.331-1.874,2.328a2,2,0,0,1-1.9-2.206c-.023-1.413.71-2.3,1.9-2.3,1.172,0,1.859.8,1.873,2.173" transform="translate(9.273 7.215)" fill="#2194e5"/>
        <path id="Trazado_196873" data-name="Trazado 196873" d="M102.187,13.243a4.752,4.752,0,0,1-2.97,4.676c-.847.414-1.52.817-1.459,2.014A1.739,1.739,0,0,1,95.872,21.7a1.887,1.887,0,0,1-1.824-1.859A4.337,4.337,0,0,1,96.7,14.959c1.767-.835,1.972-1.318,1.628-2.6a2.5,2.5,0,0,0-2.56-1.806q-1.975.093-2.394,2.455c-.237,1.343-1.065,2.059-2.176,1.875a2.015,2.015,0,0,1-1.557-2.477,6.29,6.29,0,0,1,12.543.837" transform="translate(13.275 1.002)" fill="#2194e5"/>
        <path id="Trazado_196874" data-name="Trazado 196874" d="M97.243,24.046a1.915,1.915,0,0,1-2,1.948,1.875,1.875,0,0,1-1.76-2.033,1.9,1.9,0,0,1,1.845-1.967,1.966,1.966,0,0,1,1.919,2.052" transform="translate(13.847 3.258)" fill="#2194e5"/>
        <path id="Trazado_196875" data-name="Trazado 196875" d="M16.846,6.762A6.355,6.355,0,0,1,22.9,14.854a5.044,5.044,0,0,1-3.012,3.179,1.745,1.745,0,0,0-1.258,1.875,1.646,1.646,0,0,1-1.723,1.778,1.777,1.777,0,0,1-1.959-1.574,4.224,4.224,0,0,1,2.2-4.88c.255-.145.51-.294.777-.412,1.012-.445,1.7-1.038,1.334-2.311a2.516,2.516,0,0,0-4.87-.142c-.094.362-.083.753-.187,1.111a1.747,1.747,0,0,1-2.08,1.389,1.76,1.76,0,0,1-1.581-1.819,6.227,6.227,0,0,1,6.3-6.287" transform="translate(1.561 1.002)" fill="#2194e5"/>
        <path id="Trazado_196876" data-name="Trazado 196876" d="M16.23,21.994a1.9,1.9,0,0,1,1.881,1.932A1.878,1.878,0,0,1,16.259,26a1.916,1.916,0,0,1-1.912-1.916,1.974,1.974,0,0,1,1.883-2.087" transform="translate(2.125 3.258)" fill="#2194e5"/>
      </g>
    </g>
  </g>
</svg>
