<svg xmlns="http://www.w3.org/2000/svg" xmlns:xlink="http://www.w3.org/1999/xlink" width="77" height="77" viewBox="0 0 77 77">
  <defs>
    <clipPath id="clip-path">
      <rect id="Rectángulo_46507" data-name="Rectángulo 46507" width="47" height="47" transform="translate(-0.377 -0.377)" fill="#7f4fc7"/>
    </clipPath>
  </defs>
  <g id="Grupo_155232" data-name="Grupo 155232" transform="translate(-1321.961 -3235)">
    <circle id="Elipse_5824" data-name="Elipse 5824" cx="38.5" cy="38.5" r="38.5" transform="translate(1321.961 3235)" fill="#fff"/>
    <g id="Grupo_154983" data-name="Grupo 154983" transform="translate(1336.338 3250.377)">
      <g id="Grupo_154982" data-name="Grupo 154982" clip-path="url(#clip-path)">
        <path id="Trazado_197023" data-name="Trazado 197023" d="M49.754,15.626a1.239,1.239,0,0,1-1.23.641c-2.544-.021-5.088-.005-7.632-.015a.694.694,0,0,0-.633.309,7.286,7.286,0,0,1-4.472,2.982,3.3,3.3,0,0,1-1.03.073,1.285,1.285,0,0,0-1.165.49q-4.2,4.234-8.423,8.438c-.659.659-1.1.658-1.762,0L6.734,11.877c-.746-.746-.743-1.087.012-1.842q4.7-4.694,9.391-9.385c.232-.231.491-.434.738-.65h.542c.239.2.493.388.715.607.836.824,1.655,1.665,2.5,2.481a.589.589,0,0,0,.489.137c1.166-.4,2.335-.789,3.478-1.248a7.55,7.55,0,0,1,6.213.158C32.08,2.72,33.323,3.361,34.564,4c.894.462,1.758.984,2.654,1.441a3.981,3.981,0,0,0,1.895.429c.163-.924.375-1.117,1.194-1.123.271,0,.542,0,.813,0h1.46c0-.207,0-.341,0-.475.01-.94.279-1.208,1.212-1.209,1.58,0,3.161.017,4.74-.01a1.185,1.185,0,0,1,1.221.649ZM22.311,4.741a1.917,1.917,0,0,0,.132.171c1.021,1.023,2.039,2.048,3.069,3.061a1.189,1.189,0,0,0,.463.252c1.53.493,3.064.974,4.6,1.462.529.168,1.065.323,1.584.521a.872.872,0,0,1,.519,1.111.9.9,0,0,1-1.039.593,3.651,3.651,0,0,1-.432-.127q-3.8-1.2-7.607-2.4a1.747,1.747,0,0,0-2.118.746,1.684,1.684,0,0,0,.327,2.177A3.631,3.631,0,0,0,23,13c2.211.778,4.439,1.505,6.649,2.284a2.284,2.284,0,0,1,.885.633,5.188,5.188,0,0,0,5.241,1.766,5.431,5.431,0,0,0,3.3-2.572.732.732,0,0,0,.087-.386c.005-2.212,0-4.425.009-6.638,0-.282-.076-.394-.374-.415a7.616,7.616,0,0,1-3.077-.947c-1.908-1.019-3.818-2.038-5.76-2.989a5.378,5.378,0,0,0-4.174-.265c-1.153.385-2.286.834-3.471,1.271m-10.525,2.9a5.8,5.8,0,0,1,.006,6.632l9.172,9.176a5.869,5.869,0,0,1,6.64,0L29.66,21.4a5.806,5.806,0,0,1-1.026-3.75c.054-.788.061-.787-.7-1.044l-2.218-.752c-.072.2-.122.335-.175.474A5.144,5.144,0,1,1,19.424,9.54a1.046,1.046,0,0,0,.529-.407A3.73,3.73,0,0,1,22.005,7.6c.124-.038.249-.074.451-.134-.58-.571-1.124-1.087-1.641-1.629a.414.414,0,0,0-.637-.08,5.288,5.288,0,0,1-4.106.746,19.753,19.753,0,0,1-2.327-.828l-1.96,1.973m36.132,6.807V4.9H44.412v9.53c.1.01.167.025.239.025,1.08,0,2.159,0,3.267,0M19.44,11.469a3.3,3.3,0,0,0-1.953,3.879,3.338,3.338,0,0,0,3.5,2.513,3.186,3.186,0,0,0,2.92-2.647c-2.017-.58-4.016-1.229-4.471-3.745M41,14.421h1.551V6.581H41ZM22.363,24.768l1.9,1.9,1.925-1.924a3.689,3.689,0,0,0-3.826.023m-11.922-11.8a3.723,3.723,0,0,0-.008-3.978L8.445,10.97l2,1.994M17.1,2.223Q16.2,3.136,15.3,4.044c-.051.051-.094.11-.14.165a3.588,3.588,0,0,0,3.956.021L17.1,2.223M30.9,20.06l.96-.972-1.52-.813.56,1.785" transform="translate(-3.508)" fill="#7f4fc7"/>
        <path id="Trazado_197024" data-name="Trazado 197024" d="M0,68.768a1.338,1.338,0,0,1,1.3-.611c2.5.02,5,0,7.493.015a.82.82,0,0,0,.746-.362,6.9,6.9,0,0,1,4.5-2.926,7.044,7.044,0,0,1,6.374,2.237,1.743,1.743,0,0,0,.648.442c1.943.677,3.884,1.361,5.845,1.982a4.625,4.625,0,0,1,3.264,2.76c1.392-.385,2.761-.777,4.137-1.14a33.052,33.052,0,0,1,3.583-.867,3.507,3.507,0,0,1,2.863,5.986A5.689,5.689,0,0,1,38.883,77.5c-4.691,1.732-9.4,3.409-14.114,5.088-.561.2-1.157.3-1.736.453H21.5a16.75,16.75,0,0,1-5.288-2.076c-1.069-.545-2.106-1.154-3.156-1.735a5.14,5.14,0,0,0-2.42-.686c-.143.95-.372,1.144-1.309,1.144H7.2c-.01.186-.023.319-.025.452-.014.961-.278,1.224-1.244,1.224-1.593,0-3.186-.01-4.779.006A1.1,1.1,0,0,1,0,80.691Zm10.591,7.964a8.87,8.87,0,0,1,4.569,1.606c.4.24.806.47,1.222.679,1.169.585,2.326,1.2,3.522,1.724a6.16,6.16,0,0,0,4.818-.046c4.492-1.67,9.016-3.254,13.528-4.869a2.816,2.816,0,0,0,1.46-1.083A1.7,1.7,0,0,0,38.524,72.1a3.211,3.211,0,0,0-1.2.105c-2.221.594-4.432,1.222-6.65,1.826a.684.684,0,0,0-.54.506,3.451,3.451,0,0,1-3.972,2.355A29.466,29.466,0,0,1,23.186,76c-1.792-.562-3.586-1.119-5.366-1.717a1.2,1.2,0,0,1-.7-.6,1.031,1.031,0,0,1,.194-.888,1.052,1.052,0,0,1,.879-.234c1.332.369,2.643.807,3.961,1.224,1.346.426,2.689.864,4.039,1.28a1.755,1.755,0,0,0,2.079-.753,1.693,1.693,0,0,0-.346-2.211,3.871,3.871,0,0,0-1.24-.7c-2.2-.773-4.409-1.5-6.607-2.269a2.025,2.025,0,0,1-.82-.574,5.108,5.108,0,0,0-8.44.565,1.312,1.312,0,0,0-.217.7c-.016,2.137-.01,4.275-.01,6.412ZM5.367,79.539V73.648c0-1.1.006-2.2-.009-3.293,0-.127-.122-.36-.191-.362-1.108-.023-2.216-.016-3.332-.016v9.562ZM8.75,70.01H7.218v7.844H8.75Z" transform="translate(0 -36.793)" fill="#7f4fc7"/>
        <path id="Trazado_197025" data-name="Trazado 197025" d="M72.69,26.73a.88.88,0,0,1-.886.886.892.892,0,1,1,.01-1.784.882.882,0,0,1,.876.9" transform="translate(-40.253 -14.668)" fill="#7f4fc7"/>
        <path id="Trazado_197026" data-name="Trazado 197026" d="M32.845,80.241a.909.909,0,0,1,.9.886.93.93,0,0,1-.929.912.905.905,0,0,1-.866-.918.88.88,0,0,1,.894-.88" transform="translate(-18.141 -45.56)" fill="#7f4fc7"/>
      </g>
    </g>
  </g>
</svg>
