<svg xmlns="http://www.w3.org/2000/svg" xmlns:xlink="http://www.w3.org/1999/xlink" width="70" height="70" viewBox="0 0 70 70">
  <defs>
    <clipPath id="clip-path">
      <rect id="Rectángulo_46518" data-name="Rectángulo 46518" width="42.552" height="44" fill="#7f4fc7"/>
    </clipPath>
  </defs>
  <g id="Grupo_155231" data-name="Grupo 155231" transform="translate(-195.213 -3807)">
    <circle id="Elipse_5771" data-name="Elipse 5771" cx="35" cy="35" r="35" transform="translate(195.213 3807)" fill="#fff"/>
    <g id="Grupo_155033" data-name="Grupo 155033" transform="translate(208.213 3820)">
      <g id="Grupo_155032" data-name="Grupo 155032" clip-path="url(#clip-path)">
        <path id="Trazado_197071" data-name="Trazado 197071" d="M55.864,0a.932.932,0,0,1,.525.988c-.018.17,0,.343,0,.515-.008.259-.017.481.286.638a.756.756,0,0,0,.855.015c1.213-.733,1.312-.7,2.014.52.336.582.676,1.162,1.006,1.748a.79.79,0,0,1-.337,1.253c-.147.089-.3.173-.445.26-.657.382-.655.953.006,1.333,1.2.691,1.224.783.53,1.984-.336.582-.668,1.167-1.01,1.746s-.687.668-1.284.335c-.15-.083-.3-.17-.447-.256-.658-.379-1.175-.073-1.175.7,0,1.357-.076,1.433-1.433,1.433-.673,0-1.346.006-2.019,0s-.933-.271-.94-.938a3.024,3.024,0,0,1,0-.515.672.672,0,0,0-.471-.79.476.476,0,0,0-.543.017,6.633,6.633,0,0,1-.742.429.712.712,0,0,1-1.038-.273q-.742-1.23-1.436-2.49a.717.717,0,0,1,.282-1.037,3.21,3.21,0,0,1,.594-.342.591.591,0,0,0,.42-.762.9.9,0,0,0-.27-.461c-.233-.185-.52-.3-.768-.467a.713.713,0,0,1-.267-1.009q.7-1.278,1.458-2.526a.709.709,0,0,1,1.01-.261,2.436,2.436,0,0,1,.554.324.674.674,0,0,0,.987-.023.652.652,0,0,0,.215-.36,2.847,2.847,0,0,0,.006-.686A.974.974,0,0,1,52.512,0ZM59,8.563c-.257-.151-.461-.283-.676-.394A.909.909,0,0,1,57.8,7.111,4.491,4.491,0,0,0,57.8,6a.852.852,0,0,1,.5-.946c.227-.114.444-.248.7-.392L58.27,3.4c-.242.141-.455.252-.655.383a.912.912,0,0,1-1.148-.035,4.589,4.589,0,0,0-.923-.536A.921.921,0,0,1,54.919,2.2c.015-.237,0-.475,0-.708H53.458a4.44,4.44,0,0,0,0,.546,1.012,1.012,0,0,1-.774,1.207.654.654,0,0,0-.233.107,1.463,1.463,0,0,1-2.311-.039l-.76,1.325c.247.142.439.267.643.367A.955.955,0,0,1,50.6,6.13a4.035,4.035,0,0,0,0,.937.92.92,0,0,1-.576,1.116c-.207.115-.412.232-.632.357L50.113,9.8c.243-.14.451-.24.638-.371a.915.915,0,0,1,1.181.032,6.449,6.449,0,0,0,1,.574.832.832,0,0,1,.527.848c-.008.268,0,.537,0,.825h1.464c0-.227.015-.428,0-.625a.97.97,0,0,1,.688-1.1,3.033,3.033,0,0,0,.777-.445.973.973,0,0,1,1.293-.058c.182.127.381.228.59.35L59,8.563" transform="translate(-32.177)" fill="#7f4fc7"/>
        <path id="Trazado_197072" data-name="Trazado 197072" d="M27.5,55.684c.146.157.246.271.353.377q2.643,2.644,5.286,5.288a2.13,2.13,0,0,1,.31.354.717.717,0,0,1-.98.992,2.275,2.275,0,0,1-.387-.337q-3.193-3.188-6.378-6.384a1,1,0,0,0-.787-.318c-3.065.011-6.13.006-9.2.007-.814,0-1.048.233-1.049,1.046q0,3.631,0,7.262v.481c.417,0,.8.006,1.179,0a2.32,2.32,0,0,1,2.3,1.278c.059.112.3.181.455.182,2.235.012,4.469.007,6.7.01a2.228,2.228,0,0,1,.594.062.652.652,0,0,1,.494.715.66.66,0,0,1-.571.658,2.94,2.94,0,0,1-.513.03q-3.223,0-6.446,0h-.489v1.469h.494q2.858,0,5.715,0c.736,0,1.086.244,1.079.745s-.351.724-1.1.726c-1.532,0-1.532,0-2.4,1.259-.03.044-.05.1-.108.21.457,0,.866,0,1.275,0,.559,0,1.118-.009,1.675.022a.671.671,0,0,1,.656.668.694.694,0,0,1-.581.735,1.982,1.982,0,0,1-.425.041c-1.289,0-2.578,0-3.867,0a.791.791,0,0,1-.682-1.382c.368-.486.732-.976,1.143-1.525H18.381v4.373c.437,0,.862-.006,1.287,0,.606.011.846.256.877.864a3.015,3.015,0,0,1-1.659,3.207,3.4,3.4,0,0,1-1.406.311c-4.8.022-9.6.015-14.4.013A3.049,3.049,0,0,1,.043,75.35.682.682,0,0,1,.8,74.737c.454-.008.909,0,1.408,0v-.511q0-3.631,0-7.262A2.259,2.259,0,0,1,4.7,64.453q3.975,0,7.95,0h.56v-.493c0-2.421.03-4.842-.011-7.262a2.356,2.356,0,0,1,2.5-2.514c6.173.036,12.347.014,18.52.016a2.213,2.213,0,0,1,2.457,2.434q0,3.33,0,6.66c0,.654-.522,1.032-1.043.771a.856.856,0,0,1-.42-.874q0-3.094,0-6.188c0-.172,0-.344,0-.516a.742.742,0,0,0-.829-.82c-1.16-.008-2.32,0-3.481,0H27.806c-.081,0-.161.011-.305.021M12.074,65.925c.169.18.262.285.361.385q1.276,1.275,2.552,2.549a2.085,2.085,0,0,1,.3.359.663.663,0,0,1-.116.895.674.674,0,0,1-.9.072,2.32,2.32,0,0,1-.351-.313C12.7,68.647,11.48,67.413,10.24,66.2a1.06,1.06,0,0,0-.664-.272c-1.618-.023-3.235-.014-4.853-.011-.807,0-1.051.245-1.051,1.052q0,3.65,0,7.3c0,.139.014.277.022.432H16.831c.023-.051.045-.076.045-.1,0-2.634.013-5.268,0-7.9a.7.7,0,0,0-.754-.769c-1.313-.023-2.627-.008-4.051-.008m-10.62,10.3a4.011,4.011,0,0,0,.22.673,1.516,1.516,0,0,0,1.473.772q7.133-.006,14.266-.006a2.328,2.328,0,0,0,.635-.08,1.347,1.347,0,0,0,.989-1.359Z" transform="translate(0 -36.587)" fill="#7f4fc7"/>
        <path id="Trazado_197073" data-name="Trazado 197073" d="M93.114,95.445h2.614c.559,0,1.117-.005,1.676,0a1.442,1.442,0,0,1,1.573,1.5c.021,2.392.013,4.783.005,7.175,0,.529-.286.843-.712.853s-.738-.318-.749-.866c-.015-.73,0-1.461-.011-2.191a.722.722,0,0,0-.157-.457c-1.357-1.376-2.729-2.739-4.1-4.1a.648.648,0,0,0-.141-.059v.467q0,3.072,0,6.144a2.994,2.994,0,0,1-.014.429.68.68,0,0,1-.656.628.641.641,0,0,1-.735-.521,6.748,6.748,0,0,1-.084-.926H86.1A2.263,2.263,0,0,1,83.58,101q0-4.082,0-8.163A2.268,2.268,0,0,1,86.1,90.308c1.5,0,3.008.026,4.511-.008A2.3,2.3,0,0,1,93.123,92.8c-.049.856-.009,1.716-.009,2.65m-6.271-3.661c.184.193.289.307.4.416q1.321,1.32,2.643,2.638c.25.25.428.56.222.88a.952.952,0,0,1-.62.426,1.07,1.07,0,0,1-.693-.333c-1.117-1.088-2.211-2.2-3.314-3.3-.1-.1-.2-.19-.379-.351v6.928h6.545c0-2.21.005-4.385,0-6.559a.686.686,0,0,0-.734-.735c-1.313-.022-2.626-.008-4.064-.008m-1.789,8.828c0,.262-.018.477,0,.688a.729.729,0,0,0,.78.746q2.511.022,5.022,0a.714.714,0,0,0,.773-.655,7.79,7.79,0,0,0,0-.781Zm10.029-3.68,2.407,2.4v-2.4Z" transform="translate(-56.438 -60.976)" fill="#7f4fc7"/>
        <path id="Trazado_197074" data-name="Trazado 197074" d="M99.954,32.679q0-5.371,0-10.743a2.209,2.209,0,0,0-1.6-2.318,3.654,3.654,0,0,0-.934-.1c-1.962-.009-3.925,0-5.887-.006a2.877,2.877,0,0,1-.514-.025.665.665,0,0,1-.591-.684.656.656,0,0,1,.517-.7,1.736,1.736,0,0,1,.466-.056c2.048,0,4.1-.012,6.145,0a3.637,3.637,0,0,1,3.72,2.77,4.37,4.37,0,0,1,.137,1.145q.012,10.722,0,21.443a1.945,1.945,0,0,1-.053.509.655.655,0,0,1-.737.517.666.666,0,0,1-.658-.62,3.044,3.044,0,0,1-.015-.472q0-5.328,0-10.657" transform="translate(-61.063 -12.18)" fill="#7f4fc7"/>
        <path id="Trazado_197075" data-name="Trazado 197075" d="M20.536,9.012c.83,0,1.661-.007,2.491,0a.762.762,0,0,1,.842.635c.067.475-.282.823-.854.825-1.5.006-3.006,0-4.509,0-.115,0-.229,0-.344,0a.788.788,0,0,0-.878.879c-.015.629,0,1.26-.006,1.889-.006.561-.269.887-.707.9s-.748-.335-.756-.906c-.009-.63-.012-1.26,0-1.89a2.227,2.227,0,0,1,2.359-2.337c.787-.008,1.575,0,2.362,0" transform="translate(-10.674 -6.084)" fill="#7f4fc7"/>
        <path id="Trazado_197076" data-name="Trazado 197076" d="M8.076,31.659a6.517,6.517,0,0,1,4.574,1.857.718.718,0,0,1,.161.965.672.672,0,0,1-.861.282,1.362,1.362,0,0,1-.418-.292,5.1,5.1,0,0,0-6.949.008c-.441.383-.866.4-1.171.059s-.219-.77.208-1.156a6.509,6.509,0,0,1,4.455-1.723" transform="translate(-2.185 -21.378)" fill="#7f4fc7"/>
        <path id="Trazado_197077" data-name="Trazado 197077" d="M93.221,35.27c0,.458.009.915,0,1.373a.733.733,0,1,1-1.458-.009c-.01-.829-.013-1.659,0-2.488a.883.883,0,0,0-.564-.915,4.786,4.786,0,0,1-.571-.294.723.723,0,0,1,.648-1.293c1.241.518,2.035,1.133,1.949,2.811-.014.271,0,.543,0,.815" transform="translate(-60.938 -21.325)" fill="#7f4fc7"/>
        <path id="Trazado_197078" data-name="Trazado 197078" d="M15.071,42.15c.011.668-.629,1.068-1.084.711a2.454,2.454,0,0,0-3.422.011.669.669,0,0,1-.923-.153A.732.732,0,0,1,9.72,41.71a3.655,3.655,0,0,1,4.09-.688,6.364,6.364,0,0,1,1.075.765.893.893,0,0,1,.186.363" transform="translate(-6.399 -27.466)" fill="#7f4fc7"/>
        <path id="Trazado_197079" data-name="Trazado 197079" d="M17.279,61.335c0,.571.009,1.143,0,1.714-.01.5-.274.8-.691.817a.727.727,0,0,1-.764-.794q-.027-1.757,0-3.513a.737.737,0,0,1,.763-.8c.418.018.683.317.692.818.012.585,0,1.171,0,1.757" transform="translate(-10.674 -39.678)" fill="#7f4fc7"/>
        <path id="Trazado_197080" data-name="Trazado 197080" d="M69.658,118.922c-.344,0-.688.015-1.031,0a.732.732,0,0,1-.779-.74.713.713,0,0,1,.791-.718q1.031-.018,2.062,0a.712.712,0,0,1,.781.686.743.743,0,0,1-.75.774.837.837,0,0,1-.086,0h-.988Z" transform="translate(-45.815 -79.31)" fill="#7f4fc7"/>
        <path id="Trazado_197081" data-name="Trazado 197081" d="M17.312,50.463a.732.732,0,0,1-.706.719.749.749,0,0,1-.737-.737.729.729,0,0,1,.713-.71.709.709,0,0,1,.729.729" transform="translate(-10.716 -33.583)" fill="#7f4fc7"/>
        <path id="Trazado_197082" data-name="Trazado 197082" d="M65.42,15.735a2.193,2.193,0,1,1-4.386,0,2.193,2.193,0,0,1,4.386,0m-2.206-.716a.748.748,0,0,0-.712.762.726.726,0,0,0,1.45-.071.743.743,0,0,0-.738-.691" transform="translate(-41.214 -9.144)" fill="#7f4fc7"/>
      </g>
    </g>
  </g>
</svg>
